<svg version="1.2" xmlns="http://www.w3.org/2000/svg" viewBox="0 0 3000 2500" width="3000" height="2500">
	<title>258726524_602e3371-8e6f-4dc9-9e28-e5cbb06ba561</title>
	<defs>
		<linearGradient id="g1" x2="1" gradientUnits="userSpaceOnUse" gradientTransform="matrix(0,-90.019,58.217,0,2206.423,1475.07)">
			<stop offset="0" stop-color="#1fb6ff"/>
			<stop offset="1" stop-color="#ffffff"/>
		</linearGradient>
	</defs>
	<style>
		.s0 { fill: #dbdee4 } 
		.s1 { fill: #ffffff } 
		.s2 { fill: #1fb6ff } 
		.s3 { fill: #373b42 } 
		.s4 { fill: #000000 } 
		.s5 { fill: #bec4cd } 
		.s6 { fill: #f0f2f5 } 
		.s7 { fill: url(#g1) } 
	</style>
	<g>
		<g>
			<g>
				<path class="s0" d="m909.3 1878.4c-1.9 0-3.7-0.5-5.4-1.5l-178.1-103.5c-0.8-0.4-1.1-1.5-0.6-2.3 0.5-0.8 1.5-1 2.3-0.6l178.1 103.5c2.2 1.3 5 1.3 7.3 0l200.2-115.5c0.7-0.5 1.8-0.2 2.3 0.6 0.4 0.8 0.1 1.8-0.7 2.3l-200.1 115.5c-1.7 1-3.5 1.5-5.3 1.5z"/>
			</g>
			<g>
				<g>
					<g>
						<path class="s1" d="m746.3 1759.6c12.1 7 12.2 18.4 0.1 25.4-12 7-31.7 7-43.8 0-12.1-7-12.2-18.4-0.1-25.4 12-7 31.7-7 43.8 0z"/>
						<path class="s0" d="m724.6 1791.9c-8.3 0-16.5-1.8-22.8-5.5-6.5-3.7-10-8.7-10-14.2 0-5.4 3.5-10.4 9.8-14.1 12.5-7.2 32.9-7.3 45.5 0 6.5 3.7 10 8.8 10 14.2 0 5.4-3.5 10.4-9.8 14.1-6.3 3.7-14.5 5.5-22.7 5.5zm-0.2-35.9c-7.7 0-15.3 1.7-21.1 5-5.3 3.1-8.2 7.1-8.2 11.2 0 4.2 3 8.2 8.3 11.3 11.7 6.7 30.6 6.7 42.2 0 5.3-3.1 8.2-7 8.2-11.2 0-4.2-3-8.2-8.3-11.3-5.9-3.3-13.5-5-21.1-5z"/>
					</g>
					<g>
						<path class="s2" d="m724.5 1780.3c-4.7 0-9.3-1.1-12.6-3-2.6-1.5-4.1-3.3-4.1-5.1 0-1.7 1.5-3.5 4.1-5 3.2-1.9 7.8-2.9 12.5-2.9 4.7 0 9.3 1 12.5 2.9 2.7 1.5 4.2 3.4 4.2 5.1 0 1.7-1.5 3.5-4.1 5-3.2 1.9-7.8 3-12.5 3z"/>
					</g>
				</g>
				<g>
					<path class="s3" d="m815.7 1831.7c-5.1 0-10-1.2-13.5-3.2-2.8-1.6-4.4-3.6-4.4-5.4 0-1.9 1.6-3.8 4.3-5.4 3.5-2.1 8.4-3.2 13.5-3.2 5.1 0 10 1.1 13.5 3.2 2.8 1.6 4.4 3.6 4.4 5.4 0 1.9-1.6 3.8-4.3 5.4-3.5 2-8.4 3.2-13.5 3.2z"/>
				</g>
			</g>
			<g>
				<g>
					<g>
						<g>
							<path class="s0" d="m749.6 1363.6c-0.5 0-1.1-0.3-1.4-0.8-0.5-0.8-0.2-1.8 0.6-2.3l181.7-104.8c1.6-0.9 2.5-2.5 2.5-4.4 0-1.8-0.9-3.4-2.5-4.4l-134.4-77.9c-0.8-0.4-1.1-1.4-0.6-2.2 0.4-0.9 1.5-1.1 2.3-0.7l134.4 77.9c2.6 1.6 4.2 4.3 4.2 7.4 0 3-1.6 5.7-4.2 7.2l-181.7 104.8q-0.4 0.2-0.9 0.2z"/>
						</g>
						<g>
							<g>
								<g>
									<path class="s1" d="m783.8 1364.6c12.4-7.1 12.5-18.7 0.2-25.8-12.3-7.1-32.3-7.1-44.7 0-12.3 7.1-12.4 18.7-0.1 25.8 12.3 7.1 32.3 7.1 44.6 0z"/>
									<path class="s0" d="m761.5 1371.6c-8.4 0-16.8-1.9-23.2-5.6-6.4-3.7-10-8.8-10-14.3 0-5.5 3.6-10.6 10.2-14.4 12.8-7.3 33.6-7.3 46.3 0 6.5 3.8 10 8.9 10 14.3 0 5.6-3.6 10.7-10.1 14.4-6.4 3.7-14.8 5.6-23.2 5.6zm0.2-36.5c-7.8 0-15.6 1.7-21.5 5.1-5.5 3.2-8.5 7.3-8.5 11.5 0 4.3 2.9 8.3 8.3 11.4 11.8 6.9 31.1 6.9 43 0 5.4-3.1 8.5-7.2 8.5-11.5 0-4.2-3-8.2-8.4-11.4-5.9-3.4-13.6-5.1-21.4-5.1z"/>
								</g>
								<g>
									<path class="s2" d="m761.6 1343.6c-4.8 0-9.4 1-12.8 3-2.6 1.5-4.1 3.4-4.2 5.1 0 1.7 1.5 3.6 4.2 5.1 3.2 1.9 7.9 3 12.7 3 4.8 0 9.5-1.1 12.8-3 2.7-1.5 4.2-3.4 4.2-5.2 0-1.7-1.5-3.5-4.1-5.1-3.3-1.9-7.9-2.9-12.8-2.9z"/>
								</g>
							</g>
						</g>
					</g>
					<g>
						<g>
							<g>
								<g>
									<path class="s1" d="m783.8 1364.6c12.4-7.1 12.5-18.7 0.2-25.8-12.3-7.1-32.3-7.1-44.7 0-12.3 7.1-12.4 18.7-0.1 25.8 12.3 7.1 32.3 7.1 44.6 0z"/>
									<path class="s0" d="m761.5 1371.6c-8.4 0-16.8-1.9-23.2-5.6-6.4-3.7-10-8.8-10-14.3 0-5.5 3.6-10.6 10.2-14.4 12.8-7.3 33.6-7.3 46.3 0 6.5 3.8 10 8.9 10 14.3 0 5.6-3.6 10.7-10.1 14.4-6.4 3.7-14.8 5.6-23.2 5.6zm0.2-36.5c-7.8 0-15.6 1.7-21.5 5.1-5.5 3.2-8.5 7.3-8.5 11.5 0 4.3 2.9 8.3 8.3 11.4 11.8 6.9 31.1 6.9 43 0 5.4-3.1 8.5-7.2 8.5-11.5 0-4.2-3-8.2-8.4-11.4-5.9-3.4-13.6-5.1-21.4-5.1z"/>
								</g>
								<g>
									<path class="s2" d="m761.6 1343.6c-4.8 0-9.4 1-12.8 3-2.6 1.5-4.1 3.4-4.2 5.1 0 1.7 1.5 3.6 4.2 5.1 3.2 1.9 7.9 3 12.7 3 4.8 0 9.5-1.1 12.8-3 2.7-1.5 4.2-3.4 4.2-5.2 0-1.7-1.5-3.5-4.1-5.1-3.3-1.9-7.9-2.9-12.8-2.9z"/>
								</g>
							</g>
						</g>
					</g>
				</g>
				<g>
					<path class="s3" d="m858.9 1289c-5.1 0-10.2 1.1-13.7 3.2-2.9 1.6-4.5 3.6-4.5 5.5 0 1.9 1.6 3.9 4.4 5.5 3.5 2.1 8.5 3.2 13.7 3.2 5.2 0 10.2-1.2 13.7-3.2 2.9-1.6 4.5-3.7 4.5-5.5 0-1.9-1.6-3.9-4.4-5.5-3.5-2.1-8.5-3.2-13.7-3.2z"/>
				</g>
			</g>
			<g>
				<path class="s0" d="m1191.9 1246.2q-0.4 0-0.8-0.2l-241.7-140.3c-0.8-0.4-1-1.5-0.6-2.3 0.5-0.8 1.5-1 2.3-0.6l241.7 140.3c0.8 0.5 1.1 1.5 0.6 2.3-0.3 0.5-0.9 0.8-1.5 0.8z"/>
			</g>
			<g>
				<path class="s3" d="m1072.5 1165.1c5.2 0 10.2 1.2 13.7 3.3 2.9 1.6 4.5 3.6 4.5 5.5 0.1 1.9-1.6 3.9-4.4 5.5-3.5 2.1-8.5 3.2-13.7 3.2-5.1 0-10.1-1.1-13.7-3.2-2.9-1.6-4.5-3.7-4.5-5.6 0-1.8 1.6-3.8 4.4-5.4 3.5-2.1 8.5-3.3 13.7-3.3z"/>
			</g>
			<g>
				<g>
					<g>
						<g>
							<path class="s0" d="m2170.7 1905.3c-0.6 0-1.1-0.3-1.4-0.8-0.5-0.9-0.2-1.9 0.6-2.3l181.7-104.8c1.5-0.9 2.5-2.6 2.5-4.4 0-1.8-0.9-3.5-2.5-4.4l-134.5-77.9c-0.8-0.5-1-1.5-0.6-2.3 0.5-0.8 1.5-1.1 2.3-0.6l134.5 77.9c2.6 1.5 4.2 4.3 4.2 7.3-0.1 3.1-1.6 5.8-4.3 7.3l-181.6 104.8q-0.4 0.2-0.9 0.2z"/>
						</g>
						<g>
							<g>
								<g>
									<path class="s1" d="m2204.9 1906.2c12.3-7.1 12.4-18.6 0.1-25.7-12.3-7.2-32.2-7.2-44.6 0-12.4 7.1-12.4 18.6-0.2 25.7 12.3 7.2 32.3 7.2 44.7 0z"/>
									<path class="s0" d="m2182.5 1913.2c-8.3 0-16.7-1.8-23.1-5.5-6.5-3.8-10-8.8-10-14.3 0-5.5 3.6-10.6 10.1-14.4 12.9-7.4 33.7-7.4 46.4 0 6.4 3.7 10 8.8 10 14.3 0 5.5-3.6 10.6-10.2 14.4-6.4 3.7-14.8 5.5-23.2 5.5zm0.2-36.4c-7.7 0-15.5 1.7-21.5 5.1-5.4 3.2-8.4 7.2-8.4 11.5-0.1 4.2 2.9 8.3 8.3 11.4 11.8 6.8 31.1 6.8 42.9 0 5.5-3.2 8.5-7.2 8.5-11.5 0-4.2-2.9-8.3-8.3-11.4-5.9-3.4-13.7-5.1-21.5-5.1z"/>
								</g>
								<g>
									<path class="s2" d="m2182.7 1885.2c-4.8 0-9.5 1.1-12.8 3-2.7 1.5-4.2 3.4-4.2 5.2 0 1.7 1.5 3.6 4.1 5.1 3.3 1.9 8 3 12.8 3 4.8 0 9.5-1.1 12.8-3 2.6-1.6 4.2-3.4 4.2-5.2 0-1.7-1.5-3.6-4.1-5.1-3.3-1.9-8-3-12.8-3z"/>
								</g>
							</g>
						</g>
					</g>
					<g>
						<g>
							<g>
								<g>
									<path class="s1" d="m2204.9 1906.2c12.3-7.1 12.4-18.6 0.1-25.7-12.3-7.2-32.2-7.2-44.6 0-12.4 7.1-12.4 18.6-0.2 25.7 12.3 7.2 32.3 7.2 44.7 0z"/>
									<path class="s0" d="m2182.5 1913.2c-8.3 0-16.7-1.8-23.1-5.5-6.5-3.8-10-8.8-10-14.3 0-5.5 3.6-10.6 10.1-14.4 12.9-7.4 33.7-7.4 46.4 0 6.4 3.7 10 8.8 10 14.3 0 5.5-3.6 10.6-10.2 14.4-6.4 3.7-14.8 5.5-23.2 5.5zm0.2-36.4c-7.7 0-15.5 1.7-21.5 5.1-5.4 3.2-8.4 7.2-8.4 11.5-0.1 4.2 2.9 8.3 8.3 11.4 11.8 6.8 31.1 6.8 42.9 0 5.5-3.2 8.5-7.2 8.5-11.5 0-4.2-2.9-8.3-8.3-11.4-5.9-3.4-13.7-5.1-21.5-5.1z"/>
								</g>
								<g>
									<path class="s2" d="m2182.7 1885.2c-4.8 0-9.5 1.1-12.8 3-2.7 1.5-4.2 3.4-4.2 5.2 0 1.7 1.5 3.6 4.1 5.1 3.3 1.9 8 3 12.8 3 4.8 0 9.5-1.1 12.8-3 2.6-1.6 4.2-3.4 4.2-5.2 0-1.7-1.5-3.6-4.1-5.1-3.3-1.9-8-3-12.8-3z"/>
								</g>
							</g>
						</g>
					</g>
				</g>
				<g>
					<path class="s3" d="m2280 1830.6c-5.2 0-10.2 1.2-13.7 3.2-2.9 1.7-4.5 3.7-4.5 5.6 0 1.8 1.6 3.8 4.4 5.5 3.5 2 8.5 3.2 13.7 3.2 5.1 0 10.1-1.2 13.7-3.2 2.9-1.7 4.5-3.7 4.5-5.6 0-1.8-1.6-3.8-4.4-5.5-3.5-2-8.5-3.2-13.7-3.2z"/>
				</g>
			</g>
			<g>
				<path class="s0" d="m1910.7 1927.7q-0.5 0-0.9-0.2l-364.6-211.6c-0.8-0.5-1.1-1.5-0.6-2.3 0.4-0.8 1.5-1.1 2.3-0.6l364.6 211.6c0.8 0.5 1.1 1.5 0.6 2.3-0.3 0.5-0.9 0.8-1.4 0.8z"/>
			</g>
			<g>
				<g>
					<path class="s1" d="m1882.9 1932.8c-12.4-7.1-12.4-18.7-0.2-25.8 12.3-7.2 32.3-7.2 44.7 0 12.4 7.1 12.4 18.7 0.1 25.8-12.3 7.1-32.2 7.1-44.6 0z"/>
					<path class="s0" d="m1905.2 1939.8c-8.3 0-16.7-1.9-23.1-5.6-6.6-3.7-10.2-8.9-10.2-14.4 0-5.5 3.5-10.5 10-14.3 12.7-7.4 33.5-7.4 46.3 0 6.6 3.8 10.2 8.9 10.2 14.4 0 5.5-3.6 10.6-10 14.3-6.4 3.7-14.8 5.6-23.2 5.6zm-21.5-8.5c11.9 6.9 31.2 6.9 43 0 5.4-3.1 8.3-7.1 8.3-11.4 0-4.2-3-8.3-8.4-11.5-11.9-6.8-31.2-6.8-43 0-5.4 3.1-8.3 7.2-8.3 11.4 0 4.3 3 8.4 8.4 11.5z"/>
				</g>
				<g>
					<path class="s2" d="m1905.1 1911.7c4.8 0 9.5 1.1 12.8 3 2.6 1.6 4.2 3.5 4.2 5.2 0 1.7-1.5 3.6-4.1 5.1-3.3 1.9-8 3-12.8 3-4.8 0-9.5-1.1-12.8-3-2.6-1.5-4.2-3.4-4.2-5.2 0-1.7 1.5-3.6 4.1-5.1 3.3-1.9 8-3 12.8-3z"/>
				</g>
			</g>
			<g>
				<path class="s3" d="m1818 1862.2c5.1 0 10.2 1.2 13.7 3.2 2.9 1.7 4.5 3.7 4.5 5.6 0 1.8-1.6 3.8-4.4 5.4-3.5 2.1-8.5 3.3-13.7 3.3-5.2 0-10.2-1.2-13.7-3.3-2.9-1.6-4.5-3.6-4.5-5.5 0-1.9 1.6-3.9 4.4-5.5 3.5-2.1 8.5-3.2 13.7-3.2z"/>
			</g>
			<g>
				<path class="s0" d="m1818.3 1657.4c-0.6 0-1.2-0.3-1.5-0.8-0.5-0.9-0.2-1.9 0.6-2.3l157.5-90.9c5.4-3.2 12.3-3.2 17.8 0l156.4 90.9c0.8 0.4 1 1.5 0.6 2.3-0.5 0.8-1.5 1-2.3 0.6l-156.4-90.9c-4.5-2.6-10-2.6-14.5 0l-157.4 90.9q-0.4 0.2-0.8 0.2z"/>
			</g>
			<g>
				<g>
					<g>
						<path class="s3" d="m1845.4 1528.8c-0.6 0-1.1-0.3-1.4-0.8-0.5-0.8-0.2-1.9 0.6-2.3l212.6-123.8v-227.5c0-0.9 0.7-1.7 1.7-1.7 0.9 0 1.6 0.8 1.6 1.7v228.4c0 0.6-0.3 1.2-0.8 1.5l-213.4 124.3q-0.5 0.2-0.9 0.2z"/>
					</g>
					<g>
						<path class="s3" d="m1656.5 1429.6c-0.6 0-1.2-0.3-1.5-0.8-0.4-0.8-0.2-1.8 0.6-2.3l212.7-123.8v-227.4c0-1 0.7-1.7 1.7-1.7 0.9 0 1.6 0.7 1.6 1.7v228.4c0 0.6-0.3 1.1-0.8 1.4l-213.5 124.3q-0.4 0.2-0.8 0.2z"/>
					</g>
					<g>
						<path class="s3" d="m1485.1 1329.4c-0.5 0-1.1-0.3-1.4-0.8-0.5-0.8-0.2-1.9 0.6-2.3l212.6-123.8v-227.5c0-0.9 0.8-1.6 1.7-1.6 0.9 0 1.7 0.7 1.7 1.6v228.4c0 0.6-0.3 1.2-0.9 1.5l-213.4 124.3q-0.4 0.2-0.9 0.2z"/>
					</g>
					<g>
						<g>
							<g>
								<path class="s1" d="m2077.3 1064.4l-0.3 99.5c0 2.7-1.8 5.4-5.4 7.4-7 4.1-18.6 4.1-25.7 0-3.6-2.1-5.4-4.8-5.4-7.6l0.2-99.4c0 2.7 1.8 5.4 5.5 7.5 7.1 4.2 18.6 4.2 25.7 0 3.6-2 5.4-4.7 5.4-7.4z"/>
								<path class="s3" d="m2058.8 1176.1c-5 0-10-1.1-13.7-3.3-4.1-2.4-6.3-5.6-6.3-9.1l0.3-99.5c0-0.9 0.7-1.6 1.6-1.6q0 0 0.1 0c0.9 0 1.6 0.7 1.6 1.7 0 2.2 1.7 4.4 4.6 6.1 6.6 3.8 17.6 3.8 24.1 0 2.9-1.7 4.5-3.8 4.5-6 0-1 0.7-1.7 1.7-1.7q0 0 0 0c0.9 0 1.6 0.7 1.6 1.7l-0.2 99.5c0 3.4-2.2 6.6-6.2 8.9-3.8 2.2-8.8 3.3-13.7 3.3zm-16.4-104.9l-0.3 92.6c0 2.2 1.7 4.4 4.6 6.1 6.6 3.8 17.6 3.8 24.1 0 2.9-1.7 4.5-3.9 4.5-6.1l0.3-92.5q-1.2 1.1-2.8 2c-7.6 4.4-19.9 4.4-27.5 0q-1.6-1-2.9-2.1z"/>
							</g>
						</g>
						<g>
							<g>
								<path class="s1" d="m2058.5 1064.3c7.1 4.1 7.2 10.8 0 14.9-7.1 4.2-18.6 4.2-25.7 0-7.2-4.1-7.3-10.8-0.2-14.9 7.2-4.2 18.7-4.2 25.9 0z"/>
								<path class="s3" d="m2045.7 1084c-5 0-10-1.1-13.8-3.3-4-2.3-6.2-5.5-6.2-9 0-3.4 2.1-6.6 6.1-8.9 7.7-4.5 19.8-4.5 27.5 0 4 2.3 6.2 5.5 6.2 8.9 0 3.5-2.2 6.7-6.1 9-3.8 2.2-8.8 3.3-13.7 3.3zm-0.2-21.2c-4.4 0-8.7 1-12 2.9-2.9 1.7-4.5 3.8-4.5 6 0 2.2 1.7 4.4 4.6 6.1 6.6 3.8 17.6 3.8 24.1 0 2.9-1.7 4.5-3.9 4.5-6.1 0-2.2-1.6-4.3-4.5-6-3.4-1.9-7.8-2.9-12.2-2.9z"/>
							</g>
						</g>
					</g>
					<g>
						<g>
							<g>
								<path class="s1" d="m1888.3 965.2l-0.2 99.5c0 2.7-1.8 5.4-5.4 7.5-7 4.1-18.6 4.1-25.7 0-3.6-2.1-5.5-4.9-5.4-7.6l0.2-99.5c0 2.7 1.8 5.5 5.5 7.6 7.1 4.1 18.6 4.1 25.7 0 3.6-2.1 5.3-4.8 5.3-7.5z"/>
								<path class="s3" d="m1869.9 1076.9c-5 0-10-1.1-13.8-3.3-4-2.3-6.2-5.5-6.2-9l0.3-99.5c0-0.9 0.7-1.7 1.6-1.7q0 0 0 0c1 0 1.7 0.8 1.7 1.7 0 2.2 1.6 4.4 4.6 6.1 6.5 3.8 17.6 3.8 24.1 0 2.9-1.7 4.5-3.8 4.5-6 0-0.9 0.7-1.7 1.7-1.7q-0.1 0 0 0c0.9 0 1.6 0.8 1.6 1.7l-0.3 99.5c0 3.4-2.2 6.6-6.1 8.9-3.8 2.2-8.8 3.3-13.7 3.3zm-16.4-104.9l-0.3 92.6c0 2.2 1.7 4.4 4.6 6.1 6.6 3.8 17.6 3.8 24.1 0 2.9-1.7 4.5-3.8 4.5-6l0.3-92.6q-1.3 1.1-2.8 2c-7.6 4.4-19.9 4.4-27.5 0q-1.7-0.9-2.9-2.1z"/>
							</g>
						</g>
						<g>
							<g>
								<path class="s1" d="m1927.3 988.3c7.1 4.2 7.1 10.9 0 15-7.1 4.1-18.6 4.1-25.8 0-7.2-4.1-7.2-10.8-0.1-15 7.1-4.1 18.7-4.1 25.9 0z"/>
								<path class="s3" d="m1914.4 1008.1c-4.9 0-9.9-1.1-13.7-3.3-4-2.4-6.3-5.6-6.3-9 0-3.5 2.2-6.6 6.1-8.9 7.7-4.5 19.9-4.5 27.6 0 4 2.3 6.2 5.5 6.2 8.9 0 3.5-2.2 6.7-6.2 9-3.8 2.2-8.7 3.3-13.7 3.3zm-0.1-21.2c-4.4 0-8.8 1-12.1 2.9-2.8 1.7-4.4 3.8-4.4 6 0 2.2 1.6 4.4 4.6 6.1 6.5 3.8 17.5 3.8 24 0 2.9-1.7 4.5-3.9 4.5-6.1 0-2.2-1.6-4.3-4.5-6-3.3-1.9-7.7-2.9-12.1-2.9z"/>
							</g>
						</g>
					</g>
					<g>
						<g>
							<g>
								<path class="s1" d="m1717 865l-0.3 99.5c0 2.7-1.8 5.4-5.3 7.4-7.1 4.2-18.6 4.2-25.8 0-3.6-2.1-5.4-4.8-5.4-7.5l0.3-99.5c0 2.7 1.8 5.4 5.4 7.5 7.1 4.2 18.7 4.2 25.8 0 3.5-2 5.3-4.7 5.3-7.4z"/>
								<path class="s3" d="m1698.5 976.7c-4.9 0-9.9-1.1-13.7-3.3-4.1-2.4-6.3-5.6-6.3-9l0.3-99.5c0-1 0.8-1.7 1.7-1.7q0 0 0 0c0.9 0 1.7 0.7 1.7 1.7 0 2.2 1.6 4.4 4.6 6.1 6.5 3.8 17.5 3.8 24 0 2.9-1.7 4.5-3.8 4.5-6 0-1 0.8-1.7 1.7-1.7q0 0 0 0c0.9 0 1.7 0.7 1.7 1.7l-0.3 99.5c0 3.4-2.2 6.6-6.2 8.9-3.7 2.2-8.7 3.3-13.7 3.3zm-16.3-104.9l-0.3 92.6c0 2.2 1.6 4.4 4.6 6.1 6.5 3.8 17.5 3.8 24 0 2.9-1.7 4.5-3.8 4.5-6l0.3-92.6q-1.2 1.1-2.8 2c-7.5 4.4-19.8 4.4-27.4 0q-1.7-1-2.9-2.1z"/>
							</g>
						</g>
						<g>
							<g>
								<path class="s1" d="m1796 912.4c7.2 4.1 7.2 10.9 0.1 15-7.1 4.1-18.7 4.1-25.8 0-7.2-4.2-7.2-10.9-0.1-15 7.1-4.1 18.7-4.1 25.8 0z"/>
								<path class="s3" d="m1783.2 932.2c-5 0-9.9-1.1-13.7-3.3-4.1-2.4-6.3-5.6-6.3-9 0-3.5 2.2-6.6 6.1-8.9 7.7-4.5 19.8-4.5 27.6 0 4 2.3 6.2 5.5 6.2 8.9 0 3.5-2.2 6.6-6.2 9-3.8 2.2-8.7 3.3-13.7 3.3zm-0.1-21.2c-4.4 0-8.8 0.9-12.1 2.9-2.9 1.6-4.4 3.8-4.4 6 0 2.2 1.6 4.3 4.6 6.1 6.5 3.7 17.5 3.7 24 0 2.9-1.7 4.5-3.9 4.5-6.1 0-2.2-1.6-4.3-4.5-6-3.3-2-7.7-2.9-12.1-2.9z"/>
							</g>
						</g>
					</g>
					<g>
						<g>
							<g>
								<path class="s3" d="m1732.1 745.4l-0.5 181c-0.1 4.9-3.3 9.8-9.8 13.6-12.8 7.5-33.8 7.5-46.8 0-6.6-3.8-9.9-8.8-9.8-13.8l0.5-181c0 5 3.2 10 9.8 13.8 13 7.5 34 7.5 46.8 0 6.5-3.8 9.8-8.7 9.8-13.6z"/>
								<path class="s3" d="m1698.5 947.3c-8.8 0-17.6-2-24.3-5.9-6.9-4-10.7-9.4-10.7-15.2l0.5-181c0-0.9 0.7-1.6 1.7-1.6q0 0 0 0c0.9 0 1.7 0.7 1.7 1.7-0.1 4.5 3.1 8.9 9 12.2 12.4 7.3 32.7 7.2 45.1 0 5.7-3.3 8.9-7.6 8.9-12.1 0-1 0.7-1.7 1.7-1.7q0 0 0 0c0.9 0 1.6 0.8 1.6 1.7l-0.5 181c0 5.7-3.7 11.1-10.5 15-6.7 3.9-15.5 5.9-24.2 5.9zm-31.2-193l-0.5 171.9c0 4.6 3.2 9 9 12.3 12.5 7.2 32.8 7.2 45.2 0 5.7-3.3 8.9-7.6 8.9-12.1l0.5-172c-1.8 2.3-4.2 4.3-7.2 6-13.3 7.8-35.1 7.8-48.5 0-3.1-1.8-5.6-3.8-7.4-6.1z"/>
							</g>
						</g>
						<g>
							<g>
								<path class="s3" d="m1806.7 786.7c13 7.5 13 19.7 0 27.2-12.8 7.5-33.8 7.5-46.8 0-13.1-7.5-13.1-19.7-0.2-27.2 13-7.5 33.9-7.6 47 0z"/>
								<path class="s3" d="m1783.4 821.2c-8.8 0-17.6-1.9-24.3-5.8-6.9-4-10.7-9.4-10.7-15.1 0-5.8 3.7-11.1 10.4-15 13.7-8 35.1-8 48.8-0.1 6.8 4 10.5 9.3 10.5 15.1 0 5.8-3.7 11.1-10.5 15.1-6.7 3.9-15.5 5.8-24.2 5.8zm-0.2-38.5c-8.2 0-16.4 1.8-22.7 5.5-5.6 3.3-8.8 7.6-8.8 12.1 0.1 4.5 3.2 8.8 9 12.2 12.5 7.2 32.8 7.2 45.2 0 5.7-3.3 8.9-7.7 8.9-12.2 0-4.5-3.2-8.8-8.9-12.2-6.3-3.6-14.5-5.4-22.7-5.4z"/>
							</g>
						</g>
					</g>
					<g>
						<g>
							<g>
								<path class="s3" d="m1903.4 845.6l-0.5 181c0 4.9-3.2 9.8-9.7 13.6-12.9 7.5-33.9 7.5-46.8 0-6.6-3.8-9.9-8.8-9.9-13.8l0.5-181c0 5 3.3 10 9.9 13.8 12.9 7.5 33.9 7.5 46.8 0 6.5-3.8 9.7-8.7 9.7-13.6z"/>
								<path class="s3" d="m1869.8 1047.5c-8.8 0-17.6-2-24.3-5.8-6.9-4-10.7-9.5-10.7-15.3l0.5-181q0 0 0 0c0-0.9 0.8-1.7 1.7-1.7 0.9 0 1.7 0.8 1.7 1.7q0 0 0 0c0 4.6 3.2 9 9 12.4 12.5 7.2 32.8 7.2 45.2 0 5.7-3.4 8.8-7.7 8.8-12.2 0-0.9 0.8-1.7 1.7-1.7q0 0 0 0c1 0 1.7 0.8 1.7 1.7l-0.5 181c0 5.8-3.8 11.1-10.6 15.1-6.6 3.8-15.4 5.8-24.2 5.8zm-31.1-193l-0.5 171.9c-0.1 4.6 3.2 9 9 12.4 12.5 7.2 32.7 7.2 45.1 0 5.8-3.4 8.9-7.7 8.9-12.2l0.5-171.9c-1.7 2.2-4.2 4.2-7.2 6-13.3 7.7-35.1 7.7-48.5 0-3.1-1.8-5.6-3.9-7.3-6.2z"/>
							</g>
						</g>
						<g>
							<g>
								<path class="s3" d="m1938 862.6c12.9 7.5 13 19.7 0 27.3-12.9 7.4-33.9 7.4-46.9 0-13-7.6-13.1-19.8-0.3-27.3 13.1-7.6 34.1-7.6 47.2 0z"/>
								<path class="s3" d="m1914.6 897.1c-8.8 0-17.6-1.9-24.3-5.8-6.9-4-10.7-9.4-10.7-15.2 0-5.7 3.7-11 10.4-14.9 13.6-8 35.1-8 48.8 0 6.8 3.9 10.6 9.2 10.6 15 0 5.8-3.8 11.1-10.6 15.1-6.7 3.9-15.4 5.8-24.2 5.8zm-0.2-38.5c-8.3 0-16.5 1.8-22.7 5.5-5.7 3.2-8.8 7.5-8.8 12 0 4.6 3.3 8.9 9.1 12.3 12.5 7.2 32.7 7.2 45.1 0 5.8-3.3 8.9-7.7 8.9-12.2 0-4.5-3.2-8.8-8.9-12.1-6.3-3.7-14.5-5.5-22.7-5.5z"/>
							</g>
						</g>
					</g>
					<g>
						<g>
							<g>
								<path class="s3" d="m2092.3 944.8l-0.5 181c0 4.9-3.2 9.8-9.7 13.6-12.9 7.5-33.9 7.5-46.8 0-6.6-3.9-9.9-8.9-9.9-13.8l0.5-181c0 5 3.3 9.9 9.9 13.8 12.9 7.5 33.9 7.5 46.8 0 6.5-3.8 9.7-8.7 9.7-13.6z"/>
								<path class="s3" d="m2058.7 1146.6c-8.8 0-17.6-1.9-24.3-5.8-6.9-4-10.7-9.4-10.7-15.2l0.5-181q0 0 0 0c0-1 0.8-1.7 1.7-1.7 0.9 0 1.7 0.8 1.7 1.7q0 0 0 0c0 4.6 3.2 8.9 9 12.3 12.5 7.2 32.8 7.2 45.2 0 5.7-3.3 8.8-7.6 8.9-12.1 0-1 0.7-1.7 1.6-1.7q0 0 0 0c1 0 1.7 0.7 1.7 1.7l-0.5 181c0 5.7-3.8 11.1-10.6 15-6.6 3.9-15.4 5.8-24.2 5.8zm-31.1-192.9l-0.5 171.9c0 4.6 3.2 8.9 9 12.3 12.5 7.2 32.8 7.2 45.2 0 5.7-3.3 8.8-7.6 8.8-12.1l0.5-172c-1.7 2.2-4.1 4.3-7.1 6-13.4 7.8-35.1 7.8-48.6 0-3.1-1.8-5.5-3.9-7.3-6.1z"/>
							</g>
						</g>
						<g>
							<g>
								<path class="s3" d="m2069.2 938.5c12.9 7.5 13 19.7 0 27.3-12.9 7.5-33.9 7.5-46.8 0-13.1-7.6-13.2-19.8-0.3-27.3 13-7.6 34-7.6 47.1 0z"/>
								<path class="s3" d="m2045.8 973c-8.8 0-17.6-1.9-24.3-5.8-6.9-4-10.7-9.4-10.7-15.2 0-5.7 3.7-11 10.4-14.9 13.7-8 35.1-8 48.8 0 6.8 3.9 10.6 9.2 10.6 15 0 5.8-3.7 11.2-10.6 15.1-6.6 3.9-15.4 5.8-24.2 5.8zm-0.2-38.5c-8.2 0-16.4 1.8-22.7 5.5-5.6 3.3-8.7 7.5-8.7 12 0 4.6 3.2 8.9 9 12.3 12.5 7.2 32.8 7.2 45.2 0 5.7-3.3 8.9-7.7 8.8-12.2 0-4.5-3.1-8.8-8.9-12.1-6.2-3.7-14.5-5.5-22.7-5.5z"/>
							</g>
						</g>
					</g>
					<g>
						<g>
							<g>
								<g>
									<g>
										<g>
											<path class="s3" d="m1504.1 550.8c22.1-12.9 52.8-11.1 86.6 8.4 18.1 10.5 35.3 25 50.7 42.1l71-41.2c-15.5-17.2-32.8-31.8-50.9-42.1-33.7-19.6-64.3-21.5-86.4-8.5z"/>
											<path class="s3" d="m1641.3 603c-0.4 0-0.9-0.2-1.2-0.6-15.7-17.5-32.6-31.5-50.3-41.8-32.1-18.5-62.1-21.5-84.6-8.5l-0.3 0.2q0 0 0 0c-0.8 0.4-1.8 0.2-2.3-0.6-0.4-0.8-0.2-1.9 0.6-2.3q0.2-0.1 0.3-0.2l70.7-41.2c23.6-13.8 54.9-10.8 88.2 8.5 17.8 10.2 35.1 24.5 51.2 42.5 0.4 0.4 0.5 0.9 0.4 1.4-0.1 0.5-0.4 0.9-0.8 1.2l-71 41.2q-0.4 0.2-0.9 0.2zm-105.2-62.2c17 0 35.9 5.7 55.4 16.9 17.6 10.2 34.5 24.2 50.2 41.5l68-39.5c-15.5-17-32-30.5-49-40.3-32.2-18.6-62.3-21.6-84.8-8.5l-53.6 31.2q6.7-1.3 13.8-1.3z"/>
										</g>
									</g>
									<g>
										<g>
											<path class="s3" d="m1654.4 538c10.5-6.2 25-5.3 40.9 4 12.1 6.9 23.4 17.9 32.6 30.4l70.9-41.2c-9.2-12.7-20.5-23.6-32.4-30.5-16.1-9.2-30.6-10.1-41.1-4z"/>
											<path class="s3" d="m1727.9 574.1c-0.5 0-1-0.3-1.3-0.7-9.4-12.8-20.8-23.4-32.1-29.9-14.8-8.7-28.6-10.1-39-4.2l-0.2 0.2c-0.8 0.4-1.9 0.2-2.3-0.6-0.5-0.8-0.2-1.9 0.6-2.3q0.1-0.1 0.2-0.2l70.6-41.2c11.5-6.6 26.7-5.2 42.8 4 11.7 6.8 23.4 17.8 33 31 0.2 0.4 0.3 0.9 0.2 1.4 0 0.4-0.3 0.8-0.7 1.1l-70.9 41.2q-0.4 0.2-0.9 0.2zm-58.3-41.7c8.2 0 17.3 2.7 26.6 8.2 11.4 6.6 22.6 16.8 32.2 29.6l67.9-39.5c-9-12.2-19.9-22.3-30.8-28.5-15-8.6-29-10.1-39.4-4.1l-58.8 34.3q1.2 0 2.3 0z"/>
										</g>
									</g>
									<g>
										<g>
											<path class="s3" d="m2253.5 1181.8l70.9-41.3c21.8-12.7 35.4-39.8 35.5-78.2 0.2-77.4-54.1-171.7-121.5-210.7-9-5.2-17.9-9.2-26.3-11.9l-70.9 41.3c8.4 2.7 17.3 6.7 26.3 11.9 67.4 39 121.7 133.3 121.5 210.7-0.2 38.4-13.7 65.5-35.5 78.2z"/>
											<path class="s3" d="m2253.5 1183.5c-0.6 0-1.2-0.3-1.5-0.8-0.4-0.8-0.2-1.9 0.6-2.3 22.3-13 34.6-40.3 34.7-76.8 0.2-76.8-53.9-170.6-120.6-209.2-8.7-5.1-17.5-9-26-11.8-0.7-0.2-1.1-0.8-1.2-1.5-0.1-0.6 0.3-1.3 0.8-1.6l71-41.3c0.4-0.2 0.9-0.3 1.3-0.1 8.8 2.9 17.8 6.9 26.7 12.1 67.6 39.1 122.5 134.2 122.3 212.1-0.2 37.8-13.1 66.1-36.4 79.7l-70.9 41.3q-0.4 0.2-0.8 0.2zm-108.3-302.9c7.7 2.7 15.4 6.4 23.2 10.9 67.6 39.1 122.5 134.2 122.2 212.1 0 28.3-7.3 51.3-20.7 66.7l53.6-31.2c22.3-13 34.6-40.2 34.7-76.8 0.2-76.8-53.9-170.6-120.6-209.2-8.5-4.9-17-8.8-25.3-11.6z"/>
										</g>
									</g>
									<g>
										<g>
											<path class="s3" d="m1789.7 423.9c38.8-22.6 92.3-19.4 151.3 14.8 117.8 68.1 212.7 233.1 212.3 368.4 0 28.3-4.3 53-12.1 73.9l70.9-41.3c7.7-20.8 12-45.6 12.2-74 0.3-135.2-94.7-300.1-212.4-368.3-59-34.1-112.6-37.3-151.3-14.8z"/>
											<path class="s3" d="m2141.2 882.7c-0.4 0-0.8-0.2-1.1-0.4-0.5-0.5-0.7-1.2-0.5-1.9 8-21.3 12-46 12-73.3 0.4-134.7-94.4-299.3-211.4-366.9-56.6-32.8-109.7-38.1-149.7-14.8q0 0 0 0c-0.8 0.4-1.8 0.2-2.3-0.6-0.4-0.8-0.2-1.9 0.6-2.3q0.1 0 0.1 0l70.8-41.4c41-23.7 95.4-18.5 153 14.8 117.9 68.3 213.5 234.2 213.3 369.8-0.2 28-4.3 53.1-12.3 74.5-0.2 0.4-0.4 0.7-0.8 0.9l-70.9 41.4q-0.4 0.2-0.8 0.2zm-295.5-475c29.6 0 62.3 9.9 96.2 29.6 117.9 68.1 213.5 234 213 369.8 0 25.9-3.5 49.4-10.6 70.1l66.4-38.7c7.8-21 11.8-45.4 11.9-72.8 0.3-134.6-94.6-299.1-211.5-366.8-56.6-32.7-109.8-38-149.7-14.9l-48.1 28.1c10.3-2.9 21.1-4.4 32.4-4.4z"/>
										</g>
									</g>
									<g>
										<g>
											<path class="s1" d="m1941.1 438.7c-117.6-68-213.1-13.2-213.5 122 0 3.9 0.1 7.7 0.3 11.7-9.1-12.5-20.5-23.5-32.5-30.4-31.9-18.5-57.8-3.6-57.9 33 0 8.5 1.5 17.6 3.9 26.4-15.5-17.2-32.7-31.7-50.7-42.2-67.2-38.8-121.9-7.5-122.1 69.8-0.2 77.5 54.1 171.7 121.3 210.6 67.4 38.9 509.6 294.8 576.8 333.7 67.4 38.9 122 7.7 122.3-69.7 0.2-77.4-54.1-171.7-121.5-210.7-9-5.2-17.9-9.2-26.3-11.9 7.8-20.8 12.1-45.6 12.1-74 0.4-135.2-94.5-300.2-212.2-368.3z"/>
											<path class="s3" d="m2221.5 1191.8c-17.1 0-36-5.8-55.6-17.1l-576.9-333.7c-67.5-39.1-122.3-134.2-122.1-212 0.1-38 13.1-66.3 36.7-79.9 23.6-13.5 54.8-10.5 87.9 8.7 16.3 9.4 31.9 22 46.7 37.6-1.6-7.1-2.4-14.1-2.3-20.4 0-18.3 6.3-32 17.8-38.6 11.4-6.6 26.6-5.1 42.5 4.1 10.5 6.1 20.9 15.4 29.8 26.7q-0.1-3.2-0.1-6.5c0.2-65.9 22.7-115.1 63.5-138.5 40.8-23.5 95-18.2 152.5 15.1 117.9 68.2 213.5 234 213.1 369.7-0.1 27.2-4 51.8-11.6 72.9 8.2 2.9 16.6 6.7 25 11.6 67.6 39.1 122.5 134.2 122.2 212.1-0.1 38-13.1 66.3-36.6 79.8-9.7 5.6-20.6 8.4-32.5 8.4zm-685.4-647.6c-11.3 0-21.7 2.6-30.9 7.8-22.4 13-34.8 40.3-34.9 77-0.2 76.8 53.8 170.6 120.4 209.1l576.9 333.7c32.1 18.6 62.2 21.7 84.8 8.7 22.4-12.9 34.8-40.2 34.9-76.9 0.2-76.8-53.9-170.6-120.6-209.2-8.7-5.1-17.5-9-26-11.8-0.5-0.2-0.8-0.5-1-0.9-0.2-0.4-0.2-0.9-0.1-1.3 7.9-21.2 12-45.9 12.1-73.4 0.3-134.6-94.5-299.2-211.5-366.8-56.4-32.6-109.4-38-149.2-15.1-39.6 22.8-61.6 71-61.7 135.6-0.1 3.7 0.1 7.3 0.3 11.1v0.6c0 0.7-0.4 1.4-1.1 1.6-0.7 0.3-1.5 0-2-0.6-9.2-12.7-20.6-23.4-31.9-29.9-14.9-8.7-28.9-10.1-39.3-4.2-10.3 6-16 18.7-16.1 35.7 0 7.9 1.3 16.9 3.8 25.9 0.2 0.8-0.1 1.6-0.8 2-0.7 0.3-1.5 0.2-2-0.4-15.8-17.6-32.8-31.6-50.4-41.8-19-11-37.2-16.5-53.7-16.5z"/>
										</g>
									</g>
								</g>
							</g>
						</g>
					</g>
				</g>
			</g>
			<g>
				<g>
					<g>
						<g style="opacity: .1">
							<g>
								<path class="s4" d="m849 1633.7c-25.2 14.6-25.4 38.2-0.3 52.8l481.8 280c25.1 14.6 65.9 14.6 91.2 0l485.9-280.5c25.2-14.6 25.5-38.3 0.3-52.9l-481.7-279.9c-25.2-14.6-66-14.6-91.3 0z"/>
							</g>
						</g>
						<g>
							<g>
								<g>
									<g>
										<g>
											<g>
												<path fill-rule="evenodd" class="s1" d="m885 1484.2l50-29v-24.2l-49.9 29z"/>
												<path class="s3" d="m885 1485.9q-0.4 0-0.8-0.2c-0.5-0.3-0.9-0.9-0.9-1.5l0.1-24.2c0-0.6 0.3-1.1 0.8-1.5l50-29c0.5-0.3 1.1-0.3 1.7 0 0.5 0.3 0.8 0.9 0.8 1.5v24.3c0 0.6-0.3 1.1-0.8 1.4l-50 29q-0.4 0.2-0.9 0.2zm1.8-24.9l-0.1 20.3 46.6-27v-20.4z"/>
											</g>
										</g>
									</g>
									<g>
										<g>
											<g>
												<g>
													<path class="s1" d="m1154.5 1258.3l36.3 20.9v-40c0-0.7 0.1-1.3 0.3-2z"/>
													<path class="s3" d="m1190.8 1280.8q-0.5 0-0.9-0.2l-36.2-20.8c-0.5-0.3-0.8-0.9-0.8-1.5 0-0.6 0.3-1.1 0.8-1.4l36.5-21.2c0.6-0.3 1.3-0.3 1.9 0.1 0.5 0.4 0.8 1.1 0.6 1.7-0.1 0.6-0.2 1.1-0.2 1.7l-0.1 40c0 0.6-0.3 1.1-0.8 1.4q-0.4 0.2-0.8 0.2zm-32.9-22.5l31.2 18 0.1-36.1z"/>
												</g>
											</g>
										</g>
										<g>
											<g>
												<path class="s3" d="m1190.7 1279.2l0.1-40c0-8.5 9.2-13.8 16.6-9.6l37.5 21.7v24.2l-32.9-19-0.1 40c0 8.5-9.2 13.9-16.6 9.6l-40.8-23.5v-24.3z"/>
												<path class="s3" d="m1200.9 1309.3c-2.2 0-4.4-0.6-6.4-1.7l-40.8-23.6c-0.5-0.3-0.8-0.8-0.8-1.4v-24.3c0-0.6 0.3-1.2 0.8-1.5 0.5-0.3 1.2-0.3 1.7 0l33.6 19.5 0.1-37.1c0.1-4.6 2.4-8.7 6.4-11 4-2.3 8.8-2.3 12.7 0l37.5 21.6c0.5 0.3 0.9 0.9 0.9 1.5v24.2c0 0.6-0.4 1.2-0.9 1.5-0.5 0.3-1.1 0.3-1.7 0l-30.4-17.6v37.2c0 4.5-2.4 8.7-6.4 11-2 1.1-4.2 1.7-6.3 1.7zm-44.7-27.7l40 23.1c2.9 1.6 6.4 1.6 9.3 0 3-1.7 4.7-4.8 4.7-8.2l0.1-40c0-0.6 0.3-1.1 0.8-1.4 0.5-0.3 1.2-0.3 1.7 0l30.4 17.5v-20.4l-36.6-21.1c-3-1.7-6.5-1.7-9.4 0-2.9 1.7-4.7 4.7-4.7 8.1l-0.1 40c0 0.6-0.3 1.1-0.8 1.4-0.6 0.3-1.2 0.3-1.7 0l-33.7-19.4c0 0 0 20.4 0 20.4z"/>
											</g>
										</g>
										<g>
											<g>
												<path fill-rule="evenodd" class="s1" d="m1244.9 1275.5l50-29v-24.2l-50 29z"/>
												<path class="s3" d="m1244.9 1277.2q-0.5 0-0.9-0.2c-0.5-0.3-0.8-0.9-0.8-1.5l0.1-24.2c0-0.6 0.3-1.2 0.8-1.5l49.9-29c0.6-0.3 1.2-0.3 1.7 0 0.5 0.3 0.9 0.9 0.9 1.5v24.2c0 0.6-0.4 1.2-0.9 1.5l-50 29q-0.4 0.2-0.8 0.2zm1.7-24.9v20.3l46.6-27v-20.4z"/>
											</g>
										</g>
										<g>
											<path class="s1" d="m1195.9 1230c3.2-2.2 7.6-2.6 11.5-0.4l33.3 19.3 4.1 2.4 50.1-29-37.5-21.6c-3.9-2.2-8.3-1.8-11.5 0.3z"/>
											<path class="s3" d="m1244.8 1253q-0.4 0-0.8-0.3l-37.4-21.6c-2.8-1.6-6.1-1.7-8.8-0.3l-1.1 0.6c-0.8 0.5-1.8 0.2-2.2-0.6-0.5-0.7-0.3-1.7 0.5-2.2q0.5-0.4 1.2-0.7l48.8-28.4c4-2.5 9-2.7 13.2-0.3l37.6 21.7c0.5 0.3 0.8 0.8 0.8 1.4 0 0.6-0.3 1.2-0.8 1.5l-50.1 28.9q-0.4 0.3-0.9 0.3zm-40.1-26.2q1.8 0.4 3.5 1.4l36.6 21.1 46.8-27-35-20.2c-3.1-1.7-6.9-1.6-9.8 0.3z"/>
										</g>
									</g>
									<g>
										<g>
											<g>
												<g>
													<path class="s1" d="m1034.6 1327.9l36.2 20.8 0.1-39.9c0-0.7 0.1-1.4 0.2-2.1z"/>
													<path class="s3" d="m1070.8 1350.4q-0.4 0-0.8-0.2l-36.2-20.9c-0.6-0.3-0.9-0.8-0.9-1.4 0-0.6 0.3-1.2 0.9-1.5l36.5-21.1c0.5-0.4 1.3-0.3 1.8 0.1 0.5 0.4 0.8 1 0.7 1.7-0.2 0.6-0.2 1.1-0.2 1.7l-0.1 39.9c0 0.6-0.3 1.2-0.9 1.5q-0.4 0.2-0.8 0.2zm-32.8-22.5l31.1 17.9 0.1-36z"/>
												</g>
											</g>
										</g>
										<g>
											<g>
												<path class="s3" d="m1070.8 1348.7l0.1-39.9c0-8.5 9.2-13.8 16.6-9.6l37.4 21.6v24.3l-32.9-19v40c-0.1 8.5-9.3 13.8-16.6 9.6l-40.8-23.6v-24.3z"/>
												<path class="s3" d="m1080.9 1378.9c-2.2 0-4.4-0.6-6.4-1.8l-40.7-23.5c-0.6-0.3-0.9-0.9-0.9-1.5v-24.2c0-0.6 0.3-1.2 0.9-1.5 0.5-0.3 1.1-0.3 1.6 0l33.7 19.4 0.1-37.1c0-4.5 2.4-8.7 6.4-11 3.9-2.2 8.7-2.2 12.7 0l37.5 21.7c0.5 0.3 0.8 0.8 0.8 1.4v24.3c0 0.6-0.3 1.1-0.8 1.4-0.6 0.3-1.2 0.3-1.7 0l-30.4-17.5-0.1 37.1c0 4.6-2.4 8.7-6.3 11-2 1.2-4.2 1.8-6.4 1.8zm-44.6-27.7l39.9 23c2.9 1.7 6.4 1.7 9.4 0 2.9-1.7 4.7-4.7 4.7-8.1v-40c0-0.6 0.3-1.2 0.9-1.5 0.5-0.3 1.1-0.3 1.6 0l30.4 17.6v-20.4l-36.6-21.1c-2.9-1.7-6.4-1.7-9.4 0-2.9 1.6-4.6 4.7-4.7 8.1l-0.1 40c0 0.6-0.3 1.1-0.8 1.4-0.5 0.3-1.2 0.3-1.7 0l-33.6-19.4c0 0 0 20.4 0 20.4z"/>
											</g>
										</g>
										<g>
											<g>
												<path fill-rule="evenodd" class="s1" d="m1124.9 1345.1l50-29v-24.2l-49.9 29z"/>
												<path class="s3" d="m1124.9 1346.8q-0.4 0-0.8-0.3c-0.5-0.3-0.9-0.8-0.9-1.4l0.1-24.2c0-0.6 0.3-1.2 0.8-1.5l50-29c0.5-0.3 1.1-0.3 1.7 0 0.5 0.3 0.8 0.9 0.8 1.5v24.2c0 0.6-0.3 1.2-0.8 1.5l-50 28.9q-0.4 0.3-0.9 0.3zm1.8-25l-0.1 20.4 46.6-27.1v-20.3z"/>
											</g>
										</g>
										<g>
											<path class="s1" d="m1075.9 1299.5c3.3-2.1 7.7-2.5 11.6-0.3l33.3 19.3 4.1 2.4 50.1-29-37.6-21.7c-3.8-2.2-8.2-1.8-11.5 0.4z"/>
											<path class="s3" d="m1124.9 1322.5q-0.4 0-0.8-0.2l-37.5-21.6c-2.7-1.6-6-1.7-8.8-0.3l-1 0.6c-0.8 0.4-1.8 0.2-2.3-0.6-0.5-0.8-0.3-1.8 0.5-2.3q0.6-0.4 1.2-0.7l48.9-28.3c3.9-2.6 9-2.7 13.2-0.3l37.5 21.6c0.5 0.3 0.8 0.9 0.8 1.5 0 0.6-0.3 1.1-0.8 1.4l-50.1 29q-0.4 0.2-0.8 0.2zm-40.2-26.1q1.9 0.4 3.6 1.4l36.6 21.1 46.7-27-35-20.2c-3.1-1.8-6.8-1.7-9.8 0.3z"/>
										</g>
									</g>
									<g>
										<g>
											<g>
												<g>
													<path class="s1" d="m914.6 1397.5l36.2 20.8 0.1-40c0-0.7 0.1-1.3 0.3-2z"/>
													<path class="s3" d="m950.8 1420q-0.4 0-0.8-0.2l-36.2-20.9c-0.5-0.3-0.8-0.8-0.8-1.4 0-0.6 0.3-1.2 0.8-1.5l36.5-21.2c0.6-0.3 1.3-0.3 1.8 0.1 0.6 0.4 0.8 1.1 0.7 1.7-0.1 0.7-0.2 1.2-0.2 1.7l-0.1 40c0 0.6-0.3 1.2-0.8 1.5q-0.4 0.2-0.9 0.2zm-32.8-22.6l31.2 18v-36.1z"/>
												</g>
											</g>
										</g>
										<g>
											<g>
												<path class="s3" d="m950.8 1418.3l0.1-40c0-8.5 9.2-13.8 16.6-9.5l37.5 21.6v24.3l-32.9-19.1-0.1 40.1c0 8.5-9.2 13.8-16.6 9.5l-40.8-23.5v-24.3z"/>
												<path class="s3" d="m960.9 1448.4c-2.1 0-4.3-0.6-6.3-1.7l-40.8-23.5c-0.5-0.3-0.8-0.9-0.8-1.5v-24.3c0-0.6 0.3-1.1 0.8-1.4 0.5-0.3 1.2-0.3 1.7 0l33.6 19.4 0.1-37.1c0-4.6 2.4-8.7 6.4-11 4-2.3 8.7-2.3 12.7 0l37.5 21.6c0.5 0.3 0.9 0.9 0.9 1.5v24.3c0 0.6-0.4 1.1-0.9 1.4-0.5 0.3-1.1 0.3-1.7 0l-30.4-17.5v37.1c0 4.6-2.4 8.7-6.4 11-2 1.1-4.2 1.7-6.4 1.7zm-44.6-27.7l40 23.1c2.9 1.7 6.4 1.7 9.3 0 3-1.7 4.7-4.7 4.7-8.1l0.1-40.1c0-0.6 0.3-1.1 0.8-1.4 0.5-0.3 1.2-0.3 1.7 0l30.4 17.5v-20.3l-36.6-21.2c-3-1.7-6.5-1.7-9.4 0-2.9 1.7-4.7 4.7-4.7 8.1l-0.1 40c0 0.6-0.3 1.2-0.9 1.5-0.5 0.3-1.1 0.3-1.6 0l-33.7-19.5c0 0 0 20.4 0 20.4z"/>
											</g>
										</g>
										<g>
											<g>
												<path fill-rule="evenodd" class="s1" d="m1005 1414.7l50-29v-24.3l-50 29z"/>
												<path class="s3" d="m1005 1416.3q-0.5 0-0.9-0.2c-0.5-0.3-0.8-0.8-0.8-1.4l0.1-24.3c0-0.6 0.3-1.1 0.8-1.4l49.9-29c0.6-0.3 1.2-0.3 1.7 0 0.5 0.3 0.9 0.8 0.9 1.4v24.3c0 0.6-0.4 1.1-0.9 1.4l-50 29q-0.4 0.2-0.8 0.2zm1.7-24.9v20.3l46.6-27v-20.4z"/>
											</g>
										</g>
										<g>
											<path class="s1" d="m956 1369.1c3.2-2.1 7.6-2.5 11.5-0.3l33.3 19.3 4.1 2.3 50.1-29-37.5-21.6c-3.9-2.2-8.3-1.8-11.5 0.3z"/>
											<path class="s3" d="m1004.9 1392.1q-0.4 0-0.8-0.2l-37.4-21.7c-2.8-1.5-6.1-1.6-8.9-0.2l-1 0.6c-0.8 0.4-1.8 0.2-2.3-0.6-0.4-0.8-0.2-1.8 0.5-2.3q0.6-0.4 1.2-0.7l48.9-28.3c3.9-2.6 9-2.8 13.2-0.4l37.5 21.7c0.6 0.3 0.9 0.8 0.9 1.4 0 0.6-0.3 1.2-0.9 1.5l-50 29q-0.4 0.2-0.9 0.2zm-40.1-26.2q1.8 0.5 3.5 1.4l36.6 21.2 46.7-27.1-34.9-20.1c-3.1-1.8-6.9-1.7-9.8 0.2z"/>
										</g>
									</g>
								</g>
								<g>
									<g>
										<g>
											<g>
												<path fill-rule="evenodd" class="s1" d="m1861.3 1484.2l-50-29v-24.2l49.9 29z"/>
												<path class="s3" d="m1861.3 1485.9q-0.4 0-0.8-0.2l-50-29c-0.5-0.3-0.9-0.8-0.9-1.4v-24.3c0-0.6 0.4-1.2 0.9-1.5 0.5-0.3 1.1-0.3 1.7 0l49.9 29c0.5 0.4 0.8 0.9 0.8 1.5l0.1 24.2c0 0.6-0.3 1.2-0.8 1.5q-0.4 0.2-0.9 0.2zm-48.3-31.6l46.6 27v-20.3l-46.6-27.1z"/>
											</g>
										</g>
									</g>
									<g>
										<g>
											<g>
												<g>
													<path class="s1" d="m1591.8 1258.3l-36.2 20.9-0.1-40c0-0.7-0.1-1.3-0.2-2z"/>
													<path class="s3" d="m1555.6 1280.8q-0.5 0-0.9-0.2c-0.5-0.3-0.8-0.8-0.8-1.4l-0.1-40c0-0.6 0-1.1-0.2-1.7-0.1-0.6 0.1-1.3 0.7-1.7 0.5-0.4 1.2-0.4 1.8-0.1l36.5 21.2c0.5 0.3 0.9 0.8 0.9 1.4 0 0.6-0.4 1.2-0.9 1.5l-36.2 20.8q-0.4 0.2-0.8 0.2zm1.6-40.6l0.1 36.1 31.1-18z"/>
												</g>
											</g>
										</g>
										<g>
											<g>
												<path class="s3" d="m1555.6 1279.2l-0.1-40c0-8.5-9.2-13.8-16.6-9.6l-37.4 21.7v24.2l32.9-19v40c0 8.5 9.2 13.9 16.6 9.6l40.8-23.5v-24.3z"/>
												<path class="s3" d="m1545.5 1309.3c-2.2 0-4.4-0.6-6.4-1.7-4-2.3-6.4-6.5-6.4-11.1v-37.1l-30.4 17.6c-0.5 0.3-1.2 0.3-1.7 0-0.5-0.3-0.8-0.9-0.8-1.5v-24.2c0-0.6 0.3-1.2 0.8-1.5l37.5-21.6c4-2.3 8.7-2.3 12.7 0 4 2.3 6.4 6.4 6.4 11l0.1 37.1 33.6-19.5c0.6-0.3 1.2-0.3 1.7 0 0.5 0.3 0.9 0.9 0.9 1.5v24.3c0 0.6-0.4 1.1-0.9 1.4l-40.8 23.6c-1.9 1.1-4.1 1.7-6.3 1.7zm-11.1-54.5q0.4 0 0.8 0.3c0.5 0.3 0.8 0.8 0.8 1.4l0.1 40c0 3.4 1.8 6.5 4.7 8.2 2.9 1.6 6.4 1.6 9.4 0l39.9-23.1v-20.4l-33.7 19.4c-0.5 0.3-1.1 0.3-1.6 0-0.5-0.3-0.9-0.8-0.9-1.4l-0.1-40c0-3.4-1.7-6.4-4.7-8.1-2.9-1.7-6.4-1.7-9.3 0l-36.7 21.1v20.4l30.4-17.5q0.4-0.3 0.9-0.3z"/>
											</g>
										</g>
										<g>
											<g>
												<path fill-rule="evenodd" class="s1" d="m1501.5 1275.5l-50.1-29v-24.2l50 29z"/>
												<path class="s3" d="m1501.5 1277.2q-0.5 0-0.9-0.2l-50-29c-0.5-0.3-0.8-0.8-0.8-1.4v-24.3c0-0.6 0.3-1.2 0.8-1.5 0.5-0.3 1.2-0.3 1.7 0l49.9 29c0.5 0.3 0.9 0.9 0.9 1.5v24.2c0 0.6-0.3 1.2-0.8 1.5q-0.4 0.2-0.8 0.2zm-48.4-31.6l46.7 27-0.1-20.3-46.6-27.1z"/>
											</g>
										</g>
										<g>
											<path class="s1" d="m1550.4 1230c-3.2-2.2-7.6-2.6-11.5-0.4l-33.3 19.3-4.1 2.4-50.1-29 37.5-21.6c3.9-2.2 8.3-1.8 11.6 0.3z"/>
											<path class="s3" d="m1501.5 1253q-0.5 0-0.9-0.3l-50-28.9c-0.5-0.3-0.9-0.9-0.9-1.5 0-0.6 0.4-1.1 0.9-1.4l37.5-21.7c4.2-2.4 9.3-2.2 13.3 0.4l48.7 28.3q0.7 0.3 1.3 0.7c0.7 0.5 1 1.5 0.5 2.2-0.5 0.8-1.5 1.1-2.3 0.6l-1-0.6c-2.8-1.4-6.1-1.3-8.9 0.3l-37.4 21.6q-0.4 0.3-0.8 0.3zm-46.7-30.7l46.7 27 36.6-21.1q1.7-1 3.5-1.4l-42-24.4c-3-1.9-6.7-2-9.8-0.3z"/>
										</g>
									</g>
									<g>
										<g>
											<g>
												<g>
													<path class="s1" d="m1711.7 1327.9l-36.2 20.8v-39.9c0-0.7-0.1-1.4-0.3-2.1z"/>
													<path class="s3" d="m1675.5 1350.4q-0.4 0-0.8-0.2c-0.5-0.3-0.8-0.9-0.8-1.5l-0.1-39.9c0-0.6-0.1-1.1-0.2-1.7-0.2-0.7 0.1-1.3 0.6-1.7 0.6-0.4 1.3-0.5 1.9-0.1l36.5 21.1c0.5 0.3 0.8 0.9 0.8 1.5 0 0.6-0.3 1.1-0.8 1.4l-36.2 20.9q-0.4 0.2-0.9 0.2zm1.6-40.6l0.1 36 31.2-17.9z"/>
												</g>
											</g>
										</g>
										<g>
											<g>
												<path class="s3" d="m1675.6 1348.7l-0.1-39.9c-0.1-8.5-9.3-13.8-16.6-9.6l-37.5 21.6v24.3l32.9-19 0.1 40c0 8.5 9.2 13.8 16.6 9.6l40.7-23.6v-24.3z"/>
												<path class="s3" d="m1665.4 1378.9c-2.2 0-4.3-0.6-6.3-1.8-4-2.3-6.4-6.4-6.4-11l-0.1-37.1-30.4 17.5c-0.5 0.3-1.1 0.3-1.6 0-0.6-0.3-0.9-0.8-0.9-1.4v-24.3c0-0.6 0.3-1.1 0.9-1.4l37.4-21.7c4-2.2 8.8-2.2 12.8 0 3.9 2.3 6.3 6.5 6.3 11.1l0.1 37 33.7-19.4c0.5-0.3 1.2-0.3 1.7 0 0.5 0.3 0.8 0.9 0.8 1.5v24.2c0 0.6-0.3 1.2-0.8 1.5l-40.8 23.5c-2 1.2-4.2 1.8-6.4 1.8zm-11.1-54.5q0.5 0 0.9 0.2c0.5 0.3 0.8 0.9 0.8 1.5l0.1 40c0 3.4 1.7 6.4 4.6 8.1 3 1.7 6.5 1.7 9.4 0l40-23v-20.4l-33.7 19.4c-0.5 0.3-1.1 0.3-1.7 0-0.5-0.3-0.8-0.8-0.8-1.4l-0.1-40c0-3.4-1.8-6.5-4.7-8.1-3-1.7-6.5-1.7-9.4 0l-36.6 21.1v20.4l30.4-17.6q0.4-0.2 0.8-0.2z"/>
											</g>
										</g>
										<g>
											<g>
												<path fill-rule="evenodd" class="s1" d="m1621.4 1345.1l-50-29v-24.2l49.9 29z"/>
												<path class="s3" d="m1621.4 1346.8q-0.4 0-0.8-0.3l-50-28.9c-0.6-0.3-0.9-0.9-0.9-1.5v-24.2c0-0.6 0.3-1.2 0.9-1.5 0.5-0.3 1.1-0.3 1.6 0l50 29c0.5 0.3 0.8 0.9 0.8 1.5l0.1 24.2c0 0.6-0.3 1.1-0.9 1.4q-0.4 0.3-0.8 0.3zm-48.3-31.7l46.6 27.1v-20.4l-46.6-27z"/>
											</g>
										</g>
										<g>
											<path class="s1" d="m1670.4 1299.5c-3.2-2.1-7.7-2.5-11.5-0.3l-33.4 19.3-4.1 2.4-50-29 37.5-21.7c3.8-2.2 8.3-1.8 11.5 0.4z"/>
											<path class="s3" d="m1621.4 1322.5q-0.4 0-0.8-0.2l-50.1-29c-0.5-0.3-0.8-0.8-0.8-1.4 0-0.6 0.3-1.2 0.8-1.5l37.5-21.6c4.2-2.4 9.3-2.3 13.3 0.3l48.8 28.3q0.6 0.3 1.2 0.7c0.8 0.5 1 1.5 0.5 2.3-0.5 0.8-1.5 1-2.2 0.6l-1.1-0.6c-2.7-1.4-6-1.3-8.8 0.3l-37.4 21.6q-0.4 0.2-0.9 0.2zm-46.7-30.6l46.7 27 36.6-21.1q1.7-1 3.6-1.4l-42-24.4c-3.1-2-6.8-2.1-9.9-0.3z"/>
										</g>
									</g>
									<g>
										<g>
											<g>
												<g>
													<path class="s1" d="m1831.7 1397.5l-36.2 20.8-0.1-40c0-0.7-0.1-1.3-0.2-2z"/>
													<path class="s3" d="m1795.5 1420q-0.5 0-0.9-0.2c-0.5-0.3-0.8-0.9-0.8-1.5l-0.1-40c0-0.5 0-1-0.2-1.7-0.1-0.6 0.1-1.3 0.7-1.7 0.5-0.4 1.2-0.4 1.8-0.1l36.5 21.2c0.6 0.3 0.9 0.9 0.9 1.5 0 0.6-0.3 1.1-0.9 1.4l-36.2 20.9q-0.4 0.2-0.8 0.2zm1.6-40.7l0.1 36.1 31.1-18z"/>
												</g>
											</g>
										</g>
										<g>
											<g>
												<path class="s3" d="m1795.5 1418.3l-0.1-40c0-8.5-9.2-13.8-16.6-9.5l-37.4 21.6v24.3l32.9-19.1v40.1c0 8.5 9.2 13.8 16.6 9.5l40.8-23.5v-24.3z"/>
												<path class="s3" d="m1785.4 1448.4c-2.2 0-4.4-0.6-6.4-1.7-4-2.3-6.3-6.4-6.3-11l-0.1-37.1-30.4 17.5c-0.5 0.3-1.2 0.3-1.7 0-0.5-0.3-0.8-0.8-0.8-1.4v-24.3c0-0.6 0.3-1.2 0.8-1.5l37.5-21.6c4-2.3 8.7-2.3 12.7 0 4 2.3 6.4 6.4 6.4 11l0.1 37.1 33.7-19.4c0.5-0.3 1.1-0.3 1.6 0 0.6 0.3 0.9 0.8 0.9 1.4v24.3c0 0.6-0.3 1.2-0.9 1.5l-40.7 23.5c-2 1.1-4.2 1.7-6.4 1.7zm-11.1-54.4q0.4 0 0.8 0.2c0.5 0.3 0.9 0.8 0.9 1.4v40.1c0 3.4 1.8 6.4 4.7 8.1 2.9 1.7 6.4 1.7 9.4 0l39.9-23.1v-20.4l-33.6 19.5c-0.6 0.3-1.2 0.3-1.7 0-0.5-0.3-0.9-0.9-0.9-1.5l-0.1-40c0-3.4-1.7-6.4-4.7-8.1-2.9-1.7-6.4-1.7-9.3 0l-36.7 21.2v20.3l30.4-17.5q0.4-0.2 0.9-0.2z"/>
											</g>
										</g>
										<g>
											<g>
												<path fill-rule="evenodd" class="s1" d="m1741.4 1414.7l-50-29v-24.3l49.9 29z"/>
												<path class="s3" d="m1741.4 1416.3q-0.5 0-0.9-0.2l-50-29c-0.5-0.3-0.8-0.8-0.8-1.4v-24.3c0-0.6 0.3-1.1 0.8-1.4 0.5-0.3 1.2-0.3 1.7 0l49.9 29c0.6 0.3 0.9 0.8 0.9 1.4v24.3c0 0.6-0.3 1.1-0.8 1.4q-0.4 0.2-0.8 0.2zm-48.4-31.6l46.7 27-0.1-20.3-46.6-27.1z"/>
											</g>
										</g>
										<g>
											<path class="s1" d="m1790.4 1369.1c-3.3-2.1-7.7-2.5-11.6-0.3l-33.3 19.3-4.1 2.3-50.1-29 37.5-21.6c3.9-2.2 8.3-1.8 11.6 0.3z"/>
											<path class="s3" d="m1741.4 1392.1q-0.5 0-0.9-0.2l-50-29c-0.5-0.3-0.9-0.9-0.9-1.5 0-0.6 0.4-1.1 0.9-1.4l37.5-21.7c4.2-2.4 9.3-2.2 13.3 0.4l48.8 28.3q0.6 0.3 1.2 0.7c0.7 0.5 1 1.5 0.5 2.3-0.5 0.8-1.5 1-2.3 0.6l-1-0.6c-2.8-1.4-6.1-1.3-8.8 0.2l-37.5 21.7q-0.4 0.2-0.8 0.2zm-46.7-30.7l46.7 27.1 36.6-21.2q1.7-0.9 3.5-1.4l-42-24.3c-3-2-6.7-2.1-9.8-0.3z"/>
										</g>
									</g>
								</g>
								<g>
									<g>
										<g>
											<path class="s1" d="m1951.6 1467l-36.2 20.9v-40c0-0.7-0.1-1.3-0.3-2z"/>
											<path class="s3" d="m1915.4 1489.5q-0.4 0-0.8-0.2c-0.5-0.3-0.8-0.8-0.8-1.4l-0.1-40c0-0.6-0.1-1.1-0.2-1.7-0.2-0.6 0.1-1.3 0.6-1.7 0.6-0.4 1.3-0.4 1.9-0.1l36.5 21.2c0.5 0.3 0.8 0.8 0.8 1.4 0 0.6-0.3 1.2-0.8 1.5l-36.2 20.8q-0.4 0.2-0.9 0.2zm1.6-40.6l0.1 36.1 31.2-18z"/>
										</g>
									</g>
								</g>
								<g>
									<g>
										<path class="s3" d="m1915.5 1487.9l-0.1-40c-0.1-8.5-9.3-13.8-16.6-9.6l-37.5 21.7v24.2l32.9-19 0.1 40c0 8.5 9.2 13.9 16.6 9.6l40.7-23.5v-24.3z"/>
										<path class="s3" d="m1905.3 1518c-2.1 0-4.3-0.6-6.3-1.7-4-2.3-6.4-6.5-6.4-11.1v-37.1l-30.4 17.6c-0.6 0.3-1.2 0.3-1.7 0-0.5-0.3-0.9-0.9-0.9-1.5v-24.2c0-0.6 0.4-1.2 0.9-1.5l37.4-21.6c4-2.3 8.8-2.3 12.8 0 4 2.3 6.3 6.4 6.3 11l0.1 37.1 33.7-19.5c0.5-0.3 1.2-0.3 1.7 0 0.5 0.3 0.8 0.9 0.8 1.5v24.3c0 0.6-0.3 1.1-0.8 1.4l-40.8 23.6c-2 1.1-4.2 1.7-6.4 1.7zm-11.1-54.5q0.5 0 0.9 0.3c0.5 0.3 0.8 0.8 0.8 1.4l0.1 40c0 3.4 1.7 6.5 4.7 8.2 2.9 1.6 6.4 1.6 9.3 0l40-23.1v-20.4l-33.7 19.4c-0.5 0.3-1.1 0.3-1.7 0-0.5-0.3-0.8-0.8-0.8-1.4l-0.1-40c0-3.4-1.8-6.4-4.7-8.1-2.9-1.7-6.4-1.7-9.4 0l-36.6 21.1v20.4l30.4-17.5q0.4-0.3 0.8-0.3z"/>
									</g>
								</g>
								<g>
									<path class="s1" d="m1910.3 1438.7c-3.2-2.2-7.7-2.6-11.5-0.4l-33.3 19.3-4.2 2.4-50-29 37.5-21.6c3.9-2.2 8.3-1.8 11.5 0.3z"/>
									<path class="s3" d="m1861.3 1461.7q-0.4 0-0.8-0.3l-50.1-28.9c-0.5-0.3-0.8-0.9-0.8-1.5 0-0.6 0.3-1.2 0.8-1.5l37.6-21.6c4.2-2.4 9.2-2.3 13.2 0.4l48.8 28.3q0.6 0.3 1.2 0.7c0.8 0.5 1 1.5 0.5 2.2-0.5 0.8-1.5 1.1-2.2 0.6l-1.1-0.6c-2.7-1.4-6-1.3-8.8 0.3l-37.4 21.6q-0.4 0.3-0.9 0.3zm-46.7-30.7l46.7 27 36.6-21.1q1.8-1 3.6-1.4l-42-24.4c-3-1.9-6.8-2-9.9-0.3z"/>
								</g>
								<g>
									<g>
										<g>
											<path class="s1" d="m794.7 1467l36.2 20.9 0.1-40c0-0.7 0-1.3 0.2-2z"/>
											<path class="s3" d="m830.9 1489.5q-0.5 0-0.9-0.2l-36.1-20.8c-0.5-0.3-0.9-0.9-0.9-1.5 0-0.6 0.4-1.1 0.9-1.4l36.5-21.2c0.5-0.3 1.3-0.3 1.8 0.1 0.5 0.4 0.8 1.1 0.6 1.7-0.1 0.6-0.2 1.1-0.2 1.7v40c0 0.6-0.4 1.1-0.9 1.4q-0.4 0.2-0.8 0.2zm-32.8-22.5l31.1 18 0.1-36.1z"/>
										</g>
									</g>
								</g>
								<g>
									<g>
										<path class="s3" d="m830.9 1487.9l0.1-40c0-8.5 9.2-13.8 16.5-9.6l37.5 21.7v24.2l-32.9-19-0.1 40c0 8.5-9.2 13.9-16.5 9.6l-40.8-23.5v-24.3z"/>
										<path class="s3" d="m841 1518c-2.2 0-4.4-0.6-6.4-1.7l-40.8-23.6c-0.5-0.3-0.8-0.8-0.8-1.4v-24.3c0-0.6 0.3-1.2 0.8-1.5 0.6-0.3 1.2-0.3 1.7 0l33.7 19.5 0.1-37.1c0-4.6 2.4-8.7 6.4-11 4-2.3 8.7-2.3 12.7 0l37.5 21.6c0.5 0.3 0.8 0.9 0.8 1.5v24.2c0 0.6-0.3 1.2-0.8 1.5-0.6 0.3-1.2 0.3-1.7 0l-30.4-17.6-0.1 37.1c0 4.6-2.4 8.8-6.3 11.1-2 1.1-4.2 1.7-6.4 1.7zm-44.6-27.7l39.9 23.1c2.9 1.6 6.4 1.6 9.4 0 2.9-1.7 4.7-4.8 4.7-8.2v-40c0-0.6 0.3-1.1 0.9-1.4 0.5-0.3 1.1-0.3 1.6 0l30.4 17.5v-20.4l-36.6-21.1c-2.9-1.7-6.4-1.7-9.4 0-2.9 1.7-4.7 4.7-4.7 8.1l-0.1 40c0 0.6-0.3 1.1-0.8 1.4-0.5 0.3-1.2 0.3-1.7 0l-33.6-19.4c0 0 0 20.4 0 20.4z"/>
									</g>
								</g>
								<g>
									<path class="s1" d="m836 1438.7c3.3-2.2 7.7-2.6 11.5-0.4l33.4 19.3 4.1 2.4 50.1-29-37.6-21.6c-3.8-2.2-8.3-1.8-11.5 0.3z"/>
									<path class="s3" d="m885 1461.7q-0.5 0-0.9-0.3l-37.4-21.6c-2.7-1.6-6-1.7-8.8-0.3l-1 0.6c-0.8 0.5-1.8 0.2-2.3-0.6-0.5-0.7-0.3-1.7 0.5-2.2q0.6-0.4 1.2-0.7l48.9-28.4c3.9-2.5 9-2.7 13.2-0.3l37.5 21.6c0.5 0.3 0.8 0.9 0.8 1.5 0 0.6-0.3 1.2-0.8 1.5l-50.1 28.9q-0.4 0.3-0.8 0.3zm-40.2-26.2q1.9 0.4 3.6 1.4l36.6 21.1 46.7-27-35-20.2c-3.1-1.8-6.8-1.6-9.8 0.3z"/>
								</g>
								<g>
									<g>
										<g>
											<path class="s5" d="m826 1499.9l0.7 94.6c0 9.4 6.2 19 18.7 26.2l481.8 280c5.8 3.3 12.4 5.9 19.4 7.6 7.9 2.1 16.4 3.1 24.9 3.3 7.8 0 15.6-0.7 23-2.3 8.7-1.7 16.9-4.6 23.9-8.6l485.8-280.5c12.8-7.5 19.1-17 19.1-26.7l-0.5-94.5c0 9.5-6.5 19.2-19.1 26.6l-485.9 280.4c-6.9 4-14.8 6.9-23.3 8.7-7.4 1.6-15.2 2.4-23 2.4-8.5-0.1-17-1.1-24.9-3.1-7.3-1.8-14-4.4-20-7.8l-481.9-280c-12.3-7.3-18.7-16.8-18.7-26.3z"/>
										</g>
									</g>
									<g>
										<path class="s0" d="m1346.6 1814v94.3c7.9 2.1 16.4 3.1 24.9 3.3 7.8 0 15.6-0.7 23-2.3v-94.6c-7.4 1.6-15.2 2.4-23 2.4-8.5-0.1-17-1.1-24.9-3.1z"/>
									</g>
									<g>
										<g>
											<path class="s3" d="m1372.6 1913.3q-0.6 0-1.1 0c-17.2-0.3-33.2-4.3-45.1-11.2l-481.9-279.9c-12.6-7.3-19.5-17.2-19.5-27.7l-0.6-94.3q0-0.2 0-0.3 0 0 0 0c0-1 0.7-1.7 1.6-1.7 1 0 1.7 0.7 1.7 1.6v0.1q0 0 0 0v0.2c0.1 9.2 6.5 17.9 17.9 24.6l481.9 280c11.7 6.8 27.4 10.6 44 10.7 17.4 0.1 33.3-3.8 45.4-10.9l486-280.4c11.8-6.9 18.2-15.8 18.2-25.1 0-0.9 0.8-1.7 1.7-1.7q0 0 0 0c0.9 0 1.7 0.8 1.7 1.7q0 0 0 0l0.5 94.5c0 10.7-7.1 20.7-19.9 28.2l-485.8 280.4c-12.5 7.2-29.1 11.2-46.7 11.2zm-544.8-400.9l0.5 82.1c0 9.3 6.4 18.1 17.9 24.8l481.9 279.9c11.4 6.7 26.8 10.4 43.4 10.7 17.3 0.1 33.9-3.6 46.1-10.7l485.8-280.4c11.7-6.9 18.2-15.9 18.2-25.3l-0.4-82.3c-3.3 5.9-8.9 11.3-16.6 15.8l-486 280.4c-12.6 7.4-29.5 11.5-47.1 11.3-17.2-0.1-33.4-4-45.7-11.1l-481.9-280c-7.4-4.3-12.9-9.5-16.1-15.2z"/>
										</g>
									</g>
									<g>
										<g>
											<path class="s3" d="m845.1 1473.3c-25.3 14.6-25.4 38.2-0.3 52.8l481.8 280c25.1 14.6 65.9 14.6 91.2 0l485.8-280.5c25.3-14.6 25.5-38.3 0.4-52.9l-481.8-279.9c-25.1-14.6-65.9-14.6-91.2 0z"/>
											<path class="s3" d="m1372.1 1818.7c-16.8 0-33.6-3.7-46.3-11.1l-481.8-280c-12.7-7.4-19.6-17.2-19.6-27.8 0-10.6 7.1-20.6 19.9-28l0.8 1.5-0.8-1.5 485.8-280.5c25.7-14.8 67.4-14.8 93 0l481.8 280c12.6 7.3 19.5 17.2 19.5 27.7 0 10.7-7.1 20.6-19.9 28l-485.9 280.5c-12.9 7.5-29.7 11.2-46.5 11.2zm4.6-635.2c-16.3 0-32.5 3.6-44.9 10.7l-485.8 280.5c-11.8 6.8-18.2 15.7-18.3 25.1 0 9.3 6.4 18.2 18 24.9l481.7 280c24.6 14.2 64.8 14.2 89.5-0.1l485.9-280.5c11.8-6.8 18.2-15.7 18.2-25.1 0.1-9.3-6.3-18.1-17.8-24.8l-481.8-280c-12.3-7.1-28.5-10.7-44.7-10.7z"/>
										</g>
										<g>
											<path class="s1" d="m1372 1810.8c16.2 0 31.3-3.6 42.6-10.2l485.9-280.5c10.3-5.9 15.9-13.4 15.9-21.1 0-7.6-5.5-15-15.5-20.8l-481.8-280c-11.2-6.5-26.3-10.1-42.4-10.1-16.2 0-31.3 3.6-42.6 10.1l-485.8 280.5c-10.3 5.9-15.9 13.4-15.9 21.1-0.1 7.6 5.5 15 15.6 20.9l481.8 280c11.1 6.5 26.2 10.1 42.2 10.1z"/>
											<path class="s3" d="m1372 1812.4c-16.3 0-31.7-3.6-43.1-10.3l-481.8-279.9c-10.6-6.2-16.4-14.2-16.4-22.4 0-8.3 5.9-16.3 16.7-22.5l485.9-280.5c11.5-6.7 26.9-10.4 43.4-10.4 16.4 0 31.8 3.7 43.2 10.3l481.8 280c10.6 6.2 16.4 14.1 16.4 22.3 0 8.3-6 16.3-16.8 22.6l-485.8 280.5c-11.6 6.7-27 10.3-43.5 10.3zm4.7-622.6c-15.9 0-30.7 3.5-41.7 9.9l-485.9 280.5c-9.7 5.6-15.1 12.5-15.1 19.6 0 7 5.3 13.9 14.8 19.4l481.8 280c10.9 6.4 25.6 9.9 41.4 9.9 15.9 0 30.7-3.5 41.8-9.9l485.9-280.5c9.7-5.7 15-12.6 15.1-19.7 0-7-5.3-13.8-14.8-19.4l-481.8-279.9c-10.9-6.4-25.7-9.9-41.5-9.9z"/>
										</g>
										<g>
											<path class="s2" d="m1372.1 1762.8c-8.9 0-15.4-1.9-18.3-3.6l-425.8-247.5c-9.1-5.2-9.1-18.4 0-23.7l430.1-248.3c2.9-1.7 9.6-3.7 18.6-3.7 8.9 0 15.4 2 18.3 3.6l425.8 247.5c9.1 5.3 9.1 18.4 0 23.7l-430.1 248.3c-3 1.7-9.6 3.7-18.6 3.7z"/>
										</g>
									</g>
								</g>
								<g>
									<g>
										<g>
											<g>
												<g>
													<path class="s1" d="m1811.3 1617.3l45.8 26.4c6.1 3.6 11.2 12.3 11.2 19.3l-0.1 40.1 33.5 19.4 49.9-29.1-33.5-19.3 0.1-40c0.1-7.1-5-15.9-11.1-19.4l-45.9-26.5z"/>
													<path class="s3" d="m1901.7 1724.1q-0.4 0-0.8-0.2l-33.6-19.4c-0.5-0.3-0.8-0.8-0.8-1.4l0.1-40.1c0-6.4-4.7-14.6-10.3-17.9l-45.9-26.4c-0.5-0.3-0.8-0.8-0.8-1.4 0-0.6 0.3-1.2 0.8-1.5l50-29.1c0.5-0.3 1.2-0.3 1.7 0l45.8 26.5c6.7 3.9 12.1 13.3 12 20.9l-0.1 39 32.7 18.9c0.5 0.3 0.8 0.8 0.8 1.4 0 0.6-0.3 1.2-0.8 1.5l-49.9 29q-0.4 0.3-0.9 0.2zm-31.8-22l31.8 18.4 46.6-27.1-31-17.8c-0.5-0.3-0.9-0.9-0.9-1.5l0.1-40c0.1-6.5-4.6-14.7-10.3-18l-44.9-26-46.7 27.2 43.3 24.9c6.7 3.9 12.1 13.3 12.1 20.8z"/>
												</g>
											</g>
											<g>
												<g>
													<path fill-rule="evenodd" class="s2" d="m1901.6 1746.7l50-29v-24.3l-49.9 29.1z"/>
													<path class="s3" d="m1901.6 1748.4q-0.4 0-0.8-0.3c-0.5-0.3-0.8-0.8-0.8-1.4v-24.2c0-0.6 0.4-1.2 0.9-1.5l49.9-29c0.5-0.3 1.2-0.3 1.7 0 0.5 0.3 0.8 0.9 0.8 1.5v24.2c0 0.6-0.4 1.1-0.9 1.4l-49.9 29q-0.4 0.3-0.9 0.3zm1.8-25l-0.1 20.4 46.6-27.1 0.1-20.3z"/>
												</g>
											</g>
											<g>
												<g>
													<path class="s3" d="m1811.3 1617.2l-0.1 24.2 36 20.8-0.2 40.1c0 7.1 5 15.7 11.2 19.3l43.4 25.1 0.1-24.2-33.6-19.4 0.2-40c0-7.2-5-15.9-11.2-19.4z"/>
													<path class="s3" d="m1901.6 1748.4q-0.4 0-0.8-0.3l-43.5-25.1c-6.7-3.9-12-13-12-20.7l0.2-39.1-35.1-20.3c-0.6-0.3-0.9-0.9-0.9-1.5l0.1-24.2c0-0.6 0.3-1.1 0.8-1.4 0.6-0.3 1.2-0.3 1.7 0l45.8 26.4c6.7 3.9 12.1 13.2 12 20.9l-0.1 39 32.8 18.9c0.5 0.3 0.8 0.9 0.8 1.5l-0.1 24.2c0 0.6-0.3 1.1-0.8 1.4q-0.4 0.3-0.9 0.3zm-88.7-107.9l35.1 20.2c0.5 0.3 0.8 0.9 0.8 1.5l-0.1 40.1c0 6.5 4.6 14.5 10.3 17.8l41 23.7v-20.4l-32.7-18.9c-0.5-0.3-0.8-0.8-0.8-1.4l0.1-40c0-6.5-4.7-14.7-10.3-18l-43.4-25z"/>
												</g>
											</g>
										</g>
									</g>
									<g>
										<g>
											<g>
												<g>
													<path class="s1" d="m1691.4 1686.9l45.7 26.5c6.2 3.6 11.3 12.2 11.3 19.3l-0.2 40.1 33.6 19.4 49.9-29.1-33.5-19.4v-39.9c0.1-7.1-4.9-15.9-11.1-19.4l-45.8-26.5z"/>
													<path class="s3" d="m1781.8 1793.8q-0.5 0-0.9-0.2l-33.5-19.4c-0.6-0.3-0.9-0.9-0.9-1.5l0.2-40c0-6.4-4.8-14.6-10.4-17.9l-45.7-26.5c-0.6-0.2-0.9-0.8-0.9-1.4 0-0.6 0.3-1.2 0.8-1.5l49.9-29c0.5-0.3 1.2-0.3 1.7 0l45.8 26.5c6.7 3.8 12.1 13.1 12 20.9l-0.1 38.9 32.8 19c0.5 0.3 0.8 0.8 0.8 1.4 0 0.6-0.3 1.2-0.8 1.5l-50 29q-0.4 0.2-0.8 0.2zm-31.9-22l31.9 18.4 46.6-27.1-31.1-17.9c-0.5-0.3-0.8-0.9-0.8-1.5l0.1-39.9c0-6.6-4.7-14.8-10.3-18l-45-26-46.6 27.1 43.3 25c6.7 3.9 12 13.1 12 20.8z"/>
												</g>
											</g>
											<g>
												<g>
													<path fill-rule="evenodd" class="s2" d="m1781.7 1816.4l49.9-29.1 0.1-24.2-49.9 29z"/>
													<path class="s3" d="m1781.7 1818q-0.4 0-0.8-0.2c-0.5-0.3-0.9-0.8-0.9-1.4l0.1-24.3c0-0.6 0.3-1.1 0.8-1.4l50-29c0.5-0.3 1.1-0.3 1.7 0 0.5 0.3 0.8 0.8 0.8 1.4l-0.1 24.2c0 0.6-0.3 1.2-0.8 1.5l-49.9 29q-0.4 0.2-0.9 0.2zm1.8-24.9l-0.1 20.3 46.6-27v-20.4z"/>
												</g>
											</g>
											<g>
												<g>
													<path class="s3" d="m1691.3 1686.9v24.2l35.9 20.8-0.1 40c0 7.2 5 15.8 11.2 19.4l43.4 25.1 0.1-24.3-33.6-19.3 0.1-40c0.1-7.2-5-15.9-11.1-19.4z"/>
													<path class="s3" d="m1781.7 1818q-0.4 0-0.8-0.2l-43.5-25.1c-6.7-3.9-12-13-12-20.8l0.2-39.1-35.2-20.2c-0.5-0.3-0.8-0.9-0.8-1.5l0.1-24.2c0-0.6 0.3-1.2 0.8-1.4 0.5-0.3 1.2-0.3 1.7 0l45.8 26.4c6.7 3.8 12 13.2 12 20.9l-0.1 39 32.7 18.9c0.5 0.3 0.9 0.8 0.9 1.4l-0.1 24.3c0 0.6-0.3 1.1-0.8 1.4q-0.4 0.2-0.9 0.2zm-88.7-107.8l35.1 20.2c0.5 0.3 0.8 0.9 0.8 1.5l-0.1 40c0 6.6 4.6 14.6 10.3 17.9l40.9 23.7 0.1-20.4-32.7-18.9c-0.6-0.3-0.9-0.8-0.9-1.5l0.2-40c0-6.4-4.8-14.6-10.4-17.9l-43.3-25z"/>
												</g>
											</g>
										</g>
									</g>
									<g>
										<g>
											<g>
												<g>
													<path class="s1" d="m1571.4 1756.6l45.8 26.5c6.2 3.5 11.3 12.2 11.3 19.3l-0.2 40 33.6 19.5 49.9-29.1-33.5-19.4v-39.9c0.1-7.2-5-16-11.1-19.5l-45.8-26.4z"/>
													<path class="s3" d="m1661.9 1863.5q-0.5 0-0.9-0.2l-33.5-19.4c-0.6-0.3-0.9-0.9-0.9-1.5l0.2-40c0-6.5-4.8-14.6-10.4-17.9l-45.8-26.5c-0.5-0.3-0.9-0.8-0.9-1.4 0-0.6 0.4-1.2 0.9-1.5l49.9-29c0.6-0.3 1.2-0.3 1.7 0l45.8 26.5c6.7 3.8 12.1 13.2 12 20.9l-0.1 38.9 32.7 19c0.5 0.3 0.8 0.8 0.8 1.4 0 0.6-0.3 1.2-0.8 1.5l-49.9 29q-0.4 0.2-0.8 0.2zm-31.9-22l31.9 18.4 46.5-27.1-31-17.9c-0.5-0.3-0.8-0.9-0.8-1.5l0.1-39.9c0-6.6-4.7-14.8-10.3-18l-45-26-46.6 27.1 43.3 25c6.6 3.8 12 13.2 12 20.8z"/>
												</g>
											</g>
											<g>
												<g>
													<path fill-rule="evenodd" class="s2" d="m1661.8 1886l49.9-29 0.1-24.2-50 29z"/>
													<path class="s3" d="m1661.8 1887.7q-0.5 0-0.9-0.2c-0.5-0.3-0.8-0.9-0.8-1.5l0.1-24.2c0-0.6 0.3-1.1 0.8-1.4l49.9-29c0.6-0.3 1.2-0.3 1.7 0 0.5 0.3 0.9 0.8 0.9 1.4l-0.1 24.2c0 0.6-0.3 1.2-0.8 1.5l-50 29q-0.4 0.2-0.8 0.2zm1.7-24.9v20.3l46.5-27 0.1-20.4z"/>
												</g>
											</g>
											<g>
												<g>
													<path class="s3" d="m1571.4 1756.6l-0.1 24.2 36 20.8-0.1 40c-0.1 7.1 4.9 15.8 11.1 19.3l43.5 25.1v-24.2l-33.5-19.4 0.1-40c0-7.1-5-15.8-11.2-19.4z"/>
													<path class="s3" d="m1661.8 1887.7q-0.5 0-0.9-0.2l-43.4-25.1c-6.8-3.9-12-13-12-20.8l0.1-39.1-35.1-20.2c-0.5-0.3-0.8-0.9-0.8-1.5v-24.2c0-0.6 0.4-1.2 0.9-1.5 0.5-0.3 1.1-0.3 1.7 0l45.8 26.5c6.6 3.8 12 13.2 12 20.8l-0.1 39.1 32.7 18.9c0.5 0.3 0.8 0.8 0.8 1.4v24.2c0 0.6-0.4 1.2-0.9 1.5q-0.4 0.2-0.8 0.2zm-88.8-107.9l35.1 20.3c0.6 0.3 0.9 0.9 0.9 1.5l-0.2 40c0 6.6 4.7 14.6 10.4 17.9l40.9 23.6 0.1-20.3-32.8-18.9c-0.5-0.3-0.8-0.9-0.8-1.5l0.1-40c0-6.5-4.7-14.7-10.3-17.9l-43.3-25z"/>
												</g>
											</g>
										</g>
									</g>
									<g>
										<g>
											<g>
												<g>
													<path class="s1" d="m1451.5 1826.3l45.8 26.5c6.2 3.5 11.2 12.2 11.2 19.3l-0.2 40 33.6 19.4 50-29-33.6-19.4 0.1-39.9c0-7.2-5-16-11.2-19.5l-45.7-26.5z"/>
													<path class="s3" d="m1541.9 1933.1q-0.4 0-0.8-0.2l-33.6-19.3c-0.5-0.3-0.9-0.9-0.9-1.5l0.2-40c0-6.5-4.7-14.7-10.4-17.9l-45.7-26.5c-0.5-0.3-0.9-0.8-0.9-1.4 0-0.6 0.4-1.2 0.9-1.5l49.9-29c0.6-0.3 1.2-0.3 1.7 0l45.8 26.4c6.7 3.9 12 13.3 11.9 21v38.9l32.7 19c0.5 0.3 0.8 0.8 0.8 1.4 0 0.6-0.3 1.2-0.8 1.5l-50 28.9q-0.4 0.2-0.8 0.2zm-31.9-21.9l31.9 18.3 46.6-27-31.1-18c-0.5-0.2-0.8-0.8-0.8-1.4l0.1-40c0.1-6.5-4.7-14.7-10.3-18l-44.9-25.9-46.6 27.1 43.2 25c6.8 3.8 12.1 13 12.1 20.8z"/>
												</g>
											</g>
											<g>
												<g>
													<path fill-rule="evenodd" class="s2" d="m1541.8 1955.7l50-29 0.1-24.2-50 29z"/>
													<path class="s3" d="m1541.8 1957.4q-0.4 0-0.8-0.2c-0.5-0.3-0.8-0.9-0.8-1.5v-24.2c0-0.6 0.4-1.2 0.9-1.5l49.9-29c0.5-0.3 1.2-0.3 1.7 0 0.5 0.3 0.8 0.9 0.8 1.5v24.2c0 0.6-0.4 1.2-0.9 1.5l-49.9 29q-0.4 0.2-0.9 0.2zm1.8-24.9l-0.1 20.3 46.6-27.1 0.1-20.3z"/>
												</g>
											</g>
											<g>
												<g>
													<path class="s3" d="m1451.5 1826.3l-0.1 24.2 36 20.7-0.2 40.1c0 7.1 5 15.7 11.2 19.3l43.4 25.1 0.1-24.2-33.6-19.4 0.2-40c0-7.1-5-15.8-11.2-19.4z"/>
													<path class="s3" d="m1541.8 1957.4q-0.4 0-0.8-0.2l-43.5-25.1c-6.7-3.9-12-13-11.9-20.8l0.1-39.1-35.1-20.3c-0.5-0.3-0.9-0.8-0.9-1.4l0.1-24.2c0-0.6 0.3-1.2 0.8-1.5 0.6-0.3 1.2-0.3 1.7 0l45.9 26.5c6.6 3.8 12 13.2 11.9 20.8l-0.1 39 32.8 18.9c0.5 0.3 0.8 0.9 0.8 1.5l-0.1 24.2c0 0.6-0.3 1.2-0.8 1.5q-0.4 0.2-0.9 0.2zm-88.7-107.9l35.1 20.3c0.5 0.3 0.8 0.8 0.8 1.4l-0.1 40.1c0 6.6 4.6 14.6 10.3 17.9l41 23.6v-20.3l-32.7-18.9c-0.5-0.3-0.8-0.9-0.8-1.5l0.1-40c0-6.5-4.7-14.7-10.3-17.9l-43.3-25z"/>
												</g>
											</g>
										</g>
									</g>
								</g>
								<g>
									<g>
										<g>
											<g>
												<g>
													<path class="s1" d="m794.7 1693.4l49.9 29.1 33.5-19.4v-0.1l-0.1-40c0-7.1 5.1-15.7 11.2-19.3l45.8-26.4-49.9-29.1-45.8 26.5c-6.2 3.5-11.2 12.3-11.1 19.4l0.1 40z"/>
													<path class="s3" d="m844.6 1724.1q-0.4 0-0.8-0.2l-50-29c-0.5-0.3-0.8-0.9-0.8-1.5 0-0.6 0.3-1.1 0.8-1.4l32.8-18.9-0.1-39c-0.1-7.7 5.3-17 12-20.9l45.7-26.5c0.5-0.3 1.2-0.3 1.7 0l50 29.1c0.5 0.3 0.8 0.9 0.8 1.5 0 0.6-0.3 1.1-0.8 1.4l-45.9 26.5c-5.6 3.2-10.3 11.4-10.3 17.8l0.1 40c0 0.6-0.3 1.2-0.8 1.5l-33.5 19.4q-0.4 0.2-0.9 0.2zm-46.6-30.7l46.6 27.1 31.9-18.4-0.2-39.1c0-7.5 5.4-16.9 12.1-20.8l43.3-24.9-46.6-27.2-44.9 26c-5.7 3.3-10.4 11.5-10.3 18v40c0 0.6-0.3 1.2-0.8 1.5z"/>
												</g>
											</g>
											<g>
												<g>
													<path fill-rule="evenodd" class="s2" d="m844.7 1746.7l-50-29v-24.3l49.9 29.1z"/>
													<path class="s3" d="m844.7 1748.4q-0.5 0-0.9-0.3l-49.9-29c-0.5-0.3-0.8-0.8-0.8-1.4l-0.1-24.2c0-0.6 0.3-1.2 0.8-1.5 0.6-0.3 1.2-0.3 1.7 0l50 29c0.5 0.3 0.8 0.9 0.8 1.5l0.1 24.2c0 0.6-0.4 1.1-0.9 1.4q-0.4 0.3-0.8 0.3zm-48.3-31.7l46.6 27.1-0.1-20.4-46.5-27z"/>
												</g>
											</g>
											<g>
												<g>
													<path class="s3" d="m935.1 1617.2v24.2l-35.9 20.8 0.1 40.1c0 7.1-5 15.7-11.2 19.3l-43.4 25.1-0.1-24.2 33.6-19.4-0.1-40c-0.1-7.2 5-15.9 11.1-19.4z"/>
													<path class="s3" d="m844.7 1748.4q-0.5 0-0.9-0.3c-0.5-0.3-0.8-0.8-0.8-1.4l-0.1-24.2c0-0.6 0.4-1.2 0.9-1.5l32.7-18.9-0.1-39c0-7.7 5.3-17 12-20.9l45.8-26.4c0.5-0.3 1.2-0.3 1.7 0 0.5 0.3 0.8 0.8 0.8 1.4l0.1 24.2c0 0.6-0.3 1.2-0.8 1.5l-35.1 20.3 0.1 39.1c0 7.7-5.3 16.8-12 20.7l-43.5 25.1q-0.4 0.3-0.8 0.3zm1.6-25l0.1 20.4 40.9-23.7c5.7-3.3 10.3-11.3 10.3-17.8l-0.1-40.1c0-0.6 0.3-1.2 0.8-1.5l35.1-20.2v-20.4l-43.3 25c-5.7 3.3-10.4 11.5-10.4 18l0.2 40c0 0.6-0.4 1.1-0.9 1.4z"/>
												</g>
											</g>
										</g>
									</g>
									<g>
										<g>
											<g>
												<g>
													<path class="s1" d="m914.6 1763.1l49.9 29.1 33.6-19.4-0.1-40.1c0-7.1 5.1-15.7 11.2-19.3l45.8-26.5-50-29-45.8 26.5c-6.1 3.5-11.2 12.3-11.1 19.4l0.1 39.9z"/>
													<path class="s3" d="m964.5 1793.8q-0.4 0-0.8-0.2l-50-29c-0.5-0.3-0.8-0.9-0.8-1.5 0-0.6 0.3-1.1 0.8-1.4l32.8-19-0.1-38.9c-0.1-7.7 5.3-17.1 12-20.9l45.8-26.5c0.5-0.3 1.2-0.3 1.7 0l49.9 29c0.6 0.3 0.9 0.9 0.9 1.5 0 0.6-0.3 1.2-0.9 1.4l-45.8 26.5c-5.6 3.3-10.4 11.5-10.4 17.9l0.2 40c0 0.6-0.3 1.2-0.8 1.5l-33.6 19.4q-0.4 0.2-0.9 0.2zm-46.6-30.7l46.6 27.1 31.9-18.4-0.1-39.1c0-7.6 5.4-16.9 12-20.8l43.4-25-46.7-27.1-44.9 26c-5.7 3.2-10.4 11.5-10.3 17.9v40c0 0.6-0.3 1.2-0.8 1.5z"/>
												</g>
											</g>
											<g>
												<g>
													<path fill-rule="evenodd" class="s2" d="m964.6 1816.4l-49.9-29.1-0.1-24.2 49.9 29z"/>
													<path class="s3" d="m964.6 1818q-0.4 0-0.8-0.2l-50-29c-0.5-0.3-0.8-0.9-0.8-1.5l-0.1-24.2c0-0.6 0.4-1.1 0.9-1.4 0.5-0.3 1.1-0.3 1.7 0l49.9 29c0.5 0.3 0.8 0.8 0.8 1.4l0.1 24.3c0 0.6-0.3 1.1-0.8 1.4q-0.4 0.2-0.9 0.2zm-48.2-31.6l46.5 27v-20.3l-46.6-27.1z"/>
												</g>
											</g>
											<g>
												<g>
													<path class="s3" d="m1055 1686.9l0.1 24.2-36 20.8 0.1 40c0.1 7.2-4.9 15.8-11.1 19.4l-43.5 25.1-0.1-24.3 33.6-19.3-0.1-40c0-7.2 5-15.9 11.2-19.4z"/>
													<path class="s3" d="m964.6 1818q-0.4 0-0.8-0.2c-0.5-0.3-0.9-0.8-0.9-1.4v-24.3c0-0.6 0.3-1.1 0.8-1.4l32.7-18.9-0.1-39c0-7.7 5.4-17.1 12-20.9l45.8-26.4c0.6-0.3 1.2-0.3 1.7 0 0.5 0.2 0.9 0.8 0.9 1.4v24.2c0 0.6-0.3 1.2-0.8 1.5l-35.1 20.2 0.1 39.1c0 7.8-5.2 16.9-12 20.8l-43.4 25.1q-0.4 0.2-0.9 0.2zm1.6-24.9l0.1 20.4 40.9-23.7c5.7-3.3 10.4-11.3 10.4-17.9l-0.2-40c0-0.6 0.3-1.2 0.9-1.5l35.1-20.2-0.1-20.4-43.3 25c-5.6 3.3-10.3 11.5-10.3 17.9l0.1 40c0 0.7-0.3 1.2-0.8 1.5z"/>
												</g>
											</g>
										</g>
									</g>
									<g>
										<g>
											<g>
												<g>
													<path class="s1" d="m1034.6 1832.8l49.9 29.1 33.5-19.5-0.1-40c0-7.1 5-15.8 11.2-19.3l45.8-26.5-50-29-45.8 26.4c-6.1 3.5-11.1 12.3-11 19.5v39.9z"/>
													<path class="s3" d="m1084.5 1863.5q-0.4 0-0.8-0.2l-50-29c-0.5-0.3-0.8-0.9-0.8-1.5 0-0.6 0.3-1.1 0.8-1.4l32.7-19v-38.9c-0.1-7.7 5.2-17.1 11.9-20.9l45.8-26.5c0.5-0.3 1.2-0.3 1.7 0l49.9 29c0.6 0.3 0.9 0.9 0.9 1.5 0 0.6-0.3 1.1-0.9 1.4l-45.8 26.5c-5.6 3.3-10.4 11.4-10.4 17.9l0.2 40c0 0.6-0.3 1.2-0.9 1.5l-33.4 19.4q-0.4 0.2-0.9 0.2zm-46.6-30.7l46.6 27.1 31.8-18.4-0.1-39.1c0-7.6 5.4-17 12-20.8l43.3-25-46.6-27.1-45 26c-5.6 3.2-10.2 11.4-10.2 17.9l0.1 40c0 0.6-0.3 1.2-0.8 1.5z"/>
												</g>
											</g>
											<g>
												<g>
													<path fill-rule="evenodd" class="s2" d="m1084.5 1886l-49.9-29-0.1-24.2 50 29z"/>
													<path class="s3" d="m1084.5 1887.7q-0.4 0-0.8-0.2l-49.9-29c-0.5-0.3-0.9-0.9-0.9-1.5v-24.2c0-0.6 0.3-1.1 0.8-1.4 0.5-0.3 1.2-0.3 1.7 0l49.9 29c0.5 0.3 0.9 0.8 0.9 1.4v24.2c0 0.6-0.3 1.2-0.8 1.5q-0.4 0.2-0.9 0.2zm-48.2-31.6l46.6 27-0.1-20.3-46.6-27.1z"/>
												</g>
											</g>
											<g>
												<g>
													<path class="s3" d="m1174.9 1756.6l0.1 24.2-36 20.8 0.2 40c0 7.1-5 15.8-11.2 19.3l-43.5 25.1v-24.2l33.6-19.4-0.2-40c0-7.1 5-15.8 11.2-19.4z"/>
													<path class="s3" d="m1084.5 1887.7q-0.4 0-0.8-0.2c-0.5-0.3-0.8-0.9-0.8-1.5l-0.1-24.2c0-0.6 0.3-1.1 0.8-1.4l32.8-18.9-0.2-39.1c0-7.6 5.4-17 12-20.8l45.9-26.5c0.5-0.3 1.1-0.3 1.7 0 0.5 0.3 0.8 0.9 0.8 1.5l0.1 24.2c0 0.6-0.4 1.2-0.9 1.5l-35.1 20.2 0.1 39.1c0.1 7.8-5.2 16.9-12 20.8l-43.4 25.1q-0.4 0.2-0.9 0.2zm1.7-24.9v20.3l41-23.6c5.7-3.3 10.3-11.3 10.3-17.9l-0.1-40c0-0.6 0.3-1.2 0.8-1.5l35.1-20.3-0.1-20.3-43.3 25c-5.6 3.2-10.3 11.4-10.3 17.9l0.1 40c0 0.6-0.3 1.2-0.8 1.5z"/>
												</g>
											</g>
										</g>
									</g>
									<g>
										<g>
											<g>
												<g>
													<path class="s1" d="m1154.5 1902.5l49.9 29 33.6-19.4-0.2-40c0-7.2 5-15.8 11.2-19.3l45.9-26.5-50-29.1-45.8 26.5c-6.1 3.5-11.2 12.3-11.2 19.4l0.1 40z"/>
													<path class="s3" d="m1204.4 1933.1q-0.4 0-0.8-0.2l-50-28.9c-0.5-0.3-0.8-0.9-0.8-1.5 0-0.6 0.3-1.1 0.8-1.4l32.7-19v-38.9c-0.1-7.7 5.3-17.1 11.9-21l45.9-26.4c0.5-0.3 1.1-0.3 1.7 0l49.9 29c0.5 0.3 0.8 0.9 0.8 1.5 0 0.6-0.3 1.1-0.8 1.4l-45.8 26.5c-5.6 3.2-10.4 11.4-10.4 17.9l0.2 40c0 0.6-0.4 1.2-0.9 1.5l-33.6 19.3q-0.3 0.2-0.8 0.2zm-46.6-30.6l46.6 27 31.9-18.3-0.1-39.1c0-7.8 5.3-17 12-20.8l43.3-25-46.6-27.1-45 25.9c-5.6 3.3-10.3 11.6-10.3 18l0.1 40c0 0.6-0.3 1.1-0.8 1.4z"/>
												</g>
											</g>
											<g>
												<g>
													<path fill-rule="evenodd" class="s2" d="m1204.5 1955.7l-50-29v-24.2l49.9 29z"/>
													<path class="s3" d="m1204.5 1957.4q-0.5 0-0.9-0.2l-49.9-29c-0.5-0.3-0.8-0.9-0.8-1.5l-0.1-24.2c0-0.6 0.3-1.2 0.8-1.5 0.6-0.3 1.2-0.3 1.7 0l50 29c0.5 0.3 0.8 0.9 0.8 1.5l0.1 24.2c0 0.6-0.4 1.2-0.9 1.5q-0.4 0.2-0.8 0.2zm-48.3-31.7l46.6 27.1-0.1-20.3-46.5-27.1z"/>
												</g>
											</g>
											<g>
												<g>
													<path class="s3" d="m1294.8 1826.3l0.1 24.2-35.9 20.7 0.1 40.1c0 7.1-5 15.7-11.2 19.3l-43.4 25.1-0.1-24.2 33.6-19.4-0.1-40c-0.1-7.1 5-15.8 11.1-19.4z"/>
													<path class="s3" d="m1204.5 1957.4q-0.5 0-0.9-0.2c-0.5-0.3-0.8-0.9-0.8-1.5l-0.1-24.2c0-0.6 0.4-1.2 0.9-1.5l32.7-18.9-0.1-39c0-7.6 5.3-17 12-20.8l45.8-26.5c0.5-0.3 1.2-0.3 1.7 0 0.5 0.3 0.8 0.9 0.8 1.5l0.1 24.2c0 0.6-0.3 1.1-0.8 1.4l-35.2 20.3 0.2 39.1c0 7.7-5.3 16.9-12 20.8l-43.5 25.1q-0.4 0.2-0.8 0.2zm1.6-24.9l0.1 20.3 40.9-23.6c5.7-3.3 10.3-11.3 10.3-17.9l-0.1-40.1c0-0.6 0.3-1.1 0.8-1.4l35.1-20.3v-20.3l-43.3 25c-5.7 3.2-10.4 11.4-10.4 17.9l0.2 40c0 0.6-0.4 1.2-0.9 1.5z"/>
												</g>
											</g>
										</g>
									</g>
								</g>
							</g>
						</g>
					</g>
				</g>
			</g>
			<g>
				<g>
					<g>
						<g>
							<path class="s3" d="m2011.2 836.8c-17.7-10.2-32-1.8-32.1 18.6 0 20.6 14.2 45.2 31.9 55.4 18.2 10.5 32.5 2.4 32.5-18.2 0.1-20.4-14.1-45.3-32.3-55.8z"/>
						</g>
					</g>
				</g>
				<g>
					<g>
						<g>
							<path class="s3" d="m1878.7 760.3c-17.8-10.2-32.1-1.8-32.1 18.5-0.1 20.7 14.1 45.3 31.8 55.5 18.2 10.5 32.5 2.4 32.6-18.3 0-20.3-14.2-45.2-32.3-55.7z"/>
						</g>
					</g>
				</g>
				<g>
					<g>
						<g>
							<path class="s3" d="m1746.1 683.8c-17.7-10.3-32-1.8-32.1 18.5 0 20.6 14.2 45.3 31.9 55.5 18.2 10.5 32.5 2.3 32.5-18.3 0.1-20.4-14.1-45.2-32.3-55.7z"/>
						</g>
					</g>
				</g>
			</g>
			<g>
				<g>
					<path fill-rule="evenodd" class="s1" d="m1327.9 1334.9l284 165 37.7-21.7-283.9-165.1z"/>
				</g>
			</g>
			<g>
				<g>
					<path class="s1" d="m1174.2 1423.7l401.1 97.4-43.1 24.9-119.6-30.7-119.5 69.1 54.8 67.9-40.4 23.4-174-228.5zm196 80.6l-108.2-28.5c-33.1-8.5-59.3-16.1-79.3-22.5 14.6 12.6 27.6 26.1 38.9 40.3l51.9 66.6z"/>
				</g>
			</g>
			<g>
				<g>
					<g style="opacity: .1">
						<g>
							<path class="s4" d="m1294.3 956.6c3.5 2 3.6 5.3 0.1 7.3l-578.8 336.2c-3.4 2-9.1 2-12.6 0l-43.9-25.4c-3.5-2-3.5-5.2 0-7.2l578.7-336.3c3.5-2 9.1-2 12.6 0z"/>
						</g>
					</g>
					<g>
						<g>
							<path class="s0" d="m640.1 654.8l1.8 546.2c0.1 16.9 6 28.7 15.6 34.3l48.3 28.2c-1.1-0.8-2.2-1.6-3.3-2.5l-0.1-0.1c-0.7-0.5-1.4-1.2-2-2l-0.1-0.1c-0.9-0.9-1.6-1.8-2.4-3l-0.1-0.1c-0.8-1.1-1.6-2.3-2.1-3.6q-0.9-1.4-1.4-3.1c-0.5-1.1-0.9-2.2-1.3-3.4-0.3-1.1-0.6-2.5-0.9-3.7-0.2-0.7-0.3-1.5-0.4-2.2 0-0.1-0.1-0.3-0.1-0.4-0.1-0.7-0.2-1.4-0.3-2.1q-0.1-1.4-0.2-2.8c-0.1-1.6-0.2-3.2-0.2-4.8l-1.8-546.2c-0.1-33.9 23.6-75 53.1-92.1l515.8-297.8c10.2-5.9 19.8-8 27.9-7 1.1 0.1 2.3 0.4 3.3 0.7 0.1 0 0.2 0 0.2 0 1 0.2 2.1 0.6 3.1 1 0.2 0.1 0.3 0.1 0.5 0.2 0.9 0.4 1.7 0.8 2.6 1.3l-48.6-28.4c-9.7-5.6-23.1-4.9-38 3.7l-515.8 297.8c-29.4 17-53.2 58.2-53.1 92z"/>
						</g>
					</g>
					<g>
						<path class="s6" d="m712.8 621.3c-4 4.6-7.6 9.7-10.7 15-3.9 6.7-7 13.6-9.1 20.7l-49.6-28.6c2.2-7 5.3-14 9.1-20.6 3.1-5.3 6.7-10.5 10.8-15.1z"/>
					</g>
					<g>
						<g>
							<g>
								<g>
									<g>
										<g>
											<path class="s3" d="m705.8 1265.1q-0.4 0-0.8-0.2l-48.3-28.2c-10.5-6.1-16.4-18.7-16.5-35.6l-1.8-546.3c-0.1-34.3 24.1-76.2 54-93.5l515.8-297.8c14.9-8.6 28.9-9.9 39.6-3.6l48.6 28.3c0.8 0.5 1.1 1.5 0.6 2.3-0.4 0.8-1.4 1.1-2.2 0.7-0.9-0.5-1.6-0.9-2.5-1.3-0.2-0.1-0.4-0.1-0.6-0.2-0.7-0.3-1.7-0.6-2.6-0.9-0.1 0-0.3 0-0.3 0-1-0.3-2-0.5-3-0.6-8.1-1-17.5 1.3-27 6.8l-515.8 297.8c-28.9 16.7-52.3 57.3-52.2 90.6l1.8 546.2c0 1.6 0.1 3.1 0.1 4.7l0.6 4.8c0.1 0.1 0.1 0.4 0.1 0.6 0.1 0.5 0.2 1.1 0.3 1.8l0.2 0.5c0.2 1.1 0.4 2.1 0.7 3.1 0.4 1.1 0.8 2.2 1.2 3.2 0.4 1.2 0.8 2.1 1.3 2.9 0.6 1.3 1.2 2.4 2.1 3.5 0.8 1.3 1.5 2.1 2.3 3 0.8 0.9 1.4 1.4 1.9 1.9 1.2 1 2.3 1.7 3.4 2.5 0.7 0.5 0.9 1.5 0.5 2.2-0.4 0.6-0.9 0.8-1.5 0.8zm-64-610.3l1.8 546.2c0.1 15.7 5.3 27.3 14.7 32.8l37.4 21.8q-1-1.4-1.6-2.9c-0.5-0.8-1-1.9-1.4-3.2-0.5-0.9-0.9-2.1-1.3-3.4-0.3-1-0.6-2.2-0.8-3.3l-0.1-0.5c-0.2-0.8-0.3-1.6-0.4-2.4-0.1-0.2-0.1-0.4-0.1-0.6l-0.6-4.7c-0.1-1.7-0.2-3.4-0.2-5l-1.8-546.2c-0.1-34.4 24.1-76.3 54-93.5l515.8-297.8c9.1-5.3 18.1-7.9 26.4-7.5l-37.5-21.8c-9.5-5.6-22.4-4.3-36.2 3.6l-515.8 297.8c-28.9 16.7-52.4 57.4-52.3 90.6z"/>
										</g>
									</g>
								</g>
							</g>
						</g>
					</g>
					<g>
						<g>
							<path class="s3" d="m689.1 683.4c-0.1-33.9 23.6-75 53.1-92.1l515.8-297.7c10.2-6 19.8-8.1 27.9-7.1 1.1 0.1 2.3 0.4 3.3 0.7 0.1 0 0.2 0 0.2 0 1 0.2 2.1 0.6 3.1 1 0.2 0.1 0.3 0.1 0.5 0.2 0.9 0.4 1.7 0.8 2.6 1.3 9.8 5.5 15.8 17.4 15.9 34.4l0.3 88.2-622.4 360.7z"/>
							<path class="s3" d="m689.4 774.6q-0.5 0-0.8-0.2c-0.6-0.3-0.9-0.8-0.9-1.4l-0.3-89.6q0 0 0 0c-0.1-34.4 24.1-76.3 54-93.5l515.8-297.8c10.1-5.9 20.1-8.4 28.9-7.3 1.2 0.1 2.3 0.4 3.4 0.7 0.1 0 0.2 0 0.3 0 1.1 0.3 2.2 0.7 3.3 1.1 0.3 0.1 0.4 0.2 0.6 0.3 0.9 0.3 1.8 0.8 2.6 1.3 10.8 6.1 16.8 18.8 16.9 35.9l0.2 88.2c0 0.6-0.3 1.1-0.8 1.4l-622.4 360.7q-0.4 0.2-0.8 0.2zm1.4-91.2l0.3 86.6 619-358.7-0.3-87.2c-0.1-15.8-5.4-27.5-15-32.9-0.9-0.5-1.6-0.9-2.5-1.3-0.3-0.1-0.4-0.1-0.6-0.2-0.7-0.3-1.7-0.6-2.6-0.9-0.1 0-0.3 0-0.3 0-1-0.3-2-0.5-3-0.6-8.1-1-17.5 1.3-27 6.8l-515.8 297.8c-28.9 16.7-52.3 57.3-52.2 90.6z"/>
						</g>
						<g>
							<path class="s1" d="m1311.8 412.3l1.5 458c0.1 33.8-23.7 75.1-53.2 92.1l-515.8 297.7c-15.1 8.7-28.7 9.4-38.4 3.4h-0.1c-1.1-0.8-2.2-1.5-3.3-2.5l-0.1-0.1c-0.7-0.5-1.4-1.2-2-2l-0.1-0.1c-0.9-0.9-1.6-1.8-2.4-3l-0.1-0.1c-0.7-1.1-1.5-2.3-2.1-3.6q-0.9-1.4-1.4-3.1c-0.5-1.1-0.9-2.2-1.3-3.4-0.3-1.1-0.6-2.4-0.9-3.7-0.2-0.7-0.3-1.5-0.4-2.2 0-0.1-0.1-0.3-0.1-0.4-0.1-0.7-0.2-1.4-0.2-2.1q-0.2-1.4-0.3-2.8c-0.1-1.6-0.2-3.2-0.2-4.8l-1.5-456.6z"/>
							<path class="s3" d="m720.4 1269.1c-5.6 0-10.8-1.3-15.4-4.1q-0.1-0.1-0.3-0.3c-1-0.6-2.2-1.4-3.3-2.4-0.7-0.6-1.5-1.3-2.3-2.3-1.1-1.1-1.8-2.1-2.6-3.2-0.8-1.3-1.6-2.6-2.3-4-0.6-0.9-1.1-2-1.5-3.3-0.5-0.9-0.9-2.1-1.3-3.4-0.3-1-0.6-2.2-0.8-3.3l-0.1-0.5c-0.2-0.8-0.3-1.6-0.4-2.4-0.1-0.2-0.1-0.4-0.1-0.6l-0.6-4.7c-0.1-1.7-0.2-3.4-0.2-5l-1.5-456.6c0-0.7 0.3-1.2 0.8-1.5l622.4-360.7c0.5-0.3 1.2-0.3 1.7 0 0.5 0.3 0.8 0.9 0.8 1.5l1.5 457.9c0.1 34.4-24.1 76.4-54 93.6l-515.8 297.7c-8.7 5.1-17.1 7.6-24.7 7.6zm-13.5-6.9c9.6 5.8 22.6 4.5 36.5-3.6l515.8-297.7c29-16.7 52.5-57.4 52.4-90.6l-1.5-455.1-619 358.7 1.5 455.7c0 1.6 0.1 3.1 0.1 4.7l0.6 4.8c0.1 0.1 0.1 0.4 0.1 0.6 0.1 0.5 0.2 1.1 0.3 1.8l0.2 0.6c0.2 1 0.4 2 0.7 3 0.4 1.1 0.8 2.2 1.2 3.2 0.4 1.2 0.8 2.1 1.3 2.9 0.7 1.4 1.4 2.5 2.1 3.6 0.8 1.2 1.5 2 2.3 2.9 0.8 0.9 1.4 1.4 1.9 1.9 1.2 1 2.3 1.7 3.4 2.5q0 0 0.1 0.1z"/>
						</g>
					</g>
					<g>
						<g>
							<g>
								<g>
									<path class="s1" d="m747 645.8c9.9-5.7 18-1 18 10.5 0 11.6-8 25.4-17.9 31.2-10.2 5.9-18.3 1.3-18.3-10.3-0.1-11.5 7.9-25.5 18.2-31.4z"/>
								</g>
							</g>
						</g>
						<g>
							<g>
								<g>
									<path class="s1" d="m821.5 602.8c10-5.8 18.1-1.1 18.1 10.4 0 11.6-8 25.4-17.9 31.2-10.3 5.9-18.3 1.3-18.3-10.3-0.1-11.4 7.9-25.4 18.1-31.3z"/>
								</g>
							</g>
						</g>
						<g>
							<g>
								<g>
									<path class="s1" d="m896.1 559.7c10-5.8 18.1-1 18.1 10.4 0 11.6-8 25.5-17.9 31.2-10.3 5.9-18.3 1.3-18.4-10.3 0-11.4 8-25.4 18.2-31.3z"/>
								</g>
							</g>
						</g>
					</g>
				</g>
			</g>
			<g>
				<g>
					<g>
						<path fill-rule="evenodd" class="s1" d="m1222.7 512.2l43.6-25.2"/>
						<path class="s3" d="m1222.7 513.9c-0.6 0-1.1-0.3-1.4-0.8-0.5-0.9-0.2-1.9 0.6-2.3l43.6-25.2c0.8-0.5 1.8-0.2 2.3 0.6 0.5 0.8 0.2 1.8-0.6 2.3l-43.7 25.2q-0.4 0.2-0.8 0.2z"/>
					</g>
					<g>
						<path class="s2" d="m999.1 643c-0.6 0-1.2-0.3-1.5-0.8-0.4-0.8-0.2-1.9 0.6-2.3l191.2-110.4c0.8-0.5 1.8-0.2 2.3 0.6 0.5 0.8 0.2 1.8-0.6 2.3l-191.2 110.4q-0.4 0.2-0.8 0.2z"/>
					</g>
					<g>
						<path fill-rule="evenodd" class="s1" d="m830.3 738.8l124.1-71.7"/>
						<path class="s3" d="m830.3 740.4c-0.6 0-1.1-0.3-1.4-0.8-0.5-0.8-0.2-1.8 0.6-2.3l124-71.6c0.8-0.5 1.9-0.2 2.3 0.6 0.5 0.8 0.2 1.8-0.6 2.3l-124.1 71.6q-0.4 0.2-0.8 0.2z"/>
					</g>
					<g>
						<path fill-rule="evenodd" class="s1" d="m957.6 712.5l209.9-121.3"/>
						<path class="s3" d="m957.6 714.1c-0.6 0-1.2-0.3-1.5-0.8-0.4-0.8-0.2-1.8 0.6-2.3l210-121.2c0.8-0.5 1.8-0.2 2.3 0.6 0.5 0.8 0.2 1.8-0.6 2.3l-210 121.2q-0.4 0.2-0.8 0.2z"/>
					</g>
					<g>
						<path fill-rule="evenodd" class="s1" d="m830.3 785.9l86.3-49.8"/>
						<path class="s3" d="m830.3 787.6c-0.6 0-1.1-0.3-1.4-0.8-0.5-0.8-0.2-1.8 0.6-2.3l86.3-49.8c0.7-0.5 1.8-0.2 2.2 0.6 0.5 0.8 0.2 1.8-0.6 2.3l-86.3 49.8q-0.4 0.2-0.8 0.2z"/>
					</g>
					<g>
						<path fill-rule="evenodd" class="s1" d="m723.7 800.3l62.1-35.8"/>
						<path class="s3" d="m723.7 802c-0.6 0-1.1-0.3-1.4-0.9-0.5-0.8-0.2-1.8 0.6-2.2l62.1-35.9c0.7-0.5 1.8-0.2 2.3 0.6 0.4 0.8 0.1 1.9-0.7 2.3l-62 35.9q-0.4 0.2-0.9 0.2z"/>
					</g>
					<g>
						<path class="s2" d="m723.7 849.2c-0.6 0-1.1-0.3-1.4-0.9-0.5-0.8-0.2-1.8 0.6-2.3l62.1-35.8c0.7-0.5 1.8-0.2 2.3 0.6 0.4 0.8 0.1 1.8-0.7 2.3l-62 35.8q-0.4 0.3-0.9 0.3z"/>
					</g>
					<g>
						<path fill-rule="evenodd" class="s1" d="m957.6 995.6l209.9-121.3"/>
						<path class="s3" d="m957.6 997.2c-0.6 0-1.2-0.3-1.5-0.8-0.4-0.8-0.2-1.8 0.6-2.3l210-121.2c0.8-0.5 1.8-0.2 2.3 0.6 0.5 0.8 0.2 1.8-0.6 2.3l-210 121.2q-0.4 0.2-0.8 0.2z"/>
					</g>
					<g>
						<path fill-rule="evenodd" class="s1" d="m830.3 1069l86.3-49.8"/>
						<path class="s3" d="m830.3 1070.7c-0.6 0-1.1-0.3-1.4-0.8-0.5-0.8-0.2-1.8 0.6-2.3l86.3-49.8c0.7-0.5 1.8-0.2 2.2 0.6 0.5 0.8 0.2 1.8-0.6 2.3l-86.3 49.8q-0.4 0.2-0.8 0.2z"/>
					</g>
					<g>
						<path class="s2" d="m723.7 1132.3c-0.6 0-1.1-0.3-1.4-0.9-0.5-0.8-0.2-1.8 0.6-2.3l62.1-35.8c0.7-0.5 1.8-0.2 2.3 0.6 0.4 0.8 0.1 1.8-0.7 2.3l-62 35.8q-0.4 0.3-0.9 0.3z"/>
					</g>
					<g>
						<path fill-rule="evenodd" class="s1" d="m1167.5 638.4l98.8-57"/>
						<path class="s3" d="m1167.5 640.1c-0.5 0-1.1-0.3-1.4-0.8-0.5-0.8-0.2-1.9 0.6-2.3l98.8-57.1c0.8-0.4 1.8-0.2 2.3 0.6 0.5 0.8 0.2 1.9-0.6 2.3l-98.8 57.1q-0.4 0.2-0.9 0.2z"/>
					</g>
					<g>
						<path fill-rule="evenodd" class="s1" d="m1050.2 706.2l79-45.7"/>
						<path class="s3" d="m1050.2 707.9c-0.6 0-1.2-0.3-1.5-0.9-0.4-0.8-0.2-1.8 0.6-2.3l79.1-45.6c0.8-0.5 1.8-0.2 2.3 0.6 0.5 0.8 0.2 1.8-0.6 2.3l-79.1 45.6q-0.4 0.3-0.8 0.3z"/>
					</g>
					<g>
						<path class="s2" d="m830.3 834.8c-0.6 0-1.1-0.3-1.4-0.8-0.5-0.8-0.2-1.9 0.6-2.3l179.6-103.7c0.8-0.5 1.8-0.2 2.3 0.6 0.5 0.8 0.2 1.8-0.6 2.3l-179.7 103.7q-0.4 0.2-0.8 0.2z"/>
					</g>
					<g>
						<path fill-rule="evenodd" class="s1" d="m723.7 894.7l62.1-35.9"/>
						<path class="s3" d="m723.7 896.3c-0.6 0-1.1-0.3-1.4-0.8-0.5-0.8-0.2-1.8 0.6-2.3l62.1-35.8c0.7-0.5 1.8-0.2 2.3 0.6 0.4 0.8 0.1 1.8-0.7 2.3l-62 35.8q-0.4 0.3-0.9 0.2z"/>
					</g>
					<g>
						<path class="s2" d="m1124.6 712.1c-0.6 0-1.2-0.3-1.5-0.8-0.4-0.8-0.2-1.9 0.6-2.3l104.2-60.2c0.8-0.4 1.8-0.2 2.3 0.6 0.5 0.8 0.2 1.9-0.6 2.3l-104.2 60.2q-0.4 0.2-0.8 0.2z"/>
					</g>
					<g>
						<path fill-rule="evenodd" class="s1" d="m920.1 828.5l157.3-90.9"/>
						<path class="s3" d="m920.1 830.1c-0.6 0-1.1-0.3-1.4-0.8-0.5-0.8-0.2-1.8 0.6-2.3l157.3-90.8c0.8-0.5 1.8-0.2 2.3 0.6 0.4 0.8 0.2 1.8-0.7 2.3l-157.2 90.8q-0.4 0.2-0.9 0.2z"/>
					</g>
					<g>
						<path fill-rule="evenodd" class="s1" d="m830.3 880.3l39.4-22.7"/>
						<path class="s3" d="m830.3 882c-0.6 0-1.1-0.3-1.4-0.8-0.5-0.8-0.2-1.9 0.6-2.3l39.3-22.8c0.8-0.4 1.9-0.2 2.3 0.6 0.5 0.8 0.2 1.9-0.6 2.3l-39.4 22.8q-0.4 0.2-0.8 0.2z"/>
					</g>
					<g>
						<path fill-rule="evenodd" class="s1" d="m723.7 941.9l62.1-35.9"/>
						<path class="s3" d="m723.7 943.5c-0.6 0-1.1-0.3-1.4-0.8-0.5-0.8-0.2-1.8 0.6-2.3l62.1-35.8c0.7-0.5 1.8-0.2 2.3 0.6 0.4 0.8 0.1 1.8-0.7 2.3l-62 35.8q-0.4 0.2-0.9 0.2z"/>
					</g>
					<g>
						<path fill-rule="evenodd" class="s1" d="m1208.8 709l57.5-33.3"/>
						<path class="s3" d="m1208.8 710.6c-0.6 0-1.1-0.3-1.4-0.8-0.5-0.8-0.2-1.8 0.6-2.3l57.5-33.2c0.8-0.5 1.8-0.2 2.3 0.6 0.5 0.8 0.2 1.8-0.6 2.3l-57.6 33.2q-0.4 0.3-0.8 0.2z"/>
					</g>
					<g>
						<path class="s2" d="m1048.3 803.3c-0.5 0-1.1-0.3-1.4-0.8-0.5-0.8-0.2-1.9 0.6-2.3l128.3-74.1c0.8-0.5 1.8-0.2 2.3 0.6 0.5 0.8 0.2 1.8-0.6 2.3l-128.3 74.1q-0.4 0.2-0.9 0.2z"/>
					</g>
					<g>
						<path fill-rule="evenodd" class="s1" d="m830.3 927.5l179.6-103.7"/>
						<path class="s3" d="m830.3 929.2c-0.6 0-1.1-0.3-1.4-0.9-0.5-0.8-0.2-1.8 0.6-2.3l179.6-103.7c0.8-0.4 1.8-0.2 2.3 0.6 0.5 0.8 0.2 1.9-0.6 2.3l-179.7 103.7q-0.4 0.3-0.8 0.3z"/>
					</g>
					<g>
						<path class="s2" d="m723.7 990.7c-0.6 0-1.1-0.3-1.4-0.8-0.5-0.8-0.2-1.9 0.6-2.3l62.1-35.9c0.7-0.4 1.8-0.2 2.3 0.7 0.4 0.8 0.1 1.8-0.7 2.2l-62 35.9q-0.4 0.2-0.9 0.2z"/>
					</g>
					<g>
						<path class="s2" d="m1176.7 776.4c-0.6 0-1.2-0.3-1.5-0.8-0.5-0.8-0.2-1.9 0.6-2.3l66.2-38.2c0.8-0.5 1.8-0.2 2.3 0.6 0.4 0.8 0.2 1.8-0.6 2.3l-66.2 38.2q-0.4 0.2-0.8 0.2z"/>
					</g>
					<g>
						<path fill-rule="evenodd" class="s1" d="m995.1 879.6l133.9-77.3"/>
						<path class="s3" d="m995.1 881.2c-0.6 0-1.2-0.3-1.5-0.8-0.5-0.8-0.2-1.8 0.6-2.3l133.9-77.3c0.8-0.5 1.8-0.2 2.3 0.6 0.5 0.8 0.2 1.8-0.6 2.3l-133.9 77.3q-0.4 0.2-0.8 0.2z"/>
					</g>
					<g>
						<path class="s2" d="m830.3 976.4c-0.6 0-1.1-0.3-1.4-0.9-0.5-0.8-0.2-1.8 0.6-2.3l114.3-66c0.7-0.4 1.8-0.2 2.3 0.7 0.4 0.8 0.1 1.8-0.7 2.2l-114.3 66q-0.4 0.3-0.8 0.3z"/>
					</g>
					<g>
						<path fill-rule="evenodd" class="s1" d="m723.7 1036.2l62.1-35.8"/>
						<path class="s3" d="m723.7 1037.9c-0.6 0-1.1-0.3-1.4-0.8-0.5-0.8-0.2-1.9 0.6-2.3l62.1-35.9c0.7-0.4 1.8-0.2 2.3 0.6 0.4 0.8 0.1 1.9-0.7 2.3l-62 35.9q-0.4 0.2-0.9 0.2z"/>
					</g>
					<g>
						<path fill-rule="evenodd" class="s1" d="m1208.8 803.3l57.5-33.2"/>
						<path class="s3" d="m1208.8 805c-0.6 0-1.1-0.3-1.4-0.8-0.5-0.8-0.2-1.9 0.6-2.3l57.5-33.2c0.8-0.5 1.8-0.2 2.3 0.6 0.5 0.8 0.2 1.8-0.6 2.3l-57.6 33.2q-0.4 0.2-0.8 0.2z"/>
					</g>
					<g>
						<path class="s2" d="m1048.3 897.7c-0.5 0-1.1-0.3-1.4-0.9-0.5-0.8-0.2-1.8 0.6-2.3l128.3-74.1c0.8-0.4 1.8-0.2 2.3 0.7 0.5 0.8 0.2 1.8-0.6 2.2l-128.3 74.1q-0.4 0.3-0.9 0.3z"/>
					</g>
					<g>
						<path fill-rule="evenodd" class="s1" d="m830.3 1021.9l179.6-103.7"/>
						<path class="s3" d="m830.3 1023.5c-0.6 0-1.1-0.3-1.4-0.8-0.5-0.8-0.2-1.8 0.6-2.3l179.6-103.7c0.8-0.5 1.8-0.2 2.3 0.6 0.5 0.8 0.2 1.8-0.6 2.3l-179.7 103.7q-0.4 0.2-0.8 0.2z"/>
					</g>
					<g>
						<path class="s2" d="m723.7 1085.1c-0.6 0-1.1-0.3-1.4-0.9-0.5-0.8-0.2-1.8 0.6-2.3l62.1-35.8c0.7-0.5 1.8-0.2 2.3 0.6 0.4 0.8 0.1 1.9-0.7 2.3l-62 35.9q-0.4 0.2-0.9 0.2z"/>
					</g>
				</g>
			</g>
			<g>
				<g>
					<g>
						<path class="s1" d="m2060.9 1696.2c-10 5.8-10.1 15.2-0.1 21l127.3 73.9c9.9 5.8 26.1 5.8 36.1 0l128.1-73.9c10-5.8 10.1-15.2 0.1-21l-127.2-74c-10-5.8-26.2-5.8-36.2 0z"/>
						<path class="s0" d="m2206.1 1797.1c-6.8 0-13.7-1.5-18.9-4.5l-127.3-74c-5.3-3.1-8.2-7.3-8.2-11.9 0-4.6 3-8.8 8.4-12l128.1-73.9c10.4-6.1 27.4-6.1 37.8 0l127.3 73.9c5.3 3.2 8.3 7.4 8.3 11.9-0.1 4.6-3 8.9-8.4 12l-128.1 74c-5.3 3-12.1 4.5-19 4.5zm1-177.5c-6.2 0-12.5 1.3-17.2 4.1l-128.2 74c-4.3 2.4-6.7 5.7-6.7 9 0 3.3 2.4 6.5 6.6 9l127.3 74c9.5 5.5 24.9 5.5 34.5 0l128.1-74c4.3-2.5 6.7-5.7 6.7-9.1 0-3.3-2.3-6.5-6.6-8.9l-127.3-74c-4.7-2.8-10.9-4.1-17.2-4.1zm-146.2 76.6z"/>
					</g>
				</g>
				<g>
					<g>
						<path class="s1" d="m2257.9 1676.8c28.5 16.5 28.7 43.2 0.3 59.7-28.3 16.5-74.4 16.5-102.9 0-28.5-16.5-28.6-43.1-0.3-59.6 28.4-16.5 74.4-16.5 102.9-0.1z"/>
						<path class="s3" d="m2206.8 1750.5c-18.9 0-37.9-4.2-52.4-12.6-14.3-8.2-22.2-19.4-22.2-31.3-0.1-11.8 7.8-22.9 21.9-31.2 28.8-16.7 75.8-16.7 104.7 0 14.3 8.3 22.3 19.4 22.3 31.3 0 11.9-7.8 23-22.1 31.2-14.3 8.4-33.2 12.6-52.2 12.6zm-0.3-84.3c-18.4 0-36.7 4-50.7 12.1-13.1 7.7-20.3 17.7-20.3 28.3 0 10.7 7.4 20.8 20.6 28.4 28 16.2 73.4 16.2 101.3 0 13.1-7.6 20.3-17.7 20.3-28.3 0-10.6-7.3-20.7-20.6-28.4-14-8.1-32.3-12.1-50.6-12.1z"/>
					</g>
				</g>
				<g>
					<g>
						<g>
							<g>
								<path class="s1" d="m2159.5 1556.1l0.5 145.7c0 6.9 4.6 13.8 13.7 19.1 18.2 10.6 47.9 10.6 66.3 0 9.2-5.4 13.8-12.4 13.8-19.4l-0.6-145.6c0 7-4.6 14-13.8 19.3-18.4 10.6-48 10.6-66.3 0-9.1-5.3-13.6-12.2-13.6-19.1z"/>
							</g>
						</g>
						<g>
							<g>
								<path class="s0" d="m2173.1 1575.2c9.1 5.3 21 7.9 32.9 8v145.6c-11.7-0.2-23.4-2.8-32.3-7.9-9.1-5.3-13.7-12.2-13.7-19.1l-0.5-145.7c0 6.9 4.5 13.8 13.6 19.1z"/>
							</g>
						</g>
						<g>
							<g>
								<path class="s3" d="m2206.8 1730.4c-12.3 0-24.6-2.7-34-8.1-9.3-5.4-14.4-12.7-14.5-20.5l-0.5-145.6q0-0.1 0-0.1 0 0 0 0c0-0.9 0.7-1.7 1.7-1.7 0.9 0 1.6 0.8 1.6 1.7 0.1 6.6 4.6 12.9 12.9 17.7 17.7 10.3 46.7 10.3 64.6 0 8.3-4.9 12.9-11.2 12.9-17.9q0 0 0 0c0-0.9 0.8-1.7 1.7-1.7 0.9 0 1.7 0.8 1.7 1.7l0.5 145.6c0.1 8-5.1 15.3-14.6 20.8-9.4 5.4-21.7 8.1-34 8.1zm-45.6-163.6l0.5 135c0 6.5 4.6 12.8 12.8 17.6 17.8 10.3 46.7 10.3 64.6 0 8.4-4.8 13-11.2 13-17.9l-0.5-135c-2.5 3.8-6.3 7.3-11.4 10.2-18.8 10.8-49.2 10.8-67.9 0-4.9-2.9-8.7-6.2-11.1-9.9z"/>
							</g>
						</g>
						<g>
							<g>
								<path class="s1" d="m2173.3 1536.8c-18.4 10.6-18.5 27.8-0.2 38.4 18.3 10.6 47.9 10.6 66.3 0 18.3-10.6 18.4-27.8 0.2-38.4-18.3-10.6-48-10.6-66.3 0z"/>
								<path class="s3" d="m2206.2 1584.8c-12.3 0-24.6-2.7-33.9-8.1-9.4-5.5-14.5-12.8-14.5-20.6 0-7.9 5.2-15.3 14.7-20.8 18.7-10.8 49.2-10.8 67.9 0.1 9.4 5.4 14.5 12.7 14.5 20.6 0 7.9-5.2 15.2-14.7 20.7-9.4 5.4-21.7 8.1-34 8.1zm-32.1-46.6c-8.3 4.9-12.9 11.2-12.9 17.9-0.1 6.6 4.5 12.9 12.8 17.7 17.7 10.3 46.7 10.3 64.6 0 8.3-4.9 12.9-11.2 12.9-17.8 0-6.6-4.5-12.9-12.8-17.7-17.7-10.3-46.7-10.4-64.6-0.1z"/>
							</g>
						</g>
					</g>
				</g>
				<g>
					<g>
						<g>
							<g>
								<path class="s1" d="m2175.3 1455.3l0.3 96.5c0 4.6 3.1 9.2 9.1 12.7 12.1 7.1 31.9 7.1 44.1 0 6.1-3.5 9.2-8.2 9.2-12.8l-0.4-96.5c0 4.6-3 9.3-9.2 12.8-12.2 7.1-31.9 7.1-44.1 0-6-3.5-9-8.1-9-12.7z"/>
							</g>
						</g>
						<g>
							<g>
								<path class="s0" d="m2206 1569.7c-7.7-0.1-15.4-1.8-21.3-5.2-6-3.5-9.1-8.1-9.1-12.7l-0.3-96.5c0 4.6 3 9.2 9 12.7 6 3.5 13.8 5.3 21.7 5.3z"/>
							</g>
						</g>
						<g>
							<g>
								<path class="s3" d="m2206.7 1571.4c-8.3 0-16.5-1.8-22.8-5.4-6.4-3.8-9.9-8.8-10-14.2l-0.3-96.5q0 0 0 0c0-0.9 0.7-1.6 1.7-1.6 0.9 0 1.6 0.7 1.6 1.6 0.1 4.2 3 8.2 8.3 11.3 11.6 6.8 30.6 6.8 42.4 0 5.4-3.1 8.3-7.2 8.3-11.4q0 0 0 0c0-0.9 0.8-1.7 1.7-1.7 0.9 0 1.7 0.8 1.7 1.7l0.3 96.5c0.1 5.4-3.5 10.5-10 14.3-6.3 3.6-14.6 5.4-22.9 5.4zm-29.7-107.3l0.3 87.7c0 4.2 2.9 8.2 8.3 11.2 11.6 6.8 30.6 6.8 42.3 0 5.4-3.1 8.4-7.1 8.4-11.3l-0.3-87.7c-1.7 2-3.9 3.9-6.7 5.5-12.7 7.3-33.2 7.3-45.8 0-2.7-1.6-4.9-3.4-6.5-5.4z"/>
							</g>
						</g>
						<g>
							<g>
								<path class="s2" d="m2184.5 1442.5c-12.3 7-12.3 18.5-0.2 25.5 12.2 7.1 31.9 7.1 44.1 0 12.2-7 12.3-18.4 0.1-25.5-12.1-7.1-31.8-7.1-44 0z"/>
								<path class="s3" d="m2206.3 1475c-8.2 0-16.5-1.9-22.8-5.5-6.4-3.7-9.9-8.8-9.9-14.2 0-5.5 3.6-10.5 10-14.3 12.7-7.3 33.2-7.3 45.8 0.1 6.4 3.7 9.9 8.7 9.9 14.1 0 5.5-3.6 10.6-10 14.3-6.4 3.6-14.7 5.5-23 5.5zm-21-31.1c-5.4 3.2-8.4 7.2-8.4 11.4 0 4.2 3 8.2 8.3 11.3 11.6 6.8 30.6 6.8 42.4 0 5.4-3.1 8.3-7.1 8.3-11.4 0-4.1-2.9-8.1-8.2-11.2-11.7-6.8-30.7-6.8-42.4-0.1z"/>
							</g>
						</g>
						<g>
							<path class="s7" d="m2235.8 1380.9v74.1c-0.2 4.2-3.1 8.4-8.6 11.6-11.5 6.7-30.2 6.7-41.7 0-5.5-3.2-8.3-7.4-8.4-11.6v-74.1z"/>
						</g>
					</g>
				</g>
			</g>
		</g>
	</g>
</svg>