<svg version="1.2" xmlns="http://www.w3.org/2000/svg" viewBox="0 0 3710 3710" width="3710" height="3710">
	<title>11667742_20945590</title>
	<defs>
		<linearGradient id="g1" x2="1" gradientUnits="userSpaceOnUse" gradientTransform="matrix(-2042.256,-2204.34,2460.171,-2279.276,3395.298,3616.325)">
			<stop offset="0" stop-color="#dae3fe"/>
			<stop offset="1" stop-color="#e9effd"/>
		</linearGradient>
		<linearGradient id="g2" x2="1" gradientUnits="userSpaceOnUse" gradientTransform="matrix(1443.246,0,0,2197.276,1498.942,2007.522)">
			<stop offset="0" stop-color="#4f52ff"/>
			<stop offset="1" stop-color="#4042e2"/>
		</linearGradient>
		<linearGradient id="g3" x2="1" gradientUnits="userSpaceOnUse" gradientTransform="matrix(121.182,371.449,-193.077,62.99,1123.504,1595.214)">
			<stop offset="0" stop-color="#febbba"/>
			<stop offset="1" stop-color="#ff928e"/>
		</linearGradient>
		<linearGradient id="g4" x2="1" gradientUnits="userSpaceOnUse" gradientTransform="matrix(-255.338,0,0,-585.345,1149.158,2915.172)">
			<stop offset="0" stop-color="#febbba"/>
			<stop offset="1" stop-color="#ff928e"/>
		</linearGradient>
		<linearGradient id="g5" x2="1" gradientUnits="userSpaceOnUse" gradientTransform="matrix(126.451,821.928,-497.368,76.518,798.19,2344.159)">
			<stop offset="0" stop-color="#4f52ff"/>
			<stop offset="1" stop-color="#4042e2"/>
		</linearGradient>
		<linearGradient id="g6" x2="1" gradientUnits="userSpaceOnUse" gradientTransform="matrix(126.451,821.931,-1548.027,238.159,1065.747,2302.997)">
			<stop offset="0" stop-color="#4f52ff"/>
			<stop offset="1" stop-color="#4042e2"/>
		</linearGradient>
		<linearGradient id="g7" x2="1" gradientUnits="userSpaceOnUse" gradientTransform="matrix(-147.861,0,0,-547.373,1304.095,2934.158)">
			<stop offset="0" stop-color="#febbba"/>
			<stop offset="1" stop-color="#ff928e"/>
		</linearGradient>
		<linearGradient id="g8" x2="1" gradientUnits="userSpaceOnUse" gradientTransform="matrix(-289.465,0,0,-572.672,1622.615,1824.81)">
			<stop offset="0" stop-color="#febbba"/>
			<stop offset="1" stop-color="#ff928e"/>
		</linearGradient>
		<linearGradient id="g9" x2="1" gradientUnits="userSpaceOnUse" gradientTransform="matrix(342.855,-292.435,278.705,326.758,830.204,2491.287)">
			<stop offset="0" stop-color="#4f52ff"/>
			<stop offset="1" stop-color="#4042e2"/>
		</linearGradient>
		<linearGradient id="g10" x2="1" gradientUnits="userSpaceOnUse" gradientTransform="matrix(685.811,-887.522,712.435,550.517,-138.355,4267.303)">
			<stop offset="0" stop-color="#09005d"/>
			<stop offset="1" stop-color="#1a0f91"/>
		</linearGradient>
		<linearGradient id="g11" x2="1" gradientUnits="userSpaceOnUse" gradientTransform="matrix(-90.483,0,0,-110.589,1259.271,1966.924)">
			<stop offset="0" stop-color="#febbba"/>
			<stop offset="1" stop-color="#ff928e"/>
		</linearGradient>
		<linearGradient id="g12" x2="1" gradientUnits="userSpaceOnUse" gradientTransform="matrix(-658.597,44.785,-45.58,-670.29,1115.465,1849.994)">
			<stop offset="0" stop-color="#febbba"/>
			<stop offset="1" stop-color="#ff928e"/>
		</linearGradient>
		<linearGradient id="g13" x2="1" gradientUnits="userSpaceOnUse" gradientTransform="matrix(231.826,463.65,-402.156,201.079,1007.215,1810.294)">
			<stop offset="0" stop-color="#09005d"/>
			<stop offset="1" stop-color="#1a0f91"/>
		</linearGradient>
		<linearGradient id="g14" x2="1" gradientUnits="userSpaceOnUse" gradientTransform="matrix(-108.357,386.992,-411.355,-115.179,1656.72,41.63)">
			<stop offset="0" stop-color="#ff928e"/>
			<stop offset="1" stop-color="#fe7062"/>
		</linearGradient>
		<linearGradient id="g15" x2="1" gradientUnits="userSpaceOnUse" gradientTransform="matrix(96.55,1544.811,-1699.141,106.195,1291.222,785.644)">
			<stop offset="0" stop-color="#ff928e"/>
			<stop offset="1" stop-color="#fe7062"/>
		</linearGradient>
		<linearGradient id="g16" x2="1" gradientUnits="userSpaceOnUse" gradientTransform="matrix(27.118,366.099,-1346.164,99.716,2588.043,2387.136)">
			<stop offset="0" stop-color="#ff928e"/>
			<stop offset="1" stop-color="#fe7062"/>
		</linearGradient>
		<linearGradient id="g17" x2="1" gradientUnits="userSpaceOnUse" gradientTransform="matrix(44.196,455.56,-1675.507,162.549,2634.037,3043)">
			<stop offset="0" stop-color="#ff928e"/>
			<stop offset="1" stop-color="#fe7062"/>
		</linearGradient>
	</defs>
	<style>
		.s0 { fill: #ffffff } 
		.s1 { opacity: .5;fill: #ffffff } 
		.s2 { opacity: .56;fill: #ffffff } 
		.s3 { fill: url(#g1) } 
		.s4 { fill: #bdd0fb } 
		.s5 { fill: #91b3fa } 
		.s6 { opacity: .86;fill: #ffffff } 
		.s7 { fill: url(#g2) } 
		.s8 { opacity: .68;fill: #ffffff } 
		.s9 { fill: url(#g3) } 
		.s10 { fill: url(#g4) } 
		.s11 { fill: url(#g5) } 
		.s12 { fill: url(#g6) } 
		.s13 { fill: url(#g7) } 
		.s14 { fill: url(#g8) } 
		.s15 { fill: url(#g9) } 
		.s16 { fill: url(#g10) } 
		.s17 { fill: url(#g11) } 
		.s18 { fill: url(#g12) } 
		.s19 { fill: url(#g13) } 
		.s20 { fill: url(#g14) } 
		.s21 { fill: url(#g15) } 
		.s22 { opacity: .7;fill: #ffffff } 
		.s23 { fill: url(#g16) } 
		.s24 { fill: url(#g17) } 
		.s25 { fill: #7d97f4 } 
	</style>
	<g id="Background">
		<g>
			<g>
			</g>
		</g>
	</g>
	<g id="Illustration">
		<g>
			<g style="opacity: .64">
				<path class="s0" d="m782.4 2559.8c-0.4 0-0.8-0.3-0.9-0.7q-0.3-0.7-0.4-1.5c-0.1-0.5 0.2-1 0.7-1.1 0.5-0.1 1 0.2 1.1 0.7q0.2 0.7 0.4 1.4c0.1 0.5-0.2 1-0.7 1.1q-0.1 0.1-0.2 0.1z"/>
				<path class="s0" d="m781.3 2553.2c-0.5 0-0.9-0.4-0.9-0.9q-0.1-0.5-0.1-1 0-1 0.1-2v-0.2c0.1-0.5 0.5-0.9 1-0.9 0.5 0.1 0.9 0.5 0.9 1v0.3q-0.1 0.9-0.1 1.8 0 0.5 0 1c0 0.5-0.4 0.9-0.9 0.9q0 0 0 0zm0.9-8.2q-0.1 0-0.2 0c-0.5-0.1-0.8-0.7-0.7-1.2q0.5-1.5 1.1-3.1c0.2-0.4 0.7-0.7 1.2-0.5 0.5 0.2 0.7 0.8 0.5 1.3q-0.6 1.4-1 2.8c-0.1 0.5-0.4 0.7-0.9 0.7zm3.4-7.5q-0.2 0-0.5-0.2c-0.4-0.2-0.5-0.8-0.2-1.3q0.9-1.3 1.9-2.6c0.3-0.4 0.9-0.4 1.3-0.1 0.4 0.3 0.5 0.9 0.1 1.3q-0.9 1.2-1.8 2.5c-0.2 0.2-0.4 0.4-0.8 0.4zm5.6-6.1c-0.3 0-0.6-0.2-0.7-0.4-0.4-0.4-0.3-1 0.1-1.3q1.3-1 2.6-1.9c0.5-0.3 1.1-0.2 1.3 0.3 0.3 0.4 0.2 1-0.3 1.3q-1.2 0.8-2.4 1.7-0.3 0.3-0.6 0.3zm7.1-4.2c-0.4 0-0.7-0.3-0.9-0.6-0.1-0.5 0.1-1 0.6-1.2q1.5-0.6 3.1-1c0.5-0.2 1 0.1 1.1 0.6 0.1 0.5-0.2 1-0.6 1.2q-1.5 0.3-2.9 0.9-0.2 0.1-0.4 0.1zm19.3-0.2q-0.1 0-0.3 0-1.4-0.6-2.9-0.9c-0.5-0.2-0.8-0.7-0.7-1.2 0.1-0.5 0.6-0.8 1.1-0.7q1.6 0.4 3.2 1c0.4 0.2 0.7 0.7 0.5 1.2-0.1 0.4-0.5 0.6-0.9 0.6zm-11.2-1.6c-0.5 0-0.9-0.4-1-0.9 0-0.5 0.4-1 0.9-1q1.6-0.1 3.3 0c0.5 0 0.9 0.4 0.9 1-0.1 0.5-0.5 0.9-1 0.8q-1.5 0-3.1 0.1 0 0 0 0z"/>
				<path class="s0" d="m823.5 2530.1q-0.3 0-0.5-0.2-0.6-0.4-1.2-0.8c-0.5-0.2-0.6-0.8-0.3-1.2 0.2-0.5 0.8-0.6 1.2-0.3q0.7 0.4 1.3 0.8c0.5 0.3 0.6 0.9 0.3 1.3-0.2 0.3-0.5 0.4-0.8 0.4z"/>
			</g>
			<g style="opacity: .64">
				<path class="s0" d="m834.8 2548.3c-0.5 0-0.9-0.3-0.9-0.8q-0.1-0.7-0.3-1.4c-0.1-0.5 0.2-1 0.7-1.1 0.5-0.1 1 0.2 1.1 0.7q0.2 0.8 0.3 1.5c0.1 0.5-0.3 1-0.8 1.1q-0.1 0-0.1 0z"/>
				<path class="s0" d="m808.2 2579.1q-1 0-2-0.1-0.5 0-1-0.1c-0.5 0-0.8-0.5-0.8-1 0.1-0.5 0.5-0.9 1-0.8q0.5 0 1 0.1 0.9 0 1.8 0h0.2q0 0 0 0c0.6 0 1 0.4 1 0.9 0 0.6-0.4 1-0.9 1zm5.2-0.5c-0.4 0-0.8-0.3-0.9-0.8-0.1-0.5 0.2-1 0.7-1.1q1.5-0.3 2.9-0.7c0.5-0.2 1.1 0.1 1.2 0.6 0.2 0.4-0.1 1-0.6 1.1q-1.5 0.5-3.1 0.8-0.1 0.1-0.2 0.1zm-13.1-0.7q-0.1 0-0.2 0-1.6-0.5-3-1.1c-0.5-0.2-0.7-0.8-0.5-1.2 0.2-0.5 0.7-0.7 1.2-0.5q1.4 0.6 2.8 1c0.5 0.2 0.8 0.7 0.6 1.2-0.1 0.4-0.5 0.6-0.9 0.6zm20.8-2.1c-0.4 0-0.7-0.2-0.9-0.5-0.2-0.5 0-1 0.4-1.3q1.3-0.7 2.5-1.6c0.5-0.3 1-0.2 1.3 0.2 0.3 0.5 0.2 1.1-0.2 1.3q-1.3 1-2.7 1.8-0.2 0.1-0.4 0.1zm6.4-5q-0.4 0-0.6-0.2c-0.4-0.4-0.4-1-0.1-1.4q1.1-1 2-2.2c0.3-0.4 0.9-0.5 1.3-0.2 0.4 0.3 0.5 0.9 0.2 1.3q-1 1.3-2.1 2.4-0.3 0.3-0.7 0.3zm4.7-6.6q-0.2 0-0.4-0.1c-0.5-0.2-0.7-0.8-0.4-1.3q0.6-1.3 1.1-2.7c0.2-0.5 0.8-0.8 1.2-0.6 0.5 0.2 0.8 0.7 0.6 1.2q-0.5 1.5-1.3 3c-0.1 0.3-0.5 0.5-0.8 0.5zm2.5-7.8q-0.1 0-0.2 0c-0.5-0.1-0.8-0.5-0.7-1q0.1-1.2 0.2-2.3 0-0.4 0.1-0.7c0-0.5 0.4-0.9 0.9-0.9 0.5 0 0.9 0.4 0.9 0.9q0 0.4 0 0.8-0.1 1.2-0.3 2.4c-0.1 0.5-0.5 0.8-0.9 0.8z"/>
				<path class="s0" d="m793 2574.4q-0.2 0-0.5-0.1-0.6-0.5-1.2-0.9c-0.5-0.4-0.5-0.9-0.2-1.3 0.3-0.5 0.9-0.5 1.3-0.2q0.6 0.4 1.2 0.8c0.4 0.3 0.5 0.9 0.2 1.3-0.2 0.3-0.5 0.4-0.8 0.4z"/>
			</g>
			<g>
				<path class="s1" d="m793.6 2566c0.1 0.1 0.3 0.1 0.4 0.1l3.7-1.4c1.4 1.1 3.1 2 4.9 2.6l0.9 3.8c0 0.2 0.1 0.3 0.3 0.3l4.6 0.5c0.2 0 0.3-0.1 0.4-0.2l1.6-3.6c1.9-0.2 3.7-0.8 5.3-1.6l3.4 2.1c0.1 0.1 0.2 0.1 0.3 0l3.7-3c0.1-0.1 0.1-0.2 0.1-0.4l-1.4-3.7c1.2-1.4 2-3.1 2.7-4.8l3.8-0.9c0.1-0.1 0.2-0.2 0.2-0.3l0.5-4.7c0-0.1-0.1-0.3-0.2-0.3l-3.5-1.7c-0.3-1.9-0.8-3.6-1.6-5.3l2-3.3c0.1-0.1 0.1-0.3 0-0.4l-3-3.7c-0.1-0.1-0.2-0.1-0.3-0.1l-3.7 1.4c-1.5-1.1-3.1-2-4.9-2.6l-0.9-3.8c0-0.2-0.1-0.3-0.3-0.3l-4.7-0.5c-0.1 0-0.2 0.1-0.3 0.2l-1.6 3.6c-1.9 0.2-3.7 0.8-5.4 1.6l-3.3-2.1c-0.1-0.1-0.3-0.1-0.4 0l-3.6 3c-0.1 0.1-0.2 0.2-0.1 0.4l1.3 3.7c-1.1 1.4-2 3.1-2.6 4.8l-3.8 0.9c-0.1 0.1-0.2 0.2-0.3 0.3l-0.4 4.7c0 0.1 0 0.3 0.2 0.3l3.5 1.7c0.3 1.9 0.8 3.6 1.6 5.3l-2.1 3.3c0 0.1 0 0.3 0.1 0.4z"/>
				<path class="s2" d="m808.2 2556.4c-2.6 0-4.9-1.9-5.3-4.6-0.2-1.4 0.2-2.8 1-3.9 0.9-1.2 2.1-1.9 3.5-2.1 1.4-0.2 2.8 0.1 3.9 1 1.2 0.8 1.9 2.1 2.1 3.5 0.5 2.9-1.5 5.6-4.4 6q-0.4 0.1-0.8 0.1zm0-8.4q-0.2 0-0.5 0c-1.6 0.3-2.8 1.8-2.5 3.5 0.2 1.7 1.8 2.8 3.4 2.6 0.8-0.1 1.6-0.6 2-1.2 0.5-0.7 0.7-1.5 0.6-2.3-0.1-0.8-0.5-1.5-1.2-2-0.5-0.4-1.2-0.6-1.8-0.6z"/>
				<path class="s2" d="m808.3 2562.7q-0.6 0-1.2 0-0.1 0-0.2-0.1-1.2-0.1-2.3-0.5c-0.1 0-0.2-0.1-0.2-0.3q0-0.1 0-0.1c0-0.2 0.3-0.3 0.5-0.3q1.1 0.4 2.2 0.5c4.1 0.4 7.9-1.5 10.1-4.6 1-1.4 1.7-3 1.9-4.8q0.1-0.2 0.1-0.4 0.1-0.6 0.1-1.1c0-5.6-4.3-10.4-9.9-11-6.1-0.6-11.5 3.8-12.1 9.9q0 0.5 0 1.1c0 1.6 0.3 3.2 1 4.6q0 0.1 0 0.2c0 0.1 0 0.3-0.2 0.3-0.2 0.1-0.4 0.1-0.5-0.1-0.7-1.6-1.1-3.3-1.1-5q0-0.6 0.1-1.2c0.6-6.4 6.4-11.1 12.8-10.5 6.1 0.6 10.6 5.7 10.6 11.7q0 0.6-0.1 1.2c-0.6 6-5.7 10.5-11.6 10.5z"/>
			</g>
		</g>
		<g>
			<path class="s3" d="m3110.7 2360.2c-280.6 655.9-1021.4 937.6-1601.8 889.6-158.4-13.1-477.3-39.5-726.2-275-478.1-452.1-404.5-1397.2 53.2-1953.6 58.9-71.6 466.9-551.7 1102.6-545.3 465.5 4.7 792.2 267.7 831.9 300.4 50.2 41.4 160.9 139.7 260.7 295.7 234.4 366.6 255 878.3 79.6 1288.2z"/>
			<g>
				<path class="s4" d="m1583.7 3049.4c0 0-343-1147.6-950.9-1749.3-40.9-40.5-110.3-20-122.2 36.3-80 376.1-209.4 1510.2 1073.1 1713z"/>
				<path class="s1" d="m1463.4 2981c3 2.7-0.5 7.3-3.8 5.1-122.6-80.6-601.8-483.7-819.1-1329.8-0.7-2.7 3.3-4 4.3-1.3 68.5 195 344 913 818.6 1326z"/>
			</g>
			<g>
				<path class="s5" d="m562.4 477.1c-5-8.9 5.4-18.4 13.8-12.6 133.2 93.5 600 464.7 724.2 1153.1 113.7 629.9 90.2 1090.5 74.6 1261.4-3.1 33.8-41.4 51.8-69.4 32.6-165.7-114.2-613-458.1-652.9-868.8-47.7-490.9 148.8-1142-90.3-1565.7z"/>
			</g>
			<g>
				<g>
					<path class="s5" d="m3113.5 3166.5h-1920.1c-21.4 0-38.8-17.4-38.8-38.8v-2368.9c0-21.5 17.4-38.9 38.8-38.9h1920.1c21.5 0 38.9 17.4 38.9 38.9v2368.9c0 21.4-17.4 38.8-38.9 38.8z"/>
					<path class="s6" d="m3052.7 3108.9h-1798.5c-21.4 0-38.8-17.4-38.8-38.8v-2220c0-21.4 17.4-38.8 38.8-38.8h1798.5c21.4 0 38.8 17.4 38.8 38.8v2220c0 21.4-17.4 38.8-38.8 38.8z"/>
				</g>
				<path class="s7" d="m1592.1 3106.2l93.5-742.7c18.8-126.2-18.5-253-100.8-342-45.8-49.4-74.7-114.8-81.2-185.3-10.1-110.1-8.9-290 57.7-509.1 88-289.6 351.6-459.9 619.6-409.4 131 24.7 281.7 74.1 437.8 167.2 88.7 53 149.2 152.3 158.7 264.9 4.5 52.3 12.7 110.2 27.6 161.7 18.8 64.7 26.9 109 30.2 137.7 3.1 26.1-5.8 52.2-23.1 69.4-18 17.8-22.4 47.7-10.6 71.1l137.9 238.7 2.8 14.3c-8 27.2-28.1 61.4-50.6 63.7l-78.6 8.1 2.9 92.7c0.6 17.9-9.6 34.2-24.7 39.4l-18 6.3 16.4 14.6c13.4 11.8 17 33.4 8.3 50.8l-23.2 46.6c-10.6 21.2-9.1 47.1 3.8 65.6 21.2 30.4 18.8 93.7-5.2 118.6-50.1 51.8-153.1 54.2-204.5 50.4-79-5.7-150-42.1-223.1-4.5-21.5 11.1-36.5 25.1-45.5 34.8l6.2 476.4c0 0-714.3 0-714.3 0z"/>
				<g>
					<path class="s0" d="m2155.1 1850.3q-1 0-2-0.3l-121.7-38.8c-1.1-0.4-2-0.9-2.8-1.7l-56.5-57.7-92.7-20.1-124.5 11.1c-1.4 0.1-2.9-0.2-4.1-0.9l-131.2-78.9c-1.2-0.7-2.1-1.7-2.7-2.9l-43-94.4c-0.6-1.2-0.8-2.6-0.5-3.9l24.4-137.4-3.7-94c0-1.5 0.5-3 1.4-4.3l65.3-86 53.7-103c0.8-1.5 2-2.6 3.6-3.2l121.7-47.5 94.5-52.2q0.9-0.5 2-0.7l179.5-33.9c1.3-0.3 2.6-0.1 3.8 0.3l102.1 41.1 149.9-9.4c1.8-0.1 3.6 0.6 5 1.8l104.5 95.2 125.2 36.8c2.1 0.6 3.8 2.2 4.5 4.2l70.6 201.7q0.4 1.1 0.4 2.2v128.2q0 1.1-0.4 2.2l-49.2 142.6c-0.4 1.2-1.2 2.3-2.2 3.1l-147.7 115.3c-1.2 0.9-2.6 1.4-4 1.4l-148 3.7-172.4 79.7c-0.9 0.4-1.8 0.6-2.8 0.6zm-118.1-51.4l117.7 37.5 171.2-79.2q1.2-0.6 2.6-0.6l147.2-3.7 144.5-112.7 48.2-139.7v-125.8l-69.2-197.4-123.4-36.2c-0.9-0.3-1.8-0.8-2.6-1.5l-103.6-94.4-148.6 9.3q-1.5 0.1-2.9-0.4l-101.7-41-176.6 33.4-93.9 51.9q-0.4 0.2-0.8 0.3l-119.8 46.8-52.8 101.4q-0.3 0.5-0.6 0.9l-64.2 84.5 3.6 92.3q0 0.7-0.1 1.5l-24.2 136 41.3 90.5 127.6 76.6 123.3-11q1-0.1 2 0.1l95.7 20.8c1.3 0.3 2.5 0.9 3.4 1.9z"/>
					<path class="s0" d="m1836.5 1954.9q-0.4 0-0.8-0.1l-113-19.1c-0.8-0.2-1.5-0.5-2.1-1l-69.5-52c-1.1-0.9-1.8-2.1-2-3.5l-9.7-78-42.9-59.2c-0.9-1.3-1.2-2.9-0.8-4.3l22.5-81.8 9.7 2.7-21.8 79.4 42.2 58.3c0.5 0.7 0.8 1.5 0.9 2.3l9.7 77.3 66.7 50 110.3 18.7 111.4-45.8q0.4-0.2 0.9-0.2l113.4-25.2 35.6-50.7 8.3 5.9-36.8 52.2c-0.8 1-1.8 1.7-3.1 2l-114.8 25.5-112.4 46.2q-0.9 0.4-1.9 0.4z"/>
					<path fill-rule="evenodd" class="s0" d="m2222.1 1692h-196.5l-13.6-127.7h-261.3l65.5-150.8-36-118.4-179.8 39-1.4-6.6 185.9-40.3 38.4 126.7-62.4 143.7h257.1l13.6 127.7h185.5l52.9-175.2 147.1 72.1 91.2-111.2 113.5 14.6 49-110.2-254.6-107.8-124.5 118.3-157.4 7.7-9.9-172.1-185.6-54.5-16-120.2 6.7-0.9 15.4 115.9 186 54.6 9.8 170.1 148.1-7.2 126-119.6 264.9 112.1-53.8 121.1-114.7-14.7-92.3 112.4-144.8-71z"/>
					<path class="s0" d="m2196.8 1833.4l-168-144-53.2 58.6-1.2-1.1-218.7-184.2-0.1 0.1-0.7 1.1-0.4-0.3-130.5 95-2-2.7 129.4-94.2-77.8-47.5-5-84.3 0.1-0.4 55.4-126.3-19.3-146 78.7 132.4 197.6 16.4-158.6-100.8 118.2-42.2 79.6-140.9 137.1 69.5-27.7 125.6 159.2-2.4 39.4-174.1 88.1 220.6 190.4-92.4-29.9 163-65.3 142.5 90.5 191.6-181.1 3.5zm-168.3-148.7l168.5 144.4 222.9-162.9 176.9-3.4-88.9-188.4 0.3-0.7 65.5-142.9 28.6-156-187.7 91.1-85.5-213.9-37.5 166.2-166.1 2.5 28.1-127.3-132-66.8-78.6 139.2-112.8 40.2 164.2 104.5-212.9-17.7-71.2-119.8 17.3 130.7-0.2 0.5-55.4 126.3 4.8 81.8 77.6 47.3 1.5-1.1 219.4 184.9z"/>
					<path class="s8" d="m2033.4 1806q-0.4 0-0.7-0.2c-0.4-0.2-0.5-0.6-0.6-1l-4.7-117.7c-0.1-0.3 0.1-0.7 0.3-0.9l137.7-153.5-28.6-139.6-120.8 168.2c-0.3 0.4-0.7 0.5-1.1 0.5-0.4 0-0.8-0.3-1-0.6l-60.5-113-131.4-32.9 63.9 144.8q0.2 0.3 0.1 0.6l-12.6 98.1c0 0.4-0.3 0.8-0.8 1l-147.6 59.6c-0.3 0.2-0.7 0.1-1 0-0.3-0.2-0.6-0.5-0.7-0.8l-29.4-112.8-114.4-55.9c-0.5-0.2-0.7-0.6-0.8-1.1 0-0.4 0.3-0.9 0.7-1.1l238.4-134.6-92.1-107.8-120.9 105.7c-0.5 0.4-1.3 0.4-1.8-0.1-0.4-0.6-0.4-1.4 0.1-1.8l121.9-106.6c0.3-0.2 0.6-0.3 0.9-0.3 0.4 0 0.7 0.2 0.9 0.4l93.7 109.7 134 33.6c0.4 0.1 0.7 0.3 0.8 0.6l59.8 111.7 121.4-168.9c0.3-0.4 0.8-0.6 1.3-0.5 0.5 0.1 0.8 0.5 0.9 1l29.3 143.1c0.1 0.4-0.1 0.8-0.3 1.1l-137.8 153.5 4.7 115.6 98.8-26.9 85.3-90q0.1-0.2 0.3-0.3l198.4-101c0.4-0.2 0.8-0.2 1.2 0 0.4 0.2 0.6 0.6 0.6 1l2.5 81.9c0 0.7-0.5 1.3-1.2 1.3-0.8 0-1.3-0.5-1.3-1.2l-2.4-79.9-196.5 100.1-85.3 90.1q-0.3 0.3-0.6 0.4l-100.7 27.4q-0.1 0-0.3 0zm-450.7-257.3l112.8 55.1c0.3 0.1 0.6 0.4 0.7 0.8l29.2 111.9 145.6-58.8 12.5-96.9-64.3-145.6z"/>
					<path class="s8" d="m2492.7 1749.4q-0.1 0-0.2 0l-147.9-25-125.4-36.1c-0.4-0.2-0.7-0.5-0.8-0.9-0.2-0.4-0.1-0.8 0.2-1.2l109.1-132.9q0.2-0.2 0.5-0.3l179.9-79.3-92.4-206.6-49.8 158.2q-0.1 0.3-0.4 0.5l-92.6 89.2c-0.3 0.3-0.9 0.4-1.4 0.2-0.5-0.3-0.7-0.8-0.7-1.3l18.1-134.4-157.9-90.1c-0.4-0.2-0.6-0.7-0.6-1.2 0-0.4 0.3-0.8 0.7-1l158.6-71.9q0.4-0.1 0.7-0.1l112.4 16.7 73.5-98c0.3-0.4 0.8-0.6 1.3-0.5 0.5 0.1 0.8 0.5 0.9 0.9l19.9 88.6 90.6 35.3q0.3 0.2 0.5 0.5l86.8 114.1c0.4 0.5 0.3 1.3-0.3 1.7-0.5 0.5-1.3 0.4-1.7-0.2l-86.6-113.8-90.8-35.5c-0.4-0.1-0.7-0.4-0.8-0.9l-19.4-86.5-72.3 96.4c-0.3 0.4-0.7 0.5-1.2 0.5l-112.8-16.7-156 70.6 156.5 89.3c0.4 0.3 0.7 0.7 0.6 1.3l-17.7 131.6 89.8-86.4 50.7-161c0.2-0.5 0.6-0.8 1.1-0.9 0.5 0 1 0.3 1.3 0.8l94.2 210.8c0.1 0.3 0.1 0.6 0 0.9-0.1 0.3-0.3 0.6-0.7 0.7l-180.7 79.6-107.7 131.3 123.3 35.5 147.8 25c0.7 0.1 1.2 0.7 1.1 1.4-0.1 0.6-0.7 1.1-1.3 1.1z"/>
					<path class="s0" d="m2438.7 1740.3q-0.4 0-0.8-0.4c-0.5-0.4-0.6-1.2-0.1-1.7l62.6-71.9-83.3-79.4c-0.3-0.3-0.5-0.8-0.3-1.3 0.1-0.4 0.5-0.8 0.9-0.9l132.1-25.3 73.1-71.2c0.4-0.3 0.8-0.4 1.2-0.3 0.5 0.1 0.8 0.4 0.9 0.9l22.4 79.5c0.1 0.7-0.3 1.3-0.9 1.5-0.7 0.2-1.4-0.2-1.6-0.8l-21.7-77.5-71.9 70q-0.3 0.2-0.6 0.3l-130.1 25 82.5 78.5c0.4 0.5 0.5 1.3 0 1.8l-63.4 72.7c-0.2 0.3-0.6 0.5-1 0.5z"/>
					<path class="s0" d="m1781 1294q-0.2 0-0.3 0c-0.8-0.1-1.3-0.8-1.4-1.5l-13.4-168.9c-0.1-0.9 0.6-1.7 1.6-1.8 0.8-0.1 1.7 0.6 1.8 1.5l12.9 163.1 46.4-88.6 37.7-119.8c0.3-0.9 1.2-1.4 2.1-1.1 0.9 0.3 1.4 1.2 1.1 2.1l-37.9 120-49.1 94.1c-0.3 0.6-0.9 0.9-1.5 0.9z"/>
					<path class="s8" d="m2015 1561.8q-0.4 0-0.8-0.2l-195.2-147.1c-0.5-0.4-0.6-1-0.4-1.6l55-114-54.6-96.7c-0.3-0.4-0.3-1 0-1.4 0.3-0.4 0.8-0.5 1.3-0.5l239.5 48.9-60.5-66.8c-0.3-0.3-0.4-0.7-0.3-1.1 0-0.3 0.3-0.7 0.6-0.9l155.3-89 64.9-44.6c0.6-0.4 1.4-0.3 1.8 0.3 0.4 0.6 0.2 1.4-0.4 1.8l-65 44.6-154 88.3 61.4 67.8 63.5-31.8 200.8-172.4c0.5-0.4 1.3-0.4 1.8 0.1 0.4 0.6 0.3 1.4-0.2 1.8l-201 172.6-64.5 32.4-75.1 56.7-32.9 136.2 181.1-56.3c0.5-0.2 0.9-0.1 1.3 0.2l134.5 124c0.4 0.4 0.5 0.9 0.4 1.3-0.2 0.5-0.5 0.8-1 0.9l-257.1 46.5q-0.1 0-0.2 0zm-193.6-148.7l193.9 146.1 254-45.9-132.1-121.8-182.6 56.8c-0.4 0.1-0.9 0-1.2-0.3-0.4-0.3-0.5-0.8-0.4-1.2l33.6-138.9q0.1-0.4 0.4-0.7l73.3-55.3-237.8-48.5 53.6 94.8c0.2 0.4 0.2 0.8 0.1 1.2z"/>
					<path class="s0" d="m2137.5 1391.3q-0.3 0-0.6-0.1l-149.7-81.9c-0.5-0.2-0.8-0.8-0.7-1.3 0.1-0.5 0.6-0.9 1.1-1l143.9-19.9 283.9-24.8c0.7 0 1.3 0.5 1.4 1.2 0 0.7-0.5 1.3-1.2 1.3l-283.8 24.8-140.1 19.4 146.4 80c0.6 0.3 0.8 1.1 0.5 1.7-0.2 0.4-0.6 0.6-1.1 0.6z"/>
					<path fill-rule="evenodd" class="s0" d="m1933.8 1905.7l-47.6-73-120-26.5-13.1-67.5-108 62-1.7-2.9 112.1-64.3 13.5 69.9 119.3 26.3 46.6 71.5 99.4-58.5-2.5-36.5-93.2-17.9-71.8-61.1 2.2-2.6 71.1 60.5 94.9 18.3 2.8 41.1z"/>
					<path class="s8" d="m1788.5 1943.3c-0.5 0-1-0.2-1.3-0.6l-66.2-77.5-31.8 39.3c-0.6 0.8-1.6 0.9-2.4 0.3-0.7-0.6-0.8-1.7-0.2-2.4l32.2-39.8-0.3-0.2q-0.2-0.3-0.3-0.6l-28-86.8q0-0.3 0-0.5v-74.2l-87.7 40.2c-0.9 0.4-1.9 0-2.3-0.8-0.4-0.8 0-1.8 0.9-2.2l90-41.4c0.6-0.2 1.2-0.1 1.6 0.2 0.5 0.3 0.8 0.8 0.8 1.4v76.5l27.6 85.6 45.3-56.1q0.3-0.4 0.8-0.5l143.8-41.9c0.6-0.2 1.3 0 1.7 0.4 0.5 0.5 0.6 1.2 0.4 1.7l-43.3 123q-0.2 0.5-0.6 0.8l-79.8 55.8q-0.4 0.3-0.9 0.3zm-65.4-80.7l65.7 76.8 78-54.7 42-119.3-140.2 40.8z"/>
					<path fill-rule="evenodd" class="s0" d="m1781 1310.1c-9.8 0-17.7-7.9-17.7-17.7 0-9.8 7.9-17.8 17.7-17.8 9.8 0 17.7 8 17.7 17.8 0 9.8-7.9 17.7-17.7 17.7z"/>
					<path fill-rule="evenodd" class="s0" d="m1962.8 1169.8c-2.2 9.6-11.8 15.5-21.3 13.2-9.5-2.2-15.4-11.8-13.2-21.3 2.3-9.5 11.8-15.4 21.3-13.2 9.6 2.3 15.5 11.8 13.2 21.3z"/>
					<path fill-rule="evenodd" class="s0" d="m2220.6 1706.6c-9.8 0-17.8-7.9-17.8-17.7 0-9.8 8-17.7 17.8-17.7 9.8 0 17.7 7.9 17.7 17.7 0 9.8-7.9 17.7-17.7 17.7z"/>
					<path fill-rule="evenodd" class="s0" d="m2422.4 1286.1c-9.1 3.8-19.5-0.5-23.2-9.5-3.8-9.1 0.5-19.5 9.6-23.2 9-3.8 19.4 0.5 23.1 9.6 3.8 9-0.5 19.4-9.5 23.1z"/>
					<path fill-rule="evenodd" class="s0" d="m2161.7 1100.4c-2.2 9.6-11.7 15.5-21.3 13.2-9.5-2.2-15.4-11.8-13.2-21.3 2.3-9.5 11.8-15.4 21.4-13.2 9.5 2.3 15.4 11.8 13.1 21.3z"/>
					<path fill-rule="evenodd" class="s0" d="m2144.4 1406.4c-9.1 3.8-19.5-0.5-23.2-9.6-3.8-9 0.5-19.4 9.6-23.1 9-3.8 19.4 0.5 23.2 9.6 3.7 9-0.6 19.4-9.6 23.1z"/>
					<path fill-rule="evenodd" class="s0" d="m2020.4 1576.9c-9.1 3.8-19.5-0.5-23.2-9.6-3.8-9 0.5-19.4 9.6-23.1 9-3.8 19.4 0.5 23.2 9.6 3.7 9-0.6 19.4-9.6 23.1z"/>
					<path fill-rule="evenodd" class="s0" d="m1768.3 1575c-6.9 6.9-18.1 6.9-25 0-7-7-7-18.2 0-25.1 6.9-6.9 18.1-6.9 25 0 7 6.9 7 18.1 0 25.1z"/>
					<path fill-rule="evenodd" class="s0" d="m1790.8 1809c-2.3 9.6-11.8 15.4-21.3 13.2-9.6-2.3-15.5-11.8-13.2-21.3 2.2-9.6 11.8-15.5 21.3-13.2 9.6 2.2 15.5 11.8 13.2 21.3z"/>
					<path fill-rule="evenodd" class="s0" d="m2514.3 1494.6c-9.8 0-17.7-7.9-17.7-17.7 0-9.8 7.9-17.8 17.7-17.8 9.8 0 17.8 8 17.8 17.8 0 9.8-8 17.7-17.8 17.7z"/>
					<path fill-rule="evenodd" class="s0" d="m2591.5 1341c-2.2 9.5-11.8 15.4-21.3 13.2-9.5-2.3-15.4-11.8-13.2-21.3 2.3-9.6 11.8-15.5 21.3-13.2 9.6 2.2 15.5 11.8 13.2 21.3z"/>
					<path fill-rule="evenodd" class="s0" d="m1838.8 1212c-4.4 4.3-11.4 4.3-15.8 0-4.3-4.4-4.3-11.5 0-15.8 4.4-4.4 11.4-4.4 15.8 0 4.4 4.3 4.4 11.4 0 15.8z"/>
					<path fill-rule="evenodd" class="s0" d="m2496.6 1232.3c-6.2 0-11.2-5-11.2-11.2 0-6.1 5-11.1 11.2-11.1 6.2 0 11.2 5 11.2 11.1 0 6.2-5 11.2-11.2 11.2z"/>
					<path fill-rule="evenodd" class="s0" d="m2420.5 1600.6c-6.2 0-11.2-5-11.2-11.1 0-6.2 5-11.2 11.2-11.2 6.1 0 11.1 5 11.1 11.2 0 6.1-5 11.1-11.1 11.1z"/>
					<path fill-rule="evenodd" class="s0" d="m2564.4 1568.5c-4.4 4.3-11.5 4.3-15.8 0-4.4-4.4-4.4-11.5 0-15.8 4.3-4.4 11.4-4.4 15.8 0 4.3 4.3 4.3 11.4 0 15.8z"/>
					<path fill-rule="evenodd" class="s0" d="m1894.6 1841.5c-5.7 2.4-12.2-0.3-14.6-6-2.4-5.7 0.3-12.2 6-14.6 5.7-2.3 12.3 0.3 14.6 6.1 2.4 5.7-0.3 12.2-6 14.5z"/>
					<path fill-rule="evenodd" class="s0" d="m1721.6 1878.6c-6.2 0-11.2-5-11.2-11.1 0-6.2 5-11.2 11.2-11.2 6.2 0 11.2 5 11.2 11.2 0 6.1-5 11.1-11.2 11.1z"/>
					<path fill-rule="evenodd" class="s0" d="m1690.7 1787.7c-5.7 2.3-12.2-0.4-14.6-6.1-2.3-5.7 0.4-12.2 6.1-14.5 5.7-2.4 12.2 0.3 14.6 6 2.3 5.7-0.4 12.2-6.1 14.6z"/>
					<path fill-rule="evenodd" class="s0" d="m1987.8 1319.4c-6.2 0-11.2-5-11.2-11.2 0-6.1 5-11.1 11.2-11.1 6.2 0 11.1 5 11.1 11.1 0 6.2-4.9 11.2-11.1 11.2z"/>
					<path fill-rule="evenodd" class="s0" d="m2166.7 1542.8c-6.1 0-11.1-5-11.1-11.1 0-6.2 5-11.2 11.1-11.2 6.2 0 11.2 5 11.2 11.2 0 6.1-5 11.1-11.2 11.1z"/>
					<path fill-rule="evenodd" class="s0" d="m2290.3 1226.2c-6.2 0-11.2-5-11.2-11.2 0-6.1 5-11.1 11.2-11.1 6.1 0 11.1 5 11.1 11.1 0 6.2-5 11.2-11.1 11.2z"/>
					<path fill-rule="evenodd" class="s0" d="m1875.8 1667.9c-4.4 4.4-11.4 4.4-15.8 0-4.4-4.4-4.4-11.4 0-15.8 4.4-4.3 11.4-4.3 15.8 0 4.4 4.4 4.4 11.4 0 15.8z"/>
					<path fill-rule="evenodd" class="s0" d="m1967.8 1443.2c-1 6-6.7 10.2-12.8 9.2-6.1-1-10.3-6.7-9.3-12.8 1-6.1 6.7-10.2 12.8-9.2 6.1 0.9 10.3 6.7 9.3 12.8z"/>
					<path fill-rule="evenodd" class="s0" d="m1827.6 1421.6c-4.3 4.4-11.4 4.4-15.7 0-4.4-4.3-4.4-11.4 0-15.8 4.3-4.3 11.4-4.3 15.7 0 4.4 4.4 4.4 11.5 0 15.8z"/>
					<path fill-rule="evenodd" class="s0" d="m2290.3 1390c-6.2 0-11.2-5-11.2-11.2 0-6.2 5-11.2 11.2-11.2 6.1 0 11.1 5 11.1 11.2 0 6.2-5 11.2-11.1 11.2z"/>
				</g>
			</g>
			<g>
				<path class="s9" d="m1241.5 1622.7c0 0 168.6 215.8-23.8 435.4l-72.3-6.8c0 0 139.2-223.5 77.2-401.7l-102.4 7.5-56.7-36.9z"/>
				<path class="s10" d="m1149.2 2679.5c0 0-136.6 297.7-208.3 421 0 0-14.2 77.6 0 102l12.1 5.3-56.6-1.6c0 0-5-104.4-1.1-110.2 3.9-5.9 11.8-5.5 11.8-5.5 0 0 24.3-192.3 94.6-233.3l68.1-234.7z"/>
				<path class="s11" d="m977.2 3222.5c0.1 1.3-44.2 0.7-68.3 0.3-8.8-0.2-16.4-6.4-18.3-15.1l-18.2-95.5c-1.7-9 4.1-17.9 13.1-19.9l10.1-2.3c0 0 14.5 19.8 9.9 38.5-4.5 18.7-8.6 67.1 2.9 72.7 11.5 5.7 44.6 6.6 44.6 6.6 0 0 23.5 2.4 24.2 14.7z"/>
				<path class="s12" d="m1278.6 3224.2c4.5 2.5 2.7 9.4-2.5 9.3-40.3-0.4-130.5-1.6-138.5-5-10.3-4.3 3.8-41.5 18.6-54.1l82.1 26.8z"/>
				<path class="s13" d="m1304.1 2660.5c0 0-88.3 427-113.2 510.3l59 37c0 0-29.6-5-51.5-6.6-22-1.6-42.2-26.8-42.2-26.8l7.1-11.3c0 0 22.1-424.6 16.8-472.9z"/>
				<path class="s14" d="m1523.2 1664.5c0 0 12.2 222.1-190 335.6l48.6 111c0 0 183.1-110.7 176.4-412.7-0.2-8.7 2.9-17.1 8.6-23.7l38.9-45.1c14.8-17.2 20.3-40.6 14.8-62.6l-5.1-20.5c-1.7-6.8-9.5-10.1-15.6-6.6l-4.1 2.4c-13 7.5-23.2 18.9-29.3 32.6l-19.1 42.7c-7.2 16-23.6 25.6-41 24.1l-11.9-1z"/>
				<path class="s15" d="m1340.2 1983.5c-33.8 9.3-148.5 39.5-220 38.3l43.9 247.9-3.5 40.4 143.3-0.6c0 0 40.3-93.7 72.1-140.4 9.2-13.4 2.3-29.5-2.9-45l7.2-4.8c7.3-4.8 10.4-13.9 7.7-22.2l-34.9-106.7c-1.8-5.4-7.4-8.5-12.9-6.9z"/>
				<path class="s16" d="m1315.3 2288.3l-2.8 24.5c0 0 40.5 121.3-20.2 404.4 0 0-131.5 37.3-239.6-51.9 0 0 30.5-267.2 38.8-279.7 41.5-62 69.1-75.5 69.1-75.5l1.3-26.7c0 0 115.6 20.9 153.4 4.9z"/>
				<path class="s17" d="m1259.3 2003.4c0.5-0.6-29.9-91.8-29.9-91.8l-43.6 4-17 103.4c0 0 68.3 13.8 90.5-15.6z"/>
				<path class="s18" d="m1196.2 1767.9c2.9 1.8 93.1 39.1 73.7 132.7-1.1 5.5-4.8 10.2-10 12.5-13.2 5.9-41.7 16-75.8 12.6-47.2-4.8-78.1-87.3-76.8-111.3 1.3-23.9 60.1-64.4 88.9-46.5z"/>
				<path class="s19" d="m1168.8 1731.5c2.4 0.3 52.1 17.6 27.4 53.7-24.6 36-33.9 57.2-22.2 73.1 10.6 14.4 34.2 6.2 32.1 36.2-0.4 6 2.2 11.8 7.2 15.2 22.2 15 76.3 61.2 22.7 127.1-4.4 5.4-5.3 12.8-1.9 18.8 15.7 28.2 48.7 110.7-70.8 156.5-118 45.3-160.6-31.9-172.6-62.7-2.5-6.7-9.1-10.8-16.2-10.4-13 0.6-31.4-1.6-30.5-18.9 0.5-10.6 7-20 14.8-27.6 7.7-7.4 6.2-20.5-3.2-25.8-7-4.1-13.2-10.3-15.9-20.1-7.1-26.5 7.2-105.7 83.1-119.2 6.4-1.1 13-7 13.9-13.4q0-0.1 0.1-0.3c1-6.1-1.1-12.4-6.1-16.1-12.2-8.9-27.7-26.8-15.1-55.6 11.2-25.4 32.7-34 48.7-36.8 9.4-1.6 15.5-10.5 13.5-19.8-5.3-25.3-0.6-65.9 91-53.9z"/>
				<path class="s20" d="m1725.6 1627.8h-811.9c-11 0-19.9-9-19.9-20v-724.9c0-11 8.9-20 19.9-20h811.9c11 0 19.9 9 19.9 20v724.9c0 11-8.9 20-19.9 20z"/>
				<path class="s21" d="m1681.1 1583.8h-722.8c-11 0-19.9-8.9-19.9-19.9v-645.1c0-11 8.9-19.9 19.9-19.9h722.8c11 0 20 8.9 20 19.9v645.1c0 11-9 19.9-20 19.9z"/>
				<path class="s22" d="m951.8 1194.7c-1.9 0-3.4-1.5-3.4-3.4v-209.2c0-38.8 31.6-70.4 70.4-70.4h240.5c1.8 0 3.3 1.5 3.3 3.4 0 1.8-1.5 3.3-3.3 3.3h-240.5c-35.1 0-63.6 28.6-63.6 63.7v209.2c0 1.9-1.5 3.4-3.4 3.4z"/>
				<path class="s22" d="m951.8 1358.5c-1.9 0-3.4-1.5-3.4-3.4v-137.9c0-1.8 1.5-3.3 3.4-3.3 1.9 0 3.4 1.5 3.4 3.3v137.9c0 1.9-1.5 3.4-3.4 3.4z"/>
				<g>
					<path class="s0" d="m1431.9 1471.9h-60.7q-10.2 0-16.8-5.1-6.6-5.1-9.5-12.7l-31.5-86.2h-175l-31.5 86.2q-2.3 6.7-9.2 12.3-6.9 5.5-16.8 5.5h-61l165.9-422.3h80.3zm-273.4-159.4h134.7l-51.4-140.5q-3.6-9.3-7.8-22.1-4.2-12.7-8.3-27.5-4.1 14.8-8 27.7-4 12.8-7.8 22.5z"/>
					<path class="s0" d="m1563.9 1471.9h-78.8v-422.3h78.8z"/>
				</g>
			</g>
			<g>
				<path class="s23" d="m3244.9 3212h-1209.9c-4.6 0-8.4-3.8-8.4-8.4v-231.8c0-4.7 3.8-8.4 8.4-8.4h1209.9c4.6 0 8.4 3.7 8.4 8.4v231.8c0 4.6-3.8 8.4-8.4 8.4z"/>
				<path class="s24" d="m3218.6 3191.5h-1160.9c-4.6 0-8.4-3.7-8.4-8.4v-195.9c0-4.6 3.8-8.4 8.4-8.4h1160.9c4.6 0 8.3 3.8 8.3 8.4v195.9c0 4.7-3.7 8.4-8.3 8.4z"/>
				<g>
					<path class="s0" d="m2148.3 3086.2q0 13-2.8 22.6-2.8 9.7-7.7 15.9-5 6.3-11.7 9.4-6.7 3-14.5 3-7.8 0-14.5-3-6.6-3.1-11.5-9.4-4.9-6.2-7.7-15.9-2.7-9.6-2.7-22.6 0-13.1 2.7-22.7 2.8-9.6 7.7-15.9 4.9-6.3 11.5-9.3 6.7-3.1 14.5-3.1 7.8 0 14.5 3.1 6.7 3 11.7 9.3 4.9 6.3 7.7 15.9 2.8 9.6 2.8 22.7zm-17.6 0q0-10.9-1.6-18-1.6-7.1-4.2-11.3-2.7-4.2-6.1-5.9-3.5-1.7-7.2-1.7-3.7 0-7.1 1.7-3.4 1.7-6 5.9-2.6 4.2-4.2 11.3-1.5 7.1-1.5 18 0 10.8 1.5 17.9 1.6 7.1 4.2 11.3 2.6 4.2 6 5.9 3.4 1.7 7.1 1.7 3.7 0 7.2-1.7 3.4-1.7 6.1-5.9 2.6-4.2 4.2-11.3 1.6-7.1 1.6-17.9z"/>
					<path class="s0" d="m2228.3 3086.2q0 13-2.8 22.6-2.8 9.7-7.7 15.9-5 6.3-11.7 9.4-6.7 3-14.5 3-7.8 0-14.5-3-6.6-3.1-11.5-9.4-4.9-6.2-7.7-15.9-2.7-9.6-2.7-22.6 0-13.1 2.7-22.7 2.8-9.6 7.7-15.9 4.9-6.3 11.5-9.3 6.7-3.1 14.5-3.1 7.8 0 14.5 3.1 6.7 3 11.7 9.3 4.9 6.3 7.7 15.9 2.8 9.6 2.8 22.7zm-17.6 0q0-10.9-1.6-18-1.6-7.1-4.2-11.3-2.7-4.2-6.1-5.9-3.5-1.7-7.2-1.7-3.7 0-7.1 1.7-3.4 1.7-6 5.9-2.6 4.2-4.2 11.3-1.5 7.1-1.5 18 0 10.8 1.5 17.9 1.6 7.1 4.2 11.3 2.6 4.2 6 5.9 3.4 1.7 7.1 1.7 3.7 0 7.2-1.7 3.4-1.7 6.1-5.9 2.6-4.2 4.2-11.3 1.6-7.1 1.6-17.9z"/>
					<path class="s0" d="m2250.3 3123.3h20.2v-58.2q0-3.4 0.2-7.1l-14.3 12q-0.9 0.8-1.9 1.1-0.9 0.2-1.8 0.2-1.4 0-2.5-0.6-1.1-0.5-1.7-1.3l-5.4-7.4 30.5-25.8h14v87.1h17.9v12.7h-55.2z"/>
					<path class="s0" d="m2330.3 3123.3h20.2v-58.2q0-3.4 0.2-7.1l-14.3 12q-0.9 0.8-1.8 1.1-1 0.2-1.9 0.2-1.3 0-2.5-0.6-1.1-0.5-1.7-1.3l-5.4-7.4 30.5-25.8h14v87.1h17.9v12.7h-55.2c0 0 0-12.7 0-12.7z"/>
					<path class="s0" d="m2468.4 3086.2q0 13-2.8 22.6-2.8 9.7-7.8 15.9-4.9 6.3-11.6 9.4-6.8 3-14.5 3-7.8 0-14.5-3-6.7-3.1-11.6-9.4-4.8-6.2-7.6-15.9-2.8-9.6-2.8-22.6 0-13.1 2.8-22.7 2.8-9.6 7.6-15.9 4.9-6.3 11.6-9.3 6.7-3.1 14.5-3.1 7.7 0 14.5 3.1 6.7 3 11.6 9.3 5 6.3 7.8 15.9 2.8 9.6 2.8 22.7zm-17.6 0q0-10.9-1.6-18-1.6-7.1-4.3-11.3-2.6-4.2-6.1-5.9-3.4-1.7-7.1-1.7-3.7 0-7.1 1.7-3.4 1.7-6.1 5.9-2.6 4.2-4.1 11.3-1.6 7.1-1.6 18 0 10.8 1.6 17.9 1.5 7.1 4.1 11.3 2.7 4.2 6.1 5.9 3.4 1.7 7.1 1.7 3.7 0 7.1-1.7 3.5-1.7 6.1-5.9 2.7-4.2 4.3-11.3 1.6-7.1 1.6-17.9z"/>
					<path class="s0" d="m2490.4 3123.3h20.2v-58.2q0-3.4 0.2-7.1l-14.4 12q-0.9 0.8-1.8 1.1-0.9 0.2-1.8 0.2-1.4 0-2.5-0.6-1.2-0.5-1.7-1.3l-5.4-7.4 30.4-25.8h14v87.1h17.9v12.7h-55.1z"/>
					<path class="s0" d="m2570.4 3123.3h20.2v-58.2q0-3.4 0.2-7.1l-14.4 12q-0.9 0.8-1.8 1.1-0.9 0.2-1.8 0.2-1.4 0-2.5-0.6-1.2-0.5-1.7-1.3l-5.4-7.4 30.4-25.8h14v87.1h18v12.7h-55.2c0 0 0-12.7 0-12.7z"/>
					<path class="s0" d="m2708.4 3086.2q0 13-2.8 22.6-2.8 9.7-7.7 15.9-5 6.3-11.7 9.4-6.7 3-14.5 3-7.8 0-14.4-3-6.7-3.1-11.6-9.4-4.9-6.2-7.7-15.9-2.7-9.6-2.7-22.6 0-13.1 2.7-22.7 2.8-9.6 7.7-15.9 4.9-6.3 11.6-9.3 6.6-3.1 14.4-3.1 7.8 0 14.5 3.1 6.7 3 11.7 9.3 4.9 6.3 7.7 15.9 2.8 9.6 2.8 22.7zm-17.6 0q0-10.9-1.6-18-1.6-7.1-4.2-11.3-2.7-4.2-6.1-5.9-3.5-1.7-7.2-1.7-3.7 0-7.1 1.7-3.4 1.7-6 5.9-2.6 4.2-4.2 11.3-1.5 7.1-1.5 18 0 10.8 1.5 17.9 1.6 7.1 4.2 11.3 2.6 4.2 6 5.9 3.4 1.7 7.1 1.7 3.7 0 7.2-1.7 3.4-1.7 6.1-5.9 2.6-4.2 4.2-11.3 1.6-7.1 1.6-17.9z"/>
					<path class="s0" d="m2730.4 3123.3h20.2v-58.2q0-3.4 0.2-7.1l-14.3 12q-0.9 0.8-1.9 1.1-0.9 0.2-1.8 0.2-1.4 0-2.5-0.6-1.1-0.5-1.7-1.3l-5.4-7.4 30.5-25.8h14v87.1h17.9v12.7h-55.2z"/>
					<path class="s0" d="m2868.4 3086.2q0 13-2.8 22.6-2.8 9.7-7.7 15.9-4.9 6.3-11.6 9.4-6.8 3-14.6 3-7.8 0-14.4-3-6.7-3.1-11.6-9.4-4.9-6.2-7.6-15.9-2.8-9.6-2.8-22.6 0-13.1 2.8-22.7 2.7-9.6 7.6-15.9 4.9-6.3 11.6-9.3 6.6-3.1 14.4-3.1 7.8 0 14.6 3.1 6.7 3 11.6 9.3 4.9 6.3 7.7 15.9 2.8 9.6 2.8 22.7zm-17.6 0q0-10.9-1.5-18-1.6-7.1-4.3-11.3-2.6-4.2-6.1-5.9-3.4-1.7-7.2-1.7-3.6 0-7 1.7-3.4 1.7-6.1 5.9-2.6 4.2-4.1 11.3-1.6 7.1-1.6 18 0 10.8 1.6 17.9 1.5 7.1 4.1 11.3 2.7 4.2 6.1 5.9 3.4 1.7 7 1.7 3.8 0 7.2-1.7 3.5-1.7 6.1-5.9 2.7-4.2 4.3-11.3 1.5-7.1 1.5-17.9z"/>
					<path class="s0" d="m2890.4 3123.3h20.3v-58.2q0-3.4 0.2-7.1l-14.4 12q-0.9 0.8-1.8 1.1-0.9 0.2-1.8 0.2-1.4 0-2.6-0.6-1.1-0.5-1.7-1.3l-5.3-7.4 30.4-25.8h14v87.1h17.9v12.7h-55.2z"/>
					<path class="s0" d="m2970.5 3123.3h20.2v-58.2q0-3.4 0.2-7.1l-14.4 12q-0.9 0.8-1.8 1.1-0.9 0.2-1.8 0.2-1.4 0-2.5-0.6-1.2-0.5-1.7-1.3l-5.4-7.4 30.4-25.8h14v87.1h17.9v12.7h-55.1c0 0 0-12.7 0-12.7z"/>
					<path class="s0" d="m3050.5 3123.3h20.2v-58.2q0-3.4 0.2-7.1l-14.4 12q-0.9 0.8-1.8 1.1-0.9 0.2-1.8 0.2-1.4 0-2.5-0.6-1.2-0.5-1.7-1.3l-5.4-7.4 30.4-25.8h14v87.1h18v12.7h-55.2c0 0 0-12.7 0-12.7z"/>
					<path class="s0" d="m3130.5 3123.3h20.2v-58.2q0-3.4 0.2-7.1l-14.3 12q-0.9 0.8-1.9 1.1-0.9 0.2-1.8 0.2-1.4 0-2.5-0.6-1.2-0.5-1.7-1.3l-5.4-7.4 30.4-25.8h14v87.1h18v12.7h-55.2z"/>
				</g>
			</g>
			<g>
				<g>
					<g style="opacity: .3">
						<path class="s5" d="m2686.6 667.8c-2.3-3.6-1.6-8.5 1.8-11.2 7.5-6.1 15.3-11.9 23.3-17.4 3.9-2.6 9.2-1.6 11.9 2.3q0 0.1 0 0.1c2.6 3.9 1.5 9.1-2.3 11.7-7.6 5.2-15.1 10.7-22.2 16.5-3.6 2.9-9 2.4-11.9-1.3q-0.3-0.3-0.6-0.7zm62.5-40q-0.3-0.5-0.5-0.9c-2.1-4.2-0.4-9.4 3.9-11.4 8.6-4.3 17.6-8.3 26.5-11.8 4.4-1.7 9.3 0.4 11.1 4.8 1.7 4.4-0.5 9.3-4.9 11-8.5 3.4-16.9 7.2-25.2 11.2-3.9 2-8.6 0.6-10.9-2.9zm69.8-25.4q-0.8-1.1-1.2-2.6c-1.1-4.6 1.7-9.2 6.3-10.3 9.4-2.2 19-4.1 28.5-5.5 4.7-0.7 9 2.5 9.7 7.1 0.7 4.7-2.5 9-7.1 9.7-9.1 1.4-18.2 3.1-27.1 5.3-3.6 0.8-7.2-0.7-9.1-3.7zm73.6-9c-0.8-1.3-1.3-2.9-1.4-4.6 0-4.7 3.8-8.5 8.5-8.6 9.6-0.1 19.4 0.2 29 1 4.7 0.3 8.2 4.4 7.9 9.1-0.4 4.7-4.5 8.2-9.2 7.9-9.1-0.7-18.4-1-27.6-0.9-3 0-5.6-1.6-7.2-3.9zm73.9 7.6c-1.2-1.9-1.7-4.2-1.2-6.5 1-4.6 5.5-7.5 10.1-6.5 9.4 2 18.9 4.5 28.1 7.3 4.5 1.4 7 6.2 5.6 10.7-1.3 4.5-6.1 7-10.6 5.6-8.8-2.7-17.8-5-26.7-7-2.3-0.5-4.2-1.8-5.3-3.6zm70.3 23.7c-1.6-2.4-1.9-5.5-0.6-8.3 2-4.2 7.1-6.1 11.3-4.1 8.8 4.1 17.4 8.6 25.8 13.4 4.1 2.4 5.5 7.6 3.1 11.6-2.3 4.1-7.5 5.5-11.6 3.2-8-4.6-16.2-8.9-24.5-12.8-1.5-0.7-2.7-1.7-3.5-3zm187.4 250.5c-0.6-1-1.1-2.2-1.3-3.4-1.4-9.1-3.2-18.2-5.3-27.1-1.1-4.6 1.7-9.2 6.3-10.3 4.5-1.1 9.1 1.7 10.3 6.3 2.2 9.4 4.1 19 5.6 28.5 0.7 4.7-2.5 9-7.2 9.7-3.4 0.5-6.6-1-8.4-3.7zm-124.2-211.8c-1.9-3-1.8-7 0.5-9.9 2.9-3.7 8.2-4.4 11.9-1.5 7.6 5.9 15.1 12.2 22.2 18.8 3.4 3.2 3.6 8.6 0.4 12-3.2 3.5-8.6 3.7-12 0.5-6.7-6.2-13.8-12.2-21-17.9q-1.2-0.9-2-2zm104.8 140.1q-0.4-0.7-0.8-1.5c-3.3-8.5-7.1-17-11.2-25.2-2.1-4.2-0.4-9.4 3.8-11.4 4.2-2.1 9.4-0.4 11.5 3.8 4.3 8.6 8.2 17.6 11.8 26.5 1.7 4.4-0.4 9.3-4.8 11.1-3.8 1.5-8.1 0-10.3-3.3zm-51.7-88.3c-2.4-3.6-1.7-8.4 1.8-11.2 3.6-3 9-2.4 11.9 1.2 6.1 7.5 12 15.3 17.4 23.3q0.1 0.1 0.1 0.1c2.5 3.9 1.5 9.1-2.3 11.7-3.9 2.7-9.2 1.7-11.9-2.2-5.1-7.6-10.7-15-16.5-22.1q-0.3-0.4-0.5-0.8z"/>
						<path class="s5" d="m3227.7 934.9c-0.9-1.4-1.4-3.1-1.4-4.9 0.2-4.4 0.2-8.9 0.2-13.3-0.1-4.7 3.7-8.6 8.4-8.6 4.7-0.1 8.6 3.7 8.6 8.4 0 4.7 0 9.4-0.1 14-0.2 4.7-4.1 8.4-8.8 8.2-2.9 0-5.4-1.6-6.9-3.8z"/>
					</g>
					<g style="opacity: .3">
						<path class="s5" d="m3119.1 1170.8c-2.2-3.4-1.7-8.1 1.4-11 3.3-2.9 6.5-6 9.7-9.1 3.3-3.3 8.7-3.2 12 0.1 3.4 3.4 3.3 8.8-0.1 12.1-3.3 3.2-6.7 6.5-10.1 9.6-3.5 3.1-8.9 2.9-12-0.6q-0.5-0.5-0.9-1.1z"/>
						<path class="s5" d="m2618.3 1106.6q-3.2-5-6.3-10c-2.4-4.1-1.1-9.3 2.9-11.7 4-2.5 9.3-1.2 11.7 2.8 4.7 7.8 9.7 15.4 15 22.7 2.8 3.8 1.9 9.1-1.9 11.9-3.8 2.8-9.1 1.9-11.9-1.9-3.3-4.5-6.5-9.2-9.5-13.8zm-26.9-50q-0.4-0.6-0.7-1.3c-3.7-8.7-7.2-17.7-10.2-26.7-1.5-4.5 0.9-9.3 5.4-10.8 4.4-1.5 9.3 0.9 10.8 5.4 2.8 8.5 6.1 17 9.7 25.3 1.8 4.4-0.1 9.4-4.5 11.2-3.8 1.7-8.2 0.3-10.5-3.1zm65.1 98.2c-2.2-3.4-1.7-7.9 1.3-10.8 3.4-3.3 8.8-3.1 12 0.3 6.3 6.5 12.8 12.8 19.6 18.8 3.5 3.1 3.9 8.4 0.8 12-3.1 3.5-8.5 3.8-12.1 0.7-7.1-6.3-14-12.9-20.6-19.8q-0.5-0.5-1-1.2zm-86.5-168.1q-0.9-1.3-1.2-3c-1.8-9.4-3.2-18.9-4.2-28.3-0.4-4.7 3-8.9 7.7-9.4 4.6-0.4 8.8 3 9.3 7.6 0.9 9 2.2 18 3.9 26.9 0.9 4.6-2.2 9.1-6.8 10-3.5 0.6-6.9-1-8.7-3.8zm142.5 214.9c-1.8-2.8-1.9-6.4 0.1-9.4 2.6-3.9 7.9-5 11.8-2.4 7.5 5 15.3 9.7 23.2 14.1 4.1 2.2 5.7 7.4 3.4 11.5-2.3 4.2-7.4 5.7-11.6 3.4-8.3-4.5-16.5-9.5-24.4-14.8-1-0.6-1.8-1.5-2.5-2.4zm65 33.4c-1.5-2.2-1.9-5.1-0.9-7.7 1.7-4.4 6.6-6.6 11-4.9 8.5 3.2 17.1 6.1 25.8 8.6 4.5 1.3 7.1 6 5.8 10.6-1.3 4.5-6 7.1-10.6 5.8-9.1-2.7-18.2-5.7-27.1-9.1-1.7-0.7-3.1-1.9-4-3.3zm70.6 18.4c-1.1-1.6-1.6-3.7-1.3-5.8 0.7-4.7 5-7.9 9.7-7.2 8.9 1.3 18 2.2 27 2.8 4.7 0.3 8.3 4.3 8 9-0.3 4.7-4.4 8.3-9.1 8-9.4-0.6-19-1.6-28.4-3-2.5-0.4-4.6-1.8-5.9-3.8zm73 2.6c-0.8-1.1-1.2-2.5-1.4-4-0.3-4.7 3.2-8.8 7.9-9.1 9-0.7 18.1-1.8 27-3.2 4.6-0.7 9 2.4 9.7 7.1 0.8 4.6-2.4 9-7 9.7-9.4 1.5-18.9 2.7-28.4 3.4-3.2 0.2-6.2-1.4-7.8-3.9zm71.8-13.5q-0.6-1-1-2.1c-1.4-4.5 1.1-9.3 5.6-10.7 8.7-2.6 17.3-5.6 25.6-9 4.4-1.8 9.4 0.4 11.1 4.7 1.8 4.4-0.4 9.4-4.7 11.1-8.8 3.5-17.9 6.7-27 9.5-3.7 1.2-7.6-0.4-9.6-3.5zm67-28.9q-0.1-0.2-0.2-0.4c-2.4-4.1-0.9-9.3 3.2-11.7 5.7-3.2 11.5-6.7 17-10.4q3.1-1.9 6-3.9c3.9-2.7 9.2-1.7 11.8 2.2 2.8 3.9 1.7 9.2-2.2 11.8q-3.1 2.2-6.3 4.2c-5.8 3.8-11.8 7.5-17.9 11-4 2.2-8.9 1-11.4-2.8z"/>
						<path class="s5" d="m2564.5 913.7c-1-1.4-1.5-3.1-1.4-4.9 0.2-4.7 0.4-9.3 0.8-14 0.3-4.7 4.4-8.2 9.1-7.8 4.7 0.3 8.2 4.4 7.9 9.1-0.4 4.4-0.6 8.9-0.8 13.2-0.1 4.7-4.1 8.4-8.8 8.3-2.9-0.1-5.4-1.7-6.8-3.9z"/>
					</g>
					<g>
						<g>
							<path class="s25" d="m2653.5 869.4c-0.5 1.6 0.1 3.4 1.4 4.4l38.9 29c-1.8 22.5 0 45.5 5.7 68.1l-33.4 35c-1.2 1.3-1.5 3.1-0.7 4.6l26.7 51.7c0.7 1.5 2.4 2.3 4.1 2.1l47.9-7c15.1 17.7 32.8 32.5 52.3 44.1l1.1 48.5c0 1.7 1.1 3.2 2.7 3.7l55.4 17.7c1.6 0.5 3.4-0.1 4.4-1.5l29-38.8c22.6 1.8 45.6 0 68.2-5.7l35 33.4c1.2 1.2 3.1 1.5 4.6 0.7l51.6-26.7c1.5-0.8 2.4-2.4 2.1-4.1l-6.9-47.9c17.7-15.1 32.5-32.8 44.1-52.3l48.4-1.1c1.7 0 3.2-1.1 3.7-2.8l17.7-55.3c0.5-1.7-0.1-3.4-1.4-4.4l-38.9-29c1.8-22.6 0-45.6-5.7-68.2l33.5-35c1.1-1.2 1.4-3.1 0.6-4.6l-26.6-51.6c-0.8-1.5-2.5-2.4-4.1-2.1l-48 6.9c-15.1-17.7-32.8-32.5-52.2-44.1l-1.2-48.4c0-1.7-1.1-3.2-2.7-3.7l-55.4-17.7c-1.6-0.5-3.4 0-4.4 1.4l-29 38.8c-22.5-1.7-45.5 0.1-68.1 5.8l-35.1-33.5c-1.2-1.2-3-1.4-4.5-0.6l-51.7 26.6c-1.5 0.8-2.3 2.4-2.1 4.1l7 48c-17.7 15.1-32.5 32.8-44.2 52.2l-48.4 1.1c-1.7 0.1-3.2 1.2-3.7 2.8z"/>
						</g>
						<g>
							<path class="s4" d="m2856.5 951.1c-15.5-23.8-11.6-56.2 10.3-75.6 24.2-21.3 61.2-19.1 82.5 5.1 10.3 11.7 15.5 26.7 14.5 42.3-0.9 15.5-7.9 29.8-19.6 40.2-24.1 21.3-61.1 19-82.5-5.1q-2.9-3.3-5.2-6.9zm86.6-56.2q-1.8-2.8-4-5.3c-16.4-18.5-44.7-20.3-63.3-3.9-18.5 16.4-20.2 44.7-3.9 63.2 16.4 18.5 44.8 20.3 63.3 3.9 8.9-7.9 14.3-18.8 15-30.8 0.6-9.7-1.9-19.1-7.1-27.1z"/>
						</g>
						<g>
							<path class="s4" d="m2786.5 998.2q-4-6.1-7.4-12.7-1.1-2.1-2.1-4.2c-3.3-7-6.1-14.2-8.2-21.5q-0.1-0.2-0.1-0.3-0.1-0.5-0.3-0.9-0.2-0.8-0.4-1.7c-0.4-1.4 0.2-2.9 1.4-3.7q0.4-0.3 1-0.4c1.8-0.5 3.7 0.6 4.2 2.4 2.5 9.3 6 18.5 10.5 27.1 22.3 43.1 64.4 69.4 109.4 73.5 25.1 2.3 51-2.3 75-14.6q6.3-3.3 12.2-7.1c26.3-17.2 45.7-42.6 55.4-73 11.1-34.8 8-71.8-8.8-104.3-34.6-67.1-117.3-93.5-184.4-58.9q-6.2 3.2-12 7c-16.8 11-31 25.5-41.5 42.5q-0.4 0.7-1 1.1c-1.1 0.7-2.5 0.7-3.7 0-1.6-1-2.1-3.1-1.1-4.7 11.1-17.9 26-33.1 43.6-44.6q6.1-3.9 12.6-7.3c70.4-36.4 157.3-8.6 193.6 61.7 17.6 34.1 20.9 73.1 9.2 109.6-10.2 31.8-30.6 58.6-58.2 76.6q-6.2 4-12.8 7.4c-34.1 17.6-73 20.9-109.6 9.2-31.8-10.1-58.5-30.6-76.5-58.2z"/>
						</g>
					</g>
				</g>
				<g>
					<g style="opacity: .3">
						<path class="s5" d="m2339.8 546.8c-1.2-1.9-1.1-4.5 0.4-6.3 2.9-3.4 6-6.7 9.1-10 2-2 5.3-2.1 7.4-0.1 2.1 2 2.2 5.4 0.2 7.5-3 3-5.9 6.2-8.7 9.5-1.9 2.2-5.2 2.4-7.4 0.5q-0.6-0.5-1-1.1z"/>
						<path class="s5" d="m2368.9 518.6c-1.5-2.2-1.1-5.3 1.1-7 5.9-4.8 12.2-9.4 18.7-13.6q2-1.3 4.1-2.6c2.5-1.5 5.7-0.6 7.2 1.7 1.6 2.5 0.8 5.7-1.6 7.2q-2 1.3-4 2.5c-6.1 4-12.1 8.4-17.8 13-2.3 1.8-5.6 1.5-7.4-0.8q-0.2-0.2-0.3-0.4zm46.3-28.9q-0.2-0.3-0.3-0.6c-1.2-2.7-0.1-5.8 2.5-7 8.5-3.9 17.3-7.4 26.1-10.2 2.8-0.9 5.7 0.6 6.6 3.4 0.9 2.7-0.6 5.7-3.4 6.6-8.4 2.7-16.8 6-24.8 9.7-2.4 1.1-5.2 0.3-6.7-1.9zm52.1-16.7q-0.6-0.8-0.8-1.9c-0.6-2.8 1.3-5.6 4.2-6.1 9.1-1.8 18.5-2.9 27.8-3.5 2.9-0.2 5.4 2 5.6 4.9 0.2 2.9-2 5.4-4.9 5.6-8.9 0.5-17.8 1.7-26.6 3.3-2.1 0.4-4.2-0.6-5.3-2.3zm54.5-3.4c-0.6-1-0.9-2.1-0.9-3.2 0.2-2.9 2.7-5.1 5.6-5 9.3 0.6 18.7 1.8 27.8 3.5 2.9 0.5 4.8 3.2 4.2 6.1-0.5 2.9-3.3 4.7-6.1 4.2-8.7-1.6-17.6-2.7-26.5-3.3-1.8-0.1-3.2-1-4.1-2.3zm53.7 9.9c-0.8-1.2-1.1-2.9-0.6-4.4 0.9-2.8 3.8-4.3 6.6-3.4 8.9 2.8 17.7 6.1 26.1 10 2.7 1.2 3.8 4.3 2.6 7-1.2 2.6-4.3 3.8-7 2.6-8-3.7-16.4-6.9-24.9-9.6-1.2-0.4-2.2-1.2-2.8-2.2zm49.7 22.8c-1.1-1.7-1.2-3.9-0.1-5.7 1.5-2.5 4.7-3.2 7.2-1.7 8 4.9 15.7 10.3 22.9 16.1 2.3 1.9 2.6 5.2 0.8 7.4-1.8 2.3-5.1 2.7-7.4 0.8-6.9-5.5-14.2-10.7-21.8-15.3q-1-0.7-1.6-1.6zm42.5 34.1c-1.3-2.1-1-4.9 0.8-6.6 2.1-2.1 5.4-2 7.4 0.1 6.5 6.6 12.6 13.8 18.3 21.2 1.7 2.4 1.3 5.7-1.1 7.4-2.3 1.8-5.6 1.3-7.3-1-5.4-7.1-11.3-13.9-17.4-20.3q-0.4-0.4-0.7-0.8zm45.2 68.1q-0.3-0.4-0.4-0.8c-3-7.1-6.5-14.1-10.3-20.9q-0.8-1.5-1.7-3c-1.4-2.5-0.6-5.8 1.9-7.2 2.6-1.5 5.9-0.7 7.2 1.9q1 1.6 1.8 3.2c4 7.1 7.6 14.5 10.7 21.9 1.2 2.6-0.1 5.7-2.7 6.9-2.4 1-5.1 0.1-6.5-2z"/>
					</g>
					<g style="opacity: .3">
						<path class="s5" d="m2324.2 815c-1.5-2.4-0.9-5.7 1.5-7.3 2.4-1.6 5.7-1 7.3 1.5 4.9 7.2 10.2 14.3 15.9 20.9 1.9 2.2 1.7 5.5-0.5 7.4-2.2 1.9-5.5 1.6-7.4-0.6-6-6.9-11.6-14.3-16.7-21.9q0 0-0.1 0zm-13.6-23.3q-0.1-0.2-0.3-0.5c-4.1-8.1-7.8-16.6-11-25.2-1-2.8 0.4-5.8 3.2-6.8 2.7-1 5.7 0.5 6.7 3.2 3 8.2 6.6 16.3 10.5 24.1 1.3 2.6 0.3 5.7-2.3 7-2.4 1.3-5.3 0.5-6.8-1.8zm48.7 63.9c-1.2-1.9-1.1-4.6 0.5-6.4 2-2.1 5.3-2.3 7.5-0.3 6.5 5.8 13.4 11.4 20.5 16.4 2.4 1.7 2.9 5 1.2 7.3-1.6 2.4-4.9 3-7.3 1.3-7.5-5.3-14.7-11.1-21.5-17.2q-0.5-0.5-0.9-1.1zm-67.1-114.4q-0.5-0.7-0.7-1.6c-2.1-9-3.6-18.1-4.6-27.2-0.3-2.9 1.8-5.5 4.7-5.8 2.9-0.3 5.5 1.8 5.8 4.7 0.9 8.6 2.4 17.4 4.3 25.9 0.7 2.8-1.1 5.6-3.9 6.3-2.2 0.5-4.4-0.5-5.6-2.3zm111 145.4c-1-1.5-1.2-3.6-0.2-5.3 1.4-2.6 4.6-3.6 7.1-2.2 7.7 4.2 15.7 7.9 23.9 11 2.7 1.1 4 4.1 2.9 6.9-1 2.7-4.1 4-6.8 2.9-8.5-3.3-16.9-7.2-25-11.5-0.8-0.4-1.4-1.1-1.9-1.8zm50 19.6c-0.7-1.2-1-2.7-0.6-4.2 0.7-2.8 3.6-4.5 6.4-3.8 8.4 2.2 17.1 3.9 25.8 5 2.9 0.4 4.9 3 4.5 5.9-0.4 2.9-3 4.9-5.9 4.5-9.1-1.2-18.2-2.9-27.1-5.2-1.3-0.3-2.4-1.2-3.1-2.2zm53.3 7c-0.5-0.9-0.8-1.9-0.8-2.9 0-2.9 2.4-5.3 5.3-5.2 8.7 0 17.6-0.4 26.2-1.4 2.9-0.3 5.5 1.8 5.9 4.7 0.3 2.8-1.8 5.5-4.7 5.8-9.1 1-18.3 1.5-27.5 1.4-1.8 0-3.4-1-4.4-2.4z"/>
						<path class="s5" d="m2286.5 687.5c-0.5-0.8-0.8-1.8-0.8-2.9 0.1-4.5 0.3-9 0.6-13.5 0.2-2.9 2.8-5 5.7-4.8 2.8 0.2 5 2.7 4.8 5.6-0.3 4.2-0.5 8.6-0.6 12.9 0 2.9-2.4 5.2-5.4 5.1-1.8 0-3.3-0.9-4.3-2.4z"/>
					</g>
					<g>
						<g>
							<path class="s25" d="m2345.9 654.1c-0.4 1.1 0 2.3 0.9 2.9l26 19.4c-1.2 15.1 0 30.5 3.8 45.6l-22.4 23.5c-0.7 0.8-0.9 2-0.4 3l17.8 34.6c0.6 1 1.7 1.6 2.8 1.4l32.1-4.7c10.1 11.9 21.9 21.8 34.9 29.6l0.8 32.4c0 1.1 0.8 2.1 1.8 2.5l37.1 11.8c1.1 0.3 2.3 0 2.9-1l19.4-25.9c15.1 1.1 30.5-0.1 45.6-3.9l23.5 22.4c0.8 0.8 2 1 3 0.5l34.6-17.9c1-0.5 1.6-1.6 1.4-2.7l-4.6-32.1c11.8-10.1 21.7-22 29.5-35l32.4-0.7c1.1-0.1 2.1-0.8 2.5-1.9l11.8-37c0.3-1.1 0-2.3-0.9-3l-26-19.4c1.2-15.1-0.1-30.5-3.9-45.6l22.4-23.4c0.8-0.8 1-2.1 0.5-3.1l-17.9-34.5c-0.5-1.1-1.6-1.6-2.7-1.5l-32.1 4.7c-10.1-11.8-22-21.7-35-29.5l-0.7-32.4c-0.1-1.2-0.8-2.2-1.9-2.5l-37-11.8c-1.1-0.4-2.3 0-3 0.9l-19.4 26c-15.1-1.2-30.5 0-45.6 3.8l-23.4-22.4c-0.8-0.7-2.1-0.9-3.1-0.4l-34.5 17.8c-1 0.6-1.6 1.7-1.5 2.8l4.7 32.1c-11.8 10.1-21.7 21.9-29.5 34.9l-32.4 0.8c-1.2 0-2.2 0.8-2.5 1.8z"/>
						</g>
						<g>
							<path class="s4" d="m2481.1 709.1c-4.6-7.1-6.9-15.4-6.3-24.1 0.6-10.6 5.4-20.3 13.3-27.3 16.5-14.6 41.7-13 56.2 3.4 14.5 16.5 13 41.7-3.5 56.2-7.9 7-18.2 10.6-28.8 9.9-10.6-0.6-20.3-5.4-27.3-13.4q-2-2.2-3.6-4.7zm57.9-37.6q-1.1-1.8-2.6-3.4c-10.7-12.1-29.2-13.2-41.3-2.6-5.9 5.2-9.4 12.4-9.8 20.2-0.5 7.8 2.1 15.3 7.2 21.2 5.2 5.8 12.4 9.3 20.2 9.8 7.8 0.5 15.3-2.1 21.2-7.3 11-9.7 12.9-25.9 5.1-37.9z"/>
						</g>
						<g>
							<path class="s4" d="m2432.3 741.8q-2.7-4.1-5.1-8.7c-3.1-6-5.6-12.3-7.4-18.8q-0.1-0.4-0.2-0.8c-0.6-2.3 0.3-4.6 2.2-5.8q0.7-0.5 1.5-0.7c2.8-0.7 5.7 0.9 6.4 3.7 1.7 6.1 4 12 6.9 17.6q0.2 0.5 0.4 0.9c7 13.2 17 24.2 29.1 32.2 6.6 4.4 13.8 7.9 21.5 10.4q0.1 0.1 0.2 0.1 0.3 0.1 0.6 0.2c22.5 7.2 46.5 5.1 67.5-5.7q4.1-2.1 7.9-4.6c17-11.1 29.6-27.6 35.9-47.2 7.2-22.6 5.2-46.5-5.7-67.6-10.8-21-29.2-36.5-51.8-43.7-22.5-7.2-46.5-5.2-67.6 5.6q-4 2.1-7.7 4.6c-10.9 7-20.1 16.4-26.9 27.5q-0.7 1-1.6 1.6c-1.7 1.1-3.9 1.2-5.7 0.1-2.4-1.6-3.2-4.8-1.7-7.3 7.7-12.3 18-22.8 30.1-30.7q4.2-2.8 8.7-5.1c23.5-12.2 50.4-14.4 75.6-6.4 25.2 8.1 45.8 25.5 58 49 12.1 23.5 14.4 50.4 6.3 75.6-7 22-21.1 40.4-40.1 52.8q-4.3 2.8-8.8 5.1c-45.6 23.5-101.1 8.2-128.5-33.9z"/>
						</g>
					</g>
				</g>
			</g>
		</g>
	</g>
</svg>