<svg id="Layer_1" viewBox="0 0 64 64" xmlns="http://www.w3.org/2000/svg" data-name="Layer 1" width="300" height="300" version="1.1" xmlns:xlink="http://www.w3.org/1999/xlink" xmlns:svgjs="http://svgjs.dev/svgjs"><g width="100%" height="100%" transform="matrix(1,0,0,1,0,0)"><path d="m28.5 18h5v-9h3.5l-6-7-6 7h3.5z" fill="#009dc9" fill-opacity="1" data-original-color="#000000ff" stroke="none" stroke-opacity="1"/><path d="m49.5 23h5v-9h3.5l-6-7-6 7h3.5z" fill="#009dc9" fill-opacity="1" data-original-color="#000000ff" stroke="none" stroke-opacity="1"/><path d="m9.5 31h5v-9h3.5l-6-7-6 7h3.5z" fill="#009dc9" fill-opacity="1" data-original-color="#000000ff" stroke="none" stroke-opacity="1"/><path d="m34.42 29.85.59.59c.26.26.33.66.16.99-.26.5-.47 1.02-.61 1.58h2.44c.5 0 .99.06 1.47.16.67-1.28 1.99-2.16 3.53-2.16 2.21 0 4 1.79 4 4 0 1.54-.88 2.86-2.16 3.53.1.47.16.96.16 1.47v2.54c.09-.08.18-.14.3-.18.45-.14.87-.32 1.28-.53.33-.17.73-.1.99.16l.59.59 2.42-2.42-.59-.59c-.26-.26-.33-.66-.16-.99.22-.41.4-.85.54-1.3.11-.34.43-.57.79-.57h.85v-3.43h-.83c-.37 0-.7-.23-.81-.58-.14-.45-.32-.87-.53-1.28-.17-.33-.1-.73.16-.99l.59-.59-2.42-2.42-.59.59c-.26.26-.66.33-.99.16-.51-.27-1.05-.48-1.62-.63-.14-.04-.25-.16-.25-.31v-1.23h-3.43v1.25c0 .14-.09.25-.23.29-.57.15-1.12.36-1.64.63-.33.17-.73.1-.99-.16l-.59-.59z" fill="#009dc9" fill-opacity="1" data-original-color="#000000ff" stroke="none" stroke-opacity="1"/><path d="m25 55h12c2.76 0 5-2.24 5-5v-10c0-2.76-2.24-5-5-5h-12c-2.76 0-5 2.24-5 5v10c0 2.76 2.24 5 5 5zm8.3-7.5h1.5v-5h-1.5v-2h5v2h-1.5v5h1.5v2h-5zm-7.78-6.22c.1-.46.51-.78.98-.78h2c.47 0 .87.33.98.78l1.83 8.22h-2.05l-.44-2h-2.62l-.44 2h-2.05l1.83-8.22z" fill="#009dc9" fill-opacity="1" data-original-color="#000000ff" stroke="none" stroke-opacity="1"/><path d="m27.7 42.5h-.4l-.66 3h1.72z" fill="#009dc9" fill-opacity="1" data-original-color="#000000ff" stroke="none" stroke-opacity="1"/><path d="m18.64 52.91c-.41-.89-.64-1.87-.64-2.91v-.65c-.27.1-.53.2-.78.33s-.56.08-.77-.12l-.46-.46-1.89 1.89.46.46c.2.2.26.51.12.77-.21.4-.37.82-.49 1.26-.03.11-.13.19-.24.19h-.96v2.67h.65c.29 0 .54.18.63.45.11.35.25.68.41 1 .13.25.08.56-.12.77l-.46.46 1.89 1.89.46-.46c.2-.2.51-.26.77-.12.32.17.65.31 1 .41.27.09.45.34.45.63v.65h2.67v-.65c0-.29.18-.54.45-.63.35-.11.68-.25 1-.41.25-.13.56-.08.77.12l.46.46 1.89-1.89-.46-.46c-.2-.2-.26-.51-.12-.77.13-.25.23-.51.32-.78h-.63c-1.04 0-2.02-.23-2.91-.64-.45.68-1.22 1.14-2.09 1.14-1.38 0-2.5-1.12-2.5-2.5 0-.88.45-1.65 1.14-2.09z" fill="#009dc9" fill-opacity="1" data-original-color="#000000ff" stroke="none" stroke-opacity="1"/></g></svg>