<svg version="1.2" xmlns="http://www.w3.org/2000/svg" viewBox="0 0 3415 2500" width="3415" height="2500">
	<title>214451012_bbd5a15e-40ec-433c-88e8-2f74a25fbe38</title>
	<style>
		.s0 { fill: #5479f7 } 
		.s1 { fill: #ffffff } 
		.s2 { fill: #000000 } 
		.s3 { fill: #e2eaff } 
	</style>
	<g id="Background">
	</g>
	<g id="Illustration">
		<g id="AI-Supported_Crisis_Management_1_">
			<g>
				<path class="s0" d="m2463.9 643.5c-1.2 0-2.2-1-2.2-2.2v-199.9h-511.8c-1.2 0-2.2-0.9-2.2-2.2 0-1.2 1-2.2 2.2-2.2h514c1.2 0 2.2 1 2.2 2.2v202.1c0 1.2-1 2.2-2.2 2.2z"/>
				<g>
					<path fill-rule="evenodd" class="s1" d="m1611.7 337.2h511.9v376.8h-511.9z"/>
					<path class="s0" d="m2123.6 716.2h-511.9c-1.2 0-2.2-0.9-2.2-2.2v-376.8c0-1.2 1-2.2 2.2-2.2h511.9c1.2 0 2.2 1 2.2 2.2v376.8c0 1.3-1 2.2-2.2 2.2zm-509.7-4.4h507.5v-372.4h-507.5z"/>
				</g>
				<g>
					<g>
						<path class="s1" d="m1916.8 681.1c12.5 1.3 23.7-7.9 25-20.4q0.1-1.4 0.1-2.8c9.3-1.3 18.3-4.1 26.6-8q0.7 1.2 1.6 2.3c8 9.7 22.3 11.2 32.1 3.2 9.8-7.9 11.2-22.3 3.3-32.1q-0.9-1.1-1.9-2c5.5-7.4 9.9-15.6 13.1-24.5q1.4 0.3 2.8 0.5c12.5 1.2 23.7-7.9 25-20.4 1.2-12.6-7.9-23.8-20.4-25q-1.4-0.2-2.8-0.1c-1.3-9.4-4.1-18.3-8-26.7q1.2-0.7 2.3-1.6c9.7-7.9 11.2-22.3 3.2-32.1-8-9.7-22.3-11.2-32.1-3.2q-1.1 0.9-2 1.9c-7.4-5.6-15.6-10-24.5-13.2q0.3-1.3 0.5-2.7c1.2-12.6-7.9-23.8-20.5-25-12.5-1.3-23.7 7.8-25 20.4q-0.1 1.4-0.1 2.7c-9.3 1.4-18.3 4.1-26.6 8q-0.7-1.1-1.6-2.2c-7.9-9.8-22.3-11.3-32.1-3.3-9.8 8-11.2 22.4-3.2 32.1q0.9 1.1 1.9 2.1c-5.6 7.3-10 15.5-13.2 24.4q-1.3-0.3-2.7-0.4c-12.6-1.3-23.8 7.8-25.1 20.4-1.2 12.5 7.9 23.7 20.5 25q1.4 0.1 2.7 0.1c1.4 9.3 4.1 18.3 8 26.6q-1.1 0.7-2.2 1.6c-9.8 8-11.3 22.4-3.3 32.1 8 9.8 22.4 11.2 32.1 3.3q1.1-0.9 2.1-1.9c7.3 5.5 15.5 10 24.4 13.1q-0.3 1.4-0.4 2.8c-1.3 12.5 7.8 23.7 20.4 25zm7.4-73.8c-23.2-2.4-40.2-23.2-37.9-46.4 2.4-23.3 23.2-40.3 46.5-38 23.3 2.4 40.2 23.2 37.9 46.5-2.4 23.3-23.2 40.3-46.5 37.9z"/>
						<path class="s2" d="m1919.1 683.4q-1.3 0-2.5-0.1c-6.7-0.7-12.7-3.9-16.9-9.1-4.2-5.2-6.2-11.7-5.5-18.3q0-0.6 0.1-1.1c-7.7-3-15-6.9-21.7-11.7q-0.5 0.3-0.9 0.7c-10.7 8.7-26.5 7.1-35.2-3.6-4.2-5.2-6.2-11.7-5.5-18.3 0.7-6.7 3.9-12.7 9.1-16.9q0.4-0.3 0.8-0.7c-3.3-7.5-5.7-15.5-7.1-23.6q-0.5-0.1-1.1-0.1c-6.6-0.7-12.6-3.9-16.8-9.1-4.3-5.2-6.2-11.7-5.5-18.3 0.6-6.7 3.9-12.7 9-16.9 5.2-4.2 11.7-6.2 18.4-5.5q0.5 0 1.1 0.1c2.9-7.7 6.8-15 11.7-21.7q-0.4-0.5-0.7-0.9c-4.3-5.2-6.2-11.7-5.6-18.3 0.7-6.7 3.9-12.7 9.1-16.9 10.7-8.7 26.5-7.1 35.2 3.6q0.4 0.4 0.7 0.9c7.6-3.4 15.5-5.8 23.7-7.2q0-0.5 0.1-1.1c0.6-6.6 3.8-12.6 9-16.8 5.2-4.3 11.7-6.2 18.4-5.5 6.6 0.6 12.6 3.9 16.8 9 4.3 5.2 6.2 11.7 5.5 18.4q0 0.5-0.1 1.1c7.7 2.9 15.1 6.9 21.8 11.7q0.4-0.4 0.8-0.7c5.2-4.3 11.7-6.2 18.3-5.5 6.7 0.6 12.7 3.8 16.9 9 4.2 5.2 6.2 11.7 5.5 18.4-0.6 6.6-3.9 12.6-9 16.8q-0.5 0.4-0.9 0.7c3.4 7.6 5.8 15.5 7.1 23.7q0.6 0 1.1 0.1c6.6 0.6 12.6 3.9 16.9 9 4.2 5.2 6.1 11.7 5.5 18.4-1.4 13.7-13.7 23.7-27.5 22.4q-0.5-0.1-1-0.2c-3 7.8-6.9 15.1-11.8 21.8q0.4 0.4 0.8 0.8c4.2 5.2 6.2 11.7 5.5 18.4-0.7 6.6-3.9 12.6-9.1 16.8-5.2 4.3-11.7 6.2-18.3 5.5-6.7-0.6-12.7-3.9-16.9-9q-0.3-0.5-0.7-0.9c-7.5 3.4-15.5 5.8-23.6 7.1q-0.1 0.6-0.1 1.1c-0.7 6.7-3.9 12.6-9.1 16.9-4.5 3.7-10 5.6-15.8 5.6zm-2.1-4.5c11.3 1.2 21.4-7.1 22.6-18.4q0.1-1.2 0.1-2.6c0-1.1 0.8-2 1.9-2.2 9-1.3 17.7-3.9 26-7.8 1-0.5 2.2-0.1 2.8 0.8q0.7 1.2 1.4 2.1c3.5 4.2 8.4 6.9 13.9 7.5 5.5 0.5 10.9-1.1 15.1-4.6 4.3-3.5 6.9-8.4 7.5-13.9 0.6-5.5-1.1-10.8-4.5-15.1q-0.8-0.9-1.8-1.8c-0.8-0.8-0.9-2.1-0.2-2.9 5.5-7.3 9.8-15.4 12.9-23.9 0.3-1.1 1.4-1.7 2.5-1.4q1.4 0.3 2.5 0.4c11.3 1.1 21.4-7.1 22.6-18.5 1.1-11.3-7.1-21.4-18.5-22.6q-1.1-0.1-2.5 0c-1.1-0.1-2-0.8-2.2-1.9-1.3-9.1-3.9-17.8-7.8-26-0.5-1-0.1-2.2 0.8-2.8 0.8-0.5 1.5-1 2.1-1.5 4.2-3.5 6.9-8.4 7.5-13.9 0.5-5.5-1.1-10.8-4.6-15.1-3.5-4.3-8.4-6.9-13.9-7.5-5.5-0.5-10.8 1.1-15.1 4.6q-0.9 0.7-1.8 1.7c-0.8 0.8-2.1 0.9-3 0.2-7.2-5.4-15.3-9.8-23.8-12.8-1.1-0.4-1.7-1.5-1.4-2.6 0.2-0.9 0.3-1.7 0.4-2.5 1.1-11.3-7.2-21.4-18.5-22.6-5.5-0.5-10.8 1.1-15.1 4.6-4.3 3.5-6.9 8.4-7.5 13.9 0 0.7-0.1 1.5-0.1 2.5 0.1 1.1-0.7 2.1-1.8 2.2-9.1 1.3-17.8 3.9-26 7.8-1 0.5-2.2 0.1-2.8-0.8-0.5-0.8-1-1.4-1.5-2-7.2-8.8-20.2-10.2-29-3-4.3 3.5-6.9 8.4-7.5 13.9-0.5 5.5 1.1 10.9 4.6 15.1q0.7 0.9 1.7 1.9c0.8 0.8 0.9 2 0.2 2.9-5.4 7.3-9.8 15.3-12.8 23.9-0.4 1-1.5 1.6-2.6 1.4-0.9-0.2-1.7-0.4-2.5-0.4-11.3-1.2-21.4 7.1-22.6 18.4-0.5 5.5 1.1 10.9 4.6 15.1 3.5 4.3 8.4 7 13.9 7.5q1.1 0.1 2.5 0.1c1 0 2 0.8 2.2 1.9 1.3 9 3.9 17.7 7.8 26 0.5 1 0.1 2.2-0.8 2.8q-1.2 0.7-2 1.4c-8.9 7.2-10.2 20.2-3 29 7.2 8.8 20.2 10.2 29 3q0.9-0.7 1.9-1.7c0.7-0.8 2-0.9 2.9-0.3 7.3 5.5 15.3 9.8 23.9 12.9 1 0.3 1.6 1.4 1.4 2.5-0.2 1-0.4 1.7-0.4 2.5-1.2 11.3 7.1 21.5 18.4 22.6zm11.6-69.2q-2.3 0-4.6-0.2c-11.8-1.2-22.5-7-30-16.2-7.6-9.2-11.1-20.8-9.9-32.7 2.5-24.4 24.4-42.3 48.9-39.8 11.9 1.2 22.5 6.9 30.1 16.1 7.5 9.3 11 20.9 9.8 32.7-1.2 11.9-7 22.5-16.2 30.1-8 6.5-17.9 10-28.1 10zm-0.1-84.8c-20.4 0-37.9 15.5-40 36.2-1.1 10.7 2.1 21.1 8.9 29.4 6.8 8.4 16.4 13.5 27.1 14.6 10.6 1.1 21.1-2.1 29.4-8.8 8.3-6.8 13.5-16.4 14.6-27.1 1.1-10.7-2.1-21.2-8.9-29.5-6.7-8.3-16.4-13.5-27-14.6q-2.1-0.2-4.1-0.2z"/>
					</g>
					<g>
						<path class="s1" d="m1781.9 498.7c7 0.7 13.3-4.5 14-11.5q0.1-0.8 0.1-1.6c5.2-0.7 10.3-2.3 15-4.5q0.4 0.7 0.9 1.3c4.4 5.5 12.5 6.3 18 1.8 5.5-4.5 6.3-12.6 1.9-18q-0.5-0.7-1.1-1.2c3.1-4.1 5.6-8.8 7.4-13.8q0.8 0.2 1.5 0.3c7.1 0.7 13.4-4.4 14.1-11.5 0.7-7-4.4-13.3-11.5-14.1q-0.8 0-1.5 0c-0.8-5.3-2.3-10.3-4.5-15q0.6-0.4 1.2-0.9c5.5-4.5 6.4-12.6 1.9-18.1-4.5-5.4-12.6-6.3-18.1-1.8q-0.6 0.5-1.1 1.1c-4.2-3.1-8.8-5.6-13.8-7.4q0.2-0.8 0.2-1.6c0.8-7-4.4-13.3-11.4-14-7.1-0.7-13.4 4.4-14.1 11.5q-0.1 0.7-0.1 1.5c-5.2 0.8-10.3 2.3-14.9 4.5q-0.4-0.6-0.9-1.3c-4.5-5.5-12.6-6.3-18.1-1.8-5.5 4.5-6.3 12.6-1.8 18.1q0.5 0.6 1 1.1c-3.1 4.2-5.6 8.8-7.4 13.8q-0.7-0.2-1.5-0.3c-7.1-0.7-13.4 4.5-14.1 11.5-0.7 7.1 4.4 13.4 11.5 14.1q0.8 0.1 1.6 0c0.7 5.3 2.2 10.3 4.5 15q-0.7 0.4-1.3 0.9c-5.5 4.5-6.3 12.6-1.8 18.1 4.4 5.5 12.5 6.3 18 1.8q0.6-0.5 1.2-1.1c4.1 3.1 8.7 5.7 13.7 7.5q-0.1 0.7-0.2 1.5c-0.7 7 4.4 13.3 11.5 14.1zm4.2-41.6c-13.1-1.3-22.7-13-21.4-26.1 1.4-13.1 13.1-22.6 26.2-21.3 13.1 1.3 22.6 13 21.3 26.1-1.3 13.1-13 22.7-26.1 21.3z"/>
						<path class="s2" d="m1783.2 500.9q-0.8 0-1.6 0c-8.2-0.9-14.2-8.2-13.4-16.4-4-1.6-7.7-3.6-11.2-6-3.1 2.5-6.9 3.6-10.9 3.2-4-0.4-7.6-2.3-10.1-5.4-2.6-3.1-3.8-7.1-3.4-11 0.4-4 2.3-7.6 5.4-10.1-1.7-3.9-2.9-8-3.6-12.1-4-0.5-7.5-2.4-10.1-5.5-2.5-3.1-3.7-7-3.3-11 0.4-4 2.4-7.6 5.5-10.1 3.1-2.6 6.9-3.7 10.9-3.4 1.6-3.9 3.6-7.6 6-11.1-5.2-6.4-4.2-15.9 2.2-21.1 3.1-2.5 7-3.7 11-3.3 4 0.4 7.6 2.3 10.1 5.4 3.9-1.7 7.9-2.9 12.1-3.7 0.4-3.9 2.4-7.5 5.5-10 3.1-2.5 7-3.7 11-3.3 4 0.4 7.6 2.3 10.1 5.4 2.5 3.1 3.7 7 3.3 11 4 1.5 7.7 3.5 11.2 5.9 3.1-2.4 7-3.6 10.9-3.2 4 0.4 7.6 2.3 10.2 5.5 2.5 3.1 3.7 7 3.3 11-0.4 3.9-2.3 7.5-5.4 10.1 1.7 3.8 2.9 7.9 3.7 12.1 3.9 0.4 7.5 2.3 10 5.4 2.5 3.1 3.7 7 3.3 11-0.4 4-2.3 7.6-5.5 10.2-3 2.5-6.9 3.7-10.9 3.3-1.5 3.9-3.5 7.7-6 11.1 2.5 3.1 3.7 7 3.3 11-0.4 4-2.4 7.6-5.5 10.1-6.4 5.2-15.8 4.3-21.1-2-3.9 1.6-7.9 2.9-12.1 3.6-0.8 7.7-7.4 13.4-14.9 13.4zm-1.1-4.4c2.8 0.3 5.6-0.6 7.8-2.4 2.2-1.8 3.6-4.3 3.8-7.1q0.1-0.7 0.1-1.3c0-1.1 0.8-2.1 1.9-2.3 4.9-0.7 9.8-2.1 14.3-4.3 1-0.4 2.2-0.1 2.8 0.8q0.4 0.6 0.8 1.1c3.7 4.6 10.4 5.2 14.9 1.5 2.2-1.8 3.6-4.3 3.9-7.2 0.3-2.8-0.5-5.6-2.3-7.8q-0.5-0.5-0.9-0.9c-0.8-0.8-0.9-2-0.3-2.9 3-4 5.4-8.5 7.1-13.2 0.4-1 1.5-1.6 2.6-1.4q0.6 0.1 1.3 0.2c2.8 0.3 5.6-0.5 7.8-2.3 2.2-1.8 3.5-4.4 3.8-7.2 0.6-5.8-3.7-11.1-9.5-11.7q-0.7 0-1.3 0c-1.1 0-2.1-0.8-2.2-1.9-0.7-5-2.2-9.8-4.3-14.3-0.5-1-0.1-2.2 0.8-2.8q0.5-0.4 1-0.8c2.3-1.8 3.6-4.3 3.9-7.2 0.3-2.8-0.5-5.6-2.3-7.8-1.8-2.2-4.4-3.5-7.2-3.8-2.8-0.3-5.6 0.5-7.8 2.3q-0.5 0.4-1 0.9c-0.7 0.8-2 0.9-2.9 0.2-4-3-8.4-5.4-13.2-7-1-0.4-1.6-1.5-1.4-2.6q0.2-0.6 0.3-1.3c0.2-2.8-0.6-5.6-2.4-7.8-1.8-2.2-4.3-3.6-7.2-3.8-2.8-0.3-5.6 0.5-7.8 2.3-2.2 1.8-3.5 4.3-3.8 7.2q-0.1 0.6-0.1 1.3c0.1 1.1-0.7 2-1.8 2.2-5 0.7-9.8 2.2-14.4 4.3-1 0.5-2.2 0.1-2.8-0.8q-0.3-0.6-0.7-1.1c-1.8-2.2-4.4-3.5-7.2-3.8-2.8-0.3-5.6 0.5-7.8 2.3-4.6 3.7-5.2 10.4-1.5 15q0.4 0.5 0.9 0.9c0.8 0.8 0.9 2.1 0.2 2.9-3 4.1-5.4 8.5-7.1 13.2-0.4 1.1-1.5 1.7-2.6 1.4q-0.6-0.1-1.2-0.2c-5.9-0.6-11.1 3.7-11.7 9.5-0.3 2.9 0.6 5.6 2.3 7.8 1.8 2.2 4.4 3.6 7.2 3.9q0.7 0.1 1.3 0c1.1 0 2.1 0.8 2.2 1.9 0.8 5 2.2 9.8 4.3 14.4 0.5 1 0.2 2.2-0.8 2.8q-0.5 0.3-1 0.7c-2.2 1.8-3.6 4.4-3.9 7.2-0.3 2.8 0.6 5.6 2.4 7.8 1.8 2.2 4.3 3.6 7.1 3.9 2.9 0.2 5.6-0.6 7.8-2.4q0.5-0.4 1-0.9c0.8-0.8 2-0.9 2.9-0.2 4 3 8.4 5.4 13.2 7.1 1 0.4 1.6 1.5 1.4 2.5q-0.2 0.7-0.2 1.3c-0.6 5.9 3.6 11.1 9.5 11.7zm6.4-37q-1.3 0-2.7-0.2c-6.9-0.7-13.1-4-17.5-9.4-4.4-5.4-6.5-12.2-5.8-19.1 1.5-14.3 14.3-24.7 28.6-23.3 6.9 0.7 13.1 4.1 17.5 9.4 4.4 5.4 6.5 12.2 5.8 19.1-1.4 13.4-12.7 23.5-25.9 23.5zm-2.2-4.5c11.9 1.2 22.5-7.5 23.7-19.4 1.2-11.9-7.5-22.5-19.4-23.7-11.9-1.2-22.5 7.5-23.7 19.3-1.2 11.9 7.5 22.6 19.4 23.8z"/>
					</g>
				</g>
				<path fill-rule="evenodd" class="s0" d="m2506.5 651.1c-5.5 23.5-28.9 38.1-52.5 32.6-23.5-5.5-38-28.9-32.6-52.4 5.5-23.5 28.9-38.1 52.4-32.6 23.5 5.4 38.1 28.9 32.7 52.4z"/>
			</g>
			<g>
				<path class="s0" d="m1284.1 789.3h-646.2c-1.2 0-2.2-1-2.2-2.2v-347.9c0-1.2 1-2.2 2.2-2.2h646.2c1.2 0 2.2 1 2.2 2.2v347.9c0 1.2-1 2.2-2.2 2.2zm-644-4.4h641.8v-343.5h-641.8z"/>
				<path class="s0" d="m1284.1 544.7h-646.2c-1.2 0-2.2-1-2.2-2.2 0-1.2 1-2.2 2.2-2.2h646.2c1.2 0 2.2 1 2.2 2.2 0 1.2-1 2.2-2.2 2.2z"/>
				<path class="s0" d="m807.3 789.3c-1.2 0-2.2-1-2.2-2.2v-344.7c0-1.2 1-2.2 2.2-2.2 1.2 0 2.2 1 2.2 2.2v344.7c0 1.2-1 2.2-2.2 2.2z"/>
				<path class="s0" d="m922.2 789.3c-1.2 0-2.2-1-2.2-2.2v-344.7c0-1.2 1-2.2 2.2-2.2 1.2 0 2.2 1 2.2 2.2v344.7c0 1.2-1 2.2-2.2 2.2z"/>
			</g>
			<g>
				<g>
					<path fill-rule="evenodd" class="s1" d="m1020.1 576.1h738.2v585.5h-738.2z"/>
					<path class="s2" d="m1758.3 1163.8h-738.2c-1.2 0-2.2-0.9-2.2-2.2v-585.5c0-1.2 1-2.2 2.2-2.2h738.2c1.2 0 2.2 1 2.2 2.2v585.5c0 1.3-1 2.2-2.2 2.2zm-736-4.4h733.8v-581.1h-733.8z"/>
				</g>
				<g>
					<g>
						<path class="s0" d="m1112.5 641.3c0 6.3-5.2 11.4-11.5 11.4-6.3 0-11.4-5.1-11.4-11.4 0-6.3 5.1-11.4 11.4-11.4 6.3 0 11.5 5.1 11.5 11.4z"/>
						<path class="s2" d="m1688.7 643.5h-557.7c-1.2 0-2.2-1-2.2-2.2 0-1.2 1-2.2 2.2-2.2h557.7c1.2 0 2.2 1 2.2 2.2 0 1.2-1 2.2-2.2 2.2z"/>
					</g>
					<g>
						<path class="s0" d="m1112.5 681.2c0 6.3-5.2 11.4-11.5 11.4-6.3 0-11.4-5.1-11.4-11.4 0-6.3 5.1-11.4 11.4-11.4 6.3 0 11.5 5.1 11.5 11.4z"/>
						<path class="s2" d="m1688.7 683.4h-557.7c-1.2 0-2.2-1-2.2-2.2 0-1.2 1-2.2 2.2-2.2h557.7c1.2 0 2.2 1 2.2 2.2 0 1.2-1 2.2-2.2 2.2z"/>
					</g>
				</g>
				<g>
					<path class="s1" d="m1316 900v-163.9c90 0 163 73.4 163 163.9 0 90.5-73 163.9-163 163.9-90.1 0-163.1-73.4-163.1-163.9 0-27.4 6.7-53.2 18.5-75.8z"/>
					<g>
						<path class="s1" d="m1171.4 824.2l144.6-88.1c90 0 163 73.4 163 163.9 0 90.5-73 163.9-163 163.9-90.1 0-163.1-73.4-163.1-163.9 0-27.4 6.7-53.2 18.5-75.8z"/>
						<path class="s0" d="m1316 1066.1c-91.1 0-165.3-74.5-165.3-166.1 0-26.7 6.5-53.3 18.8-76.9q0.2-0.5 0.8-0.8l144.5-88.1q0.6-0.3 1.2-0.3c91.1 0 165.2 74.5 165.2 166.1 0 91.6-74.1 166.1-165.2 166.1zm-142.9-240.4c-11.8 22.8-18 48.5-18 74.3 0 89.2 72.2 161.7 160.9 161.7 88.7 0 160.8-72.5 160.8-161.7 0-89-71.8-161.4-160.2-161.7z"/>
					</g>
					<g>
						<path class="s0" d="m1171.4 824.2c27.2-52.4 81.8-88.1 144.6-88.1v163.9z"/>
						<path class="s0" d="m1318.2 903.6l-149.8-78.5 1.1-2c28.6-55 84.7-89.2 146.5-89.2h2.2zm-143.8-80.4l139.4 73.1v-158.1c-58.5 0.8-111.6 33.1-139.4 85z"/>
					</g>
					<g>
						<path fill-rule="evenodd" class="s1" d="m1316 978.2c-43.3 0-78.3-34.9-78.3-78.2 0-43.3 35-78.3 78.3-78.3 43.3 0 78.3 35 78.3 78.3 0 43.3-35 78.2-78.3 78.2z"/>
						<path class="s0" d="m1316 980.4c-44.4 0-80.5-36-80.5-80.4 0-44.4 36.1-80.5 80.5-80.5 44.4 0 80.5 36.1 80.5 80.5 0 44.4-36.1 80.4-80.5 80.4zm0-156.5c-42 0-76.1 34.2-76.1 76.1 0 41.9 34.1 76 76.1 76 42 0 76.1-34.1 76.1-76 0-41.9-34.1-76.1-76.1-76.1z"/>
					</g>
				</g>
			</g>
			<g>
				<path class="s3" d="m1925.6 1580.9l453.8-453.8c10.6-10.6 25-16.6 40.1-16.6h304.9l353.4-353.3v160.1l-289.9 289.9c-10.6 10.6-25 16.5-40 16.5h-305l-513.4 513.4q-1.9 1.9-3.9 3.5z"/>
				<g>
					<path class="s2" d="m1907.7 1434.1c-0.5 0-1.1-0.2-1.5-0.6-0.9-0.9-0.9-2.3 0-3.1l274.5-274.6c0.4-0.4 1-0.7 1.6-0.7h577.3l202.5-202.5c0.9-0.9 2.3-0.9 3.1 0 0.9 0.9 0.9 2.3 0 3.1l-203.1 203.2c-0.5 0.4-1 0.6-1.6 0.6h-577.3l-273.9 274c-0.5 0.4-1 0.6-1.6 0.6z"/>
					<g>
						<path fill-rule="evenodd" class="s2" d="m2935.4 962.7l1.9 3.9 26.1-12.1-12.2 26.1 4 1.8 17.3-37z"/>
					</g>
				</g>
				<g>
					<path class="s0" d="m1885.6 1080.7c-0.5 0-1.1-0.2-1.5-0.6-0.9-0.9-0.9-2.3 0-3.1l435.5-435.6c0.4-0.4 1-0.6 1.6-0.6h328.2l296.3-296.4c0.9-0.8 2.3-0.8 3.1 0 0.9 0.9 0.9 2.3 0 3.1l-297 297c-0.4 0.5-0.9 0.7-1.5 0.7h-328.2l-434.9 434.9c-0.4 0.4-1 0.6-1.6 0.6z"/>
					<g>
						<path fill-rule="evenodd" class="s0" d="m2919 354.5l1.8 4 26.2-12.2-12.2 26.1 4 1.9 17.3-37.1z"/>
					</g>
				</g>
				<g>
					<path class="s3" d="m2186.5 1937.4h-303.3c-1.3 0-2.2-1-2.2-2.2 0-1.2 0.9-2.2 2.2-2.2h302.4l460.4-460.4c0.4-0.4 1-0.7 1.6-0.7h114.9l245.3-245.3c0.9-0.8 2.3-0.8 3.2 0 0.8 0.9 0.8 2.3 0 3.1l-246 246c-0.4 0.4-1 0.6-1.5 0.6h-115l-460.4 460.5c-0.4 0.4-1 0.6-1.6 0.6z"/>
					<g>
						<path fill-rule="evenodd" class="s3" d="m2981.1 1236.7l1.9 4 26.1-12.2-12.2 26.1 4 1.9 17.3-37.1z"/>
					</g>
				</g>
				<g>
					<path class="s2" d="m2585.8 1011.2c-0.5 0-1.1-0.3-1.5-0.7-0.9-0.8-0.9-2.2 0-3.1l134-134c0.4-0.4 1-0.7 1.6-0.7h88.7l232-232c0.9-0.9 2.3-0.9 3.1 0 0.9 0.8 0.9 2.2 0 3.1l-232.7 232.7c-0.4 0.4-0.9 0.6-1.5 0.6h-88.7l-133.4 133.4c-0.4 0.4-1 0.7-1.6 0.7z"/>
					<g>
						<path fill-rule="evenodd" class="s2" d="m3013.9 650.7l1.9 4 26.1-12.2-12.2 26.1 4 1.9 17.3-37.1z"/>
					</g>
				</g>
				<g>
					<path class="s2" d="m2491.8 583.1c-0.6 0-1.2-0.2-1.6-0.6-0.9-0.9-0.9-2.3 0-3.1l234.9-235c0.9-0.8 2.3-0.8 3.1 0 0.9 0.9 0.9 2.3 0 3.1l-234.9 235c-0.4 0.4-1 0.6-1.5 0.6z"/>
					<g>
						<path fill-rule="evenodd" class="s2" d="m2698.4 354.5l1.9 4 26.1-12.2-12.2 26.1 4 1.9 17.3-37.1z"/>
					</g>
				</g>
			</g>
			<g>
				<g>
					<path class="s3" d="m972.5 1249.8l-126.2-126.2c-7.7-7.7-18.2-12-29.1-12h-221.3l-256.5-256.5v116.2l210.4 210.4c7.7 7.7 18.2 12 29.1 12h221.3l169.5 169.5q1.4 1.4 2.8 2.6c0 0 0-116 0-116z"/>
					<g>
						<path class="s2" d="m896.5 1255.1c-0.6 0-1.2-0.2-1.6-0.6l-189.8-189.9h-135.4c-0.6 0-1.1-0.2-1.6-0.6l-230.3-230.3c-0.8-0.9-0.8-2.3 0-3.1 0.9-0.9 2.3-0.9 3.2 0l229.6 229.6h135.4c0.5 0 1.1 0.3 1.5 0.7l190.5 190.5c0.9 0.8 0.9 2.2 0 3.1-0.4 0.4-1 0.6-1.5 0.6z"/>
						<g>
							<path fill-rule="evenodd" class="s2" d="m868.2 1244.4l1.9-3.9 26.1 12.1-12.2-26.1 4-1.8 17.3 37z"/>
						</g>
					</g>
					<g>
						<path class="s0" d="m856.6 965.3c-0.5 0-1.1-0.2-1.5-0.6l-99.4-99.4h-187c-0.6 0-1.2-0.2-1.6-0.6l-221.8-221.9c-0.9-0.8-0.9-2.2 0-3.1 0.8-0.8 2.2-0.8 3.1 0l221.2 221.2h187c0.6 0 1.2 0.2 1.6 0.7l100 100c0.8 0.8 0.8 2.2 0 3.1-0.5 0.4-1 0.6-1.6 0.6z"/>
						<g>
							<path fill-rule="evenodd" class="s0" d="m828.3 954.6l1.9-4 26.1 12.2-12.2-26.1 4-1.9 17.3 37.1z"/>
						</g>
					</g>
					<g>
						<path class="s3" d="m1196.7 2079.2c-0.5 0-1.1-0.2-1.5-0.6l-634.1-634.1h-83.2c-0.6 0-1.2-0.2-1.6-0.7l-138.5-138.4c-0.8-0.9-0.8-2.3 0-3.2 0.9-0.8 2.3-0.8 3.2 0l137.8 137.9h83.2c0.6 0 1.1 0.2 1.5 0.6l634.8 634.8c0.8 0.8 0.8 2.2 0 3.1-0.5 0.4-1 0.6-1.6 0.6z"/>
						<g>
							<path fill-rule="evenodd" class="s3" d="m1168.4 2068.5l1.9-4 26.1 12.2-12.2-26.1 4-1.9 17.3 37.1z"/>
						</g>
					</g>
					<g>
						<path class="s2" d="m706.3 1405.2c-0.5 0-1.1-0.2-1.5-0.7l-106.1-106h-139c-0.6 0-1.1-0.2-1.6-0.7l-120.3-120.3c-0.8-0.8-0.8-2.2 0-3.1 0.9-0.8 2.3-0.8 3.2 0l119.6 119.7h139.1c0.5 0 1.1 0.2 1.5 0.6l106.7 106.7c0.8 0.9 0.8 2.3 0 3.1-0.4 0.5-1 0.7-1.6 0.7z"/>
						<g>
							<path fill-rule="evenodd" class="s2" d="m678.1 1394.5l1.8-4 26.1 12.2-12.1-26.1 3.9-1.9 17.3 37.1z"/>
						</g>
					</g>
					<g>
						<path class="s2" d="m835 1361.6c-0.5 0-1.1-0.2-1.5-0.6l-197.2-197.2c-0.8-0.8-0.8-2.2 0-3.1 0.9-0.8 2.3-0.8 3.1 0l197.2 197.2c0.8 0.8 0.8 2.2 0 3.1-0.5 0.4-1 0.6-1.6 0.6z"/>
						<g>
							<path fill-rule="evenodd" class="s2" d="m806.7 1350.9l1.9-4 26.1 12.2-12.2-26.1 4-1.9 17.3 37.1z"/>
						</g>
					</g>
					<g>
						<path class="s0" d="m779.7 1888.2c-0.6 0-1.1-0.3-1.6-0.7l-440.3-440.3c-0.8-0.8-0.8-2.2 0-3.1 0.9-0.9 2.3-0.9 3.2 0l440.2 440.3c0.9 0.9 0.9 2.2 0 3.1-0.4 0.4-0.9 0.7-1.5 0.7z"/>
						<g>
							<path fill-rule="evenodd" class="s0" d="m751.4 1877.5l1.9-4 26.1 12.1-12.2-26.1 4-1.8 17.3 37z"/>
						</g>
					</g>
				</g>
				<g>
					<g>
						<g>
							<g>
								<path class="s1" d="m2361.1 1437.7c0 0-308.3-72-438.6-40 0 0-58.5 3.7-28.1 134.9l51.5 62.1c0 0 341.1 82.4 462.2 10.6z"/>
								<path class="s2" d="m2253.4 1637c-36 0-76.7-2.6-122-7.9-99.4-11.5-185.1-32-186-32.2-0.4-0.2-0.9-0.4-1.2-0.8l-51.5-62.1q-0.4-0.4-0.5-0.9c-16.7-72.3-6.3-106.1 5.4-121.8 10.3-13.9 22.7-15.6 24.6-15.8 129.3-31.7 436.3 39.3 439.4 40.1 0.8 0.1 1.4 0.7 1.6 1.5l47 167.6c0.3 0.9-0.1 1.9-1 2.5-33.4 19.8-85.7 29.8-155.8 29.8zm-306.2-44.2c17.4 4.1 340.8 78.9 458.3 11.4l-46.1-164.6c-21.8-5-312.3-70.3-436.4-39.7q-0.2 0-0.3 0c-0.5 0.1-12 1-21.7 14.2-11 14.9-20.7 47.4-4.6 117.5z"/>
							</g>
							<g>
								<path fill-rule="evenodd" class="s0" d="m2447.7 1589.5c-37.6 31.2-93.2 26-124.3-11.5-31.1-37.5-25.9-93.1 11.7-124.3 37.6-31.2 93.1-26 124.3 11.5 31.1 37.5 25.9 93.1-11.7 124.3z"/>
								<path class="s0" d="m2391.4 1612c-26 0-51.8-11.1-69.6-32.6-31.9-38.3-26.5-95.5 11.9-127.4 38.4-31.8 95.6-26.6 127.4 11.8 31.8 38.4 26.5 95.5-11.9 127.4-16.9 14-37.4 20.8-57.8 20.8zm-66.2-35.4c30.2 36.5 84.6 41.5 121.2 11.2 36.5-30.3 41.6-84.7 11.3-121.2-30.3-36.5-84.6-41.5-121.2-11.2-36.5 30.3-41.6 84.7-11.3 121.2z"/>
							</g>
							<g>
								<path class="s1" d="m2435.7 1108l44.4 362.4c3.7 30.1-19.4 56.9-49.8 57.8l-83.7 2.4c-30.3 0.8-54.7-24.4-52.9-54.7l22.9-364.3c2-32.1 29.4-56.8 61.6-55.5l1.3 0.1c28.9 1.2 52.7 23.1 56.2 51.8z"/>
							</g>
							<g>
								<path class="s2" d="m2304.8 1513.4c-0.6 0-1.3-0.3-1.7-0.8-8.3-10.4-12.4-23.5-11.6-36.8l22.9-364.3c2.1-33.1 30.8-58.9 63.9-57.6l1.2 0.1c30.2 1.2 54.8 23.8 58.4 53.8l44.4 362.3c0.9 7.7 0.2 15.3-2.1 22.6-0.3 1.1-1.6 1.8-2.7 1.4-1.2-0.3-1.8-1.6-1.5-2.7 2.1-6.7 2.8-13.7 1.9-20.7l-44.3-362.4c-3.4-27.8-26.2-48.8-54.2-49.9l-1.3-0.1c-30.8-1.3-57.4 22.7-59.3 53.4l-22.9 364.4c-0.7 12.2 3 24.2 10.6 33.7 0.8 1 0.6 2.3-0.3 3.1-0.4 0.3-0.9 0.5-1.4 0.5z"/>
							</g>
							<g>
								<g>
									<path class="s1" d="m2534.7 897.8c0 0-9.6 43.2-34.4 93.6-21.1 42.8-71.1 63.6-116.1 47.3-6.5-2.4-13.2-5.1-20.1-8.3-40.3-18.5-57.6-66.4-38.8-106.5 22.5-47.8 50.3-107.8 53.8-118.7l51.4 35.1z"/>
									<path class="s2" d="m2415.9 1046.5c-10.8 0-21.8-1.9-32.5-5.8-6.8-2.4-13.6-5.2-20.2-8.3-19.9-9.1-35.1-25.6-42.6-46.2-7.6-20.8-6.6-43.2 2.7-63.2 32.4-69 51-109.9 53.7-118.4 0.2-0.7 0.8-1.2 1.4-1.4 0.7-0.3 1.4-0.2 2 0.2l51.3 35.1 104.1 57.4c0.8 0.5 1.3 1.5 1.1 2.4-0.1 0.4-10 44.1-34.6 94.1-16.8 33.9-50.8 54.1-86.4 54.1zm-35.7-237.9c-6.1 16-31.7 71.2-52.9 116.2-8.9 19-9.8 40.2-2.6 59.9 7.1 19.5 21.5 35 40.3 43.7 6.6 3 13.2 5.8 19.9 8.2 43.9 15.9 92.6-4 113.4-46.2 21.8-44.1 31.9-83.2 33.9-91.4l-102.8-56.8z"/>
								</g>
								<g>
									<g>
										<g>
											<path class="s1" d="m2486.4 964l1.5 0.8c8.5 4.6 19.1 1.4 23.7-7.1l28-52.2-32.3-17.3-28.1 52.2c-4.5 8.4-1.3 19 7.2 23.6z"/>
											<path class="s2" d="m2496.2 969.1c-3.2 0-6.3-0.8-9.3-2.3l-1.6-0.9c-4.6-2.5-8-6.6-9.5-11.6-1.5-5-1-10.4 1.5-15l28.1-52.2c0.5-1 1.9-1.5 2.9-0.9l32.4 17.3c0.5 0.3 0.9 0.8 1 1.4 0.2 0.5 0.1 1.1-0.1 1.6l-28.1 52.3c-3.5 6.5-10.3 10.3-17.3 10.3zm12-78l-27 50.3c-1.9 3.6-2.4 7.7-1.2 11.6 1.2 3.9 3.8 7.1 7.4 9l1.6 0.9c7.4 4 16.6 1.2 20.6-6.2l27.1-50.3z"/>
										</g>
										<path class="s0" d="m2505.4 881.2c-6.1 11.3-1.8 25.4 9.5 31.5 11.4 6.1 25.5 1.8 31.6-9.5 6.1-11.3 1.8-25.5-9.5-31.5-11.4-6.1-25.5-1.9-31.6 9.5z"/>
									</g>
									<g>
										<g>
											<path class="s1" d="m2441.9 940.1l1.6 0.9c8.5 4.5 19 1.3 23.6-7.1l28.1-52.3-32.4-17.3-28 52.2c-4.6 8.5-1.4 19.1 7.1 23.6z"/>
											<path class="s2" d="m2451.7 945.3c-3.2 0-6.3-0.8-9.3-2.4l-1.5-0.8c-4.7-2.5-8.1-6.6-9.6-11.7-1.5-5-1-10.3 1.5-14.9l28.1-52.2c0.6-1.1 1.9-1.5 3-0.9l32.3 17.3c0.5 0.3 0.9 0.8 1.1 1.3 0.1 0.6 0.1 1.2-0.2 1.7l-28.1 52.2c-3.5 6.6-10.3 10.4-17.3 10.4zm12-78l-27 50.3c-1.9 3.5-2.3 7.7-1.2 11.6 1.2 3.9 3.8 7.1 7.4 9l1.6 0.8c7.4 4 16.7 1.2 20.6-6.2l27.1-50.3z"/>
										</g>
										<path class="s0" d="m2460.9 857.3c-6 11.4-1.8 25.5 9.6 31.5 11.3 6.1 25.4 1.9 31.5-9.5 6.1-11.3 1.9-25.4-9.5-31.5-11.3-6.1-25.5-1.8-31.6 9.5z"/>
									</g>
									<g>
										<g>
											<path class="s1" d="m2450.4 718.2l-3.3-1.9c-7.9-4.6-17.9-1.9-22.5 5.9l-48.4 90.1 31.7 18.4 48.5-90.1c4.5-7.8 1.8-17.9-6-22.4z"/>
											<path class="s2" d="m2407.9 832.9q-0.6 0-1.1-0.3l-31.7-18.4c-1.1-0.6-1.4-1.9-0.9-2.9l48.5-90.1c5.2-9 16.6-12 25.5-6.8l3.3 1.9c4.3 2.5 7.4 6.5 8.7 11.3 1.2 4.8 0.6 9.8-1.9 14.1l-48.5 90c-0.2 0.6-0.7 0.9-1.3 1.1q-0.3 0.1-0.6 0.1zm-28.8-21.4l27.9 16.2 47.4-88.1c2-3.4 2.5-7.2 1.5-10.9-1-3.6-3.3-6.7-6.6-8.6l-3.4-1.9c-6.7-4-15.4-1.6-19.4 5.1z"/>
										</g>
										<g>
											<path class="s1" d="m2397.4 916.3l1.6 0.8c8.5 4.6 19 1.4 23.6-7.1l28.1-52.2-32.4-17.3-28 52.2c-4.6 8.5-1.4 19 7.1 23.6z"/>
											<path class="s2" d="m2407.2 921.4c-3.1 0-6.3-0.7-9.2-2.3l-1.6-0.9c-4.7-2.4-8-6.6-9.6-11.6-1.5-5-0.9-10.3 1.6-15l28-52.2c0.6-1 1.9-1.4 3-0.9l32.3 17.4c0.5 0.2 0.9 0.7 1.1 1.3 0.1 0.5 0.1 1.1-0.2 1.6l-28.1 52.3c-3.5 6.6-10.3 10.3-17.3 10.3zm12-77.9l-27 50.2c-1.9 3.6-2.3 7.7-1.1 11.6 1.1 3.9 3.8 7.1 7.4 9.1l1.5 0.8c7.4 4 16.7 1.2 20.7-6.2l27-50.3z"/>
										</g>
										<path class="s0" d="m2416.5 833.5c-6.1 11.3-1.9 25.4 9.5 31.5 11.3 6.1 25.5 1.8 31.6-9.5 6-11.3 1.8-25.4-9.6-31.5-11.3-6.1-25.4-1.9-31.5 9.5z"/>
										<path class="s0" d="m2371.5 810.5c-6.1 11.3-1.8 25.4 9.5 31.5 11.3 6.1 25.5 1.8 31.6-9.5 6.1-11.3 1.8-25.4-9.5-31.5-11.4-6.1-25.5-1.8-31.6 9.5z"/>
									</g>
								</g>
								<path class="s2" d="m2392.1 888.4q-0.3 0-0.5 0l-32.3-6.6c-1.2-0.2-1.9-1.4-1.7-2.6 0.3-1.2 1.4-1.9 2.6-1.7l32.3 6.6c1.2 0.2 2 1.4 1.7 2.5-0.2 1.1-1.1 1.8-2.1 1.8z"/>
								<path class="s2" d="m2442.4 902.2q-0.4 0-0.9-0.2l-12-5.1c-1.1-0.5-1.6-1.8-1.2-2.9 0.5-1.1 1.8-1.7 2.9-1.2l12.1 5.1c1.1 0.5 1.6 1.8 1.1 2.9-0.3 0.9-1.2 1.4-2 1.4z"/>
								<path class="s2" d="m2351.4 946.8c-1 0-1.9-0.6-2.1-1.6-0.3-1.2 0.4-2.4 1.6-2.7 14.7-3.6 28.5-9.8 41.1-18.4 0.7-0.5 1.7-0.5 2.4 0 6.4 4.1 13.1 8.4 20.3 11 5.5 2 13.8 3.7 21.7 0.9 1.2-0.4 2.4 0.2 2.8 1.3 0.5 1.1-0.1 2.4-1.3 2.8-9.2 3.3-18.5 1.4-24.7-0.9-7.2-2.5-13.7-6.6-20-10.6-12.6 8.4-26.5 14.5-41.2 18.2q-0.3 0-0.6 0z"/>
							</g>
						</g>
						<g>
							<g>
								<path class="s1" d="m1232.2 1836.2c0 0 77.2-307.4 165.3-408.5 0 0 30-50.3 132.6 37.2l31.5 74.6c0 0-82.9 341.2-202.1 415.7z"/>
								<path class="s2" d="m1359.5 1957.4c-0.5 0-1.1-0.2-1.5-0.6l-127.3-119c-0.5-0.6-0.8-1.4-0.6-2.2 0.8-3.1 78.3-308.8 165.6-409.2 1-1.5 8.1-11.7 25.2-14.5 19.2-3.2 54.1 3.1 110.6 51.4q0.4 0.3 0.6 0.8l31.6 74.5c0.2 0.4 0.2 0.9 0.1 1.4-0.2 0.8-21.2 86.5-56.5 180.2-47.4 126-96.8 205.7-146.6 236.9q-0.6 0.3-1.2 0.3zm-124.8-122l125.1 117.1c113.7-73.4 195.2-395.5 199.5-412.9l-31-73.3c-55.1-46.8-88.4-53.1-106.7-50.1-16.1 2.6-22.2 12.6-22.2 12.7q-0.1 0.1-0.3 0.3c-83.8 96.2-158.9 384.7-164.4 406.2z"/>
							</g>
							<path fill-rule="evenodd" class="s0" d="m1302.9 2001.5c-48.7 0-88.1-39.6-88.1-88.5 0-48.8 39.4-88.4 88.1-88.4 48.8 0 88.2 39.6 88.2 88.4 0 48.9-39.4 88.5-88.2 88.5z"/>
							<g>
								<g>
									<path class="s1" d="m1032.9 1575l281.6 223.5c23.4 18.6 25.7 53.3 5 74.8l-57.1 59.5c-20.6 21.5-55.3 20.6-74.8-1.9l-235.8-271.2c-20.8-23.9-18.6-60.1 4.9-81.4l0.9-0.8c21.1-19.2 53-20.2 75.3-2.5z"/>
								</g>
								<g>
									<path class="s2" d="m1224.6 1950.5q0 0-0.1 0c-14.8-0.3-28.8-7-38.6-18.1l-235.7-271.3c-21.5-24.6-19.2-62.5 5-84.4l0.9-0.9c22.1-19.9 54.9-21 78.2-2.5l281.6 223.5c10.4 8.3 17.3 20 19.3 33.2 0.2 1.2-0.6 2.3-1.8 2.5-1.2 0.2-2.3-0.7-2.5-1.9-1.9-12-8.2-22.8-17.8-30.4l-281.5-223.5c-21.6-17.1-52.1-16.1-72.5 2.4l-0.9 0.8c-22.5 20.4-24.6 55.5-4.7 78.4l235.8 271.2c8.9 10.2 21.8 16.3 35.4 16.6 1.2 0.1 2.1 1.1 2.1 2.3 0 1.2-1 2.1-2.2 2.1z"/>
								</g>
								<g>
									<path class="s1" d="m923.9 1413l-1.4 185.9c-0.2 19.6 15.6 35.6 35.2 35.8 33.6 0.2 61.1-26.8 61.3-60.5l1.1-133.8c0.2-33.6-26.8-61.1-60.5-61.4h-1.1c-19-0.1-34.5 15.1-34.6 34z"/>
									<path class="s2" d="m958.1 1636.9q-0.2 0-0.5 0c-10-0.1-19.4-4.1-26.5-11.3-7.1-7.1-10.9-16.6-10.8-26.7l1.4-185.9c0.2-20 16.5-36.2 36.5-36.2q0.1 0 0.3 0h1.1c16.9 0.2 32.7 6.8 44.5 18.9 11.9 12 18.3 27.9 18.2 44.7l-1.1 133.8c-0.1 16.9-6.8 32.7-18.8 44.5-11.9 11.7-27.6 18.2-44.3 18.2zm-32-223.8l-1.4 185.8c-0.1 8.9 3.3 17.3 9.5 23.6 6.3 6.4 14.6 9.9 23.5 10 15.7 0.1 30.5-5.9 41.6-16.9 11.2-11 17.4-25.7 17.5-41.4l1.1-133.8c0.2-32.4-25.9-58.9-58.3-59.2h-1.2q-0.1 0-0.2 0c-17.6 0-32 14.3-32.1 31.9z"/>
								</g>
								<g>
									<path class="s1" d="m954.7 1226.8c-14.9-0.1-27 11.8-27.1 26.7l-0.9 97c-0.1 14.9 11.8 27 26.7 27.1 14.8 0.2 27-11.8 27.1-26.6l0.9-97c0.1-14.9-11.8-27-26.7-27.2z"/>
									<path class="s2" d="m953.6 1379.8q-0.1 0-0.2 0c-16.1-0.1-29-13.3-28.9-29.3l0.9-97c0-7.8 3.1-15.1 8.7-20.5 5.5-5.5 12.9-8.4 20.6-8.4 16.1 0.2 29 13.3 28.9 29.4l-0.9 97c-0.1 7.8-3.2 15.1-8.7 20.5-5.5 5.4-12.7 8.3-20.4 8.3zm0.9-150.8c-13.6 0-24.6 11-24.7 24.5l-0.9 97c-0.1 13.7 10.9 24.8 24.5 24.9 6.6 0.1 12.8-2.4 17.5-7 4.7-4.7 7.3-10.8 7.4-17.4l0.9-97.1c0.1-13.6-10.9-24.8-24.5-24.9q-0.1 0-0.2 0z"/>
								</g>
								<path class="s0" d="m954.3 1341.2c17.5 0.2 31.7 14.5 31.5 32.1-0.1 17.5-14.4 31.7-32 31.5-17.6-0.1-31.7-14.5-31.6-32 0.2-17.6 14.5-31.7 32.1-31.6z"/>
								<g>
									<path class="s1" d="m927.5 1404.8c-14.9-0.1-27 13.6-27.2 30.5l-1 111c-0.1 17 11.8 30.9 26.7 31 14.8 0.1 27-13.5 27.1-30.5l1-111c0.1-17-11.8-30.8-26.6-31z"/>
									<path class="s2" d="m926.2 1579.5q-0.1 0-0.3 0c-16-0.1-28.9-15-28.8-33.2l1-111c0.1-8.7 3.1-16.9 8.6-23.1 5.6-6.2 12.9-9.7 20.8-9.6 7.8 0.1 15.1 3.6 20.6 10 5.4 6.2 8.3 14.5 8.2 23.2l-1 111c-0.1 8.7-3.1 17-8.6 23.1-5.5 6.2-12.8 9.6-20.5 9.6zm1.1-172.5c-6.5 0-12.6 2.9-17.3 8.1-4.8 5.4-7.4 12.6-7.5 20.3l-1 110.9c-0.1 15.8 10.9 28.7 24.5 28.8 6.5 0.1 12.7-2.8 17.4-8.1 4.8-5.4 7.5-12.6 7.5-20.2l1-111c0.1-7.7-2.5-14.9-7.2-20.4-4.6-5.3-10.7-8.3-17.2-8.4q-0.1 0-0.2 0z"/>
								</g>
							</g>
						</g>
						<g>
							<g>
								<path class="s1" d="m1759.6 1347.4h-125.8c-10.2 0-18.4-8.3-18.4-18.5v-39c0-10.2 8.2-18.5 18.4-18.5h125.8c10.2 0 18.5 8.3 18.5 18.5v39c0 10.2-8.3 18.5-18.5 18.5z"/>
								<path class="s2" d="m1759.6 1349.6h-125.8c-11.3 0-20.6-9.3-20.6-20.7v-39c0-11.4 9.3-20.7 20.6-20.7h125.8c11.4 0 20.7 9.3 20.7 20.7v39c0 11.4-9.3 20.7-20.7 20.7zm-125.8-76c-8.9 0-16.2 7.3-16.2 16.3v39c0 9 7.3 16.3 16.2 16.3h125.8c9 0 16.3-7.3 16.3-16.3v-39c0-9-7.3-16.3-16.3-16.3z"/>
							</g>
							<path class="s0" d="m1928.2 1367.5h-420.4c-48.5 0-86.3 41.9-81.6 90.2l41.4 417.8c4.3 43.5 40.8 76.7 84.4 76.7h332c43.6 0 80.1-33.2 84.4-76.7l41.4-417.8c4.7-48.3-33.1-90.2-81.6-90.2z"/>
						</g>
					</g>
					<g>
						<g>
							<path fill-rule="evenodd" class="s1" d="m1734.2 1164c-94.6 0.9-171.7-65.4-172.5-148.2-0.7-82.8 75.2-150.4 169.8-151.2 94.7-0.9 171.8 65.3 172.5 148.1 0.8 82.8-75.1 150.4-169.8 151.3z"/>
							<path class="s2" d="m1732.4 1166.1c-94.8 0-172.1-67.1-172.9-150.4-0.4-40.6 17.4-79 49.9-108 32.5-28.9 75.8-45 122.1-45.5q0.9 0 1.8 0c45.6 0 88.5 15.4 121 43.3 33.1 28.4 51.5 66.5 51.9 107.1 0.8 83.8-76.4 152.6-172 153.5q-0.9 0-1.8 0zm0.9-299.5q-0.9 0-1.8 0c-45.2 0.5-87.5 16.2-119.2 44.4-31.6 28.2-48.8 65.3-48.4 104.7 0.7 80.8 76.2 146 168.5 146q0.9 0 1.8 0c93.1-0.9 168.3-67.7 167.6-149.1-0.4-39.3-18.2-76.2-50.3-103.7-31.8-27.3-73.7-42.3-118.2-42.3z"/>
						</g>
						<g>
							<path class="s1" d="m1879.9 939.1c-22.4-4.5-55.9-7.7-101.5-3.1-57.2 5.8-102.4 51.8-107.2 109.2-2 23.5-2.5 51.3-0.4 83.3 4.6 68.6 56.7 124.9 124.7 133.7 17.2 2.3 36.9 3.8 59.5 4.3 36.8 0.8 68.3-26.4 72.7-63 6.7-55 11.4-139.3-5.6-222.6-4.4-21.2-21.1-37.5-42.2-41.8z"/>
							<path class="s2" d="m1856.6 1268.7q-0.8 0-1.7 0c-21.3-0.5-41.4-1.9-59.7-4.3-68.6-8.9-121.9-66-126.6-135.7-1.9-29.1-1.8-57.3 0.4-83.7 5-58.5 50.8-105.3 109.2-111.2 38.2-3.9 72.5-2.8 102.1 3.1 22.2 4.5 39.4 21.6 43.9 43.6 17.1 83.2 12.5 167.3 5.7 223.2-4.5 37.4-35.9 65-73.3 65zm-35.5-332.7c-13.7 0-27.9 0.7-42.5 2.2-56.2 5.7-100.4 50.8-105.2 107.2-2.2 26.2-2.3 54.1-0.4 83 4.6 67.6 56.2 123 122.8 131.6 18.1 2.4 38 3.8 59.2 4.3 35.9 0.8 66.2-25.5 70.6-61.1 6.7-55.6 11.3-139.2-5.7-221.8-4.1-20.3-20-36-40.5-40.1-17.4-3.6-37.2-5.3-58.3-5.3z"/>
						</g>
						<g>
							<path class="s0" d="m1661.7 1198.9l43.5-0.4c26.3-0.2 47.4-21.7 47.2-48l-0.8-84.9c-0.2-26.3-21.7-47.4-48-47.2l-43.5 0.4c-26.3 0.2-47.4 21.7-47.1 48l0.7 85c0.3 26.2 21.8 47.4 48 47.1z"/>
						</g>
					</g>
				</g>
			</g>
			<g>
				<path fill-rule="evenodd" class="s1" d="m2808.9 2162.8h-977.8v-362.4h977.8z"/>
				<g>
					<path fill-rule="evenodd" class="s1" d="m1831.1 1952.2v210.6h977.8v-362.4h-833z"/>
					<path class="s2" d="m2808.9 2165h-977.8c-1.2 0-2.2-1-2.2-2.2v-210.6c0-1.3 1-2.2 2.2-2.2 1.2 0 2.2 0.9 2.2 2.2v208.4h973.4v-358h-830.8c-1.3 0-2.2-1-2.2-2.2 0-1.3 0.9-2.2 2.2-2.2h833c1.2 0 2.2 0.9 2.2 2.2v362.4c0 1.2-1 2.2-2.2 2.2z"/>
				</g>
				<path class="s2" d="m2734.2 1911.6h-835.6c-1.2 0-2.2-1-2.2-2.2 0-1.2 1-2.2 2.2-2.2h835.6c1.2 0 2.1 1 2.1 2.2 0 1.2-0.9 2.2-2.1 2.2z"/>
				<path class="s2" d="m1898.6 1982.1c-1.2 0-2.2-1-2.2-2.2 0-1.2 1-2.2 2.2-2.2h835.6c1.2 0 2.1 1 2.1 2.2 0 1.2-0.9 2.2-2.1 2.2z"/>
				<path class="s2" d="m2037.1 2052.6h-138.5c-1.2 0-2.2-1-2.2-2.2 0-1.2 1-2.2 2.2-2.2h138.5c1.2 0 2.2 1 2.2 2.2 0 1.2-1 2.2-2.2 2.2z"/>
				<path class="s2" d="m2734.2 2052.6h-704.5c-1.2 0-2.2-1-2.2-2.2 0-1.2 1-2.2 2.2-2.2h704.5c1.2 0 2.2 1 2.2 2.2 0 1.2-1 2.2-2.2 2.2z"/>
				<g>
					<path fill-rule="evenodd" class="s1" d="m2613.6 1934.8c-14.1 0-25.5-11.4-25.5-25.4 0-14.1 11.4-25.5 25.5-25.5 14.1 0 25.5 11.4 25.5 25.5 0 14-11.4 25.4-25.5 25.4z"/>
					<path class="s2" d="m2613.6 1937c-15.3 0-27.7-12.4-27.7-27.6 0-15.3 12.4-27.7 27.7-27.7 15.3 0 27.7 12.4 27.7 27.7 0 15.2-12.4 27.6-27.7 27.6zm0-50.9c-12.8 0-23.3 10.5-23.3 23.3 0 12.8 10.5 23.2 23.3 23.2 12.9 0 23.3-10.4 23.3-23.2 0-12.8-10.4-23.3-23.3-23.3z"/>
				</g>
				<g>
					<path fill-rule="evenodd" class="s1" d="m2062.6 2002.7c-14.1 0-25.5-11.4-25.5-25.5 0-14 11.4-25.4 25.5-25.4 14.1 0 25.5 11.4 25.5 25.4 0 14.1-11.4 25.5-25.5 25.5z"/>
					<path class="s2" d="m2062.6 2004.9c-15.3 0-27.7-12.4-27.7-27.7 0-15.2 12.4-27.6 27.7-27.6 15.2 0 27.7 12.4 27.7 27.6 0 15.3-12.5 27.7-27.7 27.7zm0-50.9c-12.9 0-23.3 10.4-23.3 23.2 0 12.9 10.4 23.3 23.3 23.3 12.8 0 23.3-10.4 23.3-23.3 0-12.8-10.5-23.2-23.3-23.2z"/>
				</g>
				<g>
					<path fill-rule="evenodd" class="s1" d="m2320 2075.7c-14.1 0-25.5-11.4-25.5-25.5 0-14 11.4-25.4 25.5-25.4 14.1 0 25.5 11.4 25.5 25.4 0 14.1-11.4 25.5-25.5 25.5z"/>
					<path class="s2" d="m2320 2077.9c-15.3 0-27.7-12.4-27.7-27.7 0-15.2 12.4-27.6 27.7-27.6 15.3 0 27.7 12.4 27.7 27.6 0 15.3-12.4 27.7-27.7 27.7zm0-50.9c-12.9 0-23.3 10.4-23.3 23.2 0 12.9 10.4 23.3 23.3 23.3 12.8 0 23.3-10.4 23.3-23.3 0-12.8-10.5-23.2-23.3-23.2z"/>
				</g>
			</g>
			<g>
				<g>
					<path fill-rule="evenodd" class="s3" d="m703.5 382.1c-12.4 0-22.5-10-22.5-22.5 0-12.4 10.1-22.4 22.5-22.4 12.4 0 22.5 10 22.5 22.4 0 12.5-10.1 22.5-22.5 22.5z"/>
					<path fill-rule="evenodd" class="s3" d="m637.9 382.1c-12.4 0-22.5-10-22.5-22.5 0-12.4 10.1-22.4 22.5-22.4 12.4 0 22.5 10 22.5 22.4 0 12.5-10.1 22.5-22.5 22.5z"/>
					<path fill-rule="evenodd" class="s3" d="m572.3 382.1c-12.5 0-22.5-10-22.5-22.5 0-12.4 10-22.4 22.5-22.4 12.4 0 22.5 10 22.5 22.4 0 12.5-10.1 22.5-22.5 22.5z"/>
				</g>
				<path class="s2" d="m1101 527.4c-1.2 0-2.2-1-2.2-2.2v-163.4h-343.7c-1.2 0-2.2-0.9-2.2-2.2 0-1.2 1-2.2 2.2-2.2h345.9c1.2 0 2.2 1 2.2 2.2v165.6c0 1.2-0.9 2.2-2.2 2.2z"/>
			</g>
		</g>
	</g>
</svg>