<svg id="Layer_1" height="300" viewBox="0 0 64 64" width="300" xmlns="http://www.w3.org/2000/svg" data-name="Layer 1" version="1.1" xmlns:xlink="http://www.w3.org/1999/xlink" xmlns:svgjs="http://svgjs.dev/svgjs"><g width="100%" height="100%" transform="matrix(1,0,0,1,0,0)"><path d="m58 9h-15v-3.85c0-1.77-1.79-3.15-4.07-3.15h-13.86c-2.28 0-4.07 1.38-4.07 3.15v3.85h-15a4 4 0 0 0 -4 4v34a4 4 0 0 0 4 4h25v5.18a3 3 0 1 0 2 0v-5.18h25a4 4 0 0 0 4-4v-34a4 4 0 0 0 -4-4zm-35-3.85c0-.54.88-1.15 2.07-1.15h13.86c1.19 0 2.07.61 2.07 1.15v3.85h-18zm9 54.85a1 1 0 1 1 1-1 1 1 0 0 1 -1 1zm28-13a2 2 0 0 1 -2 2h-52a2 2 0 0 1 -2-2v-28h56zm0-30h-56v-4a2 2 0 0 1 2-2h52a2 2 0 0 1 2 2z" fill="#009dc9" fill-opacity="1" data-original-color="#000000ff" stroke="none" stroke-opacity="1"/><path d="m32 44v-2h-2v-15a1 1 0 0 0 -1-1h-4a1 1 0 0 0 -1 1v15h-2v-11a1 1 0 0 0 -1-1h-4a1 1 0 0 0 -1 1v11h-2v-7a1 1 0 0 0 -1-1h-4a1 1 0 0 0 -1 1v7h-2v2zm-6-16h2v14h-2zm-8 4h2v10h-2zm-8 4h2v6h-2z" fill="#009dc9" fill-opacity="1" data-original-color="#000000ff" stroke="none" stroke-opacity="1"/><path d="m10.5 30.86 9.89-5.76-.45 1.64 1.93.52 1.09-4a1 1 0 0 0 -.1-.77 1 1 0 0 0 -.64-.46l-4.36-1-.45 1.97 1.9.44-9.81 5.7z" fill="#009dc9" fill-opacity="1" data-original-color="#000000ff" stroke="none" stroke-opacity="1"/><path d="m42 22h12v2h-12z" fill="#009dc9" fill-opacity="1" data-original-color="#000000ff" stroke="none" stroke-opacity="1"/><path d="m38 30h20v2h-20z" fill="#009dc9" fill-opacity="1" data-original-color="#000000ff" stroke="none" stroke-opacity="1"/><path d="m38 42h20v2h-20z" fill="#009dc9" fill-opacity="1" data-original-color="#000000ff" stroke="none" stroke-opacity="1"/><path d="m34 36h24v2h-24z" fill="#009dc9" fill-opacity="1" data-original-color="#000000ff" stroke="none" stroke-opacity="1"/></g></svg>