<svg version="1.2" xmlns="http://www.w3.org/2000/svg" viewBox="0 0 2475 1650" width="2475" height="1650">
	<title>11668648_20945653</title>
	<defs>
		<linearGradient id="g1" x2="1" gradientUnits="userSpaceOnUse" gradientTransform="matrix(2148.528,0,0,1311.721,161.472,776.509)">
			<stop offset="0" stop-color="#dae3fe"/>
			<stop offset="1" stop-color="#e9effd"/>
		</linearGradient>
		<linearGradient id="g2" x2="1" gradientUnits="userSpaceOnUse" gradientTransform="matrix(257.765,0,0,416.443,1819.922,648.03)">
			<stop offset="0" stop-color="#dae3fe"/>
			<stop offset="1" stop-color="#e9effd"/>
		</linearGradient>
		<linearGradient id="g3" x2="1" gradientUnits="userSpaceOnUse" gradientTransform="matrix(230.697,0,0,483.528,541.449,517.1)">
			<stop offset="0" stop-color="#dae3fe"/>
			<stop offset="1" stop-color="#e9effd"/>
		</linearGradient>
		<linearGradient id="g4" x2="1" gradientUnits="userSpaceOnUse" gradientTransform="matrix(285.149,0,0,165.61,230.366,967.961)">
			<stop offset="0" stop-color="#dae3fe"/>
			<stop offset="1" stop-color="#e9effd"/>
		</linearGradient>
		<linearGradient id="g5" x2="1" gradientUnits="userSpaceOnUse" gradientTransform="matrix(341.065,-1023.198,1294.693,431.563,1089.195,1334.111)">
			<stop offset="0" stop-color="#09005d"/>
			<stop offset="1" stop-color="#1a0f91"/>
		</linearGradient>
		<linearGradient id="g6" x2="1" gradientUnits="userSpaceOnUse" gradientTransform="matrix(154.2,-1280.728,1888.571,227.385,1170.048,1386.434)">
			<stop offset="0" stop-color="#4042e2"/>
			<stop offset="1" stop-color="#4f52ff"/>
		</linearGradient>
		<linearGradient id="g7" x2="1" gradientUnits="userSpaceOnUse" gradientTransform="matrix(18.002,255.025,-2308.235,162.934,1190.584,790.69)">
			<stop offset="0" stop-color="#09005d"/>
			<stop offset="1" stop-color="#1a0f91"/>
		</linearGradient>
		<linearGradient id="g8" x2="1" gradientUnits="userSpaceOnUse" gradientTransform="matrix(0,80.668,-844.169,0,1914.795,1323.333)">
			<stop offset="0" stop-color="#4042e2"/>
			<stop offset="1" stop-color="#4f52ff"/>
		</linearGradient>
		<linearGradient id="g9" x2="1" gradientUnits="userSpaceOnUse" gradientTransform="matrix(-21.67,-124.609,289.146,-50.284,1879.373,1187.309)">
			<stop offset="0" stop-color="#4042e2"/>
			<stop offset="1" stop-color="#4f52ff"/>
		</linearGradient>
		<linearGradient id="g10" x2="1" gradientUnits="userSpaceOnUse" gradientTransform="matrix(-16.516,-2.434,3.635,-24.663,1940.066,1371.811)">
			<stop offset="0" stop-color="#ff928e"/>
			<stop offset="1" stop-color="#feb3b1"/>
		</linearGradient>
		<linearGradient id="g11" x2="1" gradientUnits="userSpaceOnUse" gradientTransform="matrix(0,80.667,-281.14,0,2047.813,1323.334)">
			<stop offset="0" stop-color="#4042e2"/>
			<stop offset="1" stop-color="#4f52ff"/>
		</linearGradient>
		<linearGradient id="g12" x2="1" gradientUnits="userSpaceOnUse" gradientTransform="matrix(-2.929,-126.443,89.208,-2.066,2034.898,981.154)">
			<stop offset="0" stop-color="#4042e2"/>
			<stop offset="1" stop-color="#4f52ff"/>
		</linearGradient>
		<linearGradient id="g13" x2="1" gradientUnits="userSpaceOnUse" gradientTransform="matrix(-19.739,-2.909,3.416,-23.181,2047.433,1371.218)">
			<stop offset="0" stop-color="#ff928e"/>
			<stop offset="1" stop-color="#feb3b1"/>
		</linearGradient>
		<linearGradient id="g14" x2="1" gradientUnits="userSpaceOnUse" gradientTransform="matrix(394.498,460.248,-457.471,392.118,1859.919,922.596)">
			<stop offset="0" stop-color="#fe7062"/>
			<stop offset="1" stop-color="#ff928e"/>
		</linearGradient>
		<linearGradient id="g15" x2="1" gradientUnits="userSpaceOnUse" gradientTransform="matrix(-6.67,-20.31,9.853,-3.236,1991.682,1288.319)">
			<stop offset="0" stop-color="#53d8ff"/>
			<stop offset="1" stop-color="#3840f7"/>
		</linearGradient>
		<linearGradient id="g16" x2="1" gradientUnits="userSpaceOnUse" gradientTransform="matrix(61.098,72.58,-103.847,87.418,1999.394,1070.177)">
			<stop offset="0" stop-color="#ff928e"/>
			<stop offset="1" stop-color="#feb3b1"/>
		</linearGradient>
		<linearGradient id="g17" x2="1" gradientUnits="userSpaceOnUse" gradientTransform="matrix(392.723,458.177,-286.102,245.23,1903.787,886.446)">
			<stop offset="0" stop-color="#fe7062"/>
			<stop offset="1" stop-color="#ff928e"/>
		</linearGradient>
		<linearGradient id="g18" x2="1" gradientUnits="userSpaceOnUse" gradientTransform="matrix(392.731,458.186,-615.764,527.798,1820.976,957.43)">
			<stop offset="0" stop-color="#fe7062"/>
			<stop offset="1" stop-color="#ff928e"/>
		</linearGradient>
		<linearGradient id="g19" x2="1" gradientUnits="userSpaceOnUse" gradientTransform="matrix(-55.338,-8.156,5.218,-35.408,1866.805,1056.657)">
			<stop offset="0" stop-color="#ff928e"/>
			<stop offset="1" stop-color="#feb3b1"/>
		</linearGradient>
		<linearGradient id="g20" x2="1" gradientUnits="userSpaceOnUse" gradientTransform="matrix(-14.625,103.427,-77.372,-10.941,1942.383,916.701)">
			<stop offset="0" stop-color="#ff928e"/>
			<stop offset="1" stop-color="#feb3b1"/>
		</linearGradient>
		<linearGradient id="g21" x2="1" gradientUnits="userSpaceOnUse" gradientTransform="matrix(29.848,79.867,-65.568,24.504,1911.354,894.767)">
			<stop offset="0" stop-color="#ff928e"/>
			<stop offset="1" stop-color="#feb3b1"/>
		</linearGradient>
		<linearGradient id="g22" x2="1" gradientUnits="userSpaceOnUse" gradientTransform="matrix(-58.858,-17.539,22.868,-76.739,1944.298,921.705)">
			<stop offset="0" stop-color="#09005d"/>
			<stop offset="1" stop-color="#1a0f91"/>
		</linearGradient>
		<linearGradient id="g23" x2="1" gradientUnits="userSpaceOnUse" gradientTransform="matrix(-27.438,-52.325,53.488,-28.048,1968.137,967.893)">
			<stop offset="0" stop-color="#ff928e"/>
			<stop offset="1" stop-color="#feb3b1"/>
		</linearGradient>
		<linearGradient id="g24" x2="1" gradientUnits="userSpaceOnUse" gradientTransform="matrix(-19.817,-2.921,2.907,-19.726,1818.304,1042.871)">
			<stop offset="0" stop-color="#ff928e"/>
			<stop offset="1" stop-color="#feb3b1"/>
		</linearGradient>
		<linearGradient id="g25" x2="1" gradientUnits="userSpaceOnUse" gradientTransform="matrix(745.96,732.895,-302.051,307.435,1620.137,856.526)">
			<stop offset="0" stop-color="#09005d"/>
			<stop offset="1" stop-color="#1a0f91"/>
		</linearGradient>
		<linearGradient id="g26" x2="1" gradientUnits="userSpaceOnUse" gradientTransform="matrix(118,52,-27.107,61.512,1438.187,881.691)">
			<stop offset="0" stop-color="#09005d"/>
			<stop offset="1" stop-color="#1a0f91"/>
		</linearGradient>
		<linearGradient id="g27" x2="1" gradientUnits="userSpaceOnUse" gradientTransform="matrix(345.891,478.998,-419.756,303.112,1495.273,833.268)">
			<stop offset="0" stop-color="#ff928e"/>
			<stop offset="1" stop-color="#feb3b1"/>
		</linearGradient>
		<linearGradient id="g28" x2="1" gradientUnits="userSpaceOnUse" gradientTransform="matrix(312.149,432.271,-215.241,155.429,1742.06,882.123)">
			<stop offset="0" stop-color="#fe7062"/>
			<stop offset="1" stop-color="#ff928e"/>
		</linearGradient>
		<linearGradient id="g29" x2="1" gradientUnits="userSpaceOnUse" gradientTransform="matrix(312.15,432.272,-215.241,155.428,1727.653,913.946)">
			<stop offset="0" stop-color="#fe7062"/>
			<stop offset="1" stop-color="#ff928e"/>
		</linearGradient>
		<linearGradient id="g30" x2="1" gradientUnits="userSpaceOnUse" gradientTransform="matrix(-34.667,52,-80.09,-53.393,2057.307,1022.205)">
			<stop offset="0" stop-color="#ff928e"/>
			<stop offset="1" stop-color="#feb3b1"/>
		</linearGradient>
		<linearGradient id="g31" x2="1" gradientUnits="userSpaceOnUse" gradientTransform="matrix(90.582,-105.139,105.139,90.582,515.26,688.521)">
			<stop offset="0" stop-color="#e1473d"/>
			<stop offset="1" stop-color="#e9605a"/>
		</linearGradient>
		<linearGradient id="g32" x2="1" gradientUnits="userSpaceOnUse" gradientTransform="matrix(-267.852,404.649,-404.649,-267.852,657.026,506.697)">
			<stop offset="0" stop-color="#fe7062"/>
			<stop offset="1" stop-color="#ff928e"/>
		</linearGradient>
		<linearGradient id="g33" x2="1" gradientUnits="userSpaceOnUse" gradientTransform="matrix(-142.626,239.445,-193.684,-115.368,649.036,518.292)">
			<stop offset="0" stop-color="#fe7062"/>
			<stop offset="1" stop-color="#ff928e"/>
		</linearGradient>
		<linearGradient id="g34" x2="1" gradientUnits="userSpaceOnUse" gradientTransform="matrix(90.582,-105.139,105.139,90.582,452.789,1042.748)">
			<stop offset="0" stop-color="#e1473d"/>
			<stop offset="1" stop-color="#e9605a"/>
		</linearGradient>
		<linearGradient id="g35" x2="1" gradientUnits="userSpaceOnUse" gradientTransform="matrix(-267.852,404.649,-404.649,-267.852,594.555,860.924)">
			<stop offset="0" stop-color="#fe7062"/>
			<stop offset="1" stop-color="#ff928e"/>
		</linearGradient>
		<linearGradient id="g36" x2="1" gradientUnits="userSpaceOnUse" gradientTransform="matrix(-142.626,239.445,-193.68,-115.366,586.565,872.519)">
			<stop offset="0" stop-color="#fe7062"/>
			<stop offset="1" stop-color="#ff928e"/>
		</linearGradient>
		<linearGradient id="g37" x2="1" gradientUnits="userSpaceOnUse" gradientTransform="matrix(141.515,-164.259,164.259,141.515,298.829,909.338)">
			<stop offset="0" stop-color="#e1473d"/>
			<stop offset="1" stop-color="#e9605a"/>
		</linearGradient>
		<linearGradient id="g38" x2="1" gradientUnits="userSpaceOnUse" gradientTransform="matrix(-418.465,632.182,-632.181,-418.465,520.31,625.275)">
			<stop offset="0" stop-color="#fe7062"/>
			<stop offset="1" stop-color="#ff928e"/>
		</linearGradient>
		<linearGradient id="g39" x2="1" gradientUnits="userSpaceOnUse" gradientTransform="matrix(-222.824,374.085,-302.59,-180.238,507.827,643.389)">
			<stop offset="0" stop-color="#fe7062"/>
			<stop offset="1" stop-color="#ff928e"/>
		</linearGradient>
		<linearGradient id="g40" x2="1" gradientUnits="userSpaceOnUse" gradientTransform="matrix(107.293,-124.536,124.536,107.293,559.868,917.518)">
			<stop offset="0" stop-color="#e1473d"/>
			<stop offset="1" stop-color="#e9605a"/>
		</linearGradient>
		<linearGradient id="g41" x2="1" gradientUnits="userSpaceOnUse" gradientTransform="matrix(-317.269,479.302,-479.302,-317.269,727.788,702.149)">
			<stop offset="0" stop-color="#fe7062"/>
			<stop offset="1" stop-color="#ff928e"/>
		</linearGradient>
		<linearGradient id="g42" x2="1" gradientUnits="userSpaceOnUse" gradientTransform="matrix(-168.939,283.621,-229.409,-136.648,718.324,715.882)">
			<stop offset="0" stop-color="#fe7062"/>
			<stop offset="1" stop-color="#ff928e"/>
		</linearGradient>
		<linearGradient id="g43" x2="1" gradientUnits="userSpaceOnUse" gradientTransform="matrix(-113.052,-21.836,11.241,-58.197,1195.92,244.542)">
			<stop offset="0" stop-color="#fe7062"/>
			<stop offset="1" stop-color="#ff928e"/>
		</linearGradient>
		<linearGradient id="g44" x2="1" gradientUnits="userSpaceOnUse" gradientTransform="matrix(47.333,-59.333,49.824,39.747,1185.681,340.034)">
			<stop offset="0" stop-color="#4042e2"/>
			<stop offset="1" stop-color="#4f52ff"/>
		</linearGradient>
		<linearGradient id="g45" x2="1" gradientUnits="userSpaceOnUse" gradientTransform="matrix(18.667,64,-93.855,27.374,1200.028,131.2)">
			<stop offset="0" stop-color="#4042e2"/>
			<stop offset="1" stop-color="#4f52ff"/>
		</linearGradient>
		<linearGradient id="g46" x2="1" gradientUnits="userSpaceOnUse" gradientTransform="matrix(185.334,-82,59.325,134.083,1202.572,283.899)">
			<stop offset="0" stop-color="#4042e2"/>
			<stop offset="1" stop-color="#4f52ff"/>
		</linearGradient>
		<linearGradient id="g47" x2="1" gradientUnits="userSpaceOnUse" gradientTransform="matrix(-246.025,270.027,-278.334,-253.593,1821.459,-207.846)">
			<stop offset="0" stop-color="#ff928e"/>
			<stop offset="1" stop-color="#feb3b1"/>
		</linearGradient>
		<linearGradient id="g48" x2="1" gradientUnits="userSpaceOnUse" gradientTransform="matrix(.722,-55.552,51.76,.673,1342.135,265.442)">
			<stop offset="0" stop-color="#09005d"/>
			<stop offset="1" stop-color="#1a0f91"/>
		</linearGradient>
		<linearGradient id="g49" x2="1" gradientUnits="userSpaceOnUse" gradientTransform="matrix(.477,-36.699,34.194,.445,1276.671,255.498)">
			<stop offset="0" stop-color="#09005d"/>
			<stop offset="1" stop-color="#1a0f91"/>
		</linearGradient>
		<linearGradient id="g50" x2="1" gradientUnits="userSpaceOnUse" gradientTransform="matrix(-113,150,-373.325,-281.238,1066.213,462.527)">
			<stop offset="0" stop-color="#ff928e"/>
			<stop offset="1" stop-color="#feb3b1"/>
		</linearGradient>
		<linearGradient id="g51" x2="1" gradientUnits="userSpaceOnUse" gradientTransform="matrix(0,60,-76.64,0,1072.853,542)">
			<stop offset="0" stop-color="#09005d"/>
			<stop offset="1" stop-color="#1a0f91"/>
		</linearGradient>
		<linearGradient id="g52" x2="1" gradientUnits="userSpaceOnUse" gradientTransform="matrix(-51,53,-111.966,-107.741,1118.304,428.312)">
			<stop offset="0" stop-color="#ff928e"/>
			<stop offset="1" stop-color="#feb3b1"/>
		</linearGradient>
		<linearGradient id="g53" x2="1" gradientUnits="userSpaceOnUse" gradientTransform="matrix(0,60,-55.013,0,1039.536,542)">
			<stop offset="0" stop-color="#09005d"/>
			<stop offset="1" stop-color="#1a0f91"/>
		</linearGradient>
		<linearGradient id="g54" x2="1" gradientUnits="userSpaceOnUse" gradientTransform="matrix(77,181,-362.033,154.014,1234.331,1205.564)">
			<stop offset="0" stop-color="#4042e2"/>
			<stop offset="1" stop-color="#4f52ff"/>
		</linearGradient>
		<linearGradient id="g55" x2="1" gradientUnits="userSpaceOnUse" gradientTransform="matrix(-76.616,68.93,-47.772,-53.099,977.183,201.17)">
			<stop offset="0" stop-color="#09005d"/>
			<stop offset="1" stop-color="#1a0f91"/>
		</linearGradient>
		<linearGradient id="g56" x2="1" gradientUnits="userSpaceOnUse" gradientTransform="matrix(-318.197,306.934,-192.477,-199.54,956.803,318.69)">
			<stop offset="0" stop-color="#fe7062"/>
			<stop offset="1" stop-color="#ff928e"/>
		</linearGradient>
		<linearGradient id="g57" x2="1" gradientUnits="userSpaceOnUse" gradientTransform="matrix(-44,100.5,-63.216,-27.677,943.656,257.63)">
			<stop offset="0" stop-color="#ff928e"/>
			<stop offset="1" stop-color="#feb3b1"/>
		</linearGradient>
		<linearGradient id="g58" x2="1" gradientUnits="userSpaceOnUse" gradientTransform="matrix(-5.5,49,-36.659,-4.115,944.503,253.551)">
			<stop offset="0" stop-color="#ff928e"/>
			<stop offset="1" stop-color="#feb3b1"/>
		</linearGradient>
		<linearGradient id="g59" x2="1" gradientUnits="userSpaceOnUse" gradientTransform="matrix(.416,143.445,-198.68,.576,942.373,156.909)">
			<stop offset="0" stop-color="#09005d"/>
			<stop offset="1" stop-color="#1a0f91"/>
		</linearGradient>
		<linearGradient id="g60" x2="1" gradientUnits="userSpaceOnUse" gradientTransform="matrix(-5.5,49,-27.061,-3.037,929.046,251.816)">
			<stop offset="0" stop-color="#ff928e"/>
			<stop offset="1" stop-color="#feb3b1"/>
		</linearGradient>
		<linearGradient id="g61" x2="1" gradientUnits="userSpaceOnUse" gradientTransform="matrix(-18,60,-157.441,-47.232,925.154,315.346)">
			<stop offset="0" stop-color="#ff928e"/>
			<stop offset="1" stop-color="#feb3b1"/>
		</linearGradient>
		<linearGradient id="g62" x2="1" gradientUnits="userSpaceOnUse" gradientTransform="matrix(69.303,22.73,-8.799,26.828,880.786,419.858)">
			<stop offset="0" stop-color="#09005d"/>
			<stop offset="1" stop-color="#1a0f91"/>
		</linearGradient>
		<linearGradient id="g63" x2="1" gradientUnits="userSpaceOnUse" gradientTransform="matrix(-53,-61,92.982,-80.788,1038.472,443.672)">
			<stop offset="0" stop-color="#09005d"/>
			<stop offset="1" stop-color="#1a0f91"/>
		</linearGradient>
		<linearGradient id="g64" x2="1" gradientUnits="userSpaceOnUse" gradientTransform="matrix(194.047,0,0,104.812,438.202,1073.233)">
			<stop offset="0" stop-color="#fe7062"/>
			<stop offset="1" stop-color="#ff928e"/>
		</linearGradient>
		<linearGradient id="g65" x2="1" gradientUnits="userSpaceOnUse" gradientTransform="matrix(424.24,0,0,412.981,321.007,1339.429)">
			<stop offset="0" stop-color="#fe7062"/>
			<stop offset="1" stop-color="#ff928e"/>
		</linearGradient>
		<linearGradient id="g66" x2="1" gradientUnits="userSpaceOnUse" gradientTransform="matrix(-30.003,309.032,-1451.789,-140.95,582.421,653.611)">
			<stop offset="0" stop-color="#e1473d"/>
			<stop offset="1" stop-color="#e9605a"/>
		</linearGradient>
		<linearGradient id="g67" x2="1" gradientUnits="userSpaceOnUse" gradientTransform="matrix(-395.701,664.317,-537.349,-320.073,654.99,1153.124)">
			<stop offset="0" stop-color="#fe7062"/>
			<stop offset="1" stop-color="#ff928e"/>
		</linearGradient>
		<linearGradient id="g68" x2="1" gradientUnits="userSpaceOnUse" gradientTransform="matrix(-57.425,81.606,-75.255,-52.956,1287.866,1069.995)">
			<stop offset="0" stop-color="#09005d"/>
			<stop offset="1" stop-color="#1a0f91"/>
		</linearGradient>
		<linearGradient id="g69" x2="1" gradientUnits="userSpaceOnUse" gradientTransform="matrix(-106,184,-172.549,-99.404,1244.029,1255.375)">
			<stop offset="0" stop-color="#fe7062"/>
			<stop offset="1" stop-color="#ff928e"/>
		</linearGradient>
		<linearGradient id="g70" x2="1" gradientUnits="userSpaceOnUse" gradientTransform="matrix(91.854,221.881,-85.725,35.489,1143.398,1246.527)">
			<stop offset="0" stop-color="#ff928e"/>
			<stop offset="1" stop-color="#feb3b1"/>
		</linearGradient>
		<linearGradient id="g71" x2="1" gradientUnits="userSpaceOnUse" gradientTransform="matrix(-91.854,221.882,-80.02,-33.126,1306.234,1246.05)">
			<stop offset="0" stop-color="#ff928e"/>
			<stop offset="1" stop-color="#feb3b1"/>
		</linearGradient>
		<linearGradient id="g72" x2="1" gradientUnits="userSpaceOnUse" gradientTransform="matrix(6.101,-142.962,297.292,12.687,1305.183,1372.076)">
			<stop offset="0" stop-color="#4042e2"/>
			<stop offset="1" stop-color="#4f52ff"/>
		</linearGradient>
		<linearGradient id="g73" x2="1" gradientUnits="userSpaceOnUse" gradientTransform="matrix(-52.985,143.515,-124.336,-45.904,1313.25,1301.055)">
			<stop offset="0" stop-color="#ff928e"/>
			<stop offset="1" stop-color="#feb3b1"/>
		</linearGradient>
		<linearGradient id="g74" x2="1" gradientUnits="userSpaceOnUse" gradientTransform="matrix(-2.5,-139.5,290.56,-5.207,1133.884,1381.235)">
			<stop offset="0" stop-color="#4042e2"/>
			<stop offset="1" stop-color="#4f52ff"/>
		</linearGradient>
		<linearGradient id="g75" x2="1" gradientUnits="userSpaceOnUse" gradientTransform="matrix(-53.012,143.59,-124.114,-45.822,1207.094,1257.808)">
			<stop offset="0" stop-color="#ff928e"/>
			<stop offset="1" stop-color="#feb3b1"/>
		</linearGradient>
		<linearGradient id="g76" x2="1" gradientUnits="userSpaceOnUse" gradientTransform="matrix(132.5,-101.5,49.989,65.256,1218.498,1386.638)">
			<stop offset="0" stop-color="#09005d"/>
			<stop offset=".622" stop-color="#14097d"/>
			<stop offset="1" stop-color="#1a0f91"/>
		</linearGradient>
		<linearGradient id="g77" x2="1" gradientUnits="userSpaceOnUse" gradientTransform="matrix(-36.1,-92.054,101.885,-39.955,1228.646,1435.706)">
			<stop offset="0" stop-color="#09005d"/>
			<stop offset="1" stop-color="#1a0f91"/>
		</linearGradient>
		<linearGradient id="g78" x2="1" gradientUnits="userSpaceOnUse" gradientTransform="matrix(-17.5,102,-127.324,-21.845,1229.493,1177.369)">
			<stop offset="0" stop-color="#ff928e"/>
			<stop offset="1" stop-color="#feb3b1"/>
		</linearGradient>
		<linearGradient id="g79" x2="1" gradientUnits="userSpaceOnUse" gradientTransform="matrix(-7.5,74,-53.897,-5.463,1233.405,1113.034)">
			<stop offset="0" stop-color="#ff928e"/>
			<stop offset="1" stop-color="#feb3b1"/>
		</linearGradient>
		<linearGradient id="g80" x2="1" gradientUnits="userSpaceOnUse" gradientTransform="matrix(-22,123,-134.969,-24.141,1237.785,1085.929)">
			<stop offset="0" stop-color="#09005d"/>
			<stop offset="1" stop-color="#1a0f91"/>
		</linearGradient>
		<linearGradient id="g81" x2="1" gradientUnits="userSpaceOnUse" gradientTransform="matrix(-7.5,74,-34.849,-3.532,1209.965,1110.659)">
			<stop offset="0" stop-color="#ff928e"/>
			<stop offset="1" stop-color="#feb3b1"/>
		</linearGradient>
	</defs>
	<style>
		.s0 { fill: url(#g1) } 
		.s1 { fill: #bdd0fb } 
		.s2 { fill: url(#g2) } 
		.s3 { fill: #91b3fa } 
		.s4 { fill: url(#g3) } 
		.s5 { fill: url(#g4) } 
		.s6 { fill: url(#g5) } 
		.s7 { fill: url(#g6) } 
		.s8 { fill: #ffffff } 
		.s9 { fill: #7d97f4 } 
		.s10 { fill: url(#g7) } 
		.s11 { fill: url(#g8) } 
		.s12 { fill: url(#g9) } 
		.s13 { fill: url(#g10) } 
		.s14 { fill: url(#g11) } 
		.s15 { fill: url(#g12) } 
		.s16 { fill: url(#g13) } 
		.s17 { fill: url(#g14) } 
		.s18 { fill: url(#g15) } 
		.s19 { fill: url(#g16) } 
		.s20 { fill: url(#g17) } 
		.s21 { fill: url(#g18) } 
		.s22 { fill: url(#g19) } 
		.s23 { fill: url(#g20) } 
		.s24 { fill: url(#g21) } 
		.s25 { fill: url(#g22) } 
		.s26 { fill: url(#g23) } 
		.s27 { fill: url(#g24) } 
		.s28 { fill: url(#g25) } 
		.s29 { fill: url(#g26) } 
		.s30 { fill: url(#g27) } 
		.s31 { fill: url(#g28) } 
		.s32 { fill: url(#g29) } 
		.s33 { fill: url(#g30) } 
		.s34 { fill: url(#g31) } 
		.s35 { fill: url(#g32) } 
		.s36 { opacity: .7;fill: #ffffff } 
		.s37 { fill: url(#g33) } 
		.s38 { fill: url(#g34) } 
		.s39 { fill: url(#g35) } 
		.s40 { fill: url(#g36) } 
		.s41 { fill: url(#g37) } 
		.s42 { fill: url(#g38) } 
		.s43 { fill: url(#g39) } 
		.s44 { fill: url(#g40) } 
		.s45 { fill: url(#g41) } 
		.s46 { fill: url(#g42) } 
		.s47 { fill: url(#g43) } 
		.s48 { fill: url(#g44) } 
		.s49 { fill: url(#g45) } 
		.s50 { fill: url(#g46) } 
		.s51 { fill: url(#g47) } 
		.s52 { fill: url(#g48) } 
		.s53 { fill: url(#g49) } 
		.s54 { fill: url(#g50) } 
		.s55 { fill: url(#g51) } 
		.s56 { fill: url(#g52) } 
		.s57 { fill: url(#g53) } 
		.s58 { fill: url(#g54) } 
		.s59 { fill: url(#g55) } 
		.s60 { fill: url(#g56) } 
		.s61 { fill: url(#g57) } 
		.s62 { fill: url(#g58) } 
		.s63 { fill: url(#g59) } 
		.s64 { fill: url(#g60) } 
		.s65 { fill: url(#g61) } 
		.s66 { fill: url(#g62) } 
		.s67 { fill: url(#g63) } 
		.s68 { fill: url(#g64) } 
		.s69 { fill: url(#g65) } 
		.s70 { fill: url(#g66) } 
		.s71 { fill: url(#g67) } 
		.s72 { fill: url(#g68) } 
		.s73 { fill: url(#g69) } 
		.s74 { fill: url(#g70) } 
		.s75 { fill: url(#g71) } 
		.s76 { fill: url(#g72) } 
		.s77 { fill: url(#g73) } 
		.s78 { fill: url(#g74) } 
		.s79 { fill: url(#g75) } 
		.s80 { fill: url(#g76) } 
		.s81 { fill: url(#g77) } 
		.s82 { fill: url(#g78) } 
		.s83 { fill: url(#g79) } 
		.s84 { fill: url(#g80) } 
		.s85 { fill: url(#g81) } 
	</style>
	<g id="Background">
	</g>
	<g id="Illustration">
		<g>
			<path class="s0" d="m543.5 201.7c-166.6 130.4 56.2 297.8-59.3 370.9-115.4 73.1-593.4 215.6-112 498.4 481.3 282.8 494.6 470.2 838.2 291.1 343.6-179 318.9-211.2 601.7-90.2 282.8 121.1 578.3-67.2 477.8-290.7-100.4-223.5-164.4-220.8-49.7-363.5 114.8-142.7-64.7-537.7-459.7-232.4-395 305.2-642.2 77.3-685.6-36.8-43.3-114.2-288-352.9-551.4-146.8z"/>
			<g>
				<g>
					<g>
						<path class="s1" d="m2239.3 740.3c-37 33.7-88 53.1-137.3 66.9-64.4 18-132.7 31.2-186 71.6-55.7 42.1-87.6 108.8-107.4 175.8-19.8 67.1-29.6 136.9-52.4 202.9-21.6 62.9-57.3 124.1-113.1 159.6 45.4-1.6 86-35.5 108.4-75.8 23.8-42.9 31.7-92.6 42.3-140.6 10.6-48 25.4-97.4 59.3-132.9 66.6-69.8 180.7-63.1 263-113.4 42.6-26.1 74.8-66.6 98.3-110.5 16.1-30 28.5-61.7 39.6-93.9 3.1-8.9-7.8-16.1-14.7-9.7z"/>
					</g>
					<g>
						<path class="s1" d="m2127 437c-9.9-26.2-23.7-50.6-38.4-74.5-4.5-7.3-15.7-5.1-17.1 3.4-5.8 35.6-29.3 68.6-56.5 93.6-34.7 31.9-76.4 55.6-109.6 89-68.3 68.8-92.1 170.2-98 267-5.8 96.7 3.3 194.5-12.2 290.2-7.5 45.6-20.9 91.3-48.1 128.7-26.7 36.7-68.3 64.4-113.6 66.5-1.3 0-2.3 1.2-2 2.5 0.1 0.8 0.7 1.4 1.4 1.7 53.8 18.7 115.5-13.2 146.7-61 31.5-48.2 38.2-108.2 39-165.7 0.8-57.5-3.4-115.8 9.5-171.8 12.8-56 42.9-107.9 85.1-146.9 38.4-35.5 85.6-59.7 128.2-90 42.7-30.2 82.7-69.4 95.7-120 9.6-37.1 3.5-76.9-10.1-112.7z"/>
						<path class="s2" d="m2077.6 441.9c-2.2 10.5-6 20.3-10.3 29.9-4.3 9.7-9.2 19-14.8 27.9-2.7 4.6-5.8 8.8-8.8 13.2-3 4.4-6.2 8.5-9.4 12.7-3.3 4.1-6.8 8.1-10.2 12.1l-10.8 11.6c-3.7 3.7-7.6 7.3-11.3 10.9-3.9 3.7-8 7-11.9 10.5-8 6.8-16.2 13.1-24.2 19.8-16 13.1-31.8 26.5-46.2 41.2-14.4 14.6-27.2 30.7-38.2 48-5.8 8.5-10.4 17.6-15.4 26.7-4.2 9.3-8.8 18.5-12.3 28.2-7.7 19.2-13.1 39.2-18.4 59.2-2.3 10-4.4 20.2-6.6 30.3l-5.4 30.7c-0.2 1-1.1 1.6-2 1.4-1-0.1-1.6-1-1.5-1.9 4.9-41.4 12.8-82.7 27.3-122.2 13.9-39.6 36.9-76.3 66.3-106.5 14.7-15.1 30.6-28.8 46.7-42.1 7.9-6.7 16.2-13.2 24-19.9 3.9-3.3 7.9-6.5 11.6-10 3.8-3.6 7.5-7 11.2-10.6l10.7-11.1c3.4-3.8 6.8-7.7 10.1-11.6 3.2-4 6.6-7.9 9.6-12 3-4.2 6.2-8.2 8.9-12.5 5.9-8.5 11-17.4 15.9-26.4 4.7-9.1 9-18.6 12-28.3l0.1-0.1c0.3-0.9 1.3-1.4 2.2-1.1 0.8 0.3 1.3 1.2 1.1 2z"/>
					</g>
					<g>
						<path class="s3" d="m2217.1 1168.3c4.9 2.1 9.6-3.4 6.9-8.1-15.4-26.8-51.3-76.2-105.7-75.3-74.5 1.3-129.6 34.6-202.1 154.8-70.5 116.7-229.6 156-272.5 156.7-2 0-3.7 1.5-4 3.5-0.4 2.6 1.6 4.9 4.2 4.8 30.2-1.2 188.5-9.4 268.8-51 84.4-43.7 209.3-225 304.4-185.4z"/>
						<path class="s1" d="m2172.6 1133.7c-5.7-2.4-11.9-4.1-18-5.5-6.2-1.3-12.5-2.2-18.8-2.7-6.3-0.4-12.6-0.5-18.9-0.1-6.3 0.4-12.6 1.3-18.7 2.4-12.4 2.4-24.4 6.4-35.8 11.7-11.4 5.4-22.1 12.1-32.2 19.6-20.2 15.2-37.4 34.2-52.6 54.5l-22.2 31.5-5.6 8c-1.9 2.6-4 5.1-6 7.7l-11.9 15.3c-16.8 19.9-34.7 38.9-55 55.4-20.2 16.6-43.1 29.8-67.3 39.6-24.2 9.8-49.5 16.2-74.9 20.7-25.5 4.5-51.1 7.7-76.7 10.8-0.5 0-1-0.4-1.1-1-0.1-0.5 0.3-1 0.9-1.1 25.4-4.3 50.8-8.2 76-13.5 25-5.4 49.9-12 73.3-22.1 23.4-10 45.1-23.5 64.8-39.6 19.6-16.3 37-35 53.2-54.7l11.7-15.2c1.9-2.5 3.9-5 5.8-7.6l5.5-7.9 10.9-15.8c3.7-5.2 7.5-10.7 11.3-15.9l6-7.8 3-3.9 3.1-3.7 6.4-7.5 6.7-7.1c9.2-9.4 18.9-18.3 29.6-26 21.1-15.5 45.8-26.8 71.9-31.1 13-2.2 26.3-2.5 39.3-0.9 13.1 1.5 25.9 4.6 37.9 10.3 0.8 0.5 1.2 1.5 0.8 2.4-0.4 0.8-1.4 1.2-2.2 0.8z"/>
					</g>
				</g>
				<g>
					<g>
						<path class="s3" d="m260.1 435.4c36.7 40.8 90.2 67.3 142.4 87.6 68.3 26.6 141.3 48.2 195.1 97.9 56.2 52 83.8 128 98.2 203.2 14.4 75.2 17.6 152.3 35.3 226.7 16.9 70.8 49.3 141.4 106.3 186-49.3-6.6-89.9-47.8-110-94.1-21.4-49.4-24.7-104.4-31.1-157.8-6.4-53.5-17.3-108.9-50.4-151.3-65.1-83.1-190.2-88.1-274.5-151.7-43.6-32.9-74.4-80.5-95.3-131-14.3-34.3-24.4-70.2-33.1-106.5-2.4-10 10.2-16.7 17.1-9z"/>
					</g>
					<g>
						<path class="s3" d="m232.6 1181.8c-4.9 2-9.6-3.4-6.9-8.1 15.5-26.8 51.4-76.2 105.7-75.3 74.5 1.3 129.7 34.6 202.2 154.7 70.5 116.8 229.5 156.1 272.4 156.7 2 0.1 3.7 1.5 4 3.5 0.5 2.6-1.6 5-4.2 4.9-30.1-1.2-188.5-9.4-268.8-51-84.3-43.7-209.2-225-304.4-185.4z"/>
						<path class="s1" d="m267.6 1152c12-5.7 24.8-8.8 37.8-10.4 13.1-1.5 26.4-1.2 39.4 0.9 26 4.4 50.7 15.6 71.9 31.2 10.7 7.7 20.3 16.6 29.5 26l6.7 7.1 6.4 7.5 3.2 3.7 3 3.9 6 7.7c3.8 5.3 7.5 10.7 11.2 16l11 15.8 5.4 7.9c1.9 2.5 3.9 5 5.8 7.6l11.7 15.2c16.3 19.7 33.7 38.4 53.3 54.7 19.6 16.1 41.4 29.6 64.8 39.6 23.4 10.1 48.2 16.7 73.3 22.1 25.1 5.3 50.6 9.2 76 13.5 0.6 0.1 1 0.6 0.9 1.2-0.1 0.5-0.6 0.9-1.2 0.8-25.6-3-51.2-6.3-76.6-10.8-25.5-4.5-50.8-10.9-75-20.6-24.1-9.8-47.1-23-67.3-39.6-20.2-16.5-38.2-35.5-54.9-55.4l-12-15.4c-2-2.5-4-5.1-6-7.7l-5.6-7.9-22.2-31.5c-15.2-20.4-32.4-39.3-52.6-54.5-10.1-7.5-20.8-14.3-32.2-19.6-11.3-5.4-23.3-9.4-35.7-11.8-6.2-1.1-12.4-1.9-18.7-2.3-6.3-0.4-12.6-0.4-18.9 0.1-6.3 0.4-12.6 1.3-18.8 2.7-6.2 1.3-12.4 3-18.1 5.4l-0.1 0.1c-0.9 0.3-1.9-0.1-2.3-1-0.3-0.8 0.1-1.8 0.9-2.2z"/>
					</g>
					<g>
						<path class="s1" d="m529 244.1c15.9-26.3 35.5-49.9 56-72.7 6.3-7.1 17.9-2.4 17.8 7-0.8 39.5 18 79.6 42.5 111.9 31.1 41.1 71.4 74.8 100.6 117.4 60.1 87.5 65.9 201.4 53.3 306.8-12.7 105.4-41.7 209-43.7 315.1-1 50.6 4.5 102.5 26.5 148.1 21.6 44.7 61 82.8 109.3 93.9 1.4 0.3 2.2 1.8 1.7 3.1-0.3 0.8-1 1.4-1.8 1.5-61.6 9.7-121.9-36.8-146.1-94.5-24.5-58-20-124-9.6-186.1 10.4-62.1 26.4-124.1 23.5-187-2.8-62.8-25.1-124.6-62.9-174.9-34.4-45.8-80.5-81.2-120.5-122.1-40-40.9-75.5-91-79.6-148.1-3-41.9 11.4-83.5 33-119.4z"/>
						<path class="s4" d="m544.9 276.9c2.2 10.9 5.6 21.7 9.7 32.2 4.1 10.5 8.6 20.8 14 30.7 2.5 5 5.4 9.9 8.2 14.7 2.8 4.9 6 9.6 9 14.3 3.1 4.7 6.4 9.3 9.6 13.9l10.3 13.3c3.6 4.4 7.3 8.6 10.9 12.9 3.7 4.3 7.7 8.3 11.5 12.4 7.7 8.2 15.9 16.2 23.8 24.5 15.8 16.4 31.5 33.2 45.7 51.4 28.4 36.3 49 78.9 59.3 123.7 11.2 44.7 14.8 90.6 15.2 136.2 0.1 1-0.7 1.8-1.7 1.8-0.9 0-1.7-0.7-1.7-1.7l-2.2-34c-1.1-11.3-2.2-22.6-3.5-33.9-3.3-22.4-6.8-44.8-12.9-66.6-2.6-11-6.5-21.6-10-32.3-4.2-10.4-8.2-21-13.4-30.9-9.9-20.2-22-39.3-35.9-57-14-17.7-29.5-34.2-45.4-50.4l-12-12.2c-4-4-8-8-11.9-12.3-3.9-4.2-8-8.3-11.7-12.7-3.7-4.4-7.4-8.8-11.1-13.3l-10.3-13.9c-3.2-4.8-6.5-9.5-9.6-14.3-3-5-6.1-9.9-8.8-15-2.7-5.1-5.6-10.1-7.9-15.3-5.1-10.4-9.3-21.1-12.9-32.1-3.5-11-6.5-22.1-7.7-33.7-0.1-1 0.5-1.9 1.5-2 0.9-0.1 1.7 0.6 1.9 1.4z"/>
					</g>
					<g>
						<path class="s1" d="m232.6 1007.5c-4.1-2.3-4.5-8.2-0.7-11 10.4-7.7 28.6-24.1 44-53.4 15.4-29.4 56.6-93.3 144.3-77.7 87.7 15.5 118.3 169.3 137.4 320.8 19.2 151.5 190.8 204.8 190.8 204.8l46.1 17.3c0 0-163.3-24.8-226.7-137.8-63.5-113-56.2-288.8-156.1-284.9-95.8 3.7-108.4 61.4-179.1 21.9z"/>
						<path class="s5" d="m231.2 1006.5c4.3-0.1 8.6-0.9 12.8-2.1 2.2-0.5 4.2-1.3 6.3-2 2-0.7 4-1.6 6-2.5 7.8-3.8 14.9-9 21-15.2 6-6.2 11-13.4 15.2-20.9 1-2 1.9-4 2.8-5.9l2.8-6 1.5-3.1 1.6-3.1c1.1-2 2.3-3.9 3.5-5.8 4.9-7.7 10.7-14.8 17.1-21.3 6.3-6.4 13.2-12.4 20.9-17.4 7.6-5 15.9-9.2 24.7-12 2.2-0.7 4.4-1.5 6.6-2l6.9-1.3 6.9-0.6c1.2-0.2 2.3-0.1 3.5-0.1l3.5 0.1c2.3-0.1 4.6 0.3 6.9 0.7 2.4 0.3 4.7 0.6 6.9 1.3 2.2 0.6 4.5 1.1 6.7 1.9l6.5 2.6c8.3 4 16.2 8.9 22.9 15.2 13.7 12.1 24.4 27 33.2 42.6 1.1 2 2.3 3.9 3.3 5.9l3 6c1.9 4 4.1 8 5.8 12.1l5.3 12.3c1.7 4.2 3.2 8.4 4.7 12.6 3.2 8.3 5.6 16.9 8.4 25.4 2.6 8.5 4.8 17.1 7.1 25.7 0.1 0.5-0.2 1-0.7 1.1-0.4 0.2-0.9-0.1-1.1-0.6l-4.1-12.6c-1.4-4.2-2.6-8.5-4.2-12.7-3.1-8.3-5.8-16.7-9.4-24.8-6.4-16.5-14.1-32.4-23-47.5-9-15-19.5-29.3-32.6-40.6-1.7-1.3-3.2-2.8-5-4.1l-5.2-3.6c-1.8-1.4-3.7-2.3-5.5-3.3l-2.8-1.5c-1-0.6-1.9-1.1-2.9-1.4l-5.9-2.4c-2-0.7-4.1-1.1-6.1-1.7-2-0.7-4.1-0.9-6.2-1.2-2.1-0.3-4.2-0.6-6.3-0.6h-3.2c-1-0.1-2.1-0.1-3.1 0l-6.4 0.6-6.2 1.2c-2.1 0.4-4.1 1.2-6.1 1.7-8.2 2.6-15.9 6.5-23.2 11.2-14.4 9.4-27 22-36.8 36.2-1.2 1.8-2.4 3.6-3.5 5.5l-1.6 2.8-1.4 2.8c-2 3.9-4 8.1-6.2 12.1-4.6 7.8-10.1 15.1-16.6 21.5-13.3 12.4-30.9 20.5-49.1 20.3-0.4 0-0.7-0.4-0.7-0.8 0-0.4 0.3-0.7 0.7-0.7z"/>
					</g>
				</g>
			</g>
			<g>
				<g>
					<path class="s6" d="m1969.9 1371.2c0 14.7-12.1 26.7-26.8 26.7h-1444.1c-14.6 0-26.7-12-26.7-26.7l-12-829.9c0-14.6 17.3-43.3 49-41.1l1411.3-36.5c18.5-0.5 36.3 6.6 49.3 19.6 13.1 13 20.2 30.8 19.8 49.2z"/>
					<path class="s7" d="m1943.5 1345.6c0 13.9-11.4 25.3-25.3 25.3h-1384.3c-13.9 0-25.3-11.4-25.3-25.3l-11.3-753.3c1.3-45.4 41.1-61.7 65.1-60.7l1352.7-36.3c13-0.3 25.5 4.6 34.7 13.8 9.1 9.1 14.1 21.7 13.8 34.6z"/>
					<g>
						<path class="s8" d="m523.6 986.3c-1.3 0-2.3-1-2.3-2.2l-0.9-61.1c0-1.3 1-2.4 2.2-2.4 1.2 0 2.4 1 2.4 2.3l0.9 61.1c0 1.3-1 2.3-2.3 2.3q0 0 0 0z"/>
						<path class="s9" d="m521.4 836.6c-1.3 0-2.3-1-2.3-2.3l-3.5-234c0.1-15.7 4.9-28.2 14.4-37.3 17.3-16.5 44.2-15.7 45.3-15.6l432-11.6c1.2 0 2.3 0.9 2.3 2.2 0.1 1.3-0.9 2.3-2.2 2.4l-432.1 11.6c-1.2-0.1-26.3-0.9-42.1 14.3-8.5 8.2-12.9 19.6-13 34l3.5 234c0 1.2-1 2.3-2.3 2.3q0 0 0 0z"/>
					</g>
					<g style="opacity: .31">
						<path class="s3" d="m569.6 1303.8c1.4-62.2 0.9-613.6-2.7-661.2-3.5-47.7 70.6-56.6 184.5-62 113.9-5.3 1074.6-26.5 1099.3-28.5 55.7-4.5 67.2 78.6 61.6 259-4.2 135.5-11.1 358.8-14.3 461.5-0.9 30.6-25.9 54.9-56.5 55-231.2 0.6-1117.3 3.1-1176.3 4.9-67.9 2-96.2-4-95.6-28.7z"/>
					</g>
				</g>
				<path class="s10" d="m2050.5 1466.8h-1629.6c-20 0-36.4-16.4-36.4-36.5 0-20 16.4-36.4 36.4-36.4h1629.6c20.1 0 36.5 16.4 36.5 36.4 0 20.1-16.4 36.5-36.5 36.5z"/>
			</g>
			<g>
				<g>
					<path class="s1" d="m1433.7 892.8c-1.5 0-2.9-0.5-4-1.7-2.3-2.2-2.3-5.8 0-8.1l9.7-9.7c2.2-2.3 5.9-2.3 8.1 0 2.3 2.2 2.3 5.8 0 8.1l-9.7 9.7c-1.1 1.2-2.6 1.7-4.1 1.7z"/>
					<path class="s1" d="m1365.5 961c-1.4 0-2.9-0.5-4-1.7-2.3-2.2-2.3-5.8 0-8.1l17-17c2.3-2.3 5.9-2.3 8.1 0 2.3 2.2 2.3 5.8 0 8.1l-17 17c-1.1 1.2-2.6 1.7-4.1 1.7zm34.1-34.1c-1.4 0-2.9-0.5-4-1.7-2.3-2.2-2.3-5.8 0-8.1l17-17c2.3-2.3 5.9-2.3 8.1 0 2.3 2.2 2.3 5.8 0 8.1l-17 17c-1.1 1.2-2.6 1.7-4.1 1.7z"/>
					<path class="s1" d="m1338.7 987.8c-1.1 0-2.2-0.3-3.2-1l-11.4-7.7c-2.6-1.8-3.3-5.4-1.5-8 1.7-2.6 5.3-3.3 7.9-1.5l7.5 5.1 6.4-6.4c2.3-2.3 5.9-2.3 8.1 0 2.3 2.2 2.3 5.8 0 8.1l-9.7 9.7c-1.1 1.1-2.6 1.7-4.1 1.7z"/>
					<path class="s1" d="m1306 965.7c-1.1 0-2.2-0.4-3.2-1l-21.3-14.5c-2.6-1.7-3.3-5.3-1.5-7.9 1.7-2.7 5.3-3.3 7.9-1.6l21.3 14.5c2.7 1.7 3.4 5.3 1.6 7.9-1.1 1.7-2.9 2.6-4.8 2.6zm-42.6-28.9c-1.1 0-2.2-0.3-3.2-1l-21.3-14.4c-2.6-1.8-3.3-5.4-1.5-8 1.8-2.6 5.3-3.3 8-1.5l21.2 14.4c2.7 1.8 3.4 5.4 1.6 8-1.1 1.6-2.9 2.5-4.8 2.5zm-42.6-28.8c-1.1 0-2.2-0.4-3.2-1l-21.3-14.4c-2.6-1.8-3.3-5.4-1.5-8 1.8-2.7 5.3-3.3 8-1.6l21.3 14.5c2.6 1.7 3.3 5.3 1.5 7.9-1.1 1.7-2.9 2.6-4.8 2.6z"/>
					<path class="s1" d="m1156.8 880.9c-1.5 0-3-0.6-4.2-1.8-2.1-2.3-2-6 0.3-8.2l10-9.4c1.9-1.9 4.9-2.1 7.1-0.6l11.5 7.7c2.6 1.8 3.3 5.4 1.5 8-1.8 2.6-5.4 3.3-8 1.5l-7.6-5.1-6.6 6.3c-1.1 1-2.6 1.6-4 1.6z"/>
					<path class="s1" d="m966.7 1060.9c-1.5 0-3.1-0.6-4.2-1.8-2.2-2.3-2.1-5.9 0.2-8.1l19-18c2.3-2.2 6-2.1 8.2 0.2 2.1 2.3 2 6-0.3 8.2l-19 18c-1.1 1-2.5 1.5-3.9 1.5zm38-36c-1.5 0-3-0.6-4.2-1.8-2.1-2.3-2-5.9 0.3-8.1l19-18c2.3-2.2 5.9-2.1 8.1 0.2 2.2 2.3 2.1 6-0.2 8.1l-19 18.1c-1.2 1-2.6 1.5-4 1.5zm38-36c-1.5 0-3-0.6-4.1-1.8-2.2-2.3-2.1-5.9 0.2-8.1l19-18c2.3-2.2 5.9-2.1 8.1 0.2 2.2 2.3 2.1 5.9-0.2 8.1l-19 18c-1.1 1.1-2.5 1.6-4 1.6zm38.1-36c-1.6 0-3.1-0.6-4.2-1.8-2.2-2.3-2.1-5.9 0.2-8.1l19-18c2.3-2.2 6-2.1 8.1 0.2 2.2 2.3 2.1 5.9-0.2 8.1l-19 18c-1.1 1.1-2.5 1.6-3.9 1.6zm38-36c-1.5 0-3-0.6-4.2-1.8-2.2-2.3-2.1-6 0.2-8.1l19.1-18c2.3-2.2 5.9-2.1 8.1 0.2 2.2 2.3 2.1 5.9-0.2 8.1l-19.1 18c-1.1 1.1-2.5 1.6-3.9 1.6z"/>
					<path class="s1" d="m937.7 1088.4c-1.5 0-2.9-0.5-4-1.6l-9.9-9.6c-2.3-2.2-2.3-5.9-0.1-8.1 2.2-2.3 5.8-2.4 8.1-0.1l5.9 5.7 6-5.7c2.3-2.1 6-2 8.1 0.3 2.2 2.3 2.1 5.9-0.2 8.1l-10 9.5c-1.1 1-2.5 1.5-3.9 1.5z"/>
					<path class="s1" d="m912 1063.4c-1.5 0-2.9-0.5-4-1.6l-15.9-15.4c-2.2-2.2-2.3-5.9-0.1-8.1 2.2-2.3 5.9-2.4 8.1-0.1l15.9 15.3c2.2 2.3 2.3 5.9 0.1 8.2-1.2 1.1-2.6 1.7-4.1 1.7z"/>
					<path class="s1" d="m880.3 1032.6c-1.4 0-2.9-0.5-4-1.6l-6.2-6.1-6.9 5.4c-2.5 2-6.1 1.6-8-0.9-2-2.5-1.6-6.1 0.9-8.1l10.8-8.5c2.2-1.8 5.5-1.7 7.5 0.3l9.9 9.6c2.3 2.3 2.3 5.9 0.1 8.2-1.1 1.1-2.6 1.7-4.1 1.7z"/>
					<path class="s1" d="m763 1108.6c-1.7 0-3.4-0.8-4.5-2.2-2-2.5-1.6-6.1 0.9-8.1l24.2-19.2c2.5-2 6.1-1.6 8.1 0.9 1.9 2.5 1.5 6.1-1 8.1l-24.1 19.2c-1.1 0.8-2.3 1.3-3.6 1.3zm48.3-38.5c-1.7 0-3.3-0.8-4.5-2.2-1.9-2.5-1.5-6.1 0.9-8.1l24.2-19.2c2.5-2 6.1-1.6 8.1 0.9 2 2.5 1.5 6.1-0.9 8.1l-24.2 19.2c-1.1 0.9-2.3 1.3-3.6 1.3z"/>
					<path class="s1" d="m728.1 1136.4c-1.7 0-3.4-0.8-4.5-2.2-2-2.5-1.6-6.1 0.9-8.1l10.8-8.5c2.4-2 6.1-1.6 8 0.9 2 2.5 1.6 6.1-0.9 8l-10.8 8.6c-1 0.9-2.3 1.3-3.5 1.3z"/>
				</g>
				<path class="s1" d="m956 1079.3c0 9.7-7.9 17.6-17.6 17.6-9.7 0-17.6-7.9-17.6-17.6 0-9.7 7.9-17.6 17.6-17.6 9.7 0 17.6 7.9 17.6 17.6z"/>
				<path class="s1" d="m886.2 1019.3c0 9.7-7.8 17.6-17.5 17.6-9.8 0-17.6-7.9-17.6-17.6 0-9.7 7.8-17.6 17.6-17.6 9.7 0 17.5 7.9 17.5 17.6z"/>
				<path class="s1" d="m744.8 1129.7c0 9.7-7.8 17.6-17.6 17.6-9.7 0-17.6-7.9-17.6-17.6 0-9.7 7.9-17.6 17.6-17.6 9.8 0 17.6 7.9 17.6 17.6z"/>
				<path class="s1" d="m1357 980.5c0 9.8-7.9 17.6-17.6 17.6-9.7 0-17.6-7.9-17.6-17.6 0-9.7 7.9-17.6 17.6-17.6 9.7 0 17.6 7.9 17.6 17.6z"/>
				<path class="s1" d="m1184.6 866.2c0 9.8-7.9 17.6-17.6 17.6-9.7 0-17.6-7.8-17.6-17.6 0-9.7 7.9-17.6 17.6-17.6 9.7 0 17.6 7.9 17.6 17.6z"/>
			</g>
			<g>
				<g>
					<g>
						<path class="s11" d="m1886.8 1396.8c10.2 0.9 27.8 2.3 41.7 2.8 8.4 0.4 13.2-0.5 15.9-1.6q0 0.5 0 0.9c-0.1 1.5-1.2 2.6-2.7 2.7-26.3 1.6-47.1 0.7-54.6 0.2-1.5-0.1-2.4-1.7-1.7-3q0.6-1 1.4-2z"/>
						<path class="s12" d="m1928.5 1399.6c-13.9-0.5-31.5-1.9-41.7-2.8 10-12.2 41.6-20.6 41.6-20.6h9c6.2 8.8 7.1 17.3 7 21.8-2.7 1.1-7.5 2-15.9 1.6z"/>
						<path class="s13" d="m1941.9 1359.5l-3.8 20c-0.4 2.2-2 3.8-3.8 3.9-1.9 0-4.2-0.3-6.6-1.7-1.5-0.9-2.4-2.6-2.4-4.6l0.1-20.1z"/>
					</g>
					<g>
						<g>
							<path class="s14" d="m2051.3 1413.9c4.5 0.1 6.8-1.9 8-4.2q0 0 0 0.1c0.3 2.6-1.6 5-4.8 5.8-3.8 1-7.8 0.7-10.8 0.1-3.2-0.6-6-2.4-7.4-4.8 3.1 2.1 7.6 3 15 3z"/>
							<path class="s15" d="m2036.3 1373.3l7.4 1.1c11.1 1.4 14.6 25.9 15.6 35.3-1.2 2.3-3.5 4.3-8 4.2-7.4 0-11.9-0.9-15-3-4.8-8.8-6.1-20.8-6.5-27.8-0.5-7.9 6.5-9.8 6.5-9.8z"/>
						</g>
						<path class="s16" d="m2045 1359l1.6 16.7c0.2 2.1-1 4-3 4.7-2.4 0.8-5.8 1.5-8.7 0.8-1.3-0.4-2.3-1.6-2.6-2.9l-3.4-17.9z"/>
					</g>
					<path class="s9" d="m2049.1 1364.4c-5.7 3.7-22.2 1.9-22.2 1.9-38.2-150.6-59.4-174.3-59.4-174.3 0.6 54.8-24 172.3-24 172.3-10.4 2.9-22.3-3.3-22.3-3.3 12.1-87.8 9.9-166.2 2.9-228.8 40.1 5 63.3-5.5 71.1-10 25.3 58.6 53.9 242.2 53.9 242.2z"/>
					<path class="s17" d="m2009 957.6c2 38.8-10.6 105.9-16.9 136.4-1.8 8.6 2.5 21.5 6.2 30.4 0.5 1.4-0.2 3-1.6 3.5-8.8 3-38.4 11.9-70.8 8.8-2.1-0.2-3.8-2-4.1-4.1-10.7-92.4-30-153.3-30-153.3 37.8-44.3 117.2-21.7 117.2-21.7z"/>
					<path class="s18" d="m1964 1188.1q0.5 0.1 1-0.2c1-0.4 1.4-1.5 1-2.5-0.2-0.5-6.1-14-20.4-23.8-0.9-0.5-2.1-0.3-2.7 0.6-0.6 0.8-0.4 2 0.5 2.6 13.4 9.1 19 22 19.1 22.1 0.3 0.7 0.8 1.1 1.5 1.2z"/>
					<g>
						<path class="s19" d="m2040.5 1072.8c-5 17.2-15 35.3-32.4 53.6l-4.8-5.3c0 0 10.1-24.6 10.8-54.2 9.1-0.4 19.3 2.9 26.4 5.9z"/>
						<path class="s20" d="m1993.7 1002.9l15.3-45.3c0 0 50.1 51.4 31.5 115.2-7.1-3-17.3-6.3-26.4-5.9 0.5-21.2-3.9-45-20.4-64z"/>
					</g>
					<g>
						<path class="s21" d="m1891.8 979.3l14.9 50.1c-7.7 27.8-24.7 37.8-41.8 40.1 0.9-13.1-0.8-24-2.8-31.6 24.1-18.6 29.7-58.6 29.7-58.6z"/>
						<path class="s22" d="m1862.1 1037.9c2 7.6 3.7 18.5 2.8 31.6-46.2 10.5-53-24.1-53-24.1l8.3-0.2c18 4.6 31.6 0.6 41.9-7.3z"/>
					</g>
					<path class="s23" d="m1920.4 924.4l4.9 40.2c0.5 4.5 4.9 7.5 9.3 6.4 4.8-1.1 10.8-2.7 16.2-4.6 5.6-2.1 8.3-8.6 5.7-14.1l-17.1-35.8z"/>
				</g>
				<g>
					<path class="s24" d="m1901.8 891.6c-0.2 0.7 2.2 45.4 2.2 45.4l25.6-1.9 3.9-42.8c0 0-28.5-11.6-31.7-0.7z"/>
					<path class="s25" d="m1926.6 900.9l-0.3 22.7q-0.1 0.4-0.2 0.8c-0.5 1.8-2.7 7.5-8.4 4.9-5.2-2.3-10-4.4-13.6-3.8-1.6 0.2-2.8 1.6-2.7 3.3 0.2 4 0.9 13.2 2.7 21.1 0.4 1.5 1.9 2.6 3.5 2.4 4.9-0.7 15.2-2.4 23.1-5.7 1.1-0.5 1.9-1.5 2-2.6 0.6-5.7 2.4-22.8 3.7-27.6 1.2-4.4 7.1-6.2 9.6-6.9 0.8-0.2 1.5-0.7 2-1.4 1.5-2.6 4-8.8-3.7-12.7-1.7-0.8-2.3-2.7-1.4-4.3 1.7-3.2 2.9-8.2-2.9-11.9-6-3.8-11.3-1.1-14.2 1.2-1.2 1-2.9 0.9-4.1-0.1-0.7-0.5-1.6-0.8-2.8-0.3-1.7 0.7-3.6-0.2-4.2-2-1.1-3.3-3.7-7.1-10.1-7-11.3 0.3-14.4 12.4-12.5 20 1.8 7.6 14.1 6.6 20.6 3.9 5-2.1 10.4 1.6 12.7 3.6 0.8 0.6 1.2 1.5 1.2 2.4z"/>
					<path class="s26" d="m1936.2 924.7c0 0-2.7-13.4 2.4-15.8 5.2-2.5 11.9 0.2 9 9.2-3.6 11.2-11.4 6.6-11.4 6.6z"/>
				</g>
				<path class="s27" d="m1814.3 1051.9c-2.5 1.4-9.5-3.3-13.7-6.5-2.1-1.5-2.8-4.3-1.7-6.6 1.6-3.4 4.2-7.6 6.5-7.9 3.9-0.3 19 15.2 8.9 21z"/>
				<g>
					<g>
						<path class="s28" d="m2170.2 1213.1l-546.1-289.9-43 80.2 545.1 295.6c11.5 6.2 25.9 3.3 34.1-7 8.5-10.6 17.6-27.7 21.9-54.7 1.6-9.8-3.3-19.6-12-24.2z"/>
						<g>
							<path class="s29" d="m1449.1 875.1l78.1 21.5c-1.7 10.9-7.4 24.6-21.9 39l-60-53.6c-3.2-2.9-0.4-8.1 3.8-6.9z"/>
							<path class="s30" d="m1624.1 923.2c-4.2 53.6-43 80.2-43 80.2l-75.8-67.8c14.5-14.4 20.2-28.1 21.9-39z"/>
						</g>
					</g>
					<path class="s31" d="m2159.2 1238c0.7 0.1 1.4-0.2 1.8-0.9 0.4-0.8 0.1-1.9-0.8-2.3l-522.6-276.1c-0.8-0.4-1.8-0.1-2.3 0.7-0.4 0.9-0.1 1.9 0.7 2.3l522.6 276.1q0.3 0.1 0.6 0.2z"/>
					<path class="s32" d="m2144.8 1269.8c0.7 0.1 1.4-0.2 1.7-0.9 0.5-0.8 0.2-1.9-0.7-2.3l-522.6-276.1c-0.8-0.4-1.8-0.1-2.3 0.7-0.4 0.9-0.1 1.9 0.7 2.4l522.6 276q0.3 0.2 0.6 0.2z"/>
				</g>
				<path class="s33" d="m2005.7 1120.7l-25.2-5.9-12.5 8.6c0 0 2.1 4 10.6 3.1 8.4-0.9 19.7 0.3 19.7 0.3 0 0 10.5 6.7 12-2.8z"/>
			</g>
			<g>
				<g>
					<g>
						<path class="s3" d="m1508.6 315.5q-0.5 0-0.9-0.1c-1.1-0.5-1.7-1.8-1.3-3 1.1-2.9 2.3-5.8 3.5-8.6 0.5-1.2 1.9-1.7 3-1.2 1.2 0.5 1.7 1.9 1.2 3-1.2 2.8-2.3 5.6-3.4 8.4-0.3 0.9-1.2 1.5-2.1 1.5z"/>
						<path class="s3" d="m1868.5 287.9c-0.8 0-1.6-0.4-2-1.1-3-5.4-6.3-10.6-9.9-15.7-0.7-1-0.4-2.4 0.6-3.2 1-0.7 2.5-0.4 3.2 0.6 3.6 5.2 7 10.6 10.1 16 0.6 1.1 0.2 2.5-0.9 3.1q-0.5 0.3-1.1 0.3zm-342.3-7.8q-0.6 0-1.2-0.3c-1.1-0.7-1.4-2.1-0.8-3.2 3.4-5.3 7-10.5 10.9-15.5 0.8-1 2.2-1.2 3.2-0.4 1 0.7 1.2 2.2 0.4 3.2-3.7 4.9-7.3 10-10.6 15.2-0.4 0.6-1.1 1-1.9 1zm313.1-31.5c-0.6 0-1.3-0.2-1.7-0.7-4.2-4.3-8.6-8.6-13.1-12.5l-0.3-0.3c-1-0.8-1.1-2.2-0.2-3.2 0.8-1 2.3-1.1 3.2-0.2l0.3 0.2c4.6 4.1 9.2 8.4 13.4 12.8 0.9 0.9 0.9 2.4-0.1 3.3-0.4 0.4-1 0.6-1.5 0.6zm-282.1-6.4c-0.6 0-1.2-0.3-1.7-0.7-0.9-1-0.8-2.4 0.1-3.3 4.5-4.4 9.3-8.5 14.3-12.4 0.9-0.8 2.4-0.7 3.2 0.3 0.8 1 0.6 2.5-0.4 3.3-4.8 3.8-9.5 7.9-13.9 12.1-0.5 0.4-1 0.7-1.6 0.7zm244.1-24.6q-0.6 0-1.2-0.4c-5.2-3.3-10.6-6.4-16.1-9.1-1.1-0.6-1.5-2-1-3.1 0.6-1.1 2-1.6 3.1-1 5.6 2.8 11.1 6 16.5 9.3 1 0.7 1.4 2.1 0.7 3.2-0.5 0.7-1.2 1.1-2 1.1zm-204.8-4.7c-0.8 0-1.6-0.5-2-1.2-0.7-1.1-0.3-2.5 0.8-3.1 5.5-3.1 11.2-6 16.9-8.6 1.2-0.5 2.5 0 3 1.1 0.6 1.2 0.1 2.6-1.1 3.1-5.6 2.5-11.2 5.3-16.5 8.4q-0.5 0.3-1.1 0.3zm160.5-16.2q-0.3 0-0.7-0.1c-5.8-1.9-11.8-3.6-17.8-4.9-1.3-0.3-2-1.5-1.8-2.8 0.3-1.2 1.5-2 2.8-1.7 6.1 1.4 12.3 3.1 18.2 5 1.2 0.4 1.9 1.7 1.5 2.9-0.3 1-1.2 1.6-2.2 1.6zm-115.3-2.6c-1 0-1.9-0.7-2.2-1.7-0.3-1.2 0.4-2.5 1.6-2.8 6.1-1.7 12.3-3.1 18.5-4.2 1.2-0.2 2.4 0.6 2.6 1.9 0.3 1.2-0.6 2.4-1.8 2.6-6.1 1.1-12.1 2.5-18.1 4.1q-0.3 0.1-0.6 0.1zm67.2-6.8q-0.1 0-0.1 0c-6.2-0.4-12.4-0.5-18.5-0.4-1.3 0-2.4-1-2.4-2.2 0-1.3 1-2.3 2.3-2.4 6.2-0.1 12.6 0 18.9 0.4 1.2 0.1 2.2 1.2 2.1 2.5-0.1 1.2-1.1 2.1-2.3 2.1z"/>
						<path class="s3" d="m1884.5 324.2c-1 0-1.9-0.6-2.2-1.6-0.9-2.9-2-5.7-3-8.6-0.5-1.1 0.1-2.5 1.3-2.9 1.2-0.5 2.5 0.1 3 1.3 1.1 2.9 2.1 5.9 3.1 8.8 0.4 1.2-0.3 2.5-1.5 2.9q-0.4 0.1-0.7 0.1z"/>
					</g>
					<g>
						<path class="s3" d="m1870.6 480.6q-0.5 0-1.1-0.3c-1.1-0.6-1.5-2-0.9-3.1 1.4-2.7 2.8-5.4 4.1-8.1 0.6-1.2 1.9-1.6 3.1-1.1 1.1 0.6 1.6 1.9 1.1 3.1-1.4 2.8-2.8 5.5-4.3 8.3-0.4 0.7-1.2 1.2-2 1.2z"/>
						<path class="s3" d="m1686.6 585.4q-0.1 0-0.1 0c-6.2-0.3-12.4-0.8-18.6-1.7-1.2-0.1-2.1-1.3-1.9-2.6 0.1-1.2 1.3-2.1 2.5-1.9 6 0.8 12.1 1.3 18.2 1.6 1.2 0 2.2 1.1 2.2 2.4-0.1 1.2-1.1 2.2-2.3 2.2zm29.8-1c-1.1 0-2.1-0.9-2.2-2.1-0.2-1.2 0.7-2.4 2-2.5 6-0.7 12.1-1.6 18-2.8 1.2-0.3 2.4 0.6 2.7 1.8 0.2 1.2-0.6 2.5-1.8 2.7-6.1 1.2-12.3 2.2-18.4 2.9q-0.1 0-0.3 0zm-77.4-6.9q-0.3 0.1-0.6 0c-6-1.8-11.9-3.8-17.7-6.1-1.1-0.5-1.7-1.8-1.2-3 0.4-1.1 1.8-1.7 2.9-1.3 5.6 2.3 11.4 4.2 17.2 5.9 1.3 0.4 2 1.7 1.6 2.9-0.3 1-1.2 1.6-2.2 1.6zm124.4-4c-0.9 0-1.8-0.6-2.1-1.6-0.5-1.1 0.1-2.5 1.3-2.9 5.7-2.1 11.4-4.4 16.8-7 1.2-0.6 2.5-0.1 3.1 1.1 0.5 1.1 0 2.5-1.1 3-5.6 2.7-11.4 5.1-17.2 7.2q-0.4 0.2-0.8 0.2zm-168.7-15q-0.6 0-1.1-0.3c-5.4-3.1-10.6-6.5-15.7-10.1-1-0.8-1.2-2.2-0.5-3.2 0.7-1.1 2.2-1.3 3.2-0.6 4.9 3.6 10.1 6.9 15.3 9.9 1.1 0.7 1.4 2.1 0.8 3.2-0.4 0.7-1.2 1.1-2 1.1zm211.7-6.9c-0.8 0-1.5-0.4-1.9-1-0.7-1.1-0.5-2.5 0.6-3.2 5-3.4 9.9-7.1 14.6-10.9 1-0.8 2.4-0.7 3.2 0.3 0.8 1 0.7 2.4-0.3 3.3-4.8 3.9-9.8 7.6-14.9 11.1q-0.6 0.4-1.3 0.4zm-250.1-22.2c-0.6 0-1.2-0.3-1.6-0.7-4.5-4.3-8.8-8.9-12.8-13.5-0.8-1-0.7-2.4 0.3-3.3 0.9-0.8 2.4-0.7 3.2 0.3 3.9 4.5 8.1 9 12.5 13.2 0.9 0.9 0.9 2.4 0 3.3-0.4 0.4-1 0.7-1.6 0.7zm286.5-9.5c-0.6 0-1.1-0.2-1.5-0.6-1-0.8-1.1-2.3-0.2-3.2q1.2-1.4 2.4-2.7c3.2-3.7 6.3-7.5 9.2-11.3 0.7-1 2.2-1.2 3.2-0.5 1 0.8 1.2 2.2 0.4 3.2-2.9 4-6.1 7.8-9.3 11.6q-1.2 1.4-2.5 2.8c-0.5 0.5-1.1 0.7-1.7 0.7zm-316.9-28c-0.7 0-1.5-0.4-1.9-1.1-3.3-5.2-6.4-10.7-9.1-16.2-0.6-1.1-0.2-2.5 1-3.1 1.1-0.6 2.5-0.1 3.1 1 2.7 5.4 5.7 10.8 8.9 15.9 0.7 1.1 0.3 2.5-0.7 3.1q-0.6 0.4-1.3 0.4z"/>
						<path class="s3" d="m1505.5 448.1c-1 0-1.9-0.6-2.2-1.5-0.9-3-1.8-6-2.7-8.9-0.3-1.3 0.4-2.5 1.6-2.9 1.3-0.3 2.5 0.4 2.9 1.6 0.8 2.9 1.7 5.9 2.6 8.7 0.4 1.2-0.3 2.5-1.5 2.9q-0.3 0.1-0.7 0.1z"/>
					</g>
					<g>
						<path class="s3" d="m1543.4 405.8c0.1 1 0.8 1.9 1.7 2.2l27.9 8.5c3.6 13.1 9.3 25.7 17.1 37.3l-11.8 26.7c-0.4 0.9-0.2 2 0.6 2.7l25.5 23.8c0.8 0.6 1.9 0.8 2.8 0.3l25.7-13.7c12.1 7 25.2 11.7 38.5 14.3l10.5 27.2c0.4 0.9 1.3 1.6 2.3 1.5l34.9-1.3c1 0 1.9-0.7 2.2-1.7l8.5-27.8c13.1-3.6 25.8-9.3 37.4-17.1l26.6 11.8c0.9 0.4 2 0.2 2.7-0.6l23.8-25.6c0.7-0.7 0.8-1.8 0.3-2.7l-13.7-25.7c7-12.2 11.7-25.2 14.4-38.5l27.1-10.5c1-0.4 1.6-1.3 1.5-2.3l-1.2-34.9c-0.1-1.1-0.8-1.9-1.7-2.2l-27.9-8.5c-3.6-13.1-9.3-25.8-17.1-37.4l11.8-26.6c0.4-0.9 0.2-2-0.6-2.7l-25.6-23.8c-0.7-0.7-1.8-0.8-2.7-0.4l-25.7 13.7c-12.1-6.9-25.2-11.7-38.5-14.3l-10.5-27.1c-0.4-1-1.3-1.6-2.3-1.6l-34.9 1.3c-1 0.1-1.9 0.7-2.2 1.7l-8.5 27.9c-13.1 3.5-25.8 9.3-37.4 17.1l-26.6-11.8c-0.9-0.4-2-0.2-2.7 0.5l-23.8 25.6c-0.7 0.8-0.8 1.9-0.3 2.8l13.7 25.7c-7 12.1-11.7 25.1-14.3 38.5l-27.2 10.5c-1 0.3-1.6 1.3-1.5 2.3z"/>
						<g>
							<path class="s1" d="m1696 417.2c-5.7 0-11.4-1.4-16.5-4.3-8.1-4.4-14-11.7-16.5-20.5-2.6-8.9-1.6-18.2 2.8-26.2 4.5-8.1 11.8-14 20.6-16.6 8.8-2.5 18.1-1.5 26.2 2.9 8.1 4.4 14 11.7 16.5 20.6 2.6 8.8 1.6 18.1-2.8 26.2-4.5 8.1-11.8 13.9-20.6 16.5-3.2 0.9-6.5 1.4-9.7 1.4zm0.1-62.1c-2.6 0-5.2 0.4-7.8 1.2-7 2-12.9 6.7-16.4 13.2-3.6 6.4-4.4 13.9-2.3 20.9 2.1 7.1 6.7 13 13.2 16.5 6.5 3.5 13.9 4.4 21 2.3 7-2.1 12.9-6.8 16.4-13.2 3.6-6.5 4.4-13.9 2.3-21-2-7.1-6.7-12.9-13.2-16.4-4.1-2.3-8.6-3.5-13.2-3.5z"/>
						</g>
						<g>
							<path class="s1" d="m1696.7 470.4c-22.2 0-43.3-8.3-59.6-23.5q-1.2-1.1-2.4-2.2 0 0 0-0.1 0 0 0 0c-3.1-3.1-6.1-6.5-8.7-10.1q0-0.1-0.1-0.1 0-0.1-0.1-0.2-0.1-0.1-0.1-0.2-0.1-0.1-0.2-0.3-0.4-0.4-0.7-0.9l5.7-3.9c3.2 4.7 7 9 11.3 12.9 15.8 14.7 36.4 22.4 58 21.6 21.5-0.8 41.5-9.9 56.2-25.7 14-15.1 21.6-34.5 21.6-55q0-1.5 0-3c-0.8-21.6-10-41.6-25.8-56.3-15.8-14.7-36.4-22.3-58-21.5-21.5 0.8-41.5 9.9-56.2 25.7-10 10.7-16.9 24-19.9 38.2l-6.7-1.4c3.2-15.5 10.7-29.8 21.5-41.5 16-17.1 37.7-27.1 61.1-27.9 23.4-0.9 45.7 7.4 62.9 23.4 17.2 15.9 27.1 37.6 28 61q0 1.7 0 3.3c0 22.2-8.2 43.3-23.4 59.7-16 17.1-37.7 27-61.1 27.9q-1.6 0.1-3.3 0.1z"/>
						</g>
					</g>
				</g>
				<g>
					<g>
						<path class="s3" d="m1284.9 383.8q-0.4 0-0.8-0.1c-1.2-0.5-1.8-1.8-1.3-3 1.1-2.9 2.3-5.8 3.7-8.6 0.6-1.1 1.9-1.6 3.1-1.1 1.1 0.6 1.6 2 1 3.1-1.3 2.7-2.5 5.5-3.5 8.3-0.4 0.9-1.2 1.4-2.2 1.4z"/>
						<path class="s3" d="m1460.1 352.9c-0.7 0-1.3-0.3-1.8-0.8-3.1-3.6-6.5-7-10.1-10.1q-1.8-1.6-3.6-3.1c-1-0.7-1.2-2.2-0.4-3.2 0.8-1 2.2-1.1 3.2-0.4q1.9 1.6 3.8 3.2c3.8 3.3 7.3 6.9 10.6 10.6 0.8 1 0.7 2.4-0.2 3.2-0.5 0.4-1 0.6-1.5 0.6zm-153.6-3.5c-0.5 0-1.1-0.2-1.5-0.6-1-0.9-1-2.3-0.1-3.2 4.5-4.9 9.6-9.3 14.9-13.2 1.1-0.7 2.5-0.5 3.2 0.5 0.8 1.1 0.5 2.5-0.5 3.3-5.1 3.7-9.9 7.9-14.3 12.5-0.4 0.5-1.1 0.7-1.7 0.7zm112.1-25.6q-0.4 0-0.8-0.1c-5.9-2.3-12.1-4-18.4-5.1-1.2-0.2-2.1-1.4-1.8-2.7 0.2-1.2 1.4-2.1 2.6-1.8 6.6 1.1 13 2.9 19.2 5.3 1.2 0.4 1.8 1.8 1.3 2.9-0.3 1-1.2 1.5-2.1 1.5zm-69.3-1.5c-1 0-1.9-0.7-2.2-1.6-0.4-1.2 0.3-2.5 1.5-2.9 6.3-2.1 12.8-3.6 19.4-4.4 1.2-0.2 2.4 0.7 2.5 1.9 0.2 1.3-0.7 2.4-1.9 2.6-6.3 0.8-12.6 2.3-18.6 4.2q-0.4 0.2-0.7 0.2z"/>
						<path class="s3" d="m1480.1 388.3c-1 0-1.9-0.6-2.2-1.5-0.9-2.9-2-5.7-3.2-8.4-0.5-1.2 0.1-2.6 1.2-3.1 1.2-0.5 2.6 0.1 3.1 1.2 1.2 2.9 2.3 5.9 3.3 8.8 0.4 1.2-0.3 2.5-1.5 2.9q-0.4 0.1-0.7 0.1z"/>
					</g>
					<g>
						<path class="s3" d="m1470.7 473.4q-0.6 0-1.2-0.4c-1.1-0.6-1.4-2-0.8-3.1 1.6-2.6 3-5.2 4.3-7.9 0.5-1.2 1.9-1.7 3-1.1 1.2 0.5 1.7 1.9 1.1 3.1-1.3 2.8-2.8 5.6-4.4 8.2-0.4 0.8-1.2 1.2-2 1.2z"/>
						<path class="s3" d="m1388.2 523.8c-1.2 0-2.3-0.9-2.3-2.2-0.1-1.2 0.8-2.3 2.1-2.4 6.2-0.4 12.5-1.3 18.5-2.9 1.2-0.3 2.5 0.5 2.8 1.7 0.3 1.2-0.4 2.5-1.7 2.8-6.3 1.6-12.8 2.6-19.3 3q-0.1 0-0.1 0zm-31-2.7q-0.2 0-0.5-0.1c-6.3-1.5-12.6-3.7-18.5-6.3-1.2-0.6-1.7-1.9-1.2-3.1 0.6-1.1 1.9-1.7 3.1-1.1 5.7 2.5 11.6 4.6 17.7 6.1 1.2 0.2 2 1.5 1.7 2.7-0.3 1.1-1.2 1.8-2.3 1.8zm78.5-12.3c-0.8 0-1.5-0.3-2-1.1-0.6-1-0.3-2.4 0.8-3.1 5.3-3.3 10.3-7 15-11.2 0.9-0.9 2.4-0.8 3.2 0.1 0.9 1 0.8 2.4-0.1 3.3-4.9 4.4-10.2 8.3-15.7 11.7q-0.6 0.3-1.2 0.3zm-122.6-10.8c-0.5 0-1.1-0.2-1.5-0.6-4.9-4.4-9.4-9.1-13.4-14.3-0.8-1-0.6-2.4 0.4-3.2 1-0.8 2.4-0.6 3.2 0.4 3.8 4.9 8.1 9.5 12.8 13.7 1 0.8 1.1 2.2 0.2 3.2-0.4 0.5-1.1 0.8-1.7 0.8z"/>
						<path class="s3" d="m1284.8 456.9c-0.9 0-1.8-0.6-2.1-1.5-1.1-2.9-2.1-6-2.9-9-0.4-1.2 0.3-2.5 1.6-2.8 1.2-0.3 2.5 0.4 2.8 1.6 0.8 2.9 1.7 5.8 2.8 8.6 0.4 1.1-0.2 2.5-1.4 2.9q-0.4 0.2-0.8 0.2z"/>
					</g>
					<g>
						<path class="s3" d="m1303 429.6c0.1 0.5 0.4 1 0.9 1.1l14.5 4.4c1.8 6.8 4.8 13.4 8.9 19.4l-6.2 13.9c-0.2 0.4-0.1 1 0.3 1.4l13.3 12.3c0.4 0.4 1 0.4 1.4 0.2l13.4-7.1c6.3 3.6 13 6.1 20 7.4l5.4 14.1c0.2 0.5 0.7 0.8 1.2 0.8l18.1-0.7c0.6 0 1-0.3 1.2-0.8l4.4-14.5c6.8-1.9 13.4-4.8 19.4-8.9l13.8 6.1c0.5 0.3 1.1 0.1 1.4-0.3l12.4-13.2c0.3-0.4 0.4-1 0.1-1.5l-7.1-13.3c3.6-6.3 6.1-13.1 7.5-20l14.1-5.4c0.5-0.2 0.8-0.7 0.8-1.2l-0.7-18.2c0-0.5-0.4-0.9-0.9-1.1l-14.5-4.4c-1.8-6.8-4.8-13.4-8.8-19.4l6.1-13.8c0.2-0.5 0.1-1.1-0.3-1.4l-13.3-12.4c-0.4-0.3-0.9-0.4-1.4-0.2l-13.3 7.2c-6.3-3.6-13.1-6.1-20-7.5l-5.5-14.1c-0.2-0.5-0.7-0.8-1.2-0.8l-18.1 0.7c-0.5 0-1 0.4-1.1 0.9l-4.5 14.4c-6.8 1.9-13.3 4.9-19.3 8.9l-13.9-6.1c-0.4-0.2-1-0.1-1.4 0.3l-12.3 13.3c-0.4 0.4-0.5 0.9-0.2 1.4l7.1 13.3c-3.6 6.3-6.1 13.1-7.4 20l-14.1 5.5c-0.5 0.2-0.8 0.6-0.8 1.2z"/>
						<g>
							<path class="s1" d="m1382.2 437.2c-3.1 0-6.4-0.8-9.3-2.4-4.6-2.6-7.9-6.7-9.4-11.7-1.5-5-0.9-10.3 1.6-14.9 2.5-4.6 6.7-7.9 11.7-9.3 5-1.5 10.3-0.9 14.9 1.6 9.4 5.2 12.9 17.1 7.7 26.5-3.5 6.5-10.3 10.2-17.2 10.2zm0.1-32.2q-1.8 0-3.6 0.5c-3.2 0.9-5.9 3.1-7.5 6-1.7 3-2 6.4-1.1 9.7 1 3.2 3.1 5.9 6.1 7.5 3 1.6 6.4 2 9.6 1.1 3.3-1 5.9-3.1 7.6-6.1 1.6-3 2-6.4 1-9.6-0.9-3.3-3.1-5.9-6-7.6-1.9-1-4-1.5-6.1-1.5z"/>
						</g>
						<g>
							<path class="s1" d="m1382.6 464.8c-11.9 0-23.3-4.5-32.1-12.7-2.3-2.1-4.3-4.4-6.1-6.9q-0.1-0.1-0.1-0.1 0 0 0 0-0.1-0.1-0.1-0.2-0.1-0.1-0.3-0.3l5.7-4c1.6 2.4 3.5 4.5 5.6 6.5q0.1 0.1 0.2 0.2c7.6 6.9 17.4 10.8 27.6 10.6q0.5 0 1.1 0 0 0 0-0.1c10.8-0.3 20.7-4.9 28.1-12.8 7.2-7.7 10.7-17.6 10.7-27.4 0-10.8-4.3-21.6-12.8-29.5-16.3-15.2-41.8-14.2-57 2-4.9 5.4-8.4 12-9.9 19.1l-6.7-1.4c1.7-8.4 5.8-16.1 11.6-22.4 8.6-9.2 20.2-14.5 32.8-15 12.6-0.5 24.6 4 33.9 12.6 10 9.3 15 21.9 15 34.6 0 11.5-4.1 23-12.6 32.1-8.6 9.2-20.2 14.6-32.8 15q-0.9 0.1-1.8 0.1z"/>
						</g>
					</g>
				</g>
			</g>
			<g>
				<path class="s9" d="m2122 723.5c-24.4 0-51-1.9-68.6-5.5-13.2-2.7-20.2-6-21.3-10.2-3.6-14.6-15.6-123.6 4.2-140.7q0.4-0.3 0.9-0.3c16.4 0.6 160.6 6 169.4 17.6 9.5 12.6-16.7 119-25.7 130.9-4.2 5.6-30 8.2-58.9 8.2zm-84.4-154.1c-17.1 16.3-7.3 120.6-3 137.7 0.4 1.5 3 5.1 19.4 8.4 39 8 118.3 6.9 124.8-1.7 4.3-5.6 12.8-33.9 19.4-64.5 7.3-33.9 9.8-58.8 6.3-63.3-6.1-8-102.9-14.3-166.9-16.6z"/>
				<path class="s9" d="m2070.9 694.2h-11.6c-1.4 0-2.6-1.1-2.6-2.6v-34.6c0-1.4 1.2-2.5 2.6-2.5h11.6c1.4 0 2.5 1.1 2.5 2.5v34.6c0 1.5-1.1 2.6-2.5 2.6zm-9-5.1h6.4v-29.5h-6.4z"/>
				<path class="s9" d="m2093.7 694.2h-15.8c-1.5 0-2.6-1.1-2.6-2.6v-57.1c0-1.4 1.1-2.5 2.6-2.5h15.8c1.4 0 2.5 1.1 2.5 2.5v57.1c0 1.5-1.1 2.6-2.5 2.6zm-13.3-5.1h10.7v-52h-10.7z"/>
				<path class="s9" d="m2123.5 694.2h-22c-1.4 0-2.6-1.1-2.6-2.6v-69.2c0-1.4 1.2-2.5 2.6-2.5h22c1.4 0 2.5 1.1 2.5 2.5v69.2c0 1.5-1.1 2.6-2.5 2.6zm-19.4-5.1h16.8v-64.1h-16.8z"/>
				<path class="s9" d="m2163.2 694.2h-26.3c-1.4 0-2.6-1.1-2.6-2.6v-83.7c0-1.4 1.2-2.6 2.6-2.6h26.3c1.4 0 2.6 1.2 2.6 2.6v83.7c0 1.5-1.2 2.6-2.6 2.6zm-23.7-5.1h21.1v-78.6h-21.1z"/>
			</g>
			<g>
				<path class="s1" d="m1596.9 1210.2h-896c-1.9 0-3.4-1.6-3.4-3.5 0-1.9 1.5-3.4 3.4-3.4h896c1.9 0 3.4 1.5 3.4 3.4 0 1.9-1.5 3.5-3.4 3.5z"/>
				<path class="s1" d="m676.8 1211.3c-1.9 0-3.5-1.5-3.5-3.4v-528.4c0-1.9 1.6-3.5 3.5-3.5 1.9 0 3.4 1.6 3.4 3.5v528.4c0 1.9-1.5 3.4-3.4 3.4z"/>
				<path class="s1" d="m1602.6 1228.3q-0.8 0-1.6-0.4c-1.1-0.6-1.8-1.8-1.8-3.1v-39.9c0-1.9 1.5-3.5 3.4-3.5 1.9 0 3.5 1.6 3.5 3.5v33.4l22.8-15.5-18.2-10.7c-1.6-0.9-2.2-3-1.2-4.7 1-1.6 3.1-2.2 4.7-1.2l22.9 13.5c1 0.6 1.6 1.6 1.7 2.8 0 1.2-0.5 2.3-1.5 3l-32.8 22.2c-0.5 0.4-1.2 0.6-1.9 0.6z"/>
				<path class="s1" d="m696.3 677.2h-39c-2 0-3.5-1.6-3.5-3.5 0-1.9 1.5-3.4 3.5-3.4h32.4l-15.4-22.4-10.3 17.9c-0.9 1.7-3 2.2-4.7 1.3-1.6-1-2.2-3.1-1.2-4.7l13-22.7c0.5-1 1.6-1.7 2.8-1.7 1.2-0.1 2.3 0.5 3 1.5l22.2 32.3c0.7 1 0.8 2.4 0.2 3.5-0.6 1.2-1.8 1.9-3 1.9z"/>
			</g>
			<g>
				<g>
					<path fill-rule="evenodd" class="s34" d="m607.7 648.8c-37.4 0-67.6-30.2-67.6-67.5 0-37.4 30.2-67.6 67.6-67.6 37.3 0 67.5 30.2 67.5 67.6 0 37.3-30.2 67.5-67.5 67.5z"/>
					<path fill-rule="evenodd" class="s35" d="m607.7 646.5c-36.1 0-65.3-29.1-65.3-65.2 0-36.1 29.2-65.3 65.3-65.3 36.1 0 65.3 29.2 65.3 65.3 0 36.1-29.2 65.2-65.3 65.2z"/>
					<path class="s36" d="m553.8 556.9q-0.6 0-1.2-0.3c-1.4-0.7-1.9-2.3-1.2-3.7 10.8-21.4 32.3-34.7 56.3-34.7 3.8 0 7.6 0.4 11.3 1.1 1.5 0.2 2.5 1.7 2.2 3.2-0.2 1.5-1.7 2.4-3.1 2.2-3.4-0.7-6.9-1-10.4-1-21.9 0-41.6 12.2-51.4 31.7-0.5 0.9-1.5 1.5-2.5 1.5z"/>
					<path fill-rule="evenodd" class="s36" d="m662 598.7c-8.9 29.2-39.7 45.7-68.9 36.9-29.3-8.9-45.7-39.7-36.9-68.9 8.9-29.3 39.7-45.8 68.9-36.9 29.3 8.9 45.7 39.7 36.9 68.9z"/>
					<g>
						<path class="s37" d="m603.7 623.8v-6.1c-6.3-0.2-12.5-1.7-16.9-3.6-1.6-0.7-2.4-2.5-1.9-4.1l1.5-5.6c0.6-2.1 2.8-3.1 4.8-2.3 4.3 1.8 9.7 3.3 15.5 3.3 6.1 0 10.6-2.1 10.6-6.3 0-3.8-3.5-6-11.9-8.3-12-3.2-20.6-8.5-20.6-19 0-9.5 7-16.8 19.1-18.7v-6c0-2 1.5-3.5 3.5-3.5h3.5c1.9 0 3.5 1.5 3.5 3.5v5.4c5.8 0.2 10 1.2 13.4 2.4 1.7 0.6 2.6 2.4 2.2 4.2l-1.4 5.2c-0.6 2-2.7 3.1-4.7 2.3-3-1.1-7.4-2.4-13.1-2.4-7.1 0-9.2 3-9.2 5.7 0 3.2 4.3 5.5 13.6 8.4 13.3 3.9 18.9 9.5 18.9 19.4 0 9.1-6.8 17.3-19.9 19.3v6.8c0 1.9-1.6 3.5-3.5 3.5h-3.5c-2 0-3.5-1.6-3.5-3.5z"/>
					</g>
				</g>
				<g>
					<path fill-rule="evenodd" class="s38" d="m545.2 1003c-37.3 0-67.5-30.2-67.5-67.5 0-37.4 30.2-67.5 67.5-67.5 37.3 0 67.5 30.1 67.5 67.5 0 37.3-30.2 67.5-67.5 67.5z"/>
					<path fill-rule="evenodd" class="s39" d="m545.2 1000.8c-36.1 0-65.3-29.2-65.3-65.3 0-36.1 29.2-65.3 65.3-65.3 36.1 0 65.3 29.2 65.3 65.3 0 36.1-29.2 65.3-65.3 65.3z"/>
					<path class="s8" d="m491.4 911.1q-0.7 0-1.3-0.3c-1.3-0.7-1.9-2.3-1.2-3.7 10.8-21.3 32.4-34.6 56.3-34.6 3.8 0 7.6 0.3 11.4 1 1.5 0.3 2.4 1.7 2.2 3.2-0.3 1.5-1.7 2.5-3.2 2.2-3.4-0.6-6.9-0.9-10.4-0.9-21.8 0-41.5 12.1-51.4 31.6-0.5 1-1.4 1.5-2.4 1.5z"/>
					<path fill-rule="evenodd" class="s36" d="m601.3 944.6c-4.2 30.3-32.1 51.3-62.4 47-30.2-4.2-51.3-32.1-47-62.3 4.2-30.3 32.1-51.3 62.4-47.1 30.2 4.2 51.2 32.1 47 62.4z"/>
					<g>
						<path class="s40" d="m541.2 978v-6c-6.3-0.3-12.5-1.8-16.9-3.7-1.5-0.7-2.3-2.4-1.9-4.1l1.5-5.6c0.6-2 2.8-3.1 4.8-2.3 4.4 1.8 9.8 3.3 15.6 3.3 6 0 10.5-2.1 10.5-6.2 0-3.8-3.5-6.1-11.9-8.3-11.9-3.3-20.5-8.5-20.5-19.1 0-9.5 6.9-16.7 19-18.7v-6c0-1.9 1.6-3.5 3.5-3.5h3.5c2 0 3.5 1.6 3.5 3.5v5.4c5.8 0.2 10.1 1.2 13.4 2.4 1.7 0.6 2.7 2.5 2.2 4.2l-1.4 5.2c-0.6 2-2.7 3.1-4.6 2.4-3.1-1.2-7.5-2.4-13.1-2.4-7.2 0-9.2 2.9-9.2 5.6 0 3.3 4.3 5.5 13.6 8.4 13.3 4 18.8 9.5 18.8 19.4 0 9.1-6.8 17.3-19.9 19.4v6.7c0 1.9-1.5 3.5-3.5 3.5h-3.5c-1.9 0-3.5-1.6-3.5-3.5z"/>
					</g>
				</g>
				<g>
					<path fill-rule="evenodd" class="s41" d="m443.2 847.3c-58.3 0-105.5-47.2-105.5-105.5 0-58.4 47.2-105.5 105.5-105.5 58.3 0 105.5 47.1 105.5 105.5 0 58.3-47.2 105.5-105.5 105.5z"/>
					<path fill-rule="evenodd" class="s42" d="m443.2 843.8c-56.4 0-102-45.6-102-102 0-56.4 45.6-102 102-102 56.4 0 102 45.6 102 102 0 56.4-45.6 102-102 102z"/>
					<path class="s36" d="m359.1 701.9q-0.6 0-1.1-0.3c-1.2-0.6-1.7-2.1-1.1-3.3 16.5-32.8 49.6-53.2 86.3-53.2 5.9 0 11.7 0.6 17.4 1.6 1.4 0.3 2.3 1.5 2 2.9-0.2 1.3-1.5 2.2-2.9 2-5.4-1-10.9-1.5-16.5-1.5-34.8 0-66.2 19.3-81.9 50.4-0.4 0.9-1.3 1.4-2.2 1.4z"/>
					<path fill-rule="evenodd" class="s36" d="m506.5 805c-33.8 33.8-88.4 33.8-122.1 0-33.8-33.7-33.8-88.3 0-122.1 33.7-33.7 88.3-33.7 122.1 0 33.7 33.8 33.7 88.4 0 122.1z"/>
					<g>
						<path class="s43" d="m437 808.2v-9.4c-9.8-0.4-19.5-2.7-26.4-5.7-2.5-1.1-3.7-3.9-3-6.5l2.4-8.7c0.9-3.2 4.4-4.9 7.4-3.6 6.8 2.9 15.3 5.1 24.3 5.1 9.5 0 16.5-3.2 16.5-9.7 0-5.9-5.4-9.5-18.5-13-18.7-5.1-32.2-13.2-32.2-29.7 0-14.9 10.9-26.2 29.8-29.2v-9.4c0-3.1 2.4-5.5 5.4-5.5h5.6c3 0 5.4 2.4 5.4 5.5v8.4c9.1 0.4 15.7 1.9 20.9 3.7 2.7 1 4.2 3.9 3.4 6.6l-2.2 8.1c-0.8 3.1-4.1 4.8-7.2 3.7-4.8-1.8-11.6-3.7-20.5-3.7-11.1 0-14.3 4.6-14.3 8.8 0 5.1 6.7 8.6 21.2 13.1 20.8 6.2 29.4 14.8 29.4 30.3 0 14.3-10.5 27.1-31 30.2v10.6c0 3-2.4 5.4-5.5 5.4h-5.5c-3 0-5.4-2.4-5.4-5.4z"/>
					</g>
				</g>
				<g>
					<path fill-rule="evenodd" class="s44" d="m669.3 870.5c-44.2 0-80-35.8-80-80 0-44.3 35.8-80 80-80 44.3 0 80 35.7 80 80 0 44.2-35.7 80-80 80z"/>
					<path fill-rule="evenodd" class="s45" d="m669.3 867.8c-42.7 0-77.3-34.6-77.3-77.3 0-42.8 34.6-77.4 77.3-77.4 42.8 0 77.4 34.6 77.4 77.4 0 42.7-34.6 77.3-77.4 77.3z"/>
					<path class="s36" d="m605.6 760.8q-0.6 0-1.2-0.2c-1.2-0.7-1.7-2.2-1-3.4 12.6-25 37.9-40.6 65.9-40.6 4.5 0 9 0.4 13.3 1.2 1.4 0.2 2.3 1.5 2 2.9-0.2 1.3-1.5 2.2-2.8 2-4.1-0.8-8.3-1.1-12.5-1.1-26.1 0-49.7 14.5-61.5 37.9-0.5 0.8-1.3 1.3-2.2 1.3z"/>
					<path fill-rule="evenodd" class="s36" d="m686.1 855.8c-35.3 8.3-70.5-13.5-78.8-48.7-8.3-35.2 13.5-70.4 48.7-78.7 35.2-8.3 70.4 13.4 78.7 48.6 8.3 35.3-13.4 70.5-48.6 78.8z"/>
					<g>
						<path class="s46" d="m664.6 840.8v-7.1c-7.4-0.3-14.8-2.1-20-4.3-1.9-0.9-2.8-2.9-2.3-4.9l1.8-6.6c0.7-2.5 3.4-3.7 5.7-2.8 5.2 2.2 11.5 3.9 18.4 3.9 7.2 0 12.5-2.4 12.5-7.4 0-4.5-4.1-7.1-14-9.8-14.2-3.9-24.4-10-24.4-22.5 0-11.3 8.2-19.9 22.5-22.2v-7.1c0-2.3 1.9-4.2 4.2-4.2h4.2c2.3 0 4.1 1.9 4.1 4.2v6.4c6.9 0.2 11.9 1.4 15.9 2.8 2 0.7 3.1 2.9 2.5 5l-1.6 6.1c-0.7 2.4-3.2 3.7-5.5 2.8-3.6-1.4-8.8-2.8-15.5-2.8-8.5 0-10.9 3.5-10.9 6.7 0 3.8 5.1 6.5 16.1 9.9 15.7 4.7 22.3 11.3 22.3 23 0 10.8-8 20.5-23.5 22.9v8c0 2.3-1.9 4.2-4.2 4.2h-4.2c-2.3 0-4.1-1.9-4.1-4.2z"/>
					</g>
				</g>
			</g>
			<g>
				<g>
					<g>
						<path class="s9" d="m1033.9 265.2c0 0 0.4-0.8 1.3-2.2 0.5-0.8 1.6-1.1 2.4-0.5 0.4 0.2 0.6 0.5 0.7 0.9q1.1-0.3 2.5-0.7c0.9-0.2 1.9 0.4 2.1 1.3 0.2 0.9-0.3 1.9-1.3 2.1-2.6 0.6-4.4 1.2-5.3 1.5q-0.4 0.1-0.5 0.1l-4.1 1.1zm6.2-9.4c1.7-2.3 3.4-4.7 5.2-7 0.6-0.7 1.6-0.9 2.4-0.3 0.7 0.6 0.9 1.7 0.3 2.4-1.7 2.3-3.4 4.6-5.1 6.9-0.5 0.8-1.6 1-2.4 0.4q-0.2-0.1-0.3-0.3c-0.5-0.6-0.5-1.4-0.1-2.1zm7.9 7.3c-0.1-1 0.5-1.9 1.5-2 2.9-0.4 5.9-0.7 8.7-0.8 1-0.1 1.8 0.7 1.8 1.6 0 1-0.7 1.8-1.6 1.8-2.8 0.1-5.6 0.4-8.4 0.8-0.7 0.1-1.3-0.2-1.6-0.6q-0.3-0.4-0.4-0.8zm17.2-1.1c0.1-1 0.9-1.7 1.8-1.6 3.1 0.3 6 0.7 8.8 1.4 0.9 0.2 1.5 1.1 1.3 2.1-0.3 0.9-1.2 1.5-2.1 1.2-2.6-0.6-5.4-1-8.2-1.3-0.5 0-1-0.2-1.3-0.6-0.2-0.3-0.4-0.8-0.3-1.2zm-14.5-20c1.8-2.2 3.7-4.4 5.6-6.6 0.6-0.7 1.7-0.7 2.4-0.1 0.7 0.6 0.8 1.7 0.2 2.4-1.9 2.1-3.8 4.3-5.6 6.5-0.6 0.8-1.7 0.9-2.4 0.3q-0.1-0.2-0.2-0.3c-0.5-0.6-0.6-1.5 0-2.2zm31.3 23.5c0.3-0.8 1.4-1.2 2.2-0.8q3 1.3 5.6 3.1 1.1 0.6 2.1 1.3c0.8 0.4 1 1.5 0.5 2.3-0.5 0.8-1.5 1.1-2.3 0.6q-1.1-0.6-2.2-1.4-2.4-1.6-5.1-2.8-0.4-0.2-0.6-0.5c-0.4-0.5-0.5-1.2-0.2-1.8zm23.4 24.4c0.5-0.5 1.2-0.6 1.8-0.4 1.5-0.5 3.2-0.6 5.2-0.3 0.9 0.1 1.6 0.9 1.5 1.9-0.1 0.9-0.9 1.6-1.9 1.5-2.4-0.3-4.1 0-5.5 1.1l-2.2-2.7zm-8.4-16.1c0.4-0.9 1.4-1.3 2.3-1 2.7 1.1 5.3 1.8 7.8 2.1 0.9 0.1 1.6 1 1.5 1.9-0.1 1-1 1.6-1.9 1.5-2.8-0.3-5.7-1.1-8.7-2.3q-0.5-0.2-0.7-0.5c-0.4-0.5-0.5-1.1-0.3-1.7zm-34.8-44.7c2-2.1 4.1-4.2 6.1-6.2 0.7-0.6 1.8-0.6 2.4 0.1 0.7 0.7 0.7 1.8 0 2.4-2 2-4.1 4-6 6.1-0.7 0.7-1.8 0.7-2.5 0q-0.1-0.1-0.1-0.2c-0.6-0.6-0.5-1.6 0.1-2.2zm49.2 54.7c2.3-2.4 4.3-4.5 5.9-6.3 0.6-0.7 1.7-0.7 2.4-0.1 0.7 0.7 0.8 1.8 0.1 2.5-1.6 1.7-3.6 3.9-5.9 6.3-0.7 0.6-1.8 0.7-2.5 0q0-0.1-0.1-0.2c-0.5-0.6-0.5-1.6 0.1-2.2zm7.5 8.5c0.2-0.9 1.2-1.5 2.1-1.3 2.4 0.6 5.1 1.2 8.3 1.7 0.9 0.1 1.6 1 1.4 2-0.1 0.9-1 1.5-1.9 1.4-3.3-0.5-6.1-1.1-8.6-1.7q-0.6-0.2-1-0.6c-0.3-0.4-0.4-1-0.3-1.5zm-5.1-15.8c-0.3-0.9 0.2-1.9 1.2-2.1 2.6-0.8 4.5-2 5.8-2.8q0.8-0.5 1.3-0.7 0.3-0.2 0.5-0.3c0.9-0.3 1.8 0.2 2.1 1.1 0.3 0.9-0.2 1.9-1.1 2.3q-0.4 0.1-1 0.5c-1.3 0.9-3.6 2.3-6.7 3.2-0.7 0.2-1.4-0.1-1.8-0.6q-0.2-0.3-0.3-0.6zm-39.1-59.4c2-1.7 4-3.4 5.9-5l0.8-0.6c0.7-0.6 1.8-0.5 2.4 0.3 0.6 0.7 0.5 1.8-0.3 2.4l-0.7 0.6c-1.9 1.6-3.9 3.2-5.8 4.9-0.7 0.6-1.8 0.5-2.4-0.2q-0.1 0-0.1-0.1c-0.6-0.7-0.5-1.7 0.2-2.3zm61.2 78.1c0-1 0.8-1.7 1.7-1.7 2.8 0.1 5.6 0.1 8.5 0 0.9-0.1 1.7 0.6 1.8 1.6 0 0.9-0.7 1.7-1.6 1.8-3 0.2-6 0.2-8.8 0.1-0.5-0.1-1-0.3-1.3-0.7-0.2-0.3-0.4-0.7-0.3-1.1zm17.1-0.7c-0.1-0.9 0.5-1.8 1.5-1.9q0.9-0.2 1.8-0.3 3.2-0.6 6.4-1.4c0.9-0.3 1.8 0.2 2.1 1.1 0.2 1-0.3 1.9-1.2 2.2-2.2 0.6-4.5 1.1-6.8 1.5q-0.9 0.1-1.8 0.3c-0.7 0.1-1.3-0.2-1.6-0.7q-0.3-0.3-0.4-0.8zm-65-85.8c-0.6-0.8-0.4-1.8 0.4-2.4 2.4-1.7 4.8-3.3 7.2-4.8 0.9-0.5 1.9-0.2 2.4 0.6 0.5 0.8 0.3 1.8-0.6 2.3-2.3 1.5-4.7 3.1-7 4.7-0.8 0.5-1.8 0.4-2.4-0.3q0-0.1 0-0.1zm81.6 81.6c-0.4-0.9 0-1.9 0.9-2.3 2.5-1.2 5-2.5 7.3-4.1 0.8-0.5 1.9-0.3 2.4 0.5 0.5 0.8 0.3 1.9-0.5 2.4-2.5 1.6-5.1 3.1-7.8 4.3-0.7 0.3-1.6 0.1-2-0.5q-0.2-0.1-0.3-0.3zm-67.1-90.8c-0.4-0.8-0.1-1.9 0.7-2.3 2.6-1.4 5.3-2.6 7.9-3.8 0.9-0.3 1.9 0.1 2.3 1 0.4 0.8 0 1.8-0.9 2.2-2.6 1.1-5.1 2.3-7.7 3.7-0.7 0.3-1.6 0.1-2.1-0.5q-0.1-0.1-0.2-0.3zm81.9 79.4c2.1-1.9 4-3.9 5.9-6 0.6-0.7 1.7-0.8 2.4-0.2 0.7 0.6 0.8 1.7 0.2 2.4-1.9 2.3-4 4.4-6.2 6.3-0.7 0.7-1.8 0.6-2.4-0.1q-0.1 0-0.1-0.1c-0.6-0.7-0.5-1.7 0.2-2.3zm-66.2-86.4c-0.3-0.9 0.2-1.8 1.1-2.1 2.8-1 5.7-1.7 8.5-2.4 0.9-0.2 1.8 0.4 2 1.3 0.2 0.9-0.4 1.9-1.3 2.1-2.7 0.6-5.4 1.3-8.1 2.2-0.7 0.3-1.5 0-1.9-0.5q-0.2-0.3-0.3-0.6zm77 73.7c2.3-3.6 3.4-6.3 3.6-6.9l0.6-3.8c0.1-0.9 1-1.6 1.9-1.5 1 0.2 1.6 1 1.5 2l-0.5 3.7h-0.1c-0.3 2.4-4 8.2-4.1 8.3-0.5 0.8-1.5 1-2.3 0.5q-0.3-0.1-0.5-0.3c-0.4-0.6-0.5-1.4-0.1-2zm-60.3-77.8c-0.1-0.9 0.6-1.8 1.5-1.9 2.9-0.3 5.9-0.5 8.8-0.6 0.9 0 1.7 0.8 1.7 1.7 0 1-0.7 1.8-1.7 1.8-2.8 0-5.6 0.2-8.4 0.5-0.6 0.1-1.2-0.2-1.5-0.6q-0.3-0.4-0.4-0.9zm17.2-0.5c0.1-1 0.9-1.7 1.8-1.6 2.9 0.3 5.8 0.8 8.7 1.4 0.9 0.2 1.5 1.1 1.3 2-0.1 0.9-1.1 1.5-2 1.3-2.7-0.5-5.5-1-8.3-1.3-0.5 0-0.9-0.2-1.2-0.6-0.2-0.3-0.4-0.8-0.3-1.2zm48.5 59.1l1.3-8.5c0.1-1 1-1.6 1.9-1.5 0.9 0.1 1.6 1 1.5 2l-1.3 8.5c-0.1 0.9-1 1.6-1.9 1.4-0.5 0-0.9-0.3-1.1-0.6-0.3-0.4-0.4-0.8-0.4-1.3zm-31.7-56c0.3-0.9 1.3-1.4 2.2-1.1 2.7 0.9 5.5 1.9 8.2 3.1 0.9 0.4 1.3 1.4 0.9 2.3-0.4 0.9-1.4 1.3-2.3 0.9-2.6-1.2-5.2-2.2-7.9-3q-0.5-0.2-0.8-0.6c-0.3-0.4-0.5-1-0.3-1.6zm34.2 38.9l1.2-8.5c0.2-0.9 1-1.6 2-1.4 0.9 0.1 1.6 1 1.4 1.9l-1.2 8.5c-0.1 1-1 1.6-2 1.5-0.4-0.1-0.8-0.3-1-0.6-0.3-0.4-0.5-0.9-0.4-1.4zm-18.3-32.4c0.5-0.8 1.5-1.1 2.4-0.7 2.4 1.4 5 2.9 7.5 4.5 0.7 0.5 1 1.6 0.5 2.4-0.6 0.8-1.6 1-2.4 0.5-2.4-1.6-4.9-3-7.3-4.3q-0.3-0.2-0.5-0.5c-0.4-0.5-0.5-1.2-0.2-1.9zm14.6 9.2c0.6-0.8 1.6-1 2.4-0.4 2.2 1.7 4.4 3.5 6.6 5.3l0.7 0.7-0.1 1.1c-0.2 0.9-1 1.6-2 1.5-0.6-0.1-1.1-0.5-1.3-1.1q-3-2.5-6-4.7-0.2-0.2-0.3-0.3c-0.5-0.6-0.5-1.5 0-2.1z"/>
					</g>
					<path class="s47" d="m1201.2 240.3c0 0-17.6 33.8-43.8 23.6-26.3-10.3-50.2-27.1-62.4-21.9 0 0 46.4-58.4 106.6-15.2z"/>
					<path class="s48" d="m1270.3 281.1c0 0-4.5 37.2-16.4 41.8-11.2 4.4-95.6-3.2-103.9-3.9-0.3-0.1-0.6-0.4-0.6-0.8 0.1-3 1.5-5.9 4-7.7 12.1-8.5 48.4-33.9 61.8-38 16.2-5 55.1 8.6 55.1 8.6z"/>
					<path class="s3" d="m1180.4 316.6q0.2 0.3 0.6 0.3c0.5 0.1 46.8 3.4 66.8 4.1 3.5 0.1 6.8-1.9 8.4-5.1 2.4-5 6.9-15 9.4-25.5 0.1-0.5-0.2-0.9-0.7-1-0.4-0.1-0.9 0.1-1 0.6-2.5 10.3-6.9 20.2-9.3 25.2-1.2 2.6-3.9 4.2-6.8 4.1-19.9-0.7-66.2-4.1-66.7-4.1-0.4 0-0.8 0.3-0.9 0.8q0 0.4 0.2 0.6z"/>
					<path class="s49" d="m1271.4 194.2c0 0-3.5-37.3-15.2-42.2-11.2-4.7-95.8 0.7-104 1.2-0.4 0.1-0.7 0.4-0.7 0.7 0 3.1 1.4 6 3.9 7.8 11.8 8.9 47.4 35.2 60.7 39.7 16.1 5.4 55.3-7.2 55.3-7.2z"/>
					<path class="s3" d="m1182.5 157.5c0.1 0.2 0.4 0.3 0.7 0.3 0.4 0 46.8-2.2 66.8-2.3 2.8-0.1 5.5 1.6 6.6 4.2 2.3 5.1 6.5 15.1 8.7 25.4 0.1 0.5 0.5 0.8 1 0.7 0.4-0.1 0.7-0.6 0.6-1-2.1-10-5.9-19.5-8.7-25.8-1.4-3.2-4.7-5.3-8.2-5.3-20.1 0.2-66.4 2.4-66.9 2.4-0.5 0-0.8 0.4-0.8 0.9q0 0.3 0.2 0.5z"/>
					<path class="s50" d="m1396.1 282.3c-17.4 5.4-37.5 9-59.8 8.8-69.2-0.7-120-13.2-134.3-17.1-2.6-0.7-4.6-2.8-5.2-5.4q-7.3-31 0.3-61.8c1-3.9 4-6.9 7.9-7.8 16.8-4 66.4-14.2 132.7-13.1 22.1 0.3 42 4.4 59.1 10.2 9.1 34.5 3.5 67.6-0.7 86.2z"/>
					<path class="s51" d="m1396.8 196.1c37.9 12.8 62.7 34 70.6 41.4 1.6 1.5 1.6 3.9 0 5.4-8.1 7.2-33.4 27.5-71.3 39.4 4.2-18.6 9.8-51.7 0.7-86.2z"/>
					<g>
						<path class="s3" d="m1342 203.8c-17.9-0.3-32.7 15.2-32.9 34.4-0.3 19.3 14.1 35.1 32 35.3 18 0.2 32.7-15.2 33-34.4 0.2-19.3-14.1-35.1-32.1-35.3z"/>
						<path class="s52" d="m1342.9 209.9c-14.3-0.2-26.1 12.1-26.3 27.4-0.2 15.4 11.2 28 25.5 28.1 14.3 0.2 26.1-12.1 26.3-27.4 0.2-15.3-11.3-27.9-25.5-28.1z"/>
						<path class="s3" d="m1347.1 257.2c0.2 0.2 0.5 0.4 0.9 0.3 8.8-2.6 15-11.1 15.2-20.7 0-2.4-0.3-4.8-1.1-7-0.1-0.5-0.6-0.8-1-0.6-0.5 0.1-0.7 0.6-0.6 1.1 0.7 2.1 1 4.3 0.9 6.5-0.1 8.8-5.8 16.7-13.9 19-0.5 0.2-0.7 0.6-0.6 1.1q0.1 0.2 0.2 0.3z"/>
					</g>
					<g>
						<path class="s3" d="m1276.6 214.8c-11.9-0.2-21.6 10-21.8 22.7-0.1 12.7 9.4 23.2 21.2 23.3 11.9 0.2 21.6-10 21.8-22.7 0.1-12.8-9.4-23.2-21.2-23.3z"/>
						<path class="s53" d="m1277.1 218.8c-9.4-0.1-17.2 8-17.3 18.1-0.1 10.2 7.4 18.5 16.9 18.6 9.4 0.1 17.2-8 17.3-18.1 0.1-10.2-7.4-18.5-16.9-18.6z"/>
						<path class="s3" d="m1279.7 250.2c0.2 0.3 0.6 0.4 0.9 0.3 6-1.7 10.2-7.5 10.3-13.9q0-2.5-0.7-4.8c-0.2-0.4-0.7-0.7-1.1-0.5-0.5 0.1-0.7 0.6-0.6 1q0.7 2.1 0.6 4.3c0 5.7-3.7 10.7-9 12.3-0.4 0.1-0.7 0.6-0.6 1q0.1 0.2 0.2 0.3z"/>
					</g>
				</g>
				<g>
					<path class="s9" d="m1010.7 263.9l-11.3 2.7c-1 0.3-2.1-0.4-2.4-1.4-0.2-1.1 0.4-2.1 1.5-2.4h0.1l11-2.8h0.2c1-0.3 2.1 0.4 2.4 1.4 0.2 1.1-0.4 2.2-1.5 2.5z"/>
					<path class="s9" d="m988 268.6l-11.6 1.3c-1 0.1-2-0.7-2.1-1.8-0.1-1 0.7-2 1.7-2.1h0.1l11.3-1.2 0.2-0.1c1-0.1 2 0.7 2.1 1.8 0.1 1-0.6 2-1.7 2.1z"/>
					<path class="s9" d="m964.9 270.4l-11.6-0.1c-1.1 0-1.9-0.8-1.9-1.9 0-1 0.9-1.9 1.9-1.8h0.1 11.4 0.1c1 0 1.9 0.9 1.9 1.9 0 1.1-0.9 1.9-1.9 1.9q0 0 0 0z"/>
					<path class="s9" d="m941.7 269.7l-11.5-1.3c-1-0.1-1.7-1-1.6-2 0.1-1 1-1.7 2-1.6h0.1l11.3 1.1h0.1c1 0.1 1.8 1.1 1.7 2.1-0.1 1-1 1.8-2.1 1.7z"/>
					<path class="s9" d="m918.8 266.7l-11.4-2.1c-0.9-0.2-1.6-1.2-1.4-2.1 0.2-1 1.1-1.6 2.1-1.5h0.1l11.2 2.1h0.1c1 0.2 1.6 1.2 1.4 2.2-0.2 1-1.1 1.6-2.1 1.4z"/>
					<path class="s9" d="m896.2 262l-11.2-2.9c-0.9-0.3-1.5-1.2-1.2-2.2 0.2-0.9 1.2-1.5 2.1-1.2h0.1l11 2.9h0.1c0.9 0.2 1.5 1.2 1.3 2.1-0.3 1-1.3 1.6-2.2 1.3z"/>
					<path class="s9" d="m874 255.8l-11-3.6c-0.9-0.3-1.4-1.2-1.1-2.1 0.3-1 1.3-1.4 2.2-1.1l10.9 3.5c0.9 0.3 1.4 1.3 1.1 2.2-0.2 0.9-1.2 1.4-2.1 1.1z"/>
					<path class="s9" d="m852.1 248.3l-10.7-4.1c-0.9-0.3-1.3-1.3-1-2.2 0.3-0.8 1.3-1.3 2.2-0.9l10.7 4.1c0.9 0.3 1.4 1.3 1 2.2-0.3 0.8-1.3 1.3-2.2 0.9z"/>
					<path class="s9" d="m830.7 239.8l-10.5-4.6c-0.9-0.4-1.2-1.3-0.9-2.1 0.4-0.9 1.3-1.2 2.2-0.9l10.5 4.6c0.9 0.3 1.3 1.3 0.9 2.2-0.4 0.8-1.3 1.2-2.2 0.8z"/>
					<path class="s9" d="m809.7 230.4l-10.4-5c-0.8-0.4-1.1-1.4-0.7-2.1 0.4-0.8 1.3-1.2 2.1-0.8l10.4 5c0.8 0.4 1.1 1.3 0.8 2.1-0.4 0.8-1.4 1.2-2.2 0.8z"/>
					<path class="s9" d="m789.1 220.2l-10.2-5.4c-0.8-0.4-1.1-1.3-0.7-2.1 0.4-0.7 1.4-1 2.1-0.6l10.2 5.3c0.8 0.4 1.1 1.3 0.7 2.1-0.4 0.8-1.4 1.1-2.1 0.7z"/>
					<path class="s9" d="m768.8 209.3l-10-5.7c-0.8-0.4-1-1.3-0.6-2.1 0.4-0.7 1.3-0.9 2-0.5h0.1l10 5.6c0.7 0.4 1 1.4 0.6 2.1-0.5 0.7-1.4 1-2.1 0.6z"/>
					<path class="s9" d="m748.8 197.8l-9.8-6c-0.7-0.4-1-1.3-0.5-2 0.4-0.7 1.3-0.9 2-0.5l9.8 5.9h0.1c0.7 0.4 0.9 1.4 0.5 2.1-0.5 0.7-1.4 0.9-2.1 0.5z"/>
					<path class="s9" d="m729.2 185.7l-9.7-6.2c-0.7-0.4-0.9-1.3-0.5-2 0.5-0.7 1.4-0.9 2.1-0.4l9.7 6.1c0.7 0.5 0.9 1.4 0.4 2.1-0.4 0.7-1.3 0.9-2 0.4z"/>
					<path class="s9" d="m709.9 173.2l-9.6-6.4c-0.6-0.5-0.8-1.4-0.4-2.1 0.5-0.6 1.4-0.8 2.1-0.4v0.1l9.5 6.4c0.7 0.4 0.9 1.3 0.4 2-0.4 0.7-1.4 0.9-2 0.4z"/>
					<path class="s9" d="m690.9 160.2l-9.4-6.6c-0.7-0.5-0.8-1.4-0.4-2.1 0.5-0.6 1.4-0.8 2.1-0.3l9.3 6.6c0.7 0.5 0.9 1.4 0.4 2.1-0.5 0.6-1.4 0.8-2 0.3z"/>
					<path class="s9" d="m672 147.1l-9.8-5.8c-0.7-0.4-0.9-1.3-0.5-2 0.4-0.7 1.2-0.9 1.9-0.5l10 5.9c0.7 0.4 0.9 1.3 0.5 2-0.4 0.7-1.3 0.9-2 0.5z"/>
					<path class="s9" d="m652.1 136.1l-10.5-4.5c-0.8-0.3-1.1-1.2-0.8-1.9 0.3-0.7 1.2-1 1.9-0.7l10.6 4.6c0.7 0.3 1.1 1.1 0.8 1.8-0.3 0.8-1.2 1.1-1.9 0.8z"/>
					<path class="s9" d="m630.9 127.8l-10.9-3.2h-0.1c-0.8-0.2-1.2-1-1-1.8 0.2-0.7 1-1.2 1.8-0.9l11.1 3.2c0.7 0.2 1.2 1 1 1.7-0.3 0.8-1 1.2-1.8 1z"/>
					<path class="s9" d="m608.8 122.2l-11.2-1.8h-0.1c-0.8-0.1-1.3-0.9-1.2-1.6 0.1-0.8 0.8-1.3 1.6-1.2l11.5 1.8c0.7 0.1 1.3 0.8 1.1 1.6-0.1 0.8-0.8 1.3-1.6 1.2z"/>
					<path class="s9" d="m586.2 119.4l-11.4-0.3-0.1-0.1c-0.7 0-1.3-0.6-1.3-1.4 0-0.8 0.6-1.4 1.4-1.3l11.6 0.3c0.8 0 1.4 0.6 1.3 1.4 0 0.8-0.6 1.4-1.4 1.4z"/>
					<path class="s9" d="m563.4 119.5l-11.3 1.1h-0.1c-0.7 0.1-1.4-0.5-1.5-1.2-0.1-0.8 0.5-1.5 1.2-1.5l11.6-1.2c0.7-0.1 1.4 0.5 1.5 1.2 0 0.8-0.5 1.5-1.3 1.6z"/>
					<path class="s9" d="m540.9 122.4l-11.2 2.6c-0.8 0.2-1.5-0.3-1.7-1-0.2-0.7 0.3-1.5 1-1.6l11.3-2.7c0.8-0.1 1.5 0.3 1.7 1.1 0.1 0.7-0.3 1.5-1.1 1.6z"/>
					<path class="s9" d="m518.8 128.3l-10.7 3.9v0.1c-0.7 0.2-1.5-0.1-1.8-0.8-0.3-0.7 0.1-1.5 0.8-1.8l10.9-4c0.7-0.3 1.5 0.1 1.7 0.8 0.3 0.7-0.1 1.5-0.8 1.7z"/>
					<path class="s9" d="m497.7 136.9l-10 5.3-0.1 0.1c-0.7 0.3-1.5 0.1-1.8-0.6-0.4-0.6-0.1-1.4 0.5-1.8l10.2-5.5c0.7-0.3 1.5-0.1 1.9 0.6 0.3 0.6 0.1 1.5-0.6 1.8z"/>
					<path class="s9" d="m478.1 148.3l-9.3 6.7v0.1c-0.6 0.4-1.5 0.3-1.9-0.3-0.4-0.6-0.3-1.5 0.3-1.9l9.3-6.8c0.6-0.4 1.5-0.3 1.9 0.3 0.5 0.6 0.3 1.4-0.3 1.9z"/>
					<path class="s9" d="m460 162.3l-8.3 7.7-0.1 0.1c-0.5 0.5-1.3 0.5-1.8-0.1-0.5-0.5-0.5-1.3 0-1.8l8.5-7.9c0.5-0.5 1.4-0.5 1.9 0 0.5 0.6 0.4 1.4-0.1 1.9z"/>
					<path class="s9" d="m443.8 178.3l-7.4 8.7h-0.1c-0.4 0.6-1.3 0.6-1.8 0.2-0.6-0.5-0.6-1.3-0.2-1.9l7.5-8.8c0.5-0.5 1.3-0.6 1.9-0.1 0.6 0.4 0.6 1.3 0.1 1.8z"/>
					<path class="s9" d="m429.5 196.1l-6.4 9.4v0.1c-0.4 0.6-1.2 0.7-1.8 0.3-0.6-0.4-0.8-1.2-0.4-1.8l6.5-9.6c0.4-0.6 1.2-0.7 1.8-0.3 0.6 0.4 0.7 1.2 0.3 1.8z"/>
					<path class="s9" d="m417.3 215.4l-5.1 10.1v0.1c-0.4 0.6-1.1 0.9-1.8 0.6-0.6-0.3-0.9-1.1-0.5-1.8l5.2-10.3c0.3-0.6 1.1-0.9 1.7-0.6 0.7 0.4 0.9 1.1 0.6 1.8z"/>
					<path class="s9" d="m407.7 236l-3.7 10.8-0.1 0.1c-0.2 0.6-0.9 1-1.6 0.8-0.7-0.3-1-1-0.8-1.7l3.8-10.9c0.2-0.7 1-1 1.6-0.8 0.7 0.2 1.1 1 0.8 1.6z"/>
					<path class="s9" d="m401 257.8l-2 11.2v0.1c-0.2 0.7-0.8 1.1-1.5 1-0.7-0.1-1.2-0.8-1-1.5l2.1-11.4c0.1-0.7 0.7-1.1 1.4-1 0.7 0.1 1.2 0.8 1.1 1.5z"/>
					<path class="s9" d="m397.9 280.3l-0.1 11.4v0.1c0 0.7-0.5 1.2-1.2 1.2-0.7 0-1.3-0.5-1.3-1.2l0.1-11.6c0-0.7 0.5-1.3 1.2-1.3 0.7 0 1.3 0.6 1.3 1.3z"/>
					<path class="s9" d="m398.8 303l2.2 11.1v0.2c0.1 0.6-0.3 1.3-1 1.4-0.7 0.2-1.3-0.3-1.5-1l-2.1-11.4c-0.2-0.6 0.3-1.3 0.9-1.4 0.7-0.2 1.4 0.3 1.5 1z"/>
					<path class="s9" d="m404.2 325l4.4 10.5v0.1c0.3 0.7 0 1.4-0.7 1.6-0.6 0.3-1.3 0-1.6-0.6l-4.4-10.7c-0.3-0.7 0-1.4 0.6-1.7 0.7-0.2 1.4 0.1 1.7 0.7z"/>
					<path class="s9" d="m414.1 345.4c2.1 3.1 4.5 6 7.1 8.6 0.5 0.5 0.5 1.3 0 1.8-0.4 0.4-1.2 0.4-1.7 0-2.8-2.8-5.3-5.8-7.4-9.1-0.4-0.5-0.3-1.3 0.3-1.7 0.5-0.3 1.3-0.2 1.7 0.4z"/>
					<path class="s9" d="m430 361c3.2 2 6.6 3.6 10.1 4.8 0.6 0.2 1 0.9 0.8 1.6-0.3 0.6-0.9 0.9-1.6 0.7-3.7-1.2-7.3-2.9-10.6-5-0.6-0.4-0.7-1.1-0.4-1.7 0.4-0.6 1.1-0.8 1.7-0.4z"/>
					<path class="s9" d="m451 368.2c3.8 0.4 7.5 0.4 11.3-0.1 0.6 0 1.2 0.4 1.3 1.1 0.1 0.7-0.4 1.3-1.1 1.3-3.9 0.5-7.8 0.5-11.7 0.1-0.7-0.1-1.1-0.7-1.1-1.3 0.1-0.7 0.7-1.2 1.3-1.1q0 0 0 0z"/>
					<path class="s9" d="m473.3 365.8c3.5-1.1 7-2.5 10.4-4.3 0.5-0.3 1.2-0.1 1.6 0.5 0.3 0.6 0 1.3-0.5 1.6-3.5 1.8-7.1 3.3-10.8 4.5-0.7 0.2-1.3-0.1-1.5-0.8-0.2-0.6 0.1-1.3 0.8-1.5z"/>
					<path class="s9" d="m493.1 355.4q4.5-3.4 8.4-7.6c0.4-0.5 1.2-0.5 1.6 0 0.5 0.4 0.5 1.1 0.1 1.6q-4 4.3-8.6 7.9c-0.5 0.4-1.3 0.3-1.7-0.2-0.4-0.5-0.3-1.3 0.2-1.7z"/>
					<path class="s9" d="m508.4 338.9l2.9-4.8c1-1.6 1.8-3.4 2.6-5v-0.1c0.3-0.6 1-0.8 1.6-0.5 0.6 0.3 0.8 1 0.5 1.5-0.8 1.8-1.6 3.5-2.7 5.2l-2.9 5c-0.3 0.6-1.1 0.8-1.6 0.5-0.6-0.4-0.8-1.1-0.4-1.6z"/>
					<path class="s9" d="m517.9 318.5c1-3.7 1.7-7.4 2.1-11.1 0.1-0.7 0.6-1.1 1.3-1 0.6 0 1.1 0.6 1 1.2-0.4 3.9-1.2 7.7-2.2 11.5-0.2 0.6-0.8 1-1.4 0.8-0.7-0.2-1-0.8-0.8-1.4z"/>
					<path class="s9" d="m520.1 296.1c-0.4-3.7-1.1-7.4-2.1-11-0.2-0.6 0.2-1.3 0.8-1.4 0.6-0.2 1.2 0.1 1.4 0.7 1.1 3.8 1.8 7.6 2.2 11.5 0 0.7-0.4 1.2-1.1 1.3-0.6 0-1.2-0.4-1.2-1.1q0 0 0 0z"/>
					<path class="s9" d="m513.8 274.6c-1.7-3.3-3.7-6.5-5.9-9.6-0.4-0.5-0.3-1.2 0.2-1.5 0.5-0.4 1.2-0.3 1.6 0.2 2.3 3.1 4.4 6.4 6.2 9.9 0.2 0.6 0 1.2-0.5 1.5-0.6 0.3-1.3 0.1-1.6-0.5z"/>
					<path class="s9" d="m500.4 256.6q-4-4-8.6-7.4c-0.5-0.3-0.6-1-0.3-1.5 0.4-0.5 1.1-0.6 1.6-0.3q4.7 3.5 8.9 7.5c0.4 0.5 0.4 1.2 0 1.6-0.4 0.5-1.1 0.5-1.6 0.1z"/>
					<path class="s9" d="m482.2 243.1q-4.9-2.8-10.2-4.9c-0.5-0.2-0.8-0.9-0.6-1.5 0.2-0.5 0.9-0.8 1.5-0.6q5.3 2.2 10.4 5.1c0.6 0.3 0.8 0.9 0.5 1.5-0.3 0.5-1 0.7-1.6 0.4z"/>
					<path class="s9" d="m461.3 234.5c-3.6-1.1-7.4-1.8-11.1-2.7h-0.1c-0.6-0.1-1-0.8-0.8-1.4 0.1-0.6 0.7-0.9 1.3-0.8h0.1c3.7 0.9 7.5 1.7 11.2 2.7 0.6 0.2 0.9 0.8 0.8 1.4-0.2 0.6-0.8 0.9-1.4 0.8z"/>
					<path class="s9" d="m438.9 230l-11.3-1.1h-0.1c-0.6-0.1-1.1-0.7-1.1-1.3 0.1-0.7 0.7-1.1 1.3-1.1l11.6 1.2c0.6 0.1 1 0.6 1 1.3-0.1 0.6-0.6 1.1-1.3 1z"/>
					<path class="s9" d="m416.2 228.5l-11.4 0.3h-0.1c-0.7 0-1.3-0.5-1.3-1.2 0-0.7 0.5-1.3 1.2-1.3l11.6-0.2c0.7-0.1 1.2 0.5 1.2 1.2 0.1 0.6-0.5 1.2-1.1 1.2z"/>
					<path class="s9" d="m393.4 229.7l-11.3 1.5-0.1 0.1c-0.7 0.1-1.4-0.5-1.5-1.2-0.1-0.7 0.4-1.4 1.2-1.5l11.4-1.5c0.7 0 1.4 0.5 1.5 1.2 0 0.7-0.4 1.3-1.1 1.4z"/>
					<path class="s9" d="m370.9 233.4l-11.1 2.7h-0.1c-0.7 0.2-1.5-0.2-1.7-1-0.1-0.7 0.3-1.5 1-1.6h0.1l11.2-2.7c0.7-0.2 1.4 0.2 1.6 0.9 0.2 0.8-0.2 1.5-1 1.7z"/>
					<path class="s9" d="m348.9 239.4l-10.8 3.9v0.1c-0.8 0.2-1.6-0.1-1.9-0.9-0.3-0.7 0.1-1.6 0.9-1.8v-0.1l10.9-3.8c0.7-0.3 1.5 0.1 1.8 0.8 0.2 0.7-0.1 1.5-0.9 1.8z"/>
					<path class="s9" d="m327.7 247.8l-10.3 5.1c-0.8 0.4-1.7 0.1-2.1-0.6-0.3-0.8 0-1.7 0.7-2.1l10.4-5.1c0.8-0.3 1.6 0 2 0.7 0.4 0.7 0.1 1.6-0.7 2z"/>
					<path class="s9" d="m307.6 258.6l-9.5 6.3h-0.1c-0.7 0.5-1.7 0.3-2.2-0.4-0.4-0.7-0.2-1.7 0.5-2.2l9.7-6.3c0.7-0.5 1.6-0.3 2.1 0.4 0.5 0.7 0.3 1.7-0.4 2.1z"/>
					<path class="s9" d="m288.9 271.7l-8.8 7.2v0.1c-0.7 0.6-1.7 0.5-2.3-0.2-0.6-0.7-0.5-1.8 0.2-2.3l9-7.3c0.7-0.6 1.7-0.5 2.2 0.2 0.6 0.7 0.5 1.7-0.2 2.2z"/>
					<path class="s9" d="m271.7 286.6l-8.2 8c-0.7 0.7-1.8 0.7-2.4 0-0.7-0.7-0.7-1.7 0-2.4l8.3-8c0.7-0.7 1.7-0.7 2.4 0 0.6 0.7 0.6 1.7-0.1 2.4z"/>
					<path class="s9" d="m255.7 302.9l-7.6 8.5v0.1c-0.7 0.7-1.8 0.8-2.5 0.1-0.8-0.6-0.8-1.7-0.2-2.4l7.7-8.7c0.7-0.7 1.7-0.7 2.5-0.1 0.7 0.6 0.7 1.7 0.1 2.4z"/>
					<path class="s9" d="m240.8 320.2l-7 9.1h-0.1c-0.6 0.8-1.7 0.9-2.5 0.3-0.8-0.6-1-1.7-0.3-2.5l7.1-9.1c0.6-0.8 1.8-0.9 2.5-0.3 0.8 0.6 0.9 1.7 0.3 2.5z"/>
					<path class="s9" d="m227 338.5l-6.5 9.4h-0.1c-0.6 0.9-1.7 1.1-2.6 0.5-0.8-0.6-1-1.8-0.5-2.6h0.1l6.6-9.5c0.6-0.8 1.7-1 2.6-0.4 0.8 0.5 1 1.7 0.4 2.5z"/>
					<path class="s9" d="m214.2 357.4l-6 9.7-0.1 0.1c-0.5 0.9-1.7 1.2-2.6 0.6-0.9-0.6-1.2-1.7-0.7-2.7l6.2-9.7c0.5-0.9 1.7-1.2 2.6-0.6 0.9 0.5 1.2 1.7 0.6 2.6z"/>
					<path class="s9" d="m202.4 377l-5.6 10v0.1c-0.5 0.9-1.7 1.3-2.7 0.7-1-0.5-1.3-1.7-0.8-2.7l5.7-10c0.5-1 1.7-1.3 2.6-0.8 1 0.5 1.3 1.7 0.8 2.7z"/>
					<path class="s9" d="m191.5 397.2l-5 10.2v0.1c-0.5 1-1.8 1.4-2.8 0.9-1-0.5-1.4-1.7-0.9-2.7l5.1-10.4c0.5-1 1.7-1.4 2.7-0.9 1 0.5 1.5 1.7 1 2.7z"/>
					<path class="s9" d="m181.7 417.8l-4.5 10.5v0.1c-0.4 1.1-1.7 1.6-2.8 1.1-1-0.4-1.5-1.7-1.1-2.8l4.6-10.6c0.5-1 1.7-1.5 2.8-1.1 1 0.5 1.5 1.7 1.1 2.8z"/>
					<path class="s9" d="m173 439l-3.9 10.7v0.1c-0.4 1.1-1.6 1.7-2.8 1.3-1.1-0.4-1.7-1.7-1.3-2.8l4-10.9c0.4-1.1 1.7-1.6 2.8-1.2 1.1 0.4 1.7 1.6 1.3 2.7z"/>
					<path class="s9" d="m165.6 460.6l-3.2 10.9v0.1c-0.4 1.2-1.6 1.9-2.8 1.5-1.2-0.3-1.9-1.6-1.5-2.7v-0.1l3.3-11c0.3-1.2 1.5-1.9 2.7-1.5 1.2 0.3 1.8 1.5 1.5 2.7z"/>
					<path class="s9" d="m159.6 482.6l-2.3 11.1-0.1 0.1c-0.2 1.3-1.4 2-2.7 1.8-1.2-0.3-2-1.5-1.8-2.7 0.8-3.8 1.7-7.6 2.5-11.3 0.2-1.3 1.4-2.1 2.7-1.8 1.2 0.3 2 1.5 1.7 2.7z"/>
					<path class="s9" d="m155.4 505l-1.3 11.3-0.1 0.1c-0.1 1.2-1.2 2.1-2.5 2-1.2-0.2-2.1-1.3-2-2.6l1.4-11.5c0.1-1.2 1.2-2.1 2.5-2 1.3 0.2 2.2 1.3 2 2.5v0.1z"/>
					<path class="s9" d="m153.3 527.6l-0.2 11.4v0.1c0 1.2-1.1 2.2-2.3 2.2-1.2 0-2.2-1-2.2-2.3l0.2-11.6c0-1.2 1-2.2 2.3-2.2 1.2 0 2.2 1 2.2 2.3z"/>
					<path class="s9" d="m153.5 550.3l1.1 11.4v0.1c0.1 1.2-0.8 2.3-2 2.4-1.3 0.1-2.4-0.8-2.5-2l-1.1-11.6c-0.1-1.2 0.8-2.3 2.1-2.4 1.2-0.1 2.3 0.8 2.4 2z"/>
					<path class="s9" d="m156.2 572.9l2.4 11.1v0.1c0.2 1.2-0.5 2.4-1.7 2.6-1.2 0.3-2.4-0.5-2.6-1.7l-2.4-11.3c-0.3-1.2 0.5-2.4 1.7-2.6 1.2-0.3 2.4 0.5 2.6 1.7z"/>
					<path class="s9" d="m161.5 595l3.6 10.7v0.2c0.4 1.1-0.2 2.3-1.3 2.7-1.2 0.4-2.4-0.2-2.8-1.4l-3.7-11c-0.4-1.1 0.3-2.4 1.4-2.7 1.2-0.4 2.4 0.2 2.8 1.3z"/>
					<path class="s9" d="m169.3 616.3l4.8 10.3v0.1c0.5 1.1 0 2.4-1.1 2.9-1 0.5-2.3 0-2.8-1l-4.9-10.6c-0.5-1.1 0-2.3 1.1-2.9 1.1-0.5 2.3 0 2.8 1.1z"/>
					<path class="s9" d="m179.4 636.7l5.8 9.8v0.1c0.6 1 0.3 2.3-0.7 2.9-1 0.6-2.3 0.3-2.9-0.7l-6-10c-0.6-1-0.3-2.3 0.8-2.9 1-0.6 2.3-0.3 2.9 0.7z"/>
					<path class="s9" d="m191.5 656l6.7 9.2v0.1c0.7 0.9 0.5 2.2-0.4 2.9-1 0.7-2.3 0.5-3-0.4l-6.8-9.4c-0.7-0.9-0.5-2.3 0.4-3 1-0.7 2.3-0.4 3 0.5z"/>
					<path class="s9" d="m205.3 674.1l7.5 8.6v0.1c0.8 0.8 0.7 2.2-0.2 2.9-0.9 0.8-2.2 0.7-3-0.2l-7.6-8.7c-0.7-0.9-0.6-2.2 0.3-3 0.8-0.7 2.2-0.7 2.9 0.2z"/>
					<path class="s9" d="m220.6 691l8 8.1h0.1c0.8 0.8 0.8 2.1 0 2.9-0.8 0.8-2.1 0.9-2.9 0l-8.2-8.1c-0.8-0.8-0.9-2.1 0-2.9 0.8-0.8 2.1-0.8 2.9 0z"/>
					<path class="s9" d="m237 706.8l8.6 7.5 0.1 0.1c0.8 0.7 0.9 2 0.2 2.9-0.8 0.8-2.1 0.9-2.9 0.2l-8.7-7.6c-0.9-0.8-1-2.1-0.2-2.9 0.7-0.9 2-1 2.9-0.2z"/>
					<path class="s9" d="m254.4 721.6l9.1 7c0.9 0.7 1.1 2 0.4 2.9-0.7 0.8-2 1-2.9 0.3l-9.1-7c-0.9-0.7-1-2-0.4-2.9 0.7-0.9 2-1 2.9-0.4z"/>
					<path class="s9" d="m272.7 735.4l9.4 6.5c0.9 0.7 1.1 1.9 0.5 2.8-0.6 0.9-1.9 1.2-2.8 0.5l-9.4-6.6c-1-0.6-1.2-1.8-0.5-2.8 0.6-0.9 1.8-1.1 2.8-0.5z"/>
					<path class="s9" d="m291.6 748.3l9.6 6.3c0.9 0.6 1.2 1.9 0.6 2.8-0.6 0.9-1.9 1.1-2.8 0.5l-9.6-6.3c-0.9-0.6-1.2-1.8-0.6-2.7 0.6-0.9 1.9-1.2 2.8-0.6z"/>
					<path class="s9" d="m310.8 760.9l9.6 6.3c0.9 0.6 1.2 1.8 0.6 2.7-0.6 0.9-1.8 1.2-2.7 0.6l-9.7-6.3c-0.9-0.6-1.1-1.8-0.5-2.7 0.5-0.9 1.8-1.2 2.7-0.6z"/>
					<path class="s9" d="m330 773.5l9.6 6.3c0.9 0.6 1.2 1.8 0.6 2.7-0.6 0.9-1.8 1.1-2.7 0.5l-9.6-6.2c-0.9-0.6-1.2-1.8-0.6-2.7 0.6-0.9 1.8-1.2 2.7-0.6z"/>
					<path class="s9" d="m349.2 786.1l9.6 6.4c0.9 0.5 1.1 1.7 0.6 2.6-0.6 0.9-1.8 1.1-2.7 0.5l-9.6-6.3c-0.9-0.6-1.1-1.8-0.5-2.6 0.6-0.9 1.7-1.2 2.6-0.6z"/>
					<path class="s9" d="m368.4 798.8l9.5 6.5c0.8 0.6 1.1 1.8 0.5 2.6-0.6 0.9-1.8 1.1-2.7 0.5l-9.5-6.4c-0.8-0.6-1.1-1.8-0.5-2.6 0.6-0.9 1.8-1.1 2.7-0.6z"/>
					<path class="s9" d="m387.3 811.8l9.4 6.7c0.9 0.6 1.1 1.7 0.5 2.6-0.6 0.8-1.8 1-2.6 0.4l-9.4-6.6c-0.9-0.6-1.1-1.8-0.5-2.6 0.6-0.9 1.8-1.1 2.6-0.5z"/>
					<path class="s9" d="m406.1 825.2l9.2 6.8c0.8 0.6 1 1.8 0.4 2.6-0.6 0.8-1.8 1-2.6 0.4l-9.2-6.8c-0.9-0.6-1-1.8-0.4-2.6 0.6-0.9 1.7-1 2.6-0.4z"/>
					<path class="s9" d="m424.5 839l9 7.1c0.8 0.6 1 1.7 0.4 2.5-0.7 0.8-1.8 1-2.6 0.3l-9.1-7c-0.8-0.7-0.9-1.8-0.3-2.6 0.6-0.8 1.8-0.9 2.6-0.3z"/>
					<path class="s9" d="m442.5 853.3l8.9 7.3c0.8 0.6 0.9 1.8 0.2 2.5-0.6 0.8-1.7 0.9-2.5 0.3l-8.9-7.3c-0.8-0.6-0.9-1.8-0.2-2.6 0.6-0.7 1.7-0.8 2.5-0.2z"/>
					<path class="s9" d="m460.2 868l8.7 7.6c0.7 0.6 0.8 1.7 0.1 2.5-0.6 0.7-1.7 0.8-2.5 0.2v-0.1l-8.6-7.5h-0.1c-0.7-0.6-0.8-1.8-0.1-2.5 0.6-0.8 1.7-0.8 2.5-0.2z"/>
					<path class="s9" d="m477.4 883.3l8.4 7.9c0.7 0.7 0.7 1.8 0.1 2.5-0.7 0.7-1.8 0.7-2.5 0.1v-0.1l-8.4-7.8c-0.7-0.7-0.7-1.8-0.1-2.5 0.7-0.7 1.8-0.8 2.5-0.1z"/>
					<path class="s9" d="m494 899.3l8 8.3c0.7 0.7 0.6 1.8-0.1 2.5-0.6 0.6-1.7 0.6-2.4-0.1l-8-8.2v-0.1c-0.7-0.7-0.6-1.8 0-2.4 0.7-0.7 1.8-0.7 2.5 0z"/>
					<path class="s9" d="m509.7 916.2l7.5 8.8c0.6 0.7 0.5 1.8-0.2 2.4-0.7 0.6-1.8 0.5-2.4-0.2l-7.4-8.7-0.1-0.1c-0.6-0.7-0.5-1.8 0.2-2.4 0.7-0.6 1.8-0.5 2.4 0.2z"/>
					<path class="s9" d="m524.4 934.1l6.8 9.3c0.5 0.8 0.3 1.8-0.4 2.4-0.8 0.5-1.8 0.3-2.4-0.4v-0.1l-6.7-9.2h-0.1c-0.5-0.8-0.4-1.9 0.4-2.4 0.8-0.6 1.8-0.4 2.4 0.4z"/>
					<path class="s9" d="m537.5 953l6 10c0.5 0.8 0.2 1.8-0.6 2.2-0.8 0.5-1.8 0.3-2.3-0.5v-0.1l-5.9-9.8c-0.5-0.8-0.2-1.9 0.6-2.3 0.7-0.5 1.8-0.2 2.2 0.5z"/>
					<path class="s9" d="m548.9 973.2l4.9 10.5c0.3 0.8 0 1.8-0.8 2.1-0.8 0.4-1.8 0.1-2.2-0.8l-4.8-10.3-0.1-0.1c-0.4-0.9 0-1.8 0.8-2.2 0.8-0.4 1.8 0 2.2 0.8z"/>
					<path class="s9" d="m558 994.4l3.6 11.1c0.3 0.8-0.2 1.6-1 1.9-0.8 0.3-1.7-0.2-1.9-1l-0.1-0.1-3.6-10.8v-0.1c-0.3-0.8 0.2-1.7 1-2 0.8-0.2 1.7 0.2 2 1z"/>
					<path class="s9" d="m564.5 1016.7l2.2 11.3c0.2 0.8-0.4 1.6-1.2 1.8-0.8 0.1-1.6-0.4-1.7-1.2v-0.1l-2.3-11.2v-0.1c-0.1-0.8 0.4-1.6 1.2-1.7 0.8-0.2 1.6 0.3 1.8 1.2z"/>
					<path class="s9" d="m568.1 1039.5l0.8 11.6c0 0.8-0.6 1.4-1.4 1.5-0.8 0-1.4-0.6-1.5-1.3v-0.1l-0.8-11.4v-0.1c0-0.8 0.6-1.5 1.4-1.5 0.8-0.1 1.5 0.5 1.5 1.3z"/>
					<path class="s9" d="m568.8 1062.7l-0.9 11.5c0 0.7-0.7 1.3-1.4 1.2-0.8 0-1.3-0.7-1.3-1.4v-0.1l0.8-11.4c0-0.8 0.7-1.4 1.5-1.3 0.7 0 1.3 0.7 1.3 1.5z"/>
					<path class="s9" d="m566.5 1085.6l-1.8 11.4c-0.1 0.7-0.8 1.2-1.5 1.1-0.7-0.1-1.2-0.8-1.1-1.5l1.8-11.3v-0.1c0.1-0.7 0.8-1.2 1.5-1.1 0.8 0.1 1.3 0.8 1.1 1.5z"/>
					<path class="s9" d="m562.3 1108.3l-2.9 11.2c-0.2 0.7-0.9 1.1-1.6 0.9-0.6-0.2-1-0.9-0.8-1.5v-0.1l2.8-11v-0.1c0.2-0.7 0.9-1.1 1.6-0.9 0.7 0.2 1.1 0.9 0.9 1.5z"/>
					<path class="s9" d="m555.8 1130.5l-4.4 10.7c-0.2 0.6-0.9 0.9-1.5 0.7-0.6-0.3-0.9-0.9-0.6-1.5v-0.1l4.2-10.6v-0.1c0.3-0.6 1-0.9 1.6-0.7 0.6 0.3 0.9 1 0.7 1.6z"/>
					<path class="s9" d="m546.1 1151.6c-2 3.3-4.2 6.5-6.6 9.5-0.4 0.5-1.1 0.6-1.6 0.2-0.5-0.4-0.5-1.1-0.2-1.6 2.4-2.9 4.5-6 6.4-9.3 0.3-0.5 1-0.7 1.6-0.4 0.5 0.3 0.7 1 0.4 1.5z"/>
					<path class="s9" d="m531.2 1169.4c-3.1 2.4-6.6 4.4-10.3 5.8-0.5 0.2-1.1-0.1-1.3-0.6-0.2-0.5 0.1-1.1 0.6-1.3 3.5-1.4 6.7-3.3 9.6-5.6 0.5-0.4 1.2-0.3 1.5 0.2 0.4 0.4 0.3 1.1-0.1 1.5z"/>
				</g>
			</g>
			<g>
				<path class="s54" d="m1090.5 591.4c-0.2 0-85.8-150-97.3-164.1-2-2.4-5-3.6-8-3.2l-23.9 2.8-28.1 60.8 46.8-27.3c-4.7 32 55.4 79.6 76 97 2.1 1.7 2.3 4.9 0.4 6.9l-8.2 8.6c13.5 13.7 29.1 22.5 46.6 26.5z"/>
				<path class="s55" d="m1052.9 568.2c0 0-5.2 1.7-7 6.4-0.9 2.2 0.1 4.8 2 6.2 8.7 6.2 37.2 26.2 50.3 30.1 1.1 0.3 2.1-0.7 1.9-1.8-0.7-3-2.9-9.1-9.9-18.1l0.6 1.3c0.8 1.6-0.9 3.3-2.5 2.4-8.8-5-26.7-15.8-35.4-26.5z"/>
				<path class="s56" d="m1057.2 628.2c-0.2-0.1-13-31-13.2-31.1-11.7-71.7-40.5-133.1-49-149.3-1.4-2.7-4.1-4.5-7.1-4.8l-24-2-39.8 53.8 51.3-17.2c-11 30.4 38.2 89.1 54.9 110.3 1.7 2.1 1.2 5.3-1.1 6.8l-9.8 6.8c10.5 16.1 24 27.9 40.4 35.4z"/>
				<path class="s57" d="m1025 597.9c0 0-5.4 0.6-8.1 4.8-1.3 2-0.9 4.7 0.7 6.5 7.2 7.8 31.1 33.1 43.2 39.6 1 0.6 2.2-0.2 2.2-1.3-0.1-3.1-1-9.6-6.1-19.7l0.4 1.3c0.5 1.8-1.6 3.1-3 1.9-7.6-6.7-22.9-20.9-29.3-33.1z"/>
				<g>
					<path class="s58" d="m851.6 429.7c0 0-21.7 32.2-23.4 46.9-1.8 14.8 6 19.8 28.7 21.7 67.5 5.6 100.8-14.6 100.8-14.6 4.7-29.5 7.9-37 46.5-53 0 0-48.8 3.8-58.6 0-9.8-3.8-94-1-94-1z"/>
				</g>
				<g>
					<path class="s59" d="m934.1 237.3c0 0-14.3-0.1-19.6 5.3-4.3 4.4-17.4-1.3-23.6 8.3-3.3 4.9-9.3 7.2-14.9 5.4-14-4.4-37.4-7.6-51.8 13.4-11 16.1-5.4 27 2.7 33.8 6 5 7.2 13.9 2.5 20-4.6 6-6.4 14.5 2 26.1 18.9 26.1 66.7-6.7 66.7-6.7l44.4-76.5z"/>
					<path class="s60" d="m910.3 425.4c0 0 25.3-24.1 37.7-40 6.7-8.6 8.8-19.9 5.7-30.4-5.7-19.1-15.7-38.9-16.7-42-1.4-4.8-29.7-4.6-29.7-4.6 0 0-55.7 36.2-77.6 97.5l24.6 7.6c0 0 14.5-24.4 28.9-39.9 0 0-24.9 32.9-25.8 46.3z"/>
					<path class="s61" d="m940.5 286.6c-0.3 0.9-7.7 25.4-8.3 26-0.6 0.5-16.2 1.3-23.6-3.7l15-33.3z"/>
					<path class="s62" d="m960.8 259c0 0 5.2 12.2-0.9 30.7-6.2 18.4-16.3 20.1-22.7 15.5-6.4-4.6-14.7-12.7-15.8-29.5-1-16.7 32.1-32 39.4-16.7z"/>
					<path class="s63" d="m933.9 274.6c0 0 11.2-25 28-9.4l1.2 6.4c0 0 16-4.5 10.8-19-5.3-14.4-24.4-24.2-41.4-14.9-17.1 9.4-22.9 20.4-22 33.6 1 13.2 10.8 8.7 10.8 8.7 0 0 1.9-9.7 6.6-11.4 4.6-1.8 4.5 5.6 4.5 5.6z"/>
					<path class="s64" d="m930.1 274.9c0 0 5.8-12.8-2.3-13.3-8.2-0.4-4.9 12.4-3.2 17.1z"/>
					<path class="s65" d="m958.4 434.9l-19-20.7-21.9 5.9c0 0-25.5 4-40.2 0-14.6-3.9-14.6-3.9-14.6-3.9l-33-10.3-5.2 14.7c-1.3 3.7 0 7.8 3.2 10.1 2.9 2 6.2 4.3 8.3 5.2 4.4 1.9 100.3 0.6 100.3 0.6z"/>
				</g>
				<g>
					<path class="s66" d="m895.6 443.1q0.1 0 0.2 0l87.3-0.1c2.2 0 3.9-1.8 3.9-3.9 0-2.2-1.8-4-3.9-4l-87.3 0.1c-2.2 0-3.9 1.8-3.9 4 0 2 1.6 3.8 3.7 3.9z"/>
					<path class="s67" d="m1061.6 363.8h-72.7c-5.4 0-10.3 3.1-12.6 7.9l-33.6 71.3h90.4c3.4 0 6.5-2.1 7.8-5.3l26.1-66c1.5-3.8-1.3-7.9-5.4-7.9z"/>
				</g>
			</g>
			<g>
				<path class="s68" d="m479.5 1125.6c0 0-65.6-91.7-31.4-84.5 34.1 7.2 37.7 26.1 76.4 5.4 38.6-20.6 47.6-39.5 54.8-11.7 7.2 27.9 0 37.8 29.7 32.4 29.6-5.4 35.9 2.7-10.8 49.4-50.4 0-118.7 9-118.7 9z"/>
				<path class="s69" d="m474.7 1132.9c0 0-202.5 175.9-142.6 320.9 0 0 31.2 92.1 200.2 92.1 169 0 180.9-62 198.9-94.4 14.4-46.7 55.8-107.2-133-318.6z"/>
				<path class="s70" d="m609 1125.8c0 4.7-3.8 8.5-8.5 8.5h-127.7c-4.7 0-8.5-3.8-8.5-8.5v-1.3c0-4.7 3.8-8.5 8.5-8.5h127.7c4.7 0 8.5 3.8 8.5 8.5 0 0 0 1.3 0 1.3z"/>
				<g>
					<path class="s71" d="m529.1 1445.7v-16.6c-17.4-0.7-34.6-4.8-46.8-10.2-4.3-1.9-6.6-6.8-5.3-11.4l4.2-15.5c1.6-5.7 7.8-8.7 13.2-6.4 12.2 5.1 27.1 9.1 43.2 9.1 16.8 0 29.3-5.7 29.3-17.3 0-10.5-9.7-16.8-32.9-23-33.3-9.1-57.1-23.6-57.1-52.8 0-26.4 19.3-46.5 52.8-51.9v-16.7c0-5.4 4.3-9.7 9.7-9.7h9.8c5.4 0 9.7 4.3 9.7 9.7v15c16.1 0.6 27.8 3.4 37.1 6.6 4.8 1.7 7.4 6.8 6.1 11.7l-3.9 14.4c-1.5 5.5-7.5 8.5-12.8 6.5-8.6-3.2-20.7-6.6-36.4-6.6-19.9 0-25.5 8.2-25.5 15.6 0 9.1 11.9 15.3 37.7 23.3 36.9 11.1 52.2 26.4 52.2 53.9 0 25.3-18.7 48-55 53.7v18.6c0 5.4-4.4 9.8-9.8 9.8h-9.8c-5.3 0-9.7-4.4-9.7-9.8z"/>
				</g>
				<g>
					<path class="s8" d="m548.6 1457.8h-9.8c-6.6 0-12-5.4-12-12.1v-14.5c-15.9-0.9-32.7-4.6-45.4-10.2-5.3-2.3-8.2-8.4-6.6-14.1l4.2-15.5c0.9-3.4 3.2-6.1 6.3-7.6 3.1-1.6 6.8-1.7 10-0.3 9.7 4.1 25 8.9 42.3 8.9 6.4 0 27-1.1 27-15 0-8.9-8.8-14.7-31.2-20.8-52.7-14.4-58.8-38.3-58.8-55 0-27.5 20.2-48 52.8-53.9v-14.7c0-6.6 5.4-12 12-12h9.8c6.6 0 12 5.4 12 12v12.8c13.1 0.7 24.8 2.9 35.6 6.7 5.8 2 9.1 8.4 7.5 14.4l-3.9 14.4c-0.9 3.2-3.1 6-6.1 7.5-3 1.6-6.6 1.8-9.7 0.6-11.5-4.4-23.2-6.5-35.6-6.5-14.8 0-23.2 4.9-23.2 13.3 0 7.2 10.1 13.1 36.1 21.1 38.2 11.5 53.8 27.7 53.8 56.1 0 28-21.5 49.7-55 55.6v16.7c0 6.7-5.4 12.1-12.1 12.1zm-58-70.7c-1.1 0-2.2 0.3-3.3 0.8-1.9 0.9-3.3 2.6-3.8 4.7l-4.3 15.5c-0.9 3.5 0.8 7.3 4.1 8.7 12.7 5.6 29.9 9.3 45.9 10h2.2v18.9c0 4.1 3.4 7.5 7.4 7.5h9.8c4.1 0 7.5-3.4 7.5-7.5v-20.6l1.9-0.3c32.8-5.1 53.1-24.8 53.1-51.4 0-26.3-14.2-40.8-50.6-51.7-24.9-7.7-39.3-14.3-39.3-25.5 0-16.6 21.3-17.9 27.8-17.9 13 0 25.2 2.2 37.2 6.8 2 0.7 4.1 0.6 6-0.4 1.9-0.9 3.2-2.6 3.8-4.6l3.9-14.4c1-3.7-1.1-7.7-4.6-8.9-11-3.9-22.9-6-36.5-6.5l-2.2-0.1v-17.2c0-4.1-3.3-7.4-7.4-7.4h-9.8c-4.1 0-7.4 3.3-7.4 7.4v18.6l-1.9 0.3c-31.9 5.2-50.9 23.7-50.9 49.7 0 24.5 17.1 40.1 55.4 50.6 20.7 5.6 34.6 12 34.6 25.2 0 12.3-11.8 19.6-31.6 19.6-14.3 0-29.6-3.2-44.1-9.3q-1.4-0.6-2.9-0.6z"/>
				</g>
			</g>
			<g>
				<path class="s1" d="m1822 631.2c0 5.1-4.1 9.2-9.2 9.2h-349.2c-5.1 0-9.2-4.1-9.2-9.2 0-5.1 4.1-9.2 9.2-9.2h349.2c5.1 0 9.2 4.1 9.2 9.2z"/>
				<path class="s1" d="m1822 677.2c0 5-4.1 9.2-9.2 9.2h-349.2c-5.1 0-9.2-4.2-9.2-9.2 0-5.1 4.1-9.2 9.2-9.2h349.2c5.1 0 9.2 4.1 9.2 9.2z"/>
				<path class="s1" d="m1822 723.1c0 5.1-4.1 9.2-9.2 9.2h-349.2c-5.1 0-9.2-4.1-9.2-9.2 0-5.1 4.1-9.2 9.2-9.2h349.2c5.1 0 9.2 4.1 9.2 9.2z"/>
			</g>
			<g>
				<g>
					<path class="s72" d="m1204.2 1145.5c-0.2 0.5-14.2 10.8-14.2 10.8 0 0 3.1 22.1 15.6 30.8 13.8 9.6 33.3-7.9 33.3-7.9 0 0 15.6 3.7 23.8-28.6 1.9-7.4-9-8-22.2-6.7-17 1.8-36.3 1.6-36.3 1.6z"/>
					<path class="s73" d="m1178 1221c5.5-3.7 11.6-6.6 18-8.3 2.4-0.7 15.4 3.1 23.5 2.9 11-0.2 22.3-5.3 31.4-3 9 2.3 16.4 5.2 20.7 8.3 12.8 9.1 20.3 26 24.9 42.9-8.7 8.9-19.6 12.8-19.6 12.8l-2 81.8-48.3 24.7-55.2-27.7 2-79.9c0 0-17.5-8.1-18.8-11.1-1.3-3 8-32.7 23.4-43.4z"/>
					<path class="s74" d="m1155.4 1264c0 0-23.5 65.1 30.1 91.9 11.1-1.5 6.8-20 6.8-20 0 0-23.3-5.1-16.3-59.4-6.4-5.3-20.6-12.5-20.6-12.5z"/>
					<path class="s75" d="m1295.4 1264c0 0 16.1 68-30.1 91.9-11.1-1.5-6.8-20-6.8-20 0 0 18.7-9.2 16.3-59.4 6.4-5.3 20.6-12.5 20.6-12.5z"/>
					<path class="s3" d="m1269.3 1360.4h-91.1c-4.1 0-7.4-3.3-7.4-7.4v-56.7c0-4.1 3.3-7.4 7.4-7.4h91.1c4.1 0 7.5 3.3 7.5 7.4v56.7c0 4.1-3.4 7.4-7.5 7.4z"/>
					<g>
						<path class="s76" d="m1323.3 1381.7c-12.2-2.8-40.2-1.3-40.2-1.3l-1.1 3.1-1.9 15.3c0 0 26.7 4.8 39.8 4.8q2 0 3.7-0.5 0.6-0.6 1.2-1.2c5.6-6.1 4-15-1.5-20.2z"/>
						<path class="s77" d="m1275 1379.5l4.8 0.2c2.5 0.1 4.9 1.4 6.7 3.5 1.7 2.1 2.5 4.8 2.4 7.7-0.1 2.2-1 4.3-2.6 5.8-1.5 1.5-3.5 2.3-5.5 2.1l-7.3-0.5z"/>
					</g>
					<g>
						<path class="s78" d="m1115.4 1380.2c12.2-2.4 40.2-0.1 40.2-0.1l1 3.2 1.6 15.4c0 0-26.9 3.9-40 3.5q-2 0-3.7-0.6-0.6-0.6-1.1-1.2c-5.5-6.3-3.6-15.2 2-20.2z"/>
						<path class="s79" d="m1163.7 1379.5l-4.8 0.1c-2.5 0-5 1.2-6.7 3.2-1.8 2.1-2.8 4.8-2.7 7.6 0.1 2.3 1 4.4 2.4 6 1.5 1.5 3.5 2.3 5.5 2.2l7.3-0.3z"/>
					</g>
					<path class="s80" d="m1326.7 1333.5c-5.5-12.6-19-14.7-30.5-8.8-0.2 0.3-72.7 37.5-136.6 53.8 1.8 5.8 2.7 12.1 2.9 18.2q0.1 2.1 0 4.1c49-2.5 102.3-18.9 148-33.3 14.2-4.6 22.2-19.9 16.2-34z"/>
					<path class="s81" d="m1275.4 1397.7q-0.3-10.6 4.1-19.8 0.1-0.4 0.3-0.8c-3.7-1.1-8.4-2.7-14.6-4.8-45.4-15.5-80-31.2-113.1-49.3-12.9-7-27.5-2.3-31.6 12.9-3.7 13.6 4.4 25.2 16.6 29.2 36.6 12.2 17.6 8.8 29.5 12.7 32.2 9.9 72.1 19 108.9 21.4q-0.1-0.7-0.1-1.5z"/>
					<path class="s82" d="m1196 1212.7c0 0 4.9 21.2 28.6 20.7 24.1-0.4 26.3-20.8 26.3-20.8l-15.8-3.4-1.3-17.5-23.7 1.7-0.5 16.7z"/>
					<path class="s83" d="m1213.4 1141.8c0 0-27.2 52.7 5.1 65.5 22.7 9 37-35 32.7-46.9-6.6-18.4-10.9-16.2-10.9-16.2z"/>
					<path class="s84" d="m1257.8 1137.1c13.4 3.6 1.9 32.8-18.3 25.9-20.2-6.9-28.2-6.8-31.3-1.2-3.2 5.5-3.9 25.2-10.7 15.5-7.5-10.7-11.7-32.2-2.5-39.1 8.2-6.2 10.1-15.7 20-15.4 13.1 0.4 23.2-5.4 29.1-1.2 6.8 4.8 3.8 12.7 13.7 15.5z"/>
					<path class="s85" d="m1206.9 1166.3c0 0-5.8-6.3-6.7 1.3-0.9 7.5 2 17.2 5.5 11.9 3.5-5.3 1.2-13.2 1.2-13.2z"/>
				</g>
			</g>
			<g>
				<g>
					<g>
						<path class="s9" d="m1978.3 437.3c-0.9 0-1.8-0.5-2.3-1.5-1.7-3.6-2.9-7.4-3.8-11.3-0.3-1.4 0.6-2.7 2-3 1.3-0.3 2.7 0.6 3 1.9 0.7 3.6 1.8 7 3.4 10.3 0.6 1.3 0 2.8-1.2 3.3q-0.5 0.3-1.1 0.3z"/>
					</g>
					<g>
						<path class="s9" d="m1993.6 455.9c-0.6 0-1.1-0.2-1.5-0.5-3-2.2-5.7-4.7-8.2-7.5-0.9-1.1-0.8-2.6 0.3-3.6 1-0.9 2.6-0.8 3.5 0.3 2.2 2.5 4.7 4.8 7.4 6.8 1.1 0.8 1.3 2.4 0.5 3.5-0.5 0.6-1.3 1-2 1z"/>
					</g>
					<g>
						<path class="s9" d="m2011.2 464.2q-0.2 0-0.5-0.1c-2.9-0.7-5.8-1.7-8.5-2.8-1.3-0.6-1.8-2.1-1.3-3.3 0.6-1.3 2.1-1.9 3.3-1.3 2.5 1 5 1.9 7.6 2.5 1.4 0.3 2.2 1.7 1.9 3-0.3 1.2-1.3 2-2.5 2z"/>
					</g>
					<g>
						<path class="s9" d="m2022.8 465.5q-0.7 0-1.3 0c-1.4 0-2.5-2-2.5-3.3 0-1.4 1.2-3.3 2.5-3.3q0.1 0 0.1 0c2.5 0 5.1 0.7 7.6 0.4 1.4-0.2 2.7 1.2 2.8 2.5 0.2 1.4-0.7 2.9-2.1 3.1-2.3 0.3-4.7 0.6-7.1 0.6z"/>
					</g>
					<g>
						<path class="s9" d="m2029.6 465.1c-1.3 0-2.4-0.9-2.5-2.2-0.2-1.4 0.7-2.6 2.1-2.8 23-3.2 40.3-23 40.3-46.2 0-25.8-21-46.7-46.7-46.7-25.7 0-46.6 20.9-46.6 46.7 0 1.3-1.2 2.5-2.5 2.5-1.4 0-2.6-1.2-2.6-2.5 0-28.5 23.2-51.7 51.7-51.7 28.5 0 51.7 23.2 51.7 51.7 0 25.7-19.2 47.7-44.6 51.2q-0.2 0-0.3 0z"/>
					</g>
					<g>
						<path class="s9" d="m2054.8 419.9h-32.7c-1.4 0-2.5 0.7-2.5-0.7v-37.7c0-1.4 0.9-2.6 2.3-2.6 1.4 0 2.3 1.2 2.3 2.6v33.8h30.6c1.3 0 2.5 0.9 2.5 2.3 0 1.4-1.2 2.3-2.5 2.3z"/>
					</g>
				</g>
				<path class="s9" d="m2035.6 493.1c-24.4 0-51-1.8-68.5-5.4-13.3-2.7-20.3-6.1-21.3-10.3-3.7-14.5-15.7-123.5 4.1-140.6q0.4-0.4 0.9-0.4c16.4 0.6 160.6 6.1 169.4 17.7 9.6 12.5-16.7 119-25.7 130.9-4.2 5.5-30 8.1-58.9 8.1zm-84.4-154.1c-17 16.4-7.3 120.7-2.9 137.8 0.3 1.4 2.9 5 19.3 8.4 39 7.9 118.3 6.8 124.8-1.8 4.3-5.6 12.8-33.9 19.4-64.4 7.3-33.9 9.8-58.8 6.4-63.4-6.1-8-103-14.3-167-16.6z"/>
			</g>
			<g>
				<path class="s9" d="m2068.7 924.3c-18.3 0-38.2-1.5-51.3-4.1-10-2-15.2-4.6-16-7.7-2.7-10.9-11.7-92.4 3.1-105.2q0.3-0.3 0.7-0.3c12.3 0.5 120.1 4.5 126.7 13.2 7.2 9.4-12.5 89-19.2 97.9-3.2 4.2-22.5 6.2-44 6.2zm-63.2-115.3c-12.8 12.2-5.4 90.2-2.2 103 0.3 1.1 2.2 3.8 14.4 6.3 29.2 5.9 88.6 5.1 93.4-1.3 3.2-4.2 9.6-25.4 14.5-48.2 5.5-25.4 7.4-44 4.8-47.4-4.6-6-77-10.7-124.9-12.4z"/>
				<g>
					<path class="s9" d="m2059 849.7c-0.6 15.3-9 22.7-18.4 22.3-9.1-0.4-16.6-7.9-16.2-22.6 0.6-14.6 8.9-22.5 18.5-22.1 10.2 0.4 16.6 8.5 16.1 22.4zm-26.7-0.4c-0.6 9.3 2.6 16.5 8.8 16.8 6.5 0.2 9.7-6.6 10-16.3 0.4-8.8-1.9-16.3-8.8-16.6-6.1-0.2-9.7 6.9-10 16.1zm6.5 53.3l45.7-73.7 6.3 0.3-45.8 73.6zm66.5-20.9c-0.6 15.4-9 22.7-18.3 22.3-9-0.3-16.6-7.9-16.1-22.5 0.5-14.7 8.8-22.5 18.4-22.2 10.2 0.4 16.5 8.5 16 22.4zm-26.7-0.3c-0.5 9.3 2.8 16.5 8.9 16.7 6.5 0.2 9.7-6.6 10-16.2 0.4-8.9-1.9-16.4-8.7-16.6-6.2-0.3-9.8 6.9-10.2 16.1z"/>
				</g>
			</g>
		</g>
	</g>
</svg>