<svg version="1.2" xmlns="http://www.w3.org/2000/svg" viewBox="0 0 2250 2250" width="2250" height="2250">
	<title>23046940_Programming_concept_illustration</title>
	<style>
		.s0 { fill: #89cdff } 
		.s1 { fill: #ffffff } 
		.s2 { fill: #006eff } 
		.s3 { fill: #fa776a } 
		.s4 { fill: #d0eaff } 
		.s5 { fill: #ffd2c0 } 
		.s6 { fill: #ff9aa6 } 
		.s7 { fill: #000080 } 
		.s8 { opacity: .4;fill: #ffffff } 
		.s9 { fill: #fff0dd } 
		.s10 { fill: #b9deff } 
		.s11 { fill: #004ad9 } 
		.s12 { fill: #fa8b86 } 
		.s13 { opacity: .3;fill: #ffffff } 
		.s14 { fill: #3545ff } 
	</style>
	<g id="layer1">
		<g id="g7875">
		</g>
		<g id="g32319">
			<g id="g24854">
				<g id="g24850">
					<path id="path24840" class="s0" d="m1011.7 598.6h230.1c7.2 0 12.9 5.8 12.9 12.9v202.4c0 7.2-5.7 12.9-12.9 12.9h-230.1c-7.2 0-12.9-5.7-12.9-12.9v-202.4c0-7.1 5.7-12.9 12.9-12.9z"/>
					<path id="path24842" class="s1" d="m1019.9 640.6h213.7c5.9 0 10.7 4.8 10.7 10.7v153.2c0 6-4.8 10.7-10.7 10.7h-213.7c-5.9 0-10.7-4.7-10.7-10.7v-153.2c0-5.9 4.8-10.7 10.7-10.7z"/>
					<path id="path24844" class="s1" d="m1043 620.1c0 4.1-3.3 7.3-7.3 7.3-4 0-7.2-3.2-7.2-7.3 0-4 3.2-7.2 7.2-7.2 4 0 7.3 3.2 7.3 7.2z"/>
					<path id="path24846" class="s1" d="m1070 620.1c0 4.1-3.3 7.3-7.3 7.3-4 0-7.3-3.2-7.3-7.3 0-4 3.3-7.2 7.3-7.2 4 0 7.3 3.2 7.3 7.2z"/>
					<path id="path24848" class="s1" d="m1101.3 620.1c0 4.1-3.3 7.3-7.3 7.3-4 0-7.2-3.2-7.2-7.3 0-4 3.2-7.2 7.2-7.2 4 0 7.3 3.2 7.3 7.2z"/>
				</g>
				<path id="path24852" class="s2" d="m1133.8 688.4l-28.3 75.8h14.4l28.3-75.8zm-33.6 9.4l-51.5 25.7v7.5l51.5 22.7v-12.4l-35.5-14.6 35.5-16.4zm53 0v12.4l35.5 16.5-35.5 14.5v12.4l51.6-22.7v-7.4z"/>
			</g>
			<path id="path24856" class="s3" d="m469.8 286.5c-7.1 0-12 5.8-12.9 12.9l-1.6 13c-7.1 1.9-14 4.7-20.4 8.3l-10.2-8c-5.6-4.3-13.1-5-18.2 0l-12.4 12.4c-5 5.1-4.3 12.6 0 18.3l7.7 9.9c-3.7 6.5-6.6 13.5-8.6 20.7l-12.4 1.6c-7.1 0.9-12.9 5.7-12.9 12.8v17.6c0 7.1 5.8 11.9 12.9 12.8l12.4 1.6c2 7.2 4.9 14.2 8.6 20.7l-7.7 9.9c-4.3 5.7-5 13.2 0 18.3l12.4 12.4c5.1 5 12.6 4.3 18.2 0l10.2-8c6.4 3.6 13.3 6.4 20.4 8.3l1.6 13c0.9 7.1 5.8 12.9 12.9 12.9h17.5c7.2 0 12-5.8 12.9-12.9l1.7-13.4c6.9-2 13.5-4.8 19.7-8.4l10.8 8.5c5.7 4.3 13.2 5 18.2 0l12.4-12.4c5.1-5.1 4.4-12.6 0-18.3l-8.6-11.1c3.4-6.1 6.1-12.6 8-19.3l14-1.8c7.1-0.9 12.9-5.7 12.9-12.8v-17.6c0-7.1-5.8-11.9-12.9-12.8l-14-1.8c-1.9-6.8-4.6-13.2-8-19.4l8.6-11c4.4-5.7 5.1-13.2 0-18.3l-12.4-12.4c-5-5-12.5-4.3-18.2 0l-10.8 8.5c-6.2-3.6-12.8-6.4-19.7-8.4l-1.7-13.4c-0.9-7.1-5.7-12.9-12.9-12.9 0 0-17.5 0-17.5 0zm8.7 65q0.1 0 0.1 0c25.2 0 45.6 20.5 45.6 45.7 0 25.2-20.4 45.7-45.6 45.7-25.2 0-45.7-20.5-45.7-45.7 0-25.2 20.4-45.6 45.6-45.7z"/>
			<path id="path24858" class="s3" d="m560.7 485.7c-5.2 0-8.8 4.3-9.4 9.5l-1.2 9.5c-5.3 1.4-10.3 3.4-15 6.1l-7.5-5.8c-4.1-3.2-9.6-3.7-13.3 0l-9.1 9.1c-3.7 3.7-3.2 9.2 0 13.3l5.7 7.3c-2.8 4.8-4.9 9.9-6.4 15.2l-9.1 1.1c-5.2 0.7-9.4 4.2-9.4 9.5v12.8c0 5.3 4.2 8.8 9.4 9.5l9.1 1.1c1.5 5.3 3.6 10.4 6.4 15.2l-5.7 7.3c-3.2 4.1-3.7 9.6 0 13.3l9.1 9.1c3.7 3.7 9.2 3.2 13.3 0l7.5-5.8c4.7 2.7 9.7 4.7 15 6.1l1.2 9.5c0.6 5.2 4.2 9.5 9.4 9.5h12.9c5.2 0 8.7-4.3 9.4-9.5l1.2-9.8c5.1-1.5 9.9-3.5 14.5-6.1l7.9 6.1c4.1 3.2 9.7 3.7 13.4 0l9.1-9.1c3.7-3.7 3.2-9.2 0-13.3l-6.4-8.1c2.5-4.5 4.5-9.3 5.9-14.2l10.2-1.3c5.2-0.7 9.5-4.2 9.5-9.5v-12.8c0-5.3-4.3-8.8-9.5-9.5l-10.2-1.3c-1.4-4.9-3.4-9.7-5.9-14.1l6.4-8.2c3.2-4.1 3.7-9.6 0-13.3l-9.1-9.1c-3.7-3.7-9.3-3.2-13.4 0l-7.9 6.1c-4.6-2.6-9.4-4.6-14.5-6.1l-1.2-9.8c-0.7-5.2-4.2-9.5-9.4-9.5zm6.3 47.7q0.1 0 0.1 0c18.5 0 33.5 15 33.5 33.5q0 0 0 0c0 18.5-15 33.5-33.5 33.5-18.5 0-33.5-15-33.5-33.5 0-18.5 15-33.5 33.4-33.5z"/>
			<g id="g24880">
				<path id="path24864" class="s2" d="m1507.4 1529.7l65.8 546.1h-22.2l-109.7-545.6z"/>
				<path id="path24866" class="s2" d="m1214.3 1529.7l65.8 546.1h-22.2l-109.7-545.6z"/>
				<path id="path24868" class="s4" d="m1353.1 1529.7l-65.8 546.1h22.2l109.7-545.6z"/>
				<path id="path24870" class="s4" d="m1082.1 1529.7l-65.8 546.1h22.2l109.7-545.6z"/>
				<path id="rect24872" class="s1" d="m1071.5 1506.4h456.9c12.9 0 23.3 10.5 23.3 23.4v41.5c0 13-10.4 23.4-23.3 23.4h-456.9c-12.9 0-23.4-10.4-23.4-23.4v-41.5c0-12.9 10.5-23.4 23.4-23.4z"/>
				<path id="path24874" class="s4" d="m1344.9 1324.8c0 0 76.8-219.2 85.9-286.1 9.2-66.8 174-61.2 243.6-48.6 69.6 12.6 34.8 131.5 7 263.1-27.9 131.6-64.4 315.3-175.7 315.3h-438.4c0 0-88.4-19.3-69.6-91.8 18.7-72.6 347.2-151.9 347.2-151.9z"/>
				<path id="path24876" class="s2" d="m1348.4 1324.8c-2.2 0-3.5 0-3.5 0 0 0-113.2 27.4-210.6 64.6 76.8 11 224.8-0.9 283 1.3 65.1 2.6 104.5-24.2 55.3-45.8-43-19-108.5-20.1-124.2-20.1z"/>
				<path id="path24878" class="s1" d="m1664.2 988.4c-35.8 26-68.7 71.3-64.6 147.9 8.7 159.4-49.9 256.6-126.5 286.6-31 12.1-50.3 34.8-58.9 63.1h-418.4q-0.5 3.6-0.7 7.1h417.2q-2.2 9.3-2.9 19.4c-1.3 17.6 0.7 36.5 5.7 56h7.2c-5.2-19.5-7.3-38.3-6.1-55.5 2.8-38.1 21.3-68.6 59.3-83.5 80.1-31.3 139.7-132.3 131-293.6-4.3-78.7 31-121.7 67.7-145.9-3.1-0.5-6.5-1.1-10-1.6z"/>
			</g>
			<g id="g24898">
				<g id="g24888">
					<path id="path24882" class="s4" d="m804.3 1184.7h-267.4c-6.1 0-11 4.9-11 10.9v45.3c0 6.1 4.9 11 11 11h267.4c6 0 10.9-4.9 10.9-11v-45.3c0-6-4.9-10.9-10.9-10.9z"/>
					<path id="path24884" class="s1" d="m525.9 1202.1v7.6h289.3v-7.6zm0 25.9v7.7h289.3v-7.7z"/>
					<path id="path24886" class="s1" d="m651 1206.8l50.4 13.5v-13.6z"/>
				</g>
				<g id="g24896">
					<path id="path24890" class="s4" d="m536.9 1117.5h267.4c6 0 10.9 4.9 10.9 10.9v45.3c0 6.1-4.9 11-10.9 11h-267.4c-6.1 0-11-4.9-11-11v-45.3c0-6 4.9-10.9 11-10.9z"/>
					<path id="path24892" class="s1" d="m815.2 1134.9v7.6h-289.3v-7.6zm0 26v7.6h-289.2v-7.6z"/>
					<path id="path24894" class="s1" d="m624.7 1139.6l-50.3 13.5v-13.6z"/>
				</g>
			</g>
			<g id="g25010">
				<path id="path24900" class="s5" d="m856.2 1990.3l4.9-52.2c33.3-4.8 66.7-3.3 100 0l-14.9 52.2c-29.7 3.1-59.4 5.7-90 0z"/>
				<g id="g24918">
					<path id="path24902" class="s5" d="m1410.9 1930.3c15.4 0.3 30.8 2.8 46.1 7l0.7 43.4h-90.6l-2.9-43.4c15.7-5.2 31.2-7.2 46.7-7z"/>
					<path id="path24904" class="s1" d="m1366.6 1972.4l1.1 17.1h90.1l-0.3-17.1z"/>
					<path id="path24906" class="s6" d="m1364.2 1937.3h92.8l0.3 16.4z"/>
					<path id="path24908" class="s2" d="m1457.8 1989.5l7.6 65.9c0 0 3.8 19.7-11.4 19.7h-125.1c0 0-6.9-1.9-1.3-12.1 5.5-10.3 30.1-27.2 30.1-27.2l6.5-46.3c34.6-4.9 63.8-2 93.6 0z"/>
					<path id="path24910" class="s7" d="m1398.4 2038.3l21.9 11.5h44.6l0.5 5.6c0 0 3.8 19.7-11.4 19.7h-125.1c0 0-6.9-1.9-1.3-12.1 5.5-10.3 30.1-27.2 30.1-27.2h29.3c3.6 0.2 7.3 0.6 11.4 2.5z"/>
					<path id="path24912" class="s1" d="m1371.7 2005.4h23.6c1.3 0 2.6 1.1 2.8 2.5 0.3 1.3-0.6 2.4-2 2.4h-23.5c-1.4 0-2.7-1.1-2.9-2.5-0.3-1.3 0.6-2.4 2-2.4z"/>
					<path id="path24914" class="s1" d="m1367.3 2019.8h23.6c1.3 0 2.6 1.1 2.9 2.4 0.2 1.4-0.7 2.5-2 2.5l-23.6-0.1c-1.4 0-2.7-1.1-2.9-2.4-0.2-1.4 0.7-2.4 2-2.4z"/>
					<path id="path24916" class="s1" d="m1366.6 1972.4l-2.4 17.1h95l-1.7-17.1z"/>
				</g>
				<path id="path24920" class="s7" d="m1140.8 1258.3c0 0-121.4 88.2-192 129.2-55.1 32-75.3 73.8-76.3 112.7l-10.1 394.9c-18.8 21.5-11.2 32.7-1.3 43h100c11.7-6.5 22.5-13.6 10.6-39.9l83.5-359.1c35.3-22.2 165.3-91 248.2-94.1-0.9 11-0.3 22.4 1.3 34.3l52.5 409.7c-10.2 21.3-5.5 36.4 7 48.3h92.8c12.1-5.5 24.5-15.9 11-45l31.8-413c0.6-7.6 0.9-24.8 1-26.3 3.8-61-54.9-194.7-54.9-194.7z"/>
				<path id="path24922" class="s2" d="m856.2 1990.3l-7.4 26.3c0 0-72.9 40.1-84.7 46.4-7.1 4.5-2.1 12.8 2.3 12.8h145.3c18.2 0 25.8-9 25.8-25.8l8.7-59.7z"/>
				<path id="path24924" class="s7" d="m812.3 2036.7c-20.3 11.1-42.1 23-48.2 26.3-7.1 4.5-2.1 12.8 2.3 12.8h145.3c18 0 25.6-8.8 25.8-25.2h-99.8z"/>
				<path id="path24926" class="s1" d="m820.1 2027.6c-0.9 0-1.6 0.5-2 1.3-0.7 1.2-0.2 2.6 0.9 3.3l12.2 6.6c1.2 0.6 2.7 0.2 3.3-1 0.7-1.2 0.2-2.7-1-3.3l-12.1-6.6q-0.6-0.3-1.3-0.3z"/>
				<path id="path24928" class="s1" d="m835.4 2018.9c-0.9 0-1.7 0.5-2.1 1.3-0.6 1.1-0.2 2.6 1 3.3l12.2 6.5c1.2 0.7 2.7 0.3 3.3-0.9 0.6-1.2 0.2-2.7-1-3.3q0 0 0 0l-12.2-6.6q-0.6-0.3-1.2-0.3z"/>
				<path id="path24930" class="s1" d="m857.8 1973.2l-1.6 17.1h90l4.9-17.1z"/>
				<path id="path24932" class="s6" d="m861.1 1938.1l94.9 17.8 5.1-17.8z"/>
				<path id="path24934" class="s8" d="m1226.2 1258.3c-1.6 9-9.7 54.9-13.1 71.7-2 10.1 2.2 18.3 6.7 23.7 4.6 5.4 9.7 8.2 9.7 8.2q0.4 0.3 0.8 0.3c-3.9 42.6 19.5 74.5 32.2 88.5q2.9-0.6 5.7-1.2c-12.7-13.2-42.9-51.2-30.3-102.3 15.2-61.5 16.8-86.1 16.9-88.9h-5c-0.2 3.5-1.9 27.6-16.8 87.7q-1.3 5.6-2.1 10.9c-1.5-1-4.5-3.2-7.2-6.5-4-4.6-7.3-11.1-5.7-19.5 3.5-17.2 11.9-64.7 13.3-72.6zm165.9 96.4q-0.2 0-0.3 0.1c-41.8 5.6-64.7 28.1-77 49.2-12.2 21.1-13.9 40.8-13.9 40.8q0 0.2-0.1 0.4 1.3-0.1 2.6-0.2-0.3 4-0.4 8.1c1.5-7.6 6.6-30.1 16.2-46.6 11.6-20.1 33-41.4 73.2-46.8 1.4-0.1 2.4-1.4 2.2-2.8-0.2-1.2-1.2-2.1-2.5-2.2zm-383 153.5c-1.3 0.2-2.3 1.4-2.2 2.8 0.2 1.4 1.4 2.4 2.8 2.2 16.8-1.8 27.3 4.8 34 12 4.2 4.5 6.3 8.4 7.6 11.2-2-0.1-3-0.2-6.8-0.1-6.1 0.1-13.3 0.6-18.5 3.1-1.3 0.6-1.8 2.1-1.2 3.4 0.6 1.2 2.1 1.8 3.3 1.2 3.8-1.8 10.7-2.6 16.5-2.7 5-0.1 8.9 0.2 10 0.2l0.6-2.4c0.7-0.5 1.5-0.9 2.2-1.4-0.7-2-3.4-9.4-10-16-17.6-17.5-36-13.7-38.3-13.5zm348.1 378.3h-0.1-0.3l0.4 2.5q-0.6 1.3-1.1 2.5h1.1l110.6 3.3 1.4 0.2q-0.6-1.3-1.2-2.7l0.2-2.5h-0.1l-110.8-3.3h-0.1zm-494.7 4.8l-0.1 3.8q-0.5 0.6-1 1.2l1.4 0.1h0.1l108.7 4.3h0.2 1q-0.5-1.3-1.1-2.5l0.7-2.6-0.7 0.1-108.6-4.3z"/>
				<path id="path24936" class="s2" d="m1380.7 879.9l-141.5 6.9-92.3 29c0 0-40.4 11.6-67.2 62.5-15 28.4-30.5 55.9-40.3 67.4-36.9 17-6.4 51.4-6.4 51.4 51.8 50.3 62 25.3 93.3 38.2 3.9 49.8 10.4 88.5 13.7 87.4-0.8 3.4-2.3 7.7-4.9 13.9-9.9 23.8 5.7 30.5 5.7 30.5 132.1 19.3 223.6 12.9 305.1 0 0 0 21.4 1.5 25.1-14.5 3.6-16-18.5-14.3-20.6-52.5-2-38.1 23-100 25.1-102.3 0 0 13-8.6 47.3-7.9 34.3 0.7 44.2-10 44.2-10 11.8-9 14.5-30.6-4.9-33 0 0-21.1-88.3-64.1-119.3-59.3-34.3-117.3-47.7-117.3-47.7z"/>
				<path id="path24938" class="s8" d="m1394.9 883.7c-23.5 6-50.4 13.9-81.4 24.1-70.5 23.1-109.8 13-131.7-3l-3.9 1.3q0.2 0.2 0.5 0.4c22.6 17.3 63.5 28.3 136.1 4.5 33.4-11 62-19.3 86.7-25.4q-3.4-1-6.3-1.9zm56.8 20.7c-58.3 15.2-127.5 33.2-207.7 42.1-61.4 6.8-92.6-5-119-19.7q-1.5 1-3.1 2.1c27.1 15.2 59.4 27.9 122.5 20.9 82.4-9.1 153.2-27.8 212.3-43.2q-2.5-1.2-5-2.2zm55.8 46.1q-1.1 0-2.2 0c-24.3 0.7-55.1 9.4-93.3 28.6-75.7 38.2-194.6 50.9-272.7 2.1-17.2-10.7-33.1-17.7-47.6-22.2q-1 1.4-2 2.8c14.4 4.5 30.4 11.5 47.8 22.3 79.6 49.7 199.3 36.7 276-1.9 37.9-19.2 68.4-27.7 91.8-28.3 6.6-0.2 12.6 0.2 18.1 1.2q-1.3-2-2.7-3.8-6.2-0.9-13.2-0.8zm-434.4 40.1q-0.8 1.5-1.6 3c6.8 2.6 14.7 7.3 24.2 13.4 19.8 12.8 46.9 31.7 88.5 50.7 41.9 19.1 93.5 18.7 139.8 8.5 46.4-10.1 87.5-30 108.8-50.6 20.2-19.6 56.2-20.4 88.1-16.5 9.7 1.2 18.9 2.8 27.1 4.4q-0.7-1.8-1.4-3.7c-7.8-1.5-16.3-3-25.2-4.1-32.3-3.9-69.4-3.4-91 17.4-20.5 19.9-61.3 39.8-107.1 49.8-45.8 10.1-96.7 10.4-137.7-8.3-41.3-18.8-68.1-37.6-88.1-50.4-9.3-6.1-17.2-10.8-24.4-13.6zm-22.7 39.6q-1 1.5-1.9 2.9c13.7 4.5 29.6 11.1 48 21.2 38.6 21.1 58.2 37.5 75.4 48.8 17.1 11.2 32 17.1 60.2 16.7 55.9-0.6 133.7 0.2 191.6-35.9 28.6-17.8 62-34.1 94.4-41.4 14.3-3.2 28.4-4.6 41.8-3.7-0.2-1-0.6-2.3-1-3.4-13.4-0.8-27.4 0.7-41.6 3.9-33 7.3-66.6 23.8-95.4 41.7-56.7 35.4-133.9 34.8-189.8 35.5-27.8 0.3-41.5-5.2-58.4-16.3-16.9-11-36.7-27.6-75.6-48.9-18.1-9.9-34-16.6-47.7-21.1zm314.9 101.3c-55.3-0.1-99.1 6.7-149.7 17.4-27.1 5.6-57.9 9.8-86.9 12.9 0.2 1.2 0.3 2.3 0.4 3.4 29-3.2 60-7.3 87.2-13 67.3-14.2 122.3-21.6 208.4-14.8 12 0.9 23.6 2.7 34.7 5q0.5-1.7 0.9-3.3c-11.3-2.3-23.1-4.2-35.3-5.1-21.6-1.7-41.3-2.5-59.7-2.5zm86.2 78.5c-6.6 1.1-12.4 2.5-17.9 4.2-17.3 5.2-32.2 11.8-68.7 11.5-73.5-0.7-126.9 0-197.9 15.5-12.6 2.8-24.1 4-34.6 4.1q-0.3 1.8-0.5 3.4c10.9-0.1 22.8-1.3 35.8-4.2 70.7-15.5 123.7-16.1 197.1-15.5 37 0.4 52.7-6.5 69.8-11.6 5.5-1.6 11.1-3.1 17.6-4.1q-0.3-1.6-0.7-3.3z"/>
				<path id="path24940" class="s7" d="m1232.8 689.6c0 0-8.7 17.5 3.3 32.7 12 15.2 20.4-47.5-3.3-32.7z"/>
				<path id="path24942" class="s7" d="m1358.6 746.7c0 0-2.2 12.7-3 23.9-0.7 11.2-5.8 7.9-5.8 7.9l-4.4-27.5z"/>
				<path id="path24944" class="s5" d="m1346.3 742.7l13.3 127.6c0 0-2.9 66.2-58 77.2-55.1 11-53.4-47.9-53.4-47.9 0 0 16-33 19.4-77.7 3.5-44.6 78.7-79.2 78.7-79.2z"/>
				<path id="path24946" class="s6" d="m1329.1 758.4l-27.4 12.2c-16.9 13.7-32.5 31.5-34.1 51.3-0.7 9.6-2.1 18.6-3.7 26.9 75.8-19 65.2-90.4 65.2-90.4z"/>
				<path id="path24948" class="s5" d="m1347.7 741.3c0.9 25.5-11.4 55.6-32.5 72.7-14.7 11.9-29.8 15-42.5 15.4-27.6 0.9-35.4-41-36.8-84.3-0.2-5-0.6-25.5-0.1-30.2 3.7-36.6 26-49.3 53.4-50.2 48.9-1.6 57.1 33.3 58.5 76.6z"/>
				<path id="path24950" class="s7" d="m1347.2 732.3c0 0-5.2 4.4-14.3-9.1-9.1-13.4-2.3-33-4.9-38.7-2.7-5.6-15.8 0.2-25.9-2.4-23.6-6.2-32.5-2.1-43 5.2-21 14.4-37.4 2.2-38.5-4.7-1-6.9 3.4-3.2 8.3-11.4 4.8-8.1 4.7-29.7 35.8-32.1 31.1-2.5 74.5-0.9 81.4 23.3 7 24.1 13.7 3.8 19.5 29.1 5.7 25.2-18.4 40.8-18.4 40.8z"/>
				<path id="path24952" class="s7" d="m1269 678.3c0 0-12 18.4-29.4 19.7-17.4 1.3-22.2-7.5-23.1-9.1-0.9-1.5-0.1 5.5 9 10.2 9 4.6 25.4 6.4 42-6.7 16.6-13 15.7-18.6 15.7-18.6z"/>
				<path id="path24954" class="s9" d="m1243.2 762.5c0.1 1.7-2.9 3.1-6.6 3.3q0 0 0 0c-3.8 0.1-6.9-1.2-6.9-2.9-0.1-1.7 2.9-3.2 6.6-3.3 3.8-0.1 6.9 1.2 6.9 2.9z"/>
				<path id="path24956" class="s6" d="m1247.1 750.2c0 0-11.9 10.4-13.8 14.7-1.8 4.4 6.8 5.3 10.3 5.2 3.4-0.1 7.7-9.6 8.4-14.7 0.7-5.2-2-8-4.9-5.2z"/>
				<path id="path24958" class="s9" d="m1303.9 760.4c0 1.7-5.1 3.3-11.4 3.5-6.3 0.2-11.5-1-11.6-2.7 0-1.7 5.1-3.2 11.4-3.5 6.3-0.2 11.5 1 11.6 2.7z"/>
				<path id="path24960" class="s10" d="m1314 909.4c0 0-6.9 0.7-14.9 15.4-8 14.6-11.8 22.5-10.8 25 0.9 2.4 22.4-2.5 27.9-6.8 5.4-4.3-2.2-33.6-2.2-33.6z"/>
				<path id="path24962" class="s1" d="m1359.6 870.3l-3.5-33c0 0 22.3 16.8 26.1 26.1 3.7 9.3 5.1 29.1-5.6 43-10.8 14-39.7 57-47.2 62.5-7.5 5.6-22-47-22-47 0 0-2.2-7 0.2-8.9 12.4-10.2 52-42.7 52-42.7z"/>
				<path id="path24964" class="s10" d="m1276.4 918c0 0 15.5 30.3 12.8 31.9-2.7 1.7-21.4-1.1-26.8-10.2-5.3-9 14-21.7 14-21.7z"/>
				<path id="path24966" class="s1" d="m1252.3 894.5c0 0 3.2-10.2 5.8-20.6 2.7-10.8 4.7-19.5 4.7-19.5 0 0-18 9.3-25.8 16.4-7.8 7.2-7 25.9-7 33 0 7.2 7.8 46.6 18.1 61.6 10.2 14.9 11.7 5.1 15.5-4.1 3.9-9.3 13.2-38.4 13.2-43.3 0-4.9-24.5-23.5-24.5-23.5z"/>
				<path id="path24968" class="s10" d="m1252.3 894.5c-6.1-6.5-11.6-12.7-5-22.3 6.4-9.1 15.5-17.8 15.5-17.8 0.5 0.5-8.2 35.4-10.5 40.1z"/>
				<path id="path24970" class="s10" d="m1359.6 870.3l-3.5-33c0 0 11 15.9 11.1 21.9 0.2 5.9-7.6 11.1-7.6 11.1z"/>
				<path id="path24972" class="s2" d="m1231 713.8c-4.6 0.1-8.6 2.9-11.3 7.1-2.7 4.1-4.2 9.6-4 15.6 0.2 6 2.1 11.4 5 15.3 3 3.9 7.2 6.5 11.8 6.3 4.6-0.1 8.6-2.9 11.3-7.1 2.7-4.1 4.2-9.6 4-15.6q0-0.4 0-0.7 0-0.1 0.1-0.1c0 0 0.5-0.6 1.2-1 0.8-0.3 1.5-0.5 3.1 0.9q0.1 0.1 0.2 0.2 0 0.3 0 0.6c0.4 12 10.1 21.6 21.7 21.2 11.5-0.4 20.5-10.3 20.3-22.2l55.2-9.8c0.9-0.1 1.4-0.9 1.3-1.8-0.2-0.9-0.9-1.4-1.7-1.4q-0.1 0-0.2 0.1l-54.9 9.6c-1.7-10.7-10.7-18.8-21.4-18.4-10.2 0.3-18.4 8.3-20 18.4-1.8-0.9-3.6-0.9-4.8-0.3-0.2 0-0.3 0.1-0.5 0.2-0.8-4.1-2.3-7.9-4.6-10.8-2.9-3.9-7.1-6.5-11.7-6.3zm0.1 3.2c3.3-0.1 6.5 1.7 9 5.1 2.6 3.3 4.3 8.1 4.4 13.4 0.2 5.4-1.2 10.3-3.4 13.8-2.3 3.4-5.4 5.5-8.7 5.6-3.4 0.1-6.6-1.7-9.1-5-2.5-3.4-4.2-8.1-4.4-13.5-0.2-5.4 1.2-10.3 3.5-13.7 2.2-3.5 5.3-5.6 8.7-5.7zm41.6-1.2c9.8-0.3 18 7.8 18.4 18.2 0.3 10.4-7.4 19-17.2 19.3-9.7 0.3-18-7.7-18.3-18.1-0.4-10.4 7.3-19 17.1-19.4z"/>
				<path id="path24974" class="s5" d="m1362.2 716.5c7.7 2.2 11.3 13.2 8 24.3-3.3 11.2-12.3 18.4-20 16.2q0 0 0 0c-7.7-2.3-11.3-13.2-7.9-24.4 3.3-11.2 12.2-18.4 19.9-16.1z"/>
				<path id="path24976" class="s6" d="m1349.4 745.5c0 0-2-11.8 4.8-19.1 6.7-7.4 11.8 0.1 11.2 2.1-0.7 1.9-0.2-0.7-2.3-0.9-2.1-0.2-5.3 1.5-5.9 3.7-0.6 2.2 4.3-1.2 4.9 3.9 0.6 5.1-4.3 9.1-7.3 6.5-2.9-2.5-2.8 5 0.3 4.5 3.2-0.5 2.3 2.9-1.2 2.9-3.6 0-4.5-3.6-4.5-3.6z"/>
				<path id="path24978" class="s5" d="m1126.3 1135.3l-103.9-45.4-47.1 87.2 116.8 8.2z"/>
				<path id="path24980" class="s11" d="m1117.2 1023.4c-3.2 0.1-10.7 24.3-11.4 35.5-1 14.3-3.4 65.3-3.4 65.3l23.9 11.1c0 0-7.7-84.5-7.7-105.5 0-4.5-0.5-6.4-1.4-6.4z"/>
				<path id="path24982" class="s11" d="m1425.8 1168.4c1.5 1.8 32.7 7.5 34.5-6.2 1.3-9.5-26.4-39.8-26.4-39.8 0 0-10.8 42.9-8.1 46z"/>
				<path id="path24984" class="s11" d="m1052.7 1026.4c-5 8.2-9.5 14.9-13.3 19.3 0 0 23.5 0.8 32.5 6.1 7.2 4.1-4.3-13.4-19.2-25.4z"/>
				<path id="path24986" class="s11" d="m1556 1025.7c-24.9 4.1-53.1 14-33.2 14.6 29.5 1 39.3 6.6 39.3 6.6 0 0-2-8.6-6.1-21.2z"/>
				<g id="g24992">
					<path id="path24988" class="s12" d="m1046 1057.8c9.5 0 18.5 7.6 20.2 17.1l25.9 143.8 150.5 16.1c1.8 9.5-4.5 17.1-14 17.1h-395.8c-9.4 0-18.4-7.6-20.2-17.1l-28.8-159.9c-1.7-9.5 4.5-17.1 14-17.1 0 0 248.2 0 248.2 0z"/>
					<path id="path24990" class="s1" d="m926.4 1128.2c9.7 0 16.2 5.5 19 13.6q-0.9-0.1-1.8-0.1c-7 0-12.6 5.6-12.6 12.6 0 4.4 2.3 8.5 6.2 10.8-3.3 2-7 3.1-10.8 3.1-11 0-20-8.9-20-20 0-11.1 11-20 20-20 9.1 0 0 0 0 0z"/>
				</g>
				<path id="path24994" class="s5" d="m1471.2 1153.3l-204.6 22.8c0 0-18.6 1.5-22.1 25.8-3.6 24.4 21.8 34.6 37.8 37 16.1 2.4 249.5 13.4 249.5 13.4 0 0 58.4-3.8 48.8-55-5.9-31.7-109.4-44-109.4-44z"/>
				<path id="path24996" class="s5" d="m1567 1079.9c-55.8 20.8-69.4-7.5-133.1 42.5l7.6 15.8 41.6 79.3c0 0 23.4 38.9 60 34.5 36.5-4.3 60-51.1 49.1-86.4-10.9-35.3-20.6-72-20.6-72z"/>
				<path id="path25000" class="s6" d="m1488.8 1134.5c-0.4 0-0.7-0.4-1.1-0.4-25.8 1.2-39.1 20.1-39.1 20.1-0.8 1.2 0.2 2.8 1.6 2.6 0 0 9.7-1.6 21-1.8 1-0.1 1.7-0.8 1.7-1.7-0.1-0.9-0.8-1.7-1.7-1.6-9.1 0.1-13.8 1-16.8 1.4 3.4-4.1 13.2-14.8 33.4-15.7 0.9 0 1.6-0.8 1.6-1.7-0.1-0.4-0.2-1.1-0.6-1.2z"/>
				<path id="path25002" class="s5" d="m1330 1188.8c-38.4-12.7-93.1-33.8-110-38.6-17-4.8-34.6 1.6-60.3 8.3-25.6 6.6-41.2 13.5-46.6 15.4-5.4 1.8 1.7 9.1 21.9 5.8 20.2-3.4 50.3-4.9 50.3-4.9 0 0-14.3 5.6-25 13.8-10.6 8.1-30.3 26.9-26.9 31.7 3.6 5.1 23.7-10.6 38.2-18.3 14.5-7.7 26.4-10.7 26.4-10.7 0 0-29.2 20.3-36.5 27.4-7.4 7.1-13.3 13.5-11.1 16.5 1.6 2.1 20.8-7.2 27.1-11.6 6.2-4.3 26.4-10.6 26.4-10.6 0 0-25.5 17.3-31 24.2-5.6 6.9-3.3 8.6 8 4.3 11.4-4.3 31.4-15.7 53.3-10.4 21.9 5.2 55.6 11 77.7 6 22-5.1 50.8-32.3 18.1-48.3z"/>
				<path id="path25004" class="s6" d="m1207.4 1165.8c-1.2 1.2-3.3 0.3-5.6 1-2.3 0.7-4.9 1.7-7.4 2.6-5.1 1.9-9.7 3.9-9.7 3.9-0.8 0.4-1.2 1.3-0.9 2.2 0.4 0.8 1.4 1.2 2.2 0.8 0 0 4.6-1.9 9.5-3.8 2.5-0.9 5.1-1.9 7.3-2.5 2.1-0.7 4.1-1 4.2-0.9 1.3 0.1 3.8 1 5.8 1.9 1.9 0.9 3.5 1.8 3.5 1.8 0.8 0.4 1.8 0.1 2.2-0.7 0.4-0.8 0.2-1.8-0.6-2.2 0 0-1.7-0.9-3.8-1.9-2.1-0.9-5.2-3.8-6.7-2.2z"/>
				<path id="path25006" class="s6" d="m1214.1 1183.7c-3.5 0-7.5 1.2-10.9 2.8-3.4 1.6-6.1 3.4-6.1 3.4-0.8 0.4-1 1.5-0.5 2.2 0.5 0.8 1.5 1 2.3 0.6 0 0 2.5-1.7 5.8-3.2 3.2-1.5 7.1-2.8 8.9-2.5 0.9 0.2 1.8-0.5 1.9-1.4 0.1-0.9-0.5-1.9-1.4-1.9z"/>
				<path id="path25008" class="s6" d="m1219.1 1208.5c-3.1-0.7-6.9 0.2-10.1 1.1-3.2 0.9-5.7 1.9-5.7 1.9-0.9 0.4-1.3 1.3-0.9 2.2 0.3 0.8 1.3 1.2 2.1 0.9 0 0 2.4-1 5.4-1.9 3-0.8 6.7-1.4 8.5-1 0.9 0.2 1.8-0.4 2-1.3 0.2-0.9-0.4-1.7-1.3-1.9z"/>
			</g>
			<g id="g25018">
				<path id="path25012" class="s0" d="m381.3 1251.9h1515.5c13.5 0 24.3 10.8 24.3 24.2 0 13.5-10.8 24.3-24.3 24.3h-1515.5c-13.5 0-24.3-10.8-24.3-24.3 0-13.4 10.8-24.2 24.3-24.2z"/>
				<path id="path25014" class="s0" d="m460.1 1265.5h61l-116.3 810.3h-34.3z"/>
				<path id="path25016" class="s0" d="m1786.9 1265.5h-61l116.3 810.3h34.3z"/>
			</g>
			<path id="path25020" class="s4" d="m214.7 2075.8c-2.3 0-4.2 1.9-4.2 4.3 0 2.3 1.9 4.2 4.2 4.2h1820.6c2.3 0 4.2-1.9 4.2-4.2 0-2.4-1.9-4.3-4.2-4.3z"/>
			<g id="g25036">
				<path id="path25022" class="s2" d="m1692.8 1017.7c-9.9 0-17.8 8-17.8 17.9v70.7h-15.3v-20.2c0-9.9-7.9-17.9-17.9-17.9-9.9 0-17.8 8-17.8 17.9v38.1q0 0.9 0.1 1.8c0.8 8.7 8 15.6 16.8 16q0.5 0.1 1 0h33.1v24.6c0 9.9 7.9 17.9 17.8 17.9 10 0 17.9-8 17.9-17.9v-70.8h30.7c9.9 0 17.9-8 17.9-17.9v-26.1c0-9.9-8-17.9-17.9-17.9-9.9 0-17.9 8-17.9 17.9v8.2h-12.8v-24.4c0-9.9-7.9-17.9-17.9-17.9z"/>
				<path id="path25024" class="s0" d="m1716 1251.9h-46.2c-11.4 0-17.2-9.6-20.5-20.5l-16.1-52.9c-3.3-10.9 1.5-20.5 12.8-20.5h93.5c11.4 0 16.4 9.6 13.1 20.5l-16.2 52.9c-3.3 10.9-9.1 20.5-20.4 20.5z"/>
				<path id="path25026" class="s1" d="m1634.9 1184.1l4 13.3h107.9l4-13.3c-67.3 13.4-77.1-12.8-115.9 0z"/>
				<path id="path25028" class="s13" d="m1642.4 1208.7l4 13.2h92.9l4-13.2z"/>
				<path id="path25030" class="s8" d="m1694.9 1030.1q-0.1 0-0.2 0-0.3 0-0.6 0.2c-0.7 0.4-1 1.3-0.6 2q0 0 0 0l4.2 7.9c0.4 0.8 1.3 1 2.1 0.6q0 0 0 0c0.7-0.3 1-1.3 0.6-2l-4.2-7.9c-0.3-0.5-0.8-0.8-1.3-0.8zm-7.3 14.1c-0.5 0-1.1 0.3-1.3 0.8l-4.2 8c-0.4 0.7-0.2 1.6 0.6 2q0 0 0 0c0.7 0.4 1.6 0.1 2-0.6l4.2-7.9c0.4-0.8 0.1-1.7-0.6-2.1q0 0 0 0-0.3-0.1-0.7-0.2zm55.9 3.8q0 0-0.1 0-0.3 0-0.6 0.1c-0.7 0.4-1 1.3-0.6 2.1q0 0 0 0l4.2 7.9c0.4 0.7 1.3 1 2 0.6 0.8-0.4 1.1-1.3 0.7-2l-4.2-7.9c-0.3-0.5-0.8-0.8-1.4-0.8zm-46.3 10.9q-0.1 0-0.1 0-0.3 0-0.6 0.2c-0.7 0.4-1 1.3-0.6 2l4.2 7.9c0.4 0.8 1.3 1 2 0.7q0 0 0 0c0.7-0.4 1-1.3 0.6-2.1q0 0 0 0l-4.2-7.9c-0.2-0.5-0.7-0.8-1.3-0.8zm26 11.6q-0.4 0-0.8 0.2c-0.7 0.4-1 1.3-0.6 2l4.2 8c0.4 0.7 1.3 1 2.1 0.6 0.7-0.4 1-1.3 0.6-2.1l-4.2-7.9c-0.3-0.4-0.8-0.7-1.3-0.8zm23 0.5c-0.6 0.1-1 0.4-1.3 0.8l-4.2 8c-0.4 0.7-0.1 1.6 0.6 2q0 0 0 0c0.7 0.4 1.7 0.1 2-0.6l4.3-8c0.3-0.7 0.1-1.6-0.7-2q-0.3-0.2-0.6-0.2-0.1 0-0.1 0zm-63.3 7.6q-0.1 0-0.1 0-0.4 0-0.6 0.2c-0.8 0.4-1 1.3-0.7 2q0 0 0 0l4.3 7.9c0.3 0.8 1.3 1.1 2 0.7q0 0 0 0c0.7-0.4 1-1.3 0.6-2.1l-4.2-7.9c-0.3-0.5-0.8-0.8-1.3-0.8zm-30.1 4.2c-0.5 0-1 0.4-1.2 0.8l-4.3 7.9c-0.3 0.8-0.1 1.7 0.7 2.1q0 0 0 0c0.7 0.4 1.6 0.1 2-0.6l4.2-8c0.4-0.7 0.1-1.6-0.6-2q-0.3-0.2-0.7-0.2 0 0-0.1 0zm49 7.6c-0.6 0-1.1 0.3-1.4 0.8l-4.2 7.9c-0.4 0.8-0.1 1.7 0.6 2.1 0.8 0.3 1.7 0.1 2.1-0.7l4.2-7.9c0.4-0.7 0.1-1.6-0.7-2q0 0 0 0-0.3-0.2-0.6-0.2zm-68.8 12.1q0 0-0.1 0-0.3 0.1-0.6 0.2c-0.7 0.4-1 1.3-0.6 2q0 0 0 0l4.2 8c0.4 0.7 1.3 1 2 0.6 0.7-0.4 1-1.3 0.6-2q0 0 0 0l-4.2-8c-0.2-0.4-0.7-0.8-1.3-0.8zm49.9 9.5q-0.1 0-0.1 0-0.4 0-0.6 0.2c-0.8 0.3-1 1.2-0.7 2q0 0 0 0l4.3 7.9c0.3 0.7 1.3 1 2 0.6 0.7-0.4 1-1.3 0.6-2l-4.2-7.9c-0.3-0.5-0.8-0.8-1.3-0.8zm-28.3 10.6q-0.1 0-0.1 0-0.4 0-0.6 0.2c-0.8 0.3-1.1 1.3-0.7 2q0 0 0 0l4.3 7.9c0.3 0.7 1.2 1 2 0.6 0.7-0.4 1-1.3 0.6-2l-4.2-7.9c-0.3-0.5-0.8-0.8-1.3-0.8zm50.3 8.2c-0.5 0.1-1 0.4-1.3 0.8l-4.2 8c-0.4 0.7-0.1 1.6 0.6 2 0.8 0.4 1.7 0.1 2.1-0.6q0 0 0 0l4.2-7.9c0.4-0.8 0.1-1.7-0.7-2.1q-0.3-0.1-0.6-0.2-0.1 0-0.1 0z"/>
				<path id="path25032" class="s14" d="m1675 1106.3v21.5l-15.3-21.5z"/>
				<path id="path25034" class="s14" d="m1710.7 1060v17.4l12.8-17.4z"/>
			</g>
			<g id="g25042">
			</g>
			<g id="g25048">
			</g>
			<g id="g25086">
				<path id="path25054" class="s4" d="m623.2 1802.1h-44.8l-23.5 273.7h17.6z"/>
				<path id="path25056" class="s4" d="m694 1802.1h44.8l23.4 273.7h-17.6z"/>
				<path id="path25058" class="s11" d="m585.3 1542.9c-1.5 0-2.9 0.7-3.8 1.8-1.7 2.1-1.3 5.1 0.8 6.7q0 0 0 0c13.5 10.6 23.8 38.6 29.7 63.8 5.8 24.4 7.8 45.6 8 47.1-1.1 11.5-1.9 23.6-2.1 35.7q-1-3.6-2.1-7c-2.6-8.5-5-15.2-7.8-19.7-0.9-1.3-2.4-2.2-4.1-2.1-0.9 0-1.7 0.2-2.5 0.7-2.2 1.5-2.8 4.4-1.4 6.6q0 0 0 0c1.5 2.4 4.2 9.2 6.7 17.3 2.6 8.1 5.1 17.8 7.5 27.1 4.6 18.5 8.1 35.4 8.1 35.4q0 0 0 0 0 0 0 0 0 0.1 0 0.1 0 0.1 0 0.1 0.1 0 0.1 0.1 0 0 0 0.1c0.7 2.3 3.1 3.7 5.4 3.3 1.9-0.4 3.4-1.8 3.8-3.7q0-0.1 0-0.2 0 0 0 0 0.1-0.1 0.1-0.1 0 0 0 0c0 0 2.5-17.4 7.9-34.8 2.8-8.7 6.2-17.3 10.2-23.6 4-6.2 8.2-9.5 12-9.7 2.6-0.2 4.6-2.5 4.5-5.1q0 0 0 0c-0.2-2.6-2.5-4.6-5.1-4.4q0 0 0 0c-8.3 0.5-14.6 6.6-19.4 14.1-4.7 7.4-8.4 16.7-11.2 25.9-1 3.1-1.7 5.9-2.4 8.7-5.1-72.8 17.5-154.7 17.5-154.7 0.7-2.5-0.8-5.2-3.3-5.9q0 0 0 0-0.7-0.2-1.4-0.1c-2.1 0-3.9 1.4-4.5 3.4 0 0-6.7 24-12.1 57.8-0.9-4.6-1.9-9.5-3.1-14.5-6.1-26-15.5-55.4-33.2-69.2-0.8-0.6-1.8-1-2.8-1z"/>
				<path id="path25060" class="s0" d="m547 1739.8h159.1c20.5 0 41.2 17 37.1 37.2l-25.1 125.5c-4.1 20.1-16.6 37.1-37.2 37.1h-108.7c-20.6 0-33.1-17-37.1-37.1l-25.2-125.5c-4.1-20.2 16.6-37.2 37.1-37.2z"/>
				<path id="path25062" class="s1" d="m641.9 1835c-20.5-0.2-38.6 6.1-66.9 13.9-17.1 4.7-34.3 5.7-49.7 5l6.8 33.7c16.1 0.1 33.8-1.6 51.8-6.6 28.9-8 44.7-12.8 57.7-12.7 13.1 0.1 26.7 4.4 53.9 18.7 7.8 4.1 15.8 7.2 23.7 9.6l6.6-33c-5.1-1.6-10-3.6-14.8-6.1-28.8-15.1-48.5-22.3-69.1-22.5z"/>
				<path id="path25064" class="s4" d="m552.4 1802.1h-44.8l-23.4 273.7h17.6z"/>
				<path id="path25066" class="s4" d="m623.2 1802.1h44.8l23.5 273.7h-17.6z"/>
				<path id="path25068" class="s4" d="m498.1 1791h256.5c7.3 0 13.2 5.9 13.2 13.2 0 7.3-5.9 13.2-13.2 13.2h-256.5c-7.3 0-13.2-5.9-13.2-13.2 0-7.3 5.9-13.2 13.2-13.2z"/>
				<path id="path25070" class="s2" d="m586.4 1730.2c-32.7 40.8-98.3 56.5-113.4 44.4-15.1-12.1-14.1-79.5 18.5-120.3 32.7-40.8 73.5-48.3 99.7-27.4 26.2 21 27.8 62.5-4.8 103.3q0 0 0 0z"/>
				<path id="path25072" class="s2" d="m663.3 1740.8c23.5 29.3 70.6 40.6 81.4 31.9 10.9-8.6 10.2-57.1-13.3-86.4-23.4-29.3-52.7-34.6-71.5-19.6-18.8 15.1-20 44.8 3.4 74.1z"/>
				<path id="path25074" class="s2" d="m647.7 1618.7c27.8 16.3 69 10.8 75 0.5 6-10.2-9.5-48.8-37.2-65.1-27.8-16.2-53-11.5-63.4 6.3-10.4 17.9-2.2 42.1 25.6 58.3z"/>
				<path id="path25076" class="s2" d="m574.6 1596.4c-27.8 16.2-69 10.8-75 0.5-6-10.3 9.4-48.9 37.2-65.1 27.8-16.3 52.9-11.6 63.4 6.3 10.4 17.8 2.2 42-25.6 58.3z"/>
				<path id="path25078" class="s8" d="m596.4 1631.7c-1.4 0.3-2.8 0.7-4.4 1.1-9.4 2.6-22.5 7.8-37.5 18.1q-4.2 2.9-8.5 6.3-0.1 0-0.2-0.1c0 0-12.6-7.2-29.6-9.1-4.3-0.5-8.9-0.7-13.6-0.3q-3.1 0.3-6.2 0.8-2 2.3-4 4.7c8.1-2.2 16.1-2.3 23.3-1.5 13.5 1.6 23.9 6.5 27.1 8.1-10.8 9-22.2 20.7-33.7 35.9l-1.3 1.7c-6.9 9.2-13.7 19.7-20.5 31.7-1.4-0.4-6.3-1.6-13.1-1.8-2.7-0.1-5.6 0-8.7 0.4q-0.7 0.1-1.4 0.2-0.2 1.9-0.3 3.8 1.1-0.1 2.1-0.3c8.9-1 16.5 0.4 19.5 1.1-5.9 10.6-11.7 22.3-17.3 35.2q1 2.3 2.3 4.1c12.8-29.8 26.4-53.1 39.9-71.4 3.4 3 11.5 10.8 17.2 22.8 5.5 11.8 8.8 27.4 2.8 46.4q2.2-0.8 4.4-1.8c5.1-18.7 1.8-34.4-3.8-46.2-6.1-12.8-14.8-21.1-18.4-24.2 15.4-20.2 30.6-34 44.1-43.4q5.5-3.8 10.6-6.7c4.9 4.5 31.4 31.2 26.8 72.4q2.3-3.5 4.2-6.9c1-36.4-21-60.9-27.5-67.4 8.7-4.6 16.3-7.3 22.3-9 2.3-0.6 4.4-1.1 6.3-1.4q-1.4-1.7-2.9-3.3z"/>
				<path id="path25080" class="s8" d="m661.7 1665.3q-0.9 0.7-1.8 1.4-0.6 0.5-1.2 1c5.5 4.4 12.3 10.1 19.6 16.8-2.7 2.4-8.1 8-11.7 17.3-3.7 9.5-5.6 23.1-1.3 41.3q2.5 3 5.4 5.6c-6.4-20.9-4.4-35.6-0.6-45.6 3.6-9.2 8.8-14.2 11-16q4 3.8 8 7.9c11.1 11.2 22.4 24.2 31.3 38.1-0.7 0.9-12.1 16.5-15.1 36.7q1.9 0.7 3.7 1.3c2.3-16.5 10.6-30.2 13.6-34.5 7.6 12.5 13.1 25.7 14.8 38.7q2-0.2 3.7-0.7c-2.9-22-15.8-43.5-31.1-62.2 3.1-1.4 10.3-4.2 19.3-4.5 4.7-0.2 9.9 0.2 15.2 2q-0.8-2.2-1.7-4.4c-4.8-1.2-9.4-1.6-13.7-1.4-10.6 0.4-19 4-21.6 5.3-5.1-6.1-10.4-11.8-15.7-17.1-11-11.1-21.8-20.4-30.1-27z"/>
				<path id="path25082" class="s8" d="m691.3 1558c-4.2 2.3-7 5.6-8.8 9.2-3.5 7.1-3.3 15.2-2.9 19.4q-3.4-1.8-6.9-3.5c-22.3-10.9-42.6-18.7-51.1-21.7q-0.9 1.7-1.6 3.4c5.3 1.9 15.8 5.9 28.8 11.5-1.6 2.7-5.7 10-7.5 19.9-1 5.4-1.3 11.7-0.1 18.4q2.2 1.5 4.5 2.9c-2-7.5-1.8-14.6-0.7-20.7 1.8-10 6.1-17.1 7.3-19 5.9 2.6 12.3 5.5 18.8 8.7 8.6 4.3 17.6 9 26.2 14.1-1.1 3.7-3.8 15.3-0.2 28.1q2-0.2 3.8-0.4c-3.4-11.3-1.4-21.5-0.2-25.7 8 5 15.7 10.2 22.5 15.7q0.7-1.8 0.8-4.3c-11.9-9.4-26.2-17.9-40.3-25.3 0-0.5-1.9-11.5 2.2-19.8 1.7-3.5 4.3-6.5 8.7-8.3q-1.6-1.4-3.3-2.6z"/>
				<path id="path25084" class="s8" d="m575.1 1522.1c2.4 2.8 4.1 5.7 5.4 8.4 2 4.4 2.6 8.3 2.8 10.5-11.8 2.6-26.5 7-41.6 14.1-1-2.3-3.1-6.5-7.4-9.6-2.7-2-6.2-3.4-10.6-3.7q-1.9 1.8-3.6 3.7c5.4-0.4 9.2 1 12 3 3.7 2.7 5.5 6.5 6.2 8.2-13.3 6.6-26.9 15.4-39.2 27.1-0.4 2.2-0.7 4.3-0.8 6.1 5.9-6 12.2-11.3 18.7-16 0.9 2.9 2.2 8.7 1.2 15.8-0.6 4.5-2.1 9.6-5.3 14.6q1.8 0.5 3.8 0.9c3.1-5.2 4.6-10.3 5.3-15 1.1-8.8-0.9-15.9-1.8-18.6 12.5-8.4 25.4-14.6 37.4-19.1 2.1 1.9 9.2 8.4 12.4 18.4 2.6 7.9 3 17.8-3.6 29.5q2.7-1.1 5.3-2.5c4.9-10.8 4.5-20.5 1.9-28.2-3-9-8.7-15.5-12-18.6 16.8-6.6 36.4-9 40.4-9.5q-0.8-1.8-1.8-3.5 0-0.1-0.1-0.1c-3.6 0.5-8 1.2-13.1 2.2-0.3-2.6-1-6.7-3.1-11.3-0.8-1.8-1.9-3.7-3.2-5.6q-2.7-0.8-5.6-1.2z"/>
			</g>
			<g id="g25152">
				<g id="g25098">
					<path id="path25088" class="s0" d="m351.7 589.3h539c7.2 0 12.9 5.7 12.9 12.9v296.8c0 7.1-5.7 12.9-12.9 12.9h-539c-7.1 0-12.9-5.8-12.9-12.9v-296.8c0-7.2 5.8-12.9 12.9-12.9z"/>
					<path id="path25090" class="s1" d="m360 631.3h522.4c6 0 10.7 4.8 10.7 10.7v247.6c0 5.9-4.7 10.7-10.7 10.7h-522.4c-5.9 0-10.7-4.8-10.7-10.7v-247.6c0-5.9 4.8-10.7 10.7-10.7z"/>
					<path id="path25092" class="s1" d="m383.1 610.8c0 4-3.3 7.3-7.3 7.3-4 0-7.3-3.3-7.3-7.3 0-4 3.3-7.2 7.3-7.2 4 0 7.3 3.2 7.3 7.2z"/>
					<path id="path25094" class="s1" d="m410 610.8c0 4-3.2 7.3-7.2 7.3-4.1 0-7.3-3.3-7.3-7.3 0-4 3.2-7.2 7.3-7.2 4 0 7.2 3.2 7.2 7.2z"/>
					<path id="path25096" class="s1" d="m441.3 610.8c0 4-3.2 7.3-7.2 7.3-4 0-7.3-3.3-7.3-7.3 0-4 3.3-7.2 7.3-7.2 4 0 7.2 3.2 7.2 7.2z"/>
				</g>
				<g id="g25110">
					<path id="path25100" class="s0" d="m393.7 656.9h539c7.1 0 12.9 5.8 12.9 12.9v296.8c0 7.2-5.8 12.9-12.9 12.9h-539c-7.2 0-12.9-5.7-12.9-12.9v-296.8c0-7.1 5.7-12.9 12.9-12.9z"/>
					<path id="path25102" class="s1" d="m401.9 699h522.5c5.9 0 10.7 4.7 10.7 10.7v247.5c0 6-4.8 10.7-10.7 10.7h-522.5c-5.9 0-10.7-4.7-10.7-10.7v-247.5c0-6 4.8-10.7 10.7-10.7z"/>
					<path id="path25104" class="s1" d="m425 678.5c0 4-3.3 7.2-7.3 7.2-4 0-7.2-3.2-7.2-7.2 0-4 3.2-7.3 7.2-7.3 4 0 7.3 3.3 7.3 7.3z"/>
					<path id="path25106" class="s1" d="m452 678.5c0 4-3.3 7.2-7.3 7.2-4 0-7.3-3.2-7.3-7.2 0-4 3.3-7.3 7.3-7.3 4 0 7.3 3.3 7.3 7.3z"/>
					<path id="path25108" class="s1" d="m483.3 678.5c0 4-3.3 7.2-7.3 7.2-4 0-7.2-3.2-7.2-7.2 0-4 3.2-7.3 7.2-7.3 4 0 7.3 3.3 7.3 7.3z"/>
				</g>
				<g id="g25148">
					<path id="path25112" class="s4" d="m518.2 806.5c-3.5 0-6.4 2.9-6.4 6.4 0 3.6 2.9 6.4 6.4 6.4h13.4c3.5 0 6.4-2.8 6.4-6.4 0-3.5-2.9-6.4-6.4-6.4z"/>
					<path id="path25114" class="s4" d="m518.2 869.7c-3.5 0-6.4 2.9-6.4 6.5 0 3.5 2.9 6.4 6.4 6.4h13.4c3.5 0 6.4-2.9 6.4-6.4 0-3.6-2.9-6.5-6.4-6.5z"/>
					<path id="path25116" class="s4" d="m518.2 838.1c-3.5 0-6.4 2.9-6.4 6.4 0 3.6 2.9 6.5 6.4 6.5h13.4c3.5 0 6.4-2.9 6.4-6.5 0-3.5-2.9-6.4-6.4-6.4z"/>
					<path id="path25118" class="s4" d="m518.2 901.4c-3.5 0-6.4 2.8-6.4 6.4 0 3.5 2.9 6.4 6.4 6.4h13.4c3.5 0 6.4-2.9 6.4-6.4 0-3.6-2.9-6.5-6.4-6.4z"/>
					<path id="path25120" class="s4" d="m518.2 933c-3.5 0-6.4 2.9-6.4 6.4 0 3.6 2.9 6.4 6.4 6.4h13.4c3.5 0 6.4-2.8 6.4-6.4 0-3.5-2.9-6.4-6.4-6.4z"/>
					<path id="path25122" class="s4" d="m518.2 767.2c-3.5 0-6.4 2.9-6.4 6.5 0 3.5 2.9 6.4 6.4 6.4h13.4c3.5 0 6.4-2.9 6.4-6.4 0-3.6-2.9-6.5-6.4-6.5z"/>
					<path id="path25124" class="s4" d="m475.2 806.5c-3.6 0-6.5 2.9-6.5 6.4 0 3.6 2.9 6.4 6.5 6.4h17.6c3.6 0 6.5-2.8 6.5-6.4 0-3.5-2.9-6.4-6.5-6.4z"/>
					<path id="path25126" class="s4" d="m475.2 869.7c-3.6 0-6.5 2.9-6.5 6.5 0 3.5 2.9 6.4 6.5 6.4h17.6c3.6 0 6.5-2.9 6.5-6.4 0-3.6-2.9-6.5-6.5-6.5z"/>
					<path id="path25128" class="s4" d="m457.5 838.1c-3.5 0-6.4 2.9-6.4 6.4 0 3.6 2.9 6.5 6.4 6.5h35.3c3.6 0 6.5-2.9 6.5-6.5 0-3.5-2.9-6.4-6.5-6.4z"/>
					<path id="path25130" class="s4" d="m457.5 901.4c-3.5 0-6.4 2.8-6.4 6.4 0 3.5 2.9 6.4 6.4 6.4h35.3c3.6 0 6.5-2.9 6.5-6.4 0-3.6-2.9-6.5-6.5-6.4z"/>
					<path id="path25132" class="s4" d="m475.2 933c-3.6 0-6.5 2.9-6.5 6.4 0 3.6 2.9 6.4 6.5 6.4h17.6c3.6 0 6.5-2.8 6.5-6.4 0-3.5-2.9-6.4-6.5-6.4z"/>
					<path id="path25134" class="s4" d="m457.5 767.2c-3.5 0-6.4 2.9-6.4 6.5 0 3.5 2.9 6.4 6.4 6.4h35.3c3.6 0 6.5-2.9 6.5-6.4 0-3.6-2.9-6.5-6.5-6.5z"/>
					<path id="path25136" class="s4" d="m851.1 806.5c3.6 0 6.5 2.9 6.5 6.4 0 3.6-2.9 6.4-6.5 6.4h-288.9c-3.6 0-6.5-2.8-6.5-6.4 0-3.5 2.9-6.4 6.5-6.4z"/>
					<path id="path25138" class="s4" d="m851.1 869.7c3.6 0 6.5 2.9 6.5 6.5 0 3.5-2.9 6.4-6.5 6.4h-34.9c-3.6 0-6.5-2.9-6.5-6.4 0-3.6 2.9-6.5 6.5-6.5z"/>
					<path id="path25140" class="s4" d="m868.8 838.1c3.5 0 6.4 2.9 6.4 6.4 0 3.6-2.9 6.5-6.4 6.5h-306.6c-3.6 0-6.5-2.9-6.5-6.5 0-3.5 2.9-6.4 6.5-6.4z"/>
					<path id="path25142" class="s4" d="m868.8 901.4c3.5 0 6.4 2.8 6.4 6.4 0 3.5-2.9 6.4-6.4 6.4h-306.6c-3.6 0-6.5-2.9-6.5-6.4 0-3.6 2.9-6.5 6.5-6.4z"/>
					<path id="path25144" class="s4" d="m588.1 933c3.5 0 6.4 2.9 6.4 6.4 0 3.6-2.9 6.4-6.4 6.4h-25.9c-3.6 0-6.5-2.8-6.5-6.4 0-3.5 2.9-6.4 6.5-6.4z"/>
					<path id="path25146" class="s4" d="m590.9 767.2c3.6 0 6.5 2.9 6.5 6.5 0 3.5-2.9 6.4-6.5 6.4h-28.7c-3.6 0-6.5-2.9-6.5-6.4 0-3.6 2.9-6.5 6.5-6.5z"/>
				</g>
				<path id="path25150" class="s2" d="m487.7 716.2l-12.2 32.6h6.2l12.2-32.6zm-14.5 4l-22.1 11.1v3.2l22.1 9.8v-5.4l-15.2-6.2 15.2-7.1zm22.8 0v5.4l15.3 7-15.3 6.3v5.3l22.2-9.7v-3.2z"/>
			</g>
			<path id="path25154" class="s3" d="m691.1 415.4c-4.5 0-7.5 3.6-8 8l-1 8.1c-4.5 1.2-8.7 2.9-12.7 5.1l-6.3-4.9c-3.5-2.7-8.2-3.1-11.4 0l-7.7 7.7c-3.1 3.1-2.7 7.8 0 11.3l4.8 6.2c-2.3 4-4.1 8.4-5.3 12.9l-7.7 0.9c-4.4 0.6-8 3.6-8 8v10.9c0 4.4 3.6 7.5 8 8l7.7 1c1.2 4.5 3 8.8 5.3 12.8l-4.8 6.2c-2.7 3.5-3.1 8.2 0 11.3l7.7 7.7c3.2 3.2 7.9 2.8 11.4 0l6.3-4.9c4 2.3 8.2 4 12.7 5.2l1 8c0.5 4.4 3.5 8 8 8h10.9c4.4 0 7.4-3.6 8-8l1-8.3c4.3-1.2 8.4-3 12.2-5.2l6.8 5.2c3.5 2.8 8.2 3.2 11.3 0l7.7-7.7c3.1-3.1 2.7-7.8 0-11.3l-5.4-6.9c2.2-3.8 3.8-7.8 5-12l8.7-1.1c4.4-0.5 8-3.6 8-8v-10.9c0-4.4-3.6-7.4-8-8l-8.7-1.1c-1.2-4.2-2.8-8.2-5-12l5.4-6.9c2.7-3.5 3.1-8.2 0-11.3l-7.7-7.7c-3.1-3.1-7.8-2.7-11.3 0l-6.8 5.2c-3.8-2.2-7.9-3.9-12.2-5.1l-1-8.4c-0.6-4.4-3.6-8-8-8zm5.4 40.4q0 0 0 0c15.7 0 28.4 12.7 28.4 28.4 0 15.6-12.7 28.3-28.4 28.3-15.7 0-28.4-12.7-28.4-28.3 0-15.7 12.7-28.4 28.4-28.4z"/>
			<g id="g25170">
				<g id="g25166">
					<path id="path25156" class="s0" d="m1426.8 234.9h230.2c7.1 0 12.9 5.7 12.9 12.9v202.4c0 7.2-5.8 12.9-12.9 12.9h-230.2c-7.2 0-12.9-5.7-12.9-12.9v-202.4c0-7.2 5.7-12.9 12.9-12.9z"/>
					<path id="path25158" class="s1" d="m1435.1 276.9h213.6c5.9 0 10.7 4.8 10.7 10.7v153.2c0 5.9-4.8 10.7-10.7 10.7h-213.6c-6 0-10.7-4.8-10.7-10.7v-153.2c0-5.9 4.7-10.7 10.7-10.7z"/>
					<path id="path25160" class="s1" d="m1458.1 256.4c0 4-3.2 7.3-7.2 7.3-4.1 0-7.3-3.3-7.3-7.3 0-4 3.2-7.2 7.3-7.2 4 0 7.2 3.2 7.2 7.2z"/>
					<path id="path25162" class="s1" d="m1485.1 256.4c0 4-3.3 7.3-7.3 7.3-4 0-7.2-3.3-7.2-7.3 0-4 3.2-7.2 7.2-7.2 4 0 7.3 3.2 7.3 7.2z"/>
					<path id="path25164" class="s1" d="m1516.4 256.4c0 4-3.2 7.3-7.3 7.3-4 0-7.2-3.3-7.2-7.3 0-4 3.2-7.2 7.2-7.2 4.1 0 7.3 3.2 7.3 7.2z"/>
				</g>
				<path id="path25168" class="s2" d="m1523.6 310.4q-14.4 0-20.1 3.7-5.7 3.7-5.7 12.7v18.8 0.5q0 4.8-3.9 7.4-3.8 2.6-11.3 2.6v14.1q7.4 0 11.3 2.7 3.9 2.8 3.9 7.9v18.6q0 9.1 5.7 12.8 5.7 3.7 20.1 3.7v-13.4q-5.9-0.1-8.1-2.2-2.2-2.1-2.2-6.1v-17.7-0.5q0-10.4-13.8-12.5v-0.7q13.5-2 13.8-13.1v-17.7q0-4 2.2-6.1 2.3-2 8.1-2.2zm41.1 0v13.3q5.9 0.2 8.1 2.2 2.2 2 2.2 6.1v17.7q0.3 11.1 13.7 13.1v0.7q-6.7 1-10.2 4.2-3.5 3.1-3.5 8.2v0.6 17.7q0 4.2-2.3 6.2-2.1 2-8 2.1v13.4q9.9 0 15.4-1.6 5.6-1.6 8.1-4.9 2.4-3.4 2.4-10v-18.6q0-5.7 3.8-8.2 3.9-2.4 11.3-2.4v-14.1q-7.9 0-11.5-2.5-3.6-2.5-3.6-7.4v-0.6-18.8q0-6.5-2.4-9.9-2.4-3.4-8-4.9-5.6-1.6-15.5-1.6z"/>
			</g>
			<g id="g25210">
				<g id="g25182">
					<path id="path25172" class="s0" d="m801.5 207.2h539c7.2 0 12.9 5.8 12.9 12.9v296.8c0 7.2-5.7 12.9-12.9 12.9h-539c-7.1 0-12.9-5.7-12.9-12.9v-296.8c0-7.1 5.8-12.9 12.9-12.9z"/>
					<path id="path25174" class="s1" d="m809.8 249.3h522.4c6 0 10.7 4.7 10.7 10.7v247.5c0 6-4.7 10.7-10.7 10.7h-522.4c-5.9 0-10.7-4.7-10.7-10.7v-247.5c0-6 4.8-10.7 10.7-10.7z"/>
					<path id="path25176" class="s1" d="m832.8 228.8c0 4-3.2 7.2-7.2 7.2-4 0-7.3-3.2-7.3-7.2 0-4 3.3-7.3 7.3-7.3 4 0 7.2 3.3 7.2 7.3z"/>
					<path id="path25178" class="s1" d="m859.8 228.8c0 4-3.3 7.2-7.3 7.2-4 0-7.2-3.2-7.2-7.2 0-4 3.2-7.3 7.2-7.3 4 0 7.3 3.3 7.3 7.3z"/>
					<path id="path25180" class="s1" d="m891.1 228.8c0 4-3.2 7.2-7.2 7.2-4 0-7.3-3.2-7.3-7.2 0-4 3.3-7.3 7.3-7.3 4 0 7.2 3.3 7.2 7.3z"/>
				</g>
				<path id="path25184" class="s4" d="m843.5 279.6h89.4c7.2 0 13 5.7 13 12.9v89.5c0 7.1-5.8 12.9-13 12.9h-89.4c-7.2 0-13-5.8-13-12.9v-89.5c0-7.2 5.8-12.9 13-12.9z"/>
				<path id="path25186" class="s4" d="m1005.3 427.8h45.6c3.6 0 6.6 3 6.6 6.6v45.6c0 3.6-3 6.6-6.6 6.6h-45.6c-3.6 0-6.5-3-6.5-6.6v-45.6c0-3.6 2.9-6.6 6.5-6.6z"/>
				<path id="path25188" class="s4" d="m1257.7 427.8h45.5c3.7 0 6.6 3 6.6 6.6v45.6c0 3.6-2.9 6.6-6.6 6.6h-45.5c-3.7 0-6.6-3-6.6-6.6v-45.6c0-3.6 2.9-6.6 6.6-6.6z"/>
				<path id="path25190" class="s4" d="m837.1 427.8h45.6c3.6 0 6.5 3 6.5 6.6v45.6c0 3.6-2.9 6.6-6.5 6.6h-45.6c-3.6 0-6.6-3-6.6-6.6v-45.6c0-3.6 3-6.6 6.6-6.6z"/>
				<path id="path25192" class="s4" d="m1173.6 427.8h45.5c3.7 0 6.6 3 6.6 6.6v45.6c0 3.6-2.9 6.6-6.6 6.6h-45.5c-3.7 0-6.6-3-6.6-6.6v-45.6c0-3.6 2.9-6.6 6.6-6.6z"/>
				<path id="path25194" class="s4" d="m921.2 427.8h45.6c3.6 0 6.6 3 6.6 6.6v45.6c0 3.6-3 6.6-6.6 6.6h-45.6c-3.6 0-6.6-3-6.6-6.6v-45.6c0-3.6 3-6.6 6.6-6.6z"/>
				<path id="path25196" class="s4" d="m1089.5 427.8h45.5c3.6 0 6.6 3 6.6 6.6v45.6c0 3.6-3 6.6-6.6 6.6h-45.5c-3.7 0-6.6-3-6.6-6.6v-45.6c0-3.6 2.9-6.6 6.6-6.6z"/>
				<path id="path25198" class="s4" d="m1161.8 318.2c3.6 0 6.4 2.8 6.4 6.4 0 3.5-2.8 6.4-6.4 6.4h-185.9c-3.5 0-6.4-2.9-6.4-6.4 0-3.6 2.9-6.4 6.4-6.4z"/>
				<path id="path25200" class="s4" d="m1282.6 349.8c3.5 0 6.4 2.9 6.4 6.4 0 3.6-2.9 6.4-6.4 6.5h-306.7c-3.5 0-6.4-2.9-6.4-6.5 0-3.5 2.9-6.4 6.4-6.4z"/>
				<path id="path25202" class="s4" d="m1004.7 285c3.6 0 6.4 2.9 6.4 6.4 0 3.6-2.8 6.4-6.4 6.4h-28.8c-3.5 0-6.4-2.8-6.4-6.4 0-3.5 2.9-6.4 6.4-6.4z"/>
				<path id="path25204" class="s2" d="m860.2 320.1c-3.3 0-6.7 1.3-9.2 3.8l-20.5 20.5v37.6c0 7.1 5.8 12.9 13 12.9h89.4c7.2 0 13-5.8 13-12.9v-21.1l-20.8-20.8c-5.1-5.1-13.3-5.1-18.3 0l-10.7 10.6-26.8-26.8c-2.5-2.5-5.8-3.8-9.1-3.8z"/>
				<path id="path25206" class="s1" d="m912.3 309.3c0 6.6-5.3 11.9-11.9 11.9-6.5 0-11.9-5.3-11.9-11.9 0-6.6 5.4-11.9 11.9-11.9 6.6 0 11.9 5.3 11.9 11.9z"/>
				<path id="path25208" class="s4" d="m1274 382c3.5 0 6.4 2.9 6.4 6.5 0 3.5-2.9 6.4-6.4 6.4h-58.8c-3.6 0-6.4-2.9-6.4-6.4 0-3.6 2.8-6.5 6.4-6.5z"/>
			</g>
			<path id="path25212" class="s12" d="m1802.6 290.6c-4.6 0-12.5 2.4-18.6 10.7-12.2 16.6-31.8 20.5-53.2 27.5-12.4 4.1-18.1 13.6-16.4 25.9 12.9 109.2 76 137.4 88.2 137.4 12.3 0 75.4-28.2 88.3-137.4 1.7-12.3-4.1-21.8-16.4-25.9-21.4-7-41-10.9-53.2-27.5-6.1-8.3-14-10.7-18.7-10.7z"/>
			<path id="path25214" class="s1" d="m1851.6 392.4c0 27.1-21.9 49-49 49-27 0-48.9-21.9-48.9-49 0-27 21.9-48.9 48.9-48.9 27.1 0 49 21.9 49 48.9z"/>
			<path id="path25216" class="s2" d="m1825.1 368.9l-28.4 30-14.7-10.7c-5.1-5.1-11.7 1.4-6.6 6.5l17.8 20.5c2.6 2.6 6.9 2.6 9.5 0l28.2-41.5c2.6-2.6-2.1-8.6-5.8-4.8z"/>
			<g id="g25268">
				<g id="g25228">
					<path id="path25218" class="s0" d="m1432.5 523.7h539c7.1 0 12.9 5.7 12.9 12.9v296.8c0 7.1-5.8 12.9-12.9 12.9h-539c-7.1 0-12.9-5.8-12.9-12.9v-296.8c0-7.2 5.8-12.9 12.9-12.9z"/>
					<path id="path25220" class="s1" d="m1440.8 565.7h522.4c5.9 0 10.7 4.8 10.7 10.7v247.6c0 5.9-4.8 10.7-10.7 10.7h-522.4c-6 0-10.7-4.8-10.7-10.7v-247.6c0-5.9 4.7-10.7 10.7-10.7z"/>
					<path id="path25222" class="s1" d="m1463.8 545.2c0 4-3.2 7.3-7.2 7.3-4 0-7.3-3.3-7.3-7.3 0-4 3.3-7.2 7.3-7.2 4 0 7.2 3.2 7.2 7.2z"/>
					<path id="path25224" class="s1" d="m1490.8 545.2c0 4-3.3 7.3-7.3 7.3-4 0-7.2-3.3-7.2-7.3 0-4 3.2-7.2 7.2-7.2 4 0 7.3 3.2 7.3 7.2z"/>
					<path id="path25226" class="s1" d="m1522.1 545.2c0 4-3.2 7.3-7.2 7.3-4 0-7.3-3.3-7.3-7.3 0-4 3.3-7.2 7.3-7.2 4 0 7.2 3.2 7.2 7.2z"/>
				</g>
				<g id="g25266">
					<path id="path25230" class="s4" d="m1557.1 648.4c-3.6 0-6.5 2.9-6.5 6.4 0 3.6 2.9 6.5 6.5 6.5h13.3c3.5 0 6.4-2.9 6.4-6.5 0-3.5-2.9-6.4-6.4-6.4z"/>
					<path id="path25232" class="s4" d="m1557.1 711.7c-3.6 0-6.5 2.8-6.5 6.4 0 3.6 2.9 6.4 6.5 6.4h13.3c3.5 0 6.4-2.8 6.4-6.4 0-3.6-2.9-6.4-6.4-6.4z"/>
					<path id="path25234" class="s4" d="m1557.1 680c-3.6 0-6.5 2.9-6.5 6.5 0 3.5 2.9 6.4 6.5 6.4h13.3c3.5 0 6.4-2.9 6.4-6.4 0-3.6-2.9-6.5-6.4-6.5z"/>
					<path id="path25236" class="s4" d="m1557.1 743.3c-3.6 0-6.5 2.9-6.5 6.4 0 3.6 2.9 6.5 6.5 6.5h13.3c3.5 0 6.4-2.9 6.4-6.5 0-3.5-2.9-6.4-6.4-6.4z"/>
					<path id="path25238" class="s4" d="m1557.1 774.9c-3.6 0-6.5 2.9-6.5 6.4 0 3.6 2.9 6.5 6.5 6.5h13.3c3.5 0 6.4-2.9 6.4-6.5 0-3.5-2.9-6.4-6.4-6.4z"/>
					<path id="path25240" class="s4" d="m1557.1 614.9c-3.6 0-6.5 2.9-6.5 6.4 0 3.6 2.9 6.4 6.5 6.4h13.3c3.5 0 6.4-2.8 6.4-6.4 0-3.5-2.9-6.4-6.4-6.4z"/>
					<path id="path25242" class="s4" d="m1514 648.4c-3.5 0-6.4 2.9-6.4 6.4 0 3.6 2.9 6.5 6.4 6.5h17.7c3.5 0 6.4-2.9 6.4-6.5 0-3.5-2.9-6.4-6.4-6.4z"/>
					<path id="path25244" class="s4" d="m1514 711.7c-3.5 0-6.4 2.8-6.4 6.4 0 3.6 2.9 6.4 6.4 6.4h17.7c3.5 0 6.4-2.8 6.4-6.4 0-3.6-2.9-6.4-6.4-6.4z"/>
					<path id="path25246" class="s4" d="m1496.4 680c-3.6 0-6.4 2.9-6.4 6.5 0 3.5 2.8 6.4 6.4 6.4h35.3c3.5 0 6.4-2.9 6.4-6.4 0-3.6-2.9-6.5-6.4-6.5z"/>
					<path id="path25248" class="s4" d="m1496.4 743.3c-3.6 0-6.4 2.9-6.4 6.4 0 3.6 2.8 6.5 6.4 6.5h35.3c3.5 0 6.4-2.9 6.4-6.5 0-3.5-2.9-6.4-6.4-6.4z"/>
					<path id="path25250" class="s4" d="m1514 774.9c-3.5 0-6.4 2.9-6.4 6.4 0 3.6 2.9 6.5 6.4 6.5h17.7c3.5 0 6.4-2.9 6.4-6.5 0-3.5-2.9-6.4-6.4-6.4z"/>
					<path id="path25252" class="s4" d="m1496.4 614.9c-3.6 0-6.4 2.9-6.4 6.4 0 3.6 2.8 6.4 6.4 6.4h35.3c3.5 0 6.4-2.8 6.4-6.4 0-3.5-2.9-6.4-6.4-6.4z"/>
					<path id="path25254" class="s4" d="m1890 648.4c3.5 0 6.4 2.9 6.4 6.4 0 3.6-2.9 6.5-6.4 6.5h-289c-3.6 0-6.4-2.9-6.4-6.5 0-3.5 2.8-6.4 6.4-6.4z"/>
					<path id="path25256" class="s4" d="m1886.7 711.7c3.5 0 6.4 2.8 6.4 6.4 0 3.6-2.9 6.4-6.4 6.4h-285.7c-3.6 0-6.4-2.8-6.4-6.4 0-3.6 2.8-6.4 6.4-6.4z"/>
					<path id="path25258" class="s4" d="m1907.6 680c3.6 0 6.4 2.9 6.4 6.5 0 3.5-2.8 6.4-6.4 6.4h-306.6c-3.6 0-6.4-2.9-6.4-6.4 0-3.6 2.8-6.5 6.4-6.5z"/>
					<path id="path25260" class="s4" d="m1907.6 743.3c3.6 0 6.4 2.9 6.4 6.4 0 3.6-2.8 6.5-6.4 6.5h-306.6c-3.6 0-6.4-2.9-6.4-6.5 0-3.5 2.8-6.4 6.4-6.4z"/>
					<path id="path25262" class="s4" d="m1626.9 774.9c3.6 0 6.4 2.9 6.4 6.4 0 3.6-2.8 6.5-6.4 6.5h-25.9c-3.6 0-6.4-2.9-6.4-6.5 0-3.5 2.8-6.4 6.4-6.4z"/>
					<path id="path25264" class="s4" d="m1629.8 614.9c3.5 0 6.4 2.9 6.4 6.4 0 3.6-2.9 6.4-6.4 6.4h-28.8c-3.6 0-6.4-2.8-6.4-6.4 0-3.5 2.8-6.4 6.4-6.4z"/>
				</g>
			</g>
		</g>
	</g>
</svg>