<svg version="1.2" xmlns="http://www.w3.org/2000/svg" viewBox="0 0 3710 3710" width="3710" height="3710">
	<title>11668653_20945658</title>
	<defs>
		<linearGradient id="g1" x2="1" gradientUnits="userSpaceOnUse" gradientTransform="matrix(-1969.234,-2096.281,2172.096,-2040.454,3497.528,3679.643)">
			<stop offset="0" stop-color="#dae3fe"/>
			<stop offset="1" stop-color="#e9effd"/>
		</linearGradient>
		<linearGradient id="g2" x2="1" gradientUnits="userSpaceOnUse" gradientTransform="matrix(81.191,-1786.169,2884.687,131.124,1814.547,2903.554)">
			<stop offset="0" stop-color="#09005d"/>
			<stop offset="1" stop-color="#1a0f91"/>
		</linearGradient>
		<linearGradient id="g3" x2="1" gradientUnits="userSpaceOnUse" gradientTransform="matrix(-194.141,1450.945,-8191.264,-1096.018,2216.794,320.432)">
			<stop offset="0" stop-color="#09005d"/>
			<stop offset="1" stop-color="#1a0f91"/>
		</linearGradient>
		<linearGradient id="g4" x2="1" gradientUnits="userSpaceOnUse" gradientTransform="matrix(-578.478,-2384.949,2188.529,-530.836,1235.553,1899.885)">
			<stop offset="0" stop-color="#ff928e"/>
			<stop offset="1" stop-color="#fe7062"/>
		</linearGradient>
		<linearGradient id="g5" x2="1" gradientUnits="userSpaceOnUse" gradientTransform="matrix(417.872,1025.687,-982.246,400.173,839.55,655.861)">
			<stop offset="0" stop-color="#4f52ff"/>
			<stop offset="1" stop-color="#4042e2"/>
		</linearGradient>
		<linearGradient id="g6" x2="1" gradientUnits="userSpaceOnUse" gradientTransform="matrix(-304.431,561.505,-554.726,-300.756,1814.383,-220.084)">
			<stop offset="0" stop-color="#ff928e"/>
			<stop offset="1" stop-color="#fe7062"/>
		</linearGradient>
		<linearGradient id="g7" x2="1" gradientUnits="userSpaceOnUse" gradientTransform="matrix(-304.431,561.505,-591.095,-320.474,1920.988,-162.285)">
			<stop offset="0" stop-color="#ff928e"/>
			<stop offset="1" stop-color="#fe7062"/>
		</linearGradient>
		<linearGradient id="g8" x2="1" gradientUnits="userSpaceOnUse" gradientTransform="matrix(534.445,-588.565,588.095,534.017,1246.576,1234.57)">
			<stop offset="0" stop-color="#e1473d"/>
			<stop offset="1" stop-color="#e9605a"/>
		</linearGradient>
		<linearGradient id="g9" x2="1" gradientUnits="userSpaceOnUse" gradientTransform="matrix(-645.39,1206.365,-2017.756,-1079.474,3007.729,576.316)">
			<stop offset="0" stop-color="#09005d"/>
			<stop offset="1" stop-color="#1a0f91"/>
		</linearGradient>
		<linearGradient id="g10" x2="1" gradientUnits="userSpaceOnUse" gradientTransform="matrix(125.155,-896.38,1481.034,206.786,2381.641,1564.197)">
			<stop offset="0" stop-color="#4f52ff"/>
			<stop offset="1" stop-color="#4042e2"/>
		</linearGradient>
		<linearGradient id="g11" x2="1" gradientUnits="userSpaceOnUse" gradientTransform="matrix(1.691,0,0,1.646,-131.828,2273.154)">
			<stop offset="0" stop-color="#4f52ff"/>
			<stop offset="1" stop-color="#4042e2"/>
		</linearGradient>
		<linearGradient id="g12" x2="1" gradientUnits="userSpaceOnUse" gradientTransform="matrix(840.246,0,0,239.479,1989.928,1422.115)">
			<stop offset="0" stop-color="#09005d"/>
			<stop offset="1" stop-color="#1a0f91"/>
		</linearGradient>
		<linearGradient id="g13" x2="1" gradientUnits="userSpaceOnUse" gradientTransform="matrix(33.248,323.375,-323.38,33.249,2907.144,988.751)">
			<stop offset="0" stop-color="#4f52ff"/>
			<stop offset="1" stop-color="#4042e2"/>
		</linearGradient>
		<linearGradient id="g14" x2="1" gradientUnits="userSpaceOnUse" gradientTransform="matrix(-104.582,-0.858,1.075,-131.07,2905.969,1159.474)">
			<stop offset="0" stop-color="#09005d"/>
			<stop offset="1" stop-color="#1a0f91"/>
		</linearGradient>
		<linearGradient id="g15" x2="1" gradientUnits="userSpaceOnUse" gradientTransform="matrix(31.694,308.25,-149.587,15.38,2875.679,1028.693)">
			<stop offset="0" stop-color="#4f52ff"/>
			<stop offset="1" stop-color="#4042e2"/>
		</linearGradient>
		<linearGradient id="g16" x2="1" gradientUnits="userSpaceOnUse" gradientTransform="matrix(33.248,323.374,-323.374,33.248,1887.708,977.837)">
			<stop offset="0" stop-color="#4f52ff"/>
			<stop offset="1" stop-color="#4042e2"/>
		</linearGradient>
		<linearGradient id="g17" x2="1" gradientUnits="userSpaceOnUse" gradientTransform="matrix(-104.584,-0.858,1.075,-131.065,1991.372,1151.928)">
			<stop offset="0" stop-color="#09005d"/>
			<stop offset="1" stop-color="#1a0f91"/>
		</linearGradient>
		<linearGradient id="g18" x2="1" gradientUnits="userSpaceOnUse" gradientTransform="matrix(32.017,311.402,-86.578,8.902,1912.792,1027.33)">
			<stop offset="0" stop-color="#4f52ff"/>
			<stop offset="1" stop-color="#4042e2"/>
		</linearGradient>
		<linearGradient id="g19" x2="1" gradientUnits="userSpaceOnUse" gradientTransform="matrix(206.449,0,0,497.913,1781.874,2119.06)">
			<stop offset="0" stop-color="#09005d"/>
			<stop offset="1" stop-color="#1a0f91"/>
		</linearGradient>
		<linearGradient id="g20" x2="1" gradientUnits="userSpaceOnUse" gradientTransform="matrix(27.06,240.162,-143.671,16.188,1722.961,1473.619)">
			<stop offset="0" stop-color="#4f52ff"/>
			<stop offset="1" stop-color="#4042e2"/>
		</linearGradient>
		<linearGradient id="g21" x2="1" gradientUnits="userSpaceOnUse" gradientTransform="matrix(111.625,-453.263,453.263,111.625,1981.663,1516.905)">
			<stop offset="0" stop-color="#4f52ff"/>
			<stop offset="1" stop-color="#4042e2"/>
		</linearGradient>
		<linearGradient id="g22" x2="1" gradientUnits="userSpaceOnUse" gradientTransform="matrix(400.362,-345.072,472.427,548.122,-7214.926,9873.766)">
			<stop offset="0" stop-color="#4f52ff"/>
			<stop offset="1" stop-color="#4042e2"/>
		</linearGradient>
		<linearGradient id="g23" x2="1" gradientUnits="userSpaceOnUse" gradientTransform="matrix(-129.872,174.424,-97.505,-72.6,22706.881,-26389.487)">
			<stop offset="0" stop-color="#09005d"/>
			<stop offset="1" stop-color="#1a0f91"/>
		</linearGradient>
		<linearGradient id="g24" x2="1" gradientUnits="userSpaceOnUse" gradientTransform="matrix(-68.819,-27.908,48.951,-120.711,1318.358,2236.125)">
			<stop offset="0" stop-color="#09005d"/>
			<stop offset="1" stop-color="#1a0f91"/>
		</linearGradient>
		<linearGradient id="g25" x2="1" gradientUnits="userSpaceOnUse" gradientTransform="matrix(209.719,-372.082,151.541,85.414,1501.423,1945.862)">
			<stop offset="0" stop-color="#4f52ff"/>
			<stop offset="1" stop-color="#4042e2"/>
		</linearGradient>
		<linearGradient id="g26" x2="1" gradientUnits="userSpaceOnUse" gradientTransform="matrix(250.016,270.676,-314.404,290.406,692.873,1633.685)">
			<stop offset="0" stop-color="#09005d"/>
			<stop offset="1" stop-color="#1a0f91"/>
		</linearGradient>
		<linearGradient id="g27" x2="1" gradientUnits="userSpaceOnUse" gradientTransform="matrix(50.738,-419.437,419.437,50.738,1749.315,2113.639)">
			<stop offset="0" stop-color="#4f52ff"/>
			<stop offset="1" stop-color="#4042e2"/>
		</linearGradient>
		<linearGradient id="g28" x2="1" gradientUnits="userSpaceOnUse" gradientTransform="matrix(281.647,-72.964,201.747,778.76,2224.683,2307.206)">
			<stop offset="0" stop-color="#09005d"/>
			<stop offset="1" stop-color="#1a0f91"/>
		</linearGradient>
		<linearGradient id="g29" x2="1" gradientUnits="userSpaceOnUse" gradientTransform="matrix(-57.504,179.276,-187.534,-60.153,3221.794,1489.708)">
			<stop offset="0" stop-color="#4f52ff"/>
			<stop offset="1" stop-color="#4042e2"/>
		</linearGradient>
		<linearGradient id="g30" x2="1" gradientUnits="userSpaceOnUse" gradientTransform="matrix(118.389,-378.846,378.846,118.389,2973.525,1527.633)">
			<stop offset="0" stop-color="#4f52ff"/>
			<stop offset="1" stop-color="#4042e2"/>
		</linearGradient>
		<linearGradient id="g31" x2="1" gradientUnits="userSpaceOnUse" gradientTransform="matrix(561.286,941.999,-2186.931,1303.073,-5839.196,-12386.023)">
			<stop offset="0" stop-color="#4f52ff"/>
			<stop offset="1" stop-color="#4042e2"/>
		</linearGradient>
		<linearGradient id="g32" x2="1" gradientUnits="userSpaceOnUse" gradientTransform="matrix(175.894,-155.599,155.599,175.894,3301.704,2228.475)">
			<stop offset="0" stop-color="#4f52ff"/>
			<stop offset="1" stop-color="#4042e2"/>
		</linearGradient>
		<linearGradient id="g33" x2="1" gradientUnits="userSpaceOnUse" gradientTransform="matrix(31.871,215.114,-120.247,17.815,-2401.539,-32822.705)">
			<stop offset="0" stop-color="#09005d"/>
			<stop offset="1" stop-color="#1a0f91"/>
		</linearGradient>
		<linearGradient id="g34" x2="1" gradientUnits="userSpaceOnUse" gradientTransform="matrix(-68.347,29.046,-50.946,-119.881,2776.227,2533.808)">
			<stop offset="0" stop-color="#09005d"/>
			<stop offset="1" stop-color="#1a0f91"/>
		</linearGradient>
		<linearGradient id="g35" x2="1" gradientUnits="userSpaceOnUse" gradientTransform="matrix(314.578,-443.116,582.251,413.353,2927.513,2332.692)">
			<stop offset="0" stop-color="#4f52ff"/>
			<stop offset="1" stop-color="#4042e2"/>
		</linearGradient>
		<linearGradient id="g36" x2="1" gradientUnits="userSpaceOnUse" gradientTransform="matrix(368.204,13.981,-16.24,427.69,1907.989,2551.583)">
			<stop offset="0" stop-color="#09005d"/>
			<stop offset="1" stop-color="#1a0f91"/>
		</linearGradient>
		<linearGradient id="g37" x2="1" gradientUnits="userSpaceOnUse" gradientTransform="matrix(683.972,0,0,418.302,856.679,2567.856)">
			<stop offset="0" stop-color="#ff928e"/>
			<stop offset="1" stop-color="#fe7062"/>
		</linearGradient>
		<linearGradient id="g38" x2="1" gradientUnits="userSpaceOnUse" gradientTransform="matrix(34.474,0,0,33.782,797.488,2484.547)">
			<stop offset="0" stop-color="#ff928e"/>
			<stop offset="1" stop-color="#fe7062"/>
		</linearGradient>
		<linearGradient id="g39" x2="1" gradientUnits="userSpaceOnUse" gradientTransform="matrix(21.998,0,0,39.244,670.453,2788.987)">
			<stop offset="0" stop-color="#ff928e"/>
			<stop offset="1" stop-color="#fe7062"/>
		</linearGradient>
		<linearGradient id="g40" x2="1" gradientUnits="userSpaceOnUse" gradientTransform="matrix(697.052,0,0,384.332,675.081,3036.724)">
			<stop offset="0" stop-color="#ff928e"/>
			<stop offset="1" stop-color="#fe7062"/>
		</linearGradient>
		<linearGradient id="g41" x2="1" gradientUnits="userSpaceOnUse" gradientTransform="matrix(33.908,0,0,34.348,1394.314,3088.4)">
			<stop offset="0" stop-color="#ff928e"/>
			<stop offset="1" stop-color="#fe7062"/>
		</linearGradient>
		<linearGradient id="g42" x2="1" gradientUnits="userSpaceOnUse" gradientTransform="matrix(649.71,0,0,649.715,780.303,2790.144)">
			<stop offset="0" stop-color="#ff928e"/>
			<stop offset="1" stop-color="#fe7062"/>
		</linearGradient>
		<linearGradient id="g43" x2="1" gradientUnits="userSpaceOnUse" gradientTransform="matrix(14.908,0,0,30.238,1939.001,2982.095)">
			<stop offset="0" stop-color="#ff928e"/>
			<stop offset="1" stop-color="#fe7062"/>
		</linearGradient>
		<linearGradient id="g44" x2="1" gradientUnits="userSpaceOnUse" gradientTransform="matrix(393.372,0,0,278.6,1560.319,2806.13)">
			<stop offset="0" stop-color="#ff928e"/>
			<stop offset="1" stop-color="#fe7062"/>
		</linearGradient>
		<linearGradient id="g45" x2="1" gradientUnits="userSpaceOnUse" gradientTransform="matrix(412.244,0,0,128.88,1427.959,3183.997)">
			<stop offset="0" stop-color="#ff928e"/>
			<stop offset="1" stop-color="#fe7062"/>
		</linearGradient>
		<linearGradient id="g46" x2="1" gradientUnits="userSpaceOnUse" gradientTransform="matrix(25.258,0,0,25.458,1853.255,3156.938)">
			<stop offset="0" stop-color="#ff928e"/>
			<stop offset="1" stop-color="#fe7062"/>
		</linearGradient>
		<linearGradient id="g47" x2="1" gradientUnits="userSpaceOnUse" gradientTransform="matrix(434.756,0,0,434.755,1445.516,2955.549)">
			<stop offset="0" stop-color="#ff928e"/>
			<stop offset="1" stop-color="#fe7062"/>
		</linearGradient>
		<linearGradient id="g48" x2="1" gradientUnits="userSpaceOnUse" gradientTransform="matrix(20.918,0,0,19.116,661.078,2146.207)">
			<stop offset="0" stop-color="#ff928e"/>
			<stop offset="1" stop-color="#fe7062"/>
		</linearGradient>
		<linearGradient id="g49" x2="1" gradientUnits="userSpaceOnUse" gradientTransform="matrix(137.678,0,0,362.605,584.375,2345.914)">
			<stop offset="0" stop-color="#ff928e"/>
			<stop offset="1" stop-color="#fe7062"/>
		</linearGradient>
		<linearGradient id="g50" x2="1" gradientUnits="userSpaceOnUse" gradientTransform="matrix(200.601,0,0,268.638,843.587,2226.523)">
			<stop offset="0" stop-color="#ff928e"/>
			<stop offset="1" stop-color="#fe7062"/>
		</linearGradient>
		<linearGradient id="g51" x2="1" gradientUnits="userSpaceOnUse" gradientTransform="matrix(23.952,0,0,10.76,802.91,2094.934)">
			<stop offset="0" stop-color="#ff928e"/>
			<stop offset="1" stop-color="#fe7062"/>
		</linearGradient>
		<linearGradient id="g52" x2="1" gradientUnits="userSpaceOnUse" gradientTransform="matrix(344.314,0,0,344.313,641.284,2321.078)">
			<stop offset="0" stop-color="#ff928e"/>
			<stop offset="1" stop-color="#fe7062"/>
		</linearGradient>
	</defs>
	<style>
		.s0 { fill: url(#g1) } 
		.s1 { fill: #91b3fa } 
		.s2 { opacity: .86;fill: #ffffff } 
		.s3 { fill: #bdd0fb } 
		.s4 { fill: url(#g2) } 
		.s5 { fill: #ffffff } 
		.s6 { fill: url(#g3) } 
		.s7 { opacity: .53;fill: #ffffff } 
		.s8 { fill: url(#g4) } 
		.s9 { opacity: .67;fill: #ffffff } 
		.s10 { fill: url(#g5) } 
		.s11 { fill: url(#g6) } 
		.s12 { fill: url(#g7) } 
		.s13 { fill: url(#g8) } 
		.s14 { fill: url(#g9) } 
		.s15 { fill: url(#g10) } 
		.s16 { fill: url(#g11) } 
		.s17 { fill: url(#g12) } 
		.s18 { fill: #7d97f4 } 
		.s19 { fill: url(#g13) } 
		.s20 { fill: url(#g14) } 
		.s21 { fill: url(#g15) } 
		.s22 { fill: url(#g16) } 
		.s23 { fill: url(#g17) } 
		.s24 { fill: url(#g18) } 
		.s25 { fill: url(#g19) } 
		.s26 { fill: url(#g20) } 
		.s27 { opacity: .39;fill: #ffffff } 
		.s28 { fill: url(#g21) } 
		.s29 { fill: url(#g22) } 
		.s30 { fill: url(#g23) } 
		.s31 { fill: url(#g24) } 
		.s32 { fill: url(#g25) } 
		.s33 { fill: url(#g26) } 
		.s34 { fill: url(#g27) } 
		.s35 { fill: url(#g28) } 
		.s36 { fill: url(#g29) } 
		.s37 { fill: url(#g30) } 
		.s38 { fill: url(#g31) } 
		.s39 { fill: url(#g32) } 
		.s40 { fill: url(#g33) } 
		.s41 { fill: url(#g34) } 
		.s42 { fill: url(#g35) } 
		.s43 { fill: url(#g36) } 
		.s44 { fill: url(#g37) } 
		.s45 { fill: url(#g38) } 
		.s46 { fill: url(#g39) } 
		.s47 { fill: url(#g40) } 
		.s48 { fill: url(#g41) } 
		.s49 { fill: url(#g42) } 
		.s50 { opacity: .78;fill: #ffffff } 
		.s51 { fill: url(#g43) } 
		.s52 { fill: url(#g44) } 
		.s53 { fill: url(#g45) } 
		.s54 { fill: url(#g46) } 
		.s55 { fill: url(#g47) } 
		.s56 { fill: url(#g48) } 
		.s57 { fill: url(#g49) } 
		.s58 { fill: url(#g50) } 
		.s59 { fill: url(#g51) } 
		.s60 { fill: url(#g52) } 
	</style>
	<g id="Background">
		<g>
			<g>
			</g>
		</g>
	</g>
	<g id="Illustration">
		<g>
			<path class="s0" d="m2908.9 2836.3c-72.9 74.7-138.1 118.7-188 151.9-486.9 323.6-1043.6 230.3-1215.7 198.4-277.6-51.4-512-87.7-713.4-268.8-457.6-411.4-435.3-1269.7-85.7-1801.4 41.5-63 390.6-578 948.5-650.6 13.6-1.8 23.8-2.8 32.7-3.7 86.3-9.1 621.1-57.1 1057.1 306.5 62.4 52 162.9 145.9 256 289.1 340.6 523.5 341.7 1334.2-91.5 1778.6z"/>
			<g>
				<path class="s1" d="m3191.2 505.2c-203.8 150.3-1352.5 1074.4-649.2 2329.7 0 0 918.2-409.9 683.9-2314.3-2-16.7-21.4-25.2-34.7-15.4z"/>
				<path class="s2" d="m3121 751.2c-40.4 70.1-79.4 141.1-117.7 212.4q-57.5 107-112.4 215.3-54.9 108.4-107.2 218.1c-34.9 73.2-68.6 146.9-101.3 221-65.2 148.5-126.1 299-178.6 452.9-26.4 76.8-50.1 154.7-70.7 233.5-20.5 78.8-38 158.6-48.9 239.8-0.5 3.5 2 6.9 5.6 7.5 3.6 0.5 6.8-1.9 7.3-5.4v-0.1c10.6-80.5 27.6-160 47.7-238.5 20.2-78.5 43.5-156.3 69.6-233 51.7-153.6 112-304.2 176.5-452.7 32.5-74.3 65.8-148 100.4-221.3q51.8-109.8 106.2-218.3 54.5-108.5 111.5-215.7c38-71.4 76.7-142.5 116.8-212.7 0.8-1.3 0.3-3-1-3.8-1.3-0.8-3-0.3-3.8 1z"/>
			</g>
			<g>
				<path class="s3" d="m2652.5 531.3c99.8 228 624.5 1578.2-589.9 2301.9 0 0-580.8-799.2 552.8-2305.8 9.9-13.2 30.6-11 37.1 3.9z"/>
				<path class="s2" d="m2591.6 775.2c0 79.5-1.6 159.1-3.9 238.6q-3.6 119.3-10 238.4-6.4 119.2-15.7 238.3c-6.2 79.4-13.6 158.7-22.1 237.9-17.3 158.4-39.3 316.4-70.1 473.1-15.1 78.4-33.2 156.3-54.3 233.5-21.1 77.2-45.5 153.7-76 228.2-1.3 3.2-5.1 4.9-8.4 3.6-3.3-1.3-4.9-4.9-3.6-8.2v-0.1c30.5-73.7 55-149.7 76.4-226.4 21.3-76.8 39.6-154.4 55-232.5 31.3-156.2 53.9-314 71.8-472.1 8.8-79.1 16.6-158.2 23.1-237.5q9.7-119 16.6-238.1 6.8-119.1 10.8-238.2c2.7-79.5 4.6-159 4.9-238.4v-0.1c0-1.4 1.2-2.7 2.8-2.7 1.5 0 2.7 1.2 2.7 2.7z"/>
			</g>
			<g>
				<path class="s4" d="m582.9 2859.2c0 25.1 20.6 45.7 45.8 45.7h2475.3c25.2 0 45.8-20.6 45.8-45.7l20.6-1422.5c0-25.2-29.6-74.3-83.9-70.6l-2419.2-62.6c-31.6-0.8-62.2 11.4-84.5 33.6-22.4 22.3-34.6 52.8-33.9 84.4z"/>
				<path class="s1" d="m628.1 2815.3c0 23.8 19.5 43.3 43.3 43.3h2372.9c23.9 0 43.3-19.5 43.3-43.3l19.5-1291.4c-2.3-77.7-70.4-105.6-111.7-104l-2318.6-62.2c-22.2-0.6-43.7 8-59.4 23.7-15.7 15.7-24.4 37.1-23.8 59.3z"/>
				<g>
					<path class="s5" d="m3062 2201.8q0 0-0.1 0c-3.5 0-6.3-2.9-6.2-6.4l1.5-104.7c0-3.5 2.9-6.3 6.3-6.3q0.1 0 0.1 0c3.5 0.1 6.3 2.9 6.3 6.4l-1.6 104.8c0 3.4-2.8 6.2-6.3 6.2z"/>
					<path class="s5" d="m3065.8 1945.2q-0.1 0-0.1 0c-3.5-0.1-6.3-3-6.3-6.5l5.9-401.1c-0.1-23.8-7.3-42.8-21.5-56.4-26.4-25.3-68.4-24-70.1-23.9l-741.1-19.9c-3.5-0.1-6.3-3-6.2-6.5 0.1-3.5 2.8-6.5 6.5-6.2l740.7 19.9c4.6-0.3 49.2-1.1 79 27.4 16.7 16.1 25.3 38.2 25.4 65.7l-5.9 401.2c0 3.5-2.9 6.3-6.3 6.3z"/>
				</g>
				<path class="s6" d="m474.5 3023h2778.1c3.1 0 5.6-2.5 5.6-5.6v-113.7c0-3.1-2.5-5.7-5.6-5.7h-2778.1c-3.1 0-5.6 2.6-5.6 5.7v113.7c0 3.1 2.5 5.6 5.6 5.6z"/>
				<g>
					<path class="s7" d="m1407 1574.7l-633-4.5c-1.4 0-2.5-1.1-2.5-2.4l0.4-50c0-1.4 1.1-2.5 2.5-2.4l633 4.4c1.3 0 2.4 1.1 2.4 2.5l-0.3 49.9c0 1.4-1.2 2.5-2.5 2.5z"/>
					<path class="s7" d="m1806.4 1578.7l-219.1-1.6c-1.3 0-2.4-1-2.4-2.4l0.4-50.1c0-1.3 1.1-2.4 2.4-2.4l219.1 1.6c1.3 0 2.3 1.1 2.3 2.4l-0.3 50.1c0 1.3-1.1 2.4-2.4 2.4z"/>
					<path class="s7" d="m2293.2 1582.1l-434.5-3.1c-2.1 0-3.8-1.7-3.8-3.8l0.3-47.3c0.1-2.1 1.8-3.8 3.8-3.8l434.6 3.1c2.1 0 3.7 1.7 3.7 3.8l-0.3 47.3c0 2.1-1.7 3.8-3.8 3.8z"/>
					<path class="s7" d="m937.1 1667.9l-163.5-1.2c-2 0-3.7-1.7-3.7-3.8l0.3-47.3c0-2.1 1.7-3.8 3.8-3.8l163.5 1.2c2.1 0 3.8 1.7 3.7 3.8l-0.3 47.3c0 2.1-1.7 3.8-3.8 3.8z"/>
					<path class="s7" d="m1407.6 1671.2l-459-3.2c-1.4 0-2.5-1.1-2.5-2.5l0.4-49.9c0-1.4 1.1-2.5 2.4-2.5l459 3.3c1.4 0 2.5 1.1 2.5 2.4l-0.4 50c0 1.4-1.1 2.5-2.4 2.4z"/>
					<path class="s7" d="m1807.5 1675.2l-219.1-1.5c-1.3 0-2.4-1.1-2.3-2.4l0.3-50.1c0-1.3 1.1-2.4 2.4-2.4l219.1 1.6c1.3 0 2.4 1 2.4 2.3l-0.4 50.2c0 1.3-1.1 2.3-2.4 2.3z"/>
					<path class="s7" d="m2654.5 1681.2l-640.1-4.5c-2.1 0-3.8-1.7-3.8-3.8l0.4-47.4c0-2 1.7-3.7 3.8-3.7l640 4.5c2.1 0 3.8 1.7 3.8 3.8l-0.3 47.3c-0.1 2.1-1.8 3.8-3.8 3.8z"/>
					<path class="s7" d="m936.3 1764.3l-163.5-1.2c-2 0-3.7-1.7-3.7-3.8l0.3-47.3c0-2.1 1.7-3.8 3.8-3.8l163.5 1.2c2.1 0 3.8 1.7 3.7 3.8l-0.3 47.3c0 2.1-1.7 3.8-3.8 3.8z"/>
					<path class="s7" d="m1406.7 1767.7l-459-3.3c-1.4 0-2.5-1.1-2.5-2.4l0.4-50c0-1.4 1.1-2.4 2.4-2.4l459 3.2c1.4 0 2.5 1.1 2.5 2.5l-0.3 49.9c-0.1 1.4-1.2 2.5-2.5 2.5z"/>
					<path class="s7" d="m1806.7 1771.7l-219.1-1.6c-1.3 0-2.4-1.1-2.4-2.4l0.4-50.1c0-1.3 1-2.4 2.4-2.4l219.1 1.6c1.3 0 2.3 1 2.3 2.4l-0.3 50.1c0 1.3-1.1 2.4-2.4 2.4z"/>
					<path class="s7" d="m2929.3 1779.5l-836.3-5.8c-2.1-0.1-3.8-1.8-3.8-3.8l0.3-47.4c0.1-2.1 1.8-3.7 3.8-3.7l836.4 5.8c2.1 0 3.7 1.7 3.7 3.8l-0.3 47.4c0 2.1-1.7 3.7-3.8 3.7z"/>
					<path class="s7" d="m937 1860.8l-163.5-1.1c-2 0-3.7-1.7-3.7-3.8l0.3-47.3c0-2.1 1.7-3.8 3.8-3.8l163.5 1.2c2.1 0 3.8 1.7 3.7 3.7l-0.3 47.4c0 2.1-1.7 3.8-3.8 3.7z"/>
					<path class="s7" d="m1408.4 1864.2l-459-3.2c-1.3 0-2.4-1.1-2.4-2.5l0.3-49.9c0-1.4 1.1-2.5 2.5-2.5l459 3.3c1.4 0 2.5 1.1 2.5 2.4l-0.4 50c0 1.4-1.1 2.5-2.5 2.4z"/>
					<path class="s7" d="m1807.8 1868.2l-219.1-1.5c-1.3 0-2.4-1.1-2.4-2.4l0.4-50.1c0-1.3 1.1-2.4 2.4-2.4l219.1 1.5c1.3 0.1 2.3 1.1 2.3 2.4l-0.3 50.2c0 1.3-1.1 2.3-2.4 2.3z"/>
					<path class="s7" d="m2933.1 1876.1l-836.4-5.8c-2.1-0.1-3.7-1.8-3.7-3.8l0.3-47.4c0-2.1 1.7-3.7 3.8-3.7l836.4 5.8c2 0 3.7 1.7 3.7 3.8l-0.3 47.4c-0.1 2.1-1.7 3.7-3.8 3.7z"/>
					<path class="s7" d="m935.8 1961l-163.5-1.1c-2.1 0-3.7-1.7-3.7-3.8l0.3-47.4c0-2 1.7-3.7 3.8-3.7l163.5 1.1c2.1 0.1 3.7 1.8 3.7 3.8l-0.3 47.4c0 2.1-1.7 3.7-3.8 3.7z"/>
					<path class="s7" d="m1406.8 1964.4l-459-3.2c-1.4 0-2.5-1.1-2.5-2.5l0.4-49.9c0-1.4 1.1-2.5 2.5-2.5l459 3.2c1.4 0.1 2.5 1.2 2.4 2.5l-0.3 50c0 1.3-1.1 2.4-2.5 2.4z"/>
					<path class="s7" d="m1806.4 1968.4l-219.1-1.5c-1.3 0-2.3-1.1-2.3-2.4l0.3-50.1c0-1.4 1.1-2.4 2.4-2.4l219.1 1.5c1.3 0 2.4 1.1 2.4 2.4l-0.4 50.2c0 1.3-1.1 2.3-2.4 2.3z"/>
					<path class="s7" d="m2930.7 1976.3l-836.4-5.9c-2 0-3.7-1.7-3.7-3.8l0.3-47.3c0-2.1 1.7-3.8 3.8-3.7l836.4 5.8c2.1 0 3.7 1.7 3.7 3.8l-0.3 47.4c0 2-1.7 3.7-3.8 3.7z"/>
					<path class="s7" d="m936.5 2057.6l-163.5-1.1c-2.1-0.1-3.7-1.8-3.7-3.8l0.3-47.4c0-2.1 1.7-3.7 3.8-3.7l163.5 1.1c2.1 0 3.7 1.7 3.7 3.8l-0.3 47.4c0 2-1.7 3.7-3.8 3.7z"/>
					<path class="s7" d="m1408.6 2061l-459-3.2c-1.4 0-2.5-1.1-2.5-2.5l0.4-49.9c0-1.4 1.1-2.5 2.4-2.5l459 3.2c1.4 0 2.5 1.1 2.5 2.5l-0.3 50c-0.1 1.3-1.2 2.4-2.5 2.4z"/>
					<path class="s7" d="m1807.5 2065l-219.1-1.5c-1.3 0-2.3-1.1-2.3-2.4l0.3-50.2c0-1.3 1.1-2.3 2.4-2.3l219.1 1.5c1.3 0 2.4 1.1 2.4 2.4l-0.4 50.1c0 1.3-1.1 2.4-2.4 2.4z"/>
					<path class="s7" d="m2364.7 2068.9l-509.4-3.6c-2.1 0-3.8-1.7-3.8-3.8l0.3-47.3c0.1-2.1 1.8-3.8 3.8-3.8l509.5 3.6c2.1 0 3.8 1.7 3.8 3.8l-0.4 47.4c0 2-1.7 3.7-3.8 3.7z"/>
					<path class="s7" d="m1408 2157.4l-636.5-4.4c-1.3 0-2.4-1.2-2.4-2.5l0.3-50c0-1.3 1.2-2.4 2.5-2.4l636.5 4.4c1.4 0.1 2.5 1.2 2.4 2.5l-0.3 50c0 1.3-1.1 2.4-2.5 2.4z"/>
					<path class="s7" d="m1806.7 2161.4l-219.1-1.5c-1.3 0-2.4-1.1-2.4-2.4l0.4-50.2c0-1.3 1.1-2.3 2.4-2.3l219.1 1.5c1.3 0 2.3 1.1 2.3 2.4l-0.3 50.2c0 1.3-1.1 2.3-2.4 2.3z"/>
					<path class="s7" d="m2608.2 2167l-637.1-4.4c-2.1 0-3.8-1.7-3.7-3.8l0.3-47.4c0-2.1 1.7-3.7 3.8-3.7l637 4.4c2.1 0.1 3.8 1.8 3.8 3.8l-0.3 47.4c-0.1 2.1-1.8 3.7-3.8 3.7z"/>
					<path class="s7" d="m929.9 2250.5l-156.6-1c-2.1-0.1-3.7-1.8-3.7-3.8l0.3-47.4c0-2.1 1.7-3.8 3.8-3.7l156.6 1.1c2.1 0 3.8 1.7 3.8 3.8l-0.4 47.3c0 2.1-1.7 3.8-3.8 3.7z"/>
					<path class="s7" d="m1409.4 2254l-459-3.2c-1.3 0-2.4-1.1-2.4-2.5l0.3-49.9c0-1.4 1.2-2.5 2.5-2.5l459 3.2c1.4 0 2.5 1.1 2.5 2.5l-0.4 50c0 1.3-1.1 2.4-2.5 2.4z"/>
					<path class="s7" d="m1807.8 2258l-219.1-1.5c-1.3-0.1-2.3-1.1-2.3-2.4l0.3-50.2c0-1.3 1.1-2.3 2.4-2.3l219.1 1.5c1.3 0 2.4 1.1 2.4 2.4l-0.4 50.1c0 1.3-1.1 2.4-2.4 2.4z"/>
					<path class="s7" d="m2934.2 2265.9l-865-6.1c-2.1 0-3.7-1.7-3.7-3.8l0.3-47.3c0-2.1 1.7-3.8 3.8-3.8l865 6.1c2.1 0 3.8 1.7 3.8 3.8l-0.4 47.3c0 2.1-1.7 3.8-3.8 3.8z"/>
					<path class="s7" d="m930.8 2538.7l-163.5-1.1c-2 0-3.7-1.7-3.7-3.8l0.3-47.4c0-2 1.8-3.7 3.8-3.7l163.5 1.1c2.1 0.1 3.8 1.8 3.7 3.8l-0.3 47.4c0 2.1-1.7 3.7-3.8 3.7z"/>
					<path class="s7" d="m1403.1 2542.1l-459-3.2c-1.3 0-2.4-1.1-2.4-2.5l0.3-49.9c0-1.4 1.1-2.5 2.5-2.5l459 3.2c1.4 0.1 2.5 1.2 2.5 2.5l-0.4 50c0 1.3-1.1 2.4-2.5 2.4z"/>
					<path class="s7" d="m1801.9 2546.1l-219.1-1.5c-1.3 0-2.4-1.1-2.4-2.4l0.4-50.2c0-1.3 1-2.3 2.4-2.3l219.1 1.5c1.3 0 2.3 1.1 2.3 2.4l-0.3 50.2c0 1.3-1.1 2.3-2.4 2.3z"/>
					<path class="s7" d="m2359.1 2550l-509.5-3.6c-2.1 0-3.8-1.7-3.8-3.7l0.4-47.4c0-2.1 1.7-3.8 3.8-3.7l509.5 3.5c2 0 3.7 1.7 3.7 3.8l-0.3 47.4c0 2.1-1.7 3.7-3.8 3.7z"/>
					<path class="s7" d="m1402.6 2638.6l-636.5-4.5c-1.4 0-2.5-1.1-2.5-2.5l0.4-49.9c0-1.4 1.1-2.5 2.5-2.5l636.5 4.5c1.3 0 2.4 1.1 2.4 2.5l-0.3 49.9c-0.1 1.4-1.2 2.5-2.5 2.5z"/>
					<path class="s7" d="m1801 2642.5l-219.1-1.5c-1.3 0-2.3-1.1-2.3-2.4l0.3-50.1c0-1.3 1.1-2.4 2.4-2.4l219.1 1.5c1.3 0.1 2.4 1.1 2.4 2.4l-0.4 50.2c0 1.3-1.1 2.3-2.4 2.3z"/>
					<path class="s7" d="m2602.1 2648.1l-637-4.4c-2.1 0-3.8-1.7-3.8-3.8l0.4-47.4c0-2 1.7-3.7 3.8-3.7l637 4.5c2.1 0 3.8 1.7 3.8 3.8l-0.4 47.3c0 2.1-1.7 3.8-3.8 3.7z"/>
					<path class="s7" d="m924.3 2731.7l-156.7-1.1c-2 0-3.7-1.7-3.7-3.8l0.3-47.4c0-2.1 1.7-3.7 3.8-3.7l156.7 1.1c2 0 3.7 1.7 3.7 3.8l-0.3 47.3c0 2.1-1.7 3.8-3.8 3.8z"/>
					<path class="s7" d="m1404 2735.1l-459-3.2c-1.4 0-2.5-1.1-2.5-2.5l0.4-49.9c0-1.4 1.1-2.5 2.5-2.5l459 3.2c1.3 0.1 2.4 1.2 2.4 2.5l-0.3 50c0 1.3-1.1 2.4-2.5 2.4z"/>
					<path class="s7" d="m1802.2 2739.1l-219.1-1.5c-1.4 0-2.4-1.1-2.4-2.4l0.4-50.2c0-1.3 1-2.3 2.3-2.3l219.1 1.5c1.3 0 2.4 1.1 2.4 2.4l-0.4 50.2c0 1.3-1 2.3-2.3 2.3z"/>
					<path class="s7" d="m2928.2 2747l-865-6.1c-2.1 0-3.8-1.7-3.7-3.8l0.3-47.3c0-2.1 1.7-3.8 3.8-3.8l865 6.1c2.1 0 3.8 1.7 3.7 3.8l-0.3 47.4c0 2-1.7 3.7-3.8 3.7z"/>
					<path class="s7" d="m927.3 2348.7l-156.6-1.1c-2.1 0-3.8-1.7-3.7-3.7l0.3-47.4c0-2.1 1.7-3.8 3.8-3.7l156.6 1.1c2.1 0 3.8 1.7 3.8 3.8l-0.4 47.3c0 2.1-1.7 3.8-3.8 3.7z"/>
					<path class="s7" d="m1405.2 2352.2l-459-3.2c-1.4 0-2.5-1.1-2.5-2.5l0.4-50c0-1.3 1.1-2.4 2.5-2.4l459 3.2c1.3 0 2.4 1.1 2.4 2.5l-0.3 49.9c0 1.4-1.1 2.5-2.5 2.5z"/>
					<path class="s7" d="m1804.5 2356.2l-219.1-1.6c-1.3 0-2.3-1-2.3-2.3l0.3-50.2c0-1.3 1.1-2.4 2.4-2.3l219.1 1.5c1.3 0 2.4 1.1 2.4 2.4l-0.4 50.1c0 1.3-1.1 2.4-2.4 2.4z"/>
					<path class="s7" d="m2926.9 2364l-865.1-6c-2 0-3.7-1.7-3.7-3.8l0.3-47.4c0.1-2 1.8-3.7 3.8-3.7l865.1 6c2 0.1 3.7 1.8 3.7 3.8l-0.3 47.4c0 2.1-1.7 3.8-3.8 3.7z"/>
					<path class="s7" d="m928 2445.3l-156.7-1.1c-2 0-3.7-1.7-3.7-3.8l0.3-47.3c0-2.1 1.7-3.8 3.8-3.8l156.7 1.1c2.1 0 3.7 1.7 3.7 3.8l-0.3 47.4c0 2.1-1.7 3.7-3.8 3.7z"/>
					<path class="s7" d="m1407 2448.8l-459-3.2c-1.4-0.1-2.5-1.2-2.5-2.5l0.4-50c0-1.3 1.1-2.4 2.4-2.4l459 3.2c1.4 0 2.5 1.1 2.5 2.5l-0.4 49.9c0 1.4-1.1 2.5-2.4 2.5z"/>
					<path class="s7" d="m1805.6 2452.8l-219.1-1.6c-1.3 0-2.3-1.1-2.3-2.4l0.3-50.1c0-1.3 1.1-2.4 2.4-2.4l219.1 1.6c1.3 0 2.4 1 2.4 2.3l-0.4 50.2c0 1.3-1 2.4-2.4 2.3z"/>
					<path class="s7" d="m2930.8 2460.6l-865-6c-2.1 0-3.8-1.7-3.8-3.8l0.3-47.4c0.1-2.1 1.8-3.7 3.8-3.7l865.1 6c2 0.1 3.7 1.8 3.7 3.8l-0.3 47.4c0 2.1-1.7 3.7-3.8 3.7z"/>
					<path class="s7" d="m1501.6 2800.8l-17.8-0.1c-0.8 0-1.4-0.6-1.4-1.4l9.4-1349.9c0-0.7 0.7-1.3 1.4-1.3l17.9 0.1c0.8 0 1.4 0.6 1.4 1.4l-9.5 1349.8c0 0.8-0.6 1.4-1.4 1.4z"/>
				</g>
			</g>
			<g>
				<path class="s8" d="m1637.9 999.4c-2.6-40.7-27.2-76.8-64.1-94.3l-477.6-226.9c-30.6-14.5-66.1-14.5-96.7 0l-477.6 226.9c-36.9 17.5-61.5 53.6-64.1 94.3-44.8 692.5 399.2 944.9 544.8 1008.6 28.8 12.6 61.6 12.6 90.5 0 145.6-63.7 589.6-316.1 544.8-1008.6z"/>
				<path class="s9" d="m903.4 778.5c-4.3 0-8.4-2.4-10.4-6.5-2.7-5.8-0.3-12.6 5.4-15.3l112.9-53.6c5.7-2.7 12.5-0.3 15.2 5.4 2.8 5.7 0.3 12.6-5.4 15.3l-112.8 53.6c-1.6 0.7-3.3 1.1-4.9 1.1z"/>
				<path class="s9" d="m494.3 1152.3c-6.2 0-11.2-4.9-11.5-11.1-1.5-45.2-0.7-92.3 2.4-140 2-30.7 20.6-58 48.5-71.3l321.3-152.6c5.7-2.7 12.5-0.2 15.2 5.5 2.7 5.7 0.3 12.5-5.4 15.2l-321.3 152.6c-20.4 9.7-34 29.7-35.4 52.1-3.1 46.9-3.9 93.3-2.4 137.7 0.2 6.4-4.7 11.7-11 11.9q-0.2 0-0.4 0z"/>
				<path class="s10" d="m1522.4 1026.4c-0.5-10.3-6.7-19.5-16-23.9l-446.5-212.1c-7.7-3.6-16.5-3.6-24.1 0l-446.5 212.1c-9.4 4.4-15.5 13.6-16 23.9-13.2 258.4 46.4 473.9 177.4 641 99.9 127.3 216.8 195.6 285.2 227.4 7.6 3.5 16.3 3.5 23.8 0 68.5-31.8 185.3-100.1 285.2-227.4 131-167.1 190.7-382.6 177.5-641z"/>
				<g>
					<path class="s11" d="m915.8 1304h-44.5v-177.4c0-69.6 52.1-128.5 121.3-136.9l91-11c39.1-4.8 78.5 7.5 108.1 33.6 29.5 26.2 46.4 63.8 46.4 103.3v154.8h-44.5v-154.8c0-26.7-11.4-52.2-31.4-69.9-20-17.8-46.7-26.1-73.2-22.8l-91 11c-46.9 5.7-82.2 45.6-82.2 92.7 0 0 0 177.4 0 177.4z"/>
					<path class="s12" d="m858.2 1264.2l390-21.6c15.9-0.9 29.2 11.7 29.2 27.6v309c0 15.3-12.4 27.6-27.6 27.6h-380.7c-15 0-27.2-11.8-27.7-26.7l-9.3-287.4c-0.5-15 11.1-27.7 26.1-28.5z"/>
					<path class="s13" d="m1118.3 1518.3l-23.6-67.9c-2.8-8.1-0.9-17.3 5.2-23.4 12.1-12.3 19.3-29.4 18.4-48.1-1.5-33.1-28.5-60-61.6-61.3-36.7-1.4-66.9 27.9-66.9 64.3 0 20.1 9.3 38.1 23.9 49.9 7.5 6.1 10.6 16.1 7.4 25.3l-21.3 61.2c-5.2 14.9 5.9 30.4 21.6 30.4h75.3c15.7 0 26.8-15.5 21.6-30.4z"/>
				</g>
			</g>
			<g>
				<g>
					<path class="s14" d="m2016.4 1778.4l757.7 6.3c33.8 0.3 61.6-27.1 61.9-60.8 0.2-33.8-27.1-61.6-60.9-61.9l-757.7-6.2c-33.8-0.3-61.6 27.1-61.9 60.8-0.2 33.7 27.1 61.6 60.9 61.8z"/>
					<path class="s15" d="m2097.1 1103.1l599.2 4.9c142.6 1.2 258.3 118.8 257.1 261.3l-2 237.4c-0.4 53.7-44.7 97.3-98.5 96.9l-922.2-7.7c-53.7-0.4-97.3-44.7-96.8-98.5l1.9-237.3c1.2-142.5 118.8-258.2 261.3-257z"/>
					<path class="s16" d="m1970.3 1729l842.6 6.9c75.6 0.7 136.9 63 136.3 138.7l-0.9 110.5c-2.5 307.3-258.4 834.8-565.7 832.2-307.3-2.5-554.4-534.1-551.9-841.4l0.9-110.6c0.7-75.6 63.1-136.9 138.7-136.3z"/>
					<g>
						<path class="s17" d="m1989.9 1442.1c-0.3 41.5 30.9 76.6 72.1 80.8 223.4 22.9 455.2 25.4 694 5.5 41.5-3.4 73.5-38 73.8-79.6l0.4-43.6c0.3-41.3-30.7-76.3-71.8-80.7-231.8-25-463.8-30.9-696.2-6.9-40.6 4.2-71.6 38.6-71.9 79.5z"/>
						<g>
							<path class="s18" d="m2585.7 1425.2c-0.3 28.2 22.4 51.3 50.6 51.5 28.2 0.2 51.2-22.4 51.4-50.6 0.2-28.2-22.4-51.2-50.6-51.4-28.2-0.3-51.2 22.4-51.4 50.5z"/>
							<path class="s18" d="m2132.4 1421.5c-0.2 28.2 22.4 51.2 50.6 51.4 28.2 0.3 51.2-22.4 51.4-50.5 0.3-28.2-22.4-51.3-50.6-51.5-28.2-0.2-51.2 22.4-51.4 50.6z"/>
						</g>
						<path class="s18" d="m2631.6 1499.4q-0.1 0-0.2 0c-1.7-0.2-2.9-1.6-2.8-3.2 0.1-1.7 1.5-3 3.2-2.8 1.7 0.1 2.9 1.5 2.8 3.2-0.1 1.6-1.5 2.8-3 2.8zm17.7-0.9c-1.4 0-2.7-1.1-2.9-2.5-0.3-1.7 0.7-3.2 2.4-3.5 1.6-0.3 3.2 0.8 3.5 2.4 0.3 1.6-0.8 3.2-2.4 3.5-0.2 0-0.4 0.1-0.6 0.1zm-35.2-2.6c-0.2 0-0.6 0-0.9-0.1-1.6-0.6-2.4-2.3-1.9-3.9 0.5-1.5 2.2-2.4 3.8-1.8 1.6 0.5 2.4 2.2 1.9 3.7-0.4 1.4-1.6 2.1-2.9 2.1zm52.2-2.8c-1.2 0-2.3-0.6-2.7-1.8-0.7-1.4-0.1-3.2 1.4-3.9 1.6-0.7 3.3-0.1 4 1.5 0.7 1.5 0.1 3.2-1.5 3.9-0.4 0.3-0.8 0.3-1.2 0.3zm-68.1-4.9c-0.6 0-1.2-0.1-1.7-0.5-1.4-0.9-1.7-2.8-0.9-4.2 1-1.3 2.8-1.7 4.2-0.9 1.4 1 1.8 2.8 0.9 4.2-0.6 0.9-1.5 1.4-2.5 1.4zm83.1-4.5c-0.8 0-1.7-0.4-2.3-1.1-1-1.3-0.8-3.2 0.4-4.2 1.3-1 3.3-0.9 4.3 0.4 1.1 1.3 0.8 3.2-0.4 4.3-0.6 0.4-1.3 0.6-1.9 0.6zm-96.8-7c-0.8 0-1.6-0.3-2.2-0.9-1.1-1.2-1.1-3.1 0.2-4.3 1.2-1.1 3.1-1 4.2 0.2 1.1 1.2 1.1 3.2-0.1 4.3-0.6 0.5-1.4 0.7-2.1 0.7zm109-5.8c-0.6 0-1.2-0.2-1.7-0.6-1.4-1-1.7-2.8-0.7-4.2 1-1.4 2.9-1.6 4.3-0.6 1.3 1 1.6 2.8 0.6 4.2-0.6 0.8-1.6 1.2-2.5 1.2zm-119.3-8.6c-1.1 0-2.1-0.6-2.7-1.6-0.8-1.4-0.2-3.3 1.3-4.1 1.4-0.7 3.2-0.2 4 1.3 0.8 1.4 0.3 3.2-1.2 4-0.4 0.3-1 0.4-1.4 0.4zm128.1-6.8c-0.4 0-0.8-0.2-1.2-0.3-1.5-0.6-2.3-2.4-1.6-3.9 0.6-1.5 2.4-2.3 3.9-1.7 1.5 0.6 2.3 2.5 1.7 4-0.5 1.2-1.7 1.9-2.8 1.9zm-134.5-9.8c-1.4 0-2.6-0.9-2.9-2.2q0-0.1 0-0.1c-0.5-1.6 0.5-3.2 2.2-3.6 1.5-0.4 3.2 0.6 3.6 2.2 0.4 1.6-0.6 3.3-2.2 3.6-0.2 0.1-0.5 0.1-0.7 0.1zm139-7.4c-0.1 0-0.3 0-0.4 0-1.6-0.3-2.8-1.8-2.6-3.4 0.3-1.7 1.8-2.9 3.4-2.6 1.7 0.2 2.9 1.7 2.6 3.4-0.2 1.5-1.5 2.6-3 2.6zm-141.1-10.2c-1.7 0-3-1.4-3-3q0-0.1 0-0.2 0-0.1 0-0.1c0-1.7 1.4-3 3-3 1.7 0 3 1.4 3 3q0 0.2 0 0.2c0 0.1 0 0.1 0 0.1 0 1.7-1.4 3-3 3zm3-3.2v-0.1c0 0.1 0 0 0 0.1zm138.3-4.4c-1.5 0-2.8-1.1-3-2.6-0.2-1.7 1-3.2 2.7-3.4 1.6-0.2 3.1 1 3.3 2.7 0.2 1.6-1 3.1-2.7 3.3-0.1 0-0.2 0-0.3 0zm-138.9-10.3c-0.2 0-0.5 0-0.7-0.1-1.7-0.4-2.6-2.1-2.2-3.7 0.5-1.6 2.1-2.5 3.7-2.1 1.6 0.4 2.6 2.1 2.1 3.7-0.3 1.3-1.6 2.2-2.9 2.2zm134.7-6.9c-1.2 0-2.3-0.8-2.8-1.9-0.6-1.6 0.2-3.4 1.7-4 1.6-0.5 3.3 0.2 3.9 1.8 0.6 1.6-0.2 3.3-1.7 3.9-0.4 0.1-0.8 0.2-1.1 0.2zm-127.9-9.5q-0.8 0-1.5-0.4c-1.5-0.8-2-2.6-1.1-4.1 0.8-1.5 2.6-2 4.1-1.1 1.4 0.8 1.9 2.6 1.1 4.1-0.6 1-1.6 1.5-2.6 1.5zm119.5-6.2c-1 0-1.9-0.4-2.5-1.2-0.9-1.4-0.6-3.3 0.8-4.2 1.3-1 3.2-0.7 4.2 0.6 0.9 1.4 0.6 3.3-0.8 4.3-0.5 0.4-1.1 0.5-1.7 0.5zm-109-8.1c-0.7 0-1.4-0.3-2-0.8-1.2-1.2-1.2-3.1-0.1-4.3 1.2-1.1 3.1-1.2 4.3 0 1.2 1.1 1.2 3 0.1 4.2-0.6 0.7-1.4 0.9-2.3 0.9zm97-5q-1.1 0.1-2-0.7c-1.2-1-1.4-2.9-0.3-4.2 1.1-1.3 2.9-1.4 4.2-0.4 1.3 1.1 1.4 3 0.4 4.3-0.6 0.7-1.5 1.1-2.3 1zm-83.1-6.1c-1 0-2-0.6-2.6-1.4-0.8-1.5-0.4-3.3 1-4.2 1.4-0.9 3.3-0.4 4.2 1 0.8 1.4 0.4 3.3-1 4.1-0.5 0.4-1.1 0.5-1.6 0.5zm68.2-3.5q-0.7 0-1.3-0.4c-1.5-0.7-2.2-2.5-1.4-3.9 0.7-1.6 2.5-2.2 4-1.5 1.5 0.7 2.1 2.5 1.4 4.1-0.5 1-1.6 1.7-2.7 1.7zm-52.1-3.9c-1.2 0-2.4-0.8-2.8-2.1-0.5-1.6 0.4-3.3 2-3.8q-0.1 0-0.1 0c1.7-0.5 3.4 0.4 3.8 2 0.5 1.6-0.4 3.2-2 3.8q-0.4 0.1-0.9 0.1zm35.3-1.8c-0.3 0-0.4 0-0.6-0.1-1.7-0.3-2.7-1.9-2.4-3.5 0.3-1.7 1.9-2.7 3.6-2.4 1.6 0.3 2.7 1.9 2.3 3.6-0.3 1.4-1.6 2.4-2.9 2.4zm-17.8-1.3c-1.5 0-2.9-1.3-3-2.9 0-1.7 1.2-3.1 2.9-3.2 1.7 0 3.1 1.3 3.2 2.9 0.1 1.7-1.3 3.1-2.9 3.2q-0.1 0-0.2 0z"/>
						<path class="s18" d="m2178.5 1495.6q-0.1 0-0.2 0c-1.6-0.1-2.9-1.5-2.8-3.2 0.2-1.7 1.6-2.9 3.3-2.8 1.6 0.2 2.9 1.6 2.7 3.3 0 1.5-1.4 2.7-3 2.7zm17.7-0.9c-1.4 0-2.6-1-2.9-2.4-0.2-1.7 0.8-3.3 2.4-3.6 1.7-0.3 3.2 0.8 3.6 2.5 0.2 1.6-0.8 3.2-2.5 3.5-0.2 0-0.3 0-0.6 0zm-35.1-2.5c-0.3 0-0.6-0.1-0.9-0.2-1.6-0.5-2.5-2.2-1.9-3.8 0.5-1.6 2.2-2.4 3.8-1.9 1.6 0.5 2.4 2.2 1.9 3.8-0.5 1.3-1.6 2.1-2.9 2.1zm52.1-2.8c-1.1 0-2.2-0.6-2.7-1.8-0.7-1.5-0.1-3.3 1.5-4 1.5-0.7 3.3 0 3.9 1.5 0.7 1.5 0.1 3.3-1.4 4-0.4 0.2-0.9 0.3-1.3 0.3zm-68.1-5c-0.5 0-1.1-0.1-1.6-0.4-1.4-0.9-1.8-2.8-0.9-4.2 0.9-1.4 2.8-1.8 4.2-0.9 1.4 0.9 1.8 2.8 0.8 4.2-0.5 0.9-1.5 1.4-2.5 1.3zm83.2-4.4c-0.9 0-1.7-0.4-2.3-1.1-1.1-1.3-0.9-3.2 0.4-4.3 1.3-1 3.2-0.8 4.2 0.5 1.1 1.3 0.9 3.2-0.4 4.2-0.5 0.5-1.2 0.7-1.9 0.7zm-96.8-7c-0.8 0-1.5-0.3-2.1-0.9-1.2-1.3-1.1-3.2 0.1-4.3 1.2-1.1 3.1-1.1 4.3 0.1 1.1 1.3 1 3.2-0.2 4.3-0.6 0.5-1.3 0.8-2.1 0.8zm109.1-5.8c-0.6 0-1.3-0.2-1.8-0.6-1.3-1-1.6-2.9-0.6-4.2 0.9-1.4 2.9-1.6 4.2-0.6 1.3 0.9 1.6 2.8 0.6 4.2-0.6 0.8-1.5 1.2-2.4 1.2zm-119.4-8.6c-1 0-2.1-0.6-2.6-1.6-0.8-1.5-0.3-3.3 1.2-4.1 1.4-0.8 3.3-0.3 4.1 1.2 0.7 1.5 0.2 3.3-1.2 4.1-0.5 0.3-1 0.4-1.5 0.4zm128.1-6.9c-0.4 0-0.8-0.1-1.1-0.2-1.6-0.6-2.3-2.4-1.7-3.9 0.7-1.6 2.4-2.3 3.9-1.7 1.6 0.6 2.3 2.4 1.7 3.9-0.5 1.2-1.6 1.9-2.8 1.9zm-134.5-9.7c-1.3 0-2.6-1-2.9-2.3q0 0 0 0c-0.4-1.6 0.6-3.2 2.2-3.6 1.6-0.4 3.2 0.6 3.7 2.2 0.4 1.6-0.6 3.2-2.3 3.6-0.2 0-0.4 0.1-0.7 0.1zm139.1-7.5c-0.1 0-0.3 0-0.4 0-1.6-0.2-2.8-1.7-2.6-3.4 0.2-1.6 1.8-2.8 3.4-2.6 1.6 0.3 2.8 1.8 2.6 3.4-0.2 1.6-1.6 2.6-3 2.6zm-141.2-10.1c-1.6 0-2.9-1.4-2.9-3.1q0 0 0-0.1 0-0.1 0-0.2c0-1.6 1.4-3 3-3 1.7 0.1 3 1.4 3 3.1q0 0.1 0 0.2c0 0 0 0 0 0.1 0 1.6-1.4 3-3.1 3zm3.1-3.3c0 0 0 0 0 0zm138.3-4.3c-1.6 0-2.9-1.2-3-2.7-0.2-1.6 1-3.1 2.6-3.3 1.7-0.2 3.2 1 3.4 2.7 0.1 1.6-1 3.1-2.7 3.3-0.1 0-0.2 0-0.3 0zm-138.9-10.3c-0.3 0-0.5-0.1-0.8-0.1-1.6-0.5-2.5-2.1-2.1-3.7 0.4-1.6 2.1-2.6 3.7-2.1 1.6 0.4 2.5 2.1 2.1 3.6-0.3 1.4-1.6 2.3-2.9 2.3zm134.6-6.9c-1.1-0.1-2.3-0.8-2.8-2-0.6-1.6 0.2-3.3 1.8-3.9 1.5-0.6 3.3 0.2 3.9 1.7 0.5 1.6-0.2 3.4-1.8 3.9-0.3 0.1-0.7 0.3-1.1 0.3zm-127.9-9.6q-0.7 0.1-1.5-0.3c-1.4-0.9-1.9-2.7-1.1-4.1 0.9-1.5 2.7-2 4.1-1.2 1.4 0.8 2 2.7 1.1 4.1-0.5 1-1.5 1.6-2.6 1.5zm119.5-6.1c-0.9 0-1.8-0.5-2.4-1.3-1-1.4-0.7-3.2 0.7-4.2 1.3-0.9 3.2-0.6 4.2 0.7 1 1.4 0.6 3.2-0.7 4.3-0.5 0.3-1.2 0.5-1.8 0.5zm-108.9-8.1c-0.7 0-1.5-0.3-2.1-0.8-1.2-1.2-1.2-3.1 0-4.3 1.1-1.2 3-1.2 4.3-0.1 1.2 1.2 1.2 3.1 0 4.3-0.6 0.6-1.4 0.9-2.2 0.9zm96.9-5q-1 0-1.9-0.7c-1.3-1.1-1.4-3-0.4-4.3 1.1-1.2 3-1.4 4.3-0.3 1.2 1.1 1.4 3 0.3 4.2-0.6 0.7-1.5 1.1-2.3 1.1zm-83.1-6.2c-1 0-1.9-0.5-2.5-1.4-0.9-1.4-0.4-3.2 1-4.2 1.4-0.8 3.3-0.4 4.1 1.1 0.9 1.3 0.5 3.2-0.9 4.1-0.6 0.3-1.1 0.4-1.7 0.4zm68.2-3.5q-0.7 0-1.2-0.3c-1.6-0.7-2.2-2.5-1.5-4 0.7-1.5 2.5-2.1 4.1-1.4 1.4 0.7 2.1 2.5 1.4 4-0.6 1.1-1.6 1.8-2.8 1.7zm-52-3.8c-1.3 0-2.5-0.9-2.8-2.2-0.6-1.5 0.3-3.2 2-3.7q-0.1 0-0.1 0c1.6-0.5 3.3 0.3 3.8 1.9 0.5 1.6-0.4 3.3-2 3.8q-0.4 0.2-0.9 0.2zm35.2-1.8c-0.2-0.1-0.4-0.1-0.6-0.1-1.6-0.3-2.6-1.9-2.4-3.6 0.4-1.6 2-2.6 3.6-2.3 1.6 0.3 2.7 1.9 2.4 3.5-0.3 1.5-1.6 2.5-3 2.5zm-17.8-1.3c-1.5-0.1-2.8-1.3-2.9-2.9-0.1-1.7 1.2-3.1 2.8-3.2 1.7 0 3.1 1.2 3.2 2.9 0.1 1.7-1.2 3.1-2.8 3.2q-0.1 0-0.3 0z"/>
					</g>
					<path class="s19" d="m2879 990.6c-0.1 15.6 12.5 28.4 28.1 28.6 15.7 0.1 28.4-12.5 28.6-28.1 0.1-15.7-12.5-28.4-28.1-28.6-15.6-0.1-28.4 12.5-28.6 28.1z"/>
					<path class="s20" d="m2905.4 1224.8c0 0-67.7 8.1-103.9-80.5l18.3-36.9c6.2-12.5 21.5-17.6 34-11.2l38.6 19.7c8.5 4.3 13.8 13.1 13.7 22.6z"/>
					<path class="s21" d="m2901.6 1003.9c0.8-1.7 3.4-0.9 3 0.9l-24.3 124.1c-0.6 2.8-2.5 5.2-5.2 6.3-2.6 1.1-5.6 0.7-8-0.9l-7.2-4.8c-5.9-4.1-8.2-11.8-5.3-18.4z"/>
					<path class="s22" d="m1916.5 982.7c-0.1 15.6-12.9 28.2-28.6 28-15.6-0.1-28.2-12.9-28-28.5 0.1-15.6 12.9-28.2 28.5-28.1 15.6 0.2 28.2 12.9 28.1 28.6z"/>
					<path class="s23" d="m1886.3 1216.4c0 0 67.5 9.2 105.2-78.8l-17.7-37.2c-6-12.6-21.2-17.9-33.8-11.8l-38.9 19.1c-8.6 4.2-14.1 12.9-14.1 22.4z"/>
					<path class="s24" d="m1890.7 996.5l22.2 123.9c0.5 2.9 2.5 5.4 5.2 6.6 2.8 1.2 5.9 0.9 8.4-0.7l6.8-4.5c6-3.9 8.4-11.6 5.6-18.2l-45.2-108c-0.7-1.8-3.3-1-3 0.9z"/>
					<path class="s1" d="m2712 1252.7c15.4 0.1 28.5-11.5 30.1-27.1 1.6-16.5-10.5-31.1-27-32.7-217.8-21.2-416.9-23.4-608.9-7-16.5 1.4-28.7 16-27.3 32.5 1.4 16.5 15.9 28.7 32.4 27.3 188.3-16.2 383.9-13.9 598 6.9q1.4 0.1 2.7 0.1z"/>
					<path class="s1" d="m2047.5 1537.4c-44.6-4.8-77.9-44.7-77.5-92.7l0.4-50.3c0.4-47.2 33.6-86.4 77.4-91.3 226.1-25.2 463.3-22.8 725.2 7.2 44.4 5.1 77.5 45 77.1 92.7l-0.4 48.6c-0.4 48.2-34.5 87.5-79.4 91.6-122.4 11-244.5 16-365.7 15-120.4-1-239.7-7.9-357.1-20.8zm0.9-228.7c-40.9 4.5-72 41.4-72.4 85.8l-0.4 50.2c-0.4 45.1 30.8 82.6 72.5 87.1 235.3 25.7 478.1 27.6 721.7 5.7 42-3.7 73.9-40.7 74.3-85.9l0.4-48.6c0.4-44.9-30.7-82.3-72.2-87.1-132.7-15.2-259-23.3-380.8-24.3-118.1-1-231.9 4.7-343.1 17.1z"/>
					<g>
						<path class="s18" d="m2127.7 2000.2l0.9-111.8c0.3-37.6 31.1-67.9 68.7-67.6l392.5 3.2c37.6 0.4 67.9 31.2 67.6 68.8l-0.9 111.7c-0.3 37.6-31.2 67.9-68.7 67.6l-392.6-3.2c-37.5-0.4-67.8-31.2-67.5-68.7zm69.5-173.9c-34.5-0.3-62.9 27.6-63.2 62.1l-0.9 111.8c-0.3 34.6 27.6 62.9 62.2 63.2l392.5 3.2c34.6 0.3 62.9-27.6 63.2-62.1l0.9-111.8c0.3-34.6-27.6-62.9-62.1-63.2z"/>
					</g>
					<g>
						<path class="s18" d="m2552 1891.9q1.1 0 2.1-0.2c0.7-0.1 1.4-0.3 2.1-0.6 0.6-0.3 1.3-0.6 1.9-1q0.9-0.6 1.6-1.4c2.1-2 3.3-4.8 3.3-7.6 0-2.9-1.1-5.7-3.2-7.8-4-4.1-11.3-4.1-15.4-0.1-0.5 0.5-0.9 1.1-1.4 1.7q-0.5 0.8-1 1.8c-0.2 0.7-0.5 1.4-0.6 2.1q-0.2 1-0.2 2.1 0 1.1 0.2 2.1c0.1 0.7 0.3 1.4 0.6 2 0.2 0.8 0.6 1.4 0.9 2q0.7 0.9 1.4 1.6c0.5 0.6 1.1 1 1.7 1.4 0.6 0.4 1.2 0.8 1.8 1 0.7 0.3 1.4 0.5 2.1 0.7 0.6 0.1 1.4 0.2 2.1 0.2z"/>
						<path class="s18" d="m2294.6 1889.8c-6.1-0.1-10.9-5-10.9-11 0.1-6 5-10.9 11.1-10.8 6 0 10.8 5 10.7 11 0 5.9-4.9 10.8-10.9 10.8zm51.4 0.4c-6-0.1-10.8-5-10.8-11 0.1-6 5-10.9 11-10.8 6 0 10.9 5 10.8 11 0 6-5 10.8-11 10.8zm51.5 0.4c-6 0-10.9-5-10.8-11 0-6 5-10.8 11-10.8 6 0.1 10.9 5 10.8 11 0 6-4.9 10.9-11 10.8zm51.5 0.4c-6 0-10.8-5-10.8-11 0.1-6 5-10.8 11-10.8 6 0.1 10.9 5 10.8 11 0 6-5 10.9-11 10.8zm51.5 0.5c-6-0.1-10.9-5-10.8-11 0-6 5-10.9 11-10.8 6 0 10.8 5 10.8 10.9-0.1 6-5 10.9-11 10.9z"/>
						<path class="s18" d="m2243.1 1889.3c2.9 0.1 5.6-1.1 7.7-3.1q0.8-0.7 1.4-1.6c0.3-0.6 0.7-1.2 1-1.9 0.3-0.7 0.5-1.3 0.6-2.1q0.3-1 0.3-2.1c0-2.9-1.1-5.7-3.2-7.7q-0.7-0.8-1.6-1.4c-0.6-0.4-1.2-0.7-1.9-1-0.7-0.3-1.3-0.5-2-0.6-3.6-0.8-7.3 0.3-9.9 2.9-2.1 2-3.2 4.8-3.2 7.6q-0.1 1.1 0.2 2.2c0.1 0.7 0.3 1.3 0.5 2 0.3 0.7 0.6 1.3 1.1 1.9q0.5 0.9 1.2 1.7c0.6 0.5 1.1 0.9 1.7 1.3 0.6 0.5 1.2 0.8 1.9 1.1 0.7 0.3 1.3 0.5 2 0.6q1.1 0.2 2.2 0.2z"/>
					</g>
				</g>
				<g>
					<g>
						<g>
							<path class="s25" d="m1931.7 1870.1l44.2 14.4c9.7 3.2 14.8 13.7 11.4 23.3l-159.8 448.3c-3.3 9.2-13.3 14-22.6 11l-23-7.5z"/>
							<path class="s26" d="m1669.9 2438l46.6 15.2c18.8 6.2 39.1-3.9 45.6-22.5l189.4-554.1-130-42.5c-10.5-3.4-21.8 2.5-25 13.1l-150.1 545.7c-5.8 18.9 4.7 39 23.5 45.1z"/>
							<path class="s1" d="m1718.1 2249.3l68.2-239.4c5.3-16.5 23-25.4 39.4-20.1 16.5 5.4 25.5 23.1 20.1 39.5l-68.2 239.5c-5.3 16.4-23 25.4-39.5 20-16.4-5.4-25.4-23-20-39.5z"/>
							<path fill-rule="evenodd" class="s27" d="m1818.9 1987.6l13.7 4.5-87.6 299-13.7-4.5z"/>
						</g>
						<g>
							<path fill-rule="evenodd" class="s28" d="m1895.9 1993.4c-70.9 0-128.2-57.3-128.2-128.3 0-70.9 57.3-128.2 128.2-128.2 70.9 0 128.2 57.3 128.2 128.2 0 71-57.3 128.3-128.2 128.3z"/>
							<path class="s1" d="m1802.8 1834.7c16.8-51.4 72.1-79.5 123.5-62.7 51.4 16.8 79.5 72.1 62.7 123.5-16.8 51.5-72.1 79.5-123.5 62.8-51.4-16.8-79.5-72.1-62.7-123.6z"/>
						</g>
					</g>
					<g>
						<path class="s29" d="m1374 2279.7l14.5-35.7c5.8-14.4 19.3-22.6 30.2-18.5l296.2 103.8-40.3 99.5c-3.3 8.1-10.9 12.5-16.9 9.9l-274.9-124.7c-10.7-4.7-14.6-19.9-8.8-34.3z"/>
					</g>
					<g>
						<path class="s30" d="m1332.6 2311.8l38.8 15.5c1.1 0.5 2.3-0.1 2.8-1.2l47.5-118.5c0.5-1.2-0.1-2.4-1.2-2.9l-38.8-15.5c-1.1-0.5-2.4 0.1-2.8 1.2l-47.6 118.5c-0.4 1.2 0.1 2.4 1.3 2.9z"/>
						<path class="s31" d="m1342.6 2176.4c-19.4-11.2-44-12.2-64.8-0.4-31.3 17.8-42.3 57.5-24.6 88.8 9 15.8 23.6 26.5 39.9 30.8z"/>
						<path class="s32" d="m1382.8 2193l7.6-19.1c1.4-3.5-0.4-7.5-4.1-9l-35.5-14.2c-3.7-1.5-7.8 0.1-9.2 3.6l-61.1 152.4c-1.4 3.5 0.5 7.5 4.2 8.9l35.4 14.3c3.7 1.4 7.8-0.2 9.2-3.6l7-17.5z"/>
					</g>
					<path fill-rule="evenodd" class="s33" d="m1083.4 2240.8l134.1 69.7 93.7-191.7-131.4-66.6-17.5 31.4 84.5 55.8-61.9 114.9-84.1-38.8z"/>
					<g>
						<g>
							<path class="s34" d="m1761.8 2470.5c-49.8 24.7-110.2 4.4-134.9-45.4-24.7-49.8-4.4-110.2 45.4-134.9 49.8-24.7 110.2-4.4 134.9 45.4 24.7 49.8 4.4 110.2-45.4 134.9z"/>
							<path class="s1" d="m1751.2 2449.2c-38 18.9-84.1 3.3-103-34.7-18.9-38-3.4-84.2 34.7-103 38-18.9 84.1-3.4 103 34.6 18.9 38.1 3.4 84.2-34.7 103.1z"/>
						</g>
					</g>
				</g>
				<g>
					<g>
						<g>
							<path class="s35" d="m2829.9 1890.3l-40.5 23c-8.8 5-11.7 16.3-6.5 25l246.1 407.4c5 8.3 15.8 11.1 24.3 6.3l21.1-12z"/>
							<path class="s36" d="m3199.8 2394.5l-42.7 24.2c-17.2 9.8-39 4-49.2-13l-296.2-505.1 118.9-67.5c9.7-5.5 21.9-2 27.2 7.8l256 504.7c9.4 17.4 3.2 39.2-14 48.9z"/>
							<path class="s1" d="m3114.9 2219.3l-114.6-221c-8.6-15.1-27.7-20.4-42.7-11.8-15.1 8.5-20.3 27.6-11.8 42.7l114.6 221c8.5 15 27.7 20.3 42.7 11.8 15-8.6 20.3-27.7 11.8-42.7z"/>
							<path fill-rule="evenodd" class="s27" d="m2963.9 1982.9l-12.6 7.2 145.5 275.4 12.6-7.1z"/>
						</g>
						<g>
							<path fill-rule="evenodd" class="s37" d="m2863.9 2006.5c-70.9 0-128.2-57.3-128.2-128.2 0-70.9 57.3-128.2 128.2-128.2 70.9 0 128.3 57.3 128.3 128.2 0 70.9-57.4 128.2-128.3 128.2z"/>
							<path class="s1" d="m2949.1 1829.9c-26.7-47-86.5-63.5-133.5-36.8-47.1 26.8-63.5 86.5-36.8 133.6 26.7 47 86.5 63.5 133.5 36.8 47-26.7 63.5-86.5 36.8-133.6z"/>
						</g>
					</g>
					<g>
						<g>
							<path class="s38" d="m2846.3 2525.1l-15-35.4c-6.1-14.3-2.4-29.6 8.2-34.5l282.7-136.5 42 98.8c3.4 8 1.1 16.6-5 18.9l-282.3 106.7c-10.9 4.3-24.5-3.7-30.6-18z"/>
						</g>
						<g>
							<path class="s39" d="m3165.6 2476.4c51.1-21.8 75-80.9 53.2-132-21.7-51.2-80.8-75-132-53.3-51.1 21.7-75 80.8-53.2 132 21.7 51.2 80.8 75 132 53.3z"/>
							<path class="s1" d="m3156.3 2454.5c39-16.6 57.3-61.8 40.6-100.8-16.6-39.1-61.7-57.3-100.8-40.7-39.1 16.6-57.3 61.7-40.7 100.8 16.6 39.1 61.8 57.3 100.9 40.7z"/>
						</g>
						<g>
							<path class="s40" d="m2839.8 2577.2l38.4-16.5c1.2-0.5 1.7-1.8 1.2-2.9l-50.4-117.4c-0.5-1.1-1.8-1.6-2.9-1.1l-38.4 16.5c-1.1 0.5-1.6 1.7-1.1 2.9l50.4 117.3c0.4 1.1 1.7 1.6 2.8 1.2z"/>
							<path class="s41" d="m2751 2474.5c-21.6 5.8-39.6 22.5-46 45.6-9.5 34.7 10.9 70.6 45.6 80.1 17.5 4.8 35.4 2 50-6.5z"/>
							<path class="s42" d="m2791.1 2457.7l-8.1-18.9c-1.5-3.4-5.6-4.9-9.3-3.4l-35.1 15.1c-3.6 1.6-5.4 5.6-3.9 9l64.8 151c1.5 3.4 5.6 4.9 9.3 3.3l35.1-15.1c3.6-1.5 5.4-5.6 3.9-9l-7.4-17.3z"/>
						</g>
						<path fill-rule="evenodd" class="s43" d="m2613.6 2703.5l144.1-45.8-69.7-201.7-139.9 46.1 9.9 34.6 99.2-20.5 37.7 125-86.9 32.1z"/>
					</g>
				</g>
			</g>
			<g>
				<g>
					<g style="opacity: .3">
						<path class="s44" d="m1530.5 2777c-6 0.4-11.2-4.2-11.6-10.2-0.8-11.7-2.1-23.5-3.8-35.1-0.9-5.9 3-11.4 8.9-12.4q0.1 0 0.2 0c5.9-0.9 11.5 3.2 12.4 9.1 1.9 12.3 3.2 24.7 4 37 0.4 5.6-3.6 10.5-9 11.4q-0.6 0.1-1.1 0.2zm-27.9-101.3c-3.4-11.3-7.2-22.5-11.5-33.4-2.2-5.6 0.6-11.9 6.2-14.1 5.6-2.2 11.9 0.6 14.1 6.2 4.5 11.4 8.6 23.3 12.1 35.1 1.7 5.8-1.6 11.9-7.4 13.6q-0.6 0.1-1.2 0.3c-5.4 0.9-10.7-2.3-12.3-7.7zm-36-85.2c-5.8-10.2-12-20.3-18.6-30-3.4-5-2.1-11.8 2.9-15.2 4.9-3.4 11.7-2.1 15.1 2.9 7 10.2 13.5 20.8 19.6 31.6 2.9 5.2 1.1 11.9-4.2 14.8q-1.7 1-3.5 1.3c-4.4 0.7-9-1.3-11.3-5.4zm-54.2-75.1c-7.8-8.7-16.2-17.1-24.8-25.1-4.4-4.1-4.7-11-0.6-15.4 4.1-4.4 11-4.6 15.4-0.6 9.1 8.4 17.9 17.3 26.2 26.5 4 4.4 3.7 11.3-0.8 15.4-1.6 1.4-3.5 2.3-5.4 2.6-3.6 0.6-7.4-0.5-10-3.4zm-69.5-61.1c-9.6-6.7-19.6-13.1-29.8-19-5.2-3-7-9.6-3.9-14.9 3-5.2 9.7-6.9 14.9-3.9 10.7 6.2 21.2 12.9 31.3 19.9 4.9 3.5 6.2 10.3 2.7 15.2-1.7 2.5-4.3 4-7.1 4.5-2.7 0.5-5.6-0.1-8.1-1.8zm-81.3-44.2c-10.8-4.4-22-8.4-33.2-11.9-5.8-1.8-9-7.9-7.2-13.6 1.8-5.8 7.9-9 13.7-7.2 11.7 3.6 23.5 7.9 35 12.5 5.5 2.3 8.2 8.6 5.9 14.2-1.4 3.6-4.6 6-8.2 6.7-2 0.3-4 0.1-6-0.7zm-403 38c-3.4-5-2.1-11.8 2.9-15.1 10.2-7 20.8-13.5 31.6-19.6 5.3-2.9 11.9-1.1 14.8 4.2 3 5.3 1.1 11.9-4.1 14.8-10.3 5.8-20.4 12-30.1 18.6-1.3 0.9-2.8 1.5-4.3 1.7-4.1 0.7-8.4-0.9-10.8-4.6zm314-63.1c-11.6-1.9-23.3-3.3-35-4.2-6-0.4-10.5-5.7-10.1-11.7 0.5-6 5.7-10.4 11.7-10 12.3 0.9 24.8 2.4 36.9 4.4 6 1 10 6.6 9 12.5-0.7 4.8-4.4 8.3-8.9 9q-1.7 0.3-3.6 0zm-231.1 16.8c-2.2-5.6 0.6-11.9 6.2-14.1 11.5-4.5 23.4-8.5 35.2-12 5.8-1.7 11.9 1.6 13.6 7.4 1.7 5.8-1.6 11.8-7.4 13.5-11.3 3.3-22.5 7.2-33.5 11.4q-1 0.4-2.1 0.6c-5 0.8-10.1-1.9-12-6.8zm138.7-21.3c-11.7 0.7-23.5 2-35.1 3.7-5.9 0.9-11.5-3.2-12.4-9.1-0.9-5.9 3.1-11.4 9-12.4q0.1 0 0.2 0c12.2-1.9 24.6-3.2 36.9-4 6.1-0.4 11.2 4.2 11.6 10.2 0.4 5.6-3.6 10.5-9 11.5q-0.6 0-1.2 0.1z"/>
						<path class="s45" d="m810.2 2501.3c2.2-0.4 4.2-1.4 5.8-3 4-3.9 8.2-7.9 12.4-11.7 4.4-4 4.8-10.9 0.7-15.4-4-4.4-10.9-4.8-15.4-0.7-4.4 4-8.7 8.1-13 12.3-4.2 4.2-4.3 11.1-0.1 15.4 2.6 2.6 6.2 3.7 9.6 3.1z"/>
					</g>
					<g style="opacity: .3">
						<path class="s46" d="m683.2 2808.4c5.2-0.8 9.1-5.4 9.1-10.8-0.1-5.6 0-11.4 0.1-17 0.2-6-4.5-11-10.5-11.2-6.1-0.2-11.1 4.5-11.2 10.5-0.2 6-0.3 12-0.2 17.9 0 6 5 10.9 11 10.8q0.9 0 1.7-0.2z"/>
						<path class="s47" d="m1158 3225.8c-6 0.7-11.4-3.6-12.2-9.5-0.7-6 3.6-11.4 9.5-12.2 11.4-1.3 22.9-3.2 34.3-5.6 5.9-1.2 11.7 2.6 12.9 8.5 1.2 5.9-2.5 11.6-8.4 12.9q-7.5 1.5-14.9 2.8c-7 1.2-14.2 2.2-21.2 3.1zm79.4-28.5c-2-5.7 1-11.9 6.6-13.9 10.9-3.9 21.8-8.2 32.3-13 5.5-2.4 12 0 14.4 5.5 2.5 5.5 0 12-5.4 14.4-11.1 5-22.5 9.6-34 13.6q-0.9 0.3-1.8 0.5c-5.1 0.9-10.3-2-12.1-7.1zm-138.8 31.6c-12.1-0.2-24.4-0.9-36.5-2.2-6-0.6-10.3-5.9-9.7-11.9 0.6-6 5.9-10.3 11.9-9.7 11.5 1.1 23.2 1.8 34.7 2 6 0.1 10.8 5 10.7 11.1-0.1 5.3-4 9.7-9 10.5q-1 0.2-2.1 0.2zm224-70.1c-3.2-5.1-1.6-11.8 3.5-15 9.7-6.1 19.4-12.8 28.6-19.7 4.8-3.6 11.6-2.7 15.2 2.1 3.7 4.9 2.7 11.7-2.1 15.3-9.7 7.3-19.9 14.3-30.2 20.8-1.2 0.7-2.5 1.2-3.9 1.5-4.2 0.7-8.7-1.1-11.1-5zm-319 57.9c-11.8-2.8-23.6-6.2-35.1-10.1-5.7-1.9-8.8-8.1-6.9-13.8 1.9-5.7 8.1-8.8 13.8-6.9 10.9 3.7 22.2 6.9 33.4 9.6 5.8 1.5 9.4 7.4 8 13.2-1.1 4.4-4.6 7.5-8.8 8.2-1.4 0.2-2.9 0.2-4.4-0.2zm-90.1-32.7c-10.9-5.4-21.6-11.3-32-17.5-5.2-3.1-6.9-9.8-3.8-15 3.1-5.1 9.8-6.8 15-3.7 9.9 6 20.1 11.6 30.5 16.7 5.4 2.6 7.6 9.2 4.9 14.6-1.6 3.2-4.6 5.3-7.9 5.9-2.2 0.4-4.5 0.1-6.7-1zm-80.8-51.5c-9.4-7.7-18.7-15.8-27.5-24.1-4.3-4.2-4.5-11.1-0.3-15.5 4.1-4.3 11-4.5 15.4-0.3 8.3 7.9 17.1 15.6 26.1 22.9 4.7 3.8 5.5 10.6 1.7 15.3-1.8 2.2-4.1 3.5-6.7 3.9-2.9 0.5-6.1-0.2-8.7-2.2zm-67.6-68c-7.6-9.5-14.8-19.4-21.5-29.6-3.4-5-2-11.7 3-15.1 5-3.3 11.8-2 15.1 3.1 6.4 9.6 13.3 19 20.5 28 3.7 4.7 3 11.6-1.8 15.3-1.4 1.2-3.1 2-4.9 2.3-3.8 0.6-7.8-0.8-10.4-4zm-51-81.2c-5.3-10.9-10.2-22.2-14.6-33.5-2.1-5.7 0.7-12 6.3-14.1 5.6-2.2 11.9 0.6 14.1 6.2 4.1 10.8 8.8 21.6 13.8 31.9 2.6 5.4 0.3 12-5.1 14.6q-1.4 0.7-2.9 0.9c-4.7 0.8-9.5-1.5-11.6-6zm-32-90.3c-2.1-8.7-3.9-17.6-5.4-26.4q-0.8-4.8-1.5-9.5c-0.9-6 3.1-11.6 9.2-12.4 5.9-0.9 11.5 3.2 12.4 9.2q0.6 4.5 1.4 9c1.5 8.4 3.2 16.8 5.1 25.1 1.4 5.9-2.2 11.7-8.1 13.1q-0.3 0.1-0.7 0.1c-5.6 1-11.1-2.6-12.4-8.2z"/>
						<path class="s48" d="m1407.1 3105.4c2.1-0.4 4.2-1.4 5.8-3 4.2-4.2 8.4-8.5 12.4-12.9 4.1-4.4 3.8-11.3-0.6-15.4-4.4-4.1-11.3-3.8-15.4 0.6-3.8 4.2-7.8 8.3-11.8 12.2-4.2 4.3-4.3 11.2 0 15.5 2.6 2.6 6.2 3.6 9.6 3z"/>
					</g>
					<g>
						<path class="s49" d="m1407.8 2918.5c1.1-1.9 0.8-4.2-0.6-5.9l-41.1-46.4c8.1-27.8 11.9-57.1 10.7-86.9l51-35.1c1.8-1.3 2.6-3.5 2-5.6l-19.9-71.7c-0.6-2.1-2.4-3.6-4.6-3.7l-61.8-3.8c-14.4-26.1-32.7-49.3-54-68.9l11.3-61c0.4-2.2-0.6-4.3-2.5-5.4l-64.8-36.6c-1.9-1.1-4.2-0.8-5.9 0.6l-46.4 41.1c-27.8-8.1-57.1-11.9-86.9-10.7l-35.1-51c-1.3-1.8-3.5-2.6-5.6-2l-71.7 19.9c-2.1 0.6-3.6 2.4-3.7 4.6l-3.8 61.8c-26.1 14.4-49.3 32.7-68.9 54l-61-11.3c-2.1-0.4-4.3 0.6-5.4 2.5l-36.6 64.8c-1 1.9-0.8 4.2 0.6 5.9l41.1 46.4c-8.1 27.8-11.9 57.1-10.6 86.9l-51.1 35.1c-1.8 1.3-2.6 3.5-2 5.6l19.9 71.7c0.6 2.1 2.4 3.6 4.6 3.7l61.9 3.8c14.3 26.1 32.6 49.3 53.9 68.9l-11.3 61c-0.4 2.2 0.6 4.3 2.5 5.4l64.8 36.6c1.9 1.1 4.3 0.8 5.9-0.6l46.4-41.1c27.8 8.1 57.1 11.9 86.9 10.6l35.2 51.1c1.2 1.8 3.4 2.6 5.5 2l71.7-19.9c2.1-0.6 3.6-2.4 3.7-4.6l3.8-61.8c26.1-14.4 49.3-32.7 68.9-54l61 11.3c2.2 0.4 4.3-0.6 5.4-2.5z"/>
						<path class="s50" d="m1106.9 2864.9c-41.2 1-75.5-31.8-76.5-73-0.5-20 6.9-38.9 20.7-53.4 13.7-14.4 32.3-22.6 52.3-23.1 41.2-1 75.5 31.8 76.5 73 0.9 37.5-26.1 69.3-62 75.4q-5.4 1-11 1.1zm-43.2-114.3c-10.6 11.1-16.2 25.6-15.9 40.9 0.8 31.6 27.1 56.7 58.7 56 31.6-0.8 56.7-27.1 56-58.7-0.8-31.6-27.1-56.7-58.7-56q-4.3 0.1-8.5 0.8c-12 2.1-23 8-31.6 17z"/>
						<path class="s50" d="m1134.6 2970.5q9.3-1.5 18.4-4.1 2.9-0.8 5.8-1.7c9.4-2.9 18.5-6.6 27.3-11q0.2-0.1 0.4-0.1 0.5-0.3 1-0.6 1-0.5 1.9-1c1.8-0.9 2.6-2.8 2.3-4.6q-0.1-0.6-0.4-1.3c-1.1-2.1-3.8-2.9-5.9-1.8-11 5.8-22.6 10.4-34.7 13.7-59.8 16.6-121.1 0-164.1-38.7-24-21.6-42.3-49.9-51.5-83.2q-2.4-8.7-3.9-17.6c-6.8-39.6 0.1-80 20.2-115.4 23-40.8 60.5-70.1 105.6-82.6 93.1-25.8 189.8 28.8 215.6 121.9q2.4 8.6 3.9 17.4c4.3 25.2 3.1 51.2-3.8 75.9q-0.2 1 0 1.9c0.2 1.6 1.4 3 3.1 3.5 2.3 0.6 4.7-0.8 5.4-3.1 7.1-26 8.4-53.2 3.9-79.7q-1.6-9.2-4.1-18.2c-27.1-97.7-128.7-155.1-226.3-128-47.4 13.1-86.7 43.9-110.9 86.7-21.1 37.2-28.4 79.6-21.3 121.2q1.6 9.3 4.2 18.4c13.1 47.4 43.9 86.7 86.7 110.9 37.2 21.1 79.6 28.4 121.2 21.2z"/>
					</g>
				</g>
				<g>
					<g style="opacity: .3">
						<path class="s51" d="m1946.9 2997.1c2.8-0.5 5.2-2.8 5.5-5.8 0.7-5.7 1.2-11.5 1.5-17.2 0.2-3.7-2.6-6.9-6.4-7.1-3.7-0.2-6.8 2.6-7.1 6.3-0.3 5.5-0.7 11-1.4 16.4-0.4 3.7 2.3 7 6 7.5q0.9 0.1 1.9-0.1z"/>
						<path class="s52" d="m1947.4 2945.4c-3.7 0.3-6.9-2.5-7.2-6.2-0.6-9.4-1.7-18.9-3.3-28.1q-0.5-2.9-1.1-5.9c-0.7-3.6 1.7-7.1 5.3-7.8 3.5-0.6 7.2 1.6 7.9 5.3q0.6 3.1 1.2 6.1c1.6 9.7 2.8 19.6 3.5 29.4 0.2 3.5-2.2 6.6-5.6 7.1q-0.3 0.1-0.7 0.1zm-20.1-73.3c-3.5-10.8-7.7-21.5-12.5-31.8-1.6-3.4-0.1-7.4 3.3-8.9 3.3-1.6 7.3-0.2 8.9 3.2 5 10.8 9.4 22 13.1 33.4 1.1 3.5-0.8 7.3-4.3 8.5q-0.5 0.1-1 0.2c-3.2 0.5-6.5-1.4-7.5-4.6zm-28.8-61.8c-6.1-9.7-12.8-19-20-27.8-2.3-2.9-1.9-7.2 1-9.5 2.9-2.4 7.1-1.9 9.4 1 7.6 9.2 14.6 19 21 29.1 1.9 3.1 1 7.3-2.2 9.3q-1.1 0.7-2.4 0.9c-2.6 0.5-5.4-0.7-6.8-3zm-43.2-52.9c-8.2-7.9-17-15.3-26.1-22.1-3-2.2-3.6-6.4-1.4-9.4 2.2-3 6.4-3.6 9.4-1.4 9.6 7.1 18.8 14.9 27.4 23.1 2.7 2.6 2.8 6.9 0.2 9.6-1 1-2.3 1.7-3.7 1.9-2 0.4-4.2-0.2-5.8-1.7zm-54.8-40.8c-9.9-5.6-20.2-10.7-30.7-15-3.4-1.5-5-5.4-3.6-8.8 1.4-3.5 5.4-5.1 8.8-3.7 11 4.6 21.8 9.9 32.2 15.8 3.2 1.8 4.4 6 2.5 9.2-1 1.8-2.8 3-4.7 3.3-1.5 0.2-3.1 0-4.5-0.8zm-63-26.2c-10.9-3.1-22.1-5.4-33.4-7.1-3.6-0.6-6.2-4-5.6-7.7 0.5-3.6 3.9-6.2 7.6-5.6 11.8 1.7 23.6 4.2 35 7.4 3.6 1 5.7 4.7 4.7 8.3-0.7 2.6-2.8 4.4-5.3 4.8-1 0.2-2 0.2-3-0.1zm-67.4-10c-11.4-0.3-22.8 0.2-34.2 1.3-3.7 0.4-7-2.3-7.4-6-0.3-3.7 2.4-7 6.1-7.4 11.9-1.2 23.9-1.7 35.8-1.4 3.7 0.1 6.6 3.2 6.6 6.9-0.1 3.3-2.5 5.9-5.6 6.5q-0.7 0.1-1.3 0.1zm-109.4 12.4c-1.2-3.5 0.6-7.4 4.1-8.7 9.7-3.4 19.7-6.5 29.8-8.9q2.3-0.6 4.6-1.1c3.6-0.9 7.2 1.4 8 5.1 0.9 3.6-1.4 7.2-5 8q-2.2 0.5-4.4 1.1c-9.6 2.3-19.2 5.2-28.5 8.5q-0.5 0.2-1.1 0.3c-3.2 0.6-6.4-1.2-7.5-4.3z"/>
					</g>
					<g style="opacity: .3">
						<path class="s53" d="m1708.6 3245c-11.6 1.9-23.4 3-35 3.4-3.8 0.2-6.9-2.7-7-6.5-0.2-3.7 2.8-6.8 6.5-6.9 11.1-0.4 22.4-1.5 33.4-3.3 3.7-0.5 7.2 2 7.7 5.6 0.6 3.7-1.8 7.1-5.5 7.7q0 0-0.1 0zm26.2-12.2c-1-3.6 1-7.3 4.6-8.3 10.8-3.1 21.4-6.8 31.8-11.1 3.4-1.5 7.3 0.1 8.8 3.6 1.4 3.4-0.2 7.3-3.6 8.8-10.8 4.5-22 8.4-33.3 11.6q-0.4 0.1-0.7 0.2c-3.4 0.6-6.7-1.5-7.6-4.8zm-96.5 14.7c-11.7-1-23.4-2.7-34.9-5.1-3.6-0.8-6-4.4-5.2-8 0.8-3.7 4.3-6 8-5.2 10.9 2.3 22.1 3.9 33.3 4.9 3.7 0.4 6.4 3.6 6.1 7.3-0.3 3.1-2.6 5.6-5.6 6.1q-0.8 0.1-1.7 0zm160.5-39.8c-1.8-3.3-0.7-7.4 2.5-9.2 9.7-5.6 19.2-11.8 28.1-18.5 3-2.2 7.2-1.6 9.5 1.4 2.2 3 1.6 7.2-1.4 9.4-9.4 7-19.3 13.5-29.5 19.4q-1.1 0.6-2.2 0.8c-2.7 0.4-5.5-0.8-7-3.3zm-229.4 25.3c-11-3.8-22-8.3-32.6-13.5-3.3-1.6-4.7-5.6-3.1-9 1.6-3.3 5.7-4.7 9-3.1 10.1 4.9 20.5 9.2 31.1 12.8 3.5 1.2 5.4 5.1 4.2 8.6-0.8 2.4-2.9 4-5.2 4.4-1.1 0.2-2.3 0.1-3.4-0.2zm-63.3-30.7c-9.9-6.4-19.4-13.4-28.5-20.8-2.8-2.4-3.2-6.6-0.8-9.5 2.3-2.9 6.6-3.3 9.4-0.9 8.6 7.1 17.8 13.8 27.2 19.9 3.1 2 4 6.2 2 9.3-1.1 1.6-2.7 2.7-4.5 3-1.6 0.3-3.3 0-4.8-1zm-54.2-45c-8.1-8.5-15.7-17.6-22.6-27-2.2-3-1.6-7.2 1.4-9.4 3-2.2 7.2-1.6 9.4 1.4 6.6 9 13.9 17.7 21.6 25.8 2.5 2.7 2.4 7-0.3 9.5-1 1-2.2 1.5-3.5 1.8-2.1 0.3-4.4-0.4-6-2.1z"/>
						<path class="s54" d="m1861.1 3169.6c1.3-0.3 2.5-0.8 3.6-1.8 4.1-4 8.2-8.1 12-12.3 2.5-2.7 2.4-7-0.3-9.5-2.8-2.5-7-2.4-9.6 0.4-3.6 3.9-7.5 7.9-11.5 11.7-2.7 2.6-2.7 6.8-0.2 9.5 1.6 1.7 3.9 2.3 6 2z"/>
					</g>
					<g>
						<path class="s55" d="m1865.4 3041.4c0.7-1.2 0.6-2.8-0.4-3.9l-27.5-31.1c5.4-18.6 7.9-38.2 7.1-58.1l34.2-23.5c1.2-0.8 1.7-2.3 1.3-3.7l-13.3-48c-0.4-1.4-1.6-2.4-3-2.5l-41.4-2.5c-9.6-17.5-21.9-33-36.1-46.2l7.5-40.8c0.3-1.4-0.4-2.8-1.7-3.6l-43.3-24.5c-1.3-0.7-2.9-0.5-3.9 0.5l-31.1 27.4c-18.6-5.4-38.2-7.9-58.2-7.1l-23.5-34.1c-0.8-1.2-2.3-1.8-3.7-1.4l-48 13.3c-1.4 0.4-2.4 1.6-2.5 3.1l-2.5 41.4c-17.5 9.6-33 21.8-46.1 36.1l-40.8-7.6c-1.5-0.2-2.9 0.5-3.6 1.7l-24.5 43.4c-0.7 1.2-0.6 2.8 0.4 3.9l27.5 31.1c-5.4 18.6-8 38.2-7.1 58.1l-34.2 23.5c-1.2 0.9-1.7 2.3-1.4 3.7l13.4 48c0.3 1.4 1.6 2.4 3 2.5l41.4 2.5c9.6 17.5 21.9 33 36.1 46.2l-7.5 40.8c-0.3 1.4 0.4 2.8 1.7 3.6l43.3 24.5c1.3 0.7 2.8 0.5 3.9-0.5l31.1-27.4c18.6 5.4 38.2 7.9 58.2 7.1l23.5 34.2c0.8 1.1 2.3 1.7 3.7 1.3l48-13.3c1.4-0.4 2.4-1.6 2.4-3.1l2.6-41.4c17.5-9.6 33-21.8 46.1-36.1l40.8 7.6c1.5 0.2 2.9-0.5 3.6-1.7z"/>
						<path class="s50" d="m1664.1 3006.5c-13.6 0.3-26.5-4.7-36.4-14.1-9.8-9.4-15.4-22-15.7-35.6-0.7-28.1 21.6-51.5 49.7-52.2 28.1-0.6 51.5 21.7 52.1 49.7 0.3 13.6-4.7 26.6-14 36.4-7.7 8-17.5 13.2-28.2 15q-3.7 0.7-7.5 0.8zm-38.7-50.1c0.3 10 4.4 19.4 11.6 26.3 7.3 6.9 16.8 10.5 26.8 10.3 10-0.2 19.3-4.3 26.2-11.6 6.9-7.2 10.6-16.7 10.4-26.7-0.5-20.7-17.7-37.1-38.4-36.6q-2.8 0.1-5.5 0.5c-18 3.1-31.5 19-31.1 37.8z"/>
						<path class="s50" d="m1683.4 3080q6.3-1.1 12.6-2.8c8.3-2.3 16.4-5.5 24-9.4q0.6-0.3 1.1-0.6c2.6-1.3 4-4.2 3.5-7q-0.2-1.1-0.7-2c-1.7-3.3-5.8-4.6-9.1-2.9-7.1 3.8-14.7 6.7-22.4 8.9q-0.7 0.2-1.3 0.3c-18.5 5-37.5 5.1-55.5 0.8-9.9-2.4-19.4-6.1-28.5-11.1q-0.1-0.1-0.2-0.2-0.3-0.2-0.7-0.3c-26.3-15-45.3-39.2-53.4-68.4q-1.6-5.7-2.6-11.4c-4.4-25.6 0.1-51.8 13.1-74.7 14.9-26.4 39.2-45.4 68.4-53.5 29.1-8.1 59.8-4.3 86.1 10.6 26.4 14.9 45.4 39.1 53.5 68.3q1.5 5.6 2.5 11.3c2.8 16.3 2 33.1-2.4 49.1q-0.4 1.5-0.2 2.9c0.4 2.5 2.3 4.7 4.9 5.4 3.5 1 7.3-1.1 8.2-4.7 5-17.9 5.9-36.7 2.8-55q-1.1-6.4-2.9-12.6c-9-32.6-30.3-59.8-59.8-76.5-29.5-16.6-63.7-20.9-96.3-11.8-32.7 9.1-59.8 30.3-76.5 59.8-14.5 25.7-19.6 55-14.7 83.7q1.1 6.3 2.9 12.7c17.5 63.2 80.3 102 143.6 91.1z"/>
					</g>
				</g>
				<g>
					<g style="opacity: .3">
						<path class="s56" d="m679.8 2137.7c-1.9-1.4-4.5-1.4-6.4 0.1-3.6 2.7-7.1 5.7-10.5 8.6-2.2 2-2.4 5.3-0.5 7.5 1.9 2.3 5.3 2.5 7.5 0.5 3.3-2.8 6.6-5.6 10-8.2 2.4-1.8 2.8-5.2 1-7.5q-0.5-0.6-1.1-1z"/>
						<path class="s57" d="m650.3 2166c2.2 1.9 2.4 5.3 0.4 7.5-4.9 5.5-9.6 11.4-14 17.4q-1.3 1.9-2.7 3.8c-1.7 2.5-5 3.1-7.4 1.4-2.2-1.7-3-5-1.3-7.4q1.4-2.1 2.8-4c4.6-6.3 9.5-12.5 14.7-18.3 1.8-2.1 4.9-2.4 7.1-0.8q0.2 0.2 0.4 0.4zm-30.3 51.9c-4.2 8-7.9 16.3-11 24.6-1.1 2.8-4.2 4.2-6.9 3.2-2.7-1.1-4.2-4.1-3.1-6.9 3.3-8.8 7.2-17.5 11.6-25.9 1.3-2.6 4.6-3.6 7.2-2.2q0.3 0.2 0.6 0.4c2.1 1.5 2.9 4.4 1.6 6.8zm-19 50.5c-2.1 8.7-3.6 17.7-4.6 26.6-0.4 3-3 5.1-5.9 4.7-3-0.3-5.1-2.9-4.7-5.8 1-9.4 2.7-18.8 4.9-28 0.7-2.8 3.5-4.6 6.4-3.9q1 0.2 1.9 0.8c1.7 1.3 2.5 3.4 2 5.6zm-6 53.7c0.1 8.9 0.8 18 2 26.9 0.4 2.9-1.6 5.6-4.5 6-2.9 0.4-5.6-1.6-6-4.5-1.3-9.4-2-18.9-2.1-28.3-0.1-3 2.3-5.4 5.2-5.4 1.2 0 2.3 0.4 3.2 1 1.3 1 2.2 2.5 2.2 4.3zm7.3 53.4c2.3 8.7 5.2 17.4 8.5 25.7 1.1 2.7-0.2 5.8-3 6.9-2.7 1.1-5.8-0.2-6.9-2.9-3.5-8.8-6.5-17.8-8.9-26.9-0.7-2.9 1-5.8 3.8-6.6 1.6-0.4 3.2 0 4.5 0.9 0.9 0.7 1.7 1.7 2 2.9zm20 50.1c4.4 7.9 9.3 15.6 14.5 22.8 1.8 2.4 1.2 5.7-1.2 7.5-2.3 1.7-5.7 1.2-7.4-1.2-5.5-7.6-10.6-15.7-15.2-23.9-1.4-2.6-0.5-5.8 2.1-7.3 1.9-1 4.1-0.8 5.7 0.4q0.9 0.7 1.5 1.7zm31.7 43.7c6.1 6.5 12.7 12.8 19.7 18.5 2.2 1.9 2.5 5.3 0.6 7.5-1.8 2.3-5.2 2.6-7.5 0.7-7.2-6-14.1-12.6-20.6-19.4-2-2.2-1.9-5.6 0.3-7.6 1.9-1.7 4.7-1.9 6.7-0.4q0.5 0.3 0.8 0.7zm67.5 54.9c-1.3 2.7-4.4 3.8-7.1 2.5-7.3-3.6-14.6-7.6-21.6-11.9q-1.5-1-3.1-2c-2.5-1.5-3.2-4.9-1.6-7.4 1.6-2.4 4.9-3.1 7.4-1.5q1.4 0.9 3 1.8c6.6 4.2 13.6 8 20.5 11.4q0.5 0.2 0.9 0.5c2 1.5 2.8 4.2 1.6 6.6z"/>
					</g>
					<g style="opacity: .3">
						<path class="s58" d="m951.7 2135.1c7.4 5.5 14.6 11.5 21.3 17.9 2.1 2 2.2 5.4 0.2 7.5-2 2.2-5.4 2.2-7.5 0.2-6.4-6.1-13.3-11.8-20.4-17.1-2.4-1.7-2.8-5.1-1.1-7.4 1.7-2.4 5-2.9 7.4-1.2q0 0 0.1 0.1zm-21.4-8c-1.5 2.5-4.7 3.4-7.3 2-7.7-4.4-15.7-8.4-23.8-11.8-2.7-1.2-4-4.3-2.9-7 1.2-2.7 4.3-4 7-2.8 8.6 3.6 17 7.7 25 12.3q0.3 0.1 0.5 0.3c2.2 1.6 2.9 4.6 1.5 7zm61.7 46.3c5.9 7.2 11.4 14.8 16.4 22.6 1.5 2.5 0.8 5.8-1.7 7.3-2.4 1.6-5.7 0.9-7.3-1.6-4.8-7.4-10-14.7-15.6-21.5-1.9-2.3-1.6-5.7 0.7-7.5 1.9-1.6 4.6-1.6 6.5-0.2q0.6 0.4 1 0.9zm-111.3-68.6c-0.8 2.8-3.8 4.5-6.6 3.7-8.5-2.4-17.3-4.4-26-5.7-2.9-0.5-4.9-3.2-4.5-6.1 0.5-2.9 3.2-4.9 6.1-4.4 9.2 1.4 18.4 3.4 27.3 5.9q0.9 0.3 1.7 0.8c1.7 1.3 2.6 3.6 2 5.8zm141.2 115.6c4 8.3 7.5 17 10.4 25.8 1 2.8-0.5 5.8-3.3 6.8-2.8 0.9-5.8-0.6-6.8-3.4-2.8-8.4-6.1-16.7-10-24.6-1.2-2.7-0.1-5.9 2.6-7.1 1.8-0.9 3.9-0.7 5.4 0.4 0.7 0.6 1.3 1.2 1.7 2.1zm17.7 52.7c1.9 9.1 3.2 18.4 4 27.6 0.2 3-2 5.5-4.9 5.8-2.9 0.2-5.5-2-5.7-4.9-0.8-8.8-2.1-17.7-3.8-26.3-0.6-2.9 1.2-5.7 4.1-6.3 1.5-0.3 3 0 4.2 0.9 1 0.7 1.8 1.9 2.1 3.2zm4.6 55.5c-0.4 9.3-1.3 18.6-2.8 27.8-0.5 2.9-3.2 4.8-6.1 4.4-2.9-0.5-4.9-3.2-4.4-6.1 1.4-8.7 2.3-17.6 2.6-26.5 0.2-2.9 2.6-5.2 5.6-5.1 1.1 0 2.1 0.4 2.9 1 1.4 1 2.3 2.7 2.2 4.5z"/>
						<path class="s59" d="m824.7 2090.7c-0.9-0.6-1.9-1-3-1-4.6-0.2-9.1-0.2-13.6-0.1-3 0.1-5.3 2.6-5.2 5.5 0.1 2.9 2.5 5.3 5.5 5.2 4.3-0.1 8.6-0.1 13 0 2.9 0.1 5.4-2.2 5.5-5.1 0-1.9-0.9-3.5-2.2-4.5z"/>
					</g>
					<g>
						<path class="s60" d="m749.9 2159.2c-1.1 0.2-1.9 1.2-2 2.4l-2.3 32.7c-13.6 7.2-26 16.6-36.8 28.1l-32.2-6.3c-1.1-0.2-2.3 0.3-2.9 1.3l-19.7 34.1c-0.6 1-0.4 2.2 0.3 3.1l21.5 24.8c-4.6 15.1-6.6 30.6-6.1 45.9l-27.2 18.3c-1 0.7-1.4 1.9-1.1 3l10.1 38c0.3 1.1 1.3 1.9 2.4 2l32.8 2.3c7.2 13.6 16.6 26 28.1 36.8l-6.3 32.2c-0.2 1.2 0.3 2.3 1.3 2.9l34.1 19.7c1 0.6 2.2 0.5 3.1-0.3l24.8-21.5c15.1 4.6 30.6 6.6 45.9 6.1l18.3 27.2c0.6 1 1.8 1.4 2.9 1.1l38.1-10.1c1.1-0.3 1.9-1.3 2-2.4l2.3-32.7c13.5-7.3 26-16.7 36.8-28.2l32.2 6.3c1.1 0.2 2.3-0.3 2.8-1.3l19.8-34c0.5-1 0.4-2.3-0.3-3.2l-21.5-24.7c4.6-15.1 6.6-30.6 6.1-46l27.2-18.3c1-0.6 1.4-1.8 1.1-2.9l-10.1-38.1c-0.3-1.1-1.3-1.9-2.4-1.9l-32.8-2.4c-7.2-13.5-16.6-26-28.1-36.8l6.3-32.2c0.2-1.1-0.3-2.2-1.3-2.8l-34.1-19.7c-1-0.6-2.2-0.5-3.1 0.3l-24.8 21.4c-15.1-4.6-30.6-6.5-45.9-6.1l-18.3-27.2c-0.7-0.9-1.8-1.4-3-1.1z"/>
						<path class="s50" d="m841.5 2292.2c7.8 7.5 12.1 17.6 12.2 28.3 0.2 10.8-3.9 21-11.4 28.7-15.5 15.9-41 16.2-57 0.7-15.9-15.5-16.2-41-0.7-56.9 7.5-7.7 17.5-12.1 28.3-12.2 8.8-0.1 17.1 2.6 24.1 7.6q2.4 1.7 4.5 3.8zm-6.8 49.6c5.5-5.7 8.5-13.2 8.4-21.1-0.1-7.9-3.3-15.3-9-20.8-5.7-5.6-13.1-8.5-21.1-8.4-7.9 0.1-15.3 3.2-20.8 8.9-11.4 11.7-11.1 30.5 0.6 41.9q1.6 1.5 3.3 2.8c11.7 8.5 28.2 7.3 38.6-3.3z"/>
						<path class="s50" d="m872.4 2240.7q-4.1-3-8.5-5.6c-6-3.4-12.2-6.2-18.7-8.4q-0.4-0.1-0.8-0.3c-2.3-0.7-4.7 0.1-6 2q-0.5 0.6-0.8 1.4c-0.9 2.8 0.7 5.8 3.5 6.7 6 2 11.9 4.6 17.4 7.8q0.5 0.3 0.9 0.5c13 7.7 23.6 18.4 31.1 31 4.1 6.9 7.3 14.3 9.5 22.2q0 0.1 0.1 0.2 0 0.3 0.1 0.6c6.2 23.1 3 47.3-9 68q-2.4 4.1-5 7.8c-12.1 16.6-29.4 28.6-49.5 33.9-23.2 6.2-47.3 3-68-9-20.7-12-35.6-31.4-41.7-54.5-6.2-23.1-3-47.3 9-68q2.3-4 5-7.7c7.6-10.6 17.6-19.4 29.1-25.8q1-0.6 1.7-1.5c1.2-1.7 1.4-3.9 0.3-5.7-1.4-2.6-4.6-3.5-7.2-2.1-12.9 7.1-24 17-32.6 28.9q-2.9 4.1-5.5 8.5c-13.4 23.2-17 50.2-10.1 76.1 6.9 25.9 23.4 47.6 46.6 61 23.2 13.4 50.2 17 76.1 10.1 22.6-6 41.9-19.3 55.4-38q3-4.1 5.6-8.6c26-44.9 13.2-101.8-28-131.5z"/>
					</g>
				</g>
			</g>
		</g>
	</g>
</svg>