<svg xmlns="http://www.w3.org/2000/svg" data-name="Layer 1" height="300" id="Layer_1" viewBox="0 0 128 128" width="300" version="1.1" xmlns:xlink="http://www.w3.org/1999/xlink" xmlns:svgjs="http://svgjs.dev/svgjs"><g width="100%" height="100%" transform="matrix(1,0,0,1,0,0)"><title/><path d="M22.999,67.998H16.99951a2,2,0,0,0,0,4H22.999a2,2,0,1,0,0-4Z" fill="#009dc9" fill-opacity="1" data-original-color="#000000ff" stroke="none" stroke-opacity="1"/><path d="M22.999,76.00293H16.99951a2,2,0,0,0,0,4H22.999a2,2,0,1,0,0-4Z" fill="#009dc9" fill-opacity="1" data-original-color="#000000ff" stroke="none" stroke-opacity="1"/><path d="M22.999,84.0083H16.99951a2,2,0,0,0,0,4H22.999a2,2,0,1,0,0-4Z" fill="#009dc9" fill-opacity="1" data-original-color="#000000ff" stroke="none" stroke-opacity="1"/><path d="M22.999,92.01318H16.99951a2,2,0,0,0,0,4H22.999a2,2,0,1,0,0-4Z" fill="#009dc9" fill-opacity="1" data-original-color="#000000ff" stroke="none" stroke-opacity="1"/><path d="M22.999,100.01807H16.99951a2,2,0,0,0,0,4H22.999a2,2,0,1,0,0-4Z" fill="#009dc9" fill-opacity="1" data-original-color="#000000ff" stroke="none" stroke-opacity="1"/><path d="M22.999,108.02344H16.99951a2,2,0,0,0,0,4H22.999a2,2,0,1,0,0-4Z" fill="#009dc9" fill-opacity="1" data-original-color="#000000ff" stroke="none" stroke-opacity="1"/><path d="M22.999,116.02832H16.99951a2,2,0,0,0,0,4H22.999a2,2,0,0,0,0-4Z" fill="#009dc9" fill-opacity="1" data-original-color="#000000ff" stroke="none" stroke-opacity="1"/><path d="M28,124H10a2.002,2.002,0,0,1-2-2V66.43066A2.43334,2.43334,0,0,1,10.43066,64H28V60H10.43066A6.43792,6.43792,0,0,0,4,66.43066V122a6.00656,6.00656,0,0,0,6,6H28.34882A5.97555,5.97555,0,0,1,28,126Z" fill="#009dc9" fill-opacity="1" data-original-color="#000000ff" stroke="none" stroke-opacity="1"/><path d="M117.57031,60H100v4h17.57031A2.4323,2.4323,0,0,1,120,66.42969V122a2.002,2.002,0,0,1-2,2H100v2a5.97555,5.97555,0,0,1-.34882,2H118a6.00656,6.00656,0,0,0,6-6V66.42969A6.43688,6.43688,0,0,0,117.57031,60Z" fill="#009dc9" fill-opacity="1" data-original-color="#000000ff" stroke="none" stroke-opacity="1"/><path d="M90.01709,0H37.98291A5.99824,5.99824,0,0,0,32,6V126a2.0001,2.0001,0,0,0,2,2H94a2.0001,2.0001,0,0,0,2-2V6A5.99824,5.99824,0,0,0,90.01709,0ZM46,124V84.23584A2.30528,2.30528,0,0,1,48.36426,82H79.63574A2.30528,2.30528,0,0,1,82,84.23584V124Zm46,0H86V84.23584A6.30814,6.30814,0,0,0,79.63574,78H48.36426A6.30814,6.30814,0,0,0,42,84.23584V124H36V6a1.9937,1.9937,0,0,1,1.98291-2H90.01709A1.9937,1.9937,0,0,1,92,6Z" fill="#009dc9" fill-opacity="1" data-original-color="#000000ff" stroke="none" stroke-opacity="1"/><path d="M44,8a2.0001,2.0001,0,0,0-2,2v6a2,2,0,0,0,4,0V10A2.0001,2.0001,0,0,0,44,8Z" fill="#009dc9" fill-opacity="1" data-original-color="#000000ff" stroke="none" stroke-opacity="1"/><path d="M52,8a2.0001,2.0001,0,0,0-2,2v6a2,2,0,0,0,4,0V10A2.0001,2.0001,0,0,0,52,8Z" fill="#009dc9" fill-opacity="1" data-original-color="#000000ff" stroke="none" stroke-opacity="1"/><path d="M60,8a2.0001,2.0001,0,0,0-2,2v6a2,2,0,0,0,4,0V10A2.0001,2.0001,0,0,0,60,8Z" fill="#009dc9" fill-opacity="1" data-original-color="#000000ff" stroke="none" stroke-opacity="1"/><path d="M68,8a2.0001,2.0001,0,0,0-2,2v6a2,2,0,0,0,4,0V10A2.0001,2.0001,0,0,0,68,8Z" fill="#009dc9" fill-opacity="1" data-original-color="#000000ff" stroke="none" stroke-opacity="1"/><path d="M76,8a2.0001,2.0001,0,0,0-2,2v6a2,2,0,0,0,4,0V10A2.0001,2.0001,0,0,0,76,8Z" fill="#009dc9" fill-opacity="1" data-original-color="#000000ff" stroke="none" stroke-opacity="1"/><path d="M84,8a2.0001,2.0001,0,0,0-2,2v6a2,2,0,0,0,4,0V10A2.0001,2.0001,0,0,0,84,8Z" fill="#009dc9" fill-opacity="1" data-original-color="#000000ff" stroke="none" stroke-opacity="1"/><path d="M44,22.00879a2.0001,2.0001,0,0,0-2,2v6a2,2,0,1,0,4,0v-6A2.0001,2.0001,0,0,0,44,22.00879Z" fill="#009dc9" fill-opacity="1" data-original-color="#000000ff" stroke="none" stroke-opacity="1"/><path d="M52,22.00879a2.0001,2.0001,0,0,0-2,2v6a2,2,0,0,0,4,0v-6A2.0001,2.0001,0,0,0,52,22.00879Z" fill="#009dc9" fill-opacity="1" data-original-color="#000000ff" stroke="none" stroke-opacity="1"/><path d="M60,22.00879a2.0001,2.0001,0,0,0-2,2v6a2,2,0,0,0,4,0v-6A2.0001,2.0001,0,0,0,60,22.00879Z" fill="#009dc9" fill-opacity="1" data-original-color="#000000ff" stroke="none" stroke-opacity="1"/><path d="M68,22.00879a2.0001,2.0001,0,0,0-2,2v6a2,2,0,0,0,4,0v-6A2.0001,2.0001,0,0,0,68,22.00879Z" fill="#009dc9" fill-opacity="1" data-original-color="#000000ff" stroke="none" stroke-opacity="1"/><path d="M76,22.00879a2.0001,2.0001,0,0,0-2,2v6a2,2,0,0,0,4,0v-6A2.0001,2.0001,0,0,0,76,22.00879Z" fill="#009dc9" fill-opacity="1" data-original-color="#000000ff" stroke="none" stroke-opacity="1"/><path d="M84,22.00879a2.0001,2.0001,0,0,0-2,2v6a2,2,0,0,0,4,0v-6A2.0001,2.0001,0,0,0,84,22.00879Z" fill="#009dc9" fill-opacity="1" data-original-color="#000000ff" stroke="none" stroke-opacity="1"/><path d="M44,36.01758a2.0001,2.0001,0,0,0-2,2v6a2,2,0,1,0,4,0v-6A2.0001,2.0001,0,0,0,44,36.01758Z" fill="#009dc9" fill-opacity="1" data-original-color="#000000ff" stroke="none" stroke-opacity="1"/><path d="M52,36.01758a2.0001,2.0001,0,0,0-2,2v6a2,2,0,1,0,4,0v-6A2.0001,2.0001,0,0,0,52,36.01758Z" fill="#009dc9" fill-opacity="1" data-original-color="#000000ff" stroke="none" stroke-opacity="1"/><path d="M60,36.01758a2.0001,2.0001,0,0,0-2,2v6a2,2,0,1,0,4,0v-6A2.0001,2.0001,0,0,0,60,36.01758Z" fill="#009dc9" fill-opacity="1" data-original-color="#000000ff" stroke="none" stroke-opacity="1"/><path d="M68,36.01758a2.0001,2.0001,0,0,0-2,2v6a2,2,0,1,0,4,0v-6A2.0001,2.0001,0,0,0,68,36.01758Z" fill="#009dc9" fill-opacity="1" data-original-color="#000000ff" stroke="none" stroke-opacity="1"/><path d="M76,36.01758a2.0001,2.0001,0,0,0-2,2v6a2,2,0,1,0,4,0v-6A2.0001,2.0001,0,0,0,76,36.01758Z" fill="#009dc9" fill-opacity="1" data-original-color="#000000ff" stroke="none" stroke-opacity="1"/><path d="M84,36.01758a2.0001,2.0001,0,0,0-2,2v6a2,2,0,1,0,4,0v-6A2.0001,2.0001,0,0,0,84,36.01758Z" fill="#009dc9" fill-opacity="1" data-original-color="#000000ff" stroke="none" stroke-opacity="1"/><path d="M44,50.02637a2.0001,2.0001,0,0,0-2,2v6a2,2,0,0,0,4,0v-6A2.0001,2.0001,0,0,0,44,50.02637Z" fill="#009dc9" fill-opacity="1" data-original-color="#000000ff" stroke="none" stroke-opacity="1"/><path d="M52,50.02637a2.0001,2.0001,0,0,0-2,2v6a2,2,0,0,0,4,0v-6A2.0001,2.0001,0,0,0,52,50.02637Z" fill="#009dc9" fill-opacity="1" data-original-color="#000000ff" stroke="none" stroke-opacity="1"/><path d="M60,50.02637a2.0001,2.0001,0,0,0-2,2v6a2,2,0,0,0,4,0v-6A2.0001,2.0001,0,0,0,60,50.02637Z" fill="#009dc9" fill-opacity="1" data-original-color="#000000ff" stroke="none" stroke-opacity="1"/><path d="M68,50.02637a2.0001,2.0001,0,0,0-2,2v6a2,2,0,0,0,4,0v-6A2.0001,2.0001,0,0,0,68,50.02637Z" fill="#009dc9" fill-opacity="1" data-original-color="#000000ff" stroke="none" stroke-opacity="1"/><path d="M76,50.02637a2.0001,2.0001,0,0,0-2,2v6a2,2,0,0,0,4,0v-6A2.0001,2.0001,0,0,0,76,50.02637Z" fill="#009dc9" fill-opacity="1" data-original-color="#000000ff" stroke="none" stroke-opacity="1"/><path d="M84,50.02637a2.0001,2.0001,0,0,0-2,2v6a2,2,0,0,0,4,0v-6A2.0001,2.0001,0,0,0,84,50.02637Z" fill="#009dc9" fill-opacity="1" data-original-color="#000000ff" stroke="none" stroke-opacity="1"/><path d="M44,64.03516a2.0001,2.0001,0,0,0-2,2v6a2,2,0,0,0,4,0v-6A2.0001,2.0001,0,0,0,44,64.03516Z" fill="#009dc9" fill-opacity="1" data-original-color="#000000ff" stroke="none" stroke-opacity="1"/><path d="M52,64.03516a2.0001,2.0001,0,0,0-2,2v6a2,2,0,0,0,4,0v-6A2.0001,2.0001,0,0,0,52,64.03516Z" fill="#009dc9" fill-opacity="1" data-original-color="#000000ff" stroke="none" stroke-opacity="1"/><path d="M60,64.03516a2.0001,2.0001,0,0,0-2,2v6a2,2,0,0,0,4,0v-6A2.0001,2.0001,0,0,0,60,64.03516Z" fill="#009dc9" fill-opacity="1" data-original-color="#000000ff" stroke="none" stroke-opacity="1"/><path d="M68,64.03516a2.0001,2.0001,0,0,0-2,2v6a2,2,0,0,0,4,0v-6A2.0001,2.0001,0,0,0,68,64.03516Z" fill="#009dc9" fill-opacity="1" data-original-color="#000000ff" stroke="none" stroke-opacity="1"/><path d="M76,64.03516a2.0001,2.0001,0,0,0-2,2v6a2,2,0,0,0,4,0v-6A2.0001,2.0001,0,0,0,76,64.03516Z" fill="#009dc9" fill-opacity="1" data-original-color="#000000ff" stroke="none" stroke-opacity="1"/><path d="M84,64.03516a2.0001,2.0001,0,0,0-2,2v6a2,2,0,0,0,4,0v-6A2.0001,2.0001,0,0,0,84,64.03516Z" fill="#009dc9" fill-opacity="1" data-original-color="#000000ff" stroke="none" stroke-opacity="1"/><path d="M105.05615,71.998h6a2,2,0,1,0,0-4h-6a2,2,0,0,0,0,4Z" fill="#009dc9" fill-opacity="1" data-original-color="#000000ff" stroke="none" stroke-opacity="1"/><path d="M105.05615,80.00293h6a2,2,0,0,0,0-4h-6a2,2,0,1,0,0,4Z" fill="#009dc9" fill-opacity="1" data-original-color="#000000ff" stroke="none" stroke-opacity="1"/><path d="M105.05615,88.0083h6a2,2,0,0,0,0-4h-6a2,2,0,0,0,0,4Z" fill="#009dc9" fill-opacity="1" data-original-color="#000000ff" stroke="none" stroke-opacity="1"/><path d="M105.05615,96.01318h6a2,2,0,0,0,0-4h-6a2,2,0,0,0,0,4Z" fill="#009dc9" fill-opacity="1" data-original-color="#000000ff" stroke="none" stroke-opacity="1"/><path d="M105.05615,104.01807h6a2,2,0,0,0,0-4h-6a2,2,0,0,0,0,4Z" fill="#009dc9" fill-opacity="1" data-original-color="#000000ff" stroke="none" stroke-opacity="1"/><path d="M105.05615,112.02344h6a2,2,0,1,0,0-4h-6a2,2,0,0,0,0,4Z" fill="#009dc9" fill-opacity="1" data-original-color="#000000ff" stroke="none" stroke-opacity="1"/><path d="M105.05615,120.02832h6a2,2,0,0,0,0-4h-6a2,2,0,0,0,0,4Z" fill="#009dc9" fill-opacity="1" data-original-color="#000000ff" stroke="none" stroke-opacity="1"/><path d="M64,98a2.0001,2.0001,0,0,0-2,2v6a2,2,0,0,0,4,0v-6A2.0001,2.0001,0,0,0,64,98Z" fill="#009dc9" fill-opacity="1" data-original-color="#000000ff" stroke="none" stroke-opacity="1"/><path d="M101,35a8.00884,8.00884,0,0,1-1-.06946v4.0188c.33057.02747.66248.05066,1,.05066a12,12,0,1,0,0-24c-.33752,0-.66943.02319-1,.05066V19.0694A7.99688,7.99688,0,1,1,101,35Z" fill="#009dc9" fill-opacity="1" data-original-color="#000000ff" stroke="none" stroke-opacity="1"/><path d="M123.53027,20.832h-1.99072a21.29316,21.29316,0,0,0-1.65576-3.99219L121.29,15.43311a4.35312,4.35312,0,0,0,1.24707-3.34619,4.953,4.953,0,0,0-1.46484-3.19922l-1.96191-1.96a4.63668,4.63668,0,0,0-6.5376-.22119l-1.41357,1.41357a21.2302,21.2302,0,0,0-3.9917-1.6582V4.47266A4.63772,4.63772,0,0,0,102.39014,0H99.6123a5.00764,5.00764,0,0,0-1.45312.23395A9.94982,9.94982,0,0,1,99.79877,4h2.59137c.47461,0,.77734.27979.77734.47266V8.00928a2,2,0,0,0,1.57422,1.9541,17.28857,17.28857,0,0,1,5.65869,2.34912,1.99958,1.99958,0,0,0,2.49268-.27l2.50684-2.50635c.13135-.1333.55078-.11182.88184.22021l1.96241,1.96046c.18429.1843.46229.64472.21874.88671l-2.501,2.502a1.99992,1.99992,0,0,0-.27,2.4917,17.35855,17.35855,0,0,1,2.34668,5.66162,2.00041,2.00041,0,0,0,1.9541,1.57324h3.5376c.19141,0,.46973.30469.46973.78223v2.77148c0,.47852-.27832.78369-.46973.78369h-3.5376a1.99944,1.99944,0,0,0-1.95361,1.57275,17.3652,17.3652,0,0,1-2.34717,5.66064,1.99918,1.99918,0,0,0,.26953,2.49072l2.50482,2.50873c.23813.2385-.043.70233-.22162.88092l-1.96191,1.96143c-.33105.33154-.75.35059-.88281.21826l-2.50781-2.50342a1.99987,1.99987,0,0,0-2.48975-.27,17.41163,17.41163,0,0,1-5.6626,2.34766,1.99951,1.99951,0,0,0-1.57227,1.95361v3.53662c0,.19287-.30273.47266-.77734.47266H100v4h2.39014a4.63772,4.63772,0,0,0,4.77734-4.47266V47.53711a21.36212,21.36212,0,0,0,3.9917-1.65576l1.41357,1.41162a4.639,4.639,0,0,0,6.53662-.21826l1.96289-1.9624a4.95993,4.95993,0,0,0,1.47266-3.47656,4.29234,4.29234,0,0,0-1.25244-3.064l-1.40869-1.41113a21.317,21.317,0,0,0,1.65576-3.99121h1.99072A4.63985,4.63985,0,0,0,128,28.38574V25.61426A4.63915,4.63915,0,0,0,123.53027,20.832Z" fill="#009dc9" fill-opacity="1" data-original-color="#000000ff" stroke="none" stroke-opacity="1"/><path d="M27,19a8.00887,8.00887,0,0,1,1,.0694V15.05066C27.66943,15.02319,27.33752,15,27,15a12,12,0,1,0,0,24c.33752,0,.66943-.02319,1-.05066v-4.0188A7.99686,7.99686,0,1,1,27,19Z" fill="#009dc9" fill-opacity="1" data-original-color="#000000ff" stroke="none" stroke-opacity="1"/><path d="M25.6123,0a4.639,4.639,0,0,0-4.77979,4.47266V6.46191a21.29176,21.29176,0,0,0-3.99268,1.65869L15.42627,6.70508a4.64432,4.64432,0,0,0-6.53857.22217L6.9248,8.89063a4.65235,4.65235,0,0,0-.21826,6.543l1.41113,1.40771A21.21992,21.21992,0,0,0,6.46289,20.832H4.46973A4.63915,4.63915,0,0,0,0,25.61426v2.77148a4.63985,4.63985,0,0,0,4.46973,4.78369H6.46289a21.21736,21.21736,0,0,0,1.65527,3.99023l-1.4165,1.41406a4.64487,4.64487,0,0,0,.22461,6.53711l1.96582,1.96777a4.64311,4.64311,0,0,0,6.53467.21436l1.41309-1.41211a21.45161,21.45161,0,0,0,3.99268,1.65625v1.99023A4.639,4.639,0,0,0,25.6123,54H28V50H25.6123c-.47607,0-.77979-.27979-.77979-.47266V45.99072a1.99994,1.99994,0,0,0-1.57275-1.95361A17.48815,17.48815,0,0,1,17.59231,41.688a2.03287,2.03287,0,0,0-2.48782.27245l-2.50537,2.50342c-.13086.13135-.55371.11133-.88184-.2168L9.75684,42.28418c-.33789-.33838-.35645-.752-.2251-.88379L12.04053,38.896a1.99965,1.99965,0,0,0,.27-2.49561,17.289,17.289,0,0,1-2.34717-5.6582,1.99944,1.99944,0,0,0-1.95361-1.57275h-3.54c-.19141,0-.46973-.30518-.46973-.78369V25.61426c0-.47754.27832-.78223.46973-.78223h3.54a2.00041,2.00041,0,0,0,1.9541-1.57324,17.272,17.272,0,0,1,2.34668-5.65918,1.99978,1.99978,0,0,0-.271-2.49609l-2.502-2.49561c-.13672-.13721-.11865-.55322.21826-.89111l1.959-1.95947c.33789-.33789.749-.35645.8833-.22314L15.103,12.042a1.9996,1.9996,0,0,0,2.49121.272,17.36436,17.36436,0,0,1,5.66357-2.35059,1.99959,1.99959,0,0,0,1.57471-1.9541V4.47266c0-.19287.30371-.47266.77979-.47266h2.58893A9.9483,9.9483,0,0,1,29.84113.23358,5.00188,5.00188,0,0,0,28.39014,0Z" fill="#009dc9" fill-opacity="1" data-original-color="#000000ff" stroke="none" stroke-opacity="1"/></g></svg>