<svg version="1.2" xmlns="http://www.w3.org/2000/svg" viewBox="0 0 5000 4000" width="5000" height="4000">
	<title>Decision Making</title>
	<style>
		.s0 { fill: none;stroke: #0f31ac;stroke-linecap: round;stroke-miterlimit:10;stroke-width: 20;stroke-dasharray: 50,50,50,50,50,50 } 
		.s1 { fill: #acbcf8 } 
		.s2 { opacity: .15;fill: #040c2b } 
		.s3 { fill: #829cf8 } 
		.s4 { opacity: .15;fill: #000000 } 
		.s5 { opacity: .1;fill: #000000 } 
		.s6 { fill: #0f31ac } 
		.s7 { opacity: .2;fill: #000000 } 
		.s8 { fill: #db965f } 
		.s9 { fill: #9aaaf7 } 
		.s10 { fill: #040c2b } 
		.s11 { fill: #c9885b } 
		.s12 { fill: #000000 } 
		.s13 { fill: #ffffff } 
		.s14 { fill: #262c88 } 
		.s15 { fill: #6079f8 } 
		.s16 { fill: #cc8b5b } 
		.s17 { opacity: .11;fill: #020202 } 
		.s18 { fill: #de995f } 
		.s19 { fill: #dee4fc } 
	</style>
	<g>
		<g>
		</g>
	</g>
	<g style="opacity: .2">
		<g>
			<path class="s0" d="m1284.2 1141.9c-55.3-26-146.8 16.3-175.9 78.2-55.7 118.1 124.3 289.2 189.8 270.8 73.2-20.5 87.6-301.2-13.9-349z"/>
			<path class="s0" d="m1007.6 1409.5c-19.8-11.4-228.8-132.4-347.2-36.7-83 67.2-83.8 210.9-21.4 291.6 123.6 159.9 507.1 88.2 546.9-26.2 26.7-77-99-182.8-178.3-228.7z"/>
			<path class="s0" d="m1276.6 3384c508.9-126.3 1087.1-254.9 1985-233 502.1 12.3 615.9-143.6 996.5-337.3 339.2-172.7 505.8-516.1 403.5-710.7-103.3-196.5-418-118.2-675.6-410.7-117.4-133.2-96.7-226.6-164.5-374.3-214.5-467.7-1018.7-833.3-1415.2-639.8-523.9 255.6-76 1360-661.6 1661.7-370.4 190.8-650.4-175.6-1016.1 104.1-181.2 138.6-402.9 332.9-420 544 0 0-24 516 968 396z"/>
		</g>
		<path class="s1" d="m4088.1 2809.3c0 0-92.1 122.2-184.3 289.9-83.2 151.2-146.4 355-160.3 525.1-39.2-1.8-82.2-3.6-128.7-5.2-275.3-9.8-672.8-15.9-1114.8-15.9-502.5 0-947.5 7.9-1220.8 20.1q-14.1 0.6-27.6 1.2c-341.3-422.9-1028.5-1159.9-396.1-1463 0 0 46.4-14.1 115.8-44.5 219.8-95.9 671.6-354.1 621.4-840.9 0 0-17.2-90.8-17.2-217.2 0-295.6 93.6-785.5 718.3-763.2 378.3 13.6 726.7 206.1 937.3 514.2 206.6 302.2 536.9 674.1 806 461.8 62.1-49 144.2-67.2 220.8-45.7 193.7 54.4 413.7 336-169.8 1583.3z"/>
	</g>
	<path class="s2" d="m4590.5 3640.8c0 20-936 36.2-2090.5 36.2-651.4 0-1233.3-5.2-1616.7-13.3-88.3-1.8-166-3.9-231.7-6-43.3-1.4-81.3-2.9-113.6-4.4-83.1-3.9-128.5-8.1-128.5-12.5 0-5.6 73.7-11 205.2-15.7 53.9-1.9 117.4-3.8 189.6-5.5 379.7-9.1 997.7-15 1695.7-15 613.9 0 1166.1 4.5 1548.5 11.8 336.8 6.5 542 15 542 24.4z"/>
	<g>
		<g>
			<g>
				<path fill-rule="evenodd" class="s3" d="m2453.8 1607.8h92.4v1995.8h-92.4z"/>
			</g>
			<path class="s4" d="m2546.2 1619.2v46.9c-13.8 1.9-29.5 3-46.2 3-16.7 0-32.4-1.1-46.2-3v-46.9c13.8-1.9 29.5-3 46.2-3 16.7 0 32.4 1.1 46.2 3z"/>
			<path class="s3" d="m2599.6 3630h-199.2c-20.1 0-34.4-19.5-28.4-38.6l49.9-158.6c2.4-7.8 9.6-13.1 17.7-13.1h120.8c8.1 0 15.3 5.3 17.7 13.1l49.9 158.6c6 19.1-8.3 38.6-28.4 38.6z"/>
			<path fill-rule="evenodd" class="s3" d="m2500 1660.6c-55.5 0-100.4-11.8-100.4-26.4 0-14.6 44.9-26.4 100.4-26.4 55.5 0 100.4 11.8 100.4 26.4 0 14.6-44.9 26.4-100.4 26.4z"/>
			<path fill-rule="evenodd" class="s3" d="m2500 1639.5c-43.8 0-79.2-35.4-79.2-79.3 0-43.8 35.4-79.2 79.2-79.2 43.8 0 79.2 35.4 79.2 79.2 0 43.9-35.4 79.3-79.2 79.3z"/>
			<path fill-rule="evenodd" class="s5" d="m2453.8 3411.3h92.4v8.4h-92.4z"/>
		</g>
		<g>
			<path class="s6" d="m3187.9 1764.2l-783.3 55.6c-3 0.2-5.3 2.7-5.3 5.7v206.3c0 3 2.3 5.5 5.3 5.7l783.3 55.7 71-82.3 71-82.2-71-82.3z"/>
			<path fill-rule="evenodd" class="s7" d="m2512.2 1955.4c-14.9 6.3-31.9-0.7-38.2-15.5-6.3-14.8 0.7-31.9 15.5-38.1 14.8-6.3 31.9 0.6 38.1 15.4 6.3 14.9-0.6 31.9-15.4 38.2z"/>
			<path fill-rule="evenodd" class="s3" d="m2525.3 1932.6c-2.2 13.5-14.9 22.6-28.3 20.5-13.5-2.2-22.7-14.8-20.5-28.3 2.2-13.5 14.8-22.7 28.3-20.5 13.5 2.2 22.6 14.8 20.5 28.3z"/>
		</g>
		<g>
			<path class="s6" d="m1812.1 2075.4l783.3 55.7c3 0.2 5.3 2.7 5.3 5.7v206.3c0 3-2.3 5.5-5.3 5.7l-783.3 55.6-71-82.2-71-82.3 71-82.2z"/>
			<path fill-rule="evenodd" class="s7" d="m2505.8 2268.3c-15.7 3.6-31.3-6.1-35-21.8-3.6-15.6 6.1-31.3 21.8-34.9 15.6-3.7 31.3 6.1 34.9 21.7 3.7 15.7-6.1 31.3-21.7 35z"/>
			<path fill-rule="evenodd" class="s3" d="m2504.7 2264.1c-13.3 3.1-26.5-5.2-29.6-18.5-3.2-13.3 5.1-26.5 18.4-29.6 13.3-3.2 26.5 5.1 29.7 18.4 3.1 13.3-5.2 26.5-18.5 29.7z"/>
		</g>
	</g>
	<g>
		<g>
			<g>
				<path class="s8" d="m1154.5 2935.8l-5.4-49.6 67.5-14.6 51.6-111.8c0 0-7.8-13.6-8.8-35.6 3-2.1 7.1-0.5 8 3l2.6 10.4c0 0 2.3-31.2 17.7-39.8 0 0 22.6-10.7 31.3 9.9 0 0 13.6 15.9-13.3 55.8l-59.7 129.7c-2.9 6.4-8.2 11.3-14.8 13.8z"/>
				<path class="s9" d="m1087.9 2947.8c0 0 16.1 24.1 103.5-24.7l-13.9-51.8c0 0-112.9 32.4-89.6 76.5z"/>
			</g>
			<path fill-rule="evenodd" class="s8" d="m1065.8 3591.9l41.9 1.6 1.2-31.8 0.2-7.1 0.7-17.2-41.9 4.8-0.5 12.4-0.4 10.9z"/>
			<path class="s10" d="m1058.4 3610c-1.8-9.9-2.9-27.6 7.8-43.1 0 0 23.3 15.2 41.8-4.7 0 0 17.3 2.5 60.8 27.1q7.3 4.1 15 7.5c7 3.2 18.1 9.1 23.6 16.7 5.6 7.9 1.7 19-7.7 21.7-17.8 5.2-68 14.9-132.9-14.3-4.4-2-7.6-6.1-8.4-10.9z"/>
			<path class="s10" d="m1061.1 3550.6h50.3l38.1-258.9 53.9-256 2.7-13-117.5-3.2-16.4-0.5c0 0-23.3 35-5.3 114.9l5.3 131.3c0 0-32.3 95.3-11.1 285.4z"/>
			<path class="s4" d="m1105.7 3550.6h5.7l38.1-258.9 53.9-256-45.9-10.4-39.6 2.4c0 58.3-5.4 72.5 15 152.2l14.4 45z"/>
			<path fill-rule="evenodd" class="s8" d="m1088.4 3523.5l6 4 28.7 19.3 9.2-13.6 8.6-12.8 9.8-14.5 1-1.5 2.8-4.2-3-1.4-35.1-16.5-0.1 0.1-13 19.1z"/>
			<path class="s10" d="m1075.7 3549.1c39.1 59.6 86.9 78 103.6 82.8 8.1 2.3 16.5-3.4 17-11.9 0.7-9.9-6.1-22.3-10.7-29.3q-4.7-7.4-8.7-15.1c-15-28.5-25.7-43.3-31.4-50.1-3-3.7-4.6-5.1-4.6-5.1-26.4 6.6-37.6-18.9-37.6-18.9-12.8 5.3-20.9 15-25.8 23.5-1.3 2.1-2.3 4.1-3.2 6-2.7 5.8-2.2 12.7 1.4 18.1z"/>
			<path class="s10" d="m1104.9 3474.7l7.7 5.2 3.7 2.5 34.4 23.5 1.1 0.8 7.5 5.1 100.7-156.1 14-21.9c9.9-15.4 13.2-34.2 9.3-52.1l-54.9-254.2-10.6-0.4-99.5-3.7-0.4 10.4c-2 52 7.2 103.9 26.9 152.2l43.4 105.9c2.1 8.4 1.2 17.3-2.8 25l-49.6 97.1z"/>
			<path fill-rule="evenodd" class="s4" d="m1067.4 3554.6h41.7l0.7-17.2-41.9 4.8z"/>
			<g>
				<path class="s11" d="m1116.7 2725.6l0.1 50.8 57.4 18.8c0 0 12.6-43.2 28.6-47 15.9-3.8-0.1-1.3-0.1-1.3l-69.8-73.6z"/>
				<path class="s8" d="m1207.7 2660c0 0 25.6 60.5 4.1 107.7-2.4 5.3-8.1 7.9-13.4 6.1-14.9-4.9-45.2-20.8-70.8-71.5 0 0 45.7-75.6 80.1-42.3z"/>
				<path class="s12" d="m1135.8 2723c0 0 0.1 19.1-19.1 26.7 0 0-18.6-45.5-14.1-79.9 0 0 13.9-43.1 50.7-30.6 0 0 38.8-20.8 59.1-1 0 0 16.8 31.8-6 35.3 0 0-10.1-9.2-21.9-4.5 0 0 5.9 21.8-9.8 29.4l-0.1 28.1-4.4 0.4-4.1-15.6c0 0-18.3-29.6-30.3 11.7z"/>
			</g>
			<path class="s13" d="m1115.1 2770.5l-13.3 8.7-2.2 1.4-39.6 25.9c-5.1 3.3-9.2 7.9-11.9 13.2-11.6 22.8-11.6 49.7-0.1 72.5q0 0.4 0 0.9l2.6 126.1 0.1 5.8c0.1 5.2 3.4 9.9 8.4 11.7 32.9 11.5 74.3 11.5 109.8 8h0.1c28.7-2.8 53.7-7.9 67.3-11 6.2-1.4 10.4-7.2 9.8-13.6l-8.4-86.4q-0.1-0.8 0-1.6l4.1-121.4c0.1-2.3-5-10.7-7.1-11.6l-37.3-11.5-1.6-0.7-14.9-6.4z"/>
			<path class="s4" d="m1237.1 2933.1q0-0.8 0-1.6l1.9-57.1-18.8-5.1 25.1 148.6z"/>
			<g>
				<g>
					<g>
						<path class="s14" d="m1258.3 2725.7l-5.4 0.3c-4.2 0.3-8-3.3-8.6-8l-1.8-15.8c-0.6-4.6 2.4-8.5 6.6-8.8l5.4-0.2z"/>
					</g>
				</g>
				<path class="s4" d="m1258.3 2725.7l-4.4 0.3c-1.1-5.2-2-10.7-2.7-16.3-0.6-5.6-1-11.1-1.1-16.3l4.4-0.2z"/>
				<g>
					<g>
						<path class="s15" d="m1579.2 2739.6l-88.3 4.6c-4.6 0.2-8.7-3.6-9.3-8.7l-8.8-75.3c-0.6-5 2.6-9.3 7.1-9.5l88.4-4.7z"/>
					</g>
				</g>
				<path class="s4" d="m1579.2 2739.6l-13.5 0.7c-1.8-2.7-3.7-6-5.4-10.2-4.2-9.7-7.3-22.5-8.9-36.1-1.6-13.6-1.5-26.6 0.3-36.6 0.8-4.3 1.9-7.8 3.1-10.6l13.5-0.8z"/>
				<g>
					<g>
						<path class="s15" d="m1481.7 2733.8l-78.5 4.1c-4 0.2-7.7-2.8-8.9-7q-0.2-0.8-0.3-1.7l-6.3-53.6q-0.1-0.9-0.1-1.7c0.3-4.3 3.2-7.6 7.2-7.8l78.5-4.1z"/>
					</g>
				</g>
				<path class="s4" d="m1481.7 2733.8l-7.3 0.3c-4-9.6-7.1-22.3-8.6-35.6-1.6-13.4-1.5-26.2 0.2-36.2l7.3-0.3z"/>
				<g>
					<g>
						<path class="s15" d="m1394.4 2731.6l-64.7 3.4c-3.7 0.2-7.2-2.4-8.6-6.1q-0.5-1.2-0.7-2.6l-4.7-40.2q-0.2-1.4 0-2.6c0.6-3.8 3.4-6.7 7.1-6.9l64.8-3.4z"/>
					</g>
				</g>
				<path class="s4" d="m1394.4 2731.6l-8.7 0.4c-2.8-8.5-4.9-18.5-6.2-29-1.2-10.5-1.4-20.7-0.6-29.3l8.7-0.5z"/>
				<g>
					<g>
						<path class="s15" d="m1321.5 2728.9l-55 2.9c-3.7 0.2-7.1-2.4-8.6-6q-0.5-1.3-0.7-2.7l-3.1-27.3q-0.2-1.3 0-2.6c0.6-3.8 3.4-6.7 7.1-6.9l54.9-2.9z"/>
					</g>
				</g>
				<path class="s4" d="m1321.5 2728.9l-9.3 0.5c-1.8-7-3.3-14.7-4.2-22.6-1-8-1.3-15.8-1.1-22.9l9.2-0.5z"/>
				<path class="s4" d="m1579.2 2739.6l-88.3 4.6c-4.6 0.2-8.7-3.6-9.3-8.7l-0.2-1.7-78.2 4.1c-4 0.2-7.7-2.8-8.9-7l0.1 0.7-64.7 3.4c-3.7 0.2-7.2-2.4-8.6-6.1l-54.6 2.9c-3.7 0.2-7.1-2.4-8.6-6l-5 0.2c-4.2 0.3-8-3.3-8.6-8l-0.9-7.9 330.3-17.3z"/>
				<g>
					<path class="s14" d="m1588.7 2692c-3-25.9-11.8-46.5-19.5-46.1-7.8 0.4-11.6 21.7-8.6 47.6 3 25.9 11.8 46.5 19.5 46.1 7.8-0.4 11.7-21.7 8.6-47.6zm-15.9 32.6c-3.5-8.2-6.2-19.4-7.6-31.3-1.4-12-1.4-23.3 0.2-31.8 1.4-7.9 3.7-10.5 4.4-10.5 0.6 0 3.5 2.3 6.8 10 3.4 8.2 6.1 19.3 7.5 31.3 1.4 11.9 1.4 23.2-0.2 31.7-1.4 7.9-3.7 10.5-4.4 10.5-0.6 0-3.5-2.3-6.7-9.9z"/>
					<path class="s13" d="m1565.2 2693.3c-1.4-12-1.4-23.3 0.2-31.8 1.4-7.9 3.7-10.5 4.4-10.5 0.6 0 3.5 2.3 6.8 10 3.4 8.2 6.1 19.3 7.5 31.3 1.4 11.9 1.4 23.2-0.2 31.7-1.4 7.9-3.7 10.5-4.3 10.5-0.7 0-3.6-2.2-6.8-9.9-3.5-8.2-6.2-19.4-7.6-31.3z"/>
				</g>
			</g>
			<path fill-rule="evenodd" class="s8" d="m1399 2869.6l-1.2-2.6-6.6-14.4-12.8-28.2-11.4 0.5-19.9 0.9-100.4 4.4 72.8 56.7z"/>
			<path class="s8" d="m1405.4 2807.8l55.4-40c10.7-8.5 20.1-20.9 25.7-29.1 3.1-4.5 5.7-9.3 7.5-14.4 3.7-10.4 9.8-20.9 14.9-28.8 5.1-7.9 9.3-13.2 9.3-13.2 3.9 2.6 5.2 7.8 2.9 11.9l-9.4 17.1 14.2-12.4c4.8-4.2 10.8-7 17.1-7.8 23.8-3 19.8 24.6 19.8 24.6-5.5 20.1-41 44.6-41 44.6l-104.7 101.1c-6.7 6.5-15.6 9-24 7.9-8.2-1.1-16-5.7-20.8-13.5l6-31z"/>
			<path class="s13" d="m1237.9 2895.9l57.3-2.4 45.2-4-3.2-68.6c-68.6-18.6-106.1-24-113-21.8-2.5 0.8-7.7 6-7.7 6-12.9 25.6-8.9 56.5 10.1 78z"/>
		</g>
		<g>
			<path class="s16" d="m3714.6 2934.2l94.2-84.7c-12-11.5-18.7-25.8-22.3-40-7.6-29.9-1.3-59.3-1.1-59.9l-66.1 48.6c8.7 8.9 13.2 20.7 15 33.6 6.1 44.1-19.3 101.6-19.7 102.4z"/>
			<path class="s17" d="m3719.3 2798.2c8.7 8.9 13.2 20.7 15 33.6 7.8-0.3 19.4-8.4 36-36.3l16.2 14c-7.6-29.9-1.3-59.3-1.1-59.9z"/>
			<path class="s18" d="m3792.6 2741.4c0 0-35.5 90.8-73 85.5 0 0-34.9-5.9-9.9-119.6 0 0 113.1-47.4 82.9 34.1z"/>
			<path class="s12" d="m3705.2 2732.9c0 0 51.6 29.9 56.6 39.8 0 0 26.5-32.2 7.6 15.2 0 0 28 42 47.7-23.4 5.2-17.2 25.1-12.1 24.5 6.3q0 0.5-0.1 1c0 0-39.5 41.6 5.9 85.4 0 0 9 11.7 5.8 32.8 0 0 17.6-12.7 12.5-43.9-0.7-4.3-2.1-8.5-3.9-12.3-1.8-3.9-3.6-11.4 1.8-21.1 2.7-4.8 4.9-10.1 6.2-15.8 4.2-18.6 8.2-54.8-20.6-64.9-4.2-1.5-8.6-1.1-12.8 0.6-3.6 1.4-11.2-1.4-24.5-28.6 0 0-22.5-45.6-72.4-26.3 0 0-42.8 12.1-34.3 55.2z"/>
			<path class="s10" d="m3897.9 3536.1l-26.2 47.6c-2.1 3.8-5.4 6-8.9 6-8.5-0.1-24.2 1.1-26.6 10.3q-0.4 1.5-0.8 3c-1.4 4.9-2.7 20.4 39 20 10.5-0.1 20.6-5.1 28.6-14.1 8.6-9.6 20.7-20.4 29.3-17l1.7 13.8c0.8 6.8 5.5 11.6 10.7 11.1l13-4.1c0 0 10.3-48-7.9-65.8z"/>
			<path class="s10" d="m3767.4 3551.6l-20.5 39c-2.3 4.3-6 7-10 7.2-8.9 0.3-24.5 2.6-30.7 13.3-3.4 5.8-2.1 14.1 2.6 18.1 6.2 5.3 19.5 12 46.4 11.8 7.1-0.1 13.9-3.7 19-10.1 6.7-8.3 17.6-19.4 29.1-20.8v13.7c0 6.3 4.4 11 9.1 9.8l14.1-6.9c0 0 6.3-45-14.6-75.1 0 0-44.5 0-44.5 0z"/>
			<path class="s10" d="m3724.5 3115.5c0 0 11.9 42.7 27.6 90.7 11.6 35.5 25.4 73.8 38 100q3 6.4 6 11.7c3.8 6.9 7.5 14 10.8 21.3 3.6 7.7 10.3 19.7 22.4 34.1 24.7 29.2 43.9 59.7 51.6 101.9 3.5 19.5 11.8 38 14.3 66.1 0 0 9.5-5.2 53.5 9.4 1.8 0.6 6.3 3.5 6.3 3.5 0 0-33.2-139.8-56.4-184 0 0-45.5-59.7-55.6-150.6q-0.3-2.7-0.6-5.5c-2.6-28.8-5.2-51.7-7.6-69.7-14.7-110.6-23.8-40.3-23.8-40.3z"/>
			<path class="s17" d="m3752.1 3206.2c11.6 35.5 25.4 73.8 38 100l52.9-86.6q-0.3-2.7-0.6-5.5c-2.6-28.8-5.2-51.7-7.6-69.7z"/>
			<path class="s10" d="m3729.7 3438.7c25.1 45.6 30.9 125.8 30.9 125.8 24 33 48.3 15.2 56.9 7.1 2-2 3.2-3.4 3.2-3.4-18.5-43.2-14.2-121.3-42.5-159.9-28.3-38.6-4.5-73.7-4.5-73.7l12.3-24.3 30.8-60.6c10.7-13.8 19-26.7 25.4-38.7 18.8-35.2 21.2-62.3 18.5-81q-0.1-0.7-0.2-1.3c-3.1-19.8-11.8-29.9-11.8-29.9l-106.9 24c-3.8 13.3-7.2 25.7-10.4 37.3-24.5 91.8-29.2 137.2-32.8 180.3-4 48.6 5.9 52.7 31.1 98.3z"/>
			<path class="s17" d="m3731.4 3160.1c89.7 40.1 120.5-8.7 129.3-30.1-2.9-20.7-12-31.2-12-31.2l-106.9 24c-3.8 13.3-7.2 25.7-10.4 37.3z"/>
			<path class="s18" d="m3697.7 3028c0 0-12.8 19.6-41.7-15.7 0 0-13.5-9.4-28.8 12.2l13.8 9.1 33.8 20.2h46.3l-0.2-54.1z"/>
			<g>
				<g>
					<g>
						<path class="s1" d="m3230.8 3309.8v-52.7q0-60 24.5-101.4 24.5-41.4 86.9-80.6 49.6-31.3 71.3-56.4 21.8-25.1 21.8-57.6 0-25.9-23.3-41-23.3-15.1-60.6-15.1-92.5 0-216.1 65.6l-85.2-166.5q152.5-86.9 318.5-86.9 136.6 0 214.4 60 77.8 60.1 77.8 163.7 0 74.1-34.6 128.4-34.6 54.2-110.5 102.6-64.4 41.7-80.6 61-16.2 19.3-16.2 45.7v31.2zm-26.4 214.3q0-56.3 32.8-86.9 32.8-30.5 96.6-30.5 61.2 0 94 30.8 32.8 31 32.8 86.6 0 55.7-34 86.3-34 30.6-92.8 30.6-60.7 0-95-30.3-34.4-30.3-34.4-86.6z"/>
					</g>
				</g>
			</g>
			<path class="s13" d="m3713.1 3027.6c13.3 55.7 12.9 126.4 12.9 126.4 78 38.9 118.1-4.7 130.1-21.9 2.7-3.8 3.9-6.2 3.9-6.2-18.6-90-24-154.7-25.5-181.8-0.5-9.4-0.6-14.3-0.6-14.3-6.3-81.9-37.1-94.5-37.1-94.5-66.9 62-65.1 43.3-65.1 43.3-9.7 14.3-16 33.1-20 51.6-6.9 31.9-6.2 65.7 1.4 97.4z"/>
			<path class="s17" d="m3797.7 2863.4c0 0 46.5 9.1 18.7 172.8 0 0-14.7 54.7-52.7 32.1z"/>
			<path class="s17" d="m3721.1 3073.8c0 0 37.6 5.8 48-2.7l-11.1-13.8-40.6-4z"/>
			<path class="s17" d="m3746.2 3025.1l5.7-7.3c0 0-13.9-78.5-2.7-110.3 11.2-31.8 14.4-3.2 14.4-3.2l10.6 130.7-32.2 6.8z"/>
			<path class="s17" d="m3713.8 3030.7c0 0-30.7 11.1-42.2 3.1 0 0-20.6-32.9-39-2.5l82 22.5z"/>
			<path class="s18" d="m3770.5 3012.3c0 0-50.3 33.3-97.9 25.1 0 0-26.3-35.5-40.7-8.6 0 0-5 15.8 24.5 32 0 0 9.4 6.4 18.4 0 0 0 84.1 24.6 104.7-2.3z"/>
			<path class="s13" d="m3757.5 3018.1c0 0-27.4-90.1 3.2-142.1 0 0 26.6-32.5 48-1.7 6 8.6 9.6 19.5 10.7 30.9 3.9 41.3 12.2 176.6-48.9 163.2z"/>
			<path class="s17" d="m3764.6 3362.3c0 0-17.4-1.4-19.2-9.6-1.8-8.2 0 4.7 0 4.7 0 0 8.8 13.2 19.2 4.9z"/>
			<path class="s17" d="m3765.8 3381.8c0 0-11 0.7-13.7-5.1 0 0 7.7 11.5 13.7 5.1z"/>
			<path class="s17" d="m3765.8 3395.7c0 0 27 30.4 31.9 77.8 0 0 11.7 95 19.8 98.1 2-2 3.2-3.4 3.2-3.4-18.5-43.2-14.2-121.3-42.5-159.9-28.3-38.6-4.5-73.7-4.5-73.7l12.3-24.3c-9.7 10.8-32.7 41.9-20.2 85.4z"/>
			<path class="s17" d="m3869.6 3318.1c0 0-19.3-0.2-26.5 11.5 0 0 12.5-20.6 26.5-11.5z"/>
			<path class="s17" d="m3842.2 3211c18.8-35.2 21.2-62.3 18.5-81q-0.1-0.7-0.2-1.3l-2 6.2c0 0 5.6 30-16.3 76.1z"/>
			<path class="s17" d="m3856.1 3132.1c2.7-3.8 3.9-6.2 3.9-6.2-18.6-90-24-154.7-25.5-181.8-0.1 0.2-6 15.7 21.6 188z"/>
			<path class="s17" d="m3722.6 3088.1c0 0 13.6 33.8 41 40.9 0 0-33.8 3.6-41-40.9z"/>
			<path class="s17" d="m3725.6 3132.1c0 0 8.8 15.6 20.5 12.1 0 0-16.3 12.8-20.5-12.1z"/>
		</g>
	</g>
	<g>
		<g>
			<path class="s19" d="m1726.6 1606.4l-199.8 4c-22.1 0.5-40.5-17.1-40.9-39.3l-3.6-174.3c-0.4-22.2 17.2-40.5 39.4-41l199.7-4.1c22.2-0.4 40.5 17.2 41 39.4l3.5 174.3c0.5 22.2-17.2 40.5-39.3 41z"/>
			<g>
				<g>
					<g>
						<path class="s13" d="m1710.2 1522.5l-0.7 13-0.1 0.3h0.1l6 2c-1.1 4-2.7 7.6-4.8 10.9q-0.1 0.1-0.1 0.2l-2.3-1.1-3.8-1.9-7.8 10.5 2.7 3.9c-3.2 2.2-6.8 3.8-10.6 4.8l-1.3-6.1-12.6-0.3-1.9 7c-4.2-0.8-8.1-2.4-11.7-4.5l3.6-6.2-8.5-9.7-7 4.2-0.1 0.1q-0.2-0.4-0.5-0.8c-2.7-4.3-4.6-9.2-5.5-14.5l6.1-1.4 0.7-13.3-6.3-2c1.1-4.7 3.1-9.2 5.6-13.1l6.6 3.9 8.8-9.5-3.5-5.9c4.5-2.8 9.6-4.6 15-5.1l1.4 7.9 12.5 0.6 2-6.6c1.1-0.4 8 3.9 11.3 6.8l-4 5.9 8.4 10.2 5.4-3c1.6 3.6 2.7 7.5 3.3 11.5zm-29.8-20.4c-4.7-0.1-9.2 1.3-13.1 3.9q-2 1.3-3.7 3.1c-4.5 4.6-7.1 10.8-7.3 17.5-0.1 6.6 2.2 12.9 6.5 17.7 4.4 4.8 10.2 7.5 16.5 7.7 6.3 0.1 12.3-2.4 16.8-7 4.6-4.6 7.1-10.8 7.3-17.5 0.1-6.6-2.2-13-6.5-17.8q-0.7-0.7-1.4-1.4c-4.1-3.9-9.4-6.1-15.1-6.2z"/>
					</g>
				</g>
				<g>
					<g>
						<path class="s13" d="m1699.3 1437.1l-0.8 15.2v0.4h0.1l6.5 2.4c-1.2 4.6-2.9 8.9-5.2 12.7q-0.1 0.1-0.2 0.2l-2.5-1.3-4.1-2.2-8.6 12.3 3 4.6c-3.5 2.6-7.5 4.5-11.6 5.7l-1.4-7.2-13.7-0.2-2.1 8.1c-4.6-0.9-9-2.7-12.9-5.3l4-7.2-9.3-11.4-7.7 5q-0.3-0.4-0.6-0.9c-2.9-5-5-10.8-6-17l6.7-1.6 0.8-15.6-6.9-2.3c1.2-5.6 3.3-10.8 6.2-15.4l7.1 4.6 9.6-11.3-3.8-6.8c4.9-3.3 10.5-5.4 16.4-6.1l1.5 9.3 13.8 0.7 2.1-7.7c1.3-0.6 8.8 4.5 12.4 7.9l-4.4 6.9 9.1 12 6-3.5c1.7 4.2 3 8.7 3.6 13.5zm-32.6-23.9c-5.1-0.1-10 1.5-14.3 4.5q-2.1 1.6-4.1 3.7c-4.9 5.4-7.8 12.7-8 20.5-0.1 7.8 2.4 15.2 7.1 20.8 4.8 5.7 11.2 8.8 18 9 6.9 0.1 13.4-2.8 18.4-8.2 5-5.5 7.8-12.7 8-20.6 0.2-7.8-2.3-15.2-7.1-20.8q-0.7-0.9-1.5-1.6c-4.5-4.6-10.3-7.2-16.5-7.3z"/>
					</g>
				</g>
				<g>
					<g>
						<path class="s13" d="m1632.2 1492.9l-1.1 21.1v0.4h0.1l9 3.3c-1.7 6.3-4.1 12.3-7.3 17.6q-0.1 0.1-0.1 0.3l-3.5-1.8-5.7-3-11.8 16.9 4.2 6.3c-4.9 3.6-10.3 6.2-16.1 7.9l-1.9-9.9-18.9-0.4-2.8 11.2c-6.4-1.3-12.3-3.8-17.7-7.3l5.5-9.9-12.8-15.7-10.6 6.9h-0.1q-0.3-0.6-0.7-1.2c-4-7-6.9-14.9-8.3-23.5l9.3-2.2 1.1-21.5-9.6-3.2c1.7-7.7 4.6-14.8 8.5-21.1l9.8 6.2 13.3-15.4-5.2-9.5c6.7-4.5 14.4-7.4 22.5-8.3l2.1 12.7 18.9 1 2.9-10.6c1.7-0.7 12 6.2 17 10.9l-6.1 9.6 12.7 16.5 8.1-4.9c2.5 5.8 4.1 12 5 18.6zm-44.8-32.9c-7-0.2-13.8 2-19.6 6.2q-3 2.2-5.7 5.1c-6.8 7.4-10.7 17.5-11 28.2-0.2 10.8 3.3 21 9.8 28.7 6.5 7.8 15.3 12.1 24.7 12.3 9.5 0.2 18.5-3.8 25.3-11.3 6.9-7.4 10.8-17.5 11-28.2 0.3-10.8-3.2-21-9.7-28.7q-1-1.2-2.1-2.3c-6.2-6.3-14.2-9.9-22.7-10z"/>
					</g>
				</g>
			</g>
		</g>
		<g>
			<path class="s19" d="m4523.6 2094.4l-199.8 4c-22.1 0.5-40.5-17.1-40.9-39.3l-3.6-174.3c-0.4-22.2 17.2-40.5 39.4-41l199.7-4.1c22.2-0.4 40.5 17.2 41 39.4l3.5 174.3c0.5 22.2-17.2 40.5-39.3 41z"/>
			<g style="opacity: .5">
				<g>
					<g>
						<path fill-rule="evenodd" class="s13" d="m4326 1978.5h55.5v60.8h-55.5z"/>
					</g>
				</g>
				<path fill-rule="evenodd" class="s1" d="m4393.2 1944.7h55.4v94.6h-55.4z"/>
				<path fill-rule="evenodd" class="s3" d="m4460.7 1898.9h55.5v140.4h-55.5z"/>
			</g>
		</g>
		<g>
			<path class="s19" d="m886.6 2336.4l-199.8 4c-22.1 0.5-40.5-17.1-40.9-39.3l-3.6-174.3c-0.4-22.2 17.2-40.5 39.3-41l199.8-4.1c22.2-0.4 40.5 17.2 41 39.4l3.5 174.3c0.5 22.2-17.2 40.5-39.3 41z"/>
			<g>
				<path class="s3" d="m774 2216.5l71.6-71.6c9.1 9.4 16.3 20.2 21.4 32.2 5.3 12.5 8 25.8 8.2 39.4z"/>
				<path class="s1" d="m772.1 2126.7c11.8 0.2 23.3 2.6 34.1 7.2 10.5 4.4 19.9 10.6 28 18.6l-62.1 62.1z"/>
				<g>
					<path class="s13" d="m770.8 2295.5c-20.8 0-40.3-8.1-55-22.8-14.7-14.7-22.8-34.2-22.8-54.9 0-20.8 8.1-40.3 22.8-55 14.4-14.4 33.4-22.4 53.6-22.7v79.1h79.1c-0.4 20.2-8.4 39.2-22.8 53.5-14.7 14.7-34.2 22.8-54.9 22.8z"/>
				</g>
			</g>
		</g>
		<g>
			<path class="s19" d="m3909.2 1464.1l-199.8-1.3c-22.2-0.2-40.1-18.3-39.9-40.4l1.1-174.4c0.2-22.2 18.3-40 40.5-39.9l199.7 1.3c22.2 0.1 40.1 18.3 39.9 40.4l-1.1 174.4c-0.1 22.2-18.3 40-40.4 39.9z"/>
			<g>
				<path class="s13" d="m3706 1389.7l101.8-66.4c-3.1-9.3-4.1-19.4-2.5-29.9 5.1-34.2 35.9-58.1 68.8-53.4 32.8 4.7 55.2 36.3 50.1 70.5-5.2 34.3-36 58.2-68.8 53.5-13.9-2-25.8-8.8-34.7-18.5l-101.1 65.9c-5.8 4.1-13.6 2.5-17.4-3.5-3.7-6-2.1-14.2 3.8-18.2zm151.1-37c26.8 3.9 52-15.8 56.3-43.7 4.2-28-14.2-53.9-41-57.8-26.9-3.8-52.1 15.8-56.3 43.8-4.3 27.9 14.1 53.8 41 57.7z"/>
				<g>
					<g>
						<path class="s13" d="m3904.1 1282.3c1.5 3.9 2.3 8 2.7 12.1 0.5 4.2 0.4 8.4 0 12.6-0.5 4.1-1.6 8.2-3.2 12.1l-1.3 2.9c-0.5 0.9-1 1.8-1.6 2.7l-0.8 1.3q-0.4 0.6-0.9 1.2-1 1.3-2 2.4 0.7-1.3 1.5-2.7l0.8-1.3 0.6-1.4c0.4-0.9 0.9-1.8 1.2-2.8l1.1-2.8c0.4-1 0.6-2 0.9-2.9 0.2-1 0.5-2 0.7-3l0.6-3 0.4-3c0.5-4 0.6-8.1 0.5-12.1q-0.2-6.2-1.2-12.3z"/>
					</g>
				</g>
			</g>
		</g>
	</g>
</svg>