<svg version="1.2" xmlns="http://www.w3.org/2000/svg" viewBox="0 0 3710 3710" width="3710" height="3710">
	<title>11667620_20945472</title>
	<defs>
		<linearGradient id="g1" x2="1" gradientUnits="userSpaceOnUse" gradientTransform="matrix(-2050.048,-2212.75,2469.558,-2287.972,3413.258,3609.636)">
			<stop offset="0" stop-color="#dae3fe"/>
			<stop offset="1" stop-color="#e9effd"/>
		</linearGradient>
		<linearGradient id="g2" x2="1" gradientUnits="userSpaceOnUse" gradientTransform="matrix(136.222,0,0,136.215,2768.2,1180.947)">
			<stop offset="0" stop-color="#dae3fe"/>
			<stop offset="1" stop-color="#e9effd"/>
		</linearGradient>
		<linearGradient id="g3" x2="1" gradientUnits="userSpaceOnUse" gradientTransform="matrix(334.883,0,0,334.88,2669.919,1181.929)">
			<stop offset="0" stop-color="#dae3fe"/>
			<stop offset="1" stop-color="#e9effd"/>
		</linearGradient>
		<linearGradient id="g4" x2="1" gradientUnits="userSpaceOnUse" gradientTransform="matrix(92.778,0,0,92.792,2529.216,719.75)">
			<stop offset="0" stop-color="#dae3fe"/>
			<stop offset="1" stop-color="#e9effd"/>
		</linearGradient>
		<linearGradient id="g5" x2="1" gradientUnits="userSpaceOnUse" gradientTransform="matrix(231.038,0,0,231.04,2460.804,720.401)">
			<stop offset="0" stop-color="#dae3fe"/>
			<stop offset="1" stop-color="#e9effd"/>
		</linearGradient>
		<linearGradient id="g6" x2="1" gradientUnits="userSpaceOnUse" gradientTransform="matrix(-3090.947,280.995,-181.345,-1994.793,3636.667,2054.406)">
			<stop offset="0" stop-color="#09005d"/>
			<stop offset="1" stop-color="#1a0f91"/>
		</linearGradient>
		<linearGradient id="g7" x2="1" gradientUnits="userSpaceOnUse" gradientTransform="matrix(2208.775,-1381.745,1195.578,1911.178,462.661,3004.633)">
			<stop offset="0" stop-color="#4f52ff"/>
			<stop offset="1" stop-color="#4042e2"/>
		</linearGradient>
		<linearGradient id="g8" x2="1" gradientUnits="userSpaceOnUse" gradientTransform="matrix(-36.241,1304.722,-18222.979,-506.179,1718.051,2207.504)">
			<stop offset="0" stop-color="#09005d"/>
			<stop offset="1" stop-color="#1a0f91"/>
		</linearGradient>
		<linearGradient id="g9" x2="1" gradientUnits="userSpaceOnUse" gradientTransform="matrix(1172.749,1336.746,-1355.148,1188.893,1735.925,1212.346)">
			<stop offset="0" stop-color="#09005d"/>
			<stop offset="1" stop-color="#1a0f91"/>
		</linearGradient>
		<linearGradient id="g10" x2="1" gradientUnits="userSpaceOnUse" gradientTransform="matrix(491.448,593.446,-603.33,499.633,2030.558,1546.726)">
			<stop offset="0" stop-color="#ff928e"/>
			<stop offset="1" stop-color="#fe7062"/>
		</linearGradient>
		<linearGradient id="g11" x2="1" gradientUnits="userSpaceOnUse" gradientTransform="matrix(-231.972,1149.768,-1468.377,-296.253,2366.403,747.93)">
			<stop offset="0" stop-color="#e1473d"/>
			<stop offset="1" stop-color="#e9605a"/>
		</linearGradient>
		<linearGradient id="g12" x2="1" gradientUnits="userSpaceOnUse" gradientTransform="matrix(131.114,-705.998,2790.965,518.322,2336.156,1360.102)">
			<stop offset="0" stop-color="#4f52ff"/>
			<stop offset="1" stop-color="#4042e2"/>
		</linearGradient>
		<linearGradient id="g13" x2="1" gradientUnits="userSpaceOnUse" gradientTransform="matrix(191.628,-937.969,267.264,54.602,2058.561,1278.362)">
			<stop offset="0" stop-color="#4f52ff"/>
			<stop offset="1" stop-color="#4042e2"/>
		</linearGradient>
		<linearGradient id="g14" x2="1" gradientUnits="userSpaceOnUse" gradientTransform="matrix(90.762,-547.934,567.51,94.005,2028.741,1671.24)">
			<stop offset="0" stop-color="#4f52ff"/>
			<stop offset="1" stop-color="#4042e2"/>
		</linearGradient>
		<linearGradient id="g15" x2="1" gradientUnits="userSpaceOnUse" gradientTransform="matrix(353.467,201.754,-511.494,896.121,1034.799,2769.067)">
			<stop offset="0" stop-color="#febbba"/>
			<stop offset="1" stop-color="#ff928e"/>
		</linearGradient>
		<linearGradient id="g16" x2="1" gradientUnits="userSpaceOnUse" gradientTransform="matrix(-104.541,-886.887,1389.885,-163.831,1516.923,6343.557)">
			<stop offset="0" stop-color="#09005d"/>
			<stop offset="1" stop-color="#1a0f91"/>
		</linearGradient>
		<linearGradient id="g17" x2="1" gradientUnits="userSpaceOnUse" gradientTransform="matrix(-1209.391,-757.098,1930.515,-3083.812,1068.992,2819.383)">
			<stop offset="0" stop-color="#febbba"/>
			<stop offset="1" stop-color="#ff928e"/>
		</linearGradient>
		<linearGradient id="g18" x2="1" gradientUnits="userSpaceOnUse" gradientTransform="matrix(-281.89,-847.348,1328.024,-441.798,4418.693,12797.991)">
			<stop offset="0" stop-color="#09005d"/>
			<stop offset="1" stop-color="#1a0f91"/>
		</linearGradient>
		<linearGradient id="g19" x2="1" gradientUnits="userSpaceOnUse" gradientTransform="matrix(-262.201,-537.85,577.388,-281.476,8492.041,16981.527)">
			<stop offset="0" stop-color="#e1473d"/>
			<stop offset="1" stop-color="#e9605a"/>
		</linearGradient>
		<linearGradient id="g20" x2="1" gradientUnits="userSpaceOnUse" gradientTransform="matrix(153.683,177.419,-114.627,99.292,1426.991,2083.539)">
			<stop offset="0" stop-color="#09005d"/>
			<stop offset="1" stop-color="#1a0f91"/>
		</linearGradient>
		<linearGradient id="g21" x2="1" gradientUnits="userSpaceOnUse" gradientTransform="matrix(-302.526,40.336,-40.165,-301.238,2564.651,2376.661)">
			<stop offset="0" stop-color="#ff928e"/>
			<stop offset="1" stop-color="#fe7062"/>
		</linearGradient>
		<linearGradient id="g22" x2="1" gradientUnits="userSpaceOnUse" gradientTransform="matrix(352.106,0,0,81.325,1653.885,2652.774)">
			<stop offset="0" stop-color="#febbba"/>
			<stop offset="1" stop-color="#ff928e"/>
		</linearGradient>
		<linearGradient id="g23" x2="1" gradientUnits="userSpaceOnUse" gradientTransform="matrix(8.139,-126.828,106.934,6.863,1510.574,2484.485)">
			<stop offset="0" stop-color="#febbba"/>
			<stop offset="1" stop-color="#ff928e"/>
		</linearGradient>
		<linearGradient id="g24" x2="1" gradientUnits="userSpaceOnUse" gradientTransform="matrix(-153.213,-293.214,220.023,-114.969,1522.56,2377.174)">
			<stop offset="0" stop-color="#febbba"/>
			<stop offset="1" stop-color="#ff928e"/>
		</linearGradient>
		<linearGradient id="g25" x2="1" gradientUnits="userSpaceOnUse" gradientTransform="matrix(214.544,43.046,-25.776,128.47,1331.126,2210.885)">
			<stop offset="0" stop-color="#09005d"/>
			<stop offset="1" stop-color="#1a0f91"/>
		</linearGradient>
		<linearGradient id="g26" x2="1" gradientUnits="userSpaceOnUse" gradientTransform="matrix(-153.212,-293.213,164.846,-86.136,1557.629,2358.847)">
			<stop offset="0" stop-color="#febbba"/>
			<stop offset="1" stop-color="#ff928e"/>
		</linearGradient>
		<linearGradient id="g27" x2="1" gradientUnits="userSpaceOnUse" gradientTransform="matrix(-181.482,59.523,-23.042,-70.255,1637.738,2648.707)">
			<stop offset="0" stop-color="#09005d"/>
			<stop offset="1" stop-color="#1a0f91"/>
		</linearGradient>
		<linearGradient id="g28" x2="1" gradientUnits="userSpaceOnUse" gradientTransform="matrix(1656.665,-139.383,104.96,1247.523,1159.67,2619.058)">
			<stop offset="0" stop-color="#09005d"/>
			<stop offset="1" stop-color="#1a0f91"/>
		</linearGradient>
	</defs>
	<style>
		.s0 { fill: url(#g1) } 
		.s1 { fill: #bdd0fb } 
		.s2 { fill: url(#g2) } 
		.s3 { fill: url(#g3) } 
		.s4 { fill: url(#g4) } 
		.s5 { fill: url(#g5) } 
		.s6 { fill: #7d97f4 } 
		.s7 { fill: #91b3fa } 
		.s8 { fill: #ffffff } 
		.s9 { fill: url(#g6) } 
		.s10 { fill: url(#g7) } 
		.s11 { opacity: .24;fill: #91b3fa } 
		.s12 { fill: url(#g8) } 
		.s13 { fill: url(#g9) } 
		.s14 { fill: url(#g10) } 
		.s15 { opacity: .78;fill: #ffffff } 
		.s16 { fill: url(#g11) } 
		.s17 { fill: url(#g12) } 
		.s18 { fill: url(#g13) } 
		.s19 { fill: url(#g14) } 
		.s20 { fill: url(#g15) } 
		.s21 { fill: url(#g16) } 
		.s22 { fill: url(#g17) } 
		.s23 { fill: url(#g18) } 
		.s24 { fill: url(#g19) } 
		.s25 { fill: url(#g20) } 
		.s26 { fill: url(#g21) } 
		.s27 { fill: url(#g22) } 
		.s28 { fill: url(#g23) } 
		.s29 { fill: url(#g24) } 
		.s30 { fill: url(#g25) } 
		.s31 { fill: url(#g26) } 
		.s32 { fill: url(#g27) } 
		.s33 { fill: url(#g28) } 
	</style>
	<g id="Background">
		<g>
			<g>
			</g>
		</g>
	</g>
	<g id="Illustration">
		<g>
			<path class="s0" d="m3127.6 2348.7c-281.7 658.4-1025.3 941.2-1607.9 893-159.1-13.2-479.1-39.7-729-276-480-453.9-406.1-1402.5 53.4-1961.1 59.1-71.9 468.7-553.8 1106.8-547.3 467.3 4.7 795.2 268.6 835.1 301.5 50.4 41.5 161.5 140.2 261.6 296.8 235.3 368 256 881.6 80 1293.1z"/>
			<g>
				<g>
					<g style="opacity: .3">
						<path class="s1" d="m2761 799.8c-0.3-5 3.3-9.6 8.3-10.4 11.1-1.8 22.4-3.1 33.7-4 5.4-0.4 10.2 3.7 10.6 9.2q0 0.1 0 0.2c0.3 5.4-3.7 10-9.1 10.4-10.7 0.8-21.5 2.1-32 3.8-5.4 0.9-10.5-2.8-11.4-8.2q-0.1-0.5-0.1-1zm86.4-4.3q0-0.5 0-1.1c0.3-5.5 5.1-9.7 10.5-9.3 11.3 0.7 22.6 1.8 33.7 3.5 5.4 0.8 9.1 5.8 8.4 11.2-0.8 5.5-5.9 9.2-11.3 8.4-10.5-1.5-21.3-2.7-32-3.3-5.1-0.3-9-4.4-9.3-9.4zm85.2 14.9q-0.1-1.6 0.4-3.3c1.5-5.3 7-8.3 12.3-6.7 10.8 3.1 21.6 6.8 32 10.9 5.2 2 7.7 7.8 5.7 12.9-2 5.1-7.8 7.6-12.9 5.6-9.9-3.9-20.2-7.4-30.4-10.4-4.1-1.2-6.9-4.9-7.1-9zm79.7 33.6c-0.1-1.8 0.3-3.7 1.3-5.4 2.6-4.8 8.7-6.5 13.5-3.8 9.8 5.5 19.5 11.5 28.8 17.8 4.5 3.1 5.7 9.3 2.6 13.8-3.1 4.6-9.3 5.7-13.8 2.7-8.8-6-18-11.7-27.3-17-3.1-1.7-4.9-4.8-5.1-8.1zm70.2 50.5c-0.1-2.5 0.7-5.1 2.6-7.2 3.7-4 9.9-4.4 14-0.7 8.3 7.5 16.4 15.5 24.1 23.8 3.8 4 3.6 10.3-0.5 14-4 3.7-10.2 3.5-14-0.5-7.3-7.8-15-15.4-22.9-22.6-2-1.8-3.1-4.2-3.3-6.8zm57.3 64.8c-0.2-3.3 1.3-6.6 4.2-8.7 4.5-3.1 10.7-2 13.9 2.5 6.4 9.1 12.6 18.7 18.2 28.4 2.8 4.8 1.2 10.9-3.5 13.6-4.8 2.8-10.9 1.2-13.6-3.6-5.4-9.2-11.2-18.3-17.4-27-1.1-1.6-1.7-3.4-1.8-5.2zm44.1 361.9c-0.1-1.3 0.1-2.7 0.7-4.1 3.8-9.9 7.3-20.2 10.3-30.5 1.5-5.2 7-8.2 12.3-6.7 5.3 1.5 8.3 7 6.7 12.3-3.1 10.8-6.8 21.6-10.8 32.1-2 5.1-7.8 7.6-12.9 5.6-3.7-1.4-6.1-4.9-6.3-8.7zm-2.6-286c-0.2-4.2 2.2-8.1 6.2-9.8 5.1-2.1 10.9 0.4 12.9 5.4 4.3 10.4 8.1 21.2 11.5 31.9 1.6 5.2-1.3 10.8-6.5 12.4-5.3 1.7-10.8-1.3-12.5-6.5-3.1-10.2-6.8-20.4-10.8-30.2q-0.7-1.6-0.8-3.2zm24.6 202.4q-0.1-1 0.1-2c1.5-10.6 2.6-21.3 3.3-32 0.3-5.5 5-9.7 10.5-9.3 5.4 0.3 9.6 5 9.3 10.5-0.7 11.2-1.8 22.5-3.5 33.7-0.8 5.4-5.8 9.1-11.2 8.4-4.8-0.7-8.2-4.7-8.5-9.3zm-1.1-119.3c-0.2-5 3.3-9.5 8.3-10.3 5.5-0.9 10.6 2.8 11.5 8.2 1.8 11.1 3.1 22.4 4 33.6q0 0.1 0 0.2c0.3 5.4-3.7 10-9.1 10.5-5.5 0.4-10.3-3.7-10.7-9.2-0.8-10.6-2.1-21.4-3.8-31.9q-0.1-0.5-0.2-1.1z"/>
						<path class="s1" d="m3152.9 1383.7c-0.1-2 0.3-4 1.4-5.8 2.7-4.3 5.4-8.8 7.9-13.3 2.7-4.8 8.7-6.5 13.5-3.8 4.8 2.7 6.5 8.7 3.8 13.5-2.6 4.7-5.4 9.5-8.2 14-2.9 4.7-9 6.2-13.7 3.3-2.9-1.8-4.5-4.8-4.7-7.9z"/>
					</g>
					<g style="opacity: .3">
						<path class="s1" d="m2906.2 1559.1c-0.3-4.8 3-9.2 7.8-10.2 5-1.1 10.1-2.3 15.1-3.6 5.3-1.4 10.7 1.8 12.1 7.1 1.4 5.3-1.8 10.7-7.1 12.1-5.3 1.4-10.6 2.6-15.8 3.8-5.4 1.2-10.7-2.2-11.9-7.6q-0.1-0.8-0.2-1.6z"/>
						<path class="s1" d="m2437.3 1203.6q-0.4-6.9-0.5-13.8c-0.1-5.5 4.2-10 9.7-10.1 5.5-0.2 10 4.2 10.1 9.7 0.3 10.6 1 21.2 2 31.6 0.6 5.4-3.3 10.3-8.8 10.9-5.4 0.5-10.3-3.4-10.9-8.9-0.7-6.4-1.2-12.9-1.6-19.4zm1.9-66.2q-0.1-0.8 0-1.6c1.3-11.1 3-22.1 5.2-33 1-5.3 6.3-8.8 11.7-7.8 5.3 1.1 8.8 6.3 7.7 11.7-2 10.3-3.7 20.8-4.8 31.3-0.7 5.4-5.6 9.4-11 8.7-4.9-0.5-8.5-4.5-8.8-9.3zm8.8 137.1c-0.3-4.7 2.8-9 7.5-10.2 5.3-1.3 10.7 1.9 12 7.3 2.6 10.1 5.5 20.4 8.9 30.3 1.8 5.2-1 10.9-6.2 12.6-5.2 1.8-10.8-1-12.6-6.2-3.5-10.5-6.7-21.3-9.3-32q-0.3-0.9-0.3-1.8zm10-220.1c0-1.2 0.1-2.5 0.6-3.8 3.6-10.4 7.7-20.9 12.2-31 2.3-5 8.1-7.2 13.1-5 5.1 2.2 7.3 8.1 5.1 13.1-4.3 9.6-8.2 19.5-11.7 29.4-1.8 5.2-7.4 7.9-12.6 6.1-3.9-1.3-6.4-4.9-6.7-8.8zm19.4 299.9c-0.2-3.8 1.8-7.6 5.5-9.4 4.9-2.5 10.9-0.5 13.3 4.4 4.7 9.4 9.9 18.7 15.4 27.7 2.8 4.6 1.3 10.7-3.3 13.6-4.7 2.9-10.8 1.4-13.7-3.3-5.8-9.4-11.2-19.2-16.1-29.1-0.7-1.3-1-2.6-1.1-3.9zm46.3 71.4c-0.2-3 1-6.1 3.6-8.2 4.2-3.5 10.5-2.9 14 1.4 6.6 8.1 13.7 16.1 21 23.6 3.8 4 3.7 10.3-0.3 14.1-3.9 3.8-10.2 3.7-14-0.3-7.7-7.9-15.1-16.3-22.1-24.9-1.4-1.7-2.1-3.7-2.2-5.7zm60.7 59.7c-0.2-2.4 0.5-4.7 2.1-6.7 3.4-4.3 9.6-5.1 13.9-1.7 8.3 6.5 16.9 12.8 25.7 18.5 4.6 3.1 5.8 9.2 2.8 13.8-3 4.6-9.2 5.8-13.8 2.8-9.2-6.1-18.3-12.6-27-19.5-2.3-1.8-3.6-4.5-3.7-7.2zm72.2 44.9c-0.1-1.6 0.2-3.2 1-4.8 2.3-4.9 8.3-7 13.2-4.7 9.5 4.6 19.3 8.8 29.1 12.5 5.1 1.9 7.7 7.7 5.8 12.8-2 5.1-7.7 7.7-12.8 5.8-10.4-4-20.7-8.4-30.7-13.1-3.3-1.7-5.4-5-5.6-8.5zm80.4 28.1q-0.1-1.4 0.3-2.8c1.2-5.3 6.5-8.7 11.8-7.5 10.3 2.4 20.7 4.3 31.2 5.8 5.4 0.7 9.2 5.8 8.4 11.2-0.8 5.4-5.8 9.2-11.2 8.4-11-1.5-22-3.5-32.8-6-4.4-1-7.4-4.8-7.7-9.1zm84.6 9.7q0-0.4 0-0.7c0-5.4 4.4-9.9 9.9-9.8 7.8 0 15.6-0.2 23.3-0.6q4.2-0.3 8.4-0.6c5.4-0.4 10.2 3.6 10.6 9.1 0.6 5.5-3.6 10.3-9.1 10.7q-4.4 0.3-8.8 0.6c-8.1 0.4-16.3 0.6-24.5 0.6-5.2 0-9.5-4.1-9.8-9.3z"/>
						<path class="s1" d="m2494.9 977.4c-0.2-2 0.3-4 1.4-5.8 2.9-4.6 5.9-9.2 8.9-13.6 3.1-4.6 9.3-5.8 13.8-2.7 4.5 3.1 5.7 9.3 2.6 13.8-2.9 4.3-5.7 8.7-8.4 13-2.9 4.6-9 6.1-13.7 3.2-2.8-1.8-4.5-4.8-4.6-7.9z"/>
					</g>
					<g>
						<path class="s1" d="m2610.6 984.3c-1.5 1.3-1.9 3.4-1.1 5.3l22.4 51.8c-14.9 21.8-26.4 46.1-33.8 72.2l-54.1 16c-1.9 0.5-3.2 2.2-3.3 4.2l-3.1 67.7c0 2 1.1 3.8 3 4.5l52.4 20.8c5.1 26.7 14.4 51.9 27.3 74.9l-27 49.6c-1 1.8-0.7 3.9 0.6 5.4l45.7 50c1.4 1.4 3.5 1.9 5.3 1.1l51.8-22.5c21.8 14.9 46.1 26.5 72.2 33.8l16 54.2c0.6 1.9 2.3 3.2 4.3 3.3l67.7 3c1.9 0.1 3.7-1.1 4.5-2.9l20.7-52.5c26.7-5 51.9-14.3 75-27.2l49.6 27c1.7 0.9 3.9 0.7 5.3-0.7l50-45.7c1.5-1.3 1.9-3.4 1.1-5.3l-22.4-51.8c14.9-21.8 26.4-46.1 33.8-72.2l54.1-16c1.9-0.5 3.3-2.2 3.3-4.2l3.1-67.7c0.1-2-1.1-3.8-3-4.5l-52.4-20.8c-5-26.7-14.4-51.9-27.3-74.9l27-49.6c1-1.8 0.7-3.9-0.6-5.4l-45.7-50c-1.4-1.4-3.5-1.9-5.3-1.1l-51.8 22.4c-21.8-14.8-46.1-26.4-72.2-33.7l-16-54.2c-0.6-1.9-2.3-3.2-4.3-3.3l-67.7-3c-1.9-0.1-3.7 1.1-4.5 2.9l-20.7 52.5c-26.7 5-51.9 14.3-75 27.2l-49.6-27c-1.7-0.9-3.9-0.7-5.3 0.7z"/>
						<path class="s2" d="m2768.3 1184.7c-1.9-33.1 20.8-63.6 54.3-70.5 36.8-7.5 72.9 16.3 80.4 53 3.7 17.9 0.2 36-9.8 51.2-10 15.2-25.4 25.6-43.2 29.2-36.8 7.6-72.8-16.2-80.4-53q-1-4.9-1.3-9.9zm120.1-6.6q-0.2-3.8-1-7.7c-5.7-28.2-33.4-46.4-61.6-40.6-28.2 5.8-46.4 33.4-40.6 61.7 5.8 28.2 33.4 46.4 61.6 40.6 13.7-2.8 25.4-10.8 33.1-22.4 6.2-9.5 9.2-20.5 8.5-31.6z"/>
						<path class="s3" d="m2670.2 1191.7q-0.5-8.6-0.1-17.3 0.1-2.7 0.3-5.4c0.7-8.9 2.1-17.8 4.2-26.5q0-0.2 0.1-0.3 0.1-0.5 0.2-1 0.3-1 0.5-2c0.5-1.7 2-2.9 3.6-3q0.7 0 1.3 0.2c2.1 0.5 3.4 2.7 2.8 4.8-2.9 10.9-4.6 22.2-5.1 33.6-2.5 56.5 24.8 107.5 67.9 137.8 24 16.8 52.9 27.3 84.3 28.7q8.3 0.3 16.5-0.1c36.5-2.1 70.9-16.5 98.3-41.6 31.4-28.7 49.8-68 51.7-110.5 3.9-87.9-64.4-162.6-152.2-166.5q-8.1-0.4-16.2 0.1c-23.3 1.3-46.1 7.7-66.6 18.8q-0.8 0.4-1.7 0.5c-1.5 0.1-3-0.7-3.7-2.1-1.1-1.9-0.4-4.3 1.6-5.4 21.6-11.6 45.5-18.4 69.9-19.7q8.5-0.5 17-0.1c92.3 4.1 164 82.5 159.8 174.7-2 44.7-21.2 85.9-54.3 116.1-28.7 26.3-64.8 41.4-103.2 43.6q-8.5 0.5-17.2 0.1c-44.7-2-85.9-21.3-116.1-54.3-26.3-28.7-41.5-64.9-43.6-103.2z"/>
					</g>
				</g>
				<g>
					<g style="opacity: .3">
						<path class="s1" d="m2480.7 476.2c-0.1-2.6 1.5-5.2 4.1-6.1 4.9-1.8 9.9-3.4 14.9-4.8 3.3-1 6.7 0.9 7.6 4.2 1 3.2-0.9 6.6-4.2 7.6-4.7 1.3-9.5 2.9-14.2 4.5-3.2 1.2-6.7-0.5-7.8-3.7q-0.3-0.8-0.4-1.7z"/>
						<path class="s1" d="m2526.4 464.5c-0.1-3.1 2.1-5.9 5.2-6.4 8.8-1.4 17.9-2.3 26.8-2.8q2.8-0.2 5.7-0.3c3.4-0.1 6.1 2.7 6.3 5.9 0.2 3.4-2.5 6.2-5.9 6.4q-2.7 0.1-5.4 0.2c-8.5 0.5-17.1 1.4-25.6 2.8-3.3 0.5-6.5-1.8-7-5.1q0-0.3-0.1-0.7zm63.7-2.2q-0.1-0.4 0-0.9c0.3-3.4 3.3-5.8 6.6-5.6 10.9 1 21.7 2.6 32.3 4.9 3.3 0.7 5.4 3.9 4.7 7.2-0.7 3.3-3.9 5.5-7.2 4.8-10.2-2.2-20.5-3.7-30.8-4.6-3.1-0.3-5.5-2.8-5.6-5.8zm62.2 13.3q0-1.2 0.4-2.4c1.1-3.2 4.6-4.9 7.8-3.8 10.2 3.6 20.4 7.8 30.1 12.6 3.1 1.5 4.3 5.2 2.8 8.3-1.5 3-5.2 4.2-8.2 2.7-9.3-4.5-19-8.6-28.7-12-2.5-0.8-4-3-4.2-5.4zm57.2 28.1c-0.1-1.2 0.2-2.5 1-3.7 1.8-2.8 5.6-3.6 8.4-1.7 9.1 5.9 17.9 12.5 26.2 19.6 2.5 2.2 2.8 6 0.7 8.6-2.2 2.6-6.1 2.9-8.7 0.7-7.8-6.7-16.2-13-24.9-18.7-1.7-1.1-2.6-2.9-2.7-4.8zm48.5 41.3c-0.1-1.8 0.5-3.6 1.9-4.9 2.5-2.3 6.4-2.1 8.7 0.4 7.3 8 14.3 16.5 20.6 25.3 1.9 2.8 1.3 6.6-1.5 8.6-2.7 2-6.6 1.3-8.5-1.4-6-8.4-12.6-16.6-19.6-24.2-1-1.1-1.6-2.4-1.6-3.8zm37 51.8c-0.2-2.3 1-4.6 3.2-5.8 2.9-1.6 6.7-0.5 8.3 2.5 5.2 9.5 9.8 19.5 13.7 29.6 1.3 3.1-0.3 6.7-3.4 7.9-3.2 1.3-6.8-0.3-8-3.4-3.8-9.7-8.2-19.2-13.1-28.2-0.5-0.9-0.7-1.8-0.7-2.6zm23.2 59.2c-0.2-2.9 1.7-5.5 4.6-6.3 3.3-0.8 6.6 1.2 7.4 4.5 2.7 10.4 4.8 21.2 6.1 32 0.4 3.4-1.9 6.5-5.3 6.9-3.3 0.4-6.4-2-6.8-5.3-1.3-10.3-3.3-20.6-5.8-30.6q-0.2-0.6-0.2-1.2zm6.1 95q0-0.5 0-1.1c1.1-8.8 1.7-17.9 1.8-27q0.1-2 0-4c0-3.4 2.8-6.2 6.2-6.2 3.3 0 6.2 2.7 6.1 6.1q0 2.1 0 4.3c-0.1 9.5-0.8 19-1.9 28.3-0.4 3.4-3.4 5.8-6.8 5.4-3-0.4-5.2-2.9-5.4-5.8z"/>
					</g>
					<g style="opacity: .3">
						<path class="s1" d="m2309.4 738.2c-0.2-3.4 2.3-6.2 5.7-6.5 3.3-0.2 6.3 2.3 6.5 5.7 0.7 10.2 2 20.4 4 30.4 0.6 3.3-1.6 6.5-4.9 7.2-3.3 0.6-6.5-1.6-7.2-4.9-2-10.5-3.4-21.2-4.1-31.8q0-0.1 0-0.1zm-0.3-31.4q-0.1-0.3 0-0.7c0.5-10.6 1.7-21.4 3.5-31.9 0.6-3.3 3.8-5.5 7.1-5 3.3 0.6 5.6 3.8 5 7.1-1.7 10-2.9 20.3-3.4 30.5-0.2 3.3-3 5.9-6.4 5.8-3.2-0.2-5.7-2.7-5.8-5.8zm12.1 92.9c-0.1-2.8 1.5-5.3 4.2-6.2 3.3-1.1 6.7 0.7 7.8 3.9 3.1 9.7 6.9 19.3 11.2 28.5 1.4 3.1 0 6.8-3 8.2-3.1 1.4-6.7 0.1-8.2-3-4.5-9.7-8.4-19.7-11.7-29.9q-0.2-0.8-0.3-1.5zm-1.4-154.6q-0.1-1.1 0.2-2.1c3.1-10.3 6.9-20.4 11.2-30.2 1.3-3.1 5-4.5 8.1-3.1 3 1.4 4.4 5 3.1 8.1-4.1 9.3-7.7 19-10.7 28.7-0.9 3.2-4.4 5.1-7.6 4.1-2.5-0.8-4.2-3-4.3-5.5zm27.8 211.3c-0.1-2.1 0.9-4.3 2.9-5.5 2.8-1.8 6.6-0.9 8.4 2 5.4 8.6 11.3 17 17.7 24.9 2.2 2.7 1.7 6.5-0.9 8.7-2.7 2.1-6.5 1.7-8.6-1-6.7-8.3-13-17.1-18.6-26.2-0.6-0.9-0.9-1.9-0.9-2.9zm39.2 48.8c-0.1-1.6 0.5-3.3 1.7-4.6 2.4-2.4 6.3-2.5 8.7-0.1 7.3 7.1 15.1 13.9 23.2 20 2.7 2.1 3.2 6 1.1 8.6-2 2.7-5.9 3.2-8.6 1.2-8.4-6.5-16.6-13.5-24.3-21-1.1-1.1-1.7-2.6-1.8-4.1zm49.8 38.1c-0.1-1.2 0.2-2.4 0.8-3.5 1.7-2.9 5.5-3.9 8.4-2.2 8.8 5.2 18 9.9 27.3 13.9 3.1 1.4 4.6 5 3.2 8.1-1.3 3.1-4.9 4.5-8.1 3.2-9.7-4.3-19.4-9.2-28.6-14.6-1.8-1.1-2.9-3-3-4.9z"/>
						<path class="s1" d="m2345.2 587.5c-0.1-1.2 0.2-2.4 0.9-3.5 2.6-4.5 5.5-8.9 8.4-13.2 1.9-2.8 5.7-3.5 8.5-1.6 2.8 1.9 3.5 5.7 1.6 8.5-2.7 4.1-5.5 8.3-8 12.6-1.8 2.9-5.5 3.9-8.4 2.1-1.8-1-2.9-2.9-3-4.9z"/>
					</g>
					<g>
						<path class="s1" d="m2424.6 588.2c-1 0.8-1.3 2.3-0.8 3.5l15 34.7c-9.9 14.5-17.6 30.8-22.6 48.3l-36.2 10.7c-1.3 0.3-2.2 1.5-2.2 2.8l-2 45.3c-0.1 1.3 0.7 2.5 1.9 3l35.1 13.9c3.4 17.9 9.6 34.8 18.2 50.2l-18 33.2c-0.6 1.1-0.5 2.6 0.4 3.5l30.6 33.5c0.9 1 2.3 1.3 3.5 0.7l34.7-15c14.6 10 30.9 17.7 48.3 22.6l10.7 36.3c0.4 1.2 1.6 2.1 2.9 2.2l45.3 2c1.3 0.1 2.5-0.7 3-2l13.9-35.1c17.8-3.3 34.7-9.6 50.1-18.2l33.2 18.1c1.2 0.6 2.6 0.4 3.6-0.5l33.5-30.6c0.9-0.9 1.2-2.3 0.7-3.5l-15-34.7c10-14.5 17.7-30.8 22.6-48.3l36.2-10.7c1.3-0.4 2.2-1.5 2.2-2.8l2.1-45.3c0-1.3-0.8-2.5-2-3l-35.1-13.9c-3.4-17.9-9.6-34.8-18.2-50.2l18-33.2c0.7-1.1 0.5-2.6-0.4-3.5l-30.6-33.5c-0.9-1-2.3-1.3-3.5-0.7l-34.7 15c-14.6-10-30.8-17.7-48.3-22.6l-10.7-36.3c-0.4-1.2-1.5-2.1-2.9-2.2l-45.2-2c-1.4-0.1-2.6 0.7-3.1 2l-13.9 35.1c-17.8 3.3-34.7 9.6-50.1 18.2l-33.2-18.1c-1.2-0.6-2.6-0.4-3.6 0.5z"/>
						<path class="s4" d="m2529.3 722.3c-0.6-9.9 2-19.7 7.6-28.1 6.8-10.3 17.2-17.4 29.4-19.9 25-5.1 49.6 11.1 54.8 36.1 5.1 25.1-11.1 49.6-36.2 54.8-12.1 2.5-24.5 0.1-34.8-6.7-10.4-6.8-17.4-17.3-19.9-29.4q-0.7-3.4-0.9-6.8zm80.4-4.5q-0.2-2.4-0.7-4.9c-3.8-18.5-21.8-30.4-40.3-26.6-8.9 1.9-16.6 7.1-21.6 14.7-5 7.6-6.7 16.7-4.9 25.6 1.8 8.9 7 16.6 14.6 21.6 7.6 5.1 16.8 6.8 25.7 5 16.7-3.5 28.1-18.7 27.2-35.4z"/>
						<path class="s5" d="m2461 727q-0.3-5.8-0.1-11.8c0.4-7.8 1.5-15.6 3.4-23.2q0.2-0.6 0.3-1.1c0.7-2.6 3-4.4 5.6-4.5q0.9-0.1 1.9 0.2c3.3 0.8 5.2 4.2 4.4 7.4-1.9 7.1-3 14.4-3.3 21.8q-0.1 0.6-0.1 1.2c-0.6 17.4 3.2 34.3 10.7 49.4 4.1 8.2 9.4 16 15.7 23q0.1 0.1 0.1 0.2 0.3 0.2 0.5 0.5c18.6 20.3 44.1 32.2 71.6 33.4q5.4 0.3 10.6 0c23.7-1.3 46-10.7 63.7-26.9 20.4-18.6 32.2-44 33.5-71.6 1.2-27.5-8.4-53.9-27-74.3-18.6-20.3-44-32.2-71.6-33.5q-5.2-0.2-10.5 0.1c-15 0.9-29.8 5-43.1 12.2q-1.2 0.7-2.6 0.7c-2.2 0.2-4.5-1-5.7-3.2-1.6-3-0.5-6.7 2.5-8.3 14.9-8 31.4-12.7 48.2-13.6q5.9-0.4 11.8-0.1c30.8 1.4 59.2 14.7 80.1 37.4 20.8 22.8 31.5 52.3 30.1 83.2-1.4 30.8-14.7 59.2-37.4 80-19.9 18.2-44.8 28.6-71.3 30.1q-5.9 0.4-11.8 0.1c-59.7-2.7-106.9-50.4-110.2-108.8z"/>
					</g>
				</g>
			</g>
			<g>
				<path class="s6" d="m2341.4 1067.7c-8-0.2-14.4-6.6-14.6-14.7-1.5-82.1-27.1-489.8-386.1-575-399.8-94.8-582.7 311.7-582.7 311.7 0 0-494.6-189.7-589.5 318.4-310.1 74.5-390.7 479.5-188.9 677.4 32 31.4 75 49.2 119.9 49.6l1942.1 17.5c57 0.5 107.6-36.8 123.8-91.5 60.6-204.7 140.2-680.2-424-693.4z"/>
				<path class="s7" d="m2297 1076.4c-7.9-0.2-14.4-6.6-14.5-14.6-1.6-78.8-27-456.8-365.2-536.1-378-88.6-550.9 291.1-550.9 291.1 0 0-467.7-177.2-557.4 297.3-290.4 68.9-367.9 440.5-184.1 627.2 32.2 32.7 76.1 51.3 122 51.7l1828.3 16.3c57.2 0.5 107.8-37 123.9-91.8 57-194.4 124.6-628.5-402.1-641.1z"/>
			</g>
			<g>
				<path class="s1" d="m3254.5 1213c5.3-12.8-12-24.7-24.9-17.3-131.6 75-456.9 310.9-468.5 814.9-14.6 632.3-200.8 833.2-409.1 940.2 0 0 265.5-22.7 463.6-225.1 486.1-496.9 344.6-1285.9 438.9-1512.7z"/>
				<path class="s8" d="m3134.3 1391.5c-25.8 66.4-50.1 133.2-71.5 200.9-21.9 67.5-41.3 135.7-58.2 204.4-16.7 68.8-31.8 137.9-43.5 207.6-12 69.6-20.6 139.8-28.9 210.2-8.8 70.4-17.2 141.3-34 211.4-16.7 70-43.4 138.9-83.9 200.9-10.2 15.5-20.7 30.9-32.2 45.5-11.1 14.8-23.1 29.1-35.3 43.3-24.6 28.2-51.6 54.9-80.8 79.7-58.5 49.4-126 90.7-198.3 123.2-7.6 3.4-17.2 0.6-21.5-6.1-4.2-6.7-1.7-14.8 5.6-18.3v-0.1c17.3-8.3 34.5-16.8 51.1-25.9 8.4-4.5 16.5-9.3 24.8-13.9 8-5 16.3-9.6 24.1-14.7 31.7-20.1 61.7-42.2 89.5-66.1 55.9-47.6 103.5-103.1 142.4-162.3 19.1-29.8 35.5-60.9 49.1-93.1 13.5-32.2 24.2-65.5 32.6-99.5 16.9-67.9 25.9-138 35.3-208.3 9.4-70.3 19.5-140.8 32.9-210.8q9.9-52.4 22-104.5c3.9-17.3 8.2-34.6 12.5-51.9q6.6-25.9 13.7-51.6c19-68.7 40.5-136.7 64.5-204 24.3-67.1 50.7-133.5 80.1-198.9 0.8-1.8 3.2-2.7 5.4-1.9 2.2 0.8 3.2 2.9 2.5 4.8z"/>
			</g>
			<g>
				<g>
					<path class="s7" d="m2657.4 2659.3c7.7 20.3 33.6 26.1 49.5 11.3 87.5-81.9 313.9-335.6 285.1-748.2-24.3-348.3-4.3-539.6 10.7-625.7 3.2-18.3-18.7-30-32.1-17.2-147.7 140.9-592.1 644.1-313.2 1379.8z"/>
					<path class="s8" d="m2686.8 2659q0.7 0.4 1.5 0.7c4.3 1.8 9.2-0.4 11-4.7 1.9-4.9 195.7-498.8 183.8-984.7-0.1-4.7-4-8.4-8.7-8.3-4.6 0.1-8.3 4-8.2 8.7 11.8 482.4-180.7 973.1-182.7 978-1.5 3.9-0.1 8.1 3.3 10.3z"/>
				</g>
			</g>
			<g>
				<g>
					<path class="s9" d="m2798.2 2867.3c0 22-18 40.1-40.1 40.1h-2170.8c-22.1 0-40.2-18.1-40.2-40.1l-18-1247.5c0-22.1 26-65.2 73.6-61.9l2121.5-54.9c27.7-0.7 54.5 9.9 74.1 29.5 19.7 19.5 30.4 46.3 29.7 74z"/>
					<path class="s10" d="m2758.6 2828.8c0 20.9-17.1 38-38 38h-2081c-20.9 0-38-17.1-38-38l-17-1132.5c2-68.2 61.8-92.6 98-91.2l2033.3-54.6c19.5-0.5 38.3 7 52.1 20.8 13.7 13.7 21.3 32.5 20.8 52z"/>
					<g>
						<path class="s7" d="m624.1 2288.6c-1.8 0-3.3-1.5-3.3-3.3l-1.4-91.9c0-1.8 1.5-3.4 3.3-3.4 2-0.1 3.4 1.5 3.4 3.3l1.4 91.9c0 1.8-1.5 3.3-3.3 3.4z"/>
						<path class="s7" d="m620.8 2063.5c-1.8 0-3.3-1.5-3.3-3.3l-5.2-351.8c0.1-23.5 7.4-42.4 21.6-56 25.9-24.8 66.3-23.5 68-23.5l649.3-17.4q0.1 0 0.1 0c1.9 0 3.4 1.4 3.4 3.3 0 1.8-1.4 3.4-3.3 3.4l-649.5 17.4c-1.8 0-39.5-1.2-63.3 21.6-12.9 12.4-19.5 29.6-19.6 51.2l5.2 351.7c0 1.9-1.5 3.4-3.3 3.4 0 0-0.1 0-0.1 0z"/>
					</g>
					<path class="s11" d="m693.3 2766c2.2-93.6 1.4-922.5-4-994.1-5.3-71.6 106.1-85 277.3-93.1 171.2-8 1615.4-39.9 1652.6-42.9 83.6-6.8 115.8 28.4 92.5 389.4-13.1 203.4-16.7 539.4-21.5 693.8-1.4 45.9-39 82.4-85 82.5-347.5 1-1679.5 4.8-1768.2 7.4-102 3.1-144.5-5.9-143.7-43z"/>
				</g>
				<path class="s12" d="m2934.7 2971.1h-2472.6c-4.2 0-7.5-3.4-7.5-7.6v-94.6c0-4.1 3.3-7.5 7.5-7.5h2472.6c4.1 0 7.5 3.4 7.5 7.5v94.6c0 4.2-3.4 7.6-7.5 7.6z"/>
				<path class="s6" d="m834.2 1878.1h1765.9c16.7 0 30.3-13.6 30.3-30.3v-80.9c0-16.7-13.6-30.2-30.3-30.2h-1765.9c-16.7 0-30.2 13.5-30.2 30.2v80.9c0 16.7 13.5 30.3 30.2 30.3z"/>
				<path class="s6" d="m830.5 2741.9h1761.2c21.4 0 38.7-17.3 38.7-38.6v-64.1c0-21.4-17.3-38.7-38.7-38.7h-1761.2c-21.3 0-38.6 17.3-38.6 38.7v64.1c0 21.3 17.3 38.6 38.6 38.6z"/>
				<path class="s6" d="m830.9 2569.4h712.7c21.6 0 39-17.5 39-39v-94.5c0-21.6-17.4-39-39-39h-712.7c-21.6 0-39 17.4-39 39v94.5c0 21.5 17.4 39 39 39z"/>
				<path class="s6" d="m846.4 2360.1h688.9c26.1 0 47.3-21.2 47.3-47.3v-343.8c0-26.1-21.2-47.3-47.3-47.3h-688.9c-26.1 0-47.3 21.2-47.3 47.3v343.8c0 26.1 21.2 47.3 47.3 47.3z"/>
				<path class="s6" d="m1668.5 2569.4h914.9c26.1 0 47.3-21.2 47.3-47.3v-555.3c0-26.1-21.2-47.3-47.3-47.3h-914.9c-26.1 0-47.3 21.2-47.3 47.3v555.3c0 26.1 21.2 47.3 47.3 47.3z"/>
			</g>
			<g>
				<g>
					<path fill-rule="evenodd" class="s8" d="m1433.7 1118.6l-105.8-57 51.5-104.1-66.7 20-51.5 104 105.7 57.1z"/>
				</g>
				<g>
					<path fill-rule="evenodd" class="s8" d="m1388 1871.4l98 69.6-64 96.9 68.7-11.6 64-96.9-98-69.6z"/>
				</g>
				<path class="s8" d="m1481.6 1910.7c-12.3 1.1-24.8 1.7-37.4 1.7-230 0-416.5-186.5-416.5-416.5 0-143.1 72.2-269.3 182.1-344.3 6.5-4.4 8.5-13.1 4.6-19.9q-6.4-11.3-12.5-22.6c-5.8-11-19.9-14.4-30-7.3-124.2 86.3-205.4 229.9-205.4 392.5 0 263.9 213.9 477.8 477.7 477.8 15.2 0 30.2-0.8 45-2.1-5.2-19.6-7.2-39.4-7.6-59.3z"/>
				<path class="s8" d="m1448.4 1016.5c-43.7-0.3-86.1 5.2-126.4 15.9 1 7.1 1.1 14.6 4.3 21.1 4.2 13.1 8.2 26.3 11.9 39.5 33.9-8.9 69.4-13.6 106-13.6 229.6 0 417 187.7 416.5 417.3-0.3 164.2-95.7 306.2-234 373.7-8.5 4.1-12.7 13.8-10.1 22.8q2.9 10.3 5.9 20.5c3.3 11.5 16.1 17.3 26.9 12.2 161.2-76.8 272.6-241.2 272.6-431.6 0-262.8-210.8-475.5-473.6-477.8z"/>
			</g>
			<g>
				<g>
					<path class="s13" d="m1588.4 1570.4c0 242.7 204.2 439.5 456.1 439.5 251.9 0 467.3-205.4 467.3-448.1 0-242.7-215.4-430.8-467.3-430.8-251.9 0-456.1 196.7-456.1 439.4z"/>
					<g>
						<path class="s7" d="m2476 1463.6q0.4 0 0.8-0.1c1.7-0.5 2.7-2.1 2.3-3.7-4.9-17.8-11.2-35.4-18.7-52.4-0.6-1.5-2.5-2.2-4.1-1.6-1.6 0.6-2.3 2.4-1.7 4 7.4 16.7 13.6 34 18.4 51.5 0.4 1.4 1.6 2.3 3 2.3z"/>
						<path class="s7" d="m2406.3 1326.2c0.7 0 1.4-0.2 1.9-0.6 1.4-1 1.7-2.9 0.6-4.2-84.5-108-220.6-172.5-364.1-172.5-61.2 0-120.5 12-176.1 35.6-1.6 0.7-2.3 2.5-1.6 4 0.7 1.6 2.5 2.2 4.1 1.6 54.8-23.3 113.2-35.1 173.6-35.1 141.6 0 275.8 63.6 359.1 170 0.6 0.8 1.6 1.2 2.5 1.2z"/>
					</g>
					<path class="s14" d="m1650.4 1570.4c0 210.1 176.8 380.4 394.8 380.4 218.1 0 404.6-177.7 404.6-387.8 0-210.1-186.5-373-404.6-373-218 0-394.8 170.3-394.8 380.4z"/>
					<path class="s15" d="m1692.2 1587.5c1 16.2 15.4 28.5 32.1 27.6 16.8-1 29.6-14.8 28.6-31-1-16.1-15.3-28.5-32.1-27.5-16.8 0.9-29.6 14.8-28.6 30.9z"/>
					<path class="s15" d="m2104.5 1850.4c-16.5 2.9-27.4 18.1-24.4 34 3 15.9 18.8 26.5 35.4 23.6 16.5-2.9 27.4-18.2 24.4-34.1-3-15.9-18.8-26.5-35.4-23.5z"/>
					<path class="s15" d="m1986.3 1226.8c-16.5 3-27.4 18.2-24.4 34.1 3 15.9 18.9 26.5 35.4 23.6 16.5-2.9 27.4-18.2 24.4-34.1-3-15.9-18.8-26.5-35.4-23.6z"/>
					<path class="s15" d="m1888.4 1867.1c-3 7.5-2.3 14.5 1.8 15.7 4 1.2 9.8-4 12.9-11.5 3.1-7.5 2.3-14.5-1.7-15.7-4.1-1.2-9.9 4-13 11.5z"/>
					<path class="s15" d="m1750.5 1754.7c-6.7 4.8-9.8 11.2-7 14.3 2.8 3 10.6 1.5 17.2-3.4 6.7-4.9 9.9-11.3 7-14.3-2.8-3-10.5-1.5-17.2 3.4z"/>
					<path class="s15" d="m1733.2 1419.8c-7.6-3.5-14.9-3.2-16.4 0.6-1.5 3.8 3.5 9.7 11 13.2 7.6 3.5 14.9 3.2 16.4-0.6 1.5-3.8-3.5-9.7-11-13.2z"/>
					<path class="s15" d="m2327.9 1713.4c-7.6-3.5-14.9-3.2-16.4 0.6-1.5 3.8 3.4 9.7 11 13.2 7.6 3.5 14.9 3.2 16.4-0.6 1.5-3.8-3.5-9.7-11-13.2z"/>
					<path class="s15" d="m1858.8 1294.7c-4.6-6.7-11-10.2-14.3-7.6-3.3 2.5-2.3 10 2.3 16.7 4.6 6.8 11 10.2 14.4 7.7 3.3-2.5 2.2-10-2.4-16.8z"/>
					<path class="s15" d="m2208.9 1843.2c-4.6-6.8-11-10.2-14.4-7.7-3.3 2.5-2.2 10 2.4 16.8 4.6 6.7 11 10.2 14.3 7.7 3.3-2.6 2.3-10.1-2.3-16.8z"/>
					<path class="s16" d="m2030.2 1185.7l11.3 382.2 408.3-4.9c4.6-198.1-180-373-419.6-377.3z"/>
					<path class="s17" d="m2053.2 1548.7l270.8-7.7c5.2-0.1 8.6-5.7 6.1-10.2l-14.8-26.4c-2.8-5.2 2.1-11.4 7.9-10l225.6 52.2c6.9 1.6 6.9 11.2-0.1 13.1l-223.5 62.6c-5.3 1.5-10.1-3.3-8.3-8.5l12.1-34.7c1.5-4.3-1.6-8.6-6.1-8.8l-270.2-8.1c-3.7-0.1-6.6-3.1-6.5-6.8 0.2-3.7 3.2-6.6 7-6.7z"/>
					<path class="s1" d="m2524.1 1558.5c2-1 3.3-3 3.3-5.4-0.1-2.7-1.9-4.9-4.7-5.5l-48.4-9.6c-1.7-0.3-3.4 0.7-3.8 2.4-0.4 1.6 0.7 3.3 2.4 3.6l48.4 9.6c-50.9 13.6-169.7 46.3-172 47.3-1.6 0.6-2.5 2.4-1.8 4 0.6 1.5 2.3 2.2 3.9 1.7 3.5-1.2 94.5-26.4 171.4-47.6q0.7-0.2 1.3-0.5z"/>
					<path class="s18" d="m2032 1547.1l0.5-230.1c0-5-5.7-8.2-10.4-5.7l-27.4 14.7c-5.4 2.9-11.7-1.8-10.2-7.5l56.8-219.9c1.7-6.8 11.6-6.9 13.5-0.2l61.5 216.1c1.5 5.1-3.6 9.8-8.9 8.2l-35.6-11.2c-4.3-1.4-8.9 1.7-9.1 6.1l-16.7 229.7c-0.1 3.6-3.3 6.5-7.1 6.4-3.8-0.1-6.8-3-6.9-6.6z"/>
					<path class="s1" d="m2097.4 1293.4q0.6 0 1.2-0.2c1.6-0.6 2.4-2.4 1.8-3.9-1.1-3.3-25.8-91.3-46.6-165.7-0.8-2.6-3.1-4.4-6-4.3-2.8 0.1-5.1 1.9-5.7 4.6l-10.6 47.2c-0.4 1.6 0.7 3.2 2.4 3.6 1.7 0.4 3.4-0.7 3.7-2.3l10.6-47.2c13.3 49.2 45.4 164 46.3 166.2 0.5 1.2 1.7 2 2.9 2z"/>
					<path fill-rule="evenodd" class="s19" d="m2047.3 1590.7c-18 0-32.5-14-32.5-31.3 0-17.3 14.5-31.3 32.5-31.3 17.9 0 32.4 14 32.4 31.3 0 17.3-14.5 31.3-32.4 31.3z"/>
					<path class="s15" d="m2152.6 1275.7c-3.1 7.5-2.3 14.5 1.7 15.7 4.1 1.2 9.9-4 13-11.5 3-7.5 2.3-14.5-1.8-15.7-4-1.2-9.8 4-12.9 11.5z"/>
					<path class="s15" d="m2295 1381.4c-6.7 4.9-9.9 11.3-7 14.3 2.8 3 10.5 1.5 17.2-3.4 6.7-4.8 9.8-11.2 7-14.2-2.8-3.1-10.6-1.6-17.2 3.3z"/>
				</g>
			</g>
			<g>
				<path class="s20" d="m1088.5 3098c0.5-0.2 224.7-392.8 255-429.8 5-6.2 12.9-9.3 20.9-8.4l62.6 7.5 73.5 159-122.5-71.3c12.2 83.8-145.2 208.4-199.1 253.8-5.5 4.6-6 12.9-1 18.1l21.5 22.5c-35.3 35.9-76.2 58.9-122.2 69.5z"/>
				<path class="s21" d="m1187 3037.2c0 0 13.7 4.5 18.4 16.7 2.2 5.9-0.2 12.5-5.3 16.2-22.6 16.2-97.3 68.6-131.8 78.8-2.8 0.9-5.5-1.7-4.9-4.6 1.8-8 7.5-24 26-47.4l-1.7 3.4c-2.1 4.2 2.5 8.6 6.6 6.3 23.1-13 70-41.5 92.7-69.4z"/>
				<path class="s22" d="m1175.9 3194.3c0.3-0.2 34-81.2 34.4-81.5 30.8-187.8 106-348.6 128.2-390.9 3.8-7.1 10.9-11.8 18.9-12.5l62.8-5.4 104.1 140.9-134.3-45c28.8 79.6-100.1 233.4-143.7 288.8-4.5 5.7-3.2 13.8 2.7 17.9l25.6 17.7c-27.4 42.3-62.7 73.1-105.6 92.9z"/>
				<path class="s23" d="m1260 3114.9c0 0 14.3 1.6 21.4 12.7 3.3 5.2 2.3 12.2-1.9 16.8-18.9 20.5-81.5 86.9-113.1 103.9-2.6 1.4-5.8-0.6-5.7-3.5 0.1-8.2 2.4-25 15.8-51.7l-1 3.7c-1.2 4.5 4.2 7.9 7.8 4.8 19.9-17.4 60.1-54.8 76.7-86.7z"/>
				<g>
					<path class="s24" d="m1714.1 2674.4c0 0 56.8 84.5 61.4 123 4.7 38.5-15.7 51.9-75.1 56.8-176.9 14.6-264.2-38.4-264.2-38.4-12.1-77.2-20.7-96.8-121.8-138.8 0 0 127.9 10.2 153.6 0.2 25.8-10 246.1-2.8 246.1-2.8z"/>
				</g>
				<g>
					<path class="s25" d="m1487.6 2201c0 0 39.5-46.8 81.6 10.6 7.6 10.4 36.9 1.9 47.6 23.6 5.5 11.3 17.5 17.7 29.8 15.4 30.7-5.7 80.9-6.2 105.6 41.9 19 36.8 4.4 58.2-14.5 70.5-13.9 9-18.9 27.3-10.5 41.5 8.1 13.7 9.6 32.2-11.2 54.5-46.6 49.9-138.8-31.7-138.8-31.7l-73.2-173z"/>
					<path class="s26" d="m1560.5 2663.2c0 0-66.2-63-98.8-104.7-17.6-22.6-23.1-52.3-14.9-79.7 14.8-50.1 41.2-101.9 43.7-110 3.6-12.4 77.8-11.9 77.8-11.9 0 0 146 94.8 203.3 255.2l-64.4 20.1c0 0-38.1-64-75.7-104.6 0 0 65.1 86 67.4 121.3z"/>
					<path class="s27" d="m1434.4 2688l49.7-54 57.4 15.4c0 0 67 10.4 105.3 0 38.3-10.3 38.3-10.3 38.3-10.3l86.5-27 13.6 38.4c3.5 9.8 0 20.6-8.4 26.6-7.5 5.3-16.3 11.2-21.9 13.6-11.4 5-262.6 1.6-262.6 1.6z"/>
					<path class="s28" d="m1517.3 2267.8l49.9 92.7c-3.3 20.2-54.3 20.8-62.1 8.7-0.8-1.3-1.3-2.7-1.6-4.1l-29.8-62c-1.3-6 15.3-26.3 20.7-29.2l19.8-10.6c7.6-4.1-24.2-4.4 3.1 4.5z"/>
					<g>
						<path class="s29" d="m1416.5 2246c0 0-5.7 31.3 18.9 71.1 24.7 39.9 49.2 38.1 61.6 23.9 12.5-14.2 27.4-37.9 20.6-77.6-6.8-39.7-92.6-57.3-101.1-17.4z"/>
						<path class="s30" d="m1487.8 2267.7c0 0-39.8-52.3-70.5-6.7l0.6 15.8c0 0-39.8-1.9-35.5-38.6 4.3-36.7 36.8-61.7 81.8-49.2 45.1 12.5 71.4 26.8 76.5 58.1 5.1 31.3-20.5 26.2-20.5 26.2 0 0-9.7-21.6-21.5-23.1-11.8-1.5-7.5 15.6-7.5 15.6z"/>
						<path class="s31" d="m1497 2266.3c0 0-20.7-26.8-1.9-32.3 18.8-5.6 18.1 26.2 16.9 38z"/>
					</g>
				</g>
				<g>
					<path class="s32" d="m1599 2709.4q-0.3 0.1-0.6 0.1l-228.6-0.3c-5.6 0-10.2-4.6-10.2-10.2 0-5.7 4.6-10.4 10.2-10.3l228.6 0.3c5.7 0 10.3 4.6 10.3 10.2 0 5.5-4.3 10-9.7 10.2z"/>
					<path class="s33" d="m1164.3 2501.9h190.4c14 0 26.8 8.1 32.8 20.8l88 186.6h-236.6c-9 0-17.2-5.5-20.5-13.9l-68.2-172.7c-4-10 3.4-20.8 14.1-20.8z"/>
					<path class="s6" d="m1298.4 2597.6c4.2 12.8 1.1 25.2-6.8 27.8-7.9 2.5-17.6-5.8-21.7-18.6-4.2-12.9-1.1-25.3 6.8-27.8 7.9-2.6 17.6 5.8 21.7 18.6z"/>
				</g>
			</g>
		</g>
	</g>
</svg>