<svg version="1.2" xmlns="http://www.w3.org/2000/svg" viewBox="0 0 2000 2000" width="2000" height="2000">
	<title>4949442_19719</title>
	<defs>
		<linearGradient id="g1" x2="1" gradientUnits="userSpaceOnUse" gradientTransform="matrix(492.736,0,0,492.737,252.532,620.317)">
			<stop offset="0" stop-color="#ff9f55"/>
			<stop offset="1" stop-color="#ffd255"/>
		</linearGradient>
		<linearGradient id="g2" x2="1" gradientUnits="userSpaceOnUse" gradientTransform="matrix(225.893,0,0,225.892,110.624,346.386)">
			<stop offset="0" stop-color="#ff9f55"/>
			<stop offset="1" stop-color="#ffd255"/>
		</linearGradient>
		<linearGradient id="g3" x2="1" gradientUnits="userSpaceOnUse" gradientTransform="matrix(-935.203,0,0,-95.42,1797.072,605.855)">
			<stop offset="0" stop-color="#40d5e6"/>
			<stop offset="1" stop-color="#5577ff"/>
		</linearGradient>
	</defs>
	<style>
		.s0 { fill: #97a43c } 
		.s1 { fill: #bbd070 } 
		.s2 { fill: #48753a } 
		.s3 { fill: url(#g1) } 
		.s4 { fill: url(#g2) } 
		.s5 { fill: #b5deff } 
		.s6 { fill: #ffffff } 
		.s7 { fill: url(#g3) } 
		.s8 { fill: #ffdf69 } 
		.s9 { fill: #f2f9ff } 
		.s10 { fill: #deba35 } 
		.s11 { fill: #f0f0f0 } 
		.s12 { fill: #c9c9c9 } 
		.s13 { fill: #a3a3a3 } 
		.s14 { fill: #ffd255 } 
		.s15 { fill: #ffd179 } 
		.s16 { fill: #2a3875 } 
		.s17 { fill: #eea886 } 
		.s18 { fill: #5f8cc9 } 
		.s19 { fill: #1b4d8f } 
		.s20 { fill: #3a3f47 } 
		.s21 { fill: #a77860 } 
		.s22 { fill: #b8973d } 
		.s23 { fill: #5e5853 } 
		.s24 { fill: #91887f } 
		.s25 { fill: #6e6760 } 
		.s26 { fill: #807066 } 
		.s27 { fill: #db9c7c } 
		.s28 { fill: #384c9e } 
		.s29 { fill: #4da8f2 } 
		.s30 { fill: #efaa88 } 
		.s31 { fill: #424773 } 
		.s32 { fill: #292c47 } 
		.s33 { fill: #fccca2 } 
		.s34 { fill: #e2d2ca } 
		.s35 { fill: #dfe1e8 } 
		.s36 { fill: #5586ad } 
		.s37 { fill: #323657 } 
		.s38 { fill: #252840 } 
		.s39 { fill: #c4b4af } 
		.s40 { fill: #eb4747 } 
		.s41 { fill: #6880eb } 
		.s42 { fill: #4a64e0 } 
		.s43 { fill: #4860cf } 
		.s44 { fill: #eddad3 } 
		.s45 { fill: #deccc6 } 
		.s46 { fill: #e3d1ca } 
		.s47 { fill: #b39696 } 
		.s48 { fill: #dbb8b8 } 
		.s49 { fill: #f2cbcb } 
		.s50 { fill: #323438 } 
		.s51 { fill: #cac7d1 } 
		.s52 { fill: #1d2033 } 
		.s53 { fill: #eea987 } 
		.s54 { fill: #a09ea6 } 
		.s55 { fill: #eae6f2 } 
		.s56 { fill: #3a4066 } 
		.s57 { fill: #e8734d } 
		.s58 { fill: #cfbfb8 } 
		.s59 { fill: #25354d } 
		.s60 { fill: #2f4563 } 
		.s61 { fill: #c4c4c4 } 
		.s62 { fill: #ffca55 } 
		.s63 { fill: #1f2b59 } 
	</style>
	<g>
		<g>
			<g>
				<g>
					<path fill-rule="evenodd" class="s0" d="m1579.2 806.4l61.1-93.5 1.7 1.1-61.1 93.5z"/>
				</g>
				<g>
					<path class="s0" d="m1754 763.3c-25.5 15.3-70 34.6-136.7 39.5-64.1 4.7-113.5 11-155.4 19.7-52 10.8-92 25.3-122.3 44.4l1.1 1.7c69.1-43.5 184.2-56.9 276.8-63.7 67.2-5 111.9-24.4 137.7-39.8 27.9-16.8 40.1-32.7 40.2-32.8l-1.6-1.3c-0.2 0.2-12.2 15.8-39.8 32.3z"/>
				</g>
				<g>
					<g>
						<g>
							<g>
								<path class="s0" d="m1794.8 730.6c-57.3-14.1-111.3-20-161.3-17.7-25.8 1.1-50.4 4.5-74 10q-2.8 0.6-5.7 1.3-17.6 4.5-34.5 10.6-25.1 9-48.1 21.6-22.7 12.4-43.3 28.2-7.3 5.6-14.4 11.6-4.5 3.9-8.9 7.9c-6.8 6.2-13.2 12.6-19.2 19q-2.1 2.2-4.1 4.5c-9 9.8-16.9 19.7-23.9 29.2q-1.4 1.9-2.8 3.8-2.5 3.5-4.9 7c-5.5 8.1-10.3 15.8-14.5 22.8q-1.8 3.2-3.5 6.1-1.5 2.8-2.9 5.4c-15 27.7-21.1 47.6-21.2 47.8l-1.7 5.7 3.5-4.8c0.2-0.1 13-16.9 50-33.8q0.5-0.2 1.1-0.5 4.8-2.1 10.4-4.4c7.4-3 15.9-6 25.5-8.9q8.3-2.6 17.8-5c16.6-4.2 35.8-8 57.9-10.9 26.4-3.5 57-5.7 92.3-5.9 21.3-0.1 41.4-1.8 60.3-5.1q12.9-2.2 25.1-5.5 19.7-5.3 37.2-13.1c27.7-12.4 51.2-29.7 69.9-51.3 31.8-36.8 38.6-74 38.7-74.4l0.2-0.9zm-39.5 74.2c-10.8 12.5-25.5 26-45.2 37.9q-0.9 0.6-1.9 1.2c-16.6 9.9-36.8 18.8-61.1 25.1q-10.8 2.8-22.7 4.9c-18 3.2-38 5.1-60.1 5.2-32.9 0.1-63.8 2.1-92.2 5.8q-17.8 2.3-34.2 5.5-12.3 2.5-23.8 5.4-9 2.3-17.5 4.9-14.1 4.2-26.8 9.3-5.3 2.2-10.4 4.5-1 0.4-2 0.9c-26.5 12.2-40.4 24.1-46.2 30 2.6-7.4 8.8-23 19.3-42.6q1.3-2.4 2.8-5 2-3.6 4.2-7.4c3.8-6.4 8.2-13.4 13.1-20.6q3.8-5.6 8.1-11.5 1.4-1.8 2.8-3.7c7-9.3 15-19 23.9-28.6q1.3-1.4 2.6-2.8 8.4-8.9 18-17.7 3.6-3.3 7.4-6.6 6.2-5.3 12.9-10.6c13.2-10.2 28.1-20.2 44.8-29.4 14.3-7.8 29.9-15 46.8-21.2 13.5-4.9 27.8-9.2 43-12.7 21.6-5.1 45.1-8.5 70.5-9.8q3.7-0.2 7.4-0.3 1.2-0.1 2.5-0.1 7-0.2 14.3-0.2c19.5 0 40.2 1.2 61.9 3.8q1 0.1 2.1 0.2c23.1 2.9 47.4 7.3 73.1 13.6q0.3 0.1 0.6 0.1-0.2 1.1-0.7 3.1c-2.7 10.5-11.9 40.1-37.3 69.4z"/>
							</g>
						</g>
					</g>
				</g>
				<g>
					<g>
						<g>
							<g>
								<path class="s1" d="m1222.6 363.9c0 0 46.3 107.7 5.3 199.1-86.9 193.8-21 168.8-21 168.8 0 0 55.7 129.5 144.7-28.9 89-158.5-129-339-129-339z"/>
							</g>
						</g>
					</g>
					<g>
						<g>
							<g>
								<path class="s0" d="m1414.3 969.2c0 0-41.7-132.2 149.6-401 191.2-268.8 22.2-441.6 22.2-441.6-493.3 420.7-171.8 842.6-171.8 842.6z"/>
							</g>
						</g>
					</g>
					<g>
						<g>
							<g>
								<path class="s2" d="m1464.9 537.6c-139.8 96.4-205.2 380.3-109.4 353.9 472-130.1 455-556.3 455-556.3-75.9 88.7-205.8 106.1-345.6 202.4z"/>
							</g>
						</g>
					</g>
				</g>
				<g>
					<path fill-rule="evenodd" class="s0" d="m1700.6 787.7l17.3-70.5 2 0.5-17.2 70.5z"/>
				</g>
				<g>
					<path fill-rule="evenodd" class="s0" d="m1655.1 800.5l1.3-1.6 54.5 44.4-1.4 1.6z"/>
				</g>
			</g>
			<g>
				<path class="s3" d="m704.6 567c-5-19.3-12.7-37.6-22.6-54.4l23-34.6-31.9-31.9-31.9-31.9-34.6 23c-16.8-9.9-35-17.6-54.4-22.6l-8.2-40.7h-45.1-45.1l-8.2 40.7c-19.4 5-37.6 12.7-54.4 22.6l-34.6-23-31.9 31.9-31.9 31.9 23 34.6c-9.9 16.8-17.6 35.1-22.6 54.4l-40.7 8.2v45.1 45.1l40.7 8.2c5 19.4 12.7 37.6 22.6 54.5l-23 34.5 31.9 31.9 31.9 31.9 34.6-23c16.8 9.9 35 17.6 54.4 22.6l8.2 40.7h45.1 45.1l8.2-40.7c19.4-5 37.6-12.7 54.4-22.6l34.6 23 31.9-31.9 31.9-31.9-23-34.5c9.9-16.9 17.6-35.1 22.6-54.5l40.7-8.2v-45.1-45.1zm-205.7 211.4c-87.3 0-158.1-70.8-158.1-158.1 0-87.3 70.8-158.1 158.1-158.1 87.3 0 158 70.8 158 158.1 0 87.3-70.7 158.1-158 158.1z"/>
			</g>
			<g>
				<path class="s4" d="m317.9 322c-2.3-8.9-5.8-17.3-10.4-25l10.6-15.9-14.7-14.6-14.6-14.6-15.8 10.5c-7.7-4.5-16.1-8-25-10.3l-3.8-18.7h-20.6-20.7l-3.8 18.7c-8.8 2.3-17.2 5.8-24.9 10.3l-15.9-10.5-14.6 14.6-14.6 14.6 10.5 15.9c-4.5 7.7-8 16.1-10.3 25l-18.7 3.7v20.7 20.7l18.7 3.7c2.3 8.9 5.8 17.3 10.3 25l-10.5 15.8 14.6 14.7 14.6 14.6 15.9-10.6c7.7 4.6 16.1 8.1 24.9 10.4l3.8 18.6h20.7 20.6l3.8-18.6c8.9-2.3 17.3-5.8 25-10.4l15.8 10.6 14.6-14.6 14.7-14.7-10.6-15.8c4.6-7.7 8.1-16.1 10.4-25l18.6-3.7v-20.7-20.7zm-94.3 96.9c-40 0-72.4-32.4-72.4-72.5 0-40 32.4-72.4 72.4-72.4 40 0 72.5 32.4 72.5 72.4 0 40.1-32.5 72.5-72.5 72.5z"/>
			</g>
			<g>
				<path class="s5" d="m465.2 1766.8h1080.6c24 0 43.5-19.5 43.5-43.5v-956c0-24.1-19.5-43.5-43.5-43.5h-1080.6c-24.1 0-43.5 19.4-43.5 43.5v956c-0.1 24 19.4 43.5 43.5 43.5z"/>
			</g>
			<g>
				<path fill-rule="evenodd" class="s6" d="m1524.7 1676.9h-1020.1v-1019h1020.1z"/>
			</g>
			<g>
				<path class="s7" d="m504.6 657.9h1020.1v-48.1c0-30.9-25-56-55.9-56h-908.3c-30.9 0-55.9 25.1-55.9 56z"/>
			</g>
			<g>
				<g>
					<path class="s8" d="m986.2 421.4c-2.8 0-5-2.2-5-5v-69.7c0-2.8 2.2-5.1 5-5.1 2.8 0 5 2.3 5 5.1v69.7c0 2.8-2.2 5-5 5z"/>
				</g>
				<g>
					<path class="s8" d="m1021.1 386.6h-69.8c-2.7 0-5-2.3-5-5.1 0-2.8 2.3-5 5-5h69.8c2.7 0 5 2.2 5 5 0 2.8-2.3 5.1-5 5.1z"/>
				</g>
			</g>
			<g>
				<path fill-rule="evenodd" class="s9" d="m745.8 657.9h18.4v1019h-18.4z"/>
				<path fill-rule="evenodd" class="s9" d="m504.6 1435.7v-18.4h1020.1v18.4z"/>
				<path fill-rule="evenodd" class="s9" d="m504.6 1176v-18.3h1020.1v18.3z"/>
				<path fill-rule="evenodd" class="s9" d="m504.6 917.5v-18.3h1020.1v18.3z"/>
				<path fill-rule="evenodd" class="s9" d="m1005.5 657.9h18.3v1019h-18.3z"/>
				<path fill-rule="evenodd" class="s9" d="m1265.1 657.9h18.3v1019h-18.3z"/>
			</g>
			<g>
				<path class="s8" d="m1524.7 1435.7c0 0-0.1 111.6-26.3 206.3l-55.8 34.9h-196.8c37.4-99.4 37.6-241.2 37.6-241.2z"/>
				<path fill-rule="evenodd" class="s10" d="m1442.6 1676.9v-35.7h55.8z"/>
			</g>
			<g>
				<path class="s8" d="m1265.1 1176c0 0-0.2 111.7-26.4 206.4l-55.8 34.9h-196.7c37.4-99.5 37.6-241.3 37.6-241.3z"/>
				<path fill-rule="evenodd" class="s10" d="m1182.9 1417.3v-35.7h55.8z"/>
			</g>
			<g>
				<path class="s8" d="m1265.1 657.9c0 0-0.2 111.7-26.4 206.4l-55.8 34.9h-196.7c37.4-99.5 37.6-241.3 37.6-241.3z"/>
				<path fill-rule="evenodd" class="s10" d="m1182.9 899.2v-35.7h55.8z"/>
			</g>
			<g>
				<g>
					<path class="s11" d="m745.8 1435.7c0 0-0.1 111.6-26.3 206.3l-55.8 34.9h-196.8c37.4-99.4 37.6-241.2 37.6-241.2z"/>
					<path fill-rule="evenodd" class="s12" d="m663.7 1676.9v-35.7h55.8z"/>
				</g>
				<g>
					<g>
						<path class="s13" d="m617 1600.7c-3.1 0-5.6-2.5-5.6-5.6v-77.6c0-3.1 2.5-5.6 5.6-5.6 3.1 0 5.6 2.5 5.6 5.6v77.6c0 3.1-2.5 5.6-5.6 5.6z"/>
					</g>
					<g>
						<path class="s13" d="m655.7 1561.9h-77.5c-3.1 0-5.6-2.5-5.6-5.6 0-3.1 2.5-5.6 5.6-5.6h77.5c3.1 0 5.7 2.5 5.7 5.6 0 3.1-2.6 5.6-5.7 5.6z"/>
					</g>
				</g>
			</g>
			<g>
				<g>
					<path class="s11" d="m1005.5 917.5c0 0-0.2 111.7-26.4 206.4l-55.8 34.9h-196.7c37.3-99.5 37.6-241.3 37.6-241.3z"/>
					<path fill-rule="evenodd" class="s12" d="m923.3 1158.8v-35.7h55.8z"/>
				</g>
				<g>
					<g>
						<path class="s13" d="m876.6 1082.6c-3.1 0-5.6-2.5-5.6-5.6v-77.6c0-3.1 2.5-5.6 5.6-5.6 3.1 0 5.6 2.5 5.6 5.6v77.6c0 3.1-2.5 5.6-5.6 5.6z"/>
					</g>
					<g>
						<path class="s13" d="m915.4 1043.8h-77.6c-3.1 0-5.6-2.5-5.6-5.6 0-3.1 2.5-5.6 5.6-5.6h77.6c3.1 0 5.6 2.5 5.6 5.6 0 3.1-2.5 5.6-5.6 5.6z"/>
					</g>
				</g>
			</g>
			<g>
				<path class="s11" d="m1524.7 1176c0 0-0.1 111.7-26.3 206.4l-55.8 34.9h-196.8c37.4-99.5 37.6-241.3 37.6-241.3z"/>
				<path fill-rule="evenodd" class="s12" d="m1442.6 1417.3v-35.7h55.8z"/>
			</g>
			<g>
				<g>
					<g>
						<path class="s13" d="m1391.1 1327.2l-35.1-30.6c-2.8-2.5-3.1-6.8-0.6-9.7 2.5-2.9 6.8-3.2 9.7-0.7l24.8 21.6 35.3-39.4c2.6-2.8 7-3.1 9.8-0.5 2.8 2.5 3.1 6.9 0.5 9.7z"/>
					</g>
				</g>
			</g>
			<g>
				<g>
					<g>
						<path class="s8" d="m281.3 1018.4l-28.2-24.6c-2.3-2-2.6-5.6-0.6-7.9 2.1-2.3 5.6-2.5 7.9-0.5l19.9 17.4 28.5-31.8c2-2.2 5.5-2.4 7.8-0.4 2.3 2.1 2.5 5.6 0.5 7.9z"/>
					</g>
				</g>
			</g>
			<g>
				<g>
					<path class="s14" d="m1703 1289c-3.7 0.1-7.3-1-10.1-3.1-3.3-2.3-5.3-5.6-5.6-9.3-1.1-7.2-4.1-14.4-6.4-19.4-9.5-6.3-15.3-16.8-15.4-28.2-0.3-18.9 14.9-34.5 33.8-34.7 18.9-0.3 34.5 14.9 34.8 33.8 0.1 10.3-4.3 20-12.1 26.6-2 7.2-2.9 13.7-2.9 19.3 0.6 7.5-6 14.2-14.8 15q-0.6 0-1.3 0zm-3.7-91.9c-17.3 0.2-31.2 14.5-31 31.9 0.1 10.6 5.6 20.3 14.5 26.1l0.3 0.2 0.2 0.3c2.4 5.2 5.6 12.9 6.8 20.6v0.1c0.2 2.9 1.8 5.5 4.4 7.4 2.7 1.9 6.1 2.7 9.6 2.5 7.2-0.6 12.7-6 12.2-12v-0.1c0-6 1-12.9 3.1-20.5l0.1-0.5 0.3-0.3c7.4-6.1 11.6-15.1 11.5-24.7-0.3-17.3-14.6-31.3-32-31z"/>
				</g>
				<g>
					<path fill-rule="evenodd" class="s14" d="m1695.7 1277.9l-7.9-36.8 8.4 5.7 4.3-5.7 4.6 4.6 6.7-6.8-1 37.7-2.8-0.1 0.8-30.6-3.7 3.8-4.3-4.4-4 5.4-4.8-3.3 6.4 29.9z"/>
				</g>
				<g>
					<path fill-rule="evenodd" class="s14" d="m1692 1286.5l24.3-2 0.8 9.8-24.3 2z"/>
				</g>
				<g>
					<path fill-rule="evenodd" class="s14" d="m1687.3 1276.9l32-2.7 1.3 15.7-32 2.7z"/>
				</g>
			</g>
			<path fill-rule="evenodd" class="s15" d="m1273.8 293.5h36.6l-11.2-23.2h-36.5z"/>
			<path fill-rule="evenodd" class="s15" d="m1256.7 293.5h8.8l-11.2-23.2h-8.7z"/>
			<path fill-rule="evenodd" class="s15" d="m1130.6 265.9h147.9l-5-11.6h-147.9z"/>
			<path fill-rule="evenodd" class="s15" d="m176 772.7h47.6l-14.6-30.3h-47.6z"/>
			<path fill-rule="evenodd" class="s15" d="m153.7 772.7h11.3l-14.5-30.3h-11.4z"/>
			<g>
				<path class="s16" d="m720.9 714.3c0 0-6.1 5.3-11.6 13.5-5.4 8.2-19.9 8.6-20.5 19.8-0.6 11.2 19.7 11.5 30.3 7.9 10.7-3.6 12.3-14.6 18.7-17.3 6.5-2.7 9.8-4.9 9.3-10.2-0.5-5.4-4-14-4-14 0 0-4 1.3-6.4 1.5-2.3 0.3-10.3 0.4-15.8-1.2z"/>
				<path class="s14" d="m793.9 411.8c0 0-4.1 24.2-7.4 40.3q0 0 0 0c-1.3 6.5-2.5 11.7-3.2 13.3-1 2-8.7 10.3-18 19.9-16.5 17-38.3 38.3-38.3 38.3l-8.5-16.1c0 0 19.4-22.7 32.5-37.8 6-7 10.8-12.4 11.6-13.2 2.8-2.4 5.9-26.5 10.4-46.4 4.5-19.9 13.4-30.9 13.4-30.9z"/>
				<path class="s17" d="m765.3 485.3c-16.5 17-38.3 38.3-38.3 38.3l-8.5-16.1c0 0 19.4-22.7 32.5-37.8 4 2 11.3 6.7 14.3 15.6z"/>
				<g>
					<path class="s16" d="m870.9 707.7c0 0 5.6 6.2 8.9 9.9 3.3 3.8 16 10.5 16 21.6 0.1 12.1-9.3 11-17.7 10.6-8.4-0.5-15.2-6.3-18.7-13.1-3.6-6.8-12.9-8.6-13.6-14.1-0.7-5.6 4.4-15.5 4.4-15.5z"/>
				</g>
				<path class="s18" d="m851.2 696.8l-1 10.3c0 0 17.4 7.6 20.7 0.6l-0.8-9.2z"/>
				<path class="s18" d="m721.8 706.9l-0.9 7.4c0 0 10.5 3.8 22.2-0.3l0.2-6.6z"/>
				<path class="s14" d="m871.9 520.3c0.6 2.2-112 0-112 0 0 0 31.1-22.6 33.2-28.7 2-6-8-42.4-9.3-54.2-1-9.4-3.6-51.8 2.6-58.2 6.5-6.8 30-13.9 30-13.9l34.2 1.3c0 0 5.7 1.2 9.7 3.1 4.1 1.8 27.1 10.1 30.9 21.6 3.7 11.5-23 48.6-23 48.6 0 0-0.1 1.7-0.2 4.4q0 0 0 0c-0.1 3.6-0.2 9.2-0.4 15.2-0.2 7.8-0.3 16.3-0.3 22.6 0 14.7 4 36.1 4.6 38.2z"/>
				<path class="s19" d="m871.9 520.3c0 0 15.3 22.5 15.5 37.9 0.2 15.3-5.7 57.9-6.1 66.3-0.4 8.5-8.4 78.8-8.4 78.8 0 0-6.1 5.6-24.5-1.5 0 0-4-66.6-4.5-73.8-0.4-7.1-0.4-40-4.5-44.7-4.1-4.8-29-19.7-32.2-22.5-3.3-2.8-59.8 10.7-65.7 12.2-15.3 4-8.3 30.6-4.9 42.6 5.6 20 10.6 92.3 10.6 92.3 0 0-10.9 4.6-29.2 0.7 0 0-35.9-130.5-37.1-143.5-1.1-12.9-1.7-34.3 86.8-50.6z"/>
				<path class="s17" d="m825.8 291c0 0-29.7-6.7-22.9 30.7 6.8 37.3 13.9 40.3 31.8 32.5 18-7.7 16.3-31.6 17.3-43.4 0.9-11.7-16.7-19.4-26.2-19.8z"/>
				<path class="s17" d="m817.9 374.9c0 0 13.2 14 34 1.3 0 0-4.7-30.2-2.2-44.9 2.4-14.8-27.1 22.8-27.1 22.8 0.4 0.2 0.6 1.6 0.7 3.6 0 1.7-0.1 3.8-0.3 6-0.7 4.9-2.2 10-5.1 11.2z"/>
				<path class="s17" d="m841.7 316.7c0.4-3.3 6.9-4.5 7.5 0.5 0.5 4.9-3 13.6-5.5 12.7-2.4-0.8-2.5-8.6-2-13.2z"/>
				<path class="s20" d="m850.5 330c0 0-0.8-11.8-5.1-12.1-4.3-0.4-4.9 4.3-4.9 4.3l-4.4 0.9c0 0 1.4-10.4-2.9-12.2-4.3-1.8-27.8 5.7-31.3 2.7-3.4-3-1.8-24 4.4-26.9 6.3-2.8 23.5-9.2 36.1-0.7 0 0 9.8-1.1 11.3 6.8 1.5 8-0.5 31.3-3.2 37.2z"/>
				<path class="s21" d="m823 363.7c21.4-6.7 23-19.6 23-19.8-7 12.2-22.7 13.8-22.7 13.8 0 1.7-0.1 3.8-0.3 6z"/>
				<path class="s17" d="m860.7 369.8c0 0-15.7 31.3-41.1 29.3-25.4-2.1-4.3-33.5-3.2-33.8 1.3-0.3 26-6.5 44.3 4.5z"/>
				<path class="s14" d="m747 518.8c0 0 77.8 9.5 124.9 1.5l-90-11.2c0 0-0.6 2.3-34.9 9.7z"/>
				<path class="s17" d="m805.2 505.6l-5.8 2.9c0 0 1.3 9.2 4.5 12l6.5-1.7c0 0-1.4-10.1-5.2-13.2z"/>
				<path class="s14" d="m895.1 486.7c-1.1 1.4-16.4 7.5-33.7 14.2-23.6 9-50.2 17.6-50.2 17.6l-6-12.9c0 0 27.8-15.2 46.7-25.8 8.9-5 15.7-9 16.7-10 3-2.8 3.8-7.5 1.6-15.5-2.2-8.1-7.4-45.1-7.9-49.5-0.6-4.3 1.4-15.8 12.2-16.4 10.8-0.6 16.3 2.5 16.3 2.5 0 0 2.7 1.1 4.8 27.3 2 26.3 2.3 65.3-0.5 68.5z"/>
				<path class="s22" d="m868 444.3q0 0 0 0c-0.1 3.6-0.2 9.2-0.4 15.2-10.5-25.9-4.4-46.5-4.3-46.9-1.2 7 4.6 31.4 4.7 31.7z"/>
				<path class="s22" d="m786.5 452.1q0 0 0 0c-1.3 6.5-2.5 11.7-3.2 13.3-3.6-17.5-0.4-39.8-0.4-39.8 0.5 10.7 3.6 26.5 3.6 26.5z"/>
				<path class="s17" d="m861.4 500.9c-23.6 9-51 17.9-51 17.9l-5.2-13.2c0 0 27.8-15.2 46.7-25.8 0 0 6.8 3.3 9.5 21.1z"/>
				<path fill-rule="evenodd" class="s23" d="m803.5 519.6l-110.5-1.6 55.8 28.3z"/>
				<path fill-rule="evenodd" class="s24" d="m748.8 546.3l54.7-21.2v-5.5l-59 21.3z"/>
				<g>
					<path class="s17" d="m800.6 508.7c0 0-6.9-1.1-11.6-2.2-3.7-0.9-12.9 0.3-15.2 2.7-2.4 2.4-9.8 18.9-11.2 19.9-1.4 1 0.7 3.3 3.2 2.2 0 0 2.2 7.2 7.8 4.5 5.6-2.7 9.4-8.6 12.4-9.7 2.9-1 19.9-6.3 19.9-6.3 0 0-0.9-12.9-5.3-11.1z"/>
				</g>
				<g>
					<path class="s17" d="m775.4 508.1c0 0-4.4 2.2-5.6 3.1-1.1 1-5.8 4.5-6.9 5.3-1.2 0.8 1.7 3.2 10.1-0.5 8.3-3.6 2.4-7.9 2.4-7.9z"/>
				</g>
				<path fill-rule="evenodd" class="s25" d="m748.8 546.3l-32.9-89.7-105.9 1.7 31.3 82.7z"/>
				<path class="s26" d="m682 496.2c3.3 6.5 2.3 13.6-2.2 15.8-4.4 2.2-10.6-1.2-13.9-7.7-3.2-6.5-2.2-13.5 2.2-15.7 4.5-2.3 10.7 1.2 13.9 7.6z"/>
			</g>
			<g>
				<g>
					<g>
						<g>
							<path class="s17" d="m629.3 1391.9c0 0 2 3.4 2.3 6.2 0.2 2.2 2 5.5 2.8 7.3 0.8 1.8 3.4 10 3.5 12.1 0 0.9-1.9 6.4-1.6 8.1 0.2 1.8 1.2 5.3-0.3 5.5-1.6 0.2-3.4-2.6-3.4-2.6 0 0 0.1 1.6-1.2 2.2-2.6 1.2-4 0.1-4 0.1 0 0-0.9 1.8-2.1 2.1-2.7 0.5-4-0.6-4-0.6 0 0-1.1 1-3 1-2.3-0.1-3.3-2.1-3.3-2.1 0 0-2.9 0.6-3.8-0.8-0.9-1.3-0.7-2.8-1.1-4.1-0.3-1.2-0.1-12.5 3.8-20.7 3.8-8.1-1-16.1-1-16.1z"/>
						</g>
					</g>
				</g>
				<g>
					<g>
						<path class="s27" d="m633 1427.4c0 0 0.3-10.2-2.4-12.3-2.7-2.2-3 1.5-3 1.5 0 0 0.4-3.6-2.5-4.1-3-0.5-3.1 3.8-3.1 3.8 0 0-0.5-2.8-3.5-2.2-3.1 0.5-2.4 4.1-2.4 4.1 0 0-2.9-3.5-4.8-0.1-3.2 5.6-0.3 12.4-0.3 12.4 0 0 1 1.7 4 0.9 0 0 1.9 4 6.3 1.1 0 0 4.6 2.5 6.2-1.4 0 0 5.3 2.1 5.5-3.7z"/>
					</g>
				</g>
				<path class="s28" d="m663.7 1245.7c0 0-17.4 57.9-23.3 79.3-1.8 6.7-6.3 70.7-7 73.3-0.8 2.5-22.9 6.1-22.9 6.1 0 0 2.7-80.1 2.9-84.5 0.3-4.3 24.4-93.8 31.4-97 5.2-2.3 8-0.4 14.6 4.5 9.3 6.9 4.3 18.3 4.3 18.3z"/>
				<g>
					<path fill-rule="evenodd" class="s29" d="m833.2 1164.5l39.8-26 2 2.9-39.8 26.1z"/>
				</g>
				<path class="s30" d="m879.2 1153.4c0 0-0.4 2.3-1 3.2 0 0-1.3 1.5-2.2 2.7-0.2 0.4-0.5 0.7-0.6 0.9-0.5 1-1.4 3.2-3.3 5.1-1.9 1.9-9.3 8.1-9.3 8.1l-6.3-5.4-6.6-3c0 0 3.7-15.9 5.3-17.9q0.2-0.3 0.5-0.6c1.4-1.5 3.2-2.1 4.1-2.8 0.3-0.3 3.7-2.7 4.9-2.4 1.6 0.4 2.6 1.4 3 2.5 0 0 3.2 1 4.5 2.9 0 0 3 0.9 3.9 3.7 0 0 3 1.1 3.1 3z"/>
				<g>
					<g>
						<path class="s31" d="m649.6 1641.3c0 0-1.6 11-1.8 12.6-0.2 1.7-17.6-1-17.6-1l-1.4-13c0 0 18.6-0.2 20.8 1.4z"/>
					</g>
				</g>
				<g>
					<g>
						<path class="s32" d="m648 1652.5c0 0 5.5 6.7 10.9 9.5 5.3 2.9 13.7 4.1 16.9 7.1 2.2 2.1 8.3 11.4-13.9 11.2-22.2-0.2-32.9 1.3-35.3-2.2-2.4-3.6 3.5-26.3 3.5-26.3 0 0 5.2 1.9 17.9 0.7z"/>
					</g>
				</g>
				<g>
					<g>
						<path class="s31" d="m774.5 1641.3c0 0-1.6 11-1.8 12.6-0.2 1.7-17.6-1-17.6-1l-1.4-13c0 0 18.6-0.2 20.8 1.4z"/>
					</g>
				</g>
				<g>
					<g>
						<path class="s32" d="m772.9 1652.5c0 0 5.5 6.7 10.9 9.5 5.3 2.9 25 5.3 28.1 8.3 2.3 2.2 6.1 10.8-25.1 10-22.2-0.5-32.9 1.3-35.3-2.2-2.4-3.6 3.5-26.3 3.5-26.3 0 0 4.9 2 17.9 0.7z"/>
					</g>
				</g>
				<g>
					<g>
						<path class="s32" d="m664 1358.6c0 0-16.3 26.1-15.1 49.6 1.2 23.5-6 49.2-8.4 73.7-2.8 27.4-14 92.3-14.4 106.9-0.4 14.7 1.7 61.5 1.7 61.5l22.5 0.5c0 0 18.9-113.4 23.8-124.9 4.9-11.6 29.1-94.1 29.9-103.3 0.8-9.3-40-64-40-64z"/>
					</g>
				</g>
				<g>
					<g>
						<path class="s32" d="m750.2 1362.2c0 0 12.4 64.4 14 78.8 1.6 14.4 2.7 69.7 3.5 78.7 0.9 9 7.7 117.5 9.8 131.1h-28.7c0 0-22.1-79.1-22.1-116.5 0-37.4-17-81.3-28-106-11-24.6-36.2-25.2-42.9-71 0 0 85.3-9.7 94.4 4.9z"/>
					</g>
				</g>
				<g>
					<g>
						<path class="s17" d="m691.4 1139.9c0 0 21.9-8.3 32.1 8.5 10.1 16.7 9.1 50.2-1.9 54.3-11.1 4.2-27.8 2-33.4-8.5-5.7-10.4-10.8-25.6-10.6-35.7 0.3-10.1 8-15.7 13.8-18.6z"/>
					</g>
				</g>
				<g>
					<g>
						<path class="s17" d="m719.2 1203.5c0 0-0.9 5.9 0.6 8.9 1.5 2.9-28.5 3-28.5 3 0 0-2.4-15.9-7.1-29.4-4.6-13.4 35 17.5 35 17.5z"/>
					</g>
				</g>
				<g>
					<g>
						<path class="s33" d="m684.2 1186c0 0 2.1 3.4 10.6 2.1 8.4-1.3 18.7-12.6 22.2-13.8 3.6-1.2 3.6-3.3 3.6-3.3l2.2 3.2 3.8 0.3c0 0-3.5-10.1 1.7-14.2 5.2-4.1-5.4-32.5-32.5-23.1 0 0-20.8 5.8-20 17.6 0.7 11.8 3.8 25.3 8.4 31.2z"/>
					</g>
				</g>
				<g>
					<g>
						<path class="s34" d="m721.5 1212c0 0 0-5.6-2.6-6.1-2.5-0.5-27.9-3-31-1.8v6.5c0 0 6 3.7 33.6 1.4z"/>
					</g>
				</g>
				<g>
					<g>
						<path class="s17" d="m720 1166.7c-0.4-2-5.5-7.7-7.4-1.6-1.9 6.1 2.9 14.3 5.6 13.6 2.7-0.7 3-7 1.8-12z"/>
					</g>
				</g>
				<g>
					<g>
						<path class="s28" d="m763.6 1220.5c-17.4-2.3-42.1-8.5-42.1-8.5l-33.6-1.4c0 0-31 6.8-43.1 12.3-1.2 0.6-1.2 27.6-4.4 34.7l10.1 21.3c0 0 5.9 42.2 7.1 61 0.5 8.6-12 80.7-12 80.7 0 0 13.4 4 36.4 6.5 23 2.6 80.5-0.9 80.8-3.6 0.4-2.7-11.1-101.1-11.6-106.2-0.8-7.8 2.7-49.4 2.7-49.4 5.3-4.1 51.9-25.7 64.6-37 3.4-3 17.8-17 21.9-21.8 14.4-17.1 26.3-31.8 27.7-35 1.6-1.8-16.1-11.3-17.7-11.9-1.4-0.4-20.5 25-28 33.2-3.4 3.6-17.3 13.8-17.3 13.8 0 0-30.6 11.9-41.5 11.3z"/>
					</g>
				</g>
				<g>
					<g>
						<path class="s33" d="m685.1 1141.8c0 0-28 2.2-0.9 44.2z"/>
					</g>
				</g>
				<path fill-rule="evenodd" class="s35" d="m875 1141.4l2.3-3.5-4.3 0.5z"/>
			</g>
			<g>
				<path fill-rule="evenodd" class="s36" d="m619.8 1683.4h194.4l-61.2 188.1 5.7 1.9 63.8-196h-207l-63.2 194.1 5.7 1.9z"/>
			</g>
			<g>
				<path fill-rule="evenodd" class="s36" d="m686 1871.5l-61.3-188.1h194.4l61.9 190 5.7-1.9-63.2-194.1h-207.1l63.9 196z"/>
			</g>
			<g>
				<path fill-rule="evenodd" class="s36" d="m601.8 1736.6h237.9v6h-237.9z"/>
			</g>
			<g>
				<path fill-rule="evenodd" class="s36" d="m577.3 1802h284.6v6h-284.6z"/>
			</g>
			<g>
				<path class="s37" d="m412.6 1377.4c0 0 2.7 48.1-6.2 55.2-4 3.2-13.7 4.2-24.1 4.3-3.4 0-6.9-0.1-10.3-0.3q0 0 0 0c-13.7-0.7-26-2.4-26-2.4 0 0-35.4 1.8-33.7-20.2 0 0 4.1-6.7 9.4-8.2 4.9-1.4 27.2 2.5 31.1 2.6 4.3 0.2 34.5 6.9 35.8 6.5 1.3-0.5 4.8-12.4 5-20.3 0.3-11.5 0.3-22.1 0.3-22.1z"/>
			</g>
			<path class="s38" d="m224.8 1834.6c0 0-3 7.2-5.5 10-2.5 2.9-12.1 8-12.2 16.4 0 9.2 16.2 6.6 22.6 6.3 6.3-0.3 6.8-5.2 9.5-10.4 2.7-5.2 5.4-4.3 5.9-8.5 0.5-4.2-2.1-13.5-2.1-13.5z"/>
			<g>
				<path class="s38" d="m352 1836.3c0 0 8.9 9.3 17.9 11.2 8.9 2 15.2 4.4 15.3 9.8 0.1 5.3-25.9 8.8-36.1 3.5-15.4-8.1-17-5.7-18.7-9.7-1.7-4 2.1-14.7 2-16-0.2-1.6 19.6 1.2 19.6 1.2z"/>
			</g>
			<g>
				<path class="s32" d="m351 1567.8c0 0 9.3 67.6 13.1 90.4 4.4 26.7 5.9 48.8 7.1 62.6 1.6 17.4-14.7 110.9-13.6 115.9 1.1 5.1-29.3-2.1-29.3-2.1 0 0 9.5-111.2 4.9-129.7-4.3-17.3-19.9-93-23.9-88.3-3.9 4.7-28.7 87.8-31.6 101.4-2.9 13.6-31 120-31 120 0 0-21.1 4.5-26.4 0.3 0 0 18.3-97.8 20.2-123.3 0.7-9.7 6.4-115.8 22.9-158.7 8.7-22.7 87.6 11.5 87.6 11.5z"/>
			</g>
			<g>
				<path class="s39" d="m108.1 1380.9l1.7-25.4c0.3-5.2 4.8-9.1 10.1-8.8l54.4 3.7c5.2 0.3 9.1 4.8 8.8 10.1l-1.7 25.3c-0.4 5.2-4.9 9.2-10.1 8.8l-54.4-3.6c-5.2-0.4-9.2-4.9-8.8-10.1z"/>
				<path fill-rule="evenodd" class="s40" d="m504.4 1370.9l-3.2 47.5-355.8-24 3.2-47.4z"/>
				<path fill-rule="evenodd" class="s41" d="m147.4 1362.9l1-15.8 355.9 23.9-1 15.8z"/>
				<path fill-rule="evenodd" class="s42" d="m503.4 1386.7l-1.1 15.8-355.9-23.9 1.1-15.8z"/>
				<path fill-rule="evenodd" class="s43" d="m502.3 1402.6l-1 15.8-355.9-24 1-15.8z"/>
				<path fill-rule="evenodd" class="s44" d="m501.2 1418.4l3.2-47.4 51.5 22.4 13.3 5.8-13.9 3.9z"/>
				<path class="s45" d="m503.3 1386.8c-4.2-0.3-7.4-4.1-7.1-8.4 0.3-4.4 4-7.7 8.2-7.4z"/>
				<path class="s46" d="m502.3 1402.6c-4.3-0.3-7.5-4.1-7.2-8.4 0.3-4.4 4-7.7 8.2-7.4z"/>
				<path class="s44" d="m501.2 1418.4c-4.2-0.3-7.4-4-7.1-8.4 0.3-4.4 3.9-7.7 8.2-7.4z"/>
				<path fill-rule="evenodd" class="s47" d="m135.1 1362l1.1-15.8 21.9 1.5-1.1 15.8z"/>
				<path fill-rule="evenodd" class="s48" d="m157.1 1363.5l-1 15.8-21.9-1.5 1-15.8z"/>
				<path fill-rule="evenodd" class="s49" d="m156.1 1379.3l-1.1 15.8-21.9-1.5 1.1-15.8z"/>
				<path fill-rule="evenodd" class="s45" d="m503.3 1386.8l65.9 12.4-64.8-28.2z"/>
				<path fill-rule="evenodd" class="s46" d="m502.3 1402.6l66.9-3.4-65.9-12.4z"/>
				<path fill-rule="evenodd" class="s44" d="m502.3 1402.6l66.9-3.4-68 19.2z"/>
				<path fill-rule="evenodd" class="s50" d="m555.3 1403.1l0.6-9.7 13.3 5.8z"/>
			</g>
			<g>
				<g>
					<path class="s30" d="m397.5 1361.5c0 0-1.8 8.2-0.1 10.5 1.8 2.2 2.6-0.7 2.6-0.7 0 0-0.8 2.9 1.4 3.9 2.2 0.9 3-2.5 3-2.5 0 0 0 2.3 2.5 2.4 2.5 0.2 2.5-2.9 2.5-2.9 0 0 1.8 3.4 3.8 1.1 3.5-4 2.1-10 2.1-10 0 0-0.5-1.4-2.9-1.4 0 0-0.9-3.6-4.8-2.1 0 0-3.2-2.9-5.1 0 0 0-3.6-2.9-5 1.7z"/>
				</g>
			</g>
			<g>
				<path class="s51" d="m228.6 1566.7c0 0 11.6 3.5 16.4 2.6 4.9-0.9 2.4-60.2 2.6-72.5 0.2-10 5.6-36.5 5.6-36.5q0 0 0 0.1 0 0 0 0 0.1 0 0.1 0c0.5 2 7.9 29.4 8.1 42.6 0.3 13.7-1.7 66-1.7 66l20.3 2 58.6 1.5 12.2-1.5c0 0-1.4-22.4-2-33-0.3-6.7-1.6-18.8-1.3-30.6 0 0-0.2-12.4 1-17.8 0.2-23.6 1.6-47 1.6-47q1.2-16 1.6-30c-2.5-1.4-5.6-3-8.1-4.1-7.7-3.7-18.4-8.6-25.3-11.8-4-1.8-8-3.2-8-3.2 0 0-27.4-2.6-29.6-2.5-0.8 0.1-4.2 1.3-8.7 3-9.7 3.7-28.5 11.2-31.5 13.3-4.4 3.2-13.7 77.8-14.1 83-0.7 9.4 2.2 76.4 2.2 76.4z"/>
			</g>
			<path class="s52" d="m349.1 1561.7c0 0-40.2 3.4-75.4 0v11.5c0 0 52.8 7.6 77.1-2.2z"/>
			<g>
				<path class="s37" d="m314.8 1395.2c0 0 6.5 15.4 11.4 49.7 1.9 13.2 5.4 35.4 7.9 58 2 17.9 6.6 36.2 8.1 49.9 1.5 14.2 6 55.9 6 55.9l11-7c1.6-1.4 3.8-3.3 3.1-5.3-3-9.8-8.8-42.1-12.2-70.2q0 0 0 0-0.3-2.1-0.5-4.1 0-0.1 0-0.2c-0.7-5.6-1.2-11-1.6-15.9-0.3-3.8 0-7.5 0.5-11.1 1.6-25.3 2.3-51.9 2.3-51.9 0.8-10.9 2.8-25 3.1-34.5-3.8-0.5-6.6-1-9.7-1.9 0 0-21.7-8.1-29.4-11.4z"/>
			</g>
			<g>
				<path class="s53" d="m310.2 1393.9c0.6 3-16.4 11.9-27.3 1.6 0 0 2-18.3 1.4-23.4-0.8-5.1 25.3 5.8 25.3 5.8 0 0 0 6 0.2 10.8 0.1 1.4 0.1 2.7 0.2 3.7q0.1 0.9 0.2 1.5z"/>
			</g>
			<path class="s53" d="m308.9 1395.3c0 0-2.1 7.4-5.5 14.2 0 0-8-7-10.5-9.5-2.5-2.5 16-4.7 16-4.7z"/>
			<path class="s54" d="m295 1401.6l8.4 7.9c0 0-9.9-0.7-11.8-2.3z"/>
			<path class="s55" d="m283.9 1387.2c0 0 6.7 10.9 11.1 14.4l-7.4 12.4-11.9-21.6z"/>
			<g>
				<path class="s37" d="m248.4 1497.3c-0.8 11.5 4 74.9-0.8 75.8-4.8 0.8-22.6-3.1-22.6-3.1 0 0-2.2-68.3-1.5-75.5 0.5-5.2 8.8-83.4 13.2-86.6 2.5-1.8 21.3-8.4 30.5-12.1 1.7-0.6 7-2.9 8.5-3.4 2 2.1 19 42.1 20.6 73.2 0.5 9.5-1.7 29.5-3.4 45.8-1.8 17.5-3.8 31.1-5.3 45.7-2.9 28.7-4.9 51.6-4.9 51.6l-28.6-12.8c-4.6-2.3-11-11.8-9.3-16.6 6.6-18.6 14.9-50.2 15-66.5 0 0-3.2-39.7-5.8-48.5 0 0-4.5 18.5-5.6 33z"/>
			</g>
			<path class="s30" d="m224.9 1602.6c0 0-0.9-2.4-0.9-3.6 0 0 0.4-2.3 0.5-3.9 0-0.5 0.1-0.9 0-1.2 0-1.2-0.5-3.9 0.1-6.8 0.7-3 4.1-13.1 4.1-13.1l9.2 1.3 8-1c0 0 5.9 17.3 5.6 20.1q0 0.4-0.1 0.8c-0.5 2.4-1.8 3.9-2.2 5.2-0.2 0.4-2 4.7-3.3 5.1-1.8 0.6-3.4 0.2-4.4-0.6 0 0-3.6 1-6-0.1 0 0-3.3 1-5.8-1.1 0 0-3.5 0.6-4.8-1.1z"/>
			<g>
				<path class="s37" d="m249.2 1529.4l-0.3 50.3c0 0-10-0.4-23.9-5.5l-1-71.1z"/>
			</g>
			<path fill-rule="evenodd" class="s56" d="m301.5 1562.4h19v14.1h-19z"/>
			<g>
				<path class="s17" d="m326.6 1341.1c0 0 6.4 11.7 3.2 13.5-2.6 1.5 3.1 13 3.8 14.9 0.7 1.9-4.7 3.2-5.8 4.5-1.2 1.2-4.6 16-9.1 16.5-4.4 0.4-24.5-6.6-30-12.3-5.5-5.7-10-31.4-6.3-42.2 3.6-10.9 33.1-15.3 44.2 5.1z"/>
			</g>
			<g>
				<path class="s57" d="m327.9 1343.6c0 0 6.4-12.6-5.3-22-11.7-9.3-33.2 7.1-35.7 7.7-2.4 0.7-16.2 1.6-9.2 25.8 5.9 20.9 6.7 21.7 6.7 21.7 0 0 4.5-12 7.1-13.9 3.9-2.8 12.6-2.1 12.6-2.1 0 0-4.1-11 2.3-12.6 6.5-1.5 15-7 21.5-4.6z"/>
			</g>
			<g>
				<path class="s17" d="m297.2 1354.5c-0.6-1.5-2.4-8-7.9-4.2-5.6 3.8 3.4 16 4.4 16.1 0.9 0.2 8.3 0.7 3.5-11.9z"/>
			</g>
			<path class="s21" d="m310 1392.4q-0.2 0-0.4 0c-12.3-2.2-18.4-11.8-18.8-12.4 8 5.3 19 8.7 19 8.7 0.1 1.4 0.1 2.7 0.2 3.7z"/>
			<path class="s54" d="m311 1403.8l-7.6 5.7c0 0 6.4-13.6 6.5-19z"/>
			<path fill-rule="evenodd" class="s55" d="m309.9 1390.5l5.2 4.8 5.4 16.2-9.5-7.7z"/>
			<g>
				<path class="s58" d="m1819.7 1771.9c0 0 3.8-5.8 4.5-9.3 0.6-3.4 2.5-5.4 2.5-5.4 0 0 14.7-2.1 20.4-7.4 5.6-5.2 17.6-19.5 23.2-15.2 5.6 4.3-4.1 22.3-9.9 27.7-5.7 5.4-13.5 15-20.6 14.3-7.1-0.8-16.7-4.1-20.1-4.7z"/>
				<path class="s59" d="m1819.7 1771l7-13.8c0 0-33.9-6.2-43.8-12.2-2.5-1.5-4.9-3-7.2-4.4-5.3-3.2-9.6-6-11.2-7.3-4.9-4.2-24.5-18.1-29.8-23.2-5.3-5.1-11.5-2-19.8-1.9-8.3 0.1-38.2 8.4-47.2 9.5-8.9 1.2-41.3 7.2-41.3 7.2 5.7 15.6 193.3 46.1 193.3 46.1z"/>
				<path class="s60" d="m1624.6 1724.4c0 0 18.2 2.7 22.9 3 4.8 0.4 32 2.6 45.1 3.8 13.1 1.3 38.8 0.5 43.9 2.8 5.1 2.2 34.6 12.2 44.3 15.3 9.6 3.2 72.4 14.7 72.4 14.7 0 0 1.1 8.5-4.5 15 0 0-27.6-2.5-42.2-0.3-14.6 2.1-40.1-1.2-55.6-8.2-15.5-7-40-0.6-53.7 4.2-13.7 4.8-66.2 8.7-72.7 7.2-6.5-1.4-19.6-7.7-29-18-9.5-10.3 29.1-39.5 29.1-39.5z"/>
				<path class="s44" d="m1848.7 1779c0 0 2.4-6.7 2.1-10.1-0.2-3.5 0.9-5.2 0.9-5.2 0 0 14.1-6.4 18.3-12.8 4.2-6.4 12.3-23.2 18.8-20.4 6.6 2.8 1.5 22.6-2.8 29.3-4.3 6.6-6.9 24.4-14 25.4-7 1-19.8-6.5-23.3-6.2z"/>
				<path class="s60" d="m1583.5 1712.8c0 0-23 52.3 12.8 65 28.5 10.1 81.2 0.8 81.2 0.8l-32.4-51z"/>
				<path class="s37" d="m1642.9 1515.3c-8.8 1.9-3.6 24-9.4 54.8-5.9 30.8-24.5 35.6-24.5 35.6 0 0 8.3-13.6 7.3-27.9-0.7-11.2-14.2-41.6-0.8-61.6 10.3-15.3 28.5-1.4 28.5-1.4z"/>
				<path class="s17" d="m1629.7 1579.5l17.1 17.5c0.1-3.2 1.3-7.1 2.5-10.4 0.6-1.6 1.2-3.1 1.7-4.2 0.7-1.4 1.1-2.4 1.1-2.4l-15.2-16.1z"/>
				<path class="s14" d="m1650 1595.3c0 0 0.7 8.4 5.3 16.2 4.6 7.8 12.2 20.8 11.1 29.2-1.1 8.4-4.7 11.5-7.9 14.5-3.2 3-12.1 24.9-13.2 33.3-1.1 8.4-1.7 25.9 0.3 38.7 0 0-59.9 7-65.9-3.5 0 0 7.4-33.6 11-42 3.5-8.5 10.8-58.9 13.9-67.5 3.2-8.5 10.6-16.8 15.1-22.8 4.1-5.3 11.5-15.2 11.5-15.2z"/>
				<path class="s17" d="m1657.5 1517.1c7.9 0.5 24.9 6.5 25.1 27.6 0 0-1.2 5.5-3.1 9.8-1.9 4.2 0.6 17.7-0.5 18.2-1.1 0.6-5.5 0.9-5.5 0.9 0 0-6.2 13.7-11.2 13-5-0.7-23.4-6.8-30.3-25.5-6.8-18.7-6.4-46.2 25.5-44z"/>
				<path class="s37" d="m1682.6 1544.7c0 0-13.7 7.2-26.6 7.5-12.8 0.3-23.4 20.9-23.4 20.9 0 0-15.6-34.9 2.3-52.6 17.8-17.7 53.3 0.3 47.7 24.2z"/>
				<path class="s17" d="m1653 1552.1c0.2-2.5-2.1-6.5-6.5-3.6-4.4 2.9-0.3 15.2 3.1 14.4 3.4-0.7 3.2-8.3 3.4-10.8z"/>
				<path class="s21" d="m1638.8 1572.7c0.2 0.4 6.5 10.6 10.5 13.9 0.6-1.6 1.2-3.1 1.7-4.2 0 0-8.9-5.3-12.2-9.7z"/>
				<path fill-rule="evenodd" class="s61" d="m1684 1721.2l83.6 15.8-1.4 7.3-83.6-15.8z"/>
				<path fill-rule="evenodd" class="s61" d="m1760.1 1740.2l48.2-70.2 6.1 4.2-48.2 70.2z"/>
				<path class="s17" d="m1750.3 1733.8c0.4-1.9 0-5-5.8-8.1-5.9-3.1-18.5-10.3-23-10.4-4.4-0.2-13.2 0.5-15 0.5-1.8 0 2.8 10.6 2.8 10.6z"/>
				<path class="s17" d="m1708.6 1716.6c0 0-24.4-9.6-28.4-11.5-4-1.9-22.5-8.2-24.1-9-1.6-0.8-9.4-46.9-10-58.6-0.7-11.6-1.4-36.2-14.5-35.1-13.2 1.1-16.3 9.7-14.7 26.7 1.7 16.9 11.4 77.6 15.5 79.6 4.1 2.1 51.2 12.6 76 17.6 23.7 4.7 0.2-9.7 0.2-9.7z"/>
				<path class="s44" d="m1647.4 1641.2c0 0-18.9 3.5-29.8 4.6 0 0-13.6-38.7 4.9-44.8 21.9-7.4 26.8 22.6 24.9 40.2z"/>
			</g>
			<g>
				<g>
					<g>
						<g>
							<g>
								<g>
									<path class="s62" d="m1711.1 1030.5l-23.6-10.2c-1.9-0.9-2.8-3.1-2-5.1 0.9-1.9 3.1-2.8 5.1-1.9l16.7 7.2 12-26.7c0.9-1.9 3.2-2.8 5.1-1.9 1.9 0.9 2.8 3.1 1.9 5z"/>
								</g>
							</g>
						</g>
					</g>
				</g>
				<g>
					<path class="s62" d="m1738 1053.1c-21.8 15.3-52 10-67.3-11.8-15.3-21.7-10-51.9 11.8-67.2 21.7-15.3 51.9-10.1 67.2 11.7 15.3 21.8 10.1 52-11.7 67.3zm-51.6-73.4c-18.6 13.1-23.2 39-10 57.7 13.1 18.6 38.9 23.2 57.6 10 18.7-13.1 23.2-38.9 10.1-57.6-13.1-18.7-39-23.2-57.7-10.1z"/>
				</g>
			</g>
			<g>
				<g>
					<path fill-rule="evenodd" class="s32" d="m1140.3 1456.3l-50.7 27.8-50.9-80.1 61.6-21.4z"/>
				</g>
				<g>
					<path fill-rule="evenodd" class="s34" d="m1137.1 1453.9l-47.4 26-47.6-74.9 57.5-20z"/>
				</g>
				<g>
					<path class="s17" d="m1154.4 1439.9c0 0-8.8-4.3-12.7-6.5-3.8-2.2-13.8-5.2-14.6-5.9-0.8-0.7-29.5-2.5-31.3-4-1.7-1.5-3.4 3.5 4 5.1 7.5 1.7 17.8 5.7 18.4 8.6 0.6 2.9-7.6 3.6-8.5 6-0.8 2.4 0.3 1.8 1.4 2.3 1.2 0.5 9.8-4.2 13.6-2.9 3.8 1.4 9.5-0.5 12.4 0.5 2.9 1 17 5.7 17 5.7z"/>
				</g>
				<g>
					<path class="s17" d="m1087.1 1474.1c0 0-7.4-6.7-11-9.5-3.6-2.8-10.3-11-11.3-11.5-1-0.4-13.8-26.8-15.9-27.9-2.1-1 2-4.6 6.4 1.8 4.4 6.4 12.2 14.6 15.2 14 2.9-0.6 0.4-8.6 2.3-10.3 2-1.8 1.9-0.5 2.8 0.4 1 0.9-0.2 10.8 2.6 13.9 2.7 3 3.2 9.2 5.3 11.5 2 2.4 12 13.8 12 13.8z"/>
				</g>
				<g>
					<path class="s31" d="m1246.7 1830.6c0 0 1.6 11.1 1.8 12.8 0.2 1.7 17.9-1 17.9-1l1.4-13.2c0 0-18.9-0.2-21.1 1.4z"/>
				</g>
				<g>
					<path class="s32" d="m1248.3 1842c0 0-5.5 6.7-10.9 9.6-5.4 2.9-13.9 4.1-17.1 7.1-2.3 2.2-8.4 11.6 14 11.4 22.5-0.2 33.3 1.3 35.7-2.3 2.4-3.6-3.5-26.6-3.5-26.6 0 0-5.3 1.9-18.2 0.8z"/>
				</g>
				<g>
					<path class="s31" d="m1120.4 1830.6c0 0 1.6 11.1 1.8 12.8 0.2 1.7 17.8-1 17.8-1l1.5-13.2c-0.1 0-18.9-0.2-21.1 1.4z"/>
				</g>
				<g>
					<path class="s32" d="m1122 1842c0 0-5.6 6.7-11 9.6-5.4 2.9-25.3 5.3-28.5 8.4-2.3 2.1-6.1 10.9 25.5 10.1 22.4-0.6 33.2 1.3 35.6-2.3 2.4-3.6-3.4-26.6-3.4-26.6 0 0-5.1 2.1-18.2 0.8z"/>
				</g>
				<g>
					<path class="s32" d="m1232.1 1544.7c0 0 16.6 26.3 15.4 50.1-1.3 23.8 6 49.8 8.5 74.6 2.7 27.7 14.1 93.3 14.5 108.2 0.4 14.8-1.8 62.1-1.8 62.1l-22.7 0.5c0 0-19.1-114.7-24-126.4-5-11.7-29.5-95.1-30.3-104.5-0.8-9.3 40.4-64.6 40.4-64.6z"/>
				</g>
				<g>
					<path class="s32" d="m1144.9 1548.2c0 0-12.5 65.3-14.1 79.8-1.7 14.6-2.8 70.5-3.6 79.6-0.8 9.1-5.5 119.1-9.9 132.6h29.1c0 0 22.3-79.9 22.3-117.8 0-37.8 17.2-82.2 28.3-107.2 11.2-25 36.6-25.6 43.5-71.9 0 0-86.3-9.8-95.6 4.9z"/>
				</g>
				<g>
					<path class="s17" d="m1204.5 1323.3c0 0-22.3-8.3-32.5 8.7-10.3 16.9-9.3 50.8 1.9 55 11.2 4.1 28.1 1.9 33.8-8.6 5.8-10.6 10.9-26 10.7-36.2-0.3-10.2-8.1-15.9-13.9-18.9z"/>
				</g>
				<g>
					<path class="s17" d="m1176.3 1387.7c0 0 1 6-0.6 9-1.5 3 28.9 3 28.9 3 0 0 2.4-16.1 7.1-29.7 4.7-13.5-35.4 17.7-35.4 17.7z"/>
				</g>
				<g>
					<path class="s20" d="m1211.7 1370c0 0-2.1 3.5-10.7 2.2-8.5-1.4-18.9-12.7-22.5-14-3.6-1.2-3.6-3.3-3.6-3.3l-2.2 3.2-3.8 0.3c0 0 3.4-10.2-1.8-14.4-5.2-4.1 5.4-32.9 32.8-23.3 0 0 21.1 5.8 20.3 17.8-0.7 11.9-3.8 25.6-8.5 31.5z"/>
				</g>
				<g>
					<path class="s34" d="m1173.9 1396.3c0 0 0.1-5.6 2.7-6.2 2.6-0.5 28.3-3 31.4-1.7v6.6c0 0-6 3.7-34.1 1.3z"/>
				</g>
				<g>
					<path class="s17" d="m1175.5 1350.5c0.4-2 5.5-7.7 7.5-1.6 2 6.1-3 14.4-5.7 13.7-2.7-0.7-3.1-7-1.8-12.1z"/>
				</g>
				<g>
					<path class="s37" d="m1071.9 1463.1q0 0 0 0-0.2 0.1 0 0z"/>
				</g>
				<g>
					<path class="s28" d="m1250.8 1607.4c0 0-13.6 4-36.9 6.6-23.2 2.5-81.3-1-81.7-3.7-0.4-2.8 12.5-102.3 11.8-107.5-0.8-5.1-1.2-23.4-1.2-23.4-0.3 5.1-5.4 25.5-11.5 36.7-2.2 4-9.7 16.6-13.3 13.7-17.4-13.9-44.4-66.2-46.1-66.7 1.5-0.6 12.8-5.8 14.4-6.4 1.4-0.4 14 12.9 21.6 21.1 3.4 3.7 5.8 6.4 5.8 6.4 2.2-5 10.2-36.1 12.7-46.9 5.6-24.3 4.7-25.3 4.7-25.3 17-5.2 42.8-15.7 42.8-15.7l34.1-1.3c0 0 31.3 6.8 43.6 12.4 1.2 0.5 1.2 27.9 4.4 35.1l-10.2 21.5c0 0-5.9 42.7-7.1 61.7-0.6 8.7 12.1 81.7 12.1 81.7z"/>
				</g>
				<g>
					<path class="s28" d="m1257.4 1478c-0.9 2.9-4.9 5.3-7.6 6.4-1.6 0.7-3.5 0.9-5.4 0.5l-1.3-0.2-23.4-4.4c0 0-5.1-58.8 31.9-72.9 1 0.3 14 44.3 5.8 70.6z"/>
				</g>
				<g>
					<path class="s63" d="m1249.9 1484.4q0 0 0 0c-1.7 0.7-3.6 0.9-5.5 0.5l-1.3-0.2 2.3-30.1z"/>
				</g>
				<g>
					<path class="s63" d="m1113.7 1484.2l-2.9 12c0 0-3.1-12.1-2.9-18.4 3.4 3.7 5.8 6.4 5.8 6.4z"/>
				</g>
				<g>
					<path class="s20" d="m1210.8 1325.3c0 0 29.2-3.6 0.5 45.1z"/>
				</g>
				<g>
					<path fill-rule="evenodd" class="s32" d="m1062.1 1399.7l-2.9-5.1 23.3-8 3 5.1z"/>
				</g>
			</g>
		</g>
	</g>
</svg>