<svg version="1.2" xmlns="http://www.w3.org/2000/svg" viewBox="0 0 4959 5330" width="4959" height="5330">
	<title>meating4</title>
	<defs>
		<clipPath clipPathUnits="userSpaceOnUse" id="cp1">
			<path d="m4783.28 5072.74h-4608v-4815.36h4608z"/>
		</clipPath>
	</defs>
	<style>
		.s0 { fill: #d3ddf2 } 
		.s1 { fill: #d5e3f7 } 
		.s2 { fill: #b6e1f7 } 
		.s3 { fill: #82a9e0 } 
		.s4 { fill: #38517c } 
		.s5 { fill: #547bbd } 
		.s6 { fill: #f5a365 } 
		.s7 { fill: #11294c } 
		.s8 { fill: #183972 } 
		.s9 { fill: #dd9152 } 
		.s10 { fill: #3d1a0e } 
		.s11 { fill: #7dbbd3 } 
		.s12 { fill: #c2cde6 } 
		.s13 { fill: #ffffff } 
		.s14 { fill: #a3b9e5 } 
		.s15 { fill: #87a4d8 } 
		.s16 { fill: #5b7abe } 
		.s17 { fill: #92bae8 } 
		.s18 { fill: #99ccff } 
		.s19 { fill: #2e4566 } 
		.s20 { fill: #92c8dd } 
		.s21 { fill: #173456 } 
		.s22 { fill: #2f4666 } 
	</style>
	<g id="_Artboards_">
	</g>
	<g id="Layer 2">
		<g id="&lt;Clip Group&gt;" clip-path="url(#cp1)">
			<g id="&lt;Group&gt;">
				<g id="&lt;Group&gt;">
					<g id="&lt;Group&gt;">
						<g id="&lt;Group&gt;">
							<path id="&lt;Compound Path&gt;" fill-rule="evenodd" class="s0" d="m1354 984.4l-24.8 86.8 74.4 47.5-74.4 115.8-84.8-28.9-76.5 41.3 2.1 76.5-154.6 20.7-10.8-80.7-91-14.4-62 47.5-119.9-80.6 39.3-62.1-43.4-64-97.2-4.1-12.4-171.6 78.6-24.8 24.8-78.6-66.2-64.1 86.9-111.6 84.7 43.4 74.4-53.7v-82.7h155.1l12.4 66.1 80.6 12.4 64.1-53.7 126.1 84.7-47.6 64.1 47.6 72.4 99.2 18.6v153zm-124.4-44.7c0-118.2-95.9-214.1-214.1-214.1-118.3 0-214.1 95.9-214.1 214.1 0 118.3 95.8 214.1 214.1 214.1 118.2 0 214.1-95.8 214.1-214.1z"/>
						</g>
					</g>
				</g>
				<g id="&lt;Group&gt;">
					<g id="&lt;Group&gt;">
						<g id="&lt;Group&gt;">
							<path id="&lt;Compound Path&gt;" fill-rule="evenodd" class="s0" d="m2144.5 1189.9l-5.5 90.1 83 30.3-47.6 129.1-89-9.9-65.7 57 18.6 74.2-146.4 53.6-28.1-76.3-91.9 5.5-50.3 59.9-134.5-52.8 24.9-69.1-56.2-53.1-95.8 17-49.2-164.8 71.3-41.2 7.2-82.1-78.5-48.2 60.6-127.8 92.2 24 61-68.6-17.9-80.7 151.4-33.6 26.4 61.9 81.4-5.3 50.9-66.4 141.5 55.5-32.6 72.8 62.1 60.4 100.9-3.4 33.1 149.4zm-131.1-16.6c-25.6-115.5-139.9-188.3-255.4-162.7-115.4 25.6-188.2 139.9-162.6 255.4 25.6 115.4 139.9 188.3 255.3 162.6 115.5-25.6 188.3-139.9 162.7-255.3z"/>
						</g>
					</g>
				</g>
				<g id="&lt;Group&gt;">
					<g id="&lt;Group&gt;">
						<g id="&lt;Group&gt;">
							<path id="&lt;Compound Path&gt;" fill-rule="evenodd" class="s0" d="m1357.1 1578l-2.9 48.7 44.8 16.4-25.7 69.9-48.1-5.4-35.6 30.8 10.1 40.1-79.2 29.1-15.2-41.3-49.7 3-27.2 32.3-72.8-28.5 13.5-37.4-30.4-28.7-51.8 9.2-26.7-89.2 38.6-22.3 3.9-44.4-42.4-26 32.7-69.2 49.9 13 33-37.1-9.7-43.6 81.9-18.2 14.3 33.5 44-2.9 27.6-35.9 76.5 30-17.6 39.4 33.6 32.6 54.5-1.8 18 80.8zm-71-9c-13.8-62.4-75.7-101.8-138.1-88-62.5 13.9-101.9 75.7-88 138.2 13.8 62.4 75.7 101.8 138.1 88 62.5-13.9 101.9-75.7 88-138.2z"/>
						</g>
					</g>
				</g>
			</g>
			<g id="&lt;Group&gt;">
				<path id="&lt;Path&gt;" class="s0" d="m2639.3 475.2h1119.3"/>
				<path id="&lt;Path&gt;" class="s0" d="m3758.6 482.2h-1119.3v-14h1119.3z"/>
			</g>
			<g id="&lt;Group&gt;">
				<path id="&lt;Path&gt;" class="s0" d="m2639.3 611.1h1119.3"/>
				<path id="&lt;Path&gt;" class="s0" d="m3758.6 618.1h-1119.3v-14h1119.3z"/>
			</g>
			<g id="&lt;Group&gt;">
				<path id="&lt;Path&gt;" class="s0" d="m2639.3 746.9h1119.3"/>
				<path id="&lt;Path&gt;" class="s0" d="m3758.6 753.9h-1119.3v-14h1119.3z"/>
			</g>
			<g id="&lt;Group&gt;">
				<path id="&lt;Path&gt;" class="s0" d="m2639.3 882.7h1119.3"/>
				<path id="&lt;Path&gt;" class="s0" d="m3758.6 889.7h-1119.3v-14h1119.3z"/>
			</g>
			<g id="&lt;Group&gt;">
				<path id="&lt;Path&gt;" class="s0" d="m2604.8 475.2c0 21.4-17.4 38.8-38.8 38.8-21.3 0-38.7-17.4-38.7-38.8 0-21.3 17.4-38.7 38.7-38.7 21.4 0 38.8 17.4 38.8 38.7z"/>
			</g>
			<g id="&lt;Group&gt;">
				<path id="&lt;Path&gt;" class="s0" d="m2604.8 614.1c0 21.3-17.4 38.7-38.8 38.7-21.3 0-38.7-17.4-38.7-38.7 0-21.4 17.4-38.8 38.7-38.8 21.4 0 38.8 17.4 38.8 38.8z"/>
			</g>
			<g id="&lt;Group&gt;">
				<path id="&lt;Path&gt;" class="s0" d="m2604.8 752.9c0 21.3-17.4 38.7-38.8 38.7-21.3 0-38.7-17.4-38.7-38.7 0-21.4 17.4-38.8 38.7-38.8 21.4 0 38.8 17.4 38.8 38.8z"/>
			</g>
			<g id="&lt;Group&gt;">
				<path id="&lt;Path&gt;" class="s0" d="m2604.8 891.7c0 21.4-17.4 38.7-38.8 38.7-21.3 0-38.7-17.3-38.7-38.7 0-21.4 17.4-38.8 38.7-38.8 21.4 0 38.8 17.4 38.8 38.8z"/>
			</g>
			<g id="&lt;Group&gt;">
				<path id="&lt;Path&gt;" class="s1" d="m1136 3891.2h-739.3v-48.7h739.3z"/>
			</g>
			<g id="&lt;Group&gt;">
				<path id="&lt;Path&gt;" class="s1" d="m1327.6 4008h-930.9v-48.7h930.9z"/>
			</g>
			<g id="&lt;Group&gt;">
				<path id="&lt;Path&gt;" class="s1" d="m926.1 4124.9h-529.4v-48.8h529.4z"/>
			</g>
			<g id="&lt;Group&gt;">
				<path id="&lt;Path&gt;" class="s1" d="m1286.3 4241.7h-889.6v-48.7h889.6z"/>
			</g>
			<g id="&lt;Group&gt;">
				<path id="&lt;Path&gt;" class="s1" d="m1435.1 4358.5h-1038.4v-48.7h1038.4z"/>
			</g>
			<g id="&lt;Group&gt;">
				<path id="&lt;Path&gt;" class="s2" d="m2738.5 2557.2c80.5 0 146 63.8 148.9 143.6h59.7c-2.9-112.7-95.2-203.2-208.6-203.2z"/>
				<path id="&lt;Path&gt;" class="s3" d="m2729.4 2557.5v-59.7c-109.2 4.7-196.7 93.3-199.5 203h59.7c2.7-76.7 63.5-138.7 139.8-143.3z"/>
				<path id="&lt;Path&gt;" class="s2" d="m2738.5 2855.3v59.6c113.4 0 205.7-90.5 208.6-203.2h-59.7c-2.9 79.8-68.4 143.6-148.9 143.6z"/>
				<path id="&lt;Path&gt;" class="s3" d="m2589.6 2711.7h-59.7c2.8 109.7 90.3 198.3 199.5 203v-59.7c-76.3-4.6-137.1-66.5-139.8-143.3z"/>
				<path id="&lt;Path&gt;" class="s4" d="m2895.4 2518.3c104.5 84.7 122.4 236.6 42.1 343.2l77.4 62.8c115-149.3 90.5-364-56.7-483.4z"/>
				<path id="&lt;Path&gt;" class="s2" d="m2883.3 2509.1l62.9-77.5c-146.7-109-353.6-86-472.7 53.4l77.4 62.8c84.4-96.7 228.6-113.1 332.4-38.7z"/>
				<path id="&lt;Path&gt;" class="s5" d="m2581.5 2905.1l-62.8 77.4c147.2 119.5 362.3 99.2 484.8-44l-77.5-62.9c-87.7 100.6-240 114.3-344.5 29.5z"/>
				<path id="&lt;Path&gt;" class="s2" d="m2539.5 2561.9l-77.5-62.8c-111.9 145.3-91.7 352.5 45.2 473.6l62.8-77.5c-94.1-86.3-107.8-230.7-30.5-333.3z"/>
				<path id="&lt;Path&gt;" class="s2" d="m2678.2 2312.7c215.4-32.6 416.8 111.7 456.8 324.2l159.7-24.2c-53.3-300.6-337-505.5-640.7-459.6z"/>
				<path id="&lt;Path&gt;" class="s4" d="m2653.9 2317.2l-24.1-159.9c-290.5 56.8-488.8 329.4-452 624.3l159.8-24.2c-23.7-206.6 114-397.1 316.3-440.2z"/>
				<path id="&lt;Path&gt;" class="s2" d="m2798.8 3110.7l24.1 159.6c303.7-45.9 514.1-325.5 476.2-628.4l-159.7 24.1c24.6 214.8-125.1 412.1-340.6 444.7z"/>
				<path id="&lt;Path&gt;" class="s3" d="m2342 2786.6l-159.8 24.1c51.9 292.5 322 494.4 616.3 462.8l-24.2-159.9c-206 18.6-393.9-122.7-432.3-327z"/>
				<path id="&lt;Path&gt;" class="s3" d="m3143 2175.5c289.5 223.3 348.4 634.9 137.3 929.9l214.7 165.6c302.4-413.6 221.5-995.3-186.6-1310.1z"/>
				<path id="&lt;Path&gt;" class="s5" d="m2650.4 1584.7c526.3-108.5 1041.1 220.3 1167.4 738.1l390.1-80.4c-170.8-733.2-896.2-1200.5-1637.9-1047.6z"/>
				<path id="&lt;Path&gt;" class="s2" d="m3109.5 2151.3l165.6-214.8c-405.9-286.3-966.6-210.1-1281.1 176.8l214.7 165.5c222.9-268.5 613.6-322.7 900.8-127.5z"/>
				<path id="&lt;Path&gt;" class="s5" d="m2315.8 3247.9l-165.5 214.6c408.1 314.7 991.3 245.2 1314.5-152.4l-214.7-165.6c-231.7 279.2-644.7 326.8-934.3 103.4z"/>
				<path id="&lt;Path&gt;" class="s3" d="m2178.5 2318l-214.7-165.6c-294.3 402.5-225.6 964.1 154.4 1284.1l165.7-214.8c-261.7-228.2-308.5-619.9-105.4-903.7z"/>
				<path id="&lt;Path&gt;" class="s3" d="m1636.4 2168.8l-318.4-245.6c-436.6 597.1-334.6 1430.2 229.1 1904.8l245.7-318.6c-388.2-338.6-457.6-919.5-156.4-1340.6z"/>
			</g>
			<g id="&lt;Group&gt;">
				<g id="&lt;Group&gt;">
					<path id="&lt;Path&gt;" class="s3" d="m485.2 1846.8l-17.9 23.5-26.3 12.2v49.9l29.2 5.7c0 0 19.7-31.1 34.8 0h47c0 0 21.7-29.2 37.7 0h21.6c0 0 15.1-29.2 0-45.7l-25.4-13.6-16.9-32z"/>
					<path id="&lt;Path&gt;" class="s3" d="m501.1 1943.5c0 8-6.2 14.6-13.8 14.6-7.5 0-13.7-6.6-13.7-14.6 0-8.1 6.2-14.6 13.7-14.6 7.6 0 13.8 6.5 13.8 14.6z"/>
					<path id="&lt;Path&gt;" class="s3" d="m585.7 1943.5c0 8-6.2 14.6-13.8 14.6-7.6 0-13.7-6.6-13.7-14.6 0-8.1 6.1-14.6 13.7-14.6 7.6 0 13.8 6.5 13.8 14.6z"/>
				</g>
				<g id="&lt;Group&gt;">
					<path id="&lt;Path&gt;" class="s2" d="m529.5 1783c64.2 0 116.4 50.9 118.7 114.5h47.6c-2.3-89.9-75.9-162-166.3-162z"/>
					<path id="&lt;Path&gt;" class="s3" d="m522.3 1783.3v-47.6c-87.1 3.7-156.8 74.4-159 161.8h47.5c2.2-61.2 50.7-110.6 111.5-114.2z"/>
					<path id="&lt;Path&gt;" class="s2" d="m529.5 2020.6v47.5c90.4 0 164-72.1 166.3-161.9h-47.6c-2.3 63.6-54.5 114.4-118.7 114.4z"/>
					<path id="&lt;Path&gt;" class="s3" d="m410.8 1906.2h-47.5c2.2 87.4 71.9 158 159 161.8v-47.6c-60.8-3.7-109.3-53.1-111.5-114.2z"/>
				</g>
			</g>
			<g id="&lt;Group&gt;">
				<path id="&lt;Path&gt;" class="s3" d="m4378.1 3032.1c0 0-6.1-18.3 32.8-19.4 0 0-4.1-25.4 33.8-20.3 0 0 15.3-29.9 45-0.7 0 0 31.7 2.7 31.7 25.1 0 0 32.8-6.1 19.5 16.3 0 0-16.4 19.4-45.1 12.2 0 0-32.7 19.5-52.2 1.6 0 0-21.5 8.6-29.6-4.6 0 0-32.8 3.3-35.9-10.2z"/>
				<g id="&lt;Group&gt;">
					<path id="&lt;Path&gt;" class="s2" d="m4460.9 2897.9c64.2 0 116.4 50.9 118.7 114.5h47.6c-2.3-89.9-75.9-162-166.3-162z"/>
					<path id="&lt;Path&gt;" class="s3" d="m4453.7 2898.1v-47.6c-87.1 3.8-156.8 74.4-159 161.9h47.5c2.2-61.2 50.7-110.6 111.5-114.3z"/>
					<path id="&lt;Path&gt;" class="s2" d="m4460.9 3135.5v47.5c90.4 0 164-72.1 166.3-162h-47.6c-2.3 63.6-54.5 114.5-118.7 114.5z"/>
					<path id="&lt;Path&gt;" class="s3" d="m4342.2 3021h-47.5c2.2 87.5 71.9 158.1 159 161.8v-47.6c-60.8-3.6-109.3-53-111.5-114.2z"/>
				</g>
			</g>
			<g id="&lt;Group&gt;">
				<path id="&lt;Path&gt;" class="s3" d="m4083.4 1286.3v-64.6l16.7-9.8v-21.5l17.6-16.6v-24.5h21.5v53.8l63.6 32.3-20.5 1-1 49.9z"/>
				<g id="&lt;Group&gt;">
					<path id="&lt;Path&gt;" class="s2" d="m4209.5 1115c53.2 35.9 68.1 107.3 34.5 161.2l39.4 26.6c48.3-75.7 27.7-176.7-47.3-227.2z"/>
					<path id="&lt;Path&gt;" class="s3" d="m4203.4 1111.1l26.6-39.4c-74.2-45.6-171.5-26-222.3 45.2l39.4 26.6c36.1-49.5 103.9-63.3 156.3-32.4z"/>
					<path id="&lt;Path&gt;" class="s2" d="m4076.7 1311.9l-26.6 39.4c75 50.6 176.3 31.9 228.4-41.3l-39.4-26.6c-37.5 51.5-109.2 64.4-162.4 28.5z"/>
					<path id="&lt;Path&gt;" class="s3" d="m4042.3 1150.7l-39.4-26.6c-47.1 73.7-28.8 171.3 41.3 223.1l26.6-39.5c-48.3-37-60.9-105.1-28.5-157z"/>
				</g>
			</g>
			<g id="&lt;Group&gt;">
				<path id="&lt;Path&gt;" class="s3" d="m814 2460.2v-44l11.3-6.6v-14.7l12-11.3v-16.7h14.7v36.7l43.3 22-14 0.6-0.7 34z"/>
				<g id="&lt;Group&gt;">
					<path id="&lt;Path&gt;" class="s2" d="m899.9 2343.5c36.2 24.5 46.4 73.1 23.4 109.9l26.9 18.1c32.9-51.6 18.9-120.4-32.2-154.8z"/>
					<path id="&lt;Path&gt;" class="s3" d="m895.7 2340.9l18.1-26.9c-50.5-31-116.8-17.7-151.4 30.8l26.9 18.1c24.5-33.7 70.7-43.1 106.4-22z"/>
					<path id="&lt;Path&gt;" class="s2" d="m809.4 2477.7l-18.1 26.8c51.1 34.5 120.1 21.8 155.6-28.1l-26.9-18.1c-25.5 35-74.4 43.8-110.6 19.4z"/>
					<path id="&lt;Path&gt;" class="s3" d="m786 2367.8l-26.9-18.1c-32 50.3-19.6 116.7 28.2 152l18.1-26.9c-32.9-25.2-41.5-71.6-19.4-107z"/>
				</g>
			</g>
			<g id="&lt;Group&gt;">
				<path id="&lt;Path&gt;" class="s3" d="m427.7 3104.5v-64.6l16.6-9.8v-21.5l17.6-16.6v-24.5h21.5v53.8l63.6 32.3-20.5 1-1 49.9z"/>
				<g id="&lt;Group&gt;">
					<path id="&lt;Path&gt;" class="s2" d="m553.8 2933.2c53.1 35.8 68 107.2 34.4 161.2l39.4 26.6c48.3-75.8 27.7-176.7-47.3-227.2z"/>
					<path id="&lt;Path&gt;" class="s3" d="m547.6 2929.3l26.6-39.4c-74.2-45.6-171.5-26-222.3 45.2l39.5 26.6c36-49.5 103.8-63.4 156.2-32.4z"/>
					<path id="&lt;Path&gt;" class="s2" d="m420.9 3130.1l-26.6 39.4c75 50.6 176.3 31.9 228.4-41.3l-39.4-26.6c-37.4 51.4-109.2 64.4-162.4 28.5z"/>
					<path id="&lt;Path&gt;" class="s3" d="m386.5 2968.9l-39.4-26.6c-47.1 73.7-28.8 171.3 41.3 223l26.6-39.4c-48.3-37.1-60.9-105.1-28.5-157z"/>
				</g>
			</g>
			<g id="&lt;Group&gt;">
				<path id="&lt;Path&gt;" class="s3" d="m4437.9 2015.6l82.4-83.9 83.9 83.9h-34.2v66.8h-35.8v-48.2h-32.6v48.2h-41.9v-66.8z"/>
				<g id="&lt;Group&gt;">
					<path id="&lt;Path&gt;" class="s2" d="m4629.6 1958.7c26 58.6 0.8 127.1-56.3 155l19.3 43.5c81.2-38.7 117.1-135.2 80.4-217.8z"/>
					<path id="&lt;Path&gt;" class="s3" d="m4626.4 1952.2l43.5-19.4c-38.8-78-131.7-112.9-212.5-79.4l19.3 43.4c56.8-22.8 121.6 1.4 149.7 55.4z"/>
					<path id="&lt;Path&gt;" class="s2" d="m4412.5 2055.3l-43.4 19.4c36.8 82.6 132.6 120.4 215.6 86l-19.4-43.5c-59 23.8-126.7-3.3-152.8-61.9z"/>
					<path id="&lt;Path&gt;" class="s3" d="m4468.8 1900.4l-19.3-43.5c-79 37.6-115.2 130-83.2 211.1l43.5-19.4c-21.4-57 4-121.3 59-148.2z"/>
				</g>
			</g>
			<g id="&lt;Group&gt;">
				<path id="&lt;Path&gt;" class="s4" d="m4036.1 4703.1c0 0-69.1 29.1-101.5 21.8 0 0-31.4 14.5-9.6 41.5 0 0 81 35.4 193.1 16.7 0 0 83.1 0 116.3-7.3 0 0 5.2-63.4-22.8-84.1z"/>
				<g id="&lt;Group&gt;">
					<path id="&lt;Path&gt;" class="s6" d="m4139.9 4593c0 0-63.3 103.9-103.8 110.1 0 0 12.4 38.4 62.3 31.2 0 0 95.5-13.5 113.2-42.6 0 0-3.1-70.6 0-91.4 0 0-45.7-22.8-71.7-7.3z"/>
				</g>
				<path id="&lt;Path&gt;" class="s4" d="m3848.7 4789.5c0 0-69 29-101.5 21.8 0 0-31.4 14.5-9.6 41.5 0 0 81 35.3 193.2 16.6 0 0 83.1 0 116.3-7.2 0 0 5.2-63.4-22.9-84.2z"/>
				<g id="&lt;Group&gt;">
					<path id="&lt;Path&gt;" class="s6" d="m3952.6 4679.4c0 0-63.4 103.8-103.9 110.1 0 0 12.5 38.4 62.4 31.1 0 0 95.5-13.5 113.1-42.6 0 0-3.1-70.6 0-91.3 0 0-45.7-22.9-71.6-7.3z"/>
				</g>
				<path id="&lt;Path&gt;" class="s7" d="m4090.7 4403.2c0 0 26.5 165.9 7.8 225.4 0 0 81 23 115.2 0 0 0 35.9-269 0-382.7 0 0-60.7-249.3-65.4-277.3l-91.9 176v98.2z"/>
				<path id="&lt;Path&gt;" class="s8" d="m4191.9 3900.1c0 0-90.3 236.7-102.8 297.5 0 0 2.4 31.5 12.5 70.1 0 0 28 21.8-49.8 422.1 0 0-53 37.4-107.5-9.4 0 0 52.9-294.4 31.1-350.4 0 0-37.4-102.8-23.3-144.9 0 0 3.1-218 17.1-261.7 0 0 132.4-54.5 222.7-23.3z"/>
				<path id="&lt;Path&gt;" class="s2" d="m3936.5 3138.4c0 0-74.3 73.7-75.8 184.3l14 348.9 23.9 278.8h37.9l-16.6-208.7-10.9-277.3-1.6-99.6 29.1-126.2 16.1-71.1z"/>
				<path id="&lt;Path&gt;" class="s4" d="m3937 3168.5c0 0-55 99.2-62.8 177.1 0 0 1.5 34.2 23.4 96.5 0 0-5.8 286.3 8 351.1 0 0 41.8 11.9 62 11.9l48.3-489.1 30.7-163.6v-67l-7.2-9.8-17.2-7.8c0 0-78.4 60.7-85.2 100.7z"/>
				<path id="&lt;Path&gt;" class="s9" d="m3882 3032.5c0 0 65.4 89.3 55 136 0 0 78.9-47.7 85.2-100.7 0 0-34.3-33.2-46.8-82 0 0-79.9 21.8-93.4 46.7z"/>
				<path id="&lt;Path&gt;" class="s2" d="m4195.6 3183.1c0 0 52.4 41-11.4 277.7 0 0-11 73.2 0 127.8 0 0 52.9 266.3 45.1 300.6 0 0-17.5 35.8-50 26.5 0 0-20.1 4.6-48.1 1.5 0 0-141.8 14-177.6 51.4 0 0-48.3-487.5-14-593.4 0 0 45.4-265.9 99.8-299.6 0 0 74.1-51.9 156.2 107.5z"/>
				<path id="&lt;Path&gt;" class="s2" d="m4078.7 3322.4l117 185.9 10.5 269.1c0 0 18.8 45.6 73.2 0 0 0 31.3-267 18.8-321.4 0 0-69-213.8-131.6-272.9 0 0-150.7-132.3-87.9 139.3z"/>
				<path id="&lt;Path&gt;" class="s6" d="m4212.1 3786.4l-13.2 63.5v60.6l13.2 63.6 9.4 24.7c0 0 16.4 9.2 13.4-19.5l-10.3-71.9 18.5 44.1 22.6 48.7c0 0 19.5 17 18.4-10.7l-21.5-52.3-16.4-41.3 26.7 47.4 22.5 42.1c0 0 13.4 6.5 9.3-16.8l-32.9-72.7 33.7 60.8c0 0 17.7 9.2 10.5-18.5l-26.7-52.4c0 0 4.1-52.3-10.3-74.9l-5.1-43.2c0 0-47.6 2.4-61.8 18.7z"/>
				<path id="&lt;Path&gt;" class="s6" d="m3896.7 2834c0 0-37.4 17.7-46.8 49.8 0 0-3.1 17.7 0 23.9 0 0-1 7.3-6.2 18.7 0 0-23.9 74.8 19.7 109.1 0 0 48.8 17.6 100.8-29.1 0 0 16.6-6.2 35.3-24.9 0 0 27-33.3 0-38.5 0 0-17.7 1.1-23.9-74.7 0 0-28.1-59.2-78.9-34.3z"/>
				<path id="&lt;Path&gt;" class="s10" d="m3897.6 2833.1c0 0 9.3-47.5 93.4-6.1 0 0 67.5 14.8 73.7 87.8 0 0 30.1 139.5 62.3 162.3 0 0 71.7 56.1 68.6 106 0 0-58.4-91.3-118.4-106 0 0-43.7 3.6-55-9.3l-38.5-22.8-31.6-74.8v-92.2z"/>
				<path id="&lt;Path&gt;" class="s11" d="m4182.3 3486.9l-103.6-164.5c0 0-12.5-17.4-22.3-93.7 0 0-2.8 56.4 10.8 99.5l112.2 195.8z"/>
			</g>
			<g id="&lt;Group&gt;" style="opacity: .65">
				<g id="&lt;Group&gt;">
					<path id="&lt;Path&gt;" class="s12" d="m2369.5 3431.6h-1427.7c-45.6 0-82.7-37-82.7-82.7v-822.7c0-45.6 37.1-82.6 82.7-82.6h1427.7c45.7 0 82.7 37 82.7 82.6v822.7c0 45.7-37 82.7-82.7 82.7z"/>
				</g>
				<g id="&lt;Group&gt;">
					<path id="&lt;Path&gt;" class="s12" d="m1375 3047.7h-355.6c-31.2 0-56.5-25.3-56.5-56.5v-129.1c0-31.2 25.3-56.4 56.5-56.4h355.6c31.2 0 56.5 25.2 56.5 56.4v129.1c0 31.2-25.3 56.5-56.5 56.5z"/>
					<path id="&lt;Compound Path&gt;" fill-rule="evenodd" class="s13" d="m1375 3056.2h-355.6c-35.8 0-64.9-29.2-64.9-65v-129.1c0-35.7 29.1-64.9 64.9-64.9h355.6c35.8 0 64.9 29.2 64.9 64.9v129.1c0 35.8-29.1 65-64.9 65zm-355.6-242.1c-26.5 0-48.1 21.5-48.1 48v129.1c0 26.5 21.6 48.1 48.1 48.1h355.6c26.5 0 48.1-21.6 48.1-48.1v-129.1c0-26.5-21.6-48-48.1-48z"/>
				</g>
				<g id="&lt;Group&gt;">
					<path id="&lt;Path&gt;" class="s12" d="m2289.6 3047.7h-220.6c-32.5 0-58.8-26.3-58.8-58.7v-245.6c0-32.4 26.3-58.7 58.8-58.7h220.6c32.4 0 58.7 26.3 58.7 58.7v245.6c0 32.4-26.3 58.7-58.7 58.7z"/>
					<path id="&lt;Compound Path&gt;" fill-rule="evenodd" class="s13" d="m2289.6 3056.2h-220.6c-37.1 0-67.2-30.2-67.2-67.2v-245.6c0-37 30.1-67.2 67.2-67.2h220.6c37 0 67.1 30.2 67.1 67.2v245.6c0 37-30.1 67.2-67.1 67.2zm-220.6-363.1c-27.8 0-50.3 22.6-50.3 50.3v245.6c0 27.7 22.5 50.3 50.3 50.3h220.6c27.7 0 50.3-22.6 50.3-50.3v-245.6c0-27.7-22.6-50.3-50.3-50.3z"/>
				</g>
				<g id="&lt;Group&gt;">
					<path id="&lt;Path&gt;" class="s12" d="m2332.8 2608.1h-177.8c-15.6 0-28.2-12.7-28.2-28.3v-64.5c0-15.6 12.6-28.2 28.2-28.2h177.8c15.6 0 28.3 12.6 28.3 28.2v64.5c0 15.6-12.7 28.3-28.3 28.3z"/>
					<path id="&lt;Compound Path&gt;" fill-rule="evenodd" class="s13" d="m2332.8 2616.5h-177.8c-20.2 0-36.7-16.4-36.7-36.7v-64.5c0-20.2 16.5-36.7 36.7-36.7h177.8c20.2 0 36.7 16.5 36.7 36.7v64.5c0 20.3-16.5 36.7-36.7 36.7zm-177.8-121c-10.9 0-19.8 8.9-19.8 19.8v64.5c0 11 8.9 19.9 19.8 19.9h177.8c11 0 19.8-8.9 19.8-19.9v-64.5c0-10.9-8.8-19.8-19.8-19.8z"/>
				</g>
				<g id="&lt;Group&gt;">
					<path id="&lt;Path&gt;" class="s12" d="m2038.4 2608.1h-177.9c-15.6 0-28.2-12.7-28.2-28.3v-64.5c0-15.6 12.6-28.2 28.2-28.2h177.9c15.6 0 28.2 12.6 28.2 28.2v64.5c0 15.6-12.6 28.3-28.2 28.3z"/>
					<path id="&lt;Compound Path&gt;" fill-rule="evenodd" class="s13" d="m2038.4 2616.5h-177.9c-20.2 0-36.6-16.4-36.6-36.7v-64.5c0-20.2 16.4-36.7 36.6-36.7h177.9c20.2 0 36.6 16.5 36.6 36.7v64.5c0 20.3-16.4 36.7-36.6 36.7zm-177.9-121c-10.9 0-19.8 8.9-19.8 19.8v64.5c0 11 8.9 19.9 19.8 19.9h177.9c10.9 0 19.8-8.9 19.8-19.9v-64.5c0-10.9-8.9-19.8-19.8-19.8z"/>
				</g>
				<g id="&lt;Group&gt;">
					<path id="&lt;Path&gt;" class="s14" d="m1743.9 2608.1h-177.8c-15.6 0-28.3-12.7-28.3-28.3v-64.5c0-15.6 12.7-28.2 28.3-28.2h177.8c15.6 0 28.2 12.6 28.2 28.2v64.5c0 15.6-12.6 28.3-28.2 28.3z"/>
				</g>
				<g id="&lt;Group&gt;">
					<path id="&lt;Path&gt;" class="s12" d="m1449.4 2608.1h-177.8c-15.6 0-28.2-12.7-28.2-28.3v-64.5c0-15.6 12.6-28.2 28.2-28.2h177.8c15.6 0 28.3 12.6 28.3 28.2v64.5c0 15.6-12.7 28.3-28.3 28.3z"/>
					<path id="&lt;Compound Path&gt;" fill-rule="evenodd" class="s13" d="m1449.4 2616.5h-177.8c-20.2 0-36.7-16.4-36.7-36.7v-64.5c0-20.2 16.5-36.7 36.7-36.7h177.8c20.2 0 36.7 16.5 36.7 36.7v64.5c0 20.3-16.5 36.7-36.7 36.7zm-177.8-121c-10.9 0-19.8 8.9-19.8 19.8v64.5c0 11 8.9 19.9 19.8 19.9h177.8c10.9 0 19.8-8.9 19.8-19.9v-64.5c0-10.9-8.9-19.8-19.8-19.8z"/>
				</g>
				<g id="&lt;Group&gt;">
					<path id="&lt;Path&gt;" class="s12" d="m1154.9 2608.1h-177.8c-15.6 0-28.2-12.7-28.2-28.3v-64.5c0-15.6 12.6-28.2 28.2-28.2h177.8c15.6 0 28.3 12.6 28.3 28.2v64.5c0 15.6-12.7 28.3-28.3 28.3z"/>
					<path id="&lt;Compound Path&gt;" fill-rule="evenodd" class="s13" d="m1154.9 2616.5h-177.8c-20.2 0-36.6-16.4-36.6-36.7v-64.5c0-20.2 16.4-36.7 36.6-36.7h177.8c20.3 0 36.7 16.5 36.7 36.7v64.5c0 20.3-16.4 36.7-36.7 36.7zm-177.8-121c-10.9 0-19.8 8.9-19.8 19.8v64.5c0 11 8.9 19.9 19.8 19.9h177.8c11 0 19.9-8.9 19.9-19.9v-64.5c0-10.9-8.9-19.8-19.9-19.8z"/>
				</g>
				<g id="&lt;Group&gt;">
					<path id="&lt;Path&gt;" class="s14" d="m1431.5 3155.4h-440.3v-24.2h440.3z"/>
				</g>
				<g id="&lt;Group&gt;">
					<path id="&lt;Path&gt;" class="s14" d="m1291.6 3206.9h-300.4v-24.2h300.4z"/>
				</g>
				<g id="&lt;Group&gt;">
					<path id="&lt;Path&gt;" class="s14" d="m1431.5 3258.4h-440.3v-24.3h440.3z"/>
				</g>
				<g id="&lt;Group&gt;">
					<path id="&lt;Path&gt;" class="s14" d="m1383.4 3309.8h-392.2v-24.2h392.2z"/>
				</g>
				<g id="&lt;Group&gt;">
					<path id="&lt;Path&gt;" class="s14" d="m2399.4 3169.1h-440.3v-24.2h440.3z"/>
				</g>
				<g id="&lt;Group&gt;">
					<path id="&lt;Path&gt;" class="s14" d="m2259.5 3220.5h-300.4v-24.2h300.4z"/>
				</g>
				<g id="&lt;Group&gt;">
					<path id="&lt;Path&gt;" class="s14" d="m2399.4 3272h-440.3v-24.2h440.3z"/>
				</g>
				<g id="&lt;Group&gt;">
					<path id="&lt;Path&gt;" class="s14" d="m2351.3 3323.4h-392.2v-24.2h392.2z"/>
				</g>
				<g id="&lt;Group&gt;">
					<path id="&lt;Path&gt;" class="s15" d="m1618.1 2814.4v124h70.4v-124z"/>
				</g>
				<g id="&lt;Group&gt;">
					<path id="&lt;Path&gt;" class="s15" d="m1720.2 2794v144.4h70.5v-144.4z"/>
				</g>
				<g id="&lt;Group&gt;">
					<path id="&lt;Path&gt;" class="s15" d="m1822.1 2794v144.4h70.4v-144.4z"/>
				</g>
				<g id="&lt;Group&gt;">
					<path id="&lt;Path&gt;" class="s16" d="m1518.9 2926.2l119.9-57.1 63.1 39.6 144.6-65.2 10.7 8.2 17-25.7h-37.7l7.7 8.2-139.2 59.4-61.6-39.6-124.5 59.3z"/>
				</g>
				<g id="&lt;Group&gt;">
					<path id="&lt;Path&gt;" class="s15" d="m1881.5 3169.1c0 93.8-76.1 169.9-169.9 169.9-93.8 0-169.9-76.1-169.9-169.9 0-93.9 76.1-169.9 169.9-169.9 93.8 0 169.9 76 169.9 169.9z"/>
				</g>
				<g id="&lt;Group&gt;">
					<path id="&lt;Path&gt;" class="s16" d="m1711.6 3169.1l155.7-68c0 0-33.6-77.6-110.9-95.9z"/>
				</g>
				<g id="&lt;Group&gt;">
					<path id="&lt;Path&gt;" class="s8" d="m1711.6 3169.1l-14.7-169.3c0 0 38-3.3 59.5 5.4z"/>
				</g>
			</g>
			<g id="&lt;Group&gt;" style="opacity: .67">
				<g id="&lt;Group&gt;">
					<path id="&lt;Path&gt;" class="s12" d="m2197.2 4194.7h-539.5c-17.2 0-31.2-14-31.2-31.2v-310.9c0-17.3 14-31.3 31.2-31.3h539.5c17.3 0 31.2 14 31.2 31.3v310.9c0 17.2-13.9 31.2-31.2 31.2z"/>
				</g>
				<g id="&lt;Group&gt;">
					<path id="&lt;Path&gt;" class="s12" d="m2183.3 3883.5h-67.1c-5.9 0-10.7-4.8-10.7-10.7v-24.3c0-5.9 4.8-10.7 10.7-10.7h67.1c5.9 0 10.7 4.8 10.7 10.7v24.3c0 5.9-4.8 10.7-10.7 10.7z"/>
					<path id="&lt;Compound Path&gt;" fill-rule="evenodd" class="s13" d="m2183.3 3886.7h-67.1c-7.7 0-13.9-6.2-13.9-13.9v-24.3c0-7.7 6.2-13.9 13.9-13.9h67.1c7.7 0 13.9 6.2 13.9 13.9v24.3c0 7.7-6.2 13.9-13.9 13.9zm-67.1-45.7c-4.2 0-7.5 3.3-7.5 7.5v24.3c0 4.2 3.3 7.5 7.5 7.5h67.1c4.2 0 7.5-3.3 7.5-7.5v-24.3c0-4.2-3.3-7.5-7.5-7.5z"/>
				</g>
				<g id="&lt;Group&gt;">
					<path id="&lt;Path&gt;" class="s12" d="m2072.1 3883.5h-67.2c-5.9 0-10.7-4.8-10.7-10.7v-24.3c0-5.9 4.8-10.7 10.7-10.7h67.2c5.9 0 10.6 4.8 10.6 10.7v24.3c0 5.9-4.7 10.7-10.6 10.7z"/>
					<path id="&lt;Compound Path&gt;" fill-rule="evenodd" class="s13" d="m2072.1 3886.7h-67.2c-7.7 0-13.9-6.2-13.9-13.9v-24.3c0-7.7 6.2-13.9 13.9-13.9h67.2c7.6 0 13.8 6.2 13.8 13.9v24.3c0 7.7-6.2 13.9-13.8 13.9zm-67.2-45.7c-4.1 0-7.5 3.3-7.5 7.5v24.3c0 4.2 3.4 7.5 7.5 7.5h67.2c4.1 0 7.5-3.3 7.5-7.5v-24.3c0-4.2-3.4-7.5-7.5-7.5z"/>
				</g>
				<g id="&lt;Group&gt;">
					<path id="&lt;Path&gt;" class="s14" d="m1960.8 3883.5h-67.2c-5.9 0-10.7-4.8-10.7-10.7v-24.3c0-5.9 4.8-10.7 10.7-10.7h67.2c5.9 0 10.7 4.8 10.7 10.7v24.3c0 5.9-4.8 10.7-10.7 10.7z"/>
				</g>
				<g id="&lt;Group&gt;">
					<path id="&lt;Path&gt;" class="s12" d="m1849.5 3883.5h-67.2c-5.9 0-10.6-4.8-10.6-10.7v-24.3c0-5.9 4.7-10.7 10.6-10.7h67.2c5.9 0 10.7 4.8 10.7 10.7v24.3c0 5.9-4.8 10.7-10.7 10.7z"/>
					<path id="&lt;Compound Path&gt;" fill-rule="evenodd" class="s13" d="m1849.5 3886.7h-67.2c-7.6 0-13.8-6.2-13.8-13.9v-24.3c0-7.7 6.2-13.9 13.8-13.9h67.2c7.7 0 13.9 6.2 13.9 13.9v24.3c0 7.7-6.2 13.9-13.9 13.9zm-67.2-45.7c-4.1 0-7.4 3.3-7.4 7.5v24.3c0 4.2 3.3 7.5 7.4 7.5h67.2c4.2 0 7.5-3.3 7.5-7.5v-24.3c0-4.2-3.3-7.5-7.5-7.5z"/>
				</g>
				<g id="&lt;Group&gt;">
					<path id="&lt;Path&gt;" class="s12" d="m1738.3 3883.5h-67.2c-5.9 0-10.7-4.8-10.7-10.7v-24.3c0-5.9 4.8-10.7 10.7-10.7h67.2c5.9 0 10.6 4.8 10.6 10.7v24.3c0 5.9-4.7 10.7-10.6 10.7z"/>
					<path id="&lt;Compound Path&gt;" fill-rule="evenodd" class="s13" d="m1738.3 3886.7h-67.2c-7.7 0-13.9-6.2-13.9-13.9v-24.3c0-7.7 6.2-13.9 13.9-13.9h67.2c7.6 0 13.8 6.2 13.8 13.9v24.3c0 7.7-6.2 13.9-13.8 13.9zm-67.2-45.7c-4.2 0-7.5 3.3-7.5 7.5v24.3c0 4.2 3.3 7.5 7.5 7.5h67.2c4.1 0 7.5-3.3 7.5-7.5v-24.3c0-4.2-3.4-7.5-7.5-7.5z"/>
				</g>
				<g id="&lt;Group&gt;">
					<path id="&lt;Path&gt;" class="s14" d="m1842.8 4090.3h-166.4v-9.1h166.4z"/>
				</g>
				<g id="&lt;Group&gt;">
					<path id="&lt;Path&gt;" class="s14" d="m1789.9 4109.8h-113.5v-9.2h113.5z"/>
				</g>
				<g id="&lt;Group&gt;">
					<path id="&lt;Path&gt;" class="s14" d="m1842.8 4129.2h-166.4v-9.1h166.4z"/>
				</g>
				<g id="&lt;Group&gt;">
					<path id="&lt;Path&gt;" class="s14" d="m1824.6 4148.7h-148.2v-9.2h148.2z"/>
				</g>
				<g id="&lt;Group&gt;">
					<path id="&lt;Path&gt;" class="s14" d="m2208.5 4095.5h-166.4v-9.2h166.4z"/>
				</g>
				<g id="&lt;Group&gt;">
					<path id="&lt;Path&gt;" class="s14" d="m2155.7 4114.9h-113.6v-9.1h113.6z"/>
				</g>
				<g id="&lt;Group&gt;">
					<path id="&lt;Path&gt;" class="s14" d="m2208.5 4134.4h-166.4v-9.2h166.4z"/>
				</g>
				<g id="&lt;Group&gt;">
					<path id="&lt;Path&gt;" class="s14" d="m2190.3 4153.8h-148.2v-9.1h148.2z"/>
				</g>
				<g id="&lt;Group&gt;">
					<path id="&lt;Path&gt;" class="s15" d="m1983.6 4120.1c0 26.3-21.3 47.6-47.6 47.6-26.3 0-47.6-21.3-47.6-47.6 0-26.3 21.3-47.6 47.6-47.6 26.3 0 47.6 21.3 47.6 47.6z"/>
				</g>
				<g id="&lt;Group&gt;">
					<path id="&lt;Path&gt;" class="s16" d="m1936 4120.1l43.6-19c0 0-9.4-21.8-31.1-26.9z"/>
				</g>
				<g id="&lt;Group&gt;">
					<path id="&lt;Path&gt;" class="s8" d="m1936 4120.1l-4.1-47.4c0 0 10.6-1 16.6 1.5z"/>
				</g>
				<g id="&lt;Group&gt;">
					<g id="&lt;Group&gt;">
						<g id="&lt;Group&gt;">
							<path id="&lt;Path&gt;" class="s1" d="m1732.9 4042.3h-15.9v-133.3h15.9z"/>
						</g>
					</g>
					<g id="&lt;Group&gt;">
						<g id="&lt;Group&gt;">
							<path id="&lt;Path&gt;" class="s1" d="m1766.7 4042.3h-15.8v-104.9h15.8z"/>
						</g>
					</g>
					<g id="&lt;Group&gt;">
						<g id="&lt;Group&gt;">
							<path id="&lt;Path&gt;" class="s1" d="m1799.8 4042.3h-15.9v-89h15.9z"/>
						</g>
					</g>
					<g id="&lt;Group&gt;">
						<g id="&lt;Group&gt;">
							<path id="&lt;Path&gt;" class="s1" d="m1834.4 4042.3h-15.8v-69.7h15.8z"/>
						</g>
					</g>
					<g id="&lt;Group&gt;">
						<g id="&lt;Group&gt;">
							<path id="&lt;Path&gt;" class="s1" d="m1868.3 4042.3h-15.9v-125.8h15.9z"/>
						</g>
					</g>
					<g id="&lt;Group&gt;">
						<g id="&lt;Group&gt;">
							<path id="&lt;Path&gt;" class="s1" d="m1902.1 4042.3h-15.8v-100.6h15.8z"/>
						</g>
					</g>
					<g id="&lt;Group&gt;">
						<g id="&lt;Group&gt;">
							<path id="&lt;Path&gt;" class="s1" d="m1936 4042.3h-15.9v-109.9h15.9z"/>
						</g>
					</g>
					<g id="&lt;Group&gt;">
						<g id="&lt;Group&gt;">
							<path id="&lt;Path&gt;" class="s1" d="m1969.8 4042.3h-15.8v-75.5h15.8z"/>
						</g>
					</g>
					<g id="&lt;Group&gt;">
						<g id="&lt;Group&gt;">
							<path id="&lt;Path&gt;" class="s1" d="m2003.7 4042.3h-15.9v-89.9h15.9z"/>
						</g>
					</g>
					<g id="&lt;Group&gt;">
						<g id="&lt;Group&gt;">
							<path id="&lt;Path&gt;" class="s1" d="m2037.5 4042.3h-15.8v-67.8h15.8z"/>
						</g>
					</g>
					<g id="&lt;Group&gt;">
						<g id="&lt;Group&gt;">
							<path id="&lt;Path&gt;" class="s1" d="m2071.4 4042.3h-15.9v-57.3h15.9z"/>
						</g>
					</g>
					<g id="&lt;Group&gt;">
						<g id="&lt;Group&gt;">
							<path id="&lt;Path&gt;" class="s1" d="m2105.3 4042.3h-15.9v-88.1h15.9z"/>
						</g>
					</g>
					<g id="&lt;Group&gt;">
						<g id="&lt;Group&gt;">
							<path id="&lt;Path&gt;" class="s1" d="m2139.1 4042.3h-15.8v-122.8h15.8z"/>
						</g>
					</g>
					<g id="&lt;Group&gt;">
						<g id="&lt;Group&gt;">
							<path id="&lt;Path&gt;" class="s17" d="m2063.6 3979.4l-34.3-9.9h-0.1l-34.4-25.7-33.7 17.1-32.3-39.4-37.5 13.8-0.1-0.1-32.2-35.5-32.8 66.5-35.7-20.4-31.9-16.6-33.8-29.7 0.3-0.4 33.8 29.7 31.9 16.6 35.2 20.1 32.8-66.6 0.3 0.2 32.3 35.6 37.6-13.8 0.1 0.1 32.1 39.3 33.7-17.1 34.6 25.9 33.9 9.8 33.8-36.8 33.8-34.2 0.4 0.3-33.9 34.2z"/>
						</g>
					</g>
					<g id="&lt;Group&gt;">
						<g id="&lt;Group&gt;">
							<path id="&lt;Path&gt;" class="s18" d="m1728.6 3899c0 2.2-1.8 4-4 4-2.2 0-3.9-1.8-3.9-4 0-2.1 1.7-3.9 3.9-3.9 2.2 0 4 1.8 4 3.9z"/>
						</g>
						<g id="&lt;Group&gt;">
							<path id="&lt;Compound Path&gt;" fill-rule="evenodd" class="s18" d="m1724.6 3903c-2.2 0-4-1.8-4-4 0-2.2 1.8-4 4-4 2.2 0 4 1.8 4 4 0 2.2-1.8 4-4 4zm0-7.8c-2.1 0-3.9 1.7-3.9 3.8 0 2.2 1.8 3.9 3.9 3.9 2.2 0 3.9-1.7 3.9-3.9 0-2.1-1.7-3.8-3.9-3.8z"/>
						</g>
					</g>
					<g id="&lt;Group&gt;">
						<g id="&lt;Group&gt;">
							<path id="&lt;Path&gt;" class="s18" d="m1762 3928.5c0 2.2-1.8 3.9-4 3.9-2.2 0-3.9-1.7-3.9-3.9 0-2.2 1.7-3.9 3.9-3.9 2.2 0 4 1.7 4 3.9z"/>
						</g>
						<g id="&lt;Group&gt;">
							<path id="&lt;Compound Path&gt;" fill-rule="evenodd" class="s18" d="m1758 3932.5c-2.2 0-4-1.8-4-4 0-2.2 1.8-4 4-4 2.2 0 4 1.8 4 4 0 2.2-1.8 4-4 4zm0-7.9c-2.1 0-3.9 1.8-3.9 3.9 0 2.1 1.8 3.9 3.9 3.9 2.2 0 3.9-1.8 3.9-3.9 0-2.1-1.7-3.9-3.9-3.9z"/>
						</g>
					</g>
					<g id="&lt;Group&gt;">
						<g id="&lt;Group&gt;">
							<path id="&lt;Path&gt;" class="s18" d="m1795.8 3945.6c0 2.2-1.8 4-3.9 4-2.2 0-4-1.8-4-4 0-2.2 1.8-3.9 4-3.9 2.1 0 3.9 1.7 3.9 3.9z"/>
						</g>
						<g id="&lt;Group&gt;">
							<path id="&lt;Compound Path&gt;" fill-rule="evenodd" class="s18" d="m1791.9 3949.6c-2.2 0-4-1.8-4-4 0-2.2 1.8-4 4-4 2.2 0 4 1.8 4 4 0 2.2-1.8 4-4 4zm0-7.9c-2.2 0-3.9 1.8-3.9 3.9 0 2.2 1.7 3.9 3.9 3.9 2.1 0 3.8-1.7 3.8-3.9 0-2.1-1.7-3.9-3.8-3.9z"/>
						</g>
					</g>
					<g id="&lt;Group&gt;">
						<g id="&lt;Group&gt;">
							<path id="&lt;Path&gt;" class="s18" d="m1829.7 3965.6c0 2.2-1.8 4-4 4-2.1 0-3.9-1.8-3.9-4 0-2.2 1.8-3.9 3.9-3.9 2.2 0 4 1.7 4 3.9z"/>
						</g>
						<g id="&lt;Group&gt;">
							<path id="&lt;Compound Path&gt;" fill-rule="evenodd" class="s18" d="m1825.7 3969.6c-2.2 0-4-1.8-4-4 0-2.2 1.8-4 4-4 2.2 0 4 1.8 4 4 0 2.2-1.8 4-4 4zm0-7.9c-2.1 0-3.8 1.8-3.8 3.9 0 2.2 1.7 3.9 3.8 3.9 2.2 0 3.9-1.7 3.9-3.9 0-2.1-1.7-3.9-3.9-3.9z"/>
						</g>
					</g>
					<g id="&lt;Group&gt;">
						<g id="&lt;Group&gt;">
							<path id="&lt;Path&gt;" class="s18" d="m1862.6 3899.3c0 2.2-1.8 3.9-3.9 3.9-2.2 0-4-1.7-4-3.9 0-2.2 1.8-4 4-4 2.1 0 3.9 1.8 3.9 4z"/>
						</g>
						<g id="&lt;Group&gt;">
							<path id="&lt;Compound Path&gt;" fill-rule="evenodd" class="s18" d="m1858.7 3903.3c-2.2 0-4-1.8-4-4 0-2.2 1.8-4 4-4 2.2 0 4 1.8 4 4 0 2.2-1.8 4-4 4zm0-7.9c-2.2 0-3.9 1.7-3.9 3.9 0 2.1 1.7 3.9 3.9 3.9 2.1 0 3.8-1.8 3.8-3.9 0-2.2-1.7-3.9-3.8-3.9z"/>
						</g>
					</g>
					<g id="&lt;Group&gt;">
						<g id="&lt;Group&gt;">
							<path id="&lt;Path&gt;" class="s18" d="m1895.2 3935.1c0 2.2-1.7 3.9-3.9 3.9-2.2 0-4-1.7-4-3.9 0-2.2 1.8-3.9 4-3.9 2.2 0 3.9 1.7 3.9 3.9z"/>
						</g>
						<g id="&lt;Group&gt;">
							<path id="&lt;Compound Path&gt;" fill-rule="evenodd" class="s18" d="m1891.3 3939.1c-2.2 0-4-1.8-4-4 0-2.2 1.8-4 4-4 2.2 0 4 1.8 4 4 0 2.2-1.8 4-4 4zm0-7.9c-2.2 0-3.9 1.8-3.9 3.9 0 2.1 1.7 3.9 3.9 3.9 2.1 0 3.9-1.8 3.9-3.9 0-2.1-1.8-3.9-3.9-3.9z"/>
						</g>
					</g>
					<g id="&lt;Group&gt;">
						<g id="&lt;Group&gt;">
							<path id="&lt;Path&gt;" class="s18" d="m1932.8 3922c0 2.1-1.7 3.9-3.9 3.9-2.2 0-3.9-1.8-3.9-3.9 0-2.2 1.7-4 3.9-4 2.2 0 3.9 1.8 3.9 4z"/>
						</g>
						<g id="&lt;Group&gt;">
							<path id="&lt;Compound Path&gt;" fill-rule="evenodd" class="s18" d="m1928.9 3926c-2.2 0-4-1.8-4-4 0-2.2 1.8-4 4-4 2.2 0 4 1.8 4 4 0 2.2-1.8 4-4 4zm0-7.9c-2.1 0-3.9 1.7-3.9 3.9 0 2.1 1.8 3.8 3.9 3.8 2.1 0 3.9-1.7 3.9-3.8 0-2.2-1.8-3.9-3.9-3.9z"/>
						</g>
					</g>
					<g id="&lt;Group&gt;">
						<g id="&lt;Group&gt;">
							<path id="&lt;Path&gt;" class="s18" d="m1964.2 3960.8c0 2.2-1.8 4-4 4-2.1 0-3.9-1.8-3.9-4 0-2.1 1.8-3.9 3.9-3.9 2.2 0 4 1.8 4 3.9z"/>
						</g>
						<g id="&lt;Group&gt;">
							<path id="&lt;Compound Path&gt;" fill-rule="evenodd" class="s18" d="m1960.2 3964.8c-2.2 0-4-1.8-4-4 0-2.2 1.8-4 4-4 2.2 0 4 1.8 4 4 0 2.2-1.8 4-4 4zm0-7.8c-2.1 0-3.8 1.7-3.8 3.8 0 2.2 1.7 3.9 3.8 3.9 2.2 0 3.9-1.7 3.9-3.9 0-2.1-1.7-3.8-3.9-3.8z"/>
						</g>
					</g>
					<g id="&lt;Group&gt;">
						<g id="&lt;Group&gt;">
							<path id="&lt;Path&gt;" class="s18" d="m1999.7 3943.5c0 2.2-1.8 3.9-3.9 3.9-2.2 0-4-1.7-4-3.9 0-2.2 1.8-4 4-4 2.1 0 3.9 1.8 3.9 4z"/>
						</g>
						<g id="&lt;Group&gt;">
							<path id="&lt;Compound Path&gt;" fill-rule="evenodd" class="s18" d="m1995.8 3947.5c-2.2 0-4-1.8-4-4 0-2.2 1.8-4 4-4 2.2 0 4 1.8 4 4 0 2.2-1.8 4-4 4zm0-7.9c-2.2 0-3.9 1.7-3.9 3.9 0 2.1 1.7 3.9 3.9 3.9 2.1 0 3.8-1.8 3.8-3.9 0-2.2-1.7-3.9-3.8-3.9z"/>
						</g>
					</g>
					<g id="&lt;Group&gt;">
						<g id="&lt;Group&gt;">
							<path id="&lt;Path&gt;" class="s18" d="m2032.8 3969.3c0 2.2-1.8 3.9-4 3.9-2.1 0-3.9-1.7-3.9-3.9 0-2.2 1.8-3.9 3.9-3.9 2.2 0 4 1.7 4 3.9z"/>
						</g>
						<g id="&lt;Group&gt;">
							<path id="&lt;Compound Path&gt;" fill-rule="evenodd" class="s18" d="m2028.8 3973.3c-2.2 0-4-1.8-4-4 0-2.2 1.8-4 4-4 2.2 0 4 1.8 4 4 0 2.2-1.8 4-4 4zm0-7.9c-2.1 0-3.9 1.8-3.9 3.9 0 2.1 1.8 3.9 3.9 3.9 2.2 0 3.9-1.8 3.9-3.9 0-2.1-1.7-3.9-3.9-3.9z"/>
						</g>
					</g>
					<g id="&lt;Group&gt;">
						<g id="&lt;Group&gt;">
							<path id="&lt;Path&gt;" class="s18" d="m2067.4 3978.3c0 2.2-1.7 3.9-3.9 3.9-2.2 0-4-1.7-4-3.9 0-2.2 1.8-4 4-4 2.2 0 3.9 1.8 3.9 4z"/>
						</g>
						<g id="&lt;Group&gt;">
							<path id="&lt;Compound Path&gt;" fill-rule="evenodd" class="s18" d="m2063.5 3982.3c-2.2 0-4-1.8-4-4 0-2.2 1.8-4 4-4 2.2 0 4 1.8 4 4 0 2.2-1.8 4-4 4zm0-7.9c-2.2 0-3.9 1.8-3.9 3.9 0 2.1 1.7 3.9 3.9 3.9 2.1 0 3.9-1.8 3.9-3.9 0-2.1-1.8-3.9-3.9-3.9z"/>
						</g>
					</g>
					<g id="&lt;Group&gt;">
						<g id="&lt;Group&gt;">
							<path id="&lt;Path&gt;" class="s18" d="m2101.3 3942.8c0 2.2-1.8 3.9-4 3.9-2.1 0-3.9-1.7-3.9-3.9 0-2.2 1.8-3.9 3.9-3.9 2.2 0 4 1.7 4 3.9z"/>
						</g>
						<g id="&lt;Group&gt;">
							<path id="&lt;Compound Path&gt;" fill-rule="evenodd" class="s18" d="m2097.3 3946.8c-2.2 0-4-1.8-4-4 0-2.2 1.8-4 4-4 2.2 0 4 1.8 4 4 0 2.2-1.8 4-4 4zm0-7.9c-2.1 0-3.9 1.8-3.9 3.9 0 2.1 1.8 3.9 3.9 3.9 2.2 0 3.9-1.8 3.9-3.9 0-2.1-1.7-3.9-3.9-3.9z"/>
						</g>
					</g>
					<g id="&lt;Group&gt;">
						<g id="&lt;Group&gt;">
							<path id="&lt;Path&gt;" class="s18" d="m2135.1 3908.1c0 2.1-1.7 3.9-3.9 3.9-2.2 0-4-1.8-4-3.9 0-2.2 1.8-4 4-4 2.2 0 3.9 1.8 3.9 4z"/>
						</g>
						<g id="&lt;Group&gt;">
							<path id="&lt;Compound Path&gt;" fill-rule="evenodd" class="s18" d="m2131.2 3912.1c-2.2 0-4-1.8-4-4 0-2.2 1.8-4 4-4 2.2 0 4 1.8 4 4 0 2.2-1.8 4-4 4zm0-7.9c-2.2 0-3.9 1.7-3.9 3.9 0 2.1 1.7 3.9 3.9 3.9 2.1 0 3.9-1.8 3.9-3.9 0-2.2-1.8-3.9-3.9-3.9z"/>
						</g>
					</g>
				</g>
			</g>
			<g id="&lt;Group&gt;">
				<path id="&lt;Path&gt;" class="s7" d="m2746.3 3412.5l-55.6 161.8 51.7 224.3h24.1l2-291.7v-94.4z"/>
				<path id="&lt;Path&gt;" class="s7" d="m2588.3 3994.8c0 0 0.5 306.1 9.3 352.8 0 0 6.5 215 25.2 380.9v42c0 0 88.7 35.1 109.8-23.3l-18.7-345.8c0 0 51.5-422.9 52.6-446.3 0 0 15.1-224.3-38.6-254.7l-102.8 39.8z"/>
				<path id="&lt;Path&gt;" class="s7" d="m2732.6 4747.2l68.5 70c0 0 79.4 4.7 91.9 42.1 0 0-10.9 24.9-91.9 18.7 0 0-81-4.7-102.8-23.4 0 0-60.7 1.6-81-10.9 0 0-6.2-45.1 5.5-73.2 0 0 80.2-24.9 109.8-23.3z"/>
				<path id="&lt;Path&gt;" class="s19" d="m2137.6 2994.8c0 0 9.6-25.7 32.3-22.2l25.9 36.4c0 0-26.4 15.7-58.2-14.2z"/>
				<path id="&lt;Path&gt;" class="s6" d="m2222.3 2970.5c0 0 19.3-14.8 11.4-44.4 0 0-7.6-19.4 1.9-35.3 0 0-15.6-12.5-22.4 34.1l-14.9-34.9-28.1-61.3c0 0-15.5-8.6-8.2 13.4l12.9 31.7 8.3 22.6c0 0-1.1 3.9-5.1-1.7l-11.8-28.1-16.1-36.8c0 0-10.9-9.2-11.2 4.6l9.5 25.7 12.6 34.6 1.1 4.1c0 0-1.1 3.8-5.9-1.3l-10.5-26.1-12.3-30.2c0 0-10.2-5.9-7.9 6.6l18.5 53.7-20.7-41.7c0 0-11.8-10.5-8 6.2 0 0 14.3 33.7 15.6 36.6 0 0 4.8 14.6 7.8 19.9 0 0 10.9 29.4 17.9 37.5 0 0 10.4 14.8 20.3 13.9 0 0 23.8 6.8 45.3-3.4z"/>
				<path id="&lt;Path&gt;" class="s6" d="m2169.9 2972.6l10.8 58.4 54.9-36-10.6-36.8c0 0-50.9-0.1-55.1 14.4z"/>
				<path id="&lt;Path&gt;" class="s4" d="m2655.5 3859.3c0 0-140.2 399.5-163.6 446.3 0 0-77.1 432.2-81.8 453.2l-9.3 58.4c0 0-56.1-18.6-79.4 0 0 0-11.7-355.1 35-478.9 0 0 21-208 28-238.3 0 0 2.4-270.4-2.3-343.2l9.4-82.1h96.3l168.8 56.1 34.1 2.4z"/>
				<path id="&lt;Path&gt;" class="s7" d="m2400.8 4817.2c0 0 4.7 40.5 14 45.2 0 0 28.1 63.9-35.8 70.1 0 0-84.1 15.6-79.4-57.6 0 0 10.9-34.3 21.8-57.7 0 0 37.3-38.9 79.4 0z"/>
				<path id="&lt;Path&gt;" class="s4" d="m2405.5 3169.3l-98.2-64.8-79.4-136.1c0 0-34.3 62.3-90.3 26.4l76.3 197.5c0 0 93.4 86.9 149.5 114.5 0 0 88.8-64.3 42.1-137.5z"/>
				<path id="&lt;Path&gt;" class="s2" d="m2765.3 3406.1c0 0-39 138.6-35.8 158.8 3.1 20.3 21.2 148 12.9 174.5 0 0-114.2 59.2-332.3-40.5l152.7-434.6 26.5-72h17.8l83.6 42c0 0 87.2 125.2 74.6 171.8z"/>
				<path id="&lt;Path&gt;" class="s4" d="m3025.4 3609.8c0 2.6-193.3 109.9-193.3 109.9l-105-39.5 162.8-84.9z"/>
				<path id="&lt;Path&gt;" class="s10" d="m2629.4 2968.4c0 0-45.7 4.7-24.2 96.6l47.4-76.4z"/>
				<path id="&lt;Path&gt;" class="s4" d="m2690.7 3234.3c0 0 82.4 178 63.7 332.2l2.7 414.3c0 0 5.3 15.6 19.2-10.9 0 0 15.5-479.7 7.7-524.9 0 0 14.4-43.6 8.8-82.6 0 0-53.6-95.8-102.1-128.1z"/>
				<path id="&lt;Path&gt;" class="s9" d="m2611.4 3133.5l-4.3 58.8c0 0 39.8 104.8 75.3 114.5 0 0 10.8-118.4 23.7-145.3z"/>
				<path id="&lt;Path&gt;" class="s6" d="m2753.4 3096.9c0 0 36.6-19.3 17.2 24.8 0 0-17.2 26.9-27.9 15.1 0 0-23.7 36.6-35.6 39.8 0 0-30.1 19.4-57 15.1 0 0-30.1 0-47.3-62.5 0 0 0-64.5 5.3-83.9 0 0-8.6-72.1 70-63.5 0 0 68.9 7.5 72.1 34.4 0 0 16.1 17.2 3.2 80.7z"/>
				<path id="&lt;Path&gt;" class="s10" d="m2750.2 3104.5h-8.6c0 0 6.4-40.9 0-59.2 0 0 14-25.8-8.6-31.2 0 0-65.2-3.2-96.1-27.4 0 0-21.2-24.3 7.8-44.7 0 0-2.1 8.6 11.9 5.3 0 0 75.3-37.6 110.8 20.5 0 0 57.1 28.1 0 124.9 0 0-14.4 0.9-17.2 11.8z"/>
				<path id="&lt;Path&gt;" class="s6" d="m2916.9 3698.1l17.6-23.4-43.6-29.8c0 0-32.2 0 12.5 36.3l-4.2 6.3z"/>
				<path id="&lt;Path&gt;" class="s6" d="m2916.9 3698.1l-69.6-39.7c0 0-34.2 3.1 0 25.9l55.1 35.4c0 0 34.6 0.9 14.5-21.6z"/>
				<path id="&lt;Path&gt;" class="s6" d="m2902.4 3719.7c0 0 10.9 32.9-38.2 5.7l-51.4-36.4c0 0-11.2-24.4 22.8-14.3z"/>
				<path id="&lt;Path&gt;" class="s6" d="m2877.6 3736.2c0 0 10 14.9-13.4 11.7l-45.2-38.9c0 0-0.6-12.9 13.1-4.8z"/>
				<path id="&lt;Path&gt;" class="s20" d="m2667.3 3297.6l-39-24.7-36.5 33.9-2.5-114.5h17.8c0 0 38.2 92.1 60.2 105.3z"/>
				<path id="&lt;Path&gt;" class="s20" d="m2682.4 3306.8l18.5-11.5 21.4 23.1c0 0-25.6-81.6-31.6-84.1z"/>
				<path id="&lt;Path&gt;" class="s4" d="m2589.3 3192.3c0 0 43.6 151.4-68.6 336.8 0 0-101.2 219.6-166.6 269.5 0 0-45.2-3.1-76.3-42.1 0 0 88.7-225.8 104.3-297.5 0 0 3.1-115.9-18.7-152.2 0 0 54.5-103.2 42.1-137.5 0 0 20.2-34.3 52.9-26.5 0 0 46.8 17.9 76.4 49.5 0 0 51.4-14.3 54.5 0z"/>
				<path id="&lt;Path&gt;" class="s19" d="m2367.9 3306.8c0 0 61.4-53.2 42.2-129.3 0 0-47 121.9-72 114.7l26.2 16.2z"/>
				<path id="&lt;Path&gt;" class="s19" d="m2382.1 3459c0 0 80.9-154.2 77.8-213.1 0 0-56.1 155.6-78.2 167.1z"/>
				<path id="&lt;Path&gt;" class="s19" d="m2534.9 3196.1c0 0-8.5 76.1-29.5 99.2 0 0 18.6-97.7 14.7-116.6l14.7 13.6z"/>
			</g>
			<g id="&lt;Group&gt;">
				<g id="&lt;Group&gt;">
					<path id="&lt;Path&gt;" class="s21" d="m3461.5 4707.8c0.2 3.4 0.2 5.4 0.2 5.4-29.6 18.7-135.6 9.3-135.6 9.3-117.4 13.3-156.4-7.8-166.6-17.1-1.8 3.1 1.4 13.3 1.1 17 0 0 1.5 35.8 166.6 17.1 0 0 105.9 9.4 135.5-9.3 0 0 0-9.7-1.2-22.4z"/>
					<path id="&lt;Path&gt;" class="s4" d="m3326.1 4722.5c0 0 106 9.4 135.6-9.3 0 0 0-2-0.2-5.4-0.5-15.3-3.2-58.5-18.5-72.5 0 0-81-21.8-126.2-18.7l-85.7 49.8c0 0-68.5 4.7-71.6 39 0 0 0.1 3 4.3 6.8 10.2 9.3 44.9 23.6 162.3 10.3z"/>
				</g>
				<path id="&lt;Path&gt;" class="s6" d="m3352.6 4562.1c0 0-11.7 54.2-35.8 54.5 0 0 35.8 38.9 126.2 18.7 0 0-3.2-43.6-10.9-73.2z"/>
				<g id="&lt;Group&gt;">
					<path id="&lt;Path&gt;" class="s21" d="m3519.5 4799.1c-119 13.5-157-7.8-166.7-17.1-2.1 3.3 0.4 13.5 0 17.8 0 0 1.5 35.8 166.7 17.1 0 0 105.9 9.4 135.5-9.3 0 0 0-7.2-0.8-17.4-30.6 18.1-134.7 8.9-134.7 8.9z"/>
					<path id="&lt;Path&gt;" class="s4" d="m3519.5 4799.1c0 0 104.1 9.2 134.7-8.9q0.4-0.2 0.8-0.4c0 0 0-60.8-18.7-77.9 0 0-81-21.8-126.2-18.7l-85.7 49.8c0 0-68.5 4.7-71.6 39 0 0 0.1 2.8 3.9 6.4 9.7 9.3 43.8 24.2 162.8 10.7z"/>
				</g>
				<path id="&lt;Path&gt;" class="s6" d="m3545.9 4638.7c0 0-29.6 56-35.8 54.5 0 0 35.8 38.9 126.2 18.7 0 0-3.1-43.6-10.9-73.2z"/>
				<path id="&lt;Path&gt;" class="s7" d="m3204 3828.6c0 0 49.1 336.6 91.2 413.7 0 0 56 298.9 46.7 348 0 0 74.7 11.6 98.1 0 0 0 29.9-219.3 0-313 0 0-23.4-102.8-11.7-144.9l-51.4-224.3-126.1-114.4z"/>
				<path id="&lt;Path&gt;" class="s21" d="m3278.8 3849.7c0 0 110.7 240.7 125.5 320.1 0 0 45.1 109.8 75.4 126.2 0 0 67.8 245.3 51.4 350.5 0 0 74.8 25.7 107.5 0 0 0 30.4-304-46.7-392.7 0 0-30.4-95.7-30.4-137.7 0 0 25.7-271 14-310.8 0 0-163.5-105.1-296.7 44.4z"/>
				<path id="&lt;Path&gt;" class="s4" d="m3439.1 3084.5l44 28.7c0 0 155.5 45 134.5 187.5 0 0-30.4 269.3-42.1 299.3 0 0 23.4 200.7 7 252.1 0 0-17.6-46.8-53.2-51.4 0 0-206.1 102.8-313.6 51.4l-25.7-11.7c0 0 18.7-345.8 0-420.6 0 0-2.3-107.4 0-130.8 0 0 81.5-137.8 126-149.5 0 0 87.2-47 123.1-55z"/>
				<path id="&lt;Path&gt;" class="s4" d="m3453.3 3272.1l38.1 253.4c0 0-34.2 170.8-38.1 200.4l-22.6 60.8c0 0 31.4 25.7 91.2 17.5l17.8-34.8c0 0 56.1-94.5 73.2-206.1 0 0 31.6-200.2-12.5-305.7 0 0-77.8-200.9-147.1 14.5z"/>
				<path id="&lt;Path&gt;" class="s4" d="m3190 3289l-42 200.1-86.5 215.8v25.7l-14 18.7c0 0 56.1 16.3 49.1 44.4l32.7-39.8c0 0 39.7-32.7 93.4-112.1 0 0 23.4-299.1-32.7-352.8z"/>
				<path id="&lt;Path&gt;" class="s6" d="m3076.8 3787.3c0 0 0.9 21.4-15.9 47.6 0 0-4.6 28.9-17.7 25.1 0 0-15.8 0-9.3-29.8 0 0 4.3-26.4-1.6-36.5 0 0-2.8-25.4 22.3-42l34.3 6.6c0 0 6.6 9.4-12.1 29z"/>
				<path id="&lt;Path&gt;" class="s6" d="m3035.1 3775.8l-33.9 75.8 59.9 69.1c0 0 20.4-9.9-4.8-35.3l-24.1-25 11-54.6z"/>
				<path id="&lt;Path&gt;" class="s6" d="m3061.1 3890.8l20.4 3.8c0 0 8.4-5.6-5.6-17.8l-32.7-16.8-17.7-11.7v12.1c0 0 13 33.4 35.6 30.4z"/>
				<path id="&lt;Path&gt;" class="s6" d="m3075.9 3876.8c0 0 14.7-0.4 8.1-11.3l-34.1-19.7-9.5 12.4z"/>
				<path id="&lt;Path&gt;" class="s6" d="m3078.4 3861.3c0 0 6.9-2.2 0-10.2l-23.7-12.2-4.8 6.9z"/>
				<path id="&lt;Path&gt;" class="s6" d="m3441.5 3787.7c0 0-35.3 38.7-41.6 73.6 0 0-3.6 28.9-9 33.3 0 0 4.5 27 25.3 4.4l-6.3 30.7c0 0 18.1 27.1 31.6 0 0 0 20.8 12.8 28.1-9 0 0 18 8.1 28.9-7.3 0 0 21.4-0.6 28.8-18.8 0 0 0.1-77.8-10.7-100.9 0 0-49.8-21.4-75.1-6z"/>
				<path id="&lt;Path&gt;" class="s9" d="m3281.6 3071.2c0 0 55.1 61.1 36.7 151.3 0 0 84.1-86.5 120.8-138 0 0-14-28.7 0-69.9l-76.7-10.7z"/>
				<path id="&lt;Path&gt;" class="s6" d="m3436.1 2976.8c0 0 45.8-18.8 19.8 31.7 0 0-19.8 30.5-35.1 13.7l-58.1 55.3c0 0-61.2 15.6-94.8 0 0 0-21.4-46.8 10.7-129.8 0 0 0-18.7 1.5-34 0 0 18.4-52 45.9-58.1 0 0 73.4-23 117.7 21.4 0 0 7.6 54.3-7.6 99.8z"/>
				<path id="&lt;Path&gt;" class="s10" d="m3463.9 2976.8c0 0 43.1-83.2 0-113.7 0 0-72.2-86.7-157.8-13.5 0 0-24.5 4.4-24.5-10.8 0 0-29.7 29.9 12.7 45.5 0 0 109.6-4.3 135.6-7.3 0 0 12.3 6.4 4.6 21.5 0 0-9.2 21.3-21.4 19.8 0 0 16.8 46.6 6.1 58.5l-3.1 8.1 13.1 1.4 6.6-8.3c0 0 13.5-11.4 28.1-1.2z"/>
				<path id="&lt;Path&gt;" class="s22" d="m3189 3317.8c0 0 34.2 158.1 24.5 223.5l-17 137.3-31.8 39.2c0 0 40.8-311.4 24.3-400z"/>
				<path id="&lt;Path&gt;" class="s22" d="m3470.3 3227.4c0 0-31.9 94.2 21.1 298.1l-49.9 262.2 20.2-246.4c0 0-55.7-202.7 8.6-313.9z"/>
				<path id="&lt;Path&gt;" class="s21" d="m3439.1 3084.5l44 28.7-72.2 126.7-41.6-33.9-51 16.5z"/>
				<path id="&lt;Path&gt;" class="s21" d="m3316 3139.5c0 0 14.3 48.8 2.3 83 0 0-14.1-37.8-22.5-41.5 0 0-18.5 35.5-30.7 36.6-12.2 1 35.7-77.3 50.9-78.1z"/>
			</g>
		</g>
	</g>
</svg>