<svg id="Layer_1" enable-background="new 0 0 500 500" viewBox="0 0 500 500" xmlns="http://www.w3.org/2000/svg" width="300" height="300" version="1.1" xmlns:xlink="http://www.w3.org/1999/xlink" xmlns:svgjs="http://svgjs.dev/svgjs"><g width="100%" height="100%" transform="matrix(1,0,0,1,0,0)"><g><path d="m338.898 436.156h-239.116c-4.44 0-8.038-3.598-8.038-8.038v-356.613c0-3.981 2.914-7.363 6.855-7.95l239.116-35.641c2.298-.361 4.662.336 6.43 1.862 1.774 1.526 2.792 3.749 2.792 6.088v87.234c0 4.44-3.599 8.038-8.039 8.038s-8.038-3.599-8.038-8.038v-77.909l-223.039 33.246v341.645h223.039v-159.481c0-4.44 3.599-8.038 8.038-8.038 4.44 0 8.039 3.599 8.039 8.038v167.519c0 4.44-3.599 8.038-8.039 8.038z" fill="#009dc9" fill-opacity="1" data-original-color="#000000ff" stroke="none" stroke-opacity="1"/><path d="m83.501 81.967c-3.915 0-7.347-2.863-7.94-6.855-.654-4.389 2.373-8.48 6.767-9.134l274.324-40.886c4.349-.672 8.478 2.374 9.134 6.767.653 4.39-2.373 8.481-6.766 9.134l-274.325 40.886c-.399.06-.801.088-1.194.088z" fill="#009dc9" fill-opacity="1" data-original-color="#000000ff" stroke="none" stroke-opacity="1"/><path d="m170.62 112.513h-31.494c-4.44 0-8.038-3.599-8.038-8.038 0-4.44 3.599-8.038 8.038-8.038h31.494c4.44 0 8.037 3.599 8.037 8.038s-3.598 8.038-8.037 8.038z" fill="#009dc9" fill-opacity="1" data-original-color="#000000ff" stroke="none" stroke-opacity="1"/><path d="m170.62 148.054h-31.494c-4.44 0-8.038-3.599-8.038-8.038s3.599-8.038 8.038-8.038h31.494c4.44 0 8.037 3.598 8.037 8.038s-3.598 8.038-8.037 8.038z" fill="#009dc9" fill-opacity="1" data-original-color="#000000ff" stroke="none" stroke-opacity="1"/><path d="m170.62 183.594h-31.494c-4.44 0-8.038-3.599-8.038-8.038 0-4.44 3.599-8.038 8.038-8.038h31.494c4.44 0 8.037 3.598 8.037 8.038s-3.598 8.038-8.037 8.038z" fill="#009dc9" fill-opacity="1" data-original-color="#000000ff" stroke="none" stroke-opacity="1"/><path d="m170.62 219.135h-31.494c-4.44 0-8.038-3.598-8.038-8.038s3.599-8.038 8.038-8.038h31.494c4.44 0 8.037 3.599 8.037 8.038 0 4.441-3.598 8.038-8.037 8.038z" fill="#009dc9" fill-opacity="1" data-original-color="#000000ff" stroke="none" stroke-opacity="1"/><path d="m170.62 254.677h-31.494c-4.44 0-8.038-3.599-8.038-8.038 0-4.44 3.599-8.038 8.038-8.038h31.494c4.44 0 8.037 3.599 8.037 8.038s-3.598 8.038-8.037 8.038z" fill="#009dc9" fill-opacity="1" data-original-color="#000000ff" stroke="none" stroke-opacity="1"/><path d="m170.62 290.214h-31.494c-4.44 0-8.038-3.598-8.038-8.038s3.599-8.038 8.038-8.038h31.494c4.44 0 8.037 3.599 8.037 8.038 0 4.44-3.598 8.038-8.037 8.038z" fill="#009dc9" fill-opacity="1" data-original-color="#000000ff" stroke="none" stroke-opacity="1"/><path d="m170.62 325.756h-31.494c-4.44 0-8.038-3.599-8.038-8.038 0-4.44 3.599-8.039 8.038-8.039h31.494c4.44 0 8.037 3.599 8.037 8.039 0 4.439-3.598 8.038-8.037 8.038z" fill="#009dc9" fill-opacity="1" data-original-color="#000000ff" stroke="none" stroke-opacity="1"/><path d="m170.62 361.297h-31.494c-4.44 0-8.038-3.599-8.038-8.038 0-4.44 3.599-8.039 8.038-8.039h31.494c4.44 0 8.037 3.599 8.037 8.039 0 4.439-3.598 8.038-8.037 8.038z" fill="#009dc9" fill-opacity="1" data-original-color="#000000ff" stroke="none" stroke-opacity="1"/><path d="m170.62 396.837h-31.494c-4.44 0-8.038-3.599-8.038-8.038 0-4.44 3.599-8.038 8.038-8.038h31.494c4.44 0 8.037 3.598 8.037 8.038s-3.598 8.038-8.037 8.038z" fill="#009dc9" fill-opacity="1" data-original-color="#000000ff" stroke="none" stroke-opacity="1"/><path d="m236.42 112.513h-31.494c-4.44 0-8.039-3.599-8.039-8.038 0-4.44 3.599-8.038 8.039-8.038h31.494c4.44 0 8.038 3.599 8.038 8.038s-3.598 8.038-8.038 8.038z" fill="#009dc9" fill-opacity="1" data-original-color="#000000ff" stroke="none" stroke-opacity="1"/><path d="m236.42 148.054h-31.494c-4.44 0-8.039-3.599-8.039-8.038s3.599-8.038 8.039-8.038h31.494c4.44 0 8.038 3.598 8.038 8.038s-3.598 8.038-8.038 8.038z" fill="#009dc9" fill-opacity="1" data-original-color="#000000ff" stroke="none" stroke-opacity="1"/><path d="m236.42 183.594h-31.494c-4.44 0-8.039-3.599-8.039-8.038 0-4.44 3.599-8.038 8.039-8.038h31.494c4.44 0 8.038 3.598 8.038 8.038s-3.598 8.038-8.038 8.038z" fill="#009dc9" fill-opacity="1" data-original-color="#000000ff" stroke="none" stroke-opacity="1"/><path d="m236.42 219.135h-31.494c-4.44 0-8.039-3.598-8.039-8.038s3.599-8.038 8.039-8.038h31.494c4.44 0 8.038 3.599 8.038 8.038 0 4.441-3.598 8.038-8.038 8.038z" fill="#009dc9" fill-opacity="1" data-original-color="#000000ff" stroke="none" stroke-opacity="1"/><path d="m236.42 254.677h-31.494c-4.44 0-8.039-3.599-8.039-8.038 0-4.44 3.599-8.038 8.039-8.038h31.494c4.44 0 8.038 3.599 8.038 8.038s-3.598 8.038-8.038 8.038z" fill="#009dc9" fill-opacity="1" data-original-color="#000000ff" stroke="none" stroke-opacity="1"/><path d="m236.42 290.214h-31.494c-4.44 0-8.039-3.598-8.039-8.038s3.599-8.038 8.039-8.038h31.494c4.44 0 8.038 3.599 8.038 8.038 0 4.44-3.598 8.038-8.038 8.038z" fill="#009dc9" fill-opacity="1" data-original-color="#000000ff" stroke="none" stroke-opacity="1"/><path d="m236.42 325.756h-31.494c-4.44 0-8.039-3.599-8.039-8.038 0-4.44 3.599-8.039 8.039-8.039h31.494c4.44 0 8.038 3.599 8.038 8.039 0 4.439-3.598 8.038-8.038 8.038z" fill="#009dc9" fill-opacity="1" data-original-color="#000000ff" stroke="none" stroke-opacity="1"/><path d="m236.42 361.297h-31.494c-4.44 0-8.039-3.599-8.039-8.038 0-4.44 3.599-8.039 8.039-8.039h31.494c4.44 0 8.038 3.599 8.038 8.039 0 4.439-3.598 8.038-8.038 8.038z" fill="#009dc9" fill-opacity="1" data-original-color="#000000ff" stroke="none" stroke-opacity="1"/><path d="m236.42 396.837h-31.494c-4.44 0-8.039-3.599-8.039-8.038 0-4.44 3.599-8.038 8.039-8.038h31.494c4.44 0 8.038 3.598 8.038 8.038s-3.598 8.038-8.038 8.038z" fill="#009dc9" fill-opacity="1" data-original-color="#000000ff" stroke="none" stroke-opacity="1"/><path d="m302.22 112.513h-31.493c-4.44 0-8.038-3.599-8.038-8.038 0-4.44 3.599-8.038 8.038-8.038h31.493c4.44 0 8.038 3.599 8.038 8.038.001 4.439-3.598 8.038-8.038 8.038z" fill="#009dc9" fill-opacity="1" data-original-color="#000000ff" stroke="none" stroke-opacity="1"/><path d="m302.22 290.214h-31.493c-4.44 0-8.038-3.598-8.038-8.038s3.599-8.038 8.038-8.038h31.493c4.44 0 8.038 3.599 8.038 8.038.001 4.44-3.598 8.038-8.038 8.038z" fill="#009dc9" fill-opacity="1" data-original-color="#000000ff" stroke="none" stroke-opacity="1"/><path d="m302.22 325.756h-31.493c-4.44 0-8.038-3.599-8.038-8.038 0-4.44 3.599-8.039 8.038-8.039h31.493c4.44 0 8.038 3.599 8.038 8.039.001 4.439-3.598 8.038-8.038 8.038z" fill="#009dc9" fill-opacity="1" data-original-color="#000000ff" stroke="none" stroke-opacity="1"/><path d="m302.22 361.297h-31.493c-4.44 0-8.038-3.599-8.038-8.038 0-4.44 3.599-8.039 8.038-8.039h31.493c4.44 0 8.038 3.599 8.038 8.039.001 4.439-3.598 8.038-8.038 8.038z" fill="#009dc9" fill-opacity="1" data-original-color="#000000ff" stroke="none" stroke-opacity="1"/><path d="m302.22 396.837h-31.493c-4.44 0-8.038-3.599-8.038-8.038 0-4.44 3.599-8.038 8.038-8.038h31.493c4.44 0 8.038 3.598 8.038 8.038.001 4.44-3.598 8.038-8.038 8.038z" fill="#009dc9" fill-opacity="1" data-original-color="#000000ff" stroke="none" stroke-opacity="1"/><path d="m420.713 475h-351.913c-4.44 0-8.038-3.598-8.038-8.038v-38.844c0-4.44 3.599-8.039 8.038-8.039h351.913c4.44 0 8.037 3.599 8.037 8.039v38.844c.001 4.44-3.597 8.038-8.037 8.038zm-343.874-16.076h335.836v-22.768h-335.836z" fill="#009dc9" fill-opacity="1" data-original-color="#000000ff" stroke="none" stroke-opacity="1"/><path d="m334.39 268.634c-20.51 0-39.796-7.985-54.296-22.488-14.504-14.504-22.492-33.786-22.492-54.296 0-20.513 7.988-39.796 22.492-54.3 14.5-14.503 33.786-22.488 54.296-22.488 20.509 0 39.796 7.985 54.296 22.488 14.503 14.504 22.492 33.786 22.492 54.3 0 20.51-7.988 39.792-22.492 54.296-14.501 14.503-33.787 22.488-54.296 22.488zm0-137.47c-15.546 0-31.092 5.919-42.929 17.753-23.672 23.672-23.672 62.19 0 85.863 23.675 23.669 62.184 23.669 85.859 0 23.671-23.672 23.671-62.19 0-85.863-11.839-11.834-27.384-17.753-42.93-17.753z" fill="#009dc9" fill-opacity="1" data-original-color="#000000ff" stroke="none" stroke-opacity="1"/><path d="m411.55 296.708c-7.398 0-14.355-2.879-19.587-8.114l-30.59-30.589c-1.796-1.793-2.637-4.333-2.27-6.845.368-2.512 1.897-4.7 4.132-5.909 5.221-2.824 9.957-6.346 14.079-10.472 4.132-4.132 7.655-8.871 10.475-14.087 1.205-2.232 3.397-3.765 5.909-4.132 2.528-.36 5.055.477 6.845 2.271l30.593 30.593c10.801 10.798 10.801 28.372 0 39.17-5.23 5.235-12.188 8.114-19.586 8.114zm-31.713-42.977 23.494 23.496c4.395 4.39 12.044 4.39 16.441 0 4.531-4.531 4.531-11.906 0-16.437l-23.496-23.496c-2.305 3.143-4.839 6.101-7.586 8.852-2.749 2.747-5.707 5.281-8.853 7.585z" fill="#009dc9" fill-opacity="1" data-original-color="#000000ff" stroke="none" stroke-opacity="1"/><path d="m326.018 227.754c-2.371 0-4.631-1.048-6.167-2.882l-21.125-25.258c-2.848-3.403-2.396-8.474 1.011-11.322 3.4-2.842 8.471-2.402 11.322 1.011l13.995 16.733 26.931-43.344c2.345-3.775 7.307-4.926 11.068-2.584 3.771 2.343 4.93 7.297 2.585 11.068l-32.794 52.782c-1.36 2.192-3.69 3.596-6.261 3.777-.188.013-.376.019-.565.019z" fill="#009dc9" fill-opacity="1" data-original-color="#000000ff" stroke="none" stroke-opacity="1"/></g></g></svg>