<svg version="1.2" xmlns="http://www.w3.org/2000/svg" viewBox="0 0 3710 3710" width="3710" height="3710">
	<title>12084771_20943915</title>
	<defs>
		<linearGradient id="g1" x2="1" gradientUnits="userSpaceOnUse" gradientTransform="matrix(-2025.518,-1772.327,1891.423,-2161.628,3459.427,3215.457)">
			<stop offset="0" stop-color="#dae3fe"/>
			<stop offset="1" stop-color="#e9effd"/>
		</linearGradient>
		<linearGradient id="g2" x2="1" gradientUnits="userSpaceOnUse" gradientTransform="matrix(-822.664,648.934,-637.639,-808.345,2174.452,2657.716)">
			<stop offset="0" stop-color="#09005d"/>
			<stop offset="1" stop-color="#1a0f91"/>
		</linearGradient>
		<linearGradient id="g3" x2="1" gradientUnits="userSpaceOnUse" gradientTransform="matrix(91.975,1747.525,-2861.57,150.609,1781.911,770.002)">
			<stop offset="0" stop-color="#09005d"/>
			<stop offset="1" stop-color="#1a0f91"/>
		</linearGradient>
		<linearGradient id="g4" x2="1" gradientUnits="userSpaceOnUse" gradientTransform="matrix(10.22,1650.433,-12097.195,74.912,1898.618,875.413)">
			<stop offset="0" stop-color="#09005d"/>
			<stop offset="1" stop-color="#1a0f91"/>
		</linearGradient>
		<linearGradient id="g5" x2="1" gradientUnits="userSpaceOnUse" gradientTransform="matrix(-311.692,2115.422,-796.224,-117.318,1030.431,204.072)">
			<stop offset="0" stop-color="#ff928e"/>
			<stop offset="1" stop-color="#fe7062"/>
		</linearGradient>
		<linearGradient id="g6" x2="1" gradientUnits="userSpaceOnUse" gradientTransform="matrix(-311.692,2115.42,-1036.851,-152.772,1243.084,235.406)">
			<stop offset="0" stop-color="#ff928e"/>
			<stop offset="1" stop-color="#fe7062"/>
		</linearGradient>
		<linearGradient id="g7" x2="1" gradientUnits="userSpaceOnUse" gradientTransform="matrix(-311.691,2115.418,-637.257,-93.895,1412.321,260.341)">
			<stop offset="0" stop-color="#ff928e"/>
			<stop offset="1" stop-color="#fe7062"/>
		</linearGradient>
		<linearGradient id="g8" x2="1" gradientUnits="userSpaceOnUse" gradientTransform="matrix(-311.692,2115.421,-1574.315,-231.964,1654.096,295.972)">
			<stop offset="0" stop-color="#ff928e"/>
			<stop offset="1" stop-color="#fe7062"/>
		</linearGradient>
		<linearGradient id="g9" x2="1" gradientUnits="userSpaceOnUse" gradientTransform="matrix(-311.691,2115.419,-686.164,-101.101,1819.938,320.4)">
			<stop offset="0" stop-color="#ff928e"/>
			<stop offset="1" stop-color="#fe7062"/>
		</linearGradient>
		<linearGradient id="g10" x2="1" gradientUnits="userSpaceOnUse" gradientTransform="matrix(-311.692,2115.422,-762.065,-112.285,2028.304,351.101)">
			<stop offset="0" stop-color="#ff928e"/>
			<stop offset="1" stop-color="#fe7062"/>
		</linearGradient>
		<linearGradient id="g11" x2="1" gradientUnits="userSpaceOnUse" gradientTransform="matrix(-311.692,2115.42,-889.321,-131.035,2237.384,381.908)">
			<stop offset="0" stop-color="#ff928e"/>
			<stop offset="1" stop-color="#fe7062"/>
		</linearGradient>
		<linearGradient id="g12" x2="1" gradientUnits="userSpaceOnUse" gradientTransform="matrix(-311.692,2115.424,-603.082,-88.86,2420.522,408.887)">
			<stop offset="0" stop-color="#ff928e"/>
			<stop offset="1" stop-color="#fe7062"/>
		</linearGradient>
		<linearGradient id="g13" x2="1" gradientUnits="userSpaceOnUse" gradientTransform="matrix(-311.69,2115.412,-1690.805,-249.128,2670.099,445.662)">
			<stop offset="0" stop-color="#ff928e"/>
			<stop offset="1" stop-color="#fe7062"/>
		</linearGradient>
		<linearGradient id="g14" x2="1" gradientUnits="userSpaceOnUse" gradientTransform="matrix(-311.691,2115.419,-812.852,-119.768,2847.047,471.737)">
			<stop offset="0" stop-color="#ff928e"/>
			<stop offset="1" stop-color="#fe7062"/>
		</linearGradient>
		<linearGradient id="g15" x2="1" gradientUnits="userSpaceOnUse" gradientTransform="matrix(88.572,2193.885,-754.373,30.456,2800.43,-208.507)">
			<stop offset="0" stop-color="#ff928e"/>
			<stop offset="1" stop-color="#fe7062"/>
		</linearGradient>
		<linearGradient id="g16" x2="1" gradientUnits="userSpaceOnUse" gradientTransform="matrix(700.216,637.67,-580.892,637.869,1219.21,916.252)">
			<stop offset="0" stop-color="#4f52ff"/>
			<stop offset="1" stop-color="#4042e2"/>
		</linearGradient>
		<linearGradient id="g17" x2="1" gradientUnits="userSpaceOnUse" gradientTransform="matrix(-90.087,511.123,-285.543,-50.328,1494.867,978.653)">
			<stop offset="0" stop-color="#ff928e"/>
			<stop offset="1" stop-color="#fe7062"/>
		</linearGradient>
		<linearGradient id="g18" x2="1" gradientUnits="userSpaceOnUse" gradientTransform="matrix(-90.087,511.122,-285.548,-50.329,1459.202,868.903)">
			<stop offset="0" stop-color="#ff928e"/>
			<stop offset="1" stop-color="#fe7062"/>
		</linearGradient>
		<linearGradient id="g19" x2="1" gradientUnits="userSpaceOnUse" gradientTransform="matrix(-90.087,511.124,-285.554,-50.33,1549.698,988.315)">
			<stop offset="0" stop-color="#ff928e"/>
			<stop offset="1" stop-color="#fe7062"/>
		</linearGradient>
		<linearGradient id="g20" x2="1" gradientUnits="userSpaceOnUse" gradientTransform="matrix(-156.084,571.399,-321.79,-87.901,1619.958,1075.312)">
			<stop offset="0" stop-color="#ff928e"/>
			<stop offset="1" stop-color="#fe7062"/>
		</linearGradient>
		<linearGradient id="g21" x2="1" gradientUnits="userSpaceOnUse" gradientTransform="matrix(-90.087,511.124,-285.545,-50.328,1647.483,1006.232)">
			<stop offset="0" stop-color="#ff928e"/>
			<stop offset="1" stop-color="#fe7062"/>
		</linearGradient>
		<linearGradient id="g22" x2="1" gradientUnits="userSpaceOnUse" gradientTransform="matrix(-245.19,229.947,-253.443,-270.244,1565.804,767.645)">
			<stop offset="0" stop-color="#09005d"/>
			<stop offset="1" stop-color="#1a0f91"/>
		</linearGradient>
		<linearGradient id="g23" x2="1" gradientUnits="userSpaceOnUse" gradientTransform="matrix(-111.402,328.651,-417.273,-141.441,1544.252,743.265)">
			<stop offset="0" stop-color="#09005d"/>
			<stop offset="1" stop-color="#1a0f91"/>
		</linearGradient>
		<linearGradient id="g24" x2="1" gradientUnits="userSpaceOnUse" gradientTransform="matrix(-52.942,298.53,-487.177,-86.396,1524.526,767.689)">
			<stop offset="0" stop-color="#09005d"/>
			<stop offset="1" stop-color="#1a0f91"/>
		</linearGradient>
		<linearGradient id="g25" x2="1" gradientUnits="userSpaceOnUse" gradientTransform="matrix(-167.639,-32.381,16.669,-86.298,2216.722,731.139)">
			<stop offset="0" stop-color="#ff928e"/>
			<stop offset="1" stop-color="#fe7062"/>
		</linearGradient>
		<linearGradient id="g26" x2="1" gradientUnits="userSpaceOnUse" gradientTransform="matrix(179.28,0,0,78.414,2099.158,800.782)">
			<stop offset="0" stop-color="#4f52ff"/>
			<stop offset="1" stop-color="#4042e2"/>
		</linearGradient>
		<linearGradient id="g27" x2="1" gradientUnits="userSpaceOnUse" gradientTransform="matrix(126.612,0,0,46.947,2144.831,811.649)">
			<stop offset="0" stop-color="#dae3fe"/>
			<stop offset="1" stop-color="#e9effd"/>
		</linearGradient>
		<linearGradient id="g28" x2="1" gradientUnits="userSpaceOnUse" gradientTransform="matrix(177.797,0,0,78.063,2102.31,620.704)">
			<stop offset="0" stop-color="#4f52ff"/>
			<stop offset="1" stop-color="#4042e2"/>
		</linearGradient>
		<linearGradient id="g29" x2="1" gradientUnits="userSpaceOnUse" gradientTransform="matrix(125.575,0,0,47.575,2147.885,610.889)">
			<stop offset="0" stop-color="#dae3fe"/>
			<stop offset="1" stop-color="#e9effd"/>
		</linearGradient>
		<linearGradient id="g30" x2="1" gradientUnits="userSpaceOnUse" gradientTransform="matrix(-189.34,127.296,-120.156,-178.719,2546.302,667.064)">
			<stop offset="0" stop-color="#ff928e"/>
			<stop offset="1" stop-color="#fe7062"/>
		</linearGradient>
		<linearGradient id="g31" x2="1" gradientUnits="userSpaceOnUse" gradientTransform="matrix(-62.844,-78.57,77.496,-61.985,2415.525,752.268)">
			<stop offset="0" stop-color="#4f52ff"/>
			<stop offset="1" stop-color="#4042e2"/>
		</linearGradient>
		<linearGradient id="g32" x2="1" gradientUnits="userSpaceOnUse" gradientTransform="matrix(-22.711,163.519,-152.694,-21.208,2442.396,301.68)">
			<stop offset="0" stop-color="#09005d"/>
			<stop offset="1" stop-color="#1a0f91"/>
		</linearGradient>
		<linearGradient id="g33" x2="1" gradientUnits="userSpaceOnUse" gradientTransform="matrix(-41.517,-51.906,51.197,-40.949,2308.071,737.683)">
			<stop offset="0" stop-color="#4f52ff"/>
			<stop offset="1" stop-color="#4042e2"/>
		</linearGradient>
		<linearGradient id="g34" x2="1" gradientUnits="userSpaceOnUse" gradientTransform="matrix(-38.609,104.471,-98.896,-36.549,2342.218,564.66)">
			<stop offset="0" stop-color="#09005d"/>
			<stop offset="1" stop-color="#1a0f91"/>
		</linearGradient>
		<linearGradient id="g35" x2="1" gradientUnits="userSpaceOnUse" gradientTransform="matrix(-600.721,641.085,-980.69,-918.943,1156.684,3106.709)">
			<stop offset="0" stop-color="#09005d"/>
			<stop offset="1" stop-color="#1a0f91"/>
		</linearGradient>
		<linearGradient id="g36" x2="1" gradientUnits="userSpaceOnUse" gradientTransform="matrix(52.814,.502,-0.509,53.557,963.238,3152.904)">
			<stop offset="0" stop-color="#febbba"/>
			<stop offset="1" stop-color="#ff928e"/>
		</linearGradient>
		<linearGradient id="g37" x2="1" gradientUnits="userSpaceOnUse" gradientTransform="matrix(27.252,878.913,-158.911,4.927,912.884,2257.244)">
			<stop offset="0" stop-color="#09005d"/>
			<stop offset="1" stop-color="#1a0f91"/>
		</linearGradient>
		<linearGradient id="g38" x2="1" gradientUnits="userSpaceOnUse" gradientTransform="matrix(-600.747,641.112,-702.774,-658.527,1024.467,2982.794)">
			<stop offset="0" stop-color="#09005d"/>
			<stop offset="1" stop-color="#1a0f91"/>
		</linearGradient>
		<linearGradient id="g39" x2="1" gradientUnits="userSpaceOnUse" gradientTransform="matrix(45.599,.433,-0.666,70.086,772.918,3148.379)">
			<stop offset="0" stop-color="#febbba"/>
			<stop offset="1" stop-color="#ff928e"/>
		</linearGradient>
		<linearGradient id="g40" x2="1" gradientUnits="userSpaceOnUse" gradientTransform="matrix(27.253,878.918,-284.306,8.815,846.341,2259.307)">
			<stop offset="0" stop-color="#09005d"/>
			<stop offset="1" stop-color="#1a0f91"/>
		</linearGradient>
		<linearGradient id="g41" x2="1" gradientUnits="userSpaceOnUse" gradientTransform="matrix(312.642,1203.669,-1329.733,345.386,907.657,1814.722)">
			<stop offset="0" stop-color="#4f52ff"/>
			<stop offset="1" stop-color="#4042e2"/>
		</linearGradient>
		<linearGradient id="g42" x2="1" gradientUnits="userSpaceOnUse" gradientTransform="matrix(269.831,2.563,-3.011,316.921,1193.716,1777.095)">
			<stop offset="0" stop-color="#febbba"/>
			<stop offset="1" stop-color="#ff928e"/>
		</linearGradient>
		<linearGradient id="g43" x2="1" gradientUnits="userSpaceOnUse" gradientTransform="matrix(323.631,-374.731,161.278,139.286,1214.773,1884.182)">
			<stop offset="0" stop-color="#febbba"/>
			<stop offset="1" stop-color="#ff928e"/>
		</linearGradient>
		<linearGradient id="g44" x2="1" gradientUnits="userSpaceOnUse" gradientTransform="matrix(76.653,-115.44,69.02,45.83,1463.986,1597.229)">
			<stop offset="0" stop-color="#febbba"/>
			<stop offset="1" stop-color="#ff928e"/>
		</linearGradient>
		<linearGradient id="g45" x2="1" gradientUnits="userSpaceOnUse" gradientTransform="matrix(312.642,1203.67,-1215.727,315.774,665.59,1877.597)">
			<stop offset="0" stop-color="#4f52ff"/>
			<stop offset="1" stop-color="#4042e2"/>
		</linearGradient>
		<linearGradient id="g46" x2="1" gradientUnits="userSpaceOnUse" gradientTransform="matrix(-465.202,-36.921,17.62,-222.009,980.269,2179.206)">
			<stop offset="0" stop-color="#febbba"/>
			<stop offset="1" stop-color="#ff928e"/>
		</linearGradient>
		<linearGradient id="g47" x2="1" gradientUnits="userSpaceOnUse" gradientTransform="matrix(113.555,-213.483,142.23,75.654,870.999,1921.011)">
			<stop offset="0" stop-color="#febbba"/>
			<stop offset="1" stop-color="#ff928e"/>
		</linearGradient>
		<linearGradient id="g48" x2="1" gradientUnits="userSpaceOnUse" gradientTransform="matrix(-147.578,-91.944,76.382,-122.599,1033.253,1706.813)">
			<stop offset="0" stop-color="#febbba"/>
			<stop offset="1" stop-color="#ff928e"/>
		</linearGradient>
		<linearGradient id="g49" x2="1" gradientUnits="userSpaceOnUse" gradientTransform="matrix(190.323,153.279,-220.814,274.18,808.011,1518.686)">
			<stop offset="0" stop-color="#09005d"/>
			<stop offset="1" stop-color="#1a0f91"/>
		</linearGradient>
		<linearGradient id="g50" x2="1" gradientUnits="userSpaceOnUse" gradientTransform="matrix(-132.778,-82.725,40.819,-65.518,993.944,1740.204)">
			<stop offset="0" stop-color="#febbba"/>
			<stop offset="1" stop-color="#ff928e"/>
		</linearGradient>
		<linearGradient id="g51" x2="1" gradientUnits="userSpaceOnUse" gradientTransform="matrix(583.671,-447.406,286.683,373.998,670.696,2400.217)">
			<stop offset="0" stop-color="#09005d"/>
			<stop offset="1" stop-color="#1a0f91"/>
		</linearGradient>
		<linearGradient id="g52" x2="1" gradientUnits="userSpaceOnUse" gradientTransform="matrix(106.753,0,0,95.914,903.556,2144.387)">
			<stop offset="0" stop-color="#febbba"/>
			<stop offset="1" stop-color="#ff928e"/>
		</linearGradient>
	</defs>
	<style>
		.s0 { fill: url(#g1) } 
		.s1 { fill: url(#g2) } 
		.s2 { fill: url(#g3) } 
		.s3 { fill: #bdd0fb } 
		.s4 { fill: #91b3fa } 
		.s5 { fill: url(#g4) } 
		.s6 { fill: #ffffff } 
		.s7 { fill: url(#g5) } 
		.s8 { fill: url(#g6) } 
		.s9 { fill: url(#g7) } 
		.s10 { fill: url(#g8) } 
		.s11 { fill: url(#g9) } 
		.s12 { fill: url(#g10) } 
		.s13 { fill: url(#g11) } 
		.s14 { fill: url(#g12) } 
		.s15 { fill: url(#g13) } 
		.s16 { fill: url(#g14) } 
		.s17 { fill: url(#g15) } 
		.s18 { fill: url(#g16) } 
		.s19 { opacity: .6;fill: #ffffff } 
		.s20 { fill: url(#g17) } 
		.s21 { fill: url(#g18) } 
		.s22 { fill: url(#g19) } 
		.s23 { fill: url(#g20) } 
		.s24 { fill: url(#g21) } 
		.s25 { fill: url(#g22) } 
		.s26 { fill: url(#g23) } 
		.s27 { fill: url(#g24) } 
		.s28 { fill: url(#g25) } 
		.s29 { fill: url(#g26) } 
		.s30 { fill: url(#g27) } 
		.s31 { fill: url(#g28) } 
		.s32 { fill: url(#g29) } 
		.s33 { fill: #7d97f4 } 
		.s34 { fill: url(#g30) } 
		.s35 { fill: url(#g31) } 
		.s36 { fill: url(#g32) } 
		.s37 { fill: url(#g33) } 
		.s38 { fill: url(#g34) } 
		.s39 { fill: url(#g35) } 
		.s40 { fill: url(#g36) } 
		.s41 { fill: url(#g37) } 
		.s42 { fill: url(#g38) } 
		.s43 { fill: url(#g39) } 
		.s44 { fill: url(#g40) } 
		.s45 { fill: url(#g41) } 
		.s46 { fill: url(#g42) } 
		.s47 { fill: url(#g43) } 
		.s48 { fill: url(#g44) } 
		.s49 { fill: url(#g45) } 
		.s50 { fill: url(#g46) } 
		.s51 { fill: url(#g47) } 
		.s52 { fill: url(#g48) } 
		.s53 { fill: url(#g49) } 
		.s54 { fill: url(#g50) } 
		.s55 { fill: url(#g51) } 
		.s56 { fill: url(#g52) } 
	</style>
	<g id="Background">
		<g>
			<g>
			</g>
		</g>
	</g>
	<g id="Illustration">
		<g>
			<path class="s0" d="m3115.2 2295c-261.8 616.4-959.1 961.7-1563.8 868.6-98.4-15.2-368.2-60.4-607-273.4-459.8-410-558.1-1221.9-187.2-1794.1 269.9-416.4 753.8-652.5 1213.6-640.7 99.1 2.6 478.6 18.2 812.2 293.3 49 40.4 157.1 136.4 254.4 288.7 228.7 357.6 248.4 855.9 77.8 1257.6z"/>
			<g>
				<g>
					<path fill-rule="evenodd" class="s1" d="m1631.7 2621.1l-60.9 420.2h706.6l-92.1-420.2z"/>
					<path class="s2" d="m444.8 1275.4v1250.9c0 102.9 82 187 184.9 189.7 456.9 11.8 2054.9 40.3 2489.8 33.9 74.7-1.1 135.3-60.9 137.4-135.6 8.4-290.6 22.1-989.4-28.4-1313.8-10.6-68.4-68.2-119.4-137.3-121.7-382.9-12.2-2076.8-51.1-2511.5-41.3-75 1.7-134.9 62.9-134.9 137.9z"/>
					<path class="s3" d="m523.3 1269.3v1188.4c0 60.1 48.3 109.1 108.3 110l2425.3 29.9c59.6 0.9 108.4-47 108.6-106.6l4.1-1177.8c0.1-42.6-33.8-77.5-76.4-78.5l-2483-50.2c-47.6-1.1-86.9 37.2-86.9 84.8z"/>
					<path class="s4" d="m3183.8 2646.7q-0.1 0-0.1 0l-2660.4-45.3c-2.1-0.1-3.7-1.8-3.7-3.8 0-2.1 1.8-3.6 3.8-3.7l2660.4 45.4c2.1 0 3.7 1.7 3.7 3.7 0 2.1-1.7 3.7-3.7 3.7z"/>
					<path class="s4" d="m1879.8 2702.1c-17.3 0-31.4-14.1-31.4-31.4 0-17.4 14.1-31.4 31.4-31.4 17.3 0 31.4 14 31.4 31.4 0 17.3-14.1 31.4-31.4 31.4zm0-55.4c-13.2 0-24 10.7-24 24 0 13.2 10.8 23.9 24 23.9 13.2 0 24-10.7 24-23.9 0-13.3-10.8-24-24-24z"/>
					<path class="s5" d="m2429.5 3153.1h-1034c-28.1 0-49.2-20-43.8-41.5l13.3-52.5c4-15.8 21.3-27.4 42-28l996.8-31.1c21.6-0.7 40.7 10.8 45.4 27.2l23.9 83.5c6.2 21.8-15 42.4-43.6 42.4z"/>
					<path class="s4" d="m1952.1 3045.7c-2 0-3.7-1.7-3.7-3.7 0-2 1.6-3.7 3.7-3.8l42.7-0.6q0 0 0 0c2.1 0 3.7 1.6 3.8 3.7 0 2-1.6 3.7-3.7 3.7l-42.7 0.7q0 0-0.1 0z"/>
					<path class="s4" d="m1390 3124.5q-0.3 0-0.6-0.1c-2-0.3-3.4-2.2-3.1-4.2l6.1-38.2c3.3-20.7 20.9-35.9 41.8-36.2l453.1-6.6c2.1-0.1 3.8 1.6 3.8 3.6 0 2.1-1.6 3.8-3.7 3.8l-453 6.6c-17.4 0.3-31.9 12.9-34.6 30l-6.1 38.2c-0.3 1.8-1.9 3.1-3.7 3.1z"/>
				</g>
				<g>
					<g style="opacity: .53">
						<path fill-rule="evenodd" class="s6" d="m670.9 1516.8h122.4v964.4h-122.4z"/>
						<path fill-rule="evenodd" class="s6" d="m875.4 1516.8h122.4v964.4h-122.4z"/>
						<path fill-rule="evenodd" class="s6" d="m1079.9 1516.8h122.4v964.4h-122.4z"/>
						<path fill-rule="evenodd" class="s6" d="m1284.4 1516.8h122.4v964.4h-122.4z"/>
						<path fill-rule="evenodd" class="s6" d="m1488.9 1516.8h122.4v964.4h-122.4z"/>
						<path fill-rule="evenodd" class="s6" d="m1693.4 1516.8h122.3v964.4h-122.3z"/>
						<path fill-rule="evenodd" class="s6" d="m1897.9 1516.8h122.3v964.4h-122.3z"/>
						<path fill-rule="evenodd" class="s6" d="m2117.8 1516.8h122.3v964.4h-122.3z"/>
						<path fill-rule="evenodd" class="s6" d="m2322.2 1516.8h122.4v964.4h-122.4z"/>
						<path fill-rule="evenodd" class="s6" d="m2526.7 1516.8h122.4v964.4h-122.4z"/>
					</g>
					<path fill-rule="evenodd" class="s7" d="m670.9 1976.5h122.4v504.7h-122.4z"/>
					<path fill-rule="evenodd" class="s8" d="m875.4 2150h122.4v331.2h-122.4z"/>
					<path fill-rule="evenodd" class="s9" d="m1079.9 1721.3h122.4v759.9h-122.4z"/>
					<path fill-rule="evenodd" class="s10" d="m1284.4 2298.6h122.4v182.6h-122.4z"/>
					<path fill-rule="evenodd" class="s11" d="m1488.9 1822.9h122.4v658.3h-122.4z"/>
					<path fill-rule="evenodd" class="s12" d="m1693.4 1936.9h122.3v544.3h-122.3z"/>
					<path fill-rule="evenodd" class="s13" d="m1897.9 2060.8h122.3v420.4h-122.3z"/>
					<path fill-rule="evenodd" class="s14" d="m2116.7 1630h122.4v851.2h-122.4z"/>
					<path fill-rule="evenodd" class="s15" d="m2321.2 2315.6h122.4v165.6h-122.4z"/>
					<path fill-rule="evenodd" class="s16" d="m2525.7 1993.9h122.4v487.3h-122.4z"/>
					<path fill-rule="evenodd" class="s17" d="m3131.9 1392l-266.9-468-266.8 468h100.5v1077.9h326.9v-1077.9z"/>
				</g>
			</g>
			<g>
				<g>
				</g>
			</g>
			<g>
				<path class="s18" d="m1275.5 981.9l433-145.1c23.8-8 49.8 4.2 59 27.6l242.2 616.9c7.2 18.4-2.2 39.1-20.8 45.7l-493.1 175.2c-17.5 6.2-36.6-3.1-42.5-20.7l-211.6-631.7c-9.4-28.1 5.7-58.5 33.8-67.9z"/>
				<path class="s3" d="m1564.8 1667.4v0.1l-55.8 17.8c-18.8 6-39.1-4.3-45.4-23l-28.1-83.8c-0.2-0.8 0.2-1.6 1-1.9 0.8-0.2 1.6 0.2 1.9 1l28 83.8c5.8 17.2 24.5 26.6 41.7 21.1l55.7-17.9c0.8-0.2 1.7 0.2 1.9 1 0.3 0.8-0.2 1.6-0.9 1.8z"/>
				<path class="s3" d="m1428.7 1553.5c-0.8 0.3-1.6-0.2-1.9-0.9l-4.5-13.6c-0.3-0.8 0.1-1.6 0.9-1.9q0 0 0 0c0.8-0.3 1.6 0.2 1.9 0.9l4.6 13.6c0.2 0.8-0.2 1.6-1 1.9q0 0 0 0z"/>
				<g>
					<path class="s4" d="m1279 987.6c61.7-11.9 273.2-55.6 437-124.6 7.5-3.2 16 0.3 19 7.7l241.2 609c3.3 8.3-0.8 17.8-9.3 21.2-69.3 27.8-355.1 141.2-462.6 165.3-6.5 1.5-13-2.1-15.2-8.4l-222.1-650.1c-3-8.8 2.6-18.3 12-20.1z"/>
					<path class="s19" d="m1287 990.6c59.5-11.4 263.1-53.1 420.7-119.7 7.2-3 15.4 0.5 18.3 7.7l235.5 595.9c3.2 8.2-0.8 17.4-8.9 20.7-66.7 26.8-341.7 136.2-445.1 159.2-6.3 1.4-12.6-2.1-14.7-8.3l-217.2-635.9c-3-8.7 2.4-17.9 11.4-19.6z"/>
					<g style="opacity: .6">
						<path class="s6" d="m1721.3 925.7c2.1-0.7 3.2-3 2.3-5l-0.4-1.1c-0.9-2.1-3.3-3.2-5.4-2.5l-369.3 120.5c-2.1 0.6-2.3 2.2-0.4 3.4l6.5 4.2c1.8 1.2 5.1 1.6 7.1 0.9z"/>
					</g>
					<g style="opacity: .6">
						<path class="s6" d="m1356.6 1061.8c-2 0.7-2.2 2.2-0.4 3.4l6.5 4.3c1.9 1.1 5.1 1.6 7.2 0.9l359.6-120.5c2.1-0.7 3.1-2.9 2.2-5l-0.4-1.1c-0.9-2-3.3-3.1-5.3-2.5z"/>
					</g>
					<path class="s6" d="m1494.3 1260.8q-0.1 0-0.2 0.1l-48.3 17.4c-7 2.5-14.5-0.2-17.5-6.2l-19.2-38.8c-1.2-2.3-1.3-5-0.4-7.5 1-2.8 3.2-5.1 6.1-6.4 3.9-1.8 9.4-4.4 15.3-7.2 13-6.1 27.7-13 36.6-16.5q0.1 0 0.2 0c6.4-2.4 13.3-0.6 16.9 4.5 6 8.4 12.3 26 18.8 44.9 2.1 6.2-1.6 13.2-8.3 15.7zm-77.8-37.6c-1.8 0.8-3.2 2.3-3.9 4-0.5 1.4-0.4 2.9 0.2 4.2l19.3 38.9c2 4.1 7.3 5.8 12.3 4l48.3-17.4q0 0 0.1 0c4.6-1.7 7.2-6.4 5.8-10.4-6.3-18.6-12.5-36-18.2-43.9-2.5-3.5-7.7-4.8-12.2-3-8.7 3.4-24 10.6-36.3 16.4-6 2.8-11.4 5.4-15.4 7.2z"/>
					<path class="s19" d="m1423.2 1225.3c9.9-4.4 31-14.8 41.4-18.8 4.4-1.7 9.3-0.5 11.7 3 4.8 6.6 10 21.6 14.8 35.4 1.4 4.1-1.2 8.8-5.8 10.5l-38.6 13.9c-4.7 1.7-9.9 0-11.9-4.1l-15.4-31c-1.5-3.2 0.1-7.2 3.8-8.9z"/>
					<g style="opacity: .6">
						<path class="s6" d="m1520.8 1203.2c-2.1 0.8-2.8 2.8-1.5 4.6l10.7 15.2c1.2 1.8 3.9 2.6 6 1.9l243-90.2c2-0.8 3-3.1 2.2-5.2l-4.1-10.3c-0.8-2.1-3.2-3.2-5.2-2.5z"/>
					</g>
					<path class="s20" d="m1427.6 1230.9c2.8-3.4 7.9-3.9 11.2-1l15.8 13.5c1.6 1.3 4.1 0.3 4.2-1.8l4.1-61.2c0.2-3 4.4-3.6 5.5-0.7 5.7 16.1 12.7 48.2-3.4 83.3 0 0-16.2-0.3-36.8-21-3-3-3.3-7.8-0.6-11.1z"/>
					<path class="s6" d="m1458.6 1151.1q-0.1 0-0.1 0l-48.4 17.4c-6.9 2.6-14.5-0.1-17.4-6.1l-19.3-38.9c-1.1-2.3-1.3-4.9-0.4-7.4 1-2.8 3.3-5.2 6.1-6.5 4-1.8 9.4-4.3 15.4-7.1 12.9-6.2 27.7-13.1 36.5-16.5q0.1-0.1 0.2-0.1c6.4-2.4 13.4-0.5 17 4.5 5.9 8.4 12.2 26.1 18.7 45 2.1 6.2-1.6 13.2-8.3 15.7zm-77.8-37.7c-1.8 0.9-3.2 2.3-3.8 4.1-0.5 1.4-0.5 2.9 0.2 4.2l19.2 38.8c2.1 4.1 7.3 5.9 12.3 4.1l48.3-17.4q0.1 0 0.1-0.1c4.6-1.7 7.2-6.3 5.9-10.4-6.4-18.6-12.6-35.9-18.2-43.8-2.5-3.5-7.8-4.8-12.2-3-8.8 3.4-24.1 10.6-36.3 16.4-6 2.8-11.5 5.3-15.5 7.1z"/>
					<path class="s19" d="m1387.5 1115.6c9.9-4.5 31.1-14.9 41.4-18.9 4.4-1.7 9.3-0.4 11.8 3 4.7 6.7 10 21.6 14.7 35.5 1.4 4.1-1.1 8.8-5.7 10.4l-38.7 14c-4.7 1.7-9.8-0.1-11.8-4.1l-15.4-31.1c-1.6-3.2 0.1-7.2 3.7-8.8z"/>
					<g style="opacity: .6">
						<path class="s6" d="m1485.1 1093.5c-2.1 0.7-2.8 2.8-1.5 4.6l10.7 15.1c1.3 1.8 4 2.7 6 1.9l243-90.2c2-0.8 3.1-3.1 2.3-5.1l-4.2-10.4c-0.8-2-3.1-3.1-5.2-2.4z"/>
					</g>
					<path class="s21" d="m1391.9 1121.1c2.8-3.4 7.9-3.8 11.3-1l15.8 13.5c1.6 1.4 4 0.4 4.2-1.7l4-61.2c0.2-3.1 4.5-3.6 5.5-0.8 5.7 16.2 12.8 48.3-3.4 83.3 0 0-16.2-0.2-36.8-21-3-3-3.2-7.8-0.6-11.1z"/>
					<path class="s6" d="m1532.6 1364q-0.1 0.1-0.1 0.1l-48.4 17.4c-6.9 2.5-14.4-0.1-17.4-6.1l-19.3-38.9c-1.1-2.3-1.3-4.9-0.4-7.5 1-2.8 3.3-5.1 6.1-6.4 4-1.8 9.4-4.3 15.4-7.2 12.9-6.1 27.7-13 36.5-16.4q0.1-0.1 0.2-0.1c6.4-2.4 13.4-0.5 17 4.5 5.9 8.4 12.3 26 18.7 44.9 2.1 6.2-1.6 13.3-8.3 15.7zm-77.8-37.6c-1.8 0.9-3.2 2.3-3.8 4.1-0.5 1.4-0.5 2.9 0.2 4.2l19.2 38.8c2.1 4.1 7.3 5.9 12.3 4.1l48.3-17.4q0.1-0.1 0.1-0.1c4.6-1.7 7.2-6.3 5.9-10.4-6.4-18.6-12.6-35.9-18.2-43.8-2.5-3.5-7.8-4.8-12.2-3-8.8 3.3-24.1 10.6-36.3 16.3-6 2.9-11.5 5.4-15.5 7.2z"/>
					<path class="s19" d="m1461.5 1328.6c9.9-4.5 31.1-14.9 41.4-18.9 4.4-1.7 9.3-0.5 11.8 3 4.7 6.7 10 21.6 14.7 35.4 1.4 4.2-1.1 8.9-5.7 10.5l-38.7 13.9c-4.7 1.8-9.8 0-11.8-4.1l-15.4-31c-1.6-3.2 0.1-7.2 3.7-8.8z"/>
					<g style="opacity: .6">
						<path class="s6" d="m1559.1 1306.5c-2.1 0.7-2.8 2.8-1.5 4.6l10.7 15.1c1.3 1.8 4 2.7 6 1.9l243-90.2c2-0.8 3.1-3.1 2.3-5.1l-4.2-10.4c-0.8-2.1-3.1-3.1-5.2-2.4z"/>
					</g>
					<path class="s22" d="m1465.9 1334.1c2.8-3.4 7.9-3.8 11.3-1l15.8 13.5c1.6 1.4 4 0.3 4.2-1.7l4-61.2c0.2-3.1 4.5-3.7 5.5-0.8 5.7 16.2 12.8 48.2-3.4 83.3 0 0-16.1-0.2-36.8-21-3-3-3.2-7.8-0.6-11.1z"/>
					<path class="s6" d="m1564.9 1464.9q-0.1 0-0.1 0l-48.4 17.4c-6.9 2.5-14.4-0.1-17.4-6.1l-19.3-38.9c-1.1-2.3-1.3-4.9-0.4-7.5 1-2.8 3.3-5.1 6.1-6.4 4-1.8 9.4-4.3 15.4-7.1 12.3-5.9 27.7-13.1 36.6-16.5 6.3-2.4 13.4-0.7 17.1 4.4 6 8.4 12.3 26 18.7 44.9 2.2 6.2-1.6 13.3-8.3 15.8zm-77.7-37.7c-1.9 0.9-3.3 2.3-3.9 4.1-0.5 1.4-0.4 2.9 0.2 4.2l19.2 38.8c2.1 4.1 7.3 5.9 12.3 4.1l48.3-17.4c4.6-1.8 7.4-6.4 6-10.5-6.4-18.6-12.6-35.9-18.2-43.8-2.5-3.5-7.7-4.8-12.2-3-8.8 3.4-24.1 10.6-36.4 16.3-5.9 2.9-11.4 5.4-15.3 7.2z"/>
					<path class="s19" d="m1493.8 1429.4c9.9-4.5 31.1-14.9 41.4-18.9 4.4-1.7 9.3-0.5 11.8 3 4.7 6.7 10 21.6 14.7 35.4 1.4 4.2-1.1 8.9-5.7 10.5l-38.7 13.9c-4.7 1.8-9.8 0-11.8-4.1l-15.4-31c-1.6-3.2 0.1-7.2 3.7-8.8z"/>
					<g style="opacity: .6">
						<path class="s6" d="m1591.4 1407.3c-2.1 0.7-2.7 2.8-1.5 4.6l10.7 15.1c1.3 1.8 4 2.7 6.1 1.9l242.9-90.2c2.1-0.8 3.1-3.1 2.3-5.1l-4.1-10.4c-0.9-2.1-3.2-3.1-5.3-2.4z"/>
					</g>
					<path class="s23" d="m1498.2 1434.9c2.8-3.4 7.9-3.8 11.3-1l15.8 13.5c1.6 1.4 4 0.3 4.2-1.7l4-61.2c0.2-3.1 4.5-3.7 5.5-0.8 5.7 16.2 12.8 48.2-3.4 83.3 0 0-16.1-0.2-36.8-21-3-3-3.2-7.8-0.6-11.1z"/>
					<path class="s6" d="m1597.4 1569.1q-0.1 0-0.1 0.1l-48.4 17.4c-6.9 2.5-14.4-0.2-17.4-6.2l-19.3-38.8c-1.1-2.3-1.3-5-0.4-7.5 1-2.8 3.3-5.1 6.1-6.4 4-1.8 9.4-4.4 15.4-7.2 12.9-6.1 27.7-13 36.5-16.5 6.6-2.3 13.5-0.6 17.2 4.5 6 8.4 12.3 26 18.7 44.9 2.1 6.2-1.6 13.2-8.3 15.7zm-77.8-37.6c-1.8 0.8-3.2 2.3-3.8 4-0.5 1.4-0.5 2.9 0.2 4.2l19.2 38.9c2.1 4.1 7.3 5.8 12.3 4l48.3-17.4q0.1 0 0.1 0c4.6-1.7 7.2-6.4 5.9-10.4-6.4-18.6-12.6-36-18.2-43.9-2.5-3.5-7.7-4.7-12.2-3-8.8 3.4-24.1 10.6-36.3 16.4-6 2.8-11.5 5.4-15.5 7.2z"/>
					<path class="s19" d="m1526.3 1533.6c9.9-4.4 31.1-14.8 41.4-18.8 4.4-1.7 9.3-0.5 11.8 2.9 4.7 6.7 10 21.7 14.7 35.5 1.4 4.1-1.1 8.8-5.7 10.5l-38.7 13.9c-4.7 1.7-9.8-0.1-11.8-4.1l-15.4-31c-1.6-3.2 0.1-7.2 3.7-8.9z"/>
					<g style="opacity: .6">
						<path class="s6" d="m1623.9 1511.5c-2.1 0.8-2.8 2.8-1.5 4.6l10.7 15.2c1.3 1.8 4 2.6 6 1.9l243-90.3c2-0.7 3.1-3 2.3-5.1l-4.2-10.4c-0.8-2-3.1-3.1-5.2-2.4z"/>
					</g>
					<path class="s24" d="m1530.7 1539.2c2.8-3.4 7.9-3.9 11.3-1l15.8 13.5c1.6 1.3 4 0.3 4.2-1.8l4-61.2c0.2-3 4.5-3.6 5.5-0.7 5.7 16.1 12.8 48.2-3.4 83.3 0 0-16.1-0.3-36.8-21.1-3-2.9-3.2-7.7-0.6-11z"/>
				</g>
				<path class="s25" d="m1490.2 814.8c-19.3-5.7-32.8-0.9-41.4 5.1-7.9 5.5-10.7 15.9-6.9 24.7l19.2 43.6 50.6-12.1c0 0 16.3-50.3-21.5-61.3zm-9.4 43.6c-6.8 2.2-14.1-1.4-16.4-8.2-2.3-6.7 1.4-14.1 8.2-16.3 6.7-2.3 14 1.3 16.3 8.1 2.3 6.8-1.4 14.1-8.1 16.4z"/>
				<g>
					<path class="s3" d="m1459.2 869c-0.9 0-1.8-0.6-2.3-1.5l-3-7c-0.6-1.3 0-2.8 1.3-3.4 1.3-0.5 2.8 0.1 3.4 1.4l3 6.9c0.6 1.3 0 2.8-1.3 3.4q-0.5 0.2-1.1 0.2zm-6-13.6c-0.9 0-1.8-0.6-2.2-1.6l-2.4-5.2c-3.9-9-1-19.5 7-25.1 5.5-3.8 11.6-6.2 18.3-7 1.4-0.1 2.7 0.9 2.9 2.3 0.1 1.4-0.9 2.7-2.3 2.8-5.8 0.7-11.2 2.8-16 6.1-5.9 4.2-8.1 12.1-5.2 18.8l2.4 5.3c0.5 1.3-0.1 2.8-1.4 3.4q-0.5 0.2-1.1 0.2z"/>
				</g>
				<path class="s26" d="m1403.9 939.8l-7.6-22.7c-2.7-7.8 1.7-16.2 9.6-18.6l158-46.9c7-2.1 14.5 1.5 17.2 8.3l8.6 21.3z"/>
				<path class="s3" d="m1446.1 894.8c-0.8 0.3-1.6-0.1-1.9-0.9-0.3-0.8 0.2-1.6 0.9-1.9l6.8-2.2c0.8-0.3 1.6 0.1 1.8 0.9 0.3 0.8-0.1 1.6-0.9 1.9l-6.7 2.2q0 0 0 0z"/>
				<path class="s3" d="m1409.5 931.2c-1.1 0-2.1-0.7-2.4-1.7l-3.1-9.2c-1.2-3.7-1-7.8 0.8-11.3 1.8-3.6 4.8-6.2 8.6-7.5l24.7-8.3c1.3-0.4 2.8 0.3 3.2 1.7 0.5 1.3-0.2 2.8-1.6 3.2l-24.7 8.3c-5.1 1.7-7.8 7.2-6.1 12.3l3.1 9.2c0.4 1.3-0.3 2.7-1.7 3.2q-0.4 0.1-0.8 0.1z"/>
				<path class="s27" d="m1352.1 947.9l273.1-91.5c9.9-3.3 20.6 1 25.5 10.1l0.7 1.3c5.4 9.9 0.5 22.4-10.3 26l-280.2 93.8c-6.4 2.2-13.3-1.5-15.2-8l-3.6-12.8c-2.2-7.9 2.2-16.3 10-18.9z"/>
			</g>
			<g>
				<g>
					<path class="s4" d="m1927.8 752.3c0 0 0.7-1.1 2-3.2 0.8-1.2 2.4-1.6 3.6-0.8 0.5 0.3 0.8 0.8 1 1.4q1.7-0.5 3.7-1c1.4-0.3 2.8 0.5 3.1 1.9 0.3 1.4-0.5 2.8-1.9 3.1-3.8 0.9-6.6 1.8-7.9 2.2q-0.5 0.1-0.7 0.2l-6.1 1.6zm9.2-13.9c2.5-3.4 5.1-6.9 7.7-10.4 0.8-1.1 2.4-1.3 3.6-0.4 1.1 0.8 1.3 2.4 0.4 3.5-2.6 3.4-5.1 6.9-7.5 10.3-0.8 1.1-2.4 1.4-3.6 0.6q-0.3-0.3-0.5-0.5c-0.7-0.9-0.7-2.1-0.1-3.1zm11.7 10.7c-0.2-1.4 0.8-2.7 2.2-2.9 4.4-0.6 8.8-1 13-1.2 1.4-0.1 2.6 1 2.6 2.4 0.1 1.4-1 2.6-2.4 2.7-4.1 0.2-8.2 0.6-12.5 1.2-0.9 0.1-1.8-0.3-2.3-0.9q-0.5-0.6-0.6-1.3zm25.5-1.5c0.1-1.4 1.3-2.5 2.7-2.4 4.6 0.4 8.9 1.1 13 2.1 1.4 0.3 2.2 1.7 1.9 3.1-0.3 1.3-1.7 2.2-3.1 1.8-3.8-0.9-7.9-1.5-12.2-1.9-0.7 0-1.3-0.4-1.8-0.9-0.4-0.5-0.6-1.2-0.5-1.8zm-21.5-29.6c2.7-3.4 5.5-6.7 8.3-9.8 1-1.1 2.6-1.2 3.6-0.2 1.1 0.9 1.2 2.5 0.2 3.6-2.7 3.1-5.5 6.3-8.2 9.6-0.9 1.1-2.5 1.3-3.6 0.4q-0.2-0.2-0.4-0.4c-0.7-0.9-0.7-2.3 0.1-3.2zm46.4 34.8c0.5-1.3 2.1-1.8 3.3-1.3 2.9 1.4 5.7 2.9 8.3 4.6q1.6 1 3.1 1.9c1.2 0.8 1.5 2.3 0.8 3.5-0.7 1.2-2.3 1.6-3.5 0.9q-1.6-1-3.2-2c-2.3-1.6-4.9-3-7.6-4.2q-0.5-0.3-0.9-0.7c-0.6-0.8-0.8-1.8-0.3-2.7zm34.7 36.2c0.7-0.8 1.8-1 2.7-0.6 2.2-0.7 4.7-0.9 7.7-0.6 1.4 0.2 2.4 1.5 2.2 2.9-0.1 1.4-1.4 2.4-2.8 2.2-3.5-0.4-6 0.1-8.2 1.6l-3.2-3.9zm-12.4-23.9c0.5-1.3 2-2 3.3-1.4 4 1.6 8 2.6 11.6 3 1.4 0.2 2.4 1.5 2.3 2.9-0.2 1.4-1.5 2.4-2.9 2.2-4.1-0.5-8.4-1.6-12.9-3.4q-0.7-0.3-1.1-0.8c-0.5-0.7-0.7-1.6-0.3-2.5zm-51.7-66.3c3-3.1 6-6.2 9.1-9.1 1-1 2.6-1 3.6 0.1 1 1 1 2.6-0.1 3.6-3 2.9-6 5.9-8.9 8.9-1 1-2.6 1.1-3.6 0.1q-0.1-0.1-0.3-0.3c-0.7-0.9-0.7-2.4 0.2-3.3zm73 81.1c3.4-3.6 6.4-6.7 8.7-9.3 1-1 2.6-1.1 3.6-0.1 1.1 0.9 1.1 2.5 0.2 3.6-2.4 2.6-5.4 5.8-8.8 9.3-1 1-2.6 1.1-3.6 0.1q-0.2-0.1-0.3-0.2c-0.8-1-0.7-2.5 0.2-3.4zm11.1 12.6c0.4-1.4 1.7-2.2 3.1-1.9 3.7 0.9 7.7 1.8 12.3 2.5 1.4 0.2 2.4 1.5 2.1 2.9-0.2 1.4-1.5 2.4-2.9 2.2-4.8-0.8-8.9-1.7-12.7-2.6-0.5-0.2-1-0.5-1.4-0.9-0.4-0.6-0.7-1.4-0.5-2.2zm-7.6-23.4c-0.4-1.4 0.4-2.8 1.8-3.2 3.9-1.1 6.7-2.9 8.6-4q1.2-0.8 2-1.2 0.4-0.2 0.7-0.3c1.3-0.4 2.7 0.3 3.1 1.7 0.5 1.3-0.3 2.8-1.6 3.2-0.4 0.2-0.9 0.5-1.5 0.9-2 1.2-5.3 3.3-10 4.7-1 0.2-2-0.1-2.6-0.9q-0.4-0.4-0.5-0.9zm-57.9-88.1c2.9-2.6 5.8-5 8.8-7.4l1.1-0.9c1.1-0.8 2.7-0.7 3.6 0.4 0.9 1.2 0.7 2.8-0.4 3.6l-1.1 0.9c-2.9 2.3-5.8 4.7-8.6 7.2-1.1 0.9-2.7 0.8-3.6-0.2q-0.1-0.1-0.1-0.1c-0.9-1.1-0.7-2.6 0.3-3.5zm90.6 115.8c0.1-1.4 1.3-2.5 2.7-2.4 4.1 0.1 8.3 0.1 12.5-0.2 1.4 0 2.6 1 2.7 2.4 0.1 1.4-1 2.7-2.4 2.7-4.4 0.3-8.8 0.3-13 0.2-0.8-0.1-1.4-0.5-1.9-1-0.4-0.5-0.6-1.1-0.6-1.7zm25.5-1c-0.2-1.4 0.8-2.7 2.1-2.9q1.4-0.2 2.7-0.4c3.2-0.5 6.4-1.2 9.5-2.1 1.4-0.4 2.8 0.4 3.2 1.7 0.3 1.4-0.4 2.8-1.8 3.2-3.3 0.9-6.6 1.7-10 2.2q-1.4 0.3-2.8 0.5c-0.9 0.1-1.8-0.3-2.4-0.9q-0.4-0.6-0.5-1.3zm-96.5-127.2c-0.8-1.2-0.5-2.8 0.6-3.6 3.6-2.5 7.2-4.9 10.8-7.1 1.2-0.7 2.8-0.4 3.5 0.8 0.8 1.2 0.4 2.8-0.8 3.6-3.5 2.1-7 4.4-10.5 6.9-1.1 0.8-2.6 0.5-3.5-0.5q0-0.1-0.1-0.1zm121.1 120.9c-0.5-1.3 0-2.8 1.3-3.4 3.7-1.7 7.4-3.7 10.8-6 1.2-0.7 2.8-0.4 3.6 0.8 0.7 1.1 0.4 2.7-0.8 3.5-3.6 2.4-7.5 4.5-11.5 6.4-1.1 0.5-2.3 0.1-3-0.8q-0.2-0.2-0.4-0.5zm-99.5-134.5c-0.6-1.3-0.2-2.8 1.1-3.5 3.9-2 7.8-3.9 11.7-5.6 1.3-0.5 2.8 0.1 3.3 1.4 0.6 1.3 0 2.8-1.3 3.3-3.8 1.7-7.6 3.5-11.4 5.4-1.1 0.6-2.4 0.3-3.1-0.6q-0.2-0.2-0.3-0.4zm121.4 117.6c3.1-2.7 6-5.7 8.7-8.9 0.9-1 2.5-1.2 3.6-0.3 1.1 1 1.2 2.6 0.3 3.6-2.8 3.4-5.9 6.5-9.2 9.4-1 0.9-2.6 0.9-3.6-0.2q0 0-0.1-0.1c-0.8-1.1-0.7-2.6 0.3-3.5zm-98.1-128c-0.4-1.4 0.3-2.8 1.6-3.2 4.2-1.4 8.4-2.6 12.5-3.5 1.4-0.3 2.8 0.6 3.1 1.9 0.3 1.4-0.6 2.8-1.9 3.1-4 0.9-8.1 2-12.1 3.3-1 0.4-2.1 0-2.8-0.8q-0.3-0.4-0.4-0.8zm114.2 109.2c3.3-5.3 5-9.2 5.4-10.3l0.8-5.5c0.2-1.4 1.5-2.4 2.9-2.2 1.4 0.2 2.3 1.5 2.1 2.9l-0.8 5.4c-0.6 3.7-6 12.3-6.1 12.4-0.8 1.2-2.3 1.5-3.5 0.8q-0.4-0.2-0.6-0.6c-0.7-0.8-0.8-2-0.2-2.9zm-89.5-115.3c-0.1-1.4 0.9-2.7 2.3-2.8 4.3-0.5 8.7-0.8 13-0.9 1.4 0 2.5 1.1 2.5 2.5 0.1 1.4-1.1 2.6-2.5 2.6-4.1 0.1-8.3 0.3-12.4 0.8-0.9 0.1-1.8-0.2-2.3-0.9q-0.5-0.5-0.6-1.3zm25.5-0.8c0.1-1.4 1.4-2.5 2.8-2.3 4.3 0.4 8.6 1.1 12.8 2 1.4 0.3 2.3 1.6 2 3-0.3 1.4-1.6 2.3-3 2-4.1-0.9-8.2-1.5-12.3-1.9-0.7-0.1-1.4-0.5-1.8-1-0.4-0.5-0.6-1.1-0.5-1.8zm72 87.6l1.8-12.6c0.2-1.4 1.5-2.4 2.9-2.2 1.4 0.2 2.4 1.5 2.2 2.9l-1.9 12.7c-0.2 1.4-1.5 2.3-2.8 2.1-0.7-0.1-1.3-0.4-1.7-0.9-0.4-0.5-0.6-1.2-0.5-2zm-47-82.9c0.4-1.4 1.9-2.1 3.2-1.7 4 1.3 8.1 2.9 12.2 4.6 1.3 0.6 1.9 2.1 1.3 3.4-0.6 1.3-2.1 1.9-3.4 1.3-3.8-1.7-7.8-3.2-11.7-4.4q-0.7-0.3-1.2-0.9c-0.5-0.6-0.7-1.5-0.4-2.3zm50.7 57.7l1.8-12.7c0.2-1.4 1.5-2.3 2.9-2.1 1.4 0.2 2.3 1.5 2.1 2.9l-1.8 12.6c-0.2 1.4-1.5 2.4-2.9 2.2-0.6-0.1-1.2-0.5-1.6-1-0.4-0.5-0.6-1.2-0.5-1.9zm-27.1-48.1c0.6-1.2 2.2-1.7 3.4-1 3.7 2 7.5 4.2 11.1 6.6 1.2 0.8 1.6 2.4 0.8 3.5-0.8 1.2-2.3 1.6-3.5 0.8-3.6-2.3-7.2-4.5-10.8-6.4q-0.5-0.3-0.8-0.7c-0.6-0.7-0.7-1.9-0.2-2.8zm21.6 13.5c0.8-1.1 2.4-1.3 3.5-0.5 3.3 2.5 6.6 5.2 9.9 7.9l1 0.9-0.2 1.7c-0.2 1.4-1.5 2.4-2.9 2.2-0.9-0.1-1.7-0.7-2-1.5-2.9-2.5-5.9-4.9-8.8-7.1q-0.3-0.2-0.5-0.4c-0.7-0.9-0.8-2.2 0-3.2z"/>
					<path class="s28" d="m2175.9 715.4c0 0-26.1 50.2-65 35-38.9-15.2-74.3-40.2-92.4-32.4 0 0 68.8-86.6 158.1-22.5z"/>
					<path class="s29" d="m2278.4 776c0 0-6.7 55.1-24.2 62-16.7 6.5-141.9-4.8-154.1-5.9-0.5 0-0.9-0.5-0.9-1.1 0-4.5 2.2-8.7 5.9-11.4 17.9-12.7 71.7-50.3 91.6-56.4 24.1-7.4 81.7 12.8 81.7 12.8z"/>
					<path class="s30" d="m2145.1 828.6c0.2 0.3 0.5 0.5 0.9 0.5 0.7 0 69.4 5 99 6 5.3 0.2 10.2-2.8 12.5-7.5 3.6-7.5 10.2-22.3 13.9-37.9 0.2-0.6-0.2-1.3-0.9-1.5-0.7-0.2-1.4 0.3-1.6 1-3.6 15.2-10.1 29.9-13.7 37.3-1.9 3.8-5.8 6.2-10.1 6.1-29.6-1-98.2-6-98.9-6.1-0.7 0-1.3 0.5-1.4 1.2 0 0.4 0.1 0.7 0.3 0.9z"/>
					<path class="s31" d="m2280.1 647c0 0-5.3-55.2-22.7-62.5-16.5-7-141.9 1.1-154.1 1.9-0.6 0-1 0.4-1 1 0 4.5 2.1 8.8 5.7 11.6 17.6 13.2 70.4 52.1 90.1 58.7 23.8 8.1 82-10.7 82-10.7z"/>
					<path class="s32" d="m2148.2 592.6c0.2 0.3 0.6 0.5 1 0.5 0.7 0 69.4-3.2 99.1-3.4 4.2-0.1 8.1 2.4 9.9 6.3 3.3 7.5 9.5 22.3 12.7 37.7 0.2 0.7 0.9 1.1 1.6 0.9 0.6-0.1 1.1-0.8 0.9-1.5-3.1-14.8-8.7-28.9-12.9-38.2-2.2-4.8-7-7.8-12.3-7.8-29.6 0.2-98.4 3.4-99.1 3.5-0.7 0-1.2 0.6-1.2 1.3q0 0.4 0.3 0.7z"/>
					<path class="s33" d="m2464.9 777.7c-25.8 8.1-55.5 13.5-88.6 13.1-102.7-1-178-19.5-199.2-25.4-3.9-1-6.8-4.1-7.7-8q-10.9-45.9 0.5-91.6c1.4-5.7 5.9-10.2 11.7-11.5 24.9-6 98.5-21.1 196.8-19.5 32.8 0.5 62.2 6.6 87.6 15.2 13.6 51.1 5.2 100.2-1.1 127.7z"/>
					<path class="s34" d="m2466 650c56.1 19 93 50.3 104.8 61.3 2.3 2.2 2.2 5.9-0.1 8-12.1 10.7-49.5 40.9-105.8 58.4 6.3-27.5 14.7-76.6 1.1-127.7z"/>
					<g>
						<path class="s35" d="m2384.8 661.3c-26.6-0.4-48.5 22.5-48.9 51.1-0.3 28.5 20.9 51.9 47.5 52.3 26.6 0.3 48.5-22.5 48.9-51.1 0.3-28.5-20.9-52-47.5-52.3z"/>
						<path class="s36" d="m2386 670.4c-21.2-0.3-38.6 17.9-38.9 40.7-0.3 22.7 16.6 41.4 37.8 41.6 21.2 0.3 38.6-17.9 38.9-40.6 0.3-22.8-16.6-41.5-37.8-41.7z"/>
						<path class="s4" d="m2392.2 740.5c0.3 0.4 0.9 0.6 1.4 0.4 13.1-3.8 22.3-16.4 22.5-30.6 0.1-3.6-0.4-7.1-1.5-10.5-0.2-0.6-0.9-1-1.6-0.8-0.7 0.2-1 0.9-0.8 1.6 0.9 3.1 1.4 6.4 1.4 9.7-0.2 13.1-8.7 24.7-20.7 28.2-0.7 0.2-1.1 0.9-0.9 1.6q0.1 0.2 0.2 0.4z"/>
					</g>
					<g>
						<path class="s37" d="m2287.8 677.6c-17.6-0.2-32.1 14.9-32.3 33.7-0.2 18.9 13.8 34.4 31.4 34.6 17.5 0.2 32-14.9 32.2-33.8 0.3-18.8-13.8-34.3-31.3-34.5z"/>
						<path class="s38" d="m2288.6 683.6c-14-0.2-25.5 11.8-25.7 26.9-0.2 15 11 27.3 25 27.5 14 0.2 25.5-11.9 25.7-26.9 0.2-15-11-27.3-25-27.5z"/>
						<path class="s4" d="m2292.3 730.2c0.4 0.4 0.9 0.6 1.4 0.4 8.8-2.6 15.1-11.1 15.2-20.6 0-2.4-0.3-4.8-1-7.1-0.2-0.7-1-1-1.6-0.8-0.7 0.2-1.1 0.9-0.9 1.6q1 3 0.9 6.2c-0.1 8.5-5.6 16-13.3 18.3-0.7 0.2-1.1 0.9-0.9 1.5q0.1 0.3 0.2 0.5z"/>
					</g>
				</g>
				<g>
					<path class="s3" d="m1893.5 750.4l-16.8 4.1c-1.5 0.4-3.1-0.6-3.5-2.1-0.4-1.6 0.6-3.2 2.2-3.6h0.1l16.4-4.1h0.2c1.6-0.4 3.2 0.5 3.6 2.1 0.3 1.6-0.6 3.2-2.2 3.6z"/>
					<path class="s3" d="m1859.8 757.4l-17.1 1.9c-1.6 0.2-3-1-3.2-2.5-0.1-1.6 1-3 2.6-3.2h0.1l16.8-1.9h0.2c1.5-0.2 3 1 3.1 2.5 0.2 1.6-0.9 3.1-2.5 3.2z"/>
					<path class="s3" d="m1825.5 760.1l-17.2-0.1c-1.5 0-2.8-1.3-2.7-2.8 0-1.6 1.2-2.8 2.8-2.8h0.1l16.9 0.1h0.1c1.6 0 2.8 1.2 2.8 2.8 0 1.6-1.2 2.8-2.8 2.8z"/>
					<path class="s3" d="m1791.2 759l-17.1-1.8c-1.5-0.2-2.6-1.5-2.4-3 0.2-1.5 1.5-2.6 3-2.5l0.1 0.1 16.8 1.7h0.2c1.5 0.1 2.6 1.5 2.4 3-0.1 1.5-1.5 2.6-3 2.5z"/>
					<path class="s3" d="m1757.2 754.7l-16.9-3.2c-1.4-0.3-2.4-1.7-2.1-3.2 0.3-1.4 1.7-2.4 3.1-2.1h0.1l16.7 3.1h0.1c1.4 0.3 2.4 1.7 2.1 3.2-0.2 1.5-1.6 2.4-3.1 2.2z"/>
					<path class="s3" d="m1723.6 747.7l-16.5-4.4c-1.4-0.4-2.2-1.8-1.9-3.2 0.4-1.4 1.8-2.2 3.2-1.8h0.1l16.4 4.2 0.1 0.1c1.4 0.3 2.2 1.8 1.9 3.2-0.4 1.4-1.8 2.2-3.2 1.9z"/>
					<path class="s3" d="m1690.7 738.5l-16.3-5.4c-1.3-0.4-2-1.8-1.6-3.2 0.4-1.3 1.9-2 3.2-1.6h0.1l16.1 5.2h0.1c1.3 0.5 2.1 1.9 1.6 3.3-0.4 1.3-1.8 2.1-3.2 1.7z"/>
					<path class="s3" d="m1658.3 727.4l-15.9-6.2c-1.3-0.4-1.9-1.9-1.4-3.2 0.5-1.2 1.9-1.9 3.2-1.4l15.9 6.1c1.3 0.5 2 1.9 1.5 3.2-0.5 1.3-2 2-3.3 1.5z"/>
					<path class="s3" d="m1626.6 714.7l-15.7-6.8c-1.2-0.5-1.8-1.9-1.2-3.2 0.5-1.2 1.9-1.8 3.2-1.2l15.6 6.7c1.3 0.6 1.9 2 1.3 3.3-0.5 1.2-2 1.8-3.2 1.3z"/>
					<path class="s3" d="m1595.4 700.8l-15.4-7.5c-1.1-0.5-1.6-1.9-1.1-3.1 0.6-1.2 2-1.7 3.2-1.1l15.3 7.3 0.1 0.1c1.2 0.5 1.7 2 1.1 3.1-0.6 1.2-2 1.7-3.2 1.2z"/>
					<path class="s3" d="m1564.8 685.6l-15.1-7.9c-1.1-0.6-1.6-2-1-3.1 0.6-1.2 2-1.6 3.1-1h0.1l15 7.9h0.1c1.1 0.6 1.5 2 0.9 3.1-0.5 1.2-2 1.6-3.1 1z"/>
					<path class="s3" d="m1534.7 669.5l-14.8-8.5c-1.1-0.6-1.5-1.9-0.9-3 0.6-1.1 2-1.5 3.1-0.9v0.1l14.8 8.3c1.1 0.6 1.5 2 0.9 3.1-0.6 1.1-2 1.5-3.1 0.9z"/>
					<path class="s3" d="m1505.1 652.4l-14.6-8.8c-1-0.7-1.4-2-0.7-3.1 0.6-1 2-1.3 3-0.7l14.6 8.8c1.1 0.6 1.4 2 0.8 3-0.7 1.1-2 1.4-3.1 0.8z"/>
					<path class="s3" d="m1476 634.6l-14.4-9.2c-1-0.7-1.3-2.1-0.6-3.1 0.6-1 2-1.3 3-0.6l14.4 9.1v0.1c1 0.6 1.3 2 0.6 3-0.6 1-2 1.3-3 0.7z"/>
					<path class="s3" d="m1447.4 616l-14.2-9.6c-1-0.6-1.2-2-0.6-3 0.7-1 2-1.2 3-0.6h0.1l14.1 9.5v0.1c1 0.6 1.3 2 0.6 3-0.7 1-2 1.2-3 0.6z"/>
					<path class="s3" d="m1419.2 596.7l-13.9-9.9c-1-0.6-1.2-2-0.5-3 0.6-0.9 2-1.2 3-0.5l13.9 9.9c1 0.7 1.2 2 0.5 3-0.7 1-2 1.2-3 0.5z"/>
					<path class="s3" d="m1391.3 577.3l-14.5-8.6-0.2-0.1c-1-0.6-1.3-1.9-0.7-2.9 0.6-1 1.9-1.3 2.9-0.7l14.8 8.7c1 0.6 1.3 1.9 0.7 2.9-0.6 1.1-1.9 1.4-2.9 0.8z"/>
					<path class="s3" d="m1361.7 561l-15.5-6.7h-0.1c-1.1-0.5-1.6-1.8-1.1-2.8 0.4-1.1 1.7-1.6 2.7-1.1l15.8 6.8c1.1 0.4 1.6 1.7 1.1 2.8-0.4 1-1.7 1.5-2.8 1.1z"/>
					<path class="s3" d="m1330.3 548.6l-16.2-4.7h-0.2c-1.1-0.3-1.7-1.5-1.4-2.6 0.3-1.1 1.5-1.8 2.6-1.5l16.5 4.8c1.1 0.3 1.8 1.5 1.4 2.6-0.3 1.1-1.5 1.8-2.6 1.4z"/>
					<path class="s3" d="m1297.6 540.3l-16.7-2.6-0.2-0.1c-1.1-0.1-1.9-1.2-1.7-2.3 0.2-1.2 1.2-1.9 2.4-1.8l16.9 2.6c1.2 0.2 1.9 1.3 1.8 2.4-0.2 1.2-1.3 2-2.4 1.8z"/>
					<path class="s3" d="m1264 536.1l-16.9-0.4h-0.1c-1.1-0.1-2-1-2-2.2 0-1.1 1-2 2.1-2l17.2 0.5c1.1 0 2 1 2 2.1 0 1.2-1 2.1-2.1 2z"/>
					<path class="s3" d="m1230.2 536.3l-16.8 1.7h-0.1c-1.1 0.1-2.1-0.7-2.2-1.9-0.2-1.1 0.7-2.1 1.8-2.2l17.1-1.7c1.1-0.1 2.1 0.7 2.2 1.8 0.1 1.1-0.7 2.1-1.8 2.3z"/>
					<path class="s3" d="m1196.8 540.7l-16.5 3.8h-0.1c-1.1 0.3-2.2-0.4-2.5-1.5-0.2-1.1 0.4-2.2 1.5-2.4l16.8-3.9c1.1-0.3 2.2 0.4 2.4 1.5 0.3 1.1-0.4 2.2-1.5 2.5z"/>
					<path class="s3" d="m1164.1 549.4l-15.9 5.8-0.1 0.1c-1 0.3-2.2-0.2-2.6-1.2-0.4-1.1 0.2-2.2 1.2-2.6l16.1-6c1-0.4 2.2 0.2 2.6 1.2 0.4 1-0.1 2.2-1.2 2.6z"/>
					<path class="s3" d="m1132.8 562.1l-14.9 8h-0.1c-1 0.5-2.2 0.2-2.7-0.8-0.5-1-0.2-2.2 0.8-2.7l15.1-8.1c1-0.6 2.2-0.2 2.8 0.8 0.5 1 0.1 2.2-0.9 2.7z"/>
					<path class="s3" d="m1103.6 579.1l-13.7 9.9-0.1 0.1c-0.8 0.6-2.1 0.4-2.7-0.5-0.7-0.9-0.5-2.1 0.4-2.7l13.9-10.1c0.9-0.7 2.1-0.5 2.8 0.4 0.6 0.9 0.4 2.1-0.5 2.8z"/>
					<path class="s3" d="m1076.9 599.8l-12.4 11.5-0.1 0.1c-0.8 0.7-2 0.6-2.7-0.1-0.8-0.8-0.7-2.1 0.1-2.8l12.5-11.7c0.8-0.8 2-0.7 2.8 0.1 0.7 0.8 0.7 2-0.1 2.8z"/>
					<path class="s3" d="m1052.8 623.5l-11 12.9v0.1c-0.7 0.8-2 0.9-2.8 0.2-0.8-0.7-0.9-2-0.2-2.8l11.1-13c0.7-0.8 2-0.9 2.8-0.2 0.8 0.7 0.9 1.9 0.2 2.7z"/>
					<path class="s3" d="m1031.6 649.8l-9.4 14.1-0.1 0.1c-0.6 0.9-1.8 1.1-2.7 0.5-0.9-0.6-1.1-1.8-0.5-2.7l9.5-14.2c0.6-0.9 1.9-1.1 2.7-0.5 0.9 0.6 1.2 1.8 0.6 2.6z"/>
					<path class="s3" d="m1013.6 678.5l-7.6 15.1-0.1 0.1c-0.5 0.9-1.6 1.3-2.6 0.8-0.9-0.5-1.3-1.6-0.8-2.6l7.7-15.3c0.5-0.9 1.7-1.3 2.6-0.8 1 0.5 1.3 1.6 0.9 2.6z"/>
					<path class="s3" d="m999.3 709.1l-5.5 16-0.1 0.1c-0.3 1-1.4 1.5-2.4 1.2-1-0.4-1.5-1.5-1.2-2.4l5.7-16.3c0.3-1 1.4-1.5 2.4-1.1 1 0.3 1.5 1.4 1.2 2.4z"/>
					<path class="s3" d="m989.4 741.4l-3 16.6v0.2c-0.2 1-1.2 1.7-2.2 1.5-1.1-0.2-1.7-1.2-1.5-2.2l3-16.9c0.2-1.1 1.2-1.7 2.2-1.5 1.1 0.1 1.7 1.1 1.6 2.1z"/>
					<path class="s3" d="m984.8 774.8l-0.1 16.8v0.2c-0.1 1-0.9 1.9-1.9 1.9-1 0-1.9-0.9-1.9-1.9l0.1-17.2c0-1 0.9-1.9 1.9-1.9 1 0 1.9 0.9 1.9 1.9z"/>
					<path class="s3" d="m986.2 808.4l3.1 16.6v0.1c0.2 1-0.4 2-1.4 2.2-1 0.2-2-0.5-2.2-1.5l-3.2-16.9c-0.2-1 0.4-1.9 1.4-2.1 1.1-0.2 2 0.4 2.2 1.4z"/>
					<path class="s3" d="m994.1 841.1l6.5 15.6 0.1 0.1c0.3 1-0.1 2-1 2.4-1 0.4-2 0-2.4-1l-6.6-15.9c-0.4-0.9 0-2 1-2.4 0.9-0.4 2 0.1 2.4 1z"/>
					<path class="s3" d="m1008.8 871.3c3.1 4.6 6.6 8.9 10.6 12.8 0.7 0.7 0.7 1.9 0 2.6-0.7 0.7-1.9 0.7-2.6 0-4.1-4.1-7.8-8.6-11-13.4-0.6-0.8-0.4-2 0.4-2.5 0.9-0.6 2-0.4 2.6 0.5z"/>
					<path class="s3" d="m1032.4 894.5c4.7 2.9 9.7 5.3 15 7.1 0.9 0.3 1.4 1.3 1.1 2.3-0.3 0.9-1.4 1.4-2.3 1.1-5.5-1.9-10.8-4.4-15.7-7.5-0.9-0.5-1.1-1.6-0.6-2.5 0.5-0.8 1.6-1.1 2.5-0.5z"/>
					<path class="s3" d="m1063.6 905.1c5.5 0.6 11.1 0.5 16.6-0.1 1-0.1 1.9 0.6 2 1.6 0.1 1-0.6 1.9-1.6 2-5.8 0.6-11.6 0.7-17.4 0.1-1-0.1-1.7-1-1.6-2 0.1-1 1-1.7 2-1.6z"/>
					<path class="s3" d="m1096.5 901.6c5.3-1.7 10.5-3.8 15.4-6.4 0.9-0.5 2-0.1 2.4 0.7 0.5 0.9 0.1 2-0.7 2.4-5.1 2.7-10.5 4.9-16 6.7-1 0.3-2-0.2-2.2-1.2-0.3-0.9 0.2-1.9 1.1-2.2z"/>
					<path class="s3" d="m1126 886.2c4.4-3.4 8.5-7.2 12.3-11.3 0.7-0.7 1.8-0.8 2.5-0.1 0.7 0.7 0.8 1.8 0.1 2.5-3.9 4.2-8.2 8.1-12.8 11.6-0.7 0.6-1.8 0.5-2.4-0.3-0.6-0.7-0.5-1.9 0.3-2.4z"/>
					<path class="s3" d="m1148.7 861.7l4.2-7.2c1.5-2.3 2.6-4.9 3.9-7.4l0.1-0.1c0.4-0.9 1.4-1.2 2.3-0.8 0.8 0.4 1.2 1.5 0.7 2.3-1.2 2.6-2.4 5.2-3.9 7.7l-4.4 7.5c-0.5 0.8-1.6 1.1-2.4 0.6-0.8-0.5-1.1-1.6-0.6-2.4z"/>
					<path class="s3" d="m1162.6 831.4c1.6-5.4 2.7-10.9 3.2-16.5 0.1-0.9 1-1.6 1.9-1.5 0.9 0.1 1.6 0.9 1.5 1.9-0.6 5.7-1.7 11.4-3.2 17-0.3 0.9-1.3 1.4-2.2 1.2-0.9-0.3-1.4-1.2-1.2-2.1z"/>
					<path class="s3" d="m1165.9 798.3c-0.5-5.6-1.5-11.1-3.1-16.4-0.2-0.9 0.3-1.9 1.2-2.1 0.9-0.3 1.8 0.2 2.1 1.1 1.6 5.6 2.7 11.3 3.2 17.1 0.1 0.9-0.6 1.7-1.5 1.8-1 0.1-1.8-0.6-1.9-1.5z"/>
					<path class="s3" d="m1156.7 766.4c-2.6-5-5.5-9.8-8.9-14.2-0.5-0.8-0.4-1.8 0.4-2.4 0.7-0.5 1.8-0.4 2.3 0.4 3.5 4.6 6.6 9.5 9.2 14.6 0.4 0.9 0.1 1.9-0.8 2.3-0.8 0.4-1.8 0.1-2.2-0.7z"/>
					<path class="s3" d="m1136.8 739.6c-4-3.9-8.3-7.6-12.8-10.9-0.8-0.5-0.9-1.6-0.4-2.3 0.6-0.8 1.6-0.9 2.3-0.4 4.7 3.4 9.1 7.2 13.2 11.2 0.7 0.6 0.7 1.7 0 2.3-0.6 0.7-1.7 0.7-2.3 0.1z"/>
					<path class="s3" d="m1109.8 719.6q-7.3-4.1-15.1-7.3c-0.9-0.3-1.3-1.3-0.9-2.1 0.3-0.9 1.3-1.3 2.1-0.9q8 3.3 15.5 7.4c0.8 0.5 1.1 1.5 0.7 2.3-0.5 0.8-1.5 1.1-2.3 0.6z"/>
					<path class="s3" d="m1078.8 706.8c-5.4-1.6-11-2.6-16.5-3.9h-0.1c-0.9-0.3-1.4-1.2-1.2-2.1 0.2-0.9 1.1-1.4 2-1.2 5.5 1.4 11.1 2.5 16.7 4 0.8 0.3 1.3 1.2 1.1 2.1-0.2 0.8-1.2 1.3-2 1.1z"/>
					<path class="s3" d="m1045.6 700.2l-16.8-1.7h-0.1c-1-0.1-1.7-0.9-1.6-1.9 0.1-1 1-1.7 1.9-1.6l17.1 1.8c0.9 0.1 1.6 0.9 1.5 1.8-0.1 1-0.9 1.7-1.9 1.6z"/>
					<path class="s3" d="m1011.9 698l-16.9 0.4h-0.2c-1 0-1.8-0.8-1.9-1.8 0-1.1 0.8-1.9 1.9-1.9l17.1-0.4c1 0 1.8 0.8 1.8 1.8 0.1 1-0.7 1.8-1.7 1.9z"/>
					<path class="s3" d="m978.1 699.7l-16.8 2.3h-0.1c-1.1 0.2-2-0.6-2.2-1.6-0.1-1.1 0.6-2.1 1.7-2.2l17-2.2c1-0.2 2 0.6 2.1 1.6 0.1 1-0.6 2-1.6 2.1z"/>
					<path class="s3" d="m944.7 705.2l-16.5 4.1h-0.1c-1.1 0.3-2.2-0.4-2.4-1.5-0.3-1.1 0.4-2.2 1.5-2.5l16.6-4c1.1-0.3 2.2 0.4 2.4 1.5 0.3 1-0.4 2.1-1.4 2.4z"/>
					<path class="s3" d="m912.1 714.2l-15.9 5.8h-0.2c-1.1 0.4-2.3-0.2-2.7-1.3-0.4-1.1 0.2-2.3 1.3-2.7l16.1-5.8c1.1-0.4 2.3 0.2 2.7 1.3 0.4 1.1-0.2 2.2-1.2 2.6z"/>
					<path class="s3" d="m880.6 726.6l-15.1 7.5-0.1 0.1c-1.2 0.6-2.5 0.1-3-1-0.6-1.1-0.1-2.4 1-3l15.4-7.6c1.1-0.5 2.4 0 2.9 1 0.5 1.1 0.1 2.4-1 3z"/>
					<path class="s3" d="m850.8 742.6l-14 9.3-0.2 0.1c-1 0.7-2.5 0.4-3.2-0.7-0.7-1.1-0.4-2.5 0.7-3.2l14.3-9.4c1.1-0.7 2.5-0.4 3.2 0.7 0.7 1 0.4 2.4-0.6 3.1z"/>
					<path class="s3" d="m823.2 762l-13 10.8h-0.1c-1.1 0.9-2.6 0.7-3.4-0.3-0.9-1-0.7-2.5 0.3-3.4l13.3-10.8c1-0.9 2.5-0.7 3.3 0.3 0.8 1 0.7 2.5-0.3 3.3z"/>
					<path class="s3" d="m797.6 784.1l-12.1 11.9h-0.1c-1 1-2.5 1-3.5 0-1-1-1-2.6 0-3.6l12.3-11.9c1-0.9 2.6-0.9 3.5 0.1 1 0.9 0.9 2.5 0 3.5z"/>
					<path class="s3" d="m773.9 808.3l-11.3 12.7c-1 1.1-2.6 1.2-3.7 0.3-1.1-1-1.2-2.7-0.2-3.7l11.4-12.8c0.9-1.1 2.5-1.1 3.6-0.2 1.1 0.9 1.1 2.6 0.2 3.6z"/>
					<path class="s3" d="m751.8 834l-10.4 13.4h-0.1c-0.9 1.2-2.6 1.4-3.8 0.5-1.1-0.9-1.3-2.6-0.4-3.8l10.6-13.4c0.9-1.2 2.6-1.4 3.7-0.5 1.2 0.9 1.4 2.6 0.5 3.7z"/>
					<path class="s3" d="m731.3 861l-9.6 14h-0.1c-0.9 1.3-2.6 1.6-3.9 0.7-1.2-0.9-1.5-2.6-0.7-3.9l9.9-14c0.9-1.2 2.6-1.5 3.8-0.6 1.2 0.8 1.5 2.5 0.7 3.8z"/>
					<path class="s3" d="m712.4 889.1l-9 14.5c-0.9 1.4-2.6 1.8-4 0.9-1.3-0.8-1.8-2.6-0.9-3.9l9.1-14.5c0.8-1.3 2.6-1.7 3.9-0.9 1.3 0.8 1.7 2.6 0.9 3.9z"/>
					<path class="s3" d="m694.8 918.2l-8.2 14.8v0.1c-0.8 1.4-2.6 1.9-4 1.2-1.5-0.8-2-2.6-1.2-4.1l8.4-14.9c0.8-1.4 2.5-1.9 3.9-1.1 1.4 0.8 1.9 2.5 1.2 3.9z"/>
					<path class="s3" d="m678.8 948.1l-7.5 15.2v0.1c-0.8 1.5-2.6 2.1-4.1 1.4-1.5-0.8-2.2-2.6-1.4-4.1l7.6-15.4c0.7-1.4 2.6-2.1 4-1.3 1.5 0.7 2.1 2.5 1.4 4z"/>
					<path class="s3" d="m664.2 978.7l-6.6 15.6-0.1 0.1c-0.7 1.6-2.5 2.3-4.1 1.6-1.6-0.6-2.3-2.5-1.7-4.1h0.1l6.8-15.7c0.6-1.6 2.5-2.3 4-1.6 1.6 0.7 2.3 2.5 1.7 4z"/>
					<path class="s3" d="m651.3 1010.1l-5.8 15.9v0.1c-0.6 1.7-2.5 2.5-4.1 1.9-1.7-0.6-2.6-2.4-2-4.1l6-16.1c0.6-1.7 2.4-2.5 4.1-1.9 1.6 0.6 2.4 2.4 1.9 4.1z"/>
					<path class="s3" d="m640.3 1042.1l-4.8 16.2v0.2c-0.5 1.7-2.4 2.7-4.1 2.2-1.8-0.5-2.8-2.3-2.3-4.1l4.9-16.5c0.5-1.7 2.3-2.7 4.1-2.2 1.7 0.5 2.7 2.4 2.2 4.1z"/>
					<path class="s3" d="m631.4 1074.7l-3.5 16.6v0.1c-0.4 1.8-2.2 3-4 2.6-1.9-0.4-3-2.2-2.7-4 1.2-5.6 2.4-11.2 3.6-16.8 0.4-1.8 2.2-3 4-2.6 1.8 0.4 3 2.2 2.6 4z"/>
					<path class="s3" d="m625.2 1107.9l-2 16.8v0.1c-0.3 1.9-1.9 3.2-3.8 3-1.8-0.2-3.1-1.9-2.9-3.8l2-17c0.2-1.9 1.9-3.2 3.7-3 1.9 0.2 3.2 1.9 3 3.7v0.1z"/>
					<path class="s3" d="m622 1141.5l-0.3 16.9v0.1c0 1.9-1.5 3.4-3.3 3.3-1.9 0-3.4-1.5-3.3-3.4l0.2-17.2c0.1-1.8 1.6-3.3 3.4-3.3 1.9 0 3.4 1.6 3.3 3.4z"/>
					<path class="s3" d="m622.4 1175.2l1.5 16.8v0.2c0.2 1.8-1.1 3.4-2.9 3.6-1.9 0.1-3.5-1.2-3.6-3l-1.7-17.2c-0.1-1.8 1.2-3.4 3-3.6 1.9-0.1 3.5 1.2 3.7 3z"/>
					<path class="s3" d="m626.4 1208.7l3.5 16.4v0.2c0.4 1.8-0.8 3.5-2.5 3.9-1.8 0.4-3.5-0.8-3.9-2.5l-3.5-16.9c-0.4-1.8 0.7-3.5 2.5-3.9 1.8-0.4 3.5 0.8 3.9 2.6z"/>
					<path class="s3" d="m634.3 1241.4l5.3 16v0.1c0.6 1.7-0.3 3.6-2 4.1-1.7 0.6-3.5-0.3-4.1-2l-5.5-16.3c-0.5-1.7 0.4-3.6 2.1-4.2 1.7-0.5 3.5 0.4 4.1 2.1z"/>
					<path class="s3" d="m645.8 1273l7 15.3 0.1 0.2c0.8 1.6 0.1 3.5-1.6 4.3-1.6 0.7-3.5 0-4.2-1.6l-7.2-15.6c-0.8-1.6-0.1-3.5 1.5-4.3 1.6-0.7 3.6 0 4.3 1.6z"/>
					<path class="s3" d="m660.7 1303.3l8.6 14.5 0.1 0.1c0.9 1.5 0.4 3.5-1.1 4.4-1.5 0.8-3.5 0.4-4.3-1.2l-8.9-14.7c-0.9-1.5-0.4-3.5 1.2-4.4 1.5-0.9 3.4-0.4 4.3 1.1z"/>
					<path class="s3" d="m678.6 1331.9l10 13.6 0.1 0.1c1 1.4 0.7 3.4-0.7 4.4-1.4 1-3.4 0.7-4.4-0.7l-10.1-13.8c-1.1-1.4-0.8-3.4 0.6-4.4 1.4-1.1 3.4-0.8 4.4 0.6h0.1z"/>
					<path class="s3" d="m699.1 1358.7l11.1 12.8 0.1 0.1c1.1 1.3 1 3.2-0.3 4.3-1.3 1.2-3.3 1-4.4-0.3l-11.3-12.9c-1.1-1.3-0.9-3.3 0.4-4.4 1.3-1.1 3.2-1 4.4 0.3z"/>
					<path class="s3" d="m721.8 1383.8l12 11.9 0.1 0.1c1.2 1.2 1.2 3.1 0 4.3-1.2 1.3-3.2 1.3-4.4 0.1l-12.1-12.1c-1.2-1.2-1.3-3.1-0.1-4.3 1.2-1.2 3.2-1.3 4.4-0.1z"/>
					<path class="s3" d="m746.2 1407.3l12.8 11.1c1.3 1.1 1.4 3.1 0.3 4.3-1.1 1.3-3 1.4-4.3 0.3l-12.9-11.2c-1.3-1.1-1.4-3-0.3-4.3 1.1-1.3 3-1.4 4.3-0.3z"/>
					<path class="s3" d="m772.1 1429.1l13.3 10.4 0.1 0.1c1.3 1 1.6 2.9 0.5 4.2-1 1.3-2.9 1.5-4.2 0.5l-13.5-10.4c-1.3-1.1-1.6-3-0.5-4.3 1-1.3 2.9-1.5 4.2-0.5z"/>
					<path class="s3" d="m799.1 1449.6l13.9 9.7h0.1c1.3 1 1.6 2.8 0.7 4.2-0.9 1.3-2.8 1.6-4.1 0.7l-14.1-9.8c-1.3-0.9-1.7-2.8-0.7-4.1 0.9-1.4 2.8-1.7 4.1-0.8z"/>
					<path class="s3" d="m827.1 1468.8l14.2 9.4c1.4 0.8 1.8 2.7 0.9 4-0.9 1.4-2.7 1.7-4.1 0.9l-14.2-9.4c-1.4-0.9-1.8-2.7-0.9-4.1 0.9-1.4 2.8-1.7 4.1-0.8z"/>
					<path class="s3" d="m855.6 1487.5l14.3 9.3c1.3 0.9 1.7 2.7 0.8 4-0.9 1.4-2.7 1.8-4 0.9l-14.3-9.3c-1.3-0.9-1.7-2.7-0.9-4.1 0.9-1.3 2.7-1.7 4.1-0.8z"/>
					<path class="s3" d="m884.1 1506.1l14.3 9.4c1.3 0.8 1.7 2.6 0.8 3.9-0.9 1.3-2.6 1.7-4 0.9l-14.2-9.3c-1.4-0.9-1.7-2.7-0.9-4 0.9-1.4 2.7-1.7 4-0.9z"/>
					<path class="s3" d="m912.6 1524.8l14.2 9.4c1.3 0.9 1.7 2.6 0.8 3.9-0.8 1.3-2.6 1.7-3.9 0.8l-14.2-9.3c-1.3-0.9-1.7-2.7-0.8-4 0.8-1.3 2.6-1.7 3.9-0.8z"/>
					<path class="s3" d="m941 1543.7l14.1 9.6c1.2 0.8 1.6 2.6 0.7 3.9-0.9 1.2-2.6 1.6-3.9 0.7l-14.1-9.5c-1.3-0.9-1.6-2.7-0.7-3.9 0.8-1.3 2.6-1.7 3.9-0.8z"/>
					<path class="s3" d="m969.1 1563l13.9 9.8c1.3 0.9 1.6 2.6 0.7 3.8-0.9 1.3-2.6 1.6-3.8 0.7h-0.1l-13.9-9.8c-1.3-0.9-1.6-2.6-0.7-3.9 0.9-1.2 2.6-1.5 3.9-0.6z"/>
					<path class="s3" d="m996.9 1582.8l13.7 10.1c1.2 0.9 1.5 2.6 0.6 3.8-0.9 1.2-2.6 1.5-3.8 0.6h-0.1l-13.7-10.1c-1.2-0.9-1.5-2.6-0.6-3.9 0.9-1.2 2.7-1.4 3.9-0.5z"/>
					<path class="s3" d="m1024.2 1603.2l13.4 10.5c1.2 1 1.4 2.7 0.5 3.8-0.9 1.2-2.6 1.4-3.8 0.5l-13.4-10.5h-0.1c-1.1-0.9-1.4-2.6-0.4-3.8 0.9-1.2 2.6-1.4 3.8-0.5z"/>
					<path class="s3" d="m1050.9 1624.4l13.2 10.9c1.1 0.9 1.3 2.6 0.4 3.7-1 1.1-2.7 1.3-3.8 0.4l-13.2-10.8c-1.1-1-1.3-2.7-0.4-3.8 1-1.1 2.7-1.3 3.8-0.4z"/>
					<path class="s3" d="m1077.1 1646.3l12.9 11.2c1.1 0.9 1.2 2.6 0.3 3.7-1 1.1-2.7 1.2-3.8 0.3v-0.1l-12.8-11.1c-1.1-1-1.3-2.7-0.3-3.8 1-1.1 2.6-1.2 3.7-0.2z"/>
					<path class="s3" d="m1102.7 1669l12.4 11.7c1.1 1 1.1 2.6 0.1 3.6-1 1.1-2.6 1.1-3.6 0.2l-0.1-0.1-12.4-11.6c-1.1-1-1.1-2.7-0.1-3.7 1-1.1 2.6-1.1 3.7-0.1z"/>
					<path class="s3" d="m1127.3 1692.7l11.8 12.3c1 1 1 2.7 0 3.7-1.1 0.9-2.7 0.9-3.7-0.1v-0.1l-11.8-12.2c-1-1.1-1-2.7 0-3.7 1.1-1 2.7-0.9 3.7 0.1z"/>
					<path class="s3" d="m1150.6 1717.7l11.1 13.1c0.9 1 0.8 2.6-0.3 3.5-1.1 0.9-2.7 0.8-3.6-0.3l-11-12.9-0.1-0.1c-0.9-1.1-0.7-2.7 0.3-3.6 1.1-0.9 2.7-0.8 3.6 0.3z"/>
					<path class="s3" d="m1172.3 1744.2l10.1 13.9c0.8 1.1 0.5 2.6-0.6 3.5-1.1 0.8-2.7 0.5-3.5-0.6v-0.1l-10-13.6-0.1-0.1c-0.8-1.2-0.5-2.7 0.6-3.5 1.1-0.9 2.7-0.6 3.5 0.5z"/>
					<path class="s3" d="m1191.8 1772.4l8.8 14.7c0.7 1.1 0.4 2.7-0.8 3.3-1.2 0.7-2.7 0.4-3.4-0.8v-0.1l-8.7-14.5-0.1-0.1c-0.7-1.2-0.3-2.7 0.8-3.4 1.2-0.7 2.7-0.3 3.4 0.9z"/>
					<path class="s3" d="m1208.7 1802.2l7.2 15.6c0.6 1.2 0 2.6-1.2 3.2-1.2 0.5-2.6 0-3.1-1.2l-0.1-0.1-7.2-15.3v-0.1c-0.6-1.2-0.1-2.7 1.1-3.3 1.3-0.5 2.7 0 3.3 1.2z"/>
					<path class="s3" d="m1222.2 1833.8l5.3 16.3c0.4 1.2-0.2 2.5-1.4 2.9-1.3 0.4-2.5-0.3-2.9-1.5l-0.1-0.1-5.3-16-0.1-0.2c-0.4-1.2 0.3-2.5 1.5-2.9 1.3-0.5 2.6 0.2 3 1.4z"/>
					<path class="s3" d="m1231.8 1866.7l3.3 16.8c0.2 1.2-0.6 2.4-1.8 2.6-1.2 0.3-2.3-0.5-2.6-1.7v-0.1l-3.3-16.6v-0.1c-0.2-1.3 0.6-2.5 1.8-2.7 1.2-0.2 2.4 0.6 2.6 1.8z"/>
					<path class="s3" d="m1237.2 1900.6l1.1 17.1c0 1.2-0.8 2.2-2 2.3-1.2 0-2.2-0.8-2.2-2l-0.1-0.1-1.1-16.9v-0.1c-0.1-1.2 0.8-2.3 2-2.3 1.2-0.1 2.2 0.8 2.3 2z"/>
					<path class="s3" d="m1238.2 1934.9l-1.3 17.1c-0.1 1.1-1 1.9-2.2 1.9-1.1-0.1-1.9-1.1-1.8-2.2v-0.1l1.1-16.9v-0.1c0.1-1.1 1.1-2 2.2-1.9 1.2 0.1 2 1.1 2 2.2z"/>
					<path class="s3" d="m1234.9 1969l-2.8 16.9c-0.2 1-1.2 1.7-2.3 1.6-1-0.2-1.7-1.2-1.5-2.2v-0.1l2.6-16.8c0.2-1.1 1.2-1.9 2.3-1.7 1.1 0.2 1.8 1.2 1.7 2.3z"/>
					<path class="s3" d="m1228.5 2002.6l-4.3 16.6c-0.3 1-1.3 1.6-2.3 1.3-0.9-0.2-1.5-1.2-1.3-2.2l0.1-0.1 4.2-16.4v-0.1c0.2-1 1.3-1.6 2.3-1.4 1 0.3 1.6 1.3 1.3 2.3z"/>
					<path class="s3" d="m1218.9 2035.5l-6.5 15.9c-0.3 0.9-1.3 1.3-2.2 1-0.9-0.4-1.3-1.4-1-2.3l0.1-0.1 6.2-15.7 0.1-0.1c0.3-0.9 1.4-1.4 2.3-1 0.9 0.3 1.4 1.4 1 2.3z"/>
					<path class="s3" d="m1204.5 2066.7c-2.9 5-6.1 9.8-9.8 14.2-0.6 0.7-1.6 0.8-2.3 0.3-0.7-0.6-0.8-1.6-0.3-2.3 3.5-4.4 6.7-9.1 9.5-13.9 0.5-0.8 1.5-1.1 2.3-0.6 0.8 0.5 1.1 1.5 0.6 2.3z"/>
					<path class="s3" d="m1182.4 2093.2c-4.6 3.6-9.7 6.6-15.2 8.6-0.8 0.3-1.7-0.1-2-0.9-0.3-0.8 0.1-1.7 0.9-2 5.2-1.9 10-4.8 14.3-8.2 0.7-0.6 1.7-0.5 2.2 0.2 0.6 0.7 0.5 1.7-0.2 2.3z"/>
				</g>
			</g>
			<g>
				<path class="s39" d="m968.3 3153.1c0 0-6.5 34.8-9.9 69.3-1.3 13.5 9 25.3 22.5 26 46 2.3 144.2 7 179.5 5.7 5.3-0.2 8.9-5.6 6.9-10.5-1.6-4.2-4.7-7.5-8.7-9.4l-161.7-76.2z"/>
				<path class="s40" d="m963.4 3132.6l4.6 41.7c0 0 28.3 13.5 47.9-1.2l-11.4-46.6z"/>
				<path class="s41" d="m974.6 2348.7c-2.2 10.8-16.6 543.3 38 782.4 0.9 3.9-1.1 7.9-4.8 9.4-8.8 3.5-26 8.5-46.5 9-6.3 0.1-12-4-13.7-10.2-15.8-55.5-91.1-333.6-98.7-598.7-8.6-296.2 0.1-10.1 0.1-10.1l8.4-183z"/>
				<path class="s42" d="m781.3 3169.5c0 0-9.9 17.5-19.9 64.2-1.8 8.4 4 16.5 12.6 17.5 15.2 1.6 38.5 3.8 57.2 3.8 8.7 0 15.5-7.4 14.5-16-1.9-17.1-8.1-45.2-27.8-67.2z"/>
				<path class="s43" d="m773.2 3115.8l11 63.2c0 0 11.3 8.6 34 2.6l-4.9-67.9z"/>
				<path class="s44" d="m749.2 2362.9c-49.3 280.5 3.5 694.5 21.8 775.6 1.1 4.9 5.1 8.8 10.1 9.6 8.5 1.5 22.5 2.8 36.4-1.1 4.8-1.3 8.2-5.6 8.4-10.5 3.2-65.4 2.4-467.1 47.3-625.4 2.3-8 7.3-15 14.1-19.8l84.8-59 7.4-96.7z"/>
				<g>
					<path class="s45" d="m1050.9 1833.3c-139.5-3.6-293.8 33.9-293.8 33.9-43.9 242.2-12.3 522.4-12.3 522.4 107.8 29.4 230.1-15.1 230.1-15.1 18.9-101.2 105.4-385.9 105.4-385.9 68.2-7.8 124.5-26.9 171-52.5-34.9-41.2-51-93.4-57.9-124.2-49.5 14.8-99.5 22.6-142.5 21.4z"/>
					<path class="s46" d="m1465 1631.8c-13.6-16.7-31-9-31-9-21.4 86.5-129.7 155.8-240.6 189.1 6.9 30.8 23 83 57.9 124.2 184.6-101.4 213.7-304.3 213.7-304.3z"/>
				</g>
				<g>
					<path class="s47" d="m1461.6 1636c1.4 4.5-15.3 11.3-24.9-7.4-0.3-9-5.3-47.3 0.1-54.5 28.8-38.5 84.4-86.6 84.4-86.6 9.2 9.3 1.5 18.2 1.5 18.2l-27 27.6c5.4 10.2 12.2 18.8 15.3 31.1 2.3 9.2 0.7 19.1-4 27.5-4.8 8.4-11.3 19.4-17.5 27.9-11.6 16.2-27.9 16.2-27.9 16.2z"/>
					<path class="s48" d="m1483.8 1551.3l-24.6 20.4-7.8 20.5 21.5 24.4c0 0 7.7-40.8 13.2-49.6 5.5-8.8 2.7-13.1-2.3-15.7z"/>
				</g>
				<path class="s49" d="m809.3 2002.8l-52.2-135.6c0 0-131.2 87.3-153.7 199.3 24.6 2.1 69.4 8.9 113 31.5 10.2-53 92.9-95.2 92.9-95.2z"/>
				<path class="s50" d="m922 2131c0 0-147.1 81.3-195.8 10.2-10.1-14.8-12.4-29.4-9.8-43.2-43.6-22.6-88.4-29.4-113-31.5-6.7 33.8-3.7 69.8 15.9 106.4 84.9 159 321.7-5.7 321.7-5.7z"/>
				<path class="s51" d="m910.7 1718.7l-45.7 128c-0.7 2.1 0.1 4.5 2.1 5.6 12 6.8 55.4 26.5 108.3-6.3 5.5-3.4 9.3-9 10.2-15.4l15.4-111z"/>
				<g>
					<path class="s52" d="m1008.4 1600.8c0 0 47.9 92.2 41.3 129.2-6.6 37-67 33.8-119.5 3.2l-35.9-99.5z"/>
					<path class="s53" d="m933 1684.5c2.1-0.9 3-3.5 1.7-5.5-3.9-6-11.1-18.2-13.3-28.9 0 0-8.7-5.7 22.4-12.9 31.2-7.1 77.6-18.2 87.6-44.5 9.7-25.7-14.6-90.8-54.9-39.5-1.5 1.9-4.5 1.9-6 0-6.4-8.6-23.4-26.4-47.3-15.9-22.4 9.8-25.1 26.1-24.8 34.3 0 2.4-2.1 4.3-4.5 3.8-11.3-2.3-38.3-4.4-51.2 23.3-10.6 22.7-3.9 35.7 2.1 42.1 2 2.1 1.1 5.4-1.6 6.2-7.5 2.2-17.1 8.4-16.3 25.8 1.1 24 27.9 22.1 35.6 21.1 1.2-0.2 2.5 0.3 3.3 1.2 6.5 7.3 35.7 38.4 67.6 42.4 2.8 0.3 4.9-2.4 4-5l-13.4-40.3c-0.6-1.9 0.3-3.9 2.1-4.7z"/>
					<path class="s54" d="m938.5 1690.3c0 0-34.5-24.2-37.2-4.1-2.7 20 31 29.3 47.8 22z"/>
				</g>
				<g>
					<g>
						<path class="s55" d="m891.9 2259.4l80.2-279.8c0.9-3.2 3.6-5.5 6.9-5.9 14.5-1.7 56.5-6.4 105.1-10.5 58.5-5 126.5-9 167.1-5.6 5.7 0.5 9.2 6.6 6.7 11.8-23.1 46.7-118.1 236.7-165.7 299-1.5 2-4 3.2-6.6 3.2l-185.9-1.7c-5.4-0.1-9.3-5.3-7.8-10.5z"/>
						<path class="s56" d="m911.3 2191.8c0 0-11.2-45.9-6.7-62.2 4.5-16.2 13.3-37.2 42.3-32.5 29.1 4.6 63.4 16.9 63.4 16.9 0 0-1.7 21.2-23.8 14.3l13.7 10.7c0 0-2 16.9-20.6 7.9l12.7 14c0 0-8 14-21.7 5-13.8-8.9-20.4 31.5-59.3 25.9z"/>
					</g>
					<path class="s4" d="m1078.8 2046.7c0 13 10.5 23.5 23.5 23.5 13 0 23.5-10.5 23.5-23.5 0-13-10.5-23.5-23.5-23.5-13 0-23.5 10.5-23.5 23.5z"/>
					<path class="s4" d="m981.1 2062.2l16.3-55.3c2-6.8 7.5-11.9 14.3-13.3 51.1-10.7 191.1-13 192.5-13l-0.1-6.3c-5.8 0.1-142 2.3-193.7 13.1-9 1.9-16.3 8.7-19 17.7l-16.3 55.3z"/>
				</g>
			</g>
		</g>
	</g>
</svg>