<svg version="1.2" xmlns="http://www.w3.org/2000/svg" viewBox="0 0 2475 1650" width="2475" height="1650">
	<title>11668590_20945602</title>
	<defs>
		<linearGradient id="g1" x2="1" gradientUnits="userSpaceOnUse" gradientTransform="matrix(2190.338,0,0,1414.054,127.93,783.722)">
			<stop offset="0" stop-color="#dae3fe"/>
			<stop offset="1" stop-color="#e9effd"/>
		</linearGradient>
		<linearGradient id="g2" x2="1" gradientUnits="userSpaceOnUse" gradientTransform="matrix(297.661,0,0,495.815,1966.626,879.158)">
			<stop offset="0" stop-color="#dae3fe"/>
			<stop offset="1" stop-color="#e9effd"/>
		</linearGradient>
		<linearGradient id="g3" x2="1" gradientUnits="userSpaceOnUse" gradientTransform="matrix(-304,238,-223.208,-285.106,2686.489,912.608)">
			<stop offset="0" stop-color="#e1473d"/>
			<stop offset="1" stop-color="#e9605a"/>
		</linearGradient>
		<linearGradient id="g4" x2="1" gradientUnits="userSpaceOnUse" gradientTransform="matrix(398,-584.001,539.286,367.527,2024.996,1294.1)">
			<stop offset="0" stop-color="#fe7062"/>
			<stop offset="1" stop-color="#ff928e"/>
		</linearGradient>
		<linearGradient id="g5" x2="1" gradientUnits="userSpaceOnUse" gradientTransform="matrix(398,-584,467.383,318.525,2071.968,1326.111)">
			<stop offset="0" stop-color="#fe7062"/>
			<stop offset="1" stop-color="#ff928e"/>
		</linearGradient>
		<linearGradient id="g6" x2="1" gradientUnits="userSpaceOnUse" gradientTransform="matrix(344.001,-6,16.289,933.88,2174.556,1225.818)">
			<stop offset="0" stop-color="#e1473d"/>
			<stop offset="1" stop-color="#e9605a"/>
		</linearGradient>
		<linearGradient id="g7" x2="1" gradientUnits="userSpaceOnUse" gradientTransform="matrix(431.999,-561.999,535.412,411.562,1576.468,1592.83)">
			<stop offset="0" stop-color="#e1473d"/>
			<stop offset="1" stop-color="#e9605a"/>
		</linearGradient>
		<linearGradient id="g8" x2="1" gradientUnits="userSpaceOnUse" gradientTransform="matrix(-94,257.999,-145.205,-52.904,2231.358,530.689)">
			<stop offset="0" stop-color="#e1473d"/>
			<stop offset="1" stop-color="#e9605a"/>
		</linearGradient>
		<linearGradient id="g9" x2="1" gradientUnits="userSpaceOnUse" gradientTransform="matrix(-224,256,-186.298,-163.011,1986.403,896.228)">
			<stop offset="0" stop-color="#fe7062"/>
			<stop offset="1" stop-color="#ff928e"/>
		</linearGradient>
		<linearGradient id="g10" x2="1" gradientUnits="userSpaceOnUse" gradientTransform="matrix(278,-482,426.905,246.223,1586.298,1179.288)">
			<stop offset="0" stop-color="#fe7062"/>
			<stop offset=".72" stop-color="#ff8882"/>
			<stop offset="1" stop-color="#ff928e"/>
		</linearGradient>
		<linearGradient id="g11" x2="1" gradientUnits="userSpaceOnUse" gradientTransform="matrix(278,-482,349.214,201.414,1650.247,1216.172)">
			<stop offset="0" stop-color="#fe7062"/>
			<stop offset="1" stop-color="#ff928e"/>
		</linearGradient>
		<linearGradient id="g12" x2="1" gradientUnits="userSpaceOnUse" gradientTransform="matrix(413.012,0,0,191.701,543.811,1367.128)">
			<stop offset="0" stop-color="#dae3fe"/>
			<stop offset="1" stop-color="#e9effd"/>
		</linearGradient>
		<linearGradient id="g13" x2="1" gradientUnits="userSpaceOnUse" gradientTransform="matrix(426.872,0,0,204.783,1137.696,586.601)">
			<stop offset="0" stop-color="#09005d"/>
			<stop offset="1" stop-color="#1a0f91"/>
		</linearGradient>
		<linearGradient id="g14" x2="1" gradientUnits="userSpaceOnUse" gradientTransform="matrix(-703.999,690,-689.625,-703.618,1997.713,141.782)">
			<stop offset="0" stop-color="#09005d"/>
			<stop offset="1" stop-color="#1a0f91"/>
		</linearGradient>
		<linearGradient id="g15" x2="1" gradientUnits="userSpaceOnUse" gradientTransform="matrix(-498,-30,87.791,-1457.324,2450.418,1276.874)">
			<stop offset="0" stop-color="#e1473d"/>
			<stop offset="1" stop-color="#e9605a"/>
		</linearGradient>
		<linearGradient id="g16" x2="1" gradientUnits="userSpaceOnUse" gradientTransform="matrix(220,-416,360.845,190.832,1397.31,1408.299)">
			<stop offset="0" stop-color="#fe7062"/>
			<stop offset="1" stop-color="#ff928e"/>
		</linearGradient>
		<linearGradient id="g17" x2="1" gradientUnits="userSpaceOnUse" gradientTransform="matrix(220,-415.999,286.607,151.571,1470.772,1447.149)">
			<stop offset="0" stop-color="#fe7062"/>
			<stop offset="1" stop-color="#ff928e"/>
		</linearGradient>
		<linearGradient id="g18" x2="1" gradientUnits="userSpaceOnUse" gradientTransform="matrix(-286.001,46.001,-91.526,-569.047,1968.154,1150.997)">
			<stop offset="0" stop-color="#e1473d"/>
			<stop offset="1" stop-color="#e9605a"/>
		</linearGradient>
		<linearGradient id="g19" x2="1" gradientUnits="userSpaceOnUse" gradientTransform="matrix(296,-526,463.098,260.603,1156.068,1450.091)">
			<stop offset="0" stop-color="#fe7062"/>
			<stop offset="1" stop-color="#ff928e"/>
		</linearGradient>
		<linearGradient id="g20" x2="1" gradientUnits="userSpaceOnUse" gradientTransform="matrix(296,-526,375.651,211.393,1222.466,1487.456)">
			<stop offset="0" stop-color="#fe7062"/>
			<stop offset="1" stop-color="#ff928e"/>
		</linearGradient>
		<linearGradient id="g21" x2="1" gradientUnits="userSpaceOnUse" gradientTransform="matrix(-528,18,-46.875,-1374.99,2039.013,1201.74)">
			<stop offset="0" stop-color="#e1473d"/>
			<stop offset="1" stop-color="#e9605a"/>
		</linearGradient>
		<linearGradient id="g22" x2="1" gradientUnits="userSpaceOnUse" gradientTransform="matrix(224,-322,298.916,207.941,890.814,1482.306)">
			<stop offset="0" stop-color="#fe7062"/>
			<stop offset="1" stop-color="#ff928e"/>
		</linearGradient>
		<linearGradient id="g23" x2="1" gradientUnits="userSpaceOnUse" gradientTransform="matrix(224,-322,260.931,181.517,935.675,1513.514)">
			<stop offset="0" stop-color="#fe7062"/>
			<stop offset="1" stop-color="#ff928e"/>
		</linearGradient>
		<linearGradient id="g24" x2="1" gradientUnits="userSpaceOnUse" gradientTransform="matrix(598.504,0,0,86.722,404.995,651.619)">
			<stop offset="0" stop-color="#09005d"/>
			<stop offset="1" stop-color="#1a0f91"/>
		</linearGradient>
		<linearGradient id="g25" x2="1" gradientUnits="userSpaceOnUse" gradientTransform="matrix(628,-322,259.54,506.182,360.323,636.071)">
			<stop offset="0" stop-color="#4042e2"/>
			<stop offset="1" stop-color="#4f52ff"/>
		</linearGradient>
		<linearGradient id="g26" x2="1" gradientUnits="userSpaceOnUse" gradientTransform="matrix(434,-538,528.71,426.506,466.133,1188.045)">
			<stop offset="0" stop-color="#4042e2"/>
			<stop offset="1" stop-color="#4f52ff"/>
		</linearGradient>
		<linearGradient id="g27" x2="1" gradientUnits="userSpaceOnUse" gradientTransform="matrix(571.135,0,0,162.585,411.934,448.962)">
			<stop offset="0" stop-color="#09005d"/>
			<stop offset="1" stop-color="#1a0f91"/>
		</linearGradient>
		<linearGradient id="g28" x2="1" gradientUnits="userSpaceOnUse" gradientTransform="matrix(140.459,817.484,-817.478,140.458,497.739,183.09)">
			<stop offset="0" stop-color="#4042e2"/>
			<stop offset="1" stop-color="#4f52ff"/>
		</linearGradient>
		<linearGradient id="g29" x2="1" gradientUnits="userSpaceOnUse" gradientTransform="matrix(140.459,817.485,-817.474,140.457,796.71,131.717)">
			<stop offset="0" stop-color="#4042e2"/>
			<stop offset="1" stop-color="#4f52ff"/>
		</linearGradient>
		<linearGradient id="g30" x2="1" gradientUnits="userSpaceOnUse" gradientTransform="matrix(117.94,139.911,-140.066,118.071,464.165,354.904)">
			<stop offset="0" stop-color="#4042e2"/>
			<stop offset="1" stop-color="#4f52ff"/>
		</linearGradient>
		<linearGradient id="g31" x2="1" gradientUnits="userSpaceOnUse" gradientTransform="matrix(117.94,139.911,-140.067,118.072,772.138,356.901)">
			<stop offset="0" stop-color="#4042e2"/>
			<stop offset="1" stop-color="#4f52ff"/>
		</linearGradient>
		<linearGradient id="g32" x2="1" gradientUnits="userSpaceOnUse" gradientTransform="matrix(-25.83,219.466,-219.471,-25.831,373.123,71.626)">
			<stop offset="0" stop-color="#4042e2"/>
			<stop offset="1" stop-color="#4f52ff"/>
		</linearGradient>
		<linearGradient id="g33" x2="1" gradientUnits="userSpaceOnUse" gradientTransform="matrix(71.443,0,0,88.841,362.781,265.52)">
			<stop offset="0" stop-color="#09005d"/>
			<stop offset="1" stop-color="#1a0f91"/>
		</linearGradient>
		<linearGradient id="g34" x2="1" gradientUnits="userSpaceOnUse" gradientTransform="matrix(-24.623,209.203,-101.514,-11.948,396.532,78.503)">
			<stop offset="0" stop-color="#4042e2"/>
			<stop offset="1" stop-color="#4f52ff"/>
		</linearGradient>
		<linearGradient id="g35" x2="1" gradientUnits="userSpaceOnUse" gradientTransform="matrix(-25.83,219.466,-219.466,-25.83,1056.999,152.105)">
			<stop offset="0" stop-color="#4042e2"/>
			<stop offset="1" stop-color="#4f52ff"/>
		</linearGradient>
		<linearGradient id="g36" x2="1" gradientUnits="userSpaceOnUse" gradientTransform="matrix(71.122,0,0,89.358,984.86,269.708)">
			<stop offset="0" stop-color="#09005d"/>
			<stop offset="1" stop-color="#1a0f91"/>
		</linearGradient>
		<linearGradient id="g37" x2="1" gradientUnits="userSpaceOnUse" gradientTransform="matrix(-24.874,211.339,-58.764,-6.916,1043.52,150.953)">
			<stop offset="0" stop-color="#4042e2"/>
			<stop offset="1" stop-color="#4f52ff"/>
		</linearGradient>
		<linearGradient id="g38" x2="1" gradientUnits="userSpaceOnUse" gradientTransform="matrix(96.85,0,0,346.63,327.875,944.187)">
			<stop offset="0" stop-color="#09005d"/>
			<stop offset="1" stop-color="#1a0f91"/>
		</linearGradient>
		<linearGradient id="g39" x2="1" gradientUnits="userSpaceOnUse" gradientTransform="matrix(158.125,0,0,427.247,239.387,970.236)">
			<stop offset="0" stop-color="#09005d"/>
			<stop offset="1" stop-color="#1a0f91"/>
		</linearGradient>
		<linearGradient id="g40" x2="1" gradientUnits="userSpaceOnUse" gradientTransform="matrix(137.105,1.392,-4.527,445.91,231.117,965.237)">
			<stop offset="0" stop-color="#4042e2"/>
			<stop offset="1" stop-color="#4f52ff"/>
		</linearGradient>
		<linearGradient id="g41" x2="1" gradientUnits="userSpaceOnUse" gradientTransform="matrix(-31.081,171.53,-171.53,-31.081,374.537,685.071)">
			<stop offset="0" stop-color="#4042e2"/>
			<stop offset="1" stop-color="#4f52ff"/>
		</linearGradient>
		<linearGradient id="g42" x2="1" gradientUnits="userSpaceOnUse" gradientTransform="matrix(234.549,0,0,137.544,257.795,1128.055)">
			<stop offset="0" stop-color="#09005d"/>
			<stop offset="1" stop-color="#1a0f91"/>
		</linearGradient>
		<linearGradient id="g43" x2="1" gradientUnits="userSpaceOnUse" gradientTransform="matrix(-280.755,-126.799,126.8,-280.757,413.525,1212.638)">
			<stop offset="0" stop-color="#4042e2"/>
			<stop offset="1" stop-color="#4f52ff"/>
		</linearGradient>
		<linearGradient id="g44" x2="1" gradientUnits="userSpaceOnUse" gradientTransform="matrix(-184.458,8.224,-4.592,-102.992,779.918,997.318)">
			<stop offset="0" stop-color="#53d8ff"/>
			<stop offset="1" stop-color="#3840f7"/>
		</linearGradient>
		<linearGradient id="g45" x2="1" gradientUnits="userSpaceOnUse" gradientTransform="matrix(28.709,0,0,22.261,777.098,1108.397)">
			<stop offset="0" stop-color="#09005d"/>
			<stop offset="1" stop-color="#1a0f91"/>
		</linearGradient>
		<linearGradient id="g46" x2="1" gradientUnits="userSpaceOnUse" gradientTransform="matrix(28.656,0,0,24.794,427.116,866.596)">
			<stop offset="0" stop-color="#09005d"/>
			<stop offset="1" stop-color="#1a0f91"/>
		</linearGradient>
		<linearGradient id="g47" x2="1" gradientUnits="userSpaceOnUse" gradientTransform="matrix(33.333,41.283,-24.457,19.748,750.606,1074.731)">
			<stop offset="0" stop-color="#fe7062"/>
			<stop offset="1" stop-color="#ff928e"/>
		</linearGradient>
		<linearGradient id="g48" x2="1" gradientUnits="userSpaceOnUse" gradientTransform="matrix(256.559,317.749,-109.66,88.543,471.822,819.3)">
			<stop offset="0" stop-color="#fe7062"/>
			<stop offset="1" stop-color="#ff928e"/>
		</linearGradient>
		<linearGradient id="g49" x2="1" gradientUnits="userSpaceOnUse" gradientTransform="matrix(22.304,0,0,28.51,472.435,895.639)">
			<stop offset="0" stop-color="#09005d"/>
			<stop offset="1" stop-color="#1a0f91"/>
		</linearGradient>
		<linearGradient id="g50" x2="1" gradientUnits="userSpaceOnUse" gradientTransform="matrix(89.967,0,0,65.811,491.602,914.902)">
			<stop offset="0" stop-color="#09005d"/>
			<stop offset="1" stop-color="#1a0f91"/>
		</linearGradient>
		<linearGradient id="g51" x2="1" gradientUnits="userSpaceOnUse" gradientTransform="matrix(64.562,0,0,87.564,515.776,1067.915)">
			<stop offset="0" stop-color="#09005d"/>
			<stop offset="1" stop-color="#1a0f91"/>
		</linearGradient>
		<linearGradient id="g52" x2="1" gradientUnits="userSpaceOnUse" gradientTransform="matrix(96.85,0,0,346.629,988.316,944.187)">
			<stop offset="0" stop-color="#09005d"/>
			<stop offset="1" stop-color="#1a0f91"/>
		</linearGradient>
		<linearGradient id="g53" x2="1" gradientUnits="userSpaceOnUse" gradientTransform="matrix(158.125,0,0,427.246,1015.529,970.236)">
			<stop offset="0" stop-color="#09005d"/>
			<stop offset="1" stop-color="#1a0f91"/>
		</linearGradient>
		<linearGradient id="g54" x2="1" gradientUnits="userSpaceOnUse" gradientTransform="matrix(-137.105,1.392,-4.527,-445.912,1181.924,965.237)">
			<stop offset="0" stop-color="#4042e2"/>
			<stop offset="1" stop-color="#4f52ff"/>
		</linearGradient>
		<linearGradient id="g55" x2="1" gradientUnits="userSpaceOnUse" gradientTransform="matrix(31.081,171.53,-171.53,31.081,1038.504,685.071)">
			<stop offset="0" stop-color="#4042e2"/>
			<stop offset="1" stop-color="#4f52ff"/>
		</linearGradient>
		<linearGradient id="g56" x2="1" gradientUnits="userSpaceOnUse" gradientTransform="matrix(280.755,-126.799,126.8,280.757,999.516,1212.638)">
			<stop offset="0" stop-color="#4042e2"/>
			<stop offset="1" stop-color="#4f52ff"/>
		</linearGradient>
		<linearGradient id="g57" x2="1" gradientUnits="userSpaceOnUse" gradientTransform="matrix(394.339,0,0,477.178,733.829,1048.664)">
			<stop offset="0" stop-color="#09005d"/>
			<stop offset="1" stop-color="#1a0f91"/>
		</linearGradient>
		<linearGradient id="g58" x2="1" gradientUnits="userSpaceOnUse" gradientTransform="matrix(22.337,0,0,26.327,943.525,777.741)">
			<stop offset="0" stop-color="#dae3fe"/>
			<stop offset="1" stop-color="#e9effd"/>
		</linearGradient>
		<linearGradient id="g59" x2="1" gradientUnits="userSpaceOnUse" gradientTransform="matrix(10.278,0,0,6.419,928.404,801.09)">
			<stop offset="0" stop-color="#dae3fe"/>
			<stop offset="1" stop-color="#e9effd"/>
		</linearGradient>
		<linearGradient id="g60" x2="1" gradientUnits="userSpaceOnUse" gradientTransform="matrix(26.745,0,0,15.472,902.037,805.548)">
			<stop offset="0" stop-color="#dae3fe"/>
			<stop offset="1" stop-color="#e9effd"/>
		</linearGradient>
		<linearGradient id="g61" x2="1" gradientUnits="userSpaceOnUse" gradientTransform="matrix(30.503,29.293,-29.294,30.503,1715.349,715.204)">
			<stop offset="0" stop-color="#53d8ff"/>
			<stop offset="1" stop-color="#3840f7"/>
		</linearGradient>
		<linearGradient id="g62" x2="1" gradientUnits="userSpaceOnUse" gradientTransform="matrix(30.503,29.293,-29.293,30.502,1715.349,775.312)">
			<stop offset="0" stop-color="#53d8ff"/>
			<stop offset="1" stop-color="#3840f7"/>
		</linearGradient>
		<linearGradient id="g63" x2="1" gradientUnits="userSpaceOnUse" gradientTransform="matrix(30.503,29.293,-29.292,30.502,1715.349,835.419)">
			<stop offset="0" stop-color="#53d8ff"/>
			<stop offset="1" stop-color="#3840f7"/>
		</linearGradient>
		<linearGradient id="g64" x2="1" gradientUnits="userSpaceOnUse" gradientTransform="matrix(278.606,0,0,19.126,1427.815,731.089)">
			<stop offset="0" stop-color="#dae3fe"/>
			<stop offset="1" stop-color="#e9effd"/>
		</linearGradient>
		<linearGradient id="g65" x2="1" gradientUnits="userSpaceOnUse" gradientTransform="matrix(278.606,0,0,19.126,1427.815,790.904)">
			<stop offset="0" stop-color="#dae3fe"/>
			<stop offset="1" stop-color="#e9effd"/>
		</linearGradient>
		<linearGradient id="g66" x2="1" gradientUnits="userSpaceOnUse" gradientTransform="matrix(278.606,0,0,19.126,1427.815,850.718)">
			<stop offset="0" stop-color="#dae3fe"/>
			<stop offset="1" stop-color="#e9effd"/>
		</linearGradient>
		<linearGradient id="g67" x2="1" gradientUnits="userSpaceOnUse" gradientTransform="matrix(74.194,0,0,35.225,2106.31,1494.399)">
			<stop offset="0" stop-color="#09005d"/>
			<stop offset="1" stop-color="#1a0f91"/>
		</linearGradient>
		<linearGradient id="g68" x2="1" gradientUnits="userSpaceOnUse" gradientTransform="matrix(-18.685,0,0,-18.947,2179.01,1476.736)">
			<stop offset="0" stop-color="#ff928e"/>
			<stop offset="1" stop-color="#feb3b1"/>
		</linearGradient>
		<linearGradient id="g69" x2="1" gradientUnits="userSpaceOnUse" gradientTransform="matrix(61.78,0,0,283.335,2161.535,1333.868)">
			<stop offset="0" stop-color="#09005d"/>
			<stop offset="1" stop-color="#1a0f91"/>
		</linearGradient>
		<linearGradient id="g70" x2="1" gradientUnits="userSpaceOnUse" gradientTransform="matrix(29.976,0,0,30.08,2220.257,1498.26)">
			<stop offset="0" stop-color="#09005d"/>
			<stop offset="1" stop-color="#1a0f91"/>
		</linearGradient>
		<linearGradient id="g71" x2="1" gradientUnits="userSpaceOnUse" gradientTransform="matrix(-16.132,0,0,-24.795,2246.348,1475.778)">
			<stop offset="0" stop-color="#ff928e"/>
			<stop offset="1" stop-color="#feb3b1"/>
		</linearGradient>
		<linearGradient id="g72" x2="1" gradientUnits="userSpaceOnUse" gradientTransform="matrix(87.708,0,0,288.567,2176.029,1331.847)">
			<stop offset="0" stop-color="#09005d"/>
			<stop offset="1" stop-color="#1a0f91"/>
		</linearGradient>
		<linearGradient id="g73" x2="1" gradientUnits="userSpaceOnUse" gradientTransform="matrix(-187.333,153.334,-227.691,-278.179,2336.479,976.847)">
			<stop offset="0" stop-color="#09005d"/>
			<stop offset="1" stop-color="#1a0f91"/>
		</linearGradient>
		<linearGradient id="g74" x2="1" gradientUnits="userSpaceOnUse" gradientTransform="matrix(-95.456,0,0,-112.12,2102.123,989.28)">
			<stop offset="0" stop-color="#ff928e"/>
			<stop offset="1" stop-color="#feb3b1"/>
		</linearGradient>
		<linearGradient id="g75" x2="1" gradientUnits="userSpaceOnUse" gradientTransform="matrix(-42,60,-96.108,-67.275,2076.869,803.808)">
			<stop offset="0" stop-color="#ff928e"/>
			<stop offset="1" stop-color="#feb3b1"/>
		</linearGradient>
		<linearGradient id="g76" x2="1" gradientUnits="userSpaceOnUse" gradientTransform="matrix(-53.333,94.667,-91.515,-51.558,2037.077,859.743)">
			<stop offset="0" stop-color="#ff928e"/>
			<stop offset="1" stop-color="#feb3b1"/>
		</linearGradient>
		<linearGradient id="g77" x2="1" gradientUnits="userSpaceOnUse" gradientTransform="matrix(-187.334,153.333,-267.33,-326.608,2354.91,999.366)">
			<stop offset="0" stop-color="#09005d"/>
			<stop offset="1" stop-color="#1a0f91"/>
		</linearGradient>
		<linearGradient id="g78" x2="1" gradientUnits="userSpaceOnUse" gradientTransform="matrix(-120.8,0,0,-61.646,2311,1124.491)">
			<stop offset="0" stop-color="#ff928e"/>
			<stop offset="1" stop-color="#feb3b1"/>
		</linearGradient>
		<linearGradient id="g79" x2="1" gradientUnits="userSpaceOnUse" gradientTransform="matrix(-37.634,0,0,-33.812,2199.169,1111.825)">
			<stop offset="0" stop-color="#ff928e"/>
			<stop offset="1" stop-color="#feb3b1"/>
		</linearGradient>
		<linearGradient id="g80" x2="1" gradientUnits="userSpaceOnUse" gradientTransform="matrix(9.333,110.666,-89.618,7.558,2189.357,933.183)">
			<stop offset="0" stop-color="#ff928e"/>
			<stop offset="1" stop-color="#feb3b1"/>
		</linearGradient>
		<linearGradient id="g81" x2="1" gradientUnits="userSpaceOnUse" gradientTransform="matrix(57.3,52.935,-65.6,71.01,-4785.863,-5478.137)">
			<stop offset="0" stop-color="#ff928e"/>
			<stop offset="1" stop-color="#feb3b1"/>
		</linearGradient>
		<linearGradient id="g82" x2="1" gradientUnits="userSpaceOnUse" gradientTransform="matrix(72.804,0,0,72.216,2159.448,940.043)">
			<stop offset="0" stop-color="#09005d"/>
			<stop offset="1" stop-color="#1a0f91"/>
		</linearGradient>
		<linearGradient id="g83" x2="1" gradientUnits="userSpaceOnUse" gradientTransform="matrix(57.3,52.935,-88.247,95.524,-4780.014,-5484.533)">
			<stop offset="0" stop-color="#ff928e"/>
			<stop offset="1" stop-color="#feb3b1"/>
		</linearGradient>
	</defs>
	<style>
		.s0 { fill: url(#g1) } 
		.s1 { fill: #91b3fa } 
		.s2 { fill: #bdd0fb } 
		.s3 { fill: url(#g2) } 
		.s4 { fill: url(#g3) } 
		.s5 { fill: #7d97f4 } 
		.s6 { fill: url(#g4) } 
		.s7 { fill: url(#g5) } 
		.s8 { fill: url(#g6) } 
		.s9 { fill: url(#g7) } 
		.s10 { fill: url(#g8) } 
		.s11 { fill: url(#g9) } 
		.s12 { fill: url(#g10) } 
		.s13 { fill: url(#g11) } 
		.s14 { fill: url(#g12) } 
		.s15 { fill: url(#g13) } 
		.s16 { fill: url(#g14) } 
		.s17 { fill: url(#g15) } 
		.s18 { fill: url(#g16) } 
		.s19 { fill: url(#g17) } 
		.s20 { fill: url(#g18) } 
		.s21 { fill: url(#g19) } 
		.s22 { fill: url(#g20) } 
		.s23 { fill: url(#g21) } 
		.s24 { fill: url(#g22) } 
		.s25 { fill: url(#g23) } 
		.s26 { fill: url(#g24) } 
		.s27 { fill: url(#g25) } 
		.s28 { fill: url(#g26) } 
		.s29 { fill: url(#g27) } 
		.s30 { fill: url(#g28) } 
		.s31 { fill: url(#g29) } 
		.s32 { fill: url(#g30) } 
		.s33 { fill: url(#g31) } 
		.s34 { fill: url(#g32) } 
		.s35 { fill: url(#g33) } 
		.s36 { fill: url(#g34) } 
		.s37 { fill: url(#g35) } 
		.s38 { fill: url(#g36) } 
		.s39 { fill: url(#g37) } 
		.s40 { fill: url(#g38) } 
		.s41 { fill: url(#g39) } 
		.s42 { fill: url(#g40) } 
		.s43 { fill: url(#g41) } 
		.s44 { fill: url(#g42) } 
		.s45 { fill: url(#g43) } 
		.s46 { fill: url(#g44) } 
		.s47 { fill: url(#g45) } 
		.s48 { fill: url(#g46) } 
		.s49 { fill: url(#g47) } 
		.s50 { fill: url(#g48) } 
		.s51 { fill: url(#g49) } 
		.s52 { fill: url(#g50) } 
		.s53 { fill: url(#g51) } 
		.s54 { fill: url(#g52) } 
		.s55 { fill: url(#g53) } 
		.s56 { fill: url(#g54) } 
		.s57 { fill: url(#g55) } 
		.s58 { fill: url(#g56) } 
		.s59 { fill: url(#g57) } 
		.s60 { fill: url(#g58) } 
		.s61 { fill: url(#g59) } 
		.s62 { fill: url(#g60) } 
		.s63 { fill: #ffffff } 
		.s64 { fill: url(#g61) } 
		.s65 { fill: url(#g62) } 
		.s66 { fill: url(#g63) } 
		.s67 { fill: url(#g64) } 
		.s68 { fill: url(#g65) } 
		.s69 { fill: url(#g66) } 
		.s70 { fill: url(#g67) } 
		.s71 { fill: url(#g68) } 
		.s72 { fill: url(#g69) } 
		.s73 { fill: url(#g70) } 
		.s74 { fill: url(#g71) } 
		.s75 { fill: url(#g72) } 
		.s76 { fill: url(#g73) } 
		.s77 { fill: url(#g74) } 
		.s78 { fill: url(#g75) } 
		.s79 { fill: url(#g76) } 
		.s80 { fill: url(#g77) } 
		.s81 { fill: url(#g78) } 
		.s82 { fill: url(#g79) } 
		.s83 { fill: url(#g80) } 
		.s84 { fill: url(#g81) } 
		.s85 { fill: url(#g82) } 
		.s86 { fill: url(#g83) } 
	</style>
	<g id="Background">
	</g>
	<g id="Illustration">
		<g>
			<path class="s0" d="m2256.3 857.6c-38-40.8-82.9-80.6-94.6-136-20.3-95.9 66.4-177.6 94.8-271.3 19.6-64.7 9.4-138.4-26.8-194.9-36.3-56.5-97.9-94.6-163.1-100.8-112.1-10.7-221.8 67.7-332.2 45-88.4-18.2-158.3-98.4-248-106.9-105.6-10.1-193.3 80.3-294.1 114.3-120.6 40.8-251.4-1.8-370-48.5-118.6-46.7-243.4-98.8-368.4-76.5-139.2 24.9-255.9 150.7-274.5 295.9-18.4 143.9 136.3 259.4 4.6 432.2-41.2 54-68.5 129.2-50.3 195.4 17.6 64.3 92.9 105 93.4 171.9 0.4 52.8-47.6 94.8-51.4 147.4-3.3 45.2 28 87 66.5 108.4 38.5 21.4 83.2 26.7 126.6 31.5 0 0 426.1 30.1 645.7 25.6q519.5-10.8 1039-21.6c35.6-0.7 72.1-1.6 105.3-15 33.1-13.5 62.9-42.2 67.9-78.8 8.6-62.2-54.1-116.2-48.3-178.7 7.4-79.9 115.9-110.7 136.5-188.1 14.6-54.6-20.6-109.7-58.6-150.5z"/>
			<g>
				<path class="s1" d="m2069.4 317.9c31.8 67.5 200.9 467.4-145.9 693.5 0 0-179.1-234.7 135-694.4 2.8-4 8.8-3.5 10.9 0.9z"/>
				<path class="s2" d="m2055.3 391.3c1.9 47.7 2.3 95.3 1.8 143-0.6 47.6-2.2 95.3-5.3 142.8-3.1 47.6-7.6 95.1-14.7 142.3-3.5 23.7-7.8 47.2-13 70.5-5.3 23.3-11.5 46.5-19.6 69.1-0.7 2.1-3 3.2-5.1 2.5-2.1-0.8-3.2-3-2.4-5.1v-0.1c8.1-22.2 14.4-45 19.8-68.1 5.4-23 9.9-46.4 13.5-69.8 7.5-46.9 12.3-94.2 15.8-141.7 3.5-47.4 5.5-94.9 6.4-142.5 0.9-47.6 0.9-95.2-0.6-142.7 0-1 0.7-1.8 1.7-1.8 0.9 0 1.7 0.7 1.7 1.6z"/>
			</g>
			<g>
				<path class="s2" d="m1942.2 1142.6c0 0-36.1-112.5 42.8-209.2 73.2-89.8 258.5-295.3 274.1-421.8 0.7-5.6 10.5-2.5 12.8 4.1 24.9 70.6 72.7 245.3 6.2 402.3-85.6 202.3-335.9 224.6-335.9 224.6z"/>
				<path class="s3" d="m2259.5 631.3c2.8 12.2 4 24.7 4.5 37.2 0.5 12.5 0.3 25.1-0.8 37.6-1.2 12.4-3 24.9-5.6 37.2-2.6 12.3-6.1 24.4-10.1 36.3-1.9 6-4.3 11.8-6.6 17.7-2.5 5.7-4.9 11.6-7.7 17.2-2.6 5.7-5.7 11.2-8.6 16.8-1.5 2.8-3.1 5.5-4.7 8.2l-2.4 4.1-2.5 4-5.1 7.9-5.3 7.8c-3.5 5.2-7.5 10.1-11.2 15.2-3.9 4.9-8 9.8-12 14.5-4.2 4.7-8.2 9.5-12.4 14.1-16.6 18.7-33.6 37-51.2 54.7q-13.2 13.3-26.6 26.4c-9 8.7-18 17.2-27.1 25.8-18 17.2-36.2 34.2-53.4 52.1-8.6 8.9-16.8 18.2-24.1 28.1-3.7 5-7.1 10.1-10.2 15.5-3 5.4-5.7 10.9-7.8 16.7-0.2 0.5-0.8 0.8-1.3 0.6-0.5-0.2-0.8-0.7-0.6-1.2 1.9-6 4.4-11.9 7.2-17.5 2.9-5.6 6.2-10.9 9.8-16.1 7.1-10.4 15.2-20.1 23.5-29.4 8.3-9.3 17.1-18.2 25.9-27.1 8.8-8.8 17.7-17.5 26.6-26.3 8.9-8.7 17.7-17.5 26.5-26.3q13.3-13.1 26.3-26.5c17.3-17.9 34.2-36 50.7-54.6 4.2-4.6 8.2-9.3 12.3-14 2-2.4 4-4.8 5.9-7.1 2-2.4 4-4.7 5.9-7.2 3.7-4.9 7.6-9.7 11.1-14.8l5.3-7.5 5-7.8 2.5-3.9 2.4-4 4.7-7.9c2.9-5.4 6-10.8 8.7-16.3 2.8-5.5 5.2-11.2 7.8-16.8 2.3-5.7 4.7-11.4 6.8-17.2 8.6-23.1 14.5-47.3 17.6-71.9 1.6-12.2 2.5-24.6 2.5-37 0.1-6.3-0.1-12.5-0.5-18.7-0.4-6.2-0.9-12.4-1.9-18.5q-0.1-0.1 0-0.1 0.2-0.1 0.2 0z"/>
			</g>
			<g>
				<path class="s4" d="m2269.6 950.4l24.7 1.2c12.1 0.6 21.7 10.7 21.7 22.9l-1.8 506.6c-0.1 13.3-10.9 24-24.3 23.9l-169.2-1.6z"/>
				<path class="s5" d="m1974.2 954.3l312.1-18.7c6.4-0.4 11.9 4.8 11.7 11.2l-12.2 524.5c-0.3 12.9-11 23.1-23.8 22.7l-219.6-6.3z"/>
				<path class="s2" d="m1991 966.8l274.3-38.3c7-1 13.3 4.6 13.2 11.7l-6.3 529.6c-0.1 8.5-6.9 15.5-15.4 15.9l-202 8.2z"/>
				<path class="s6" d="m1918.5 937.4l300.9-22.2c15-1.2 27.8 10.6 28 25.7l7.2 542.3c0.1 12.5-9.9 22.9-22.5 23l-277.7 3.2c-13.1 0.2-24-9.9-24.8-23l-39-516.9c-1.1-16.6 11.3-30.9 27.9-32.1z"/>
				<path class="s7" d="m2263.8 1159l-27.8 0.3c-5.2 0.1-9.5-4.1-9.6-9.4l-1.9-166.1c-0.1-5.2 4.1-9.6 9.4-9.6l27.7-0.3c5.3-0.1 9.6 4.1 9.7 9.4l1.9 166.1c0.1 5.2-4.1 9.5-9.4 9.6z"/>
			</g>
			<g>
				<path class="s8" d="m2056.9 950.4l24.6 1.2c12.2 0.6 21.8 10.7 21.7 22.9l-1.8 506.6c0 13.3-10.9 24-24.2 23.9l-169.2-1.6z"/>
				<path class="s5" d="m1761.5 954.3l312.1-18.7c6.4-0.4 11.8 4.8 11.7 11.2l-12.2 524.5c-0.3 12.9-11 23.1-23.9 22.7l-219.6-6.3z"/>
				<path class="s2" d="m1778.3 966.8l274.2-38.3c7.1-1 13.4 4.6 13.3 11.7l-6.3 529.6c-0.1 8.5-6.9 15.5-15.4 15.9l-202 8.2z"/>
				<path class="s9" d="m1705.7 937.4l300.9-22.2c15-1.2 27.9 10.6 28 25.7l7.3 542.3c0.1 12.5-10 22.9-22.6 23l-277.6 3.2c-13.1 0.2-24-9.9-24.9-23l-38.9-516.9c-1.1-16.6 11.3-30.9 27.8-32.1z"/>
				<path class="s10" d="m2051.1 1159l-27.8 0.3c-5.3 0.1-9.6-4.1-9.6-9.4l-2-166.1c0-5.2 4.2-9.6 9.4-9.6l27.8-0.3c5.3-0.1 9.6 4.1 9.6 9.4l2 166.1c0 5.2-4.2 9.5-9.4 9.6z"/>
			</g>
			<g>
				<path class="s11" d="m1905.5 693.4l24.7 1.2c12.2 0.6 21.7 10.7 21.7 22.9l-1.8 506.6c-0.1 13.3-10.9 24-24.2 23.9l-169.2-1.6z"/>
				<path class="s5" d="m1610.1 697.3l312.1-18.8c6.5-0.3 11.9 4.9 11.8 11.3l-12.3 524.5c-0.3 12.9-11 23.1-23.8 22.7l-219.6-6.3z"/>
				<path class="s2" d="m1626.9 709.8l274.3-38.3c7-1 13.3 4.5 13.2 11.7l-6.3 529.6c0 8.5-6.8 15.5-15.4 15.9l-202 8.2z"/>
				<path class="s12" d="m1554.4 680.4l300.9-22.3c15-1.1 27.8 10.7 28 25.7l7.2 542.3c0.2 12.6-9.9 22.9-22.5 23.1l-277.6 3.2c-13.1 0.2-24.1-9.9-24.9-23l-39-516.9c-1.1-16.6 11.4-30.9 27.9-32.1z"/>
				<path class="s13" d="m1899.7 902l-27.8 0.3c-5.2 0.1-9.5-4.1-9.6-9.4l-1.9-166.1c-0.1-5.3 4.1-9.6 9.4-9.6l27.8-0.4c5.2 0 9.5 4.2 9.6 9.5l1.9 166.1c0.1 5.2-4.1 9.5-9.4 9.6z"/>
			</g>
			<g>
				<path class="s1" d="m1290.2 338.6c-30 92.1-182.5 635.4 301.6 870.2 0 0 192.5-331.9-287.7-873.2-4.2-4.7-11.9-3.1-13.9 3z"/>
				<path class="s2" d="m1324.3 430.7c1.5 32.8 4.5 65.7 8.1 98.4 3.6 32.8 8 65.4 13.3 98 5.2 32.5 11.3 64.9 18.3 97.1 7 32.1 14.7 64.2 23.8 95.8 17.8 63.4 39.9 125.6 68 185l2.6 5.6c0.9 1.9 1.9 3.7 2.8 5.5l5.6 11 5.6 11c1.8 3.7 3.9 7.2 5.9 10.8 4 7.1 7.9 14.4 12.1 21.4l12.9 21c17.8 27.5 37.4 53.9 59.2 78.3v0.1c1.5 1.6 1.4 4.2-0.3 5.6-1.6 1.5-4.2 1.4-5.6-0.3h-0.1c-22-24.9-41.7-51.8-59.5-79.7l-12.9-21.3c-4.2-7.1-8.1-14.4-12.1-21.7-2-3.6-4.1-7.2-5.9-10.9l-5.6-11.1-5.5-11.1c-0.9-1.9-1.9-3.7-2.8-5.6l-2.6-5.6c-28-60-49.8-122.7-67.3-186.4-8.9-31.9-16.5-64-23.3-96.4q-10.2-48.5-17.8-97.4c-5.1-32.6-9.4-65.4-12.8-98.2-3.4-32.9-6.2-65.8-7.5-98.8 0-1 0.7-1.7 1.6-1.8 1 0 1.8 0.7 1.8 1.6z"/>
			</g>
			<g>
				<path class="s2" d="m494.4 1245.8c56.3-9.4 385.8-51 482.8 253.8 0 0-209.4 83.7-485.6-245.8-2.4-2.9-0.8-7.3 2.8-8z"/>
				<path class="s14" d="m545.8 1271.3c37.2 7.4 73.8 17.1 110 28 36.2 10.9 71.9 23.5 106.9 38 35 14.5 69.2 30.9 101.9 50.3 16.3 9.7 32.3 20 47.5 31.4 15.3 11.4 29.9 23.7 43.5 37.1 1.6 1.6 1.6 4.1 0.1 5.7-1.6 1.6-4.1 1.6-5.7 0h-0.1c-13.2-13.2-27.4-25.4-42.2-36.8-14.9-11.4-30.6-21.7-46.6-31.5-32.1-19.5-66-36.2-100.6-51-34.6-14.7-70.1-27.6-106.1-38.9-35.9-11.2-72.4-21.2-109.2-29-1-0.2-1.5-1.1-1.4-2 0.2-0.9 1.1-1.5 2-1.3z"/>
			</g>
			<g>
				<path class="s15" d="m1554.6 484.2l-396.9 144.5c-16.6 6-24.6 25-17.3 41.1l1.2 2.6c6.5 14.3 23.4 20.6 37.6 14l385.4-178.3z"/>
				<g style="opacity: .43">
					<path fill-rule="evenodd" class="s5" d="m1737 589.7c-108.3 0-195.9-86-195.9-192.4 0-106.4 87.6-192.4 195.9-192.4 108.3 0 195.9 86 195.9 192.4 0 106.4-87.6 192.4-195.9 192.4z"/>
				</g>
				<path class="s16" d="m1737 183.3c-120.4 0-218 95.8-218 214 0 118.2 97.6 214.1 218 214.1 120.4 0 218-95.9 218-214.1 0-118.2-97.6-214-218-214zm0 396.6c-102.7 0-186-81.7-186-182.6 0-100.8 83.3-182.6 186-182.6 102.7 0 186 81.8 186 182.6 0 100.9-83.3 182.6-186 182.6z"/>
				<g>
					<path class="s5" d="m1535.6 423.4c-0.5 0-1-0.4-1-0.9-0.7-5-1.1-10.2-1.4-15.3 0-0.6 0.4-1 1-1.1 0.5 0 1 0.4 1 1 0.3 5.1 0.7 10.2 1.4 15.1 0 0.6-0.4 1.1-0.9 1.2q-0.1 0-0.1 0zm1.5-59.9q-0.1 0-0.2 0c-0.6-0.1-0.9-0.6-0.8-1.2 2.4-13.7 6.4-27.2 11.7-40.1 31.4-76.1 105.6-125.2 189.2-125.2 39 0 76.8 10.8 109.5 31.3 0.5 0.3 0.7 0.9 0.4 1.4-0.3 0.4-1 0.6-1.4 0.3-32.4-20.3-69.9-31-108.5-31-82.8 0-156.3 48.6-187.3 123.9-5.3 12.8-9.2 26.2-11.7 39.8 0 0.5-0.5 0.8-0.9 0.8z"/>
				</g>
				<path class="s5" d="m1165.5 680.4q-0.1 0-0.3-0.1c-12.2-4.2-18.7-11.2-19.1-20.8-0.4-9.7 5.7-18.6 15.1-22.3l47.7-18.6c0.5-0.2 1.1 0 1.3 0.6 0.2 0.5-0.1 1.1-0.6 1.3l-47.7 18.5c-8.6 3.4-14.2 11.6-13.8 20.4 0.4 8.7 6.4 15.1 17.8 19 0.5 0.2 0.8 0.8 0.6 1.3-0.2 0.4-0.6 0.7-1 0.7z"/>
				<path class="s5" d="m1223.9 614.8c-0.4 0-0.8-0.2-0.9-0.6-0.2-0.6 0-1.1 0.5-1.3l6.2-2.4c0.5-0.3 1.1 0 1.3 0.5 0.2 0.5 0 1.1-0.5 1.3l-6.2 2.4q-0.2 0.1-0.4 0.1z"/>
			</g>
			<g>
				<path class="s17" d="m1692.8 950.4l24.7 1.2c12.1 0.6 21.7 10.7 21.7 22.9l-1.8 506.6c-0.1 13.3-11 24-24.3 23.9l-169.2-1.6z"/>
				<path class="s5" d="m1397.4 954.3l312.1-18.7c6.4-0.4 11.9 4.8 11.7 11.2l-12.2 524.5c-0.3 12.9-11 23.1-23.8 22.7l-219.6-6.3z"/>
				<path class="s2" d="m1414.2 966.8l274.3-38.3c7-1 13.3 4.6 13.2 11.7l-6.3 529.6c-0.1 8.5-6.9 15.5-15.4 15.9l-202 8.2z"/>
				<path class="s18" d="m1342.1 934.2l300.9-22.3c15-1.1 27.8 10.7 28 25.7l7.2 542.4c0.2 12.5-9.9 22.9-22.5 23l-277.6 3.2c-13.1 0.2-24.1-9.9-24.9-23l-39-516.9c-1.1-16.6 11.4-30.9 27.9-32.1z"/>
				<path class="s19" d="m1687 1159l-27.8 0.3c-5.2 0.1-9.5-4.1-9.6-9.4l-1.9-166.1c-0.1-5.2 4.1-9.6 9.4-9.6l27.7-0.3c5.3-0.1 9.6 4.1 9.7 9.4l1.9 166.1c0.1 5.2-4.2 9.5-9.4 9.6z"/>
			</g>
			<g>
				<path class="s20" d="m1480.1 950.4l24.6 1.2c12.2 0.6 21.8 10.7 21.7 22.9l-1.8 506.6c0 13.3-10.9 24-24.2 23.9l-169.2-1.6z"/>
				<path class="s5" d="m1184.7 954.3l312.1-18.7c6.4-0.4 11.8 4.8 11.7 11.2l-12.3 524.5c-0.2 12.9-10.9 23.1-23.8 22.7l-219.6-6.3z"/>
				<path class="s2" d="m1201.5 966.8l274.2-38.3c7.1-1 13.4 4.6 13.3 11.7l-6.3 529.6c-0.1 8.5-6.9 15.5-15.4 15.9l-202 8.2z"/>
				<path class="s21" d="m1128.9 937.4l300.9-22.2c15-1.2 27.9 10.6 28 25.7l7.3 542.3c0.1 12.5-10 22.9-22.6 23l-277.6 3.2c-13.1 0.2-24-9.9-24.9-23l-39-516.9c-1-16.6 11.4-30.9 27.9-32.1z"/>
				<path class="s22" d="m1474.3 1159l-27.8 0.3c-5.3 0.1-9.6-4.1-9.6-9.4l-2-166.1c0-5.2 4.2-9.6 9.4-9.6l27.8-0.3c5.3-0.1 9.6 4.1 9.6 9.4l2 166.1c0 5.2-4.2 9.5-9.4 9.6z"/>
			</g>
			<g>
				<path class="s23" d="m1267.4 950.4l24.6 1.2c12.2 0.6 21.7 10.7 21.7 22.9l-1.8 506.6c0 13.3-10.9 24-24.2 23.9l-169.2-1.6z"/>
				<path class="s5" d="m971.9 954.3l312.1-18.7c6.5-0.4 11.9 4.8 11.8 11.2l-12.3 524.5c-0.2 12.9-10.9 23.1-23.8 22.7l-219.6-6.3z"/>
				<path class="s2" d="m988.8 966.8l274.2-38.3c7.1-1 13.3 4.6 13.3 11.7l-6.3 529.6c-0.1 8.5-6.9 15.5-15.5 15.9l-202 8.2z"/>
				<path class="s24" d="m916.2 937.4l300.9-22.2c15-1.2 27.8 10.6 28 25.7l7.2 542.3c0.2 12.5-9.9 22.9-22.5 23l-277.6 3.2c-13.1 0.2-24-9.9-24.9-23l-39-516.9c-1.1-16.6 11.4-30.9 27.9-32.1z"/>
				<path class="s25" d="m1261.5 1159l-27.7 0.3c-5.3 0.1-9.6-4.1-9.7-9.4l-1.9-166.1c-0.1-5.2 4.2-9.6 9.4-9.6l27.8-0.3c5.2-0.1 9.6 4.1 9.6 9.4l1.9 166.1c0.1 5.2-4.1 9.5-9.4 9.6z"/>
			</g>
			<g>
				<g>
					<path class="s26" d="m961.5 695l-515.1-3.4c-22.9-0.1-41.6-19-41.4-41.9 0.1-23 19-41.6 42-41.4l515.1 3.3c22.9 0.1 41.5 19 41.4 42-0.2 22.9-19 41.5-42 41.4z"/>
					<path class="s27" d="m913.4 235.1l-407.3-2.6c-96.9-0.7-176.7 78.1-177.4 175l-1 161.4c-0.2 36.5 29.4 66.6 78 62.1l626.9 4.1c24.5 4.9 54.6-24.8 54.8-61.3l1-161.3c0.7-97-78.1-176.8-175-177.4z"/>
					<path class="s28" d="m993.4 661.8l-572.8-3.7c-51.4-0.3-93.8 41.5-94.1 92.9l-0.5 75.1c-1.3 209 167.3 570 376.2 571.3 208.9 1.4 382.2-357.4 383.5-566.3l0.5-75.2c0.4-51.4-41.4-93.7-92.8-94.1z"/>
					<g>
						<path class="s29" d="m982.9 466.7c-0.2 28.2-21.8 51.7-49.9 54.1-152 13.4-309.6 12.8-471.7-3.2-28.1-2.7-49.5-26.5-49.4-54.8l0.2-29.6c0.2-28.1 21.7-51.6 49.6-54.2 157.8-14.6 315.5-16.4 473.3 2.3 27.6 3.3 48.2 26.9 48.1 54.7z"/>
						<g>
							<path class="s30" d="m578.1 449.2c-0.1 19.2-15.7 34.6-34.9 34.5-19.2-0.1-34.6-15.8-34.5-34.9 0.2-19.2 15.8-34.6 35-34.5 19.1 0.1 34.5 15.8 34.4 34.9z"/>
							<path class="s31" d="m886.2 451.2c-0.1 19.2-15.7 34.6-34.9 34.5-19.1-0.1-34.5-15.8-34.4-34.9 0.1-19.2 15.7-34.6 34.9-34.5 19.1 0.1 34.6 15.8 34.4 34.9z"/>
						</g>
						<path class="s32" d="m544.2 497.2c-0.1-1.1 0.8-2.1 1.9-2.1 1.1-0.1 2.1 0.8 2.1 1.9 0.1 1.1-0.8 2.1-1.9 2.1q-0.1 0-0.1 0c-1.1 0-2-0.8-2-1.9zm-10.5 1.1c-1.1-0.2-1.8-1.3-1.6-2.4 0.3-1.1 1.3-1.8 2.4-1.6 1.2 0.2 1.8 1.3 1.7 2.4-0.2 1-1.1 1.7-2.1 1.7-0.1 0-0.2-0.1-0.4-0.1zm22.4-2.8c-0.3-1 0.2-2.2 1.4-2.5 1-0.4 2.2 0.2 2.5 1.3 0.4 1.1-0.2 2.2-1.3 2.6-0.2 0.1-0.5 0.1-0.6 0.1-0.9-0.1-1.7-0.6-2-1.5zm-34.3-1.2c-1-0.4-1.4-1.7-1-2.7 0.5-1 1.7-1.4 2.8-0.9 1 0.4 1.4 1.7 0.9 2.7-0.3 0.7-1.1 1.1-1.9 1.1-0.2 0-0.5 0-0.8-0.2zm45.5-3.4c-0.6-0.9-0.3-2.2 0.6-2.8 1-0.6 2.2-0.3 2.8 0.6 0.6 1 0.4 2.3-0.6 2.9-0.3 0.2-0.7 0.3-1.1 0.3-0.7 0-1.3-0.4-1.7-1zm-56.1-3.4c-0.8-0.7-1-2-0.2-2.9 0.7-0.8 2-0.9 2.9-0.2 0.8 0.7 0.9 2 0.2 2.9-0.4 0.5-1 0.7-1.6 0.7-0.4 0-0.9-0.1-1.3-0.5zm65.7-3.8c-0.8-0.8-0.8-2.1 0-2.9 0.8-0.8 2.1-0.9 2.9-0.1 0.8 0.8 0.8 2.1 0 2.9-0.4 0.4-0.9 0.6-1.5 0.6q-0.7 0-1.4-0.5zm-74.3-5.4c-0.6-0.9-0.4-2.2 0.5-2.8 0.9-0.7 2.2-0.5 2.9 0.4 0.6 1 0.4 2.2-0.5 2.9-0.4 0.2-0.8 0.4-1.2 0.4-0.6 0-1.3-0.3-1.7-0.9zm81.9-4c-1-0.6-1.3-1.8-0.8-2.8 0.6-1 1.8-1.3 2.8-0.8 1 0.5 1.4 1.8 0.8 2.8-0.4 0.7-1.1 1-1.8 1-0.3 0-0.7-0.1-1-0.2zm-87.9-7c-0.4-1.1 0.1-2.3 1.2-2.7 1-0.4 2.2 0.1 2.6 1.2 0.4 1-0.1 2.2-1.1 2.6-0.3 0.1-0.5 0.2-0.8 0.2-0.8 0-1.6-0.5-1.9-1.3zm92.9-4.1c-1.1-0.2-1.8-1.3-1.4-2.4 0.3-1.1 1.4-1.8 2.4-1.5 1.2 0.3 1.8 1.4 1.5 2.5q0 0 0 0c-0.2 0.9-1.1 1.5-2 1.5-0.1 0-0.3 0-0.5-0.1zm-96-8.1c-0.1-1.1 0.7-2.2 1.8-2.3 1.2-0.2 2.2 0.7 2.3 1.8 0.2 1.1-0.7 2.1-1.8 2.3 0 0-0.2 0-0.2 0-1-0.1-1.9-0.8-2.1-1.8zm96.1-5.8c0 0 0 0 0-0.1q0 0 0-0.1c0-1.1 0.9-2 2-2 1.1 0 2.1 0.9 2 2q0 0.1 0 0.1 0 0.1 0 0.1c0 1.2-0.9 2.1-2 2.1-1.1 0-2-1-2-2.1zm0-0.2c0 0 0 0 0 0zm-94.2-4.3c-1.2-0.2-1.9-1.2-1.8-2.3 0.1-1.1 1.2-1.9 2.3-1.8 1.1 0.2 1.9 1.2 1.8 2.3-0.2 1-1 1.8-2.1 1.8-0.1 0-0.1 0-0.2 0zm92.8-7.2c-0.3-1 0.3-2.2 1.4-2.4 1.1-0.3 2.2 0.3 2.5 1.4 0.3 1.1-0.3 2.2-1.5 2.5-0.1 0.1-0.3 0.1-0.5 0.1-0.9 0-1.7-0.6-1.9-1.6zm-90.3-4.6c-1-0.4-1.5-1.6-1.1-2.7 0.4-1 1.6-1.6 2.7-1.1 1 0.4 1.5 1.6 1.1 2.6-0.3 0.8-1.1 1.3-1.9 1.3-0.3 0-0.5-0.1-0.8-0.1zm86-6.1c-0.5-1-0.1-2.3 0.8-2.8 1-0.5 2.3-0.2 2.8 0.8 0.6 1 0.2 2.2-0.8 2.8q-0.5 0.3-1 0.2c-0.7 0-1.4-0.3-1.8-1zm-80.5-4.7c-1-0.7-1.2-2-0.5-2.9 0.7-0.9 2-1.1 2.9-0.4 0.9 0.6 1.1 1.9 0.4 2.8-0.4 0.6-1 0.9-1.7 0.9-0.4 0-0.8-0.2-1.1-0.4zm73.7-4.7c-0.7-0.8-0.7-2.1 0.1-2.9 0.9-0.8 2.2-0.7 3 0.1 0.7 0.8 0.7 2.1-0.1 2.9-0.4 0.4-1 0.6-1.4 0.5-0.6 0-1.2-0.1-1.6-0.6zm-65.8-4.5c-0.7-0.8-0.6-2.1 0.3-2.8 0.8-0.7 2.1-0.6 2.8 0.2 0.7 0.9 0.6 2.2-0.2 2.9q-0.6 0.5-1.4 0.5c-0.5 0-1.1-0.3-1.5-0.8zm57-2.9c-1-0.6-1.3-1.9-0.7-2.8 0.6-1 1.9-1.3 2.9-0.7 0.9 0.7 1.2 1.9 0.6 2.9-0.4 0.6-1.1 0.9-1.7 0.9-0.4 0-0.8-0.1-1.1-0.3zm-47.1-3.9c-0.5-1.1 0-2.3 1-2.8 1-0.4 2.3 0 2.7 1.1 0.5 1 0.1 2.2-1 2.7q-0.4 0.2-0.8 0.2c-0.8 0-1.6-0.5-1.9-1.2zm36.6-1c-1-0.4-1.6-1.6-1.3-2.6 0.4-1.1 1.5-1.7 2.6-1.3q0 0 0 0c1.1 0.3 1.7 1.5 1.3 2.5-0.3 0.9-1.1 1.5-1.9 1.5q-0.4 0-0.7-0.1zm-25.3-3.2c-0.2-1.1 0.6-2.2 1.7-2.4 1.1-0.2 2.2 0.5 2.4 1.6 0.2 1.1-0.5 2.2-1.7 2.4-0.1 0.1-0.2 0.1-0.4 0.1-0.9 0-1.8-0.7-2-1.7zm14 1c-1.1-0.1-2-1.1-1.9-2.2 0-1.1 1-2 2.2-1.9 1.1 0 1.9 1 1.9 2.2-0.1 1-1 1.9-2.1 1.9q-0.1 0-0.1 0z"/>
						<path class="s33" d="m852.1 499.2c0-1.1 0.8-2.1 1.9-2.1 1.2-0.1 2.1 0.7 2.2 1.9 0.1 1.1-0.8 2.1-1.9 2.1q-0.1 0-0.1 0c-1.1 0-2-0.8-2.1-1.9zm-10.4 1.1c-1.1-0.2-1.8-1.3-1.6-2.4 0.2-1.1 1.3-1.9 2.4-1.6 1.1 0.2 1.8 1.2 1.6 2.4-0.2 1-1 1.7-2 1.7-0.1 0-0.2-0.1-0.4-0.1zm22.4-2.8c-0.4-1 0.2-2.2 1.3-2.5 1.1-0.4 2.2 0.2 2.6 1.3 0.3 1.1-0.3 2.2-1.3 2.6-0.3 0.1-0.5 0.1-0.7 0-0.9 0-1.6-0.5-1.9-1.4zm-34.3-1.2c-1.1-0.4-1.5-1.7-1-2.7 0.5-1 1.7-1.4 2.7-1 1.1 0.5 1.5 1.8 1 2.8-0.4 0.7-1.1 1.1-1.9 1.1-0.2 0-0.5 0-0.8-0.2zm45.5-3.4c-0.7-0.9-0.4-2.2 0.6-2.8 0.9-0.6 2.2-0.3 2.8 0.6 0.6 1 0.3 2.3-0.6 2.9-0.4 0.2-0.8 0.3-1.1 0.3-0.7 0-1.4-0.4-1.7-1zm-56.1-3.4c-0.9-0.7-1-2-0.3-2.9 0.7-0.8 2-0.9 2.9-0.2 0.9 0.7 1 2 0.3 2.9-0.4 0.5-1 0.7-1.6 0.7-0.5 0-1-0.1-1.3-0.5zm65.7-3.8c-0.8-0.8-0.8-2.1 0-2.9 0.7-0.8 2-0.9 2.8-0.1 0.9 0.8 0.9 2.1 0.1 2.9-0.4 0.4-0.9 0.6-1.5 0.6q-0.8 0-1.4-0.5zm-74.3-5.4c-0.7-0.9-0.4-2.2 0.5-2.8 0.9-0.7 2.2-0.5 2.8 0.4 0.7 1 0.5 2.2-0.5 2.9-0.3 0.2-0.7 0.4-1.1 0.4-0.7 0-1.3-0.3-1.7-0.9zm81.9-4c-1-0.6-1.3-1.8-0.8-2.8 0.6-1 1.8-1.4 2.8-0.8 1 0.5 1.3 1.8 0.8 2.8-0.4 0.7-1.1 1-1.8 1-0.3 0-0.7-0.1-1-0.2zm-87.9-7c-0.4-1.1 0.1-2.3 1.2-2.7 1-0.4 2.2 0.1 2.6 1.2 0.4 1-0.1 2.2-1.1 2.6-0.3 0.1-0.6 0.2-0.8 0.2-0.8 0-1.6-0.5-1.9-1.3zm92.9-4.1c-1.1-0.2-1.8-1.3-1.5-2.4 0.3-1.1 1.4-1.8 2.5-1.5 1.1 0.3 1.8 1.4 1.5 2.5q0 0 0 0c-0.2 0.9-1.1 1.5-2 1.5-0.2 0-0.4 0-0.5-0.1zm-96-8.1c-0.1-1.2 0.7-2.2 1.8-2.3 1.1-0.2 2.2 0.7 2.3 1.8 0.1 1.1-0.7 2.1-1.8 2.3-0.1 0-0.2 0-0.3 0-1-0.1-1.8-0.8-2-1.8zm96-5.8c0 0 0 0 0-0.1q0 0 0-0.1c0.1-1.1 0.9-2 2.1-2 1.1 0 2 0.9 2 2q0 0.1 0 0.1 0 0.1 0 0.1c0 1.1-0.9 2.1-2 2.1-1.1 0-2.1-1-2.1-2.1zm0-0.2c0 0 0 0 0 0zm-94.1-4.3c-1.2-0.2-2-1.2-1.8-2.3 0.1-1.1 1.2-1.9 2.3-1.8 1.1 0.2 1.9 1.2 1.7 2.3-0.1 1-1 1.8-2 1.8-0.1 0-0.2 0-0.2 0zm92.7-7.2c-0.3-1 0.4-2.2 1.5-2.4 1.1-0.3 2.2 0.3 2.5 1.4 0.3 1.1-0.4 2.2-1.5 2.5-0.2 0.1-0.3 0.1-0.5 0.1-0.9 0-1.7-0.6-2-1.6zm-90.2-4.6c-1-0.5-1.6-1.6-1.1-2.7 0.4-1 1.6-1.6 2.6-1.1 1.1 0.4 1.6 1.6 1.2 2.6-0.4 0.8-1.2 1.3-2 1.3-0.2 0-0.5-0.1-0.7-0.1zm86-6.1c-0.5-1-0.2-2.3 0.8-2.8 1-0.5 2.2-0.2 2.8 0.8 0.5 1 0.2 2.2-0.8 2.8q-0.5 0.3-1 0.2c-0.7 0-1.4-0.3-1.8-1zm-80.6-4.7c-0.9-0.7-1.1-2-0.4-2.9 0.6-0.9 1.9-1.1 2.8-0.4 0.9 0.6 1.2 1.9 0.5 2.8-0.4 0.6-1.1 0.9-1.7 0.9-0.4 0-0.8-0.2-1.2-0.4zm73.8-4.7c-0.8-0.8-0.7-2.1 0.1-2.9 0.9-0.8 2.2-0.7 2.9 0.1 0.8 0.8 0.8 2.1-0.1 2.9-0.4 0.4-0.9 0.5-1.4 0.5-0.5 0-1.1-0.1-1.5-0.6zm-65.9-4.5c-0.6-0.8-0.5-2.1 0.3-2.9 0.9-0.6 2.2-0.5 2.9 0.3 0.7 0.9 0.6 2.2-0.3 2.9q-0.6 0.5-1.3 0.5c-0.6 0-1.1-0.3-1.6-0.8zm57-2.9c-0.9-0.6-1.2-1.9-0.6-2.8 0.6-1 1.9-1.3 2.8-0.7 1 0.7 1.3 1.9 0.7 2.9-0.4 0.6-1.1 0.9-1.8 0.9-0.3 0-0.7-0.1-1.1-0.3zm-47-3.9c-0.5-1.1 0-2.3 1-2.8 1-0.4 2.2 0 2.7 1.1 0.5 1 0 2.2-1 2.7q-0.4 0.2-0.9 0.2c-0.7 0-1.5-0.5-1.8-1.2zm36.6-1.1c-1.1-0.3-1.6-1.5-1.3-2.6 0.3-1 1.5-1.6 2.6-1.2q0 0 0 0c1.1 0.3 1.7 1.5 1.3 2.5-0.3 0.9-1.1 1.5-2 1.5q-0.3 0-0.6-0.2zm-25.3-3.1c-0.2-1.1 0.6-2.2 1.7-2.4 1.1-0.2 2.1 0.5 2.4 1.6 0.1 1.1-0.6 2.2-1.7 2.4-0.1 0.1-0.2 0.1-0.4 0.1-0.9 0-1.8-0.7-2-1.7zm13.9 1c-1.1-0.1-1.9-1.1-1.9-2.2 0.1-1.1 1.1-2 2.2-1.9 1.1 0 2 1 1.9 2.2 0 1-1 1.9-2 1.9q-0.1 0-0.2 0z"/>
					</g>
					<path class="s34" d="m383.1 150.9c-0.1 10.6-8.8 19.1-19.4 19.1-10.6-0.1-19.2-8.8-19.1-19.4 0-10.6 8.7-19.2 19.3-19.1 10.7 0.1 19.2 8.7 19.2 19.4z"/>
					<path class="s35" d="m362.8 309.8c0 0 45.9 6.1 71.4-53.7l-12-25.3c-4.1-8.6-14.5-12.1-23-7.9l-26.5 13c-5.8 2.8-9.5 8.7-9.5 15.2z"/>
					<path class="s36" d="m367.6 159.7c-0.5-1.2-2.3-0.7-2.1 0.6l15.3 84.5c0.4 2 1.7 3.6 3.5 4.3 1.8 0.8 3.8 0.6 5.5-0.4l4.9-3.3c4.1-2.7 5.6-7.9 3.7-12.4z"/>
					<path class="s37" d="m1037.4 155.1c-0.1 10.6 8.5 19.3 19.1 19.4 10.6 0 19.3-8.5 19.4-19.1 0-10.7-8.5-19.3-19.1-19.4-10.7-0.1-19.3 8.5-19.4 19.1z"/>
					<path class="s38" d="m1055.6 314.3c0 0-46 5.5-70.7-54.6l12.3-25.1c4.3-8.6 14.6-12 23.1-7.7l26.3 13.3c5.8 3 9.4 8.9 9.4 15.4z"/>
					<path class="s39" d="m1054.8 164.7l-16.3 84c-0.4 2-1.8 3.7-3.7 4.5-1.8 0.8-4 0.5-5.7-0.6l-4.5-3.1c-4.1-2.7-5.6-8-3.7-12.4l31.9-73c0.5-1.2 2.2-0.6 2 0.6z"/>
					<path class="s5" d="m494 330.7c-10.5-0.1-19.3-8.1-20.2-18.7-0.9-11.3 7.4-21.1 18.7-22 148.2-12.2 283.6-11.8 413.9 1.4 11.2 1.1 19.4 11.1 18.2 22.3-1.1 11.2-11 19.4-22.3 18.2-127.8-12.8-260.8-13.3-406.5-1.3q-0.9 0.1-1.8 0.1z"/>
					<g>
						<path class="s5" d="m699.9 541.4c-82.4-0.6-165.4-5.2-248.5-13.9-30.4-3.2-53.3-30.3-53-63l0.2-33c0.2-32.5 23.1-59.3 53.4-62.3 178.2-17.8 339.5-17 492.9 2.4 29.7 3.7 52 30.7 51.7 62.8l-0.2 34.2c-0.2 32.6-23.2 59.4-53.6 62.3-80 7.5-161.1 11-242.9 10.5zm11.5-181.1c-82.8-0.5-168.7 3.7-259.1 12.7-28.2 2.9-49.7 28-49.9 58.5l-0.2 33c-0.2 30.8 21.1 56.2 49.6 59.2 165.4 17.3 330.4 18.4 490.6 3.3 28.4-2.6 50-27.8 50.2-58.4l0.2-34.2c0.2-30.1-20.6-55.5-48.4-59-75.4-9.5-152.7-14.6-233-15.1z"/>
					</g>
					<g>
						<path class="s5" d="m837 890.6l-266.8-1.7c-25.5-0.2-46.2-21.1-46-46.7l0.5-75.9c0.2-25.6 21.1-46.2 46.6-46.1l266.8 1.8c25.6 0.1 46.2 21.1 46.1 46.6l-0.5 76c-0.2 25.5-21.1 46.2-46.7 46zm-265.7-166.6c-23.5-0.2-42.8 18.8-42.9 42.3l-0.5 76c-0.2 23.5 18.8 42.7 42.3 42.9l266.9 1.7c23.5 0.1 42.7-18.9 42.9-42.4l0.5-75.9c0.1-23.5-18.9-42.8-42.4-42.9z"/>
					</g>
					<g>
						<path class="s1" d="m596.3 766.7q-0.7 0-1.4-0.1-0.7-0.2-1.4-0.4-0.7-0.3-1.3-0.8-0.6-0.3-1.1-0.9c-1.4-1.4-2.2-3.3-2.1-5.2 0-2 0.8-3.9 2.2-5.3 2.7-2.7 7.7-2.7 10.5 0.1q0.5 0.5 0.9 1.1 0.4 0.7 0.6 1.3c0.2 0.5 0.4 0.9 0.4 1.4q0.2 0.7 0.2 1.5 0 0.7-0.2 1.4-0.1 0.7-0.4 1.4c-0.2 0.5-0.4 0.9-0.7 1.3q-0.4 0.6-0.9 1.1c-0.3 0.3-0.7 0.6-1.2 0.9q-0.6 0.4-1.2 0.7-0.7 0.3-1.4 0.4c-0.5 0.1-1 0.1-1.5 0.1z"/>
						<path class="s1" d="m764 760.4c0-4.1 3.3-7.4 7.4-7.4 4.1 0.1 7.4 3.4 7.4 7.5 0 4.1-3.4 7.4-7.5 7.4-4.1-0.1-7.3-3.4-7.3-7.5zm-35-0.2c0-4.1 3.3-7.4 7.4-7.4 4.1 0 7.4 3.4 7.4 7.5 0 4.1-3.4 7.4-7.5 7.3-4 0-7.4-3.3-7.3-7.4zm-35-0.2c0-4.1 3.3-7.4 7.4-7.4 4.1 0 7.4 3.4 7.4 7.4 0 4.1-3.4 7.4-7.5 7.4-4.1 0-7.3-3.4-7.3-7.4zm-35-0.3c0-4 3.3-7.4 7.4-7.3 4.1 0 7.4 3.3 7.4 7.4 0 4.1-3.4 7.4-7.5 7.4-4.1 0-7.4-3.4-7.3-7.5zm-35-0.2c0-4.1 3.3-7.4 7.4-7.4 4.1 0.1 7.4 3.4 7.4 7.5 0 4.1-3.4 7.4-7.5 7.4-4.1-0.1-7.3-3.4-7.3-7.5z"/>
						<path class="s1" d="m806.3 768.1c-1.9 0-3.8-0.8-5.2-2.2q-0.5-0.5-0.9-1.1c-0.3-0.5-0.5-0.9-0.7-1.3-0.2-0.5-0.3-0.9-0.4-1.4q-0.1-0.7-0.1-1.5c0-1.9 0.8-3.8 2.2-5.2q0.5-0.5 1.1-0.9c0.4-0.3 0.8-0.5 1.3-0.7q0.7-0.3 1.4-0.4c2.4-0.5 4.9 0.3 6.7 2.1 1.3 1.4 2.1 3.3 2.1 5.2q0 0.8-0.2 1.5c0 0.5-0.2 0.9-0.4 1.4q-0.3 0.6-0.7 1.2-0.4 0.6-0.9 1.1-0.5 0.6-1.1 1-0.6 0.4-1.3 0.7c-0.5 0.1-0.9 0.3-1.4 0.4q-0.7 0.1-1.5 0.1z"/>
					</g>
				</g>
				<g>
					<g>
						<g>
							<path class="s40" d="m383.5 770.9l31.2 5.6c6.8 1.2 11.2 7.8 9.8 14.6l-66.2 316.7c-1.4 6.5-7.7 10.7-14.2 9.5l-16.2-2.9z"/>
							<path class="s41" d="m259.7 1177.5l32.8 6c13.2 2.4 25.9-6.3 28.6-19.4l76.4-390.7-91.5-16.6c-7.4-1.3-14.4 3.7-15.6 11.2l-50.7 381.3c-2.1 13.3 6.8 25.8 20 28.2z"/>
							<path class="s42" d="m274.7 1046l23.8-167.6c2.1-11.5 13.2-19.2 24.8-17.1 11.5 2.1 19.2 13.2 17.1 24.7l-23.8 167.6c-2.1 11.6-13.2 19.2-24.7 17.1-11.6-2.1-19.3-13.1-17.2-24.7z"/>
							<path fill-rule="evenodd" class="s5" d="m318.4 860.4l9.7 1.8-31.4 209.4-9.7-1.7z"/>
						</g>
						<g>
							<path fill-rule="evenodd" class="s43" d="m359 858c-48.2 0-87.2-39-87.2-87.2 0-48.2 39-87.1 87.2-87.1 48.2 0 87.2 38.9 87.2 87.1 0 48.2-39 87.2-87.2 87.2z"/>
							<path class="s5" d="m293.5 759c6.5-36.2 41.2-60.2 77.4-53.7 36.1 6.6 60.2 41.2 53.6 77.4-6.5 36.2-41.2 60.2-77.4 53.6-36.2-6.5-60.2-41.2-53.6-77.3z"/>
						</g>
					</g>
					<g>
						<g>
							<path class="s44" d="m490.9 1098.1l-8.6-24.7c-3.4-10-12.3-16-19.9-13.6l-204.6 60.4 24 69c1.9 5.5 7 8.8 11.2 7.2l190.8-75.3c7.4-2.8 10.6-13 7.1-23z"/>
						</g>
						<g>
							<path class="s45" d="m308 1219.4c-35.7 12.5-74.7-6.4-87.1-42.1-12.5-35.7 6.4-74.7 42.1-87.1 35.7-12.4 74.7 6.4 87.1 42.1 12.4 35.7-6.4 74.7-42.1 87.1z"/>
							<path class="s5" d="m302.7 1204.2c-27.3 9.5-57.1-4.9-66.6-32.2-9.5-27.3 4.9-57 32.2-66.5 27.2-9.5 57 4.9 66.5 32.1 9.5 27.3-4.9 57.1-32.1 66.6z"/>
						</g>
						<g>
							<path fill-rule="evenodd" class="s46" d="m541.7 1031.2l26.8-65.2 118.1 39.9-2.7 18.4-101.4-27.4-20.4 50.9z"/>
							<g>
								<g>
									<path class="s47" d="m805.2 1118.1v0.1c-1 1.4-3 1.8-4.4 0.8l-23.7-16.5 3.6-5.2 23.8 16.4c1.4 1 1.7 3 0.7 4.4z"/>
									<path class="s48" d="m455.8 868.8l-7.1 10.2-20.3-14.1c-1.4-0.9-1.7-2.8-0.7-4.2l3.5-5.2c1-1.4 2.9-1.7 4.3-0.8z"/>
									<path class="s49" d="m788.8 1107.3c-1.9 2.8-5.7 3.7-8.7 2.1l-35.3-19.4 12.3-17.8 30.6 26.2c2.6 2.3 3.1 6.1 1.1 8.9z"/>
									<path fill-rule="evenodd" class="s50" d="m489.9 881.4l-40.9-22.9-12.3 17.8 35.7 30.2 78.4 54.4 194 129.1 12.3-17.8-188.9-136.5z"/>
									<path fill-rule="evenodd" class="s51" d="m494.7 884.8l-17.4 25.1-4.9-3.4 17.5-25.1z"/>
								</g>
								<path class="s52" d="m581.2 942.9l-2.7 3.9c-0.8 1.1-2.2 1.3-3.2 0.6l-82.7-57.3c-1.1-0.8-1.3-2.2-0.6-3.2l2.7-3.9c0.7-1.1 2.1-1.3 3.2-0.6l82.7 57.4c1 0.7 1.3 2.1 0.6 3.1z"/>
							</g>
							<path class="s5" d="m517.3 1121.6l-25.5 8.8c-1.2 0.3-2.4-0.3-2.8-1.4l-27.8-80.8c-0.4-1.1 0.2-2.4 1.4-2.8l25.5-8.8c1.2-0.3 2.4 0.3 2.8 1.4l27.8 80.8c0.4 1.1-0.2 2.4-1.4 2.8z"/>
							<path fill-rule="evenodd" class="s5" d="m561.3 1095.9l63.3 31.2 62-108.2-14.2-12-57.8 87.7-49-24.6z"/>
							<path class="s53" d="m515.8 1029.1c13.5-7 30.2-6.8 44 1.9 20.6 13.1 26.7 40.5 13.6 61.1-6.6 10.5-16.9 17.2-28.1 19.6z"/>
							<path class="s1" d="m487.9 1039l-4.5-13.3c-0.9-2.4 0.6-5 3.1-5.9l24.6-8.4c2.5-0.9 5.3 0.3 6.1 2.7l36.3 105.6c0.8 2.4-0.6 5-3.1 5.9l-24.6 8.4c-2.5 0.9-5.3-0.3-6.1-2.7l-4.2-12.1z"/>
						</g>
					</g>
				</g>
				<g>
					<g>
						<g>
							<path class="s54" d="m1029.5 770.9l-31.1 5.6c-6.8 1.2-11.2 7.8-9.8 14.6l66.2 316.7c1.3 6.5 7.6 10.7 14.1 9.5l16.3-2.9z"/>
							<path class="s55" d="m1153.4 1177.5l-32.8 6c-13.3 2.4-26-6.3-28.7-19.4l-76.4-390.7 91.5-16.6c7.4-1.3 14.5 3.7 15.7 11.2l50.6 381.3c2.2 13.3-6.7 25.8-19.9 28.2z"/>
							<path class="s56" d="m1138.3 1046l-23.8-167.6c-2.1-11.5-13.2-19.2-24.7-17.1-11.6 2.1-19.3 13.2-17.2 24.7l23.8 167.6c2.1 11.6 13.2 19.2 24.8 17.1 11.5-2.1 19.2-13.1 17.1-24.7z"/>
							<path fill-rule="evenodd" class="s5" d="m1094.6 860.4l-9.7 1.8 31.4 209.4 9.7-1.7z"/>
						</g>
						<g>
							<path fill-rule="evenodd" class="s57" d="m1054 858c-48.2 0-87.1-39-87.1-87.2 0-48.2 38.9-87.1 87.1-87.1 48.2 0 87.2 38.9 87.2 87.1 0 48.2-39 87.2-87.2 87.2z"/>
							<g style="opacity: .59">
								<path class="s5" d="m1119.6 759c-6.6-36.2-41.2-60.2-77.4-53.7-36.2 6.6-60.2 41.2-53.7 77.4 6.6 36.2 41.2 60.2 77.4 53.6 36.2-6.5 60.2-41.2 53.7-77.3z"/>
							</g>
						</g>
					</g>
					<g>
						<g>
							<path class="s58" d="m1105 1219.4c35.7 12.5 74.7-6.4 87.2-42.1 12.4-35.7-6.5-74.7-42.1-87.1-35.7-12.4-74.7 6.4-87.2 42.1-12.4 35.7 6.5 74.7 42.1 87.1z"/>
							<g style="opacity: .59">
								<path fill-rule="evenodd" class="s5" d="m1147.2 1203.2c-26.8 10.9-57.2-2-68.1-28.7-10.9-26.8 2-57.2 28.8-68.1 26.8-10.9 57.2 2 68 28.8 10.9 26.7-1.9 57.2-28.7 68z"/>
							</g>
						</g>
					</g>
				</g>
				<g>
					<path class="s59" d="m761.9 1255.2l269 31.9c14.8 1.7 28.4-8.5 30.9-23.2l66.1-387.5c1.9-11.6-6-22.4-17.6-24l-307.6-42.1c-10.9-1.5-20.9 6.2-22.2 17.1l-46.4 392.4c-2.1 17.5 10.4 33.3 27.8 35.4z"/>
					<path class="s1" d="m783.2 892.5c-1.7-0.3-2.8-1.8-2.7-3.4l6.2-52.1c1.5-12.8 13.2-22.1 26-20.7l34.5 3.6c1.6 0.1 2.9 1.7 2.7 3.4-0.2 1.7-1.7 2.9-3.3 2.7l-34.6-3.7c-9.5-1-18.1 6-19.2 15.4l-6.2 52.1c-0.2 1.7-1.7 2.9-3.4 2.7q0 0 0 0z"/>
					<path class="s1" d="m780.2 917c-1.6-0.2-2.8-1.7-2.6-3.3l1-8.5c0.2-1.6 1.7-2.8 3.4-2.6 1.7 0.1 2.9 1.7 2.7 3.3l-1 8.5c-0.2 1.6-1.7 2.8-3.4 2.6q0 0-0.1 0z"/>
					<g>
						<path class="s1" d="m974.1 768.4c-9.3-7.6-17.7-8.1-23.8-6.8-5.6 1.1-9.6 6.1-9.5 11.8l0.3 28.3 30.4 5.2c0 0 20.6-23.7 2.6-38.5zm-15.3 21.6c-4.2-0.4-7.4-4.1-7-8.3 0.3-4.2 4-7.3 8.2-7 4.2 0.3 7.4 4 7 8.2-0.3 4.3-4 7.4-8.2 7.1z"/>
					</g>
					<path class="s60" d="m944.6 790.8c-0.6-0.3-0.9-0.8-0.9-1.4l-0.1-4.5c0-0.8 0.7-1.5 1.5-1.5 0.9-0.1 1.5 0.6 1.6 1.5v4.5c0 0.8-0.7 1.5-1.5 1.5q-0.3 0-0.6-0.1zm-0.1-8.9c-0.6-0.2-0.9-0.7-0.9-1.3l-0.1-3.5c0-5.8 4-10.8 9.7-12 3.8-0.8 7.7-0.7 11.6 0.4 0.8 0.3 1.2 1.1 1 1.9-0.2 0.8-1.1 1.3-1.9 1.1-3.3-1-6.7-1.1-10.1-0.4-4.2 0.9-7.3 4.7-7.2 9v3.4c0 0.9-0.7 1.6-1.5 1.6q-0.3 0-0.6-0.2z"/>
					<path class="s1" d="m897.9 816.5l1.1-14.1c0.4-4.9 4.7-8.5 9.6-7.9l97.1 11.1c4.3 0.5 7.6 4.2 7.5 8.5l-0.3 13.7z"/>
					<path class="s61" d="m931 803.9c-1.6-0.2-2.7-1.6-2.6-3.2 0.1-1.7 1.6-2.9 3.3-2.8l4.2 0.3c1.6 0.2 2.9 1.6 2.8 3.3-0.2 1.7-1.6 2.9-3.3 2.8l-4.2-0.3q-0.1 0-0.2-0.1z"/>
					<path class="s62" d="m902.9 813.1c-0.5-0.2-0.9-0.8-0.9-1.5l0.5-5.7c0.2-2.3 1.3-4.5 3.1-6 1.8-1.5 4-2.2 6.4-2.1l15.4 1.3c0.8 0 1.4 0.8 1.4 1.6-0.1 0.8-0.8 1.5-1.7 1.4l-15.4-1.2c-3.1-0.3-5.9 2.1-6.2 5.3l-0.4 5.7c-0.1 0.8-0.8 1.4-1.7 1.4q-0.2 0-0.5-0.2z"/>
					<path class="s1" d="m867.8 808.9l170.3 13.6c6.1 0.5 11 5.3 11.5 11.4l0.1 0.9c0.6 6.7-4.9 12.3-11.6 11.8l-174.8-14c-4-0.3-6.9-3.9-6.4-7.9l1-7.8c0.6-4.9 5-8.4 9.9-8z"/>
				</g>
				<path fill-rule="evenodd" class="s5" d="m1003.5 1027.8l102 12.6-21.4 143.5-99.2-13.3 2.3-24.4 68.8 1.3 9.6-88.2-62.1-10.6z"/>
			</g>
			<path class="s63" d="m2134.8 874.8c-1.1 0-2-0.9-2-2v-6c0-1.1 0.9-2 2-2 1.1 0 2 0.9 2 2v6c0 1.1-0.9 2-2 2zm0-20.1c-1.1 0-2-0.9-2-2v-6c0-1.1 0.9-2 2-2 1.1 0 2 0.9 2 2v6c0 1.1-0.9 2-2 2zm0-20c-1.1 0-2-0.9-2-2v-6c0-1.1 0.9-2 2-2 1.1 0 2 0.9 2 2v6c0 1.1-0.9 2-2 2zm0-20c-1.1 0-2-0.9-2-2.1v-6c0-1.1 0.9-2 2-2 1.1 0 2 0.9 2 2v6c0 1.2-0.9 2.1-2 2.1zm0-20.1c-1.1 0-2-0.9-2-2v-6c0-1.1 0.9-2 2-2 1.1 0 2 0.9 2 2v6c0 1.1-0.9 2-2 2zm0-20c-1.1 0-2-0.9-2-2v-6.1c0-1.1 0.9-2 2-2 1.1 0 2 0.9 2 2v6.1c0 1.1-0.9 2-2 2zm0-20.1c-1.1 0-2-0.9-2-2v-6c0-1.1 0.9-2 2-2 1.1 0 2 0.9 2 2v6c0 1.1-0.9 2-2 2zm0-20c-1.1 0-2-0.9-2-2v-6c0-1.2 0.9-2 2-2 1.1 0 2 0.8 2 2v6c0 1.1-0.9 2-2 2zm0-20.1c-1.1 0-2-0.9-2-2v-6c0-1.1 0.9-2 2-2 1.1 0 2 0.9 2 2v6c0 1.1-0.9 2-2 2zm0-20c-1.1 0-2-0.9-2-2v-6c0-1.1 0.9-2 2-2 1.1 0 2 0.9 2 2v6c0 1.1-0.9 2-2 2zm0-20.1c-1.1 0-2-0.9-2-2v-6c0-1.1 0.9-2 2-2 1.1 0 2 0.9 2 2v6c0 1.1-0.9 2-2 2zm0-20c-1.1 0-2-0.9-2-2v-6c0-1.1 0.9-2 2-2 1.1 0 2 0.9 2 2v6c0 1.1-0.9 2-2 2zm0-20.1c-1.1 0-2-0.8-2-2v-6c0-1.1 0.9-2 2-2 1.1 0 2 0.9 2 2v6c0 1.2-0.9 2-2 2zm0-20c-1.1 0-2-0.9-2-2v-6c0-1.1 0.9-2 2-2 1.1 0 2 0.9 2 2v6c0 1.1-0.9 2-2 2zm0-20c-1.1 0-2-0.9-2-2v-6.1c0-1.1 0.9-2 2-2 1.1 0 2 0.9 2 2v6.1c0 1.1-0.9 2-2 2zm0-20.1c-1.1 0-2-0.9-2-2v-6c0-1.1 0.9-2 2-2 1.1 0 2 0.9 2 2v6c0 1.1-0.9 2-2 2zm0-20c-1.1 0-2-0.9-2-2v-6c0-1.2 0.9-2.1 2-2.1 1.1 0 2 0.9 2 2.1v6c0 1.1-0.9 2-2 2zm0-20.1c-1.1 0-2-0.9-2-2v-6c0-1.1 0.9-2 2-2 1.1 0 2 0.9 2 2v6c0 1.1-0.9 2-2 2zm-8-12h-6.1c-1.1 0-2-0.9-2-2 0-1.1 0.9-2 2-2h6.1c1.1 0 2 0.9 2 2 0 1.1-0.9 2-2 2zm-20.1 0h-6c-1.1 0-2-0.9-2-2 0-1.1 0.9-2 2-2h6c1.1 0 2 0.9 2 2 0 1.1-0.9 2-2 2zm-20 0h-6c-1.2 0-2.1-0.9-2.1-2 0-1.1 0.9-2 2.1-2h6c1.1 0 2 0.9 2 2 0 1.1-0.9 2-2 2zm-20.1 0h-6c-1.1 0-2-0.9-2-2 0-1.1 0.9-2 2-2h6c1.1 0 2 0.9 2 2 0 1.1-0.9 2-2 2zm-20 0h-6c-1.1 0-2-0.9-2-2 0-1.1 0.9-2 2-2h6c1.1 0 2 0.9 2 2 0 1.1-0.9 2-2 2zm-20.1 0h-6c-1.1 0-2-0.9-2-2 0-1.1 0.9-2 2-2h6c1.1 0 2 0.9 2 2 0 1.1-0.9 2-2 2zm-20 0h-6c-1.1 0-2-0.9-2-2 0-1.1 0.9-2 2-2h6c1.1 0 2 0.9 2 2 0 1.1-0.9 2-2 2zm-20.1 0h-6c-1.1 0-2-0.9-2-2 0-1.1 0.9-2 2-2h6c1.1 0 2 0.9 2 2 0 1.1-0.9 2-2 2zm-20 0h-6c-1.1 0-2-0.9-2-2 0-1.1 0.9-2 2-2h6c1.1 0 2 0.9 2 2 0 1.1-0.9 2-2 2zm-20.1 0h-6c-1.1 0-2-0.9-2-2 0-1.1 0.9-2 2-2h6c1.2 0 2.1 0.9 2.1 2 0 1.1-0.9 2-2.1 2zm-20 0h-6c-1.1 0-2-0.9-2-2 0-1.1 0.9-2 2-2h6c1.1 0 2 0.9 2 2 0 1.1-0.9 2-2 2zm-20 0h-6.1c-1.1 0-2-0.9-2-2 0-1.1 0.9-2 2-2h6.1c1.1 0 2 0.9 2 2 0 1.1-0.9 2-2 2zm-20.1 0h-6c-1.1 0-2-0.9-2-2 0-1.1 0.9-2 2-2h6c1.1 0 2 0.9 2 2 0 1.1-0.9 2-2 2zm-20 0h-6c-1.2 0-2.1-0.9-2.1-2 0-1.1 0.9-2 2.1-2h6c1.1 0 2 0.9 2 2 0 1.1-0.9 2-2 2zm-20.1 0h-6c-1.1 0-2-0.9-2-2 0-1.1 0.9-2 2-2h6c1.1 0 2 0.9 2 2 0 1.1-0.9 2-2 2zm-20 0h-6c-1.1 0-2-0.9-2-2 0-1.1 0.9-2 2-2h6c1.1 0 2 0.9 2 2 0 1.1-0.9 2-2 2zm-20.1 0h-6c-1.1 0-2-0.9-2-2 0-1.1 0.9-2 2-2h6c1.1 0 2 0.9 2 2 0 1.1-0.9 2-2 2zm-20 0h-6c-1.1 0-2-0.9-2-2 0-1.1 0.9-2 2-2h6c1.1 0 2 0.9 2 2 0 1.1-0.9 2-2 2zm-20.1 0h-6c-1.1 0-2-0.9-2-2 0-1.1 0.9-2 2-2h6c1.2 0 2 0.9 2 2 0 1.1-0.8 2-2 2zm-20 0h-6c-1.1 0-2-0.9-2-2 0-1.1 0.9-2 2-2h6c1.1 0 2 0.9 2 2 0 1.1-0.9 2-2 2zm-20 0h-6.1c-1.1 0-2-0.9-2-2 0-1.1 0.9-2 2-2h6.1c1.1 0 2 0.9 2 2 0 1.1-0.9 2-2 2zm-20.1 0h-6c-1.1 0-2-0.9-2-2 0-1.1 0.9-2 2-2h6c1.1 0 2 0.9 2 2 0 1.1-0.9 2-2 2zm-20 0h-6c-1.2 0-2.1-0.9-2.1-2 0-1.1 0.9-2 2.1-2h6c1.1 0 2 0.9 2 2 0 1.1-0.9 2-2 2zm-20.1 0h-6c-1.1 0-2-0.9-2-2 0-1.1 0.9-2 2-2h6c1.1 0 2 0.9 2 2 0 1.1-0.9 2-2 2zm-20 0h-6c-1.1 0-2-0.9-2-2 0-1.1 0.9-2 2-2h6c1.1 0 2 0.9 2 2 0 1.1-0.9 2-2 2zm-20.1 0h-6c-1.1 0-2-0.9-2-2 0-1.1 0.9-2 2-2h6c1.1 0 2 0.9 2 2 0 1.1-0.9 2-2 2zm-20 0h-6c-1.1 0-2-0.9-2-2 0-1.1 0.9-2 2-2h6c1.1 0 2 0.9 2 2 0 1.1-0.9 2-2 2zm-20.1 0h-6c-1.1 0-2-0.9-2-2 0-1.1 0.9-2 2-2h6c1.1 0 2 0.9 2 2 0 1.1-0.9 2-2 2zm-20 0h-6c-1.1 0-2-0.9-2-2 0-1.1 0.9-2 2-2h6c1.1 0 2 0.9 2 2 0 1.1-0.9 2-2 2zm-20.1 0h-6c-1.1 0-2-0.9-2-2 0-1.1 0.9-2 2-2h6c1.2 0 2.1 0.9 2.1 2 0 1.1-0.9 2-2.1 2zm-20 0h-6c-1.1 0-2-0.9-2-2 0-1.1 0.9-2 2-2h6c1.1 0 2 0.9 2 2 0 1.1-0.9 2-2 2zm-20 0h-6.1c-1.1 0-2-0.9-2-2 0-1.1 0.9-2 2-2h6.1c1.1 0 2 0.9 2 2 0 1.1-0.9 2-2 2zm-20.1 0h-6c-1.1 0-2-0.9-2-2 0-1.1 0.9-2 2-2h6c1.1 0 2 0.9 2 2 0 1.1-0.9 2-2 2zm-20 0h-6c-1.2 0-2.1-0.9-2.1-2 0-1.1 0.9-2 2.1-2h6c1.1 0 2 0.9 2 2 0 1.1-0.9 2-2 2zm-20.1 0h-6c-1.1 0-2-0.9-2-2 0-1.1 0.9-2 2-2h6c1.1 0 2 0.9 2 2 0 1.1-0.9 2-2 2zm-20 0h-6c-1.1 0-2-0.9-2-2 0-1.1 0.9-2 2-2h6c1.1 0 2 0.9 2 2 0 1.1-0.9 2-2 2zm-20.1 0h-6c-1.1 0-2-0.9-2-2 0-1.1 0.9-2 2-2h6c1.1 0 2 0.9 2 2 0 1.1-0.9 2-2 2zm-20 0h-6c-1.1 0-2-0.9-2-2 0-1.1 0.9-2 2-2h6c1.1 0 2 0.9 2 2 0 1.1-0.9 2-2 2zm-20.1 0h-6c-1.1 0-2-0.9-2-2 0-1.1 0.9-2 2-2h6c1.2 0 2 0.9 2 2 0 1.1-0.8 2-2 2zm-20 0h-6c-1.1 0-2-0.9-2-2 0-1.1 0.9-2 2-2h6c1.1 0 2 0.9 2 2 0 1.1-0.9 2-2 2zm-20 0h-6.1c-1.1 0-2-0.9-2-2 0-1.1 0.9-2 2-2h6.1c1.1 0 2 0.9 2 2 0 1.1-0.9 2-2 2zm-20.1 0h-6c-1.1 0-2-0.9-2-2 0-1.1 0.9-2 2-2h6c1.1 0 2 0.9 2 2 0 1.1-0.9 2-2 2zm-20 0h-6c-1.2 0-2.1-0.9-2.1-2 0-1.1 0.9-2 2.1-2h6c1.1 0 2 0.9 2 2 0 1.1-0.9 2-2 2zm-20.1 0h-6c-1.1 0-2-0.9-2-2 0-1.1 0.9-2 2-2h6c1.1 0 2 0.9 2 2 0 1.1-0.9 2-2 2zm-20 0h-6c-1.1 0-2-0.9-2-2 0-1.1 0.9-2 2-2h6c1.1 0 2 0.9 2 2 0 1.1-0.9 2-2 2zm-20.1 0h-6c-1.1 0-2-0.9-2-2 0-1.1 0.9-2 2-2h6c1.1 0 2 0.9 2 2 0 1.1-0.9 2-2 2zm-20 0h-6c-1.1 0-2-0.9-2-2 0-1.1 0.9-2 2-2h6c1.1 0 2 0.9 2 2 0 1.1-0.9 2-2 2zm-20.1 0h-6c-1.1 0-2-0.9-2-2 0-1.1 0.9-2 2-2h6c1.1 0 2 0.9 2 2 0 1.1-0.9 2-2 2zm-20 0h-6c-1.1 0-2-0.9-2-2 0-1.1 0.9-2 2-2h6c1.1 0 2 0.9 2 2 0 1.1-0.9 2-2 2zm-20.1 0h-6c-1.1 0-2-0.9-2-2 0-1.1 0.9-2 2-2h6c1.2 0 2.1 0.9 2.1 2 0 1.1-0.9 2-2.1 2zm-20 0h-6c-1.1 0-2-0.9-2-2 0-1.1 0.9-2 2-2h6c1.1 0 2 0.9 2 2 0 1.1-0.9 2-2 2z"/>
			<path class="s63" d="m1201.5 892.6c-1.1 0-2-0.9-2-2v-6c0-1.1 0.9-2 2-2 1.1 0 2 0.9 2 2v6c0 1.1-0.9 2-2 2zm0-20c-1.1 0-2-0.9-2-2.1v-6c0-1.1 0.9-2 2-2 1.1 0 2 0.9 2 2v6c0 1.2-0.9 2.1-2 2.1zm0-20.1c-1.1 0-2-0.9-2-2v-6c0-1.1 0.9-2 2-2 1.1 0 2 0.9 2 2v6c0 1.1-0.9 2-2 2zm0-20c-1.1 0-2-0.9-2-2v-6.1c0-1.1 0.9-2 2-2 1.1 0 2 0.9 2 2v6.1c0 1.1-0.9 2-2 2zm0-20.1c-1.1 0-2-0.9-2-2v-6c0-1.1 0.9-2 2-2 1.1 0 2 0.9 2 2v6c0 1.1-0.9 2-2 2zm0-20c-1.1 0-2-0.9-2-2v-6c0-1.2 0.9-2 2-2 1.1 0 2 0.8 2 2v6c0 1.1-0.9 2-2 2zm0-20.1c-1.1 0-2-0.9-2-2v-6c0-1.1 0.9-2 2-2 1.1 0 2 0.9 2 2v6c0 1.1-0.9 2-2 2zm0-20c-1.1 0-2-0.9-2-2v-6c0-1.1 0.9-2 2-2 1.1 0 2 0.9 2 2v6c0 1.1-0.9 2-2 2zm0-20.1c-1.1 0-2-0.9-2-2v-6c0-1.1 0.9-2 2-2 1.1 0 2 0.9 2 2v6c0 1.1-0.9 2-2 2zm0-20c-1.1 0-2-0.9-2-2v-6c0-1.1 0.9-2 2-2 1.1 0 2 0.9 2 2v6c0 1.1-0.9 2-2 2zm0-20.1c-1.1 0-2-0.8-2-2v-6c0-1.1 0.9-2 2-2 1.1 0 2 0.9 2 2v6c0 1.2-0.9 2-2 2zm0-20c-1.1 0-2-0.9-2-2v-6c0-1.1 0.9-2 2-2 1.1 0 2 0.9 2 2v6c0 1.1-0.9 2-2 2zm0-20c-1.1 0-2-0.9-2-2v-6.1c0-1.1 0.9-2 2-2 1.1 0 2 0.9 2 2v6.1c0 1.1-0.9 2-2 2zm0-20.1c-1.1 0-2-0.9-2-2v-6c0-1.1 0.9-2 2-2 1.1 0 2 0.9 2 2v6c0 1.1-0.9 2-2 2zm0-20c-1.1 0-2-0.9-2-2v-6c0-1.2 0.9-2.1 2-2.1 1.1 0 2 0.9 2 2.1v6c0 1.1-0.9 2-2 2zm0-20.1c-1.1 0-2-0.9-2-2v-6c0-1.1 0.9-2 2-2 1.1 0 2 0.9 2 2v6c0 1.1-0.9 2-2 2zm0-20c-1.1 0-2-0.9-2-2v-6c0-1.1 0.9-2 2-2 1.1 0 2 0.9 2 2v6c0 1.1-0.9 2-2 2zm0-20.1c-1.1 0-2-0.9-2-2v-6c0-1.1 0.9-2 2-2 1.1 0 2 0.9 2 2v6c0 1.1-0.9 2-2 2z"/>
			<path class="s63" d="m1448.6 892.6c-1.2 0-2.1-0.9-2.1-2v-6c0-1.1 0.9-2 2.1-2 1.1 0 2 0.9 2 2v6c0 1.1-0.9 2-2 2zm0-20c-1.2 0-2.1-0.9-2.1-2.1v-6c0-1.1 0.9-2 2.1-2 1.1 0 2 0.9 2 2v6c0 1.2-0.9 2.1-2 2.1zm0-20.1c-1.2 0-2.1-0.9-2.1-2v-6c0-1.1 0.9-2 2.1-2 1.1 0 2 0.9 2 2v6c0 1.1-0.9 2-2 2zm0-20c-1.2 0-2.1-0.9-2.1-2v-6.1c0-1.1 0.9-2 2.1-2 1.1 0 2 0.9 2 2v6.1c0 1.1-0.9 2-2 2zm0-20.1c-1.2 0-2.1-0.9-2.1-2v-6c0-1.1 0.9-2 2.1-2 1.1 0 2 0.9 2 2v6c0 1.1-0.9 2-2 2zm0-20c-1.2 0-2.1-0.9-2.1-2v-6c0-1.2 0.9-2 2.1-2 1.1 0 2 0.8 2 2v6c0 1.1-0.9 2-2 2zm0-20.1c-1.2 0-2.1-0.9-2.1-2v-6c0-1.1 0.9-2 2.1-2 1.1 0 2 0.9 2 2v6c0 1.1-0.9 2-2 2zm0-20c-1.2 0-2.1-0.9-2.1-2v-6c0-1.1 0.9-2 2.1-2 1.1 0 2 0.9 2 2v6c0 1.1-0.9 2-2 2zm0-20.1c-1.2 0-2.1-0.9-2.1-2v-6c0-1.1 0.9-2 2.1-2 1.1 0 2 0.9 2 2v6c0 1.1-0.9 2-2 2zm0-20c-1.2 0-2.1-0.9-2.1-2v-6c0-1.1 0.9-2 2.1-2 1.1 0 2 0.9 2 2v6c0 1.1-0.9 2-2 2zm0-20.1c-1.2 0-2.1-0.8-2.1-2v-6c0-1.1 0.9-2 2.1-2 1.1 0 2 0.9 2 2v6c0 1.2-0.9 2-2 2zm0-20c-1.2 0-2.1-0.9-2.1-2v-6c0-1.1 0.9-2 2.1-2 1.1 0 2 0.9 2 2v6c0 1.1-0.9 2-2 2zm0-20c-1.2 0-2.1-0.9-2.1-2v-6.1c0-1.1 0.9-2 2.1-2 1.1 0 2 0.9 2 2v6.1c0 1.1-0.9 2-2 2zm0-20.1c-1.2 0-2.1-0.9-2.1-2v-6c0-1.1 0.9-2 2.1-2 1.1 0 2 0.9 2 2v6c0 1.1-0.9 2-2 2zm0-20c-1.2 0-2.1-0.9-2.1-2v-6c0-1.2 0.9-2.1 2.1-2.1 1.1 0 2 0.9 2 2.1v6c0 1.1-0.9 2-2 2zm0-20.1c-1.2 0-2.1-0.9-2.1-2v-6c0-1.1 0.9-2 2.1-2 1.1 0 2 0.9 2 2v6c0 1.1-0.9 2-2 2zm0-20c-1.2 0-2.1-0.9-2.1-2v-6c0-1.1 0.9-2 2.1-2 1.1 0 2 0.9 2 2v6c0 1.1-0.9 2-2 2zm0-20.1c-1.2 0-2.1-0.9-2.1-2v-6c0-1.1 0.9-2 2.1-2 1.1 0 2 0.9 2 2v6c0 1.1-0.9 2-2 2z"/>
			<path class="s63" d="m1736.9 641.8c-1.1 0-2-0.9-2-2v-6c0-1.1 0.9-2 2-2 1.1 0 2 0.9 2 2v6c0 1.1-0.9 2-2 2zm0-20.1c-1.1 0-2-0.9-2-2v-6c0-1.1 0.9-2 2-2 1.1 0 2 0.9 2 2v6c0 1.1-0.9 2-2 2zm0-20c-1.1 0-2-0.9-2-2v-6c0-1.1 0.9-2 2-2 1.1 0 2 0.9 2 2v6c0 1.1-0.9 2-2 2zm0-20.1c-1.1 0-2-0.9-2-2v-6c0-1.1 0.9-2 2-2 1.1 0 2 0.9 2 2v6c0 1.1-0.9 2-2 2zm0-20c-1.1 0-2-0.9-2-2v-6c0-1.1 0.9-2 2-2 1.1 0 2 0.9 2 2v6c0 1.1-0.9 2-2 2z"/>
			<g>
				<g>
					<path class="s64" d="m1721.7 730.9c0 5.4 4.5 9.8 10 9.8 5.4 0 9.8-4.5 9.8-10 0-5.4-4.5-9.9-10-9.8-5.5 0-9.9 4.5-9.8 10z"/>
					<path class="s2" d="m1722 730.9c0 5.3 4.4 9.5 9.6 9.5 5.3-0.1 9.6-4.4 9.6-9.7-0.1-5.3-4.4-9.5-9.7-9.5-5.3 0-9.5 4.4-9.5 9.7z"/>
				</g>
				<g>
					<path class="s65" d="m1721.7 791c0 5.4 4.5 9.9 10 9.8 5.4 0 9.8-4.5 9.8-10 0-5.4-4.5-9.8-10-9.8-5.5 0-9.9 4.5-9.8 10z"/>
					<path class="s2" d="m1722 791c0 5.3 4.4 9.5 9.6 9.5 5.3 0 9.6-4.4 9.6-9.7-0.1-5.3-4.4-9.5-9.7-9.5-5.3 0.1-9.5 4.4-9.5 9.7z"/>
				</g>
				<g>
					<path class="s66" d="m1721.7 851.1c0 5.5 4.5 9.9 10 9.8 5.4 0 9.8-4.5 9.8-10 0-5.4-4.5-9.8-10-9.8-5.5 0-9.9 4.5-9.8 10z"/>
					<path class="s2" d="m1722 851.1c0 5.3 4.4 9.5 9.6 9.5 5.3 0 9.6-4.4 9.6-9.7-0.1-5.2-4.4-9.5-9.7-9.5-5.3 0.1-9.5 4.4-9.5 9.7z"/>
				</g>
				<path class="s67" d="m1706.4 730.3v1.7c-0.2 4.6-3 8.2-6.5 8.3l-265.6 0.4c-3.6 0-6.5-3.9-6.5-8.6 0-4.6 2.8-8.4 6.4-8.5l265.6-2.1c3.7-0.1 6.7 4 6.6 8.8z"/>
				<path class="s68" d="m1706.4 790.2v1.6c-0.2 4.6-3 8.2-6.5 8.3l-265.6 0.4c-3.6 0-6.5-3.8-6.5-8.6 0-4.6 2.8-8.4 6.4-8.5l265.6-2.1c3.7-0.1 6.7 4 6.6 8.9z"/>
				<path class="s69" d="m1706.4 850v1.7c-0.2 4.5-3 8.2-6.5 8.2l-265.6 0.4c-3.6 0-6.5-3.8-6.5-8.6 0-4.6 2.8-8.4 6.4-8.5l265.6-2c3.7-0.1 6.7 3.9 6.6 8.8z"/>
			</g>
			<g>
				<path class="s70" d="m2177.2 1476.8c0 0 2.2 12.3 3.3 24.5 0.4 4.8-3.3 8.9-8.1 9.1-16.2 0.7-51 2-63.5 1.5-1.9-0.1-3.1-2-2.4-3.8 0.6-1.4 1.7-2.6 3.1-3.3l57.5-26.4z"/>
				<path class="s71" d="m2179 1469.5l-1.7 14.8c0 0-10.1 4.7-17-0.6l4.2-16.4z"/>
				<path class="s72" d="m2177.7 1192.2c0.8 3.9 4.1 192.2-16.1 276.7-0.3 1.3 0.4 2.8 1.7 3.3 3.1 1.3 9.1 3.1 16.4 3.3 2.2 0.1 4.3-1.4 4.9-3.5 5.7-19.6 33.3-117.7 36.9-211.5 4-104.7 0-3.5 0-3.5l-2.3-64.8z"/>
				<path class="s73" d="m2243.3 1483.2c0 0 3.5 6.2 6.8 22.8 0.6 3-1.5 5.8-4.5 6.1-5.4 0.6-13.6 1.2-20.2 1.2-3.1 0-5.5-2.7-5.1-5.7 0.7-6.1 3-16 10.1-23.7z"/>
				<path class="s74" d="m2246.3 1464.2l-4 22.4c0 0-4.1 3-12.1 0.8l2-24z"/>
				<path class="s75" d="m2257.4 1198c16.5 99.4-3.6 245.6-10.3 274.3-0.4 1.7-1.9 3.1-3.6 3.4-3.1 0.5-8 0.9-12.9-0.5-1.7-0.5-2.9-2.1-3-3.8-0.9-23.2 0.8-165.2-14.6-221.4-0.8-2.8-2.5-5.3-4.9-7l-29.8-21.2-2.3-34.2z"/>
				<g>
					<path class="s76" d="m2152.5 1009.7c49.3-0.9 103.8 12.9 103.8 12.9 14.7 85.9 2.5 184.9 2.5 184.9-38.2 10-81.3-6.2-81.3-6.2-6.3-35.8-36-136.8-36-136.8-24.1-3-43.9-10-60.3-19.2 12.5-14.4 18.4-32.8 20.9-43.7 17.5 5.4 35.1 8.3 50.4 8.1z"/>
					<path class="s77" d="m2006.7 937c4.8-5.9 11-3.1 11-3.1 7.2 30.7 45.3 55.5 84.4 67.7-2.5 10.9-8.4 29.3-20.9 43.7-64.9-36.5-74.5-108.3-74.5-108.3z"/>
				</g>
				<g>
					<path class="s78" d="m2007.8 938.5c-0.5 1.6 5.4 4 8.9-2.6 0.1-3.1 2-16.7 0.1-19.3-10-13.7-29.5-30.9-29.5-30.9-3.3 3.3-0.6 6.5-0.6 6.5l9.4 9.8c-1.9 3.6-4.4 6.6-5.5 11-0.8 3.2-0.3 6.7 1.3 9.7 1.7 3 4 6.9 6.1 9.9 4.1 5.8 9.8 5.9 9.8 5.9z"/>
					<path class="s79" d="m2000.3 908.4l8.6 7.3 2.7 7.3-7.7 8.6c0 0-2.6-14.5-4.5-17.6-1.9-3.1-0.9-4.7 0.9-5.6z"/>
				</g>
				<path class="s80" d="m2237.3 1070.4l19-47.8c0 0 46.1 31.3 53.6 71.1-8.7 0.6-24.5 2.9-40 10.7-3.4-18.8-32.6-34-32.6-34z"/>
				<path class="s81" d="m2197.1 1115.4c0 0 51.7 29.2 69.2 4.3 3.6-5.2 4.5-10.4 3.6-15.3 15.5-7.8 31.3-10.1 40-10.7 2.3 11.9 1.1 24.7-5.9 37.5-30.6 56-113.8-3.1-113.8-3.1z"/>
				<g>
					<path class="s2" d="m2203.3 1152.4l-28.3-98.7c-0.3-1.1-1.3-1.9-2.4-2-5.1-0.6-20-2.3-37.1-3.8-20.6-1.7-44.6-3.1-58.9-1.9-2 0.2-3.2 2.3-2.3 4.1 8.1 16.5 41.6 83.5 58.4 105.4 0.5 0.8 1.4 1.2 2.3 1.2l65.5-0.6c1.9-0.1 3.3-1.9 2.8-3.7z"/>
					<path class="s5" d="m2132.6 1039.4l-20.5-3.4c-1.1-0.2-2 0.8-1.6 1.9l2 6.1c0.2 0.6 0.6 1 1.2 1l19.7 2.7c1 0.1 1.9-0.8 1.6-1.8l-1.2-5.4c-0.2-0.6-0.6-1-1.2-1.1z"/>
					<path class="s5" d="m2147.9 1056.7l-1.7-8.8c-0.1-0.8-0.9-1.5-1.8-1.6l-41.3-4.2c-1.4-0.1-2.5 1.1-2.2 2.5l2.6 11c0.2 0.8 1 1.5 1.9 1.5l40.4 2c1.3 0.1 2.4-1.1 2.1-2.4z"/>
					<path class="s82" d="m2196.4 1128.6c0 0 4-16.2 2.4-22-1.6-5.7-4.7-13.1-14.9-11.5-10.3 1.7-22.4 6-22.4 6 0 0 0.6 7.5 8.4 5.1l-4.8 3.7c0 0 0.7 6 7.3 2.8l-4.5 5c0 0 2.8 4.9 7.7 1.7 4.8-3.1 7.1 11.1 20.8 9.2z"/>
				</g>
				<path class="s83" d="m2202.4 969.6l15.8 45.4c0.2 0.8-0.1 1.6-0.8 2-4.3 2.3-19.7 9.2-38.3-2.6-1.9-1.2-3.2-3.2-3.5-5.5l-5.1-39.3z"/>
				<g>
					<path class="s84" d="m2168.3 927.5c0 0-17.3 32.5-15.1 45.6 2.3 13.1 23.6 12.2 42.3 1.5l13-35z"/>
					<path class="s85" d="m2194.7 957.4c-0.8-0.3-1.1-1.2-0.6-1.9 1.4-2.2 4-6.5 4.8-10.2 0 0 3.1-2-7.9-4.6-11-2.7-27.4-6.8-30.8-16.1-3.4-9.1 5.4-32.1 19.5-13.8 0.5 0.7 1.6 0.7 2.1 0 2.3-3 8.4-9.2 16.8-5.4 7.9 3.5 8.8 9.3 8.7 12.2 0 0.8 0.7 1.5 1.6 1.4 4-0.8 13.5-1.5 18 8.3 3.7 8.1 1.3 12.7-0.9 14.9-0.7 0.8-0.4 2 0.6 2.3 2.6 0.8 6 3 5.6 9.1-0.4 8.5-9.9 7.8-12.6 7.4-0.5-0.1-0.9 0.1-1.2 0.4-2.3 2.6-12.8 13.4-24.1 14.7-0.9 0.2-1.7-0.8-1.4-1.7l4.9-14.2c0.2-0.7-0.1-1.4-0.7-1.7z"/>
					<path class="s86" d="m2192.7 959.4c0 0 12.3-8.4 13.2-1.3 0.9 7.1-11.1 10.3-17 7.6z"/>
				</g>
			</g>
		</g>
	</g>
</svg>