<svg id="Layer_1" enable-background="new 0 0 64 64" viewBox="0 0 64 64" xmlns="http://www.w3.org/2000/svg" width="300" height="300" version="1.1" xmlns:xlink="http://www.w3.org/1999/xlink" xmlns:svgjs="http://svgjs.dev/svgjs"><g width="100%" height="100%" transform="matrix(1,0,0,1,0,0)"><g style="fill:none;stroke:#231f20;stroke-width:2;stroke-linecap:round;stroke-linejoin:round;stroke-miterlimit:10"><g><path d="m20.89 41.34-9.28 4.83-9.28-4.83 9.28-4.83z" fill="none" fill-opacity="1" stroke="#009dc9" stroke-opacity="1" data-original-stroke-color="#231f20ff" stroke-width="2" data-original-stroke-width="2"/><path d="m2.33 53.11 9.28 4.82 9.28-4.82" fill="none" fill-opacity="1" stroke="#009dc9" stroke-opacity="1" data-original-stroke-color="#231f20ff" stroke-width="2" data-original-stroke-width="2"/><path d="m2.33 53.11v-11.77" fill="none" fill-opacity="1" stroke="#009dc9" stroke-opacity="1" data-original-stroke-color="#231f20ff" stroke-width="2" data-original-stroke-width="2"/><path d="m20.89 53.11v-11.77" fill="none" fill-opacity="1" stroke="#009dc9" stroke-opacity="1" data-original-stroke-color="#231f20ff" stroke-width="2" data-original-stroke-width="2"/><path d="m11.61 46.17v11.76" fill="none" fill-opacity="1" stroke="#009dc9" stroke-opacity="1" data-original-stroke-color="#231f20ff" stroke-width="2" data-original-stroke-width="2"/></g><g><g><path d="m12.92 37.19v-31.12h25.44" fill="none" fill-opacity="1" stroke="#009dc9" stroke-opacity="1" data-original-stroke-color="#231f20ff" stroke-width="2" data-original-stroke-width="2"/><path d="m43.98 33.62v18.15h-23.09" fill="none" fill-opacity="1" stroke="#009dc9" stroke-opacity="1" data-original-stroke-color="#231f20ff" stroke-width="2" data-original-stroke-width="2"/><path d="m43.98 17.94v-5.56" fill="none" fill-opacity="1" stroke="#009dc9" stroke-opacity="1" data-original-stroke-color="#231f20ff" stroke-width="2" data-original-stroke-width="2"/><path d="m38.36 6.07v6.31h5.62z" fill="none" fill-opacity="1" stroke="#009dc9" stroke-opacity="1" data-original-stroke-color="#231f20ff" stroke-width="2" data-original-stroke-width="2"/></g><g><path d="m46.4 31.88c3.31 2.24 7.79 2.29 11.22-.19 4.38-3.17 5.36-9.29 2.19-13.67s-9.3-5.37-13.68-2.2c-3.43 2.48-4.77 6.76-3.67 10.61" fill="none" fill-opacity="1" stroke="#009dc9" stroke-opacity="1" data-original-stroke-color="#231f20ff" stroke-width="2" data-original-stroke-width="2"/><path d="m46.4 31.88-3.38 2.44-2.93.66-2.08 2.97-2.12 1.54-2.25.1-.88 2.16-2.52 1.83-6.26.38 2.31-5.83 16.16-11.7" fill="none" fill-opacity="1" stroke="#009dc9" stroke-opacity="1" data-original-stroke-color="#231f20ff" stroke-width="2" data-original-stroke-width="2"/><circle cx="51.87" cy="23.76" r="3.86" fill="none" fill-opacity="1" stroke="#009dc9" stroke-opacity="1" data-original-stroke-color="#231f20ff" stroke-width="2" data-original-stroke-width="2"/></g><path d="m17.45 15.16h8.37" fill="none" fill-opacity="1" stroke="#009dc9" stroke-opacity="1" data-original-stroke-color="#231f20ff" stroke-width="2" data-original-stroke-width="2"/><path d="m17.45 21.28h11.58" fill="none" fill-opacity="1" stroke="#009dc9" stroke-opacity="1" data-original-stroke-color="#231f20ff" stroke-width="2" data-original-stroke-width="2"/><path d="m32.24 21.28h1.53" fill="none" fill-opacity="1" stroke="#009dc9" stroke-opacity="1" data-original-stroke-color="#231f20ff" stroke-width="2" data-original-stroke-width="2"/><path d="m17.45 26.43h11.58" fill="none" fill-opacity="1" stroke="#009dc9" stroke-opacity="1" data-original-stroke-color="#231f20ff" stroke-width="2" data-original-stroke-width="2"/><path d="m17.45 32.45h7.1" fill="none" fill-opacity="1" stroke="#009dc9" stroke-opacity="1" data-original-stroke-color="#231f20ff" stroke-width="2" data-original-stroke-width="2"/><path d="m32.24 26.43h1.53" fill="none" fill-opacity="1" stroke="#009dc9" stroke-opacity="1" data-original-stroke-color="#231f20ff" stroke-width="2" data-original-stroke-width="2"/></g></g></g></svg>