<svg id="bold" height="300" viewBox="0 0 24 24" width="300" xmlns="http://www.w3.org/2000/svg" version="1.1" xmlns:xlink="http://www.w3.org/1999/xlink" xmlns:svgjs="http://svgjs.dev/svgjs"><g width="100%" height="100%" transform="matrix(1,0,0,1,0,0)"><path d="m23.491 11.826-5.25-1.786c-.156-.054-.326-.054-.482 0l-5.25 1.786c-.305.103-.509.388-.509.71v4.018c0 4.904 5.474 7.288 5.707 7.387.188.079.398.079.586 0 .233-.1 5.707-2.483 5.707-7.387v-4.018c0-.322-.204-.607-.509-.71zm-2.205 3.792-2.75 3.5c-.35.447-1.006.512-1.437.142l-1.75-1.5c-.42-.359-.469-.991-.108-1.41.359-.419.991-.467 1.409-.108l.958.821 2.105-2.679c.341-.434.969-.511 1.404-.168.435.339.511.968.169 1.402z" fill="#009dc9" fill-opacity="1" data-original-color="#000000ff" stroke="none" stroke-opacity="1"/><path d="m1.5 19.5v-3h4 4.5v-3.25h-1.25c-.414 0-.75-.336-.75-.75s.336-.75.75-.75h1.369c.184-.615.579-1.144 1.115-1.5h-2.484c-.414 0-.75-.336-.75-.75s.336-.75.75-.75h2.5v-1.5h-2.5c-.414 0-.75-.336-.75-.75s.336-.75.75-.75h2.5v-1.5h-2.5c-.414 0-.75-.336-.75-.75s.336-.75.75-.75h2.5v-2c0-.414-.336-.75-.75-.75h-5c-.414 0-.75.336-.75.75v2h-2c-.414 0-.75.336-.75.75v11.5h-1.25c-.414 0-.75.336-.75.75v4.5c0 .414.336.75.75.75h10.515c-.282-.465-.533-.962-.733-1.5zm2-15.25h1.25v1.5h-1.25zm0 3h1.25v1.5h-1.25zm0 3h1.25v1.5h-1.25zm0 3h1.25v1.75h-1.25z" fill="#009dc9" fill-opacity="1" data-original-color="#000000ff" stroke="none" stroke-opacity="1"/></g></svg>