<?xml version="1.0" encoding="utf-8"?>
<!-- Generator: Adobe Illustrator 27.5.0, SVG Export Plug-In . SVG Version: 6.00 Build 0)  -->
<svg version="1.1" xmlns="http://www.w3.org/2000/svg" xmlns:xlink="http://www.w3.org/1999/xlink" x="0px" y="0px"
	 viewBox="0 0 500 500" style="enable-background:new 0 0 500 500;" xml:space="preserve">
<g id="Background_Complete">
	<g>
		<rect y="382.398" style="fill:#EBEBEB;" width="500" height="0.25"/>
		<rect x="416.779" y="398.494" style="fill:#EBEBEB;" width="33.122" height="0.25"/>
		<rect x="322.527" y="401.208" style="fill:#EBEBEB;" width="8.693" height="0.25"/>
		<rect x="396.586" y="389.208" style="fill:#EBEBEB;" width="19.192" height="0.25"/>
		<rect x="52.459" y="390.888" style="fill:#EBEBEB;" width="43.193" height="0.25"/>
		<rect x="104.556" y="390.888" style="fill:#EBEBEB;" width="6.333" height="0.25"/>
		<rect x="131.471" y="395.111" style="fill:#EBEBEB;" width="93.676" height="0.25"/>
		<path style="fill:#EBEBEB;" d="M237.014,337.8H43.915c-3.147,0-5.708-2.561-5.708-5.708V60.66c0-3.147,2.561-5.708,5.708-5.708
			h193.099c3.146,0,5.707,2.561,5.707,5.708v271.432C242.721,335.239,240.16,337.8,237.014,337.8z M43.915,55.203
			c-3.01,0-5.458,2.448-5.458,5.458v271.432c0,3.01,2.448,5.458,5.458,5.458h193.099c3.009,0,5.457-2.448,5.457-5.458V60.66
			c0-3.009-2.448-5.458-5.457-5.458H43.915z"/>
		<path style="fill:#EBEBEB;" d="M453.31,337.8H260.212c-3.147,0-5.707-2.561-5.707-5.708V60.66c0-3.147,2.561-5.708,5.707-5.708
			H453.31c3.148,0,5.708,2.561,5.708,5.708v271.432C459.019,335.239,456.458,337.8,453.31,337.8z M260.212,55.203
			c-3.009,0-5.457,2.448-5.457,5.458v271.432c0,3.01,2.448,5.458,5.457,5.458H453.31c3.01,0,5.458-2.448,5.458-5.458V60.66
			c0-3.009-2.448-5.458-5.458-5.458H260.212z"/>
	</g>
	<g>
		<g>
			<polygon style="fill:#EBEBEB;" points="63.384,381.709 63.384,335.338 67.349,335.338 67.349,313.244 73.145,313.244 
				73.145,236.423 81.523,236.423 81.523,226.51 99.413,218.167 99.413,208.172 101.891,208.172 101.891,236.423 105.36,236.423 
				105.36,313.244 108.829,313.244 108.829,272.851 118.246,272.851 118.246,252.035 120.874,252.035 120.874,313.244 
				128.026,313.244 128.026,289.95 132.734,289.95 132.734,284.002 143.638,284.002 143.638,263.682 149.609,263.682 
				149.609,249.309 156.949,249.309 156.949,228.369 159.569,228.369 159.569,249.309 166.909,249.309 166.909,263.682 
				172.88,263.682 172.88,284.002 183.783,284.002 183.783,289.95 188.492,289.95 188.492,313.244 194.076,313.244 194.076,284.002 
				204.98,284.002 204.98,221.058 208.449,221.058 208.449,214.12 231.743,214.12 231.743,221.058 236.7,221.058 236.7,266.655 
				256.525,266.655 256.525,271.116 263.959,271.116 263.959,274.585 256.525,274.585 256.525,292.428 277.341,292.428 
				277.341,232.953 281.801,232.953 281.801,220.315 291.466,220.315 291.466,175.461 294.192,175.461 294.192,220.315 
				301.13,220.315 301.13,232.953 341.809,232.953 341.809,228.793 344.287,228.793 344.287,257.044 347.757,257.044 
				347.757,257.539 349.84,257.539 349.84,285.79 353.31,285.79 353.31,293.472 360.643,293.472 360.643,272.656 363.27,272.656 
				363.27,322.218 366.196,322.218 366.196,301.402 368.824,301.402 368.824,333.865 370.422,333.865 370.422,310.571 
				375.131,310.571 375.131,304.623 386.035,304.623 386.035,284.303 392.006,284.303 392.006,269.93 399.346,269.93 
				399.346,248.99 401.965,248.99 401.965,269.93 409.305,269.93 409.305,284.303 415.276,284.303 415.276,304.623 426.18,304.623 
				426.18,310.571 430.888,310.571 430.888,333.369 431.733,333.369 431.733,333.865 434.065,333.865 434.065,381.709 			"/>
			<g>
				<rect x="316.303" y="235.732" style="fill:#F5F5F5;" width="2.809" height="2.809"/>
				<rect x="316.303" y="240.441" style="fill:#F5F5F5;" width="2.809" height="2.809"/>
				<rect x="316.303" y="259.274" style="fill:#F5F5F5;" width="2.809" height="2.809"/>
				<rect x="316.303" y="263.983" style="fill:#F5F5F5;" width="2.809" height="2.809"/>
				<rect x="316.303" y="268.691" style="fill:#F5F5F5;" width="2.809" height="2.809"/>
				<rect x="316.303" y="282.816" style="fill:#F5F5F5;" width="2.809" height="2.809"/>
				<rect x="316.303" y="287.525" style="fill:#F5F5F5;" width="2.809" height="2.809"/>
				<rect x="311.843" y="254.566" style="fill:#F5F5F5;" width="2.809" height="2.809"/>
				<rect x="311.843" y="259.274" style="fill:#F5F5F5;" width="2.809" height="2.809"/>
				<rect x="311.843" y="263.983" style="fill:#F5F5F5;" width="2.809" height="2.809"/>
				<rect x="311.843" y="268.691" style="fill:#F5F5F5;" width="2.809" height="2.809"/>
				<rect x="311.843" y="273.4" style="fill:#F5F5F5;" width="2.809" height="2.809"/>
				<rect x="311.843" y="282.816" style="fill:#F5F5F5;" width="2.809" height="2.809"/>
				<rect x="311.843" y="287.525" style="fill:#F5F5F5;" width="2.809" height="2.809"/>
				<rect x="307.382" y="235.732" style="fill:#F5F5F5;" width="2.809" height="2.809"/>
				<rect x="307.382" y="240.441" style="fill:#F5F5F5;" width="2.809" height="2.809"/>
				<rect x="307.382" y="245.149" style="fill:#F5F5F5;" width="2.809" height="2.809"/>
				<rect x="307.382" y="249.857" style="fill:#F5F5F5;" width="2.809" height="2.809"/>
				<rect x="307.382" y="254.566" style="fill:#F5F5F5;" width="2.809" height="2.809"/>
				<rect x="307.382" y="259.274" style="fill:#F5F5F5;" width="2.809" height="2.809"/>
				<rect x="307.382" y="263.983" style="fill:#F5F5F5;" width="2.809" height="2.809"/>
				<rect x="307.382" y="268.691" style="fill:#F5F5F5;" width="2.809" height="2.809"/>
				<rect x="307.382" y="273.4" style="fill:#F5F5F5;" width="2.809" height="2.809"/>
				<rect x="307.382" y="278.108" style="fill:#F5F5F5;" width="2.809" height="2.809"/>
				<rect x="307.382" y="287.525" style="fill:#F5F5F5;" width="2.809" height="2.809"/>
				<rect x="302.922" y="235.732" style="fill:#F5F5F5;" width="2.809" height="2.809"/>
				<rect x="302.922" y="240.441" style="fill:#F5F5F5;" width="2.809" height="2.809"/>
				<rect x="302.922" y="245.149" style="fill:#F5F5F5;" width="2.809" height="2.809"/>
				<rect x="302.922" y="249.857" style="fill:#F5F5F5;" width="2.809" height="2.809"/>
				<rect x="302.922" y="254.566" style="fill:#F5F5F5;" width="2.809" height="2.809"/>
				<rect x="302.922" y="259.274" style="fill:#F5F5F5;" width="2.809" height="2.809"/>
				<rect x="302.922" y="263.983" style="fill:#F5F5F5;" width="2.809" height="2.809"/>
				<rect x="302.922" y="306.358" style="fill:#F5F5F5;" width="2.809" height="2.809"/>
				<rect x="298.461" y="235.732" style="fill:#F5F5F5;" width="2.809" height="2.809"/>
				<rect x="298.461" y="240.441" style="fill:#F5F5F5;" width="2.809" height="2.809"/>
				<rect x="298.461" y="245.149" style="fill:#F5F5F5;" width="2.809" height="2.809"/>
				<rect x="298.461" y="249.857" style="fill:#F5F5F5;" width="2.809" height="2.809"/>
				<rect x="298.461" y="254.566" style="fill:#F5F5F5;" width="2.809" height="2.809"/>
				<rect x="298.461" y="259.274" style="fill:#F5F5F5;" width="2.809" height="2.809"/>
				<rect x="298.461" y="263.983" style="fill:#F5F5F5;" width="2.809" height="2.809"/>
				<rect x="298.461" y="268.691" style="fill:#F5F5F5;" width="2.809" height="2.809"/>
				<rect x="298.461" y="296.941" style="fill:#F5F5F5;" width="2.809" height="2.809"/>
				<rect x="298.461" y="301.65" style="fill:#F5F5F5;" width="2.809" height="2.809"/>
				<rect x="298.461" y="306.358" style="fill:#F5F5F5;" width="2.809" height="2.809"/>
				<rect x="298.461" y="311.067" style="fill:#F5F5F5;" width="2.809" height="2.809"/>
				<rect x="298.461" y="329.9" style="fill:#F5F5F5;" width="2.809" height="2.809"/>
				<rect x="294" y="235.732" style="fill:#F5F5F5;" width="2.809" height="2.809"/>
				<rect x="294" y="240.441" style="fill:#F5F5F5;" width="2.809" height="2.809"/>
				<rect x="294" y="245.149" style="fill:#F5F5F5;" width="2.809" height="2.809"/>
				<rect x="294" y="249.857" style="fill:#F5F5F5;" width="2.809" height="2.809"/>
				<rect x="294" y="254.566" style="fill:#F5F5F5;" width="2.809" height="2.809"/>
				<rect x="294" y="259.274" style="fill:#F5F5F5;" width="2.809" height="2.809"/>
				<rect x="294" y="263.983" style="fill:#F5F5F5;" width="2.809" height="2.809"/>
				<rect x="294" y="268.691" style="fill:#F5F5F5;" width="2.809" height="2.809"/>
				<rect x="294" y="273.4" style="fill:#F5F5F5;" width="2.809" height="2.809"/>
				<rect x="294" y="278.108" style="fill:#F5F5F5;" width="2.809" height="2.809"/>
				<rect x="294" y="292.233" style="fill:#F5F5F5;" width="2.809" height="2.809"/>
				<rect x="294" y="296.941" style="fill:#F5F5F5;" width="2.809" height="2.809"/>
				<rect x="294" y="301.65" style="fill:#F5F5F5;" width="2.809" height="2.809"/>
				<rect x="294" y="306.358" style="fill:#F5F5F5;" width="2.809" height="2.809"/>
				<rect x="294" y="311.067" style="fill:#F5F5F5;" width="2.809" height="2.809"/>
				<rect x="294" y="329.9" style="fill:#F5F5F5;" width="2.809" height="2.809"/>
				<rect x="289.54" y="235.732" style="fill:#F5F5F5;" width="2.809" height="2.809"/>
				<rect x="289.54" y="240.441" style="fill:#F5F5F5;" width="2.809" height="2.809"/>
				<rect x="289.54" y="245.149" style="fill:#F5F5F5;" width="2.809" height="2.809"/>
				<rect x="289.54" y="249.857" style="fill:#F5F5F5;" width="2.809" height="2.809"/>
				<rect x="289.54" y="254.566" style="fill:#F5F5F5;" width="2.809" height="2.809"/>
				<rect x="289.54" y="259.274" style="fill:#F5F5F5;" width="2.809" height="2.809"/>
				<rect x="289.54" y="263.983" style="fill:#F5F5F5;" width="2.809" height="2.809"/>
				<rect x="289.54" y="268.691" style="fill:#F5F5F5;" width="2.809" height="2.809"/>
				<rect x="289.54" y="273.4" style="fill:#F5F5F5;" width="2.809" height="2.809"/>
				<rect x="289.54" y="278.108" style="fill:#F5F5F5;" width="2.809" height="2.809"/>
				<rect x="289.54" y="282.816" style="fill:#F5F5F5;" width="2.809" height="2.809"/>
				<rect x="289.54" y="287.525" style="fill:#F5F5F5;" width="2.809" height="2.809"/>
				<rect x="289.54" y="292.233" style="fill:#F5F5F5;" width="2.809" height="2.809"/>
				<rect x="289.54" y="296.941" style="fill:#F5F5F5;" width="2.809" height="2.809"/>
				<rect x="289.54" y="301.65" style="fill:#F5F5F5;" width="2.809" height="2.809"/>
				<rect x="289.54" y="306.358" style="fill:#F5F5F5;" width="2.809" height="2.809"/>
				<rect x="289.54" y="311.067" style="fill:#F5F5F5;" width="2.809" height="2.809"/>
				<rect x="289.54" y="315.775" style="fill:#F5F5F5;" width="2.809" height="2.809"/>
				<rect x="285.079" y="235.732" style="fill:#F5F5F5;" width="2.809" height="2.809"/>
				<rect x="285.079" y="240.441" style="fill:#F5F5F5;" width="2.809" height="2.809"/>
				<rect x="285.079" y="245.149" style="fill:#F5F5F5;" width="2.809" height="2.809"/>
				<rect x="285.079" y="249.857" style="fill:#F5F5F5;" width="2.809" height="2.809"/>
				<rect x="285.079" y="254.566" style="fill:#F5F5F5;" width="2.809" height="2.809"/>
				<rect x="285.079" y="259.274" style="fill:#F5F5F5;" width="2.809" height="2.809"/>
				<rect x="285.079" y="263.983" style="fill:#F5F5F5;" width="2.809" height="2.809"/>
				<rect x="285.079" y="268.691" style="fill:#F5F5F5;" width="2.809" height="2.809"/>
				<rect x="285.079" y="273.4" style="fill:#F5F5F5;" width="2.809" height="2.809"/>
				<rect x="285.079" y="278.108" style="fill:#F5F5F5;" width="2.809" height="2.809"/>
				<rect x="285.079" y="292.233" style="fill:#F5F5F5;" width="2.809" height="2.809"/>
				<rect x="285.079" y="296.941" style="fill:#F5F5F5;" width="2.809" height="2.809"/>
				<rect x="285.079" y="301.65" style="fill:#F5F5F5;" width="2.809" height="2.809"/>
				<rect x="285.079" y="306.358" style="fill:#F5F5F5;" width="2.809" height="2.809"/>
				<rect x="280.619" y="235.732" style="fill:#F5F5F5;" width="2.809" height="2.809"/>
				<rect x="280.619" y="240.441" style="fill:#F5F5F5;" width="2.809" height="2.809"/>
				<rect x="280.619" y="245.149" style="fill:#F5F5F5;" width="2.809" height="2.809"/>
				<rect x="280.619" y="249.857" style="fill:#F5F5F5;" width="2.809" height="2.809"/>
				<rect x="280.619" y="254.566" style="fill:#F5F5F5;" width="2.809" height="2.809"/>
				<rect x="280.619" y="259.274" style="fill:#F5F5F5;" width="2.809" height="2.809"/>
				<rect x="280.619" y="263.983" style="fill:#F5F5F5;" width="2.809" height="2.809"/>
				<rect x="280.619" y="268.691" style="fill:#F5F5F5;" width="2.809" height="2.809"/>
				<rect x="280.619" y="273.4" style="fill:#F5F5F5;" width="2.809" height="2.809"/>
				<rect x="280.619" y="278.108" style="fill:#F5F5F5;" width="2.809" height="2.809"/>
				<rect x="280.619" y="292.233" style="fill:#F5F5F5;" width="2.809" height="2.809"/>
				<rect x="280.619" y="296.941" style="fill:#F5F5F5;" width="2.809" height="2.809"/>
				<rect x="280.619" y="301.65" style="fill:#F5F5F5;" width="2.809" height="2.809"/>
				<rect x="230.396" y="223.507" style="fill:#F5F5F5;" width="2.809" height="2.809"/>
				<rect x="230.396" y="228.215" style="fill:#F5F5F5;" width="2.809" height="2.809"/>
				<rect x="230.396" y="232.924" style="fill:#F5F5F5;" width="2.809" height="2.809"/>
				<rect x="230.396" y="237.632" style="fill:#F5F5F5;" width="2.809" height="2.809"/>
				<rect x="230.396" y="242.341" style="fill:#F5F5F5;" width="2.809" height="2.809"/>
				<rect x="230.396" y="247.049" style="fill:#F5F5F5;" width="2.809" height="2.809"/>
				<rect x="230.396" y="251.757" style="fill:#F5F5F5;" width="2.809" height="2.809"/>
				<rect x="230.396" y="256.466" style="fill:#F5F5F5;" width="2.809" height="2.809"/>
				<rect x="230.396" y="270.591" style="fill:#F5F5F5;" width="2.809" height="2.809"/>
				<rect x="230.396" y="275.299" style="fill:#F5F5F5;" width="2.809" height="2.809"/>
				<rect x="225.935" y="223.507" style="fill:#F5F5F5;" width="2.809" height="2.809"/>
				<rect x="225.935" y="228.215" style="fill:#F5F5F5;" width="2.809" height="2.809"/>
				<rect x="225.935" y="232.924" style="fill:#F5F5F5;" width="2.809" height="2.809"/>
				<rect x="225.935" y="237.632" style="fill:#F5F5F5;" width="2.809" height="2.809"/>
				<rect x="225.935" y="242.341" style="fill:#F5F5F5;" width="2.809" height="2.809"/>
				<rect x="225.935" y="247.049" style="fill:#F5F5F5;" width="2.809" height="2.809"/>
				<rect x="225.935" y="251.757" style="fill:#F5F5F5;" width="2.809" height="2.809"/>
				<rect x="225.935" y="256.466" style="fill:#F5F5F5;" width="2.809" height="2.809"/>
				<rect x="225.935" y="275.299" style="fill:#F5F5F5;" width="2.809" height="2.809"/>
				<rect x="221.475" y="223.507" style="fill:#F5F5F5;" width="2.809" height="2.809"/>
				<rect x="221.475" y="228.215" style="fill:#F5F5F5;" width="2.809" height="2.809"/>
				<rect x="221.475" y="232.924" style="fill:#F5F5F5;" width="2.809" height="2.809"/>
				<rect x="221.475" y="237.632" style="fill:#F5F5F5;" width="2.809" height="2.809"/>
				<rect x="221.475" y="242.341" style="fill:#F5F5F5;" width="2.809" height="2.809"/>
				<rect x="221.475" y="247.049" style="fill:#F5F5F5;" width="2.809" height="2.809"/>
				<rect x="221.475" y="251.757" style="fill:#F5F5F5;" width="2.809" height="2.809"/>
				<rect x="221.475" y="256.466" style="fill:#F5F5F5;" width="2.809" height="2.809"/>
				<rect x="217.014" y="223.507" style="fill:#F5F5F5;" width="2.809" height="2.809"/>
				<rect x="217.014" y="228.215" style="fill:#F5F5F5;" width="2.809" height="2.809"/>
				<rect x="217.014" y="232.924" style="fill:#F5F5F5;" width="2.809" height="2.809"/>
				<rect x="217.014" y="237.632" style="fill:#F5F5F5;" width="2.809" height="2.809"/>
				<rect x="217.014" y="242.341" style="fill:#F5F5F5;" width="2.809" height="2.809"/>
				<rect x="217.014" y="247.049" style="fill:#F5F5F5;" width="2.809" height="2.809"/>
				<rect x="217.014" y="256.466" style="fill:#F5F5F5;" width="2.809" height="2.809"/>
				<rect x="217.014" y="261.174" style="fill:#F5F5F5;" width="2.809" height="2.809"/>
				<rect x="217.014" y="275.299" style="fill:#F5F5F5;" width="2.809" height="2.809"/>
				<rect x="217.014" y="280.008" style="fill:#F5F5F5;" width="2.809" height="2.809"/>
				<rect x="217.014" y="284.716" style="fill:#F5F5F5;" width="2.809" height="2.809"/>
				<rect x="217.014" y="289.425" style="fill:#F5F5F5;" width="2.809" height="2.809"/>
				<rect x="217.014" y="294.133" style="fill:#F5F5F5;" width="2.809" height="2.808"/>
				<rect x="217.014" y="298.841" style="fill:#F5F5F5;" width="2.809" height="2.809"/>
				<rect x="217.014" y="303.55" style="fill:#F5F5F5;" width="2.809" height="2.809"/>
				<rect x="212.553" y="223.507" style="fill:#F5F5F5;" width="2.809" height="2.809"/>
				<rect x="212.553" y="228.215" style="fill:#F5F5F5;" width="2.809" height="2.809"/>
				<rect x="212.553" y="232.924" style="fill:#F5F5F5;" width="2.809" height="2.809"/>
				<rect x="212.553" y="237.632" style="fill:#F5F5F5;" width="2.809" height="2.809"/>
				<rect x="212.553" y="242.341" style="fill:#F5F5F5;" width="2.809" height="2.809"/>
				<rect x="212.553" y="247.049" style="fill:#F5F5F5;" width="2.809" height="2.809"/>
				<rect x="212.553" y="261.174" style="fill:#F5F5F5;" width="2.809" height="2.809"/>
				<rect x="212.553" y="265.883" style="fill:#F5F5F5;" width="2.809" height="2.809"/>
				<rect x="212.553" y="270.591" style="fill:#F5F5F5;" width="2.809" height="2.809"/>
				<rect x="212.553" y="275.299" style="fill:#F5F5F5;" width="2.809" height="2.809"/>
				<rect x="212.553" y="280.008" style="fill:#F5F5F5;" width="2.809" height="2.809"/>
				<rect x="212.553" y="284.716" style="fill:#F5F5F5;" width="2.809" height="2.809"/>
				<rect x="212.553" y="289.425" style="fill:#F5F5F5;" width="2.809" height="2.809"/>
				<rect x="212.553" y="294.133" style="fill:#F5F5F5;" width="2.809" height="2.808"/>
				<rect x="212.553" y="298.841" style="fill:#F5F5F5;" width="2.809" height="2.809"/>
				<rect x="212.553" y="303.55" style="fill:#F5F5F5;" width="2.809" height="2.809"/>
				<rect x="212.553" y="308.258" style="fill:#F5F5F5;" width="2.809" height="2.809"/>
				<rect x="212.553" y="317.675" style="fill:#F5F5F5;" width="2.809" height="2.808"/>
				<rect x="208.093" y="223.507" style="fill:#F5F5F5;" width="2.809" height="2.809"/>
				<rect x="208.093" y="228.215" style="fill:#F5F5F5;" width="2.809" height="2.809"/>
				<rect x="208.093" y="232.924" style="fill:#F5F5F5;" width="2.809" height="2.809"/>
				<rect x="208.093" y="237.632" style="fill:#F5F5F5;" width="2.809" height="2.809"/>
				<rect x="208.093" y="242.341" style="fill:#F5F5F5;" width="2.809" height="2.809"/>
				<rect x="208.093" y="247.049" style="fill:#F5F5F5;" width="2.809" height="2.809"/>
				<rect x="208.093" y="261.174" style="fill:#F5F5F5;" width="2.809" height="2.809"/>
				<rect x="208.093" y="265.883" style="fill:#F5F5F5;" width="2.809" height="2.809"/>
				<rect x="208.093" y="270.591" style="fill:#F5F5F5;" width="2.809" height="2.809"/>
				<rect x="208.093" y="275.299" style="fill:#F5F5F5;" width="2.809" height="2.809"/>
				<rect x="208.093" y="289.425" style="fill:#F5F5F5;" width="2.809" height="2.809"/>
				<rect x="208.093" y="294.133" style="fill:#F5F5F5;" width="2.809" height="2.808"/>
				<rect x="208.093" y="298.841" style="fill:#F5F5F5;" width="2.809" height="2.809"/>
				<rect x="208.093" y="303.55" style="fill:#F5F5F5;" width="2.809" height="2.809"/>
				<rect x="208.093" y="308.258" style="fill:#F5F5F5;" width="2.809" height="2.809"/>
				<rect x="208.093" y="317.675" style="fill:#F5F5F5;" width="2.809" height="2.808"/>
				<rect x="208.093" y="322.383" style="fill:#F5F5F5;" width="2.809" height="2.809"/>
				<rect x="167.617" y="267.287" style="fill:#F5F5F5;" width="2.809" height="2.809"/>
				<rect x="167.617" y="271.995" style="fill:#F5F5F5;" width="2.809" height="2.809"/>
				<rect x="167.617" y="276.704" style="fill:#F5F5F5;" width="2.809" height="2.809"/>
				<rect x="167.617" y="281.412" style="fill:#F5F5F5;" width="2.809" height="2.809"/>
				<rect x="167.617" y="286.121" style="fill:#F5F5F5;" width="2.809" height="2.809"/>
				<rect x="167.617" y="290.829" style="fill:#F5F5F5;" width="2.809" height="2.809"/>
				<rect x="167.617" y="295.537" style="fill:#F5F5F5;" width="2.809" height="2.809"/>
				<rect x="167.617" y="309.663" style="fill:#F5F5F5;" width="2.809" height="2.809"/>
				<rect x="167.617" y="314.371" style="fill:#F5F5F5;" width="2.809" height="2.809"/>
				<rect x="167.617" y="319.079" style="fill:#F5F5F5;" width="2.809" height="2.809"/>
				<rect x="163.156" y="267.287" style="fill:#F5F5F5;" width="2.809" height="2.809"/>
				<rect x="163.156" y="271.995" style="fill:#F5F5F5;" width="2.809" height="2.809"/>
				<rect x="163.156" y="276.704" style="fill:#F5F5F5;" width="2.809" height="2.809"/>
				<rect x="163.156" y="281.412" style="fill:#F5F5F5;" width="2.809" height="2.809"/>
				<rect x="163.156" y="286.121" style="fill:#F5F5F5;" width="2.809" height="2.809"/>
				<rect x="163.156" y="290.829" style="fill:#F5F5F5;" width="2.809" height="2.809"/>
				<rect x="163.156" y="295.537" style="fill:#F5F5F5;" width="2.809" height="2.809"/>
				<rect x="158.696" y="267.287" style="fill:#F5F5F5;" width="2.809" height="2.809"/>
				<rect x="158.696" y="271.995" style="fill:#F5F5F5;" width="2.809" height="2.809"/>
				<rect x="158.696" y="276.704" style="fill:#F5F5F5;" width="2.809" height="2.809"/>
				<rect x="158.696" y="281.412" style="fill:#F5F5F5;" width="2.809" height="2.809"/>
				<rect x="158.696" y="286.121" style="fill:#F5F5F5;" width="2.809" height="2.809"/>
				<rect x="158.696" y="290.829" style="fill:#F5F5F5;" width="2.809" height="2.809"/>
				<rect x="158.696" y="295.537" style="fill:#F5F5F5;" width="2.809" height="2.809"/>
				<rect x="154.235" y="267.287" style="fill:#F5F5F5;" width="2.809" height="2.809"/>
				<rect x="154.235" y="271.995" style="fill:#F5F5F5;" width="2.809" height="2.809"/>
				<rect x="154.235" y="276.704" style="fill:#F5F5F5;" width="2.809" height="2.809"/>
				<rect x="154.235" y="281.412" style="fill:#F5F5F5;" width="2.809" height="2.809"/>
				<rect x="154.235" y="286.121" style="fill:#F5F5F5;" width="2.809" height="2.809"/>
				<rect x="154.235" y="290.829" style="fill:#F5F5F5;" width="2.809" height="2.809"/>
				<rect x="154.235" y="295.537" style="fill:#F5F5F5;" width="2.809" height="2.809"/>
				<rect x="154.235" y="300.246" style="fill:#F5F5F5;" width="2.809" height="2.809"/>
				<rect x="154.235" y="304.954" style="fill:#F5F5F5;" width="2.809" height="2.808"/>
				<rect x="154.235" y="309.663" style="fill:#F5F5F5;" width="2.809" height="2.809"/>
				<rect x="154.235" y="314.371" style="fill:#F5F5F5;" width="2.809" height="2.809"/>
				<rect x="149.775" y="267.287" style="fill:#F5F5F5;" width="2.809" height="2.809"/>
				<rect x="149.775" y="271.995" style="fill:#F5F5F5;" width="2.809" height="2.809"/>
				<rect x="149.775" y="276.704" style="fill:#F5F5F5;" width="2.809" height="2.809"/>
				<rect x="149.775" y="281.412" style="fill:#F5F5F5;" width="2.809" height="2.809"/>
				<rect x="149.775" y="286.121" style="fill:#F5F5F5;" width="2.809" height="2.809"/>
				<rect x="149.775" y="290.829" style="fill:#F5F5F5;" width="2.809" height="2.809"/>
				<rect x="149.775" y="295.537" style="fill:#F5F5F5;" width="2.809" height="2.809"/>
				<rect x="149.775" y="300.246" style="fill:#F5F5F5;" width="2.809" height="2.809"/>
				<rect x="149.775" y="304.954" style="fill:#F5F5F5;" width="2.809" height="2.808"/>
				<rect x="149.775" y="309.663" style="fill:#F5F5F5;" width="2.809" height="2.809"/>
				<rect x="149.775" y="314.371" style="fill:#F5F5F5;" width="2.809" height="2.809"/>
				<rect x="149.775" y="319.079" style="fill:#F5F5F5;" width="2.809" height="2.809"/>
				<rect x="149.775" y="333.204" style="fill:#F5F5F5;" width="2.809" height="2.809"/>
				<rect x="149.775" y="337.913" style="fill:#F5F5F5;" width="2.809" height="2.809"/>
				<rect x="145.314" y="267.287" style="fill:#F5F5F5;" width="2.809" height="2.809"/>
				<rect x="145.314" y="271.995" style="fill:#F5F5F5;" width="2.809" height="2.809"/>
				<rect x="145.314" y="276.704" style="fill:#F5F5F5;" width="2.809" height="2.809"/>
				<rect x="145.314" y="290.829" style="fill:#F5F5F5;" width="2.809" height="2.809"/>
				<rect x="145.314" y="295.537" style="fill:#F5F5F5;" width="2.809" height="2.809"/>
				<rect x="145.314" y="300.246" style="fill:#F5F5F5;" width="2.809" height="2.809"/>
				<rect x="145.314" y="304.954" style="fill:#F5F5F5;" width="2.809" height="2.808"/>
				<rect x="145.314" y="309.663" style="fill:#F5F5F5;" width="2.809" height="2.809"/>
				<rect x="145.314" y="314.371" style="fill:#F5F5F5;" width="2.809" height="2.809"/>
				<rect x="145.314" y="319.079" style="fill:#F5F5F5;" width="2.809" height="2.809"/>
				<rect x="145.314" y="333.204" style="fill:#F5F5F5;" width="2.809" height="2.809"/>
				<rect x="145.314" y="337.913" style="fill:#F5F5F5;" width="2.809" height="2.809"/>
				<rect x="145.314" y="342.621" style="fill:#F5F5F5;" width="2.809" height="2.809"/>
				<rect x="98.561" y="239.036" style="fill:#F5F5F5;" width="2.809" height="2.809"/>
				<rect x="98.561" y="243.745" style="fill:#F5F5F5;" width="2.809" height="2.809"/>
				<rect x="98.561" y="248.453" style="fill:#F5F5F5;" width="2.809" height="2.809"/>
				<rect x="98.561" y="253.162" style="fill:#F5F5F5;" width="2.809" height="2.809"/>
				<rect x="98.561" y="257.87" style="fill:#F5F5F5;" width="2.809" height="2.808"/>
				<rect x="98.561" y="262.578" style="fill:#F5F5F5;" width="2.809" height="2.809"/>
				<rect x="98.561" y="267.287" style="fill:#F5F5F5;" width="2.809" height="2.809"/>
				<rect x="98.561" y="271.995" style="fill:#F5F5F5;" width="2.809" height="2.809"/>
				<rect x="98.561" y="276.704" style="fill:#F5F5F5;" width="2.809" height="2.809"/>
				<rect x="98.561" y="281.412" style="fill:#F5F5F5;" width="2.809" height="2.809"/>
				<rect x="98.561" y="286.121" style="fill:#F5F5F5;" width="2.809" height="2.809"/>
				<rect x="98.561" y="290.829" style="fill:#F5F5F5;" width="2.809" height="2.809"/>
				<rect x="98.561" y="295.537" style="fill:#F5F5F5;" width="2.809" height="2.809"/>
				<rect x="98.561" y="300.246" style="fill:#F5F5F5;" width="2.809" height="2.809"/>
				<rect x="98.561" y="304.954" style="fill:#F5F5F5;" width="2.809" height="2.808"/>
				<rect x="98.561" y="309.663" style="fill:#F5F5F5;" width="2.809" height="2.809"/>
				<rect x="98.561" y="314.371" style="fill:#F5F5F5;" width="2.809" height="2.809"/>
				<rect x="98.561" y="319.079" style="fill:#F5F5F5;" width="2.809" height="2.809"/>
				<rect x="98.561" y="323.788" style="fill:#F5F5F5;" width="2.809" height="2.809"/>
				<rect x="98.561" y="328.496" style="fill:#F5F5F5;" width="2.809" height="2.808"/>
				<rect x="98.561" y="333.204" style="fill:#F5F5F5;" width="2.809" height="2.809"/>
				<rect x="98.561" y="337.913" style="fill:#F5F5F5;" width="2.809" height="2.809"/>
				<rect x="98.561" y="342.621" style="fill:#F5F5F5;" width="2.809" height="2.809"/>
				<rect x="94.1" y="239.036" style="fill:#F5F5F5;" width="2.809" height="2.809"/>
				<rect x="94.1" y="243.745" style="fill:#F5F5F5;" width="2.809" height="2.809"/>
				<rect x="94.1" y="248.453" style="fill:#F5F5F5;" width="2.809" height="2.809"/>
				<rect x="94.1" y="253.162" style="fill:#F5F5F5;" width="2.809" height="2.809"/>
				<rect x="94.1" y="257.87" style="fill:#F5F5F5;" width="2.809" height="2.808"/>
				<rect x="94.1" y="262.578" style="fill:#F5F5F5;" width="2.809" height="2.809"/>
				<rect x="94.1" y="267.287" style="fill:#F5F5F5;" width="2.809" height="2.809"/>
				<rect x="94.1" y="271.995" style="fill:#F5F5F5;" width="2.809" height="2.809"/>
				<rect x="94.1" y="276.704" style="fill:#F5F5F5;" width="2.809" height="2.809"/>
				<rect x="94.1" y="281.412" style="fill:#F5F5F5;" width="2.809" height="2.809"/>
				<rect x="94.1" y="286.121" style="fill:#F5F5F5;" width="2.809" height="2.809"/>
				<rect x="94.1" y="290.829" style="fill:#F5F5F5;" width="2.809" height="2.809"/>
				<rect x="94.1" y="295.537" style="fill:#F5F5F5;" width="2.809" height="2.809"/>
				<rect x="94.1" y="300.246" style="fill:#F5F5F5;" width="2.809" height="2.809"/>
				<rect x="94.1" y="304.954" style="fill:#F5F5F5;" width="2.809" height="2.808"/>
				<rect x="94.1" y="309.663" style="fill:#F5F5F5;" width="2.809" height="2.809"/>
				<rect x="94.1" y="314.371" style="fill:#F5F5F5;" width="2.809" height="2.809"/>
				<rect x="94.1" y="319.079" style="fill:#F5F5F5;" width="2.809" height="2.809"/>
				<rect x="94.1" y="323.788" style="fill:#F5F5F5;" width="2.809" height="2.809"/>
				<rect x="89.639" y="239.036" style="fill:#F5F5F5;" width="2.809" height="2.809"/>
				<rect x="89.639" y="243.745" style="fill:#F5F5F5;" width="2.809" height="2.809"/>
				<rect x="89.639" y="248.453" style="fill:#F5F5F5;" width="2.809" height="2.809"/>
				<rect x="89.639" y="253.162" style="fill:#F5F5F5;" width="2.809" height="2.809"/>
				<rect x="89.639" y="257.87" style="fill:#F5F5F5;" width="2.809" height="2.808"/>
				<rect x="89.639" y="262.578" style="fill:#F5F5F5;" width="2.809" height="2.809"/>
				<rect x="89.639" y="267.287" style="fill:#F5F5F5;" width="2.809" height="2.809"/>
				<rect x="89.639" y="271.995" style="fill:#F5F5F5;" width="2.809" height="2.809"/>
				<rect x="89.639" y="276.704" style="fill:#F5F5F5;" width="2.809" height="2.809"/>
				<rect x="89.639" y="281.412" style="fill:#F5F5F5;" width="2.809" height="2.809"/>
				<rect x="89.639" y="286.121" style="fill:#F5F5F5;" width="2.809" height="2.809"/>
				<rect x="89.639" y="290.829" style="fill:#F5F5F5;" width="2.809" height="2.809"/>
				<rect x="89.639" y="295.537" style="fill:#F5F5F5;" width="2.809" height="2.809"/>
				<rect x="89.639" y="300.246" style="fill:#F5F5F5;" width="2.809" height="2.809"/>
				<rect x="89.639" y="304.954" style="fill:#F5F5F5;" width="2.809" height="2.808"/>
				<rect x="89.639" y="309.663" style="fill:#F5F5F5;" width="2.809" height="2.809"/>
				<rect x="89.639" y="314.371" style="fill:#F5F5F5;" width="2.809" height="2.809"/>
				<rect x="89.639" y="319.079" style="fill:#F5F5F5;" width="2.809" height="2.809"/>
				<rect x="89.639" y="323.788" style="fill:#F5F5F5;" width="2.809" height="2.809"/>
				<rect x="85.179" y="239.036" style="fill:#F5F5F5;" width="2.809" height="2.809"/>
				<rect x="85.179" y="243.745" style="fill:#F5F5F5;" width="2.809" height="2.809"/>
				<rect x="85.179" y="248.453" style="fill:#F5F5F5;" width="2.809" height="2.809"/>
				<rect x="85.179" y="253.162" style="fill:#F5F5F5;" width="2.809" height="2.809"/>
				<rect x="85.179" y="257.87" style="fill:#F5F5F5;" width="2.809" height="2.808"/>
				<rect x="85.179" y="262.578" style="fill:#F5F5F5;" width="2.809" height="2.809"/>
				<rect x="85.179" y="267.287" style="fill:#F5F5F5;" width="2.809" height="2.809"/>
				<rect x="85.179" y="271.995" style="fill:#F5F5F5;" width="2.809" height="2.809"/>
				<rect x="85.179" y="276.704" style="fill:#F5F5F5;" width="2.809" height="2.809"/>
				<rect x="85.179" y="281.412" style="fill:#F5F5F5;" width="2.809" height="2.809"/>
				<rect x="85.179" y="286.121" style="fill:#F5F5F5;" width="2.809" height="2.809"/>
				<rect x="85.179" y="290.829" style="fill:#F5F5F5;" width="2.809" height="2.809"/>
				<rect x="85.179" y="295.537" style="fill:#F5F5F5;" width="2.809" height="2.809"/>
				<rect x="85.179" y="300.246" style="fill:#F5F5F5;" width="2.809" height="2.809"/>
				<rect x="85.179" y="304.954" style="fill:#F5F5F5;" width="2.809" height="2.808"/>
				<rect x="80.718" y="239.036" style="fill:#F5F5F5;" width="2.809" height="2.809"/>
				<rect x="80.718" y="243.745" style="fill:#F5F5F5;" width="2.809" height="2.809"/>
				<rect x="80.718" y="248.453" style="fill:#F5F5F5;" width="2.809" height="2.809"/>
				<rect x="80.718" y="253.162" style="fill:#F5F5F5;" width="2.809" height="2.809"/>
				<rect x="80.718" y="257.87" style="fill:#F5F5F5;" width="2.809" height="2.808"/>
				<rect x="80.718" y="262.578" style="fill:#F5F5F5;" width="2.809" height="2.809"/>
				<rect x="80.718" y="267.287" style="fill:#F5F5F5;" width="2.809" height="2.809"/>
				<rect x="80.718" y="271.995" style="fill:#F5F5F5;" width="2.809" height="2.809"/>
				<rect x="80.718" y="276.704" style="fill:#F5F5F5;" width="2.809" height="2.809"/>
				<rect x="80.718" y="281.412" style="fill:#F5F5F5;" width="2.809" height="2.809"/>
				<rect x="80.718" y="286.121" style="fill:#F5F5F5;" width="2.809" height="2.809"/>
				<rect x="80.718" y="290.829" style="fill:#F5F5F5;" width="2.809" height="2.809"/>
				<rect x="80.718" y="295.537" style="fill:#F5F5F5;" width="2.809" height="2.809"/>
				<rect x="76.258" y="239.036" style="fill:#F5F5F5;" width="2.809" height="2.809"/>
				<rect x="76.258" y="243.745" style="fill:#F5F5F5;" width="2.809" height="2.809"/>
				<rect x="76.258" y="248.453" style="fill:#F5F5F5;" width="2.809" height="2.809"/>
				<rect x="76.258" y="253.162" style="fill:#F5F5F5;" width="2.809" height="2.809"/>
				<rect x="76.258" y="257.87" style="fill:#F5F5F5;" width="2.809" height="2.808"/>
				<rect x="76.258" y="262.578" style="fill:#F5F5F5;" width="2.809" height="2.809"/>
				<rect x="76.258" y="267.287" style="fill:#F5F5F5;" width="2.809" height="2.809"/>
				<rect x="76.258" y="271.995" style="fill:#F5F5F5;" width="2.809" height="2.809"/>
				<rect x="76.258" y="276.704" style="fill:#F5F5F5;" width="2.809" height="2.809"/>
				<rect x="76.258" y="281.412" style="fill:#F5F5F5;" width="2.809" height="2.809"/>
				<rect x="76.258" y="286.121" style="fill:#F5F5F5;" width="2.809" height="2.809"/>
				<rect x="76.258" y="290.829" style="fill:#F5F5F5;" width="2.809" height="2.809"/>
				<rect x="404.028" y="273.4" style="fill:#F5F5F5;" width="2.809" height="2.809"/>
				<rect x="404.028" y="278.108" style="fill:#F5F5F5;" width="2.809" height="2.809"/>
				<rect x="404.028" y="282.816" style="fill:#F5F5F5;" width="2.809" height="2.809"/>
				<rect x="404.028" y="287.525" style="fill:#F5F5F5;" width="2.809" height="2.809"/>
				<rect x="404.028" y="292.233" style="fill:#F5F5F5;" width="2.809" height="2.809"/>
				<rect x="404.028" y="296.941" style="fill:#F5F5F5;" width="2.809" height="2.809"/>
				<rect x="404.028" y="301.65" style="fill:#F5F5F5;" width="2.809" height="2.809"/>
				<rect x="404.028" y="306.358" style="fill:#F5F5F5;" width="2.809" height="2.809"/>
				<rect x="404.028" y="311.067" style="fill:#F5F5F5;" width="2.809" height="2.809"/>
				<rect x="404.028" y="315.775" style="fill:#F5F5F5;" width="2.809" height="2.809"/>
				<rect x="404.028" y="320.483" style="fill:#F5F5F5;" width="2.809" height="2.809"/>
				<rect x="404.028" y="325.192" style="fill:#F5F5F5;" width="2.809" height="2.809"/>
				<rect x="404.028" y="329.9" style="fill:#F5F5F5;" width="2.809" height="2.809"/>
				<rect x="404.028" y="334.609" style="fill:#F5F5F5;" width="2.809" height="2.809"/>
				<rect x="404.028" y="339.317" style="fill:#F5F5F5;" width="2.809" height="2.809"/>
				<rect x="404.028" y="344.026" style="fill:#F5F5F5;" width="2.809" height="2.809"/>
				<rect x="404.028" y="348.734" style="fill:#F5F5F5;" width="2.809" height="2.809"/>
				<rect x="404.028" y="353.442" style="fill:#F5F5F5;" width="2.809" height="2.809"/>
				<rect x="404.028" y="358.151" style="fill:#F5F5F5;" width="2.809" height="2.809"/>
				<rect x="404.028" y="362.859" style="fill:#F5F5F5;" width="2.809" height="2.809"/>
				<rect x="399.568" y="273.4" style="fill:#F5F5F5;" width="2.809" height="2.809"/>
				<rect x="399.568" y="278.108" style="fill:#F5F5F5;" width="2.809" height="2.809"/>
				<rect x="399.568" y="282.816" style="fill:#F5F5F5;" width="2.809" height="2.809"/>
				<rect x="399.568" y="287.525" style="fill:#F5F5F5;" width="2.809" height="2.809"/>
				<rect x="399.568" y="292.233" style="fill:#F5F5F5;" width="2.809" height="2.809"/>
				<rect x="399.568" y="296.941" style="fill:#F5F5F5;" width="2.809" height="2.809"/>
				<rect x="399.568" y="301.65" style="fill:#F5F5F5;" width="2.809" height="2.809"/>
				<rect x="399.568" y="306.358" style="fill:#F5F5F5;" width="2.809" height="2.809"/>
				<rect x="399.568" y="311.067" style="fill:#F5F5F5;" width="2.809" height="2.809"/>
				<rect x="399.568" y="315.775" style="fill:#F5F5F5;" width="2.809" height="2.809"/>
				<rect x="399.568" y="320.483" style="fill:#F5F5F5;" width="2.809" height="2.809"/>
				<rect x="399.568" y="325.192" style="fill:#F5F5F5;" width="2.809" height="2.809"/>
				<rect x="399.568" y="329.9" style="fill:#F5F5F5;" width="2.809" height="2.809"/>
				<rect x="399.568" y="334.609" style="fill:#F5F5F5;" width="2.809" height="2.809"/>
				<rect x="399.568" y="339.317" style="fill:#F5F5F5;" width="2.809" height="2.809"/>
				<rect x="399.568" y="344.026" style="fill:#F5F5F5;" width="2.809" height="2.809"/>
				<rect x="399.568" y="348.734" style="fill:#F5F5F5;" width="2.809" height="2.809"/>
				<rect x="399.568" y="353.442" style="fill:#F5F5F5;" width="2.809" height="2.809"/>
				<rect x="395.107" y="273.4" style="fill:#F5F5F5;" width="2.809" height="2.809"/>
				<rect x="395.107" y="278.108" style="fill:#F5F5F5;" width="2.809" height="2.809"/>
				<rect x="395.107" y="282.816" style="fill:#F5F5F5;" width="2.809" height="2.809"/>
				<rect x="395.107" y="287.525" style="fill:#F5F5F5;" width="2.809" height="2.809"/>
				<rect x="395.107" y="292.233" style="fill:#F5F5F5;" width="2.809" height="2.809"/>
				<rect x="395.107" y="296.941" style="fill:#F5F5F5;" width="2.809" height="2.809"/>
				<rect x="395.107" y="301.65" style="fill:#F5F5F5;" width="2.809" height="2.809"/>
				<rect x="395.107" y="306.358" style="fill:#F5F5F5;" width="2.809" height="2.809"/>
				<rect x="395.107" y="311.067" style="fill:#F5F5F5;" width="2.809" height="2.809"/>
				<rect x="395.107" y="315.775" style="fill:#F5F5F5;" width="2.809" height="2.809"/>
				<rect x="395.107" y="320.483" style="fill:#F5F5F5;" width="2.809" height="2.809"/>
				<rect x="395.107" y="325.192" style="fill:#F5F5F5;" width="2.809" height="2.809"/>
				<rect x="395.107" y="329.9" style="fill:#F5F5F5;" width="2.809" height="2.809"/>
				<rect x="395.107" y="334.609" style="fill:#F5F5F5;" width="2.809" height="2.809"/>
				<rect x="395.107" y="339.317" style="fill:#F5F5F5;" width="2.809" height="2.809"/>
				<rect x="395.107" y="344.026" style="fill:#F5F5F5;" width="2.809" height="2.809"/>
				<rect x="395.107" y="348.734" style="fill:#F5F5F5;" width="2.809" height="2.809"/>
				<rect x="395.107" y="353.442" style="fill:#F5F5F5;" width="2.809" height="2.809"/>
				<rect x="420.714" y="307.763" style="fill:#F5F5F5;" width="2.809" height="2.809"/>
				<rect x="420.714" y="312.471" style="fill:#F5F5F5;" width="2.809" height="2.809"/>
				<rect x="420.714" y="317.179" style="fill:#F5F5F5;" width="2.809" height="2.809"/>
				<rect x="420.714" y="321.888" style="fill:#F5F5F5;" width="2.809" height="2.809"/>
				<rect x="420.714" y="326.596" style="fill:#F5F5F5;" width="2.809" height="2.808"/>
				<rect x="420.714" y="331.305" style="fill:#F5F5F5;" width="2.809" height="2.809"/>
				<rect x="420.714" y="336.013" style="fill:#F5F5F5;" width="2.809" height="2.809"/>
				<rect x="420.714" y="340.721" style="fill:#F5F5F5;" width="2.809" height="2.809"/>
				<rect x="420.714" y="345.43" style="fill:#F5F5F5;" width="2.809" height="2.809"/>
				<rect x="420.714" y="350.138" style="fill:#F5F5F5;" width="2.809" height="2.809"/>
				<rect x="420.714" y="354.847" style="fill:#F5F5F5;" width="2.809" height="2.809"/>
				<rect x="420.714" y="359.555" style="fill:#F5F5F5;" width="2.809" height="2.809"/>
				<rect x="420.714" y="364.263" style="fill:#F5F5F5;" width="2.809" height="2.809"/>
				<rect x="416.254" y="307.763" style="fill:#F5F5F5;" width="2.809" height="2.809"/>
				<rect x="416.254" y="312.471" style="fill:#F5F5F5;" width="2.809" height="2.809"/>
				<rect x="416.254" y="317.179" style="fill:#F5F5F5;" width="2.809" height="2.809"/>
				<rect x="416.254" y="321.888" style="fill:#F5F5F5;" width="2.809" height="2.809"/>
				<rect x="416.254" y="326.596" style="fill:#F5F5F5;" width="2.809" height="2.808"/>
				<rect x="416.254" y="331.305" style="fill:#F5F5F5;" width="2.809" height="2.809"/>
				<rect x="416.254" y="336.013" style="fill:#F5F5F5;" width="2.809" height="2.809"/>
				<rect x="416.254" y="340.721" style="fill:#F5F5F5;" width="2.809" height="2.809"/>
				<rect x="416.254" y="345.43" style="fill:#F5F5F5;" width="2.809" height="2.809"/>
				<rect x="416.254" y="350.138" style="fill:#F5F5F5;" width="2.809" height="2.809"/>
				<rect x="416.254" y="354.847" style="fill:#F5F5F5;" width="2.809" height="2.809"/>
				<rect x="416.254" y="359.555" style="fill:#F5F5F5;" width="2.809" height="2.809"/>
				<rect x="416.254" y="364.263" style="fill:#F5F5F5;" width="2.809" height="2.809"/>
				<rect x="411.793" y="307.763" style="fill:#F5F5F5;" width="2.809" height="2.809"/>
				<rect x="411.793" y="312.471" style="fill:#F5F5F5;" width="2.809" height="2.809"/>
				<rect x="411.793" y="317.179" style="fill:#F5F5F5;" width="2.809" height="2.809"/>
				<rect x="411.793" y="321.888" style="fill:#F5F5F5;" width="2.809" height="2.809"/>
				<rect x="411.793" y="326.596" style="fill:#F5F5F5;" width="2.809" height="2.808"/>
				<rect x="411.793" y="331.305" style="fill:#F5F5F5;" width="2.809" height="2.809"/>
				<rect x="411.793" y="336.013" style="fill:#F5F5F5;" width="2.809" height="2.809"/>
				<rect x="411.793" y="340.721" style="fill:#F5F5F5;" width="2.809" height="2.809"/>
				<rect x="411.793" y="345.43" style="fill:#F5F5F5;" width="2.809" height="2.809"/>
				<rect x="411.793" y="350.138" style="fill:#F5F5F5;" width="2.809" height="2.809"/>
				<rect x="411.793" y="354.847" style="fill:#F5F5F5;" width="2.809" height="2.809"/>
				<rect x="411.793" y="359.555" style="fill:#F5F5F5;" width="2.809" height="2.809"/>
				<rect x="411.793" y="364.263" style="fill:#F5F5F5;" width="2.809" height="2.809"/>
				<rect x="411.793" y="368.972" style="fill:#F5F5F5;" width="2.809" height="2.809"/>
				<rect x="387.012" y="309.167" style="fill:#F5F5F5;" width="2.809" height="2.809"/>
				<rect x="387.012" y="313.875" style="fill:#F5F5F5;" width="2.809" height="2.808"/>
				<rect x="387.012" y="318.584" style="fill:#F5F5F5;" width="2.809" height="2.809"/>
				<rect x="387.012" y="323.292" style="fill:#F5F5F5;" width="2.809" height="2.809"/>
				<rect x="387.012" y="328" style="fill:#F5F5F5;" width="2.809" height="2.809"/>
				<rect x="387.012" y="332.709" style="fill:#F5F5F5;" width="2.809" height="2.809"/>
				<rect x="387.012" y="337.417" style="fill:#F5F5F5;" width="2.809" height="2.809"/>
				<rect x="387.012" y="342.126" style="fill:#F5F5F5;" width="2.809" height="2.809"/>
				<rect x="387.012" y="346.834" style="fill:#F5F5F5;" width="2.809" height="2.809"/>
				<rect x="387.012" y="351.543" style="fill:#F5F5F5;" width="2.809" height="2.809"/>
				<rect x="387.012" y="365.668" style="fill:#F5F5F5;" width="2.809" height="2.809"/>
				<rect x="382.552" y="309.167" style="fill:#F5F5F5;" width="2.809" height="2.809"/>
				<rect x="382.552" y="313.875" style="fill:#F5F5F5;" width="2.809" height="2.808"/>
				<rect x="382.552" y="318.584" style="fill:#F5F5F5;" width="2.809" height="2.809"/>
				<rect x="382.552" y="323.292" style="fill:#F5F5F5;" width="2.809" height="2.809"/>
				<rect x="382.552" y="328" style="fill:#F5F5F5;" width="2.809" height="2.809"/>
				<rect x="382.552" y="332.709" style="fill:#F5F5F5;" width="2.809" height="2.809"/>
				<rect x="382.552" y="337.417" style="fill:#F5F5F5;" width="2.809" height="2.809"/>
				<rect x="382.552" y="342.126" style="fill:#F5F5F5;" width="2.809" height="2.809"/>
				<rect x="382.552" y="346.834" style="fill:#F5F5F5;" width="2.809" height="2.809"/>
				<rect x="382.552" y="360.959" style="fill:#F5F5F5;" width="2.809" height="2.809"/>
				<rect x="382.552" y="365.668" style="fill:#F5F5F5;" width="2.809" height="2.809"/>
				<rect x="378.091" y="309.167" style="fill:#F5F5F5;" width="2.809" height="2.809"/>
				<rect x="378.091" y="313.875" style="fill:#F5F5F5;" width="2.809" height="2.808"/>
				<rect x="378.091" y="318.584" style="fill:#F5F5F5;" width="2.809" height="2.809"/>
				<rect x="378.091" y="323.292" style="fill:#F5F5F5;" width="2.809" height="2.809"/>
				<rect x="378.091" y="328" style="fill:#F5F5F5;" width="2.809" height="2.809"/>
				<rect x="378.091" y="332.709" style="fill:#F5F5F5;" width="2.809" height="2.809"/>
				<rect x="378.091" y="337.417" style="fill:#F5F5F5;" width="2.809" height="2.809"/>
				<rect x="378.091" y="342.126" style="fill:#F5F5F5;" width="2.809" height="2.809"/>
				<rect x="378.091" y="356.251" style="fill:#F5F5F5;" width="2.809" height="2.809"/>
				<rect x="378.091" y="360.959" style="fill:#F5F5F5;" width="2.809" height="2.809"/>
				<rect x="378.091" y="365.668" style="fill:#F5F5F5;" width="2.809" height="2.809"/>
				<rect x="336.624" y="237.632" style="fill:#F5F5F5;" width="2.809" height="2.809"/>
				<rect x="336.624" y="242.341" style="fill:#F5F5F5;" width="2.809" height="2.809"/>
				<rect x="336.624" y="247.049" style="fill:#F5F5F5;" width="2.809" height="2.809"/>
				<rect x="336.624" y="251.757" style="fill:#F5F5F5;" width="2.809" height="2.809"/>
				<rect x="336.624" y="256.466" style="fill:#F5F5F5;" width="2.809" height="2.809"/>
				<rect x="336.624" y="261.174" style="fill:#F5F5F5;" width="2.809" height="2.809"/>
				<rect x="336.624" y="265.883" style="fill:#F5F5F5;" width="2.809" height="2.809"/>
				<rect x="336.624" y="270.591" style="fill:#F5F5F5;" width="2.809" height="2.809"/>
				<rect x="336.624" y="275.299" style="fill:#F5F5F5;" width="2.809" height="2.809"/>
				<rect x="336.624" y="280.008" style="fill:#F5F5F5;" width="2.809" height="2.809"/>
				<rect x="336.624" y="284.716" style="fill:#F5F5F5;" width="2.809" height="2.809"/>
				<rect x="336.624" y="289.425" style="fill:#F5F5F5;" width="2.809" height="2.809"/>
				<rect x="336.624" y="294.133" style="fill:#F5F5F5;" width="2.809" height="2.808"/>
				<rect x="336.624" y="298.841" style="fill:#F5F5F5;" width="2.809" height="2.809"/>
				<rect x="336.624" y="303.55" style="fill:#F5F5F5;" width="2.809" height="2.809"/>
				<rect x="336.624" y="308.258" style="fill:#F5F5F5;" width="2.809" height="2.809"/>
				<rect x="336.624" y="312.967" style="fill:#F5F5F5;" width="2.809" height="2.809"/>
				<rect x="336.624" y="322.383" style="fill:#F5F5F5;" width="2.809" height="2.809"/>
				<rect x="336.624" y="327.092" style="fill:#F5F5F5;" width="2.809" height="2.809"/>
				<rect x="336.624" y="331.8" style="fill:#F5F5F5;" width="2.809" height="2.809"/>
				<rect x="336.624" y="336.509" style="fill:#F5F5F5;" width="2.809" height="2.809"/>
				<rect x="336.624" y="341.217" style="fill:#F5F5F5;" width="2.809" height="2.808"/>
				<rect x="332.163" y="237.632" style="fill:#F5F5F5;" width="2.809" height="2.809"/>
				<rect x="332.163" y="242.341" style="fill:#F5F5F5;" width="2.809" height="2.809"/>
				<rect x="332.163" y="247.049" style="fill:#F5F5F5;" width="2.809" height="2.809"/>
				<rect x="332.163" y="251.757" style="fill:#F5F5F5;" width="2.809" height="2.809"/>
				<rect x="332.163" y="256.466" style="fill:#F5F5F5;" width="2.809" height="2.809"/>
				<rect x="332.163" y="261.174" style="fill:#F5F5F5;" width="2.809" height="2.809"/>
				<rect x="332.163" y="265.883" style="fill:#F5F5F5;" width="2.809" height="2.809"/>
				<rect x="332.163" y="270.591" style="fill:#F5F5F5;" width="2.809" height="2.809"/>
				<rect x="332.163" y="275.299" style="fill:#F5F5F5;" width="2.809" height="2.809"/>
				<rect x="332.163" y="280.008" style="fill:#F5F5F5;" width="2.809" height="2.809"/>
				<rect x="332.163" y="284.716" style="fill:#F5F5F5;" width="2.809" height="2.809"/>
				<rect x="332.163" y="289.425" style="fill:#F5F5F5;" width="2.809" height="2.809"/>
				<rect x="332.163" y="294.133" style="fill:#F5F5F5;" width="2.809" height="2.808"/>
				<rect x="332.163" y="298.841" style="fill:#F5F5F5;" width="2.809" height="2.809"/>
				<rect x="332.163" y="303.55" style="fill:#F5F5F5;" width="2.809" height="2.809"/>
				<rect x="332.163" y="308.258" style="fill:#F5F5F5;" width="2.809" height="2.809"/>
				<rect x="332.163" y="336.509" style="fill:#F5F5F5;" width="2.809" height="2.809"/>
				<rect x="332.163" y="341.217" style="fill:#F5F5F5;" width="2.809" height="2.808"/>
				<rect x="327.703" y="237.632" style="fill:#F5F5F5;" width="2.809" height="2.809"/>
				<rect x="327.703" y="242.341" style="fill:#F5F5F5;" width="2.809" height="2.809"/>
				<rect x="327.703" y="247.049" style="fill:#F5F5F5;" width="2.809" height="2.809"/>
				<rect x="327.703" y="251.757" style="fill:#F5F5F5;" width="2.809" height="2.809"/>
				<rect x="327.703" y="256.466" style="fill:#F5F5F5;" width="2.809" height="2.809"/>
				<rect x="327.703" y="261.174" style="fill:#F5F5F5;" width="2.809" height="2.809"/>
				<rect x="327.703" y="265.883" style="fill:#F5F5F5;" width="2.809" height="2.809"/>
				<rect x="327.703" y="270.591" style="fill:#F5F5F5;" width="2.809" height="2.809"/>
				<rect x="327.703" y="275.299" style="fill:#F5F5F5;" width="2.809" height="2.809"/>
				<rect x="327.703" y="280.008" style="fill:#F5F5F5;" width="2.809" height="2.809"/>
				<rect x="327.703" y="284.716" style="fill:#F5F5F5;" width="2.809" height="2.809"/>
				<rect x="327.703" y="289.425" style="fill:#F5F5F5;" width="2.809" height="2.809"/>
				<rect x="327.703" y="294.133" style="fill:#F5F5F5;" width="2.809" height="2.808"/>
				<rect x="327.703" y="298.841" style="fill:#F5F5F5;" width="2.809" height="2.809"/>
				<rect x="327.703" y="303.55" style="fill:#F5F5F5;" width="2.809" height="2.809"/>
				<rect x="327.703" y="308.258" style="fill:#F5F5F5;" width="2.809" height="2.809"/>
				<rect x="327.703" y="317.675" style="fill:#F5F5F5;" width="2.809" height="2.808"/>
				<rect x="327.703" y="322.383" style="fill:#F5F5F5;" width="2.809" height="2.809"/>
				<rect x="327.703" y="327.092" style="fill:#F5F5F5;" width="2.809" height="2.809"/>
				<rect x="327.703" y="331.8" style="fill:#F5F5F5;" width="2.809" height="2.809"/>
				<rect x="327.703" y="341.217" style="fill:#F5F5F5;" width="2.809" height="2.808"/>
				<rect x="352.814" y="296.941" style="fill:#F5F5F5;" width="2.809" height="2.809"/>
				<rect x="352.814" y="301.65" style="fill:#F5F5F5;" width="2.809" height="2.809"/>
				<rect x="352.814" y="306.358" style="fill:#F5F5F5;" width="2.809" height="2.809"/>
				<rect x="352.814" y="311.067" style="fill:#F5F5F5;" width="2.809" height="2.809"/>
				<rect x="352.814" y="315.775" style="fill:#F5F5F5;" width="2.809" height="2.809"/>
				<rect x="352.814" y="320.483" style="fill:#F5F5F5;" width="2.809" height="2.809"/>
				<rect x="352.814" y="325.192" style="fill:#F5F5F5;" width="2.809" height="2.809"/>
				<rect x="352.814" y="334.609" style="fill:#F5F5F5;" width="2.809" height="2.809"/>
				<rect x="352.814" y="339.317" style="fill:#F5F5F5;" width="2.809" height="2.809"/>
				<rect x="352.814" y="344.026" style="fill:#F5F5F5;" width="2.809" height="2.809"/>
				<rect x="352.814" y="348.734" style="fill:#F5F5F5;" width="2.809" height="2.809"/>
				<rect x="352.814" y="353.442" style="fill:#F5F5F5;" width="2.809" height="2.809"/>
				<rect x="352.814" y="358.151" style="fill:#F5F5F5;" width="2.809" height="2.809"/>
				<rect x="352.814" y="362.859" style="fill:#F5F5F5;" width="2.809" height="2.809"/>
				<rect x="352.814" y="367.568" style="fill:#F5F5F5;" width="2.809" height="2.809"/>
				<rect x="348.354" y="296.941" style="fill:#F5F5F5;" width="2.809" height="2.809"/>
				<rect x="348.354" y="301.65" style="fill:#F5F5F5;" width="2.809" height="2.809"/>
				<rect x="348.354" y="306.358" style="fill:#F5F5F5;" width="2.809" height="2.809"/>
				<rect x="348.354" y="311.067" style="fill:#F5F5F5;" width="2.809" height="2.809"/>
				<rect x="348.354" y="315.775" style="fill:#F5F5F5;" width="2.809" height="2.809"/>
				<rect x="348.354" y="320.483" style="fill:#F5F5F5;" width="2.809" height="2.809"/>
				<rect x="348.354" y="334.609" style="fill:#F5F5F5;" width="2.809" height="2.809"/>
				<rect x="348.354" y="339.317" style="fill:#F5F5F5;" width="2.809" height="2.809"/>
				<rect x="348.354" y="344.026" style="fill:#F5F5F5;" width="2.809" height="2.809"/>
				<rect x="348.354" y="348.734" style="fill:#F5F5F5;" width="2.809" height="2.809"/>
				<rect x="348.354" y="353.442" style="fill:#F5F5F5;" width="2.809" height="2.809"/>
				<rect x="348.354" y="358.151" style="fill:#F5F5F5;" width="2.809" height="2.809"/>
				<rect x="348.354" y="362.859" style="fill:#F5F5F5;" width="2.809" height="2.809"/>
				<rect x="348.354" y="367.568" style="fill:#F5F5F5;" width="2.809" height="2.809"/>
				<rect x="343.893" y="296.941" style="fill:#F5F5F5;" width="2.809" height="2.809"/>
				<rect x="343.893" y="301.65" style="fill:#F5F5F5;" width="2.809" height="2.809"/>
				<rect x="343.893" y="306.358" style="fill:#F5F5F5;" width="2.809" height="2.809"/>
				<rect x="343.893" y="311.067" style="fill:#F5F5F5;" width="2.809" height="2.809"/>
				<rect x="343.893" y="315.775" style="fill:#F5F5F5;" width="2.809" height="2.809"/>
				<rect x="343.893" y="320.483" style="fill:#F5F5F5;" width="2.809" height="2.809"/>
				<rect x="343.893" y="329.9" style="fill:#F5F5F5;" width="2.809" height="2.809"/>
				<rect x="343.893" y="334.609" style="fill:#F5F5F5;" width="2.809" height="2.809"/>
				<rect x="343.893" y="339.317" style="fill:#F5F5F5;" width="2.809" height="2.809"/>
				<rect x="343.893" y="344.026" style="fill:#F5F5F5;" width="2.809" height="2.809"/>
				<rect x="343.893" y="348.734" style="fill:#F5F5F5;" width="2.809" height="2.809"/>
				<rect x="343.893" y="353.442" style="fill:#F5F5F5;" width="2.809" height="2.809"/>
				<rect x="343.893" y="358.151" style="fill:#F5F5F5;" width="2.809" height="2.809"/>
				<rect x="343.893" y="362.859" style="fill:#F5F5F5;" width="2.809" height="2.809"/>
				<rect x="343.893" y="367.568" style="fill:#F5F5F5;" width="2.809" height="2.809"/>
				<rect x="249.89" y="270.591" style="fill:#F5F5F5;" width="2.809" height="2.809"/>
				<rect x="249.89" y="275.299" style="fill:#F5F5F5;" width="2.809" height="2.809"/>
				<rect x="249.89" y="280.008" style="fill:#F5F5F5;" width="2.809" height="2.809"/>
				<rect x="249.89" y="284.716" style="fill:#F5F5F5;" width="2.809" height="2.809"/>
				<rect x="249.89" y="289.425" style="fill:#F5F5F5;" width="2.809" height="2.809"/>
				<rect x="249.89" y="294.133" style="fill:#F5F5F5;" width="2.809" height="2.808"/>
				<rect x="249.89" y="298.841" style="fill:#F5F5F5;" width="2.809" height="2.809"/>
				<rect x="249.89" y="303.55" style="fill:#F5F5F5;" width="2.809" height="2.809"/>
				<rect x="249.89" y="308.258" style="fill:#F5F5F5;" width="2.809" height="2.809"/>
				<rect x="249.89" y="312.967" style="fill:#F5F5F5;" width="2.809" height="2.809"/>
				<rect x="249.89" y="317.675" style="fill:#F5F5F5;" width="2.809" height="2.808"/>
				<rect x="249.89" y="322.383" style="fill:#F5F5F5;" width="2.809" height="2.809"/>
				<rect x="249.89" y="327.092" style="fill:#F5F5F5;" width="2.809" height="2.809"/>
				<rect x="249.89" y="336.509" style="fill:#F5F5F5;" width="2.809" height="2.809"/>
				<rect x="249.89" y="341.217" style="fill:#F5F5F5;" width="2.809" height="2.808"/>
				<rect x="249.89" y="345.925" style="fill:#F5F5F5;" width="2.809" height="2.809"/>
				<rect x="249.89" y="350.634" style="fill:#F5F5F5;" width="2.809" height="2.809"/>
				<rect x="249.89" y="360.051" style="fill:#F5F5F5;" width="2.809" height="2.809"/>
				<rect x="249.89" y="364.759" style="fill:#F5F5F5;" width="2.809" height="2.808"/>
				<rect x="249.89" y="369.467" style="fill:#F5F5F5;" width="2.809" height="2.809"/>
				<rect x="245.43" y="270.591" style="fill:#F5F5F5;" width="2.809" height="2.809"/>
				<rect x="245.43" y="275.299" style="fill:#F5F5F5;" width="2.809" height="2.809"/>
				<rect x="245.43" y="280.008" style="fill:#F5F5F5;" width="2.809" height="2.809"/>
				<rect x="245.43" y="284.716" style="fill:#F5F5F5;" width="2.809" height="2.809"/>
				<rect x="245.43" y="289.425" style="fill:#F5F5F5;" width="2.809" height="2.809"/>
				<rect x="245.43" y="294.133" style="fill:#F5F5F5;" width="2.809" height="2.808"/>
				<rect x="245.43" y="298.841" style="fill:#F5F5F5;" width="2.809" height="2.809"/>
				<rect x="245.43" y="303.55" style="fill:#F5F5F5;" width="2.809" height="2.809"/>
				<rect x="245.43" y="308.258" style="fill:#F5F5F5;" width="2.809" height="2.809"/>
				<rect x="245.43" y="312.967" style="fill:#F5F5F5;" width="2.809" height="2.809"/>
				<rect x="245.43" y="317.675" style="fill:#F5F5F5;" width="2.809" height="2.808"/>
				<rect x="245.43" y="322.383" style="fill:#F5F5F5;" width="2.809" height="2.809"/>
				<rect x="245.43" y="327.092" style="fill:#F5F5F5;" width="2.809" height="2.809"/>
				<rect x="245.43" y="341.217" style="fill:#F5F5F5;" width="2.809" height="2.808"/>
				<rect x="245.43" y="345.925" style="fill:#F5F5F5;" width="2.809" height="2.809"/>
				<rect x="245.43" y="355.342" style="fill:#F5F5F5;" width="2.809" height="2.809"/>
				<rect x="245.43" y="360.051" style="fill:#F5F5F5;" width="2.809" height="2.809"/>
				<rect x="245.43" y="364.759" style="fill:#F5F5F5;" width="2.809" height="2.808"/>
				<rect x="245.43" y="369.467" style="fill:#F5F5F5;" width="2.809" height="2.809"/>
				<rect x="240.969" y="270.591" style="fill:#F5F5F5;" width="2.809" height="2.809"/>
				<rect x="240.969" y="275.299" style="fill:#F5F5F5;" width="2.809" height="2.809"/>
				<rect x="240.969" y="280.008" style="fill:#F5F5F5;" width="2.809" height="2.809"/>
				<rect x="240.969" y="284.716" style="fill:#F5F5F5;" width="2.809" height="2.809"/>
				<rect x="240.969" y="289.425" style="fill:#F5F5F5;" width="2.809" height="2.809"/>
				<rect x="240.969" y="294.133" style="fill:#F5F5F5;" width="2.809" height="2.808"/>
				<rect x="240.969" y="298.841" style="fill:#F5F5F5;" width="2.809" height="2.809"/>
				<rect x="240.969" y="303.55" style="fill:#F5F5F5;" width="2.809" height="2.809"/>
				<rect x="240.969" y="308.258" style="fill:#F5F5F5;" width="2.809" height="2.809"/>
				<rect x="240.969" y="312.967" style="fill:#F5F5F5;" width="2.809" height="2.809"/>
				<rect x="240.969" y="317.675" style="fill:#F5F5F5;" width="2.809" height="2.808"/>
				<rect x="240.969" y="322.383" style="fill:#F5F5F5;" width="2.809" height="2.809"/>
				<rect x="240.969" y="327.092" style="fill:#F5F5F5;" width="2.809" height="2.809"/>
				<rect x="240.969" y="331.8" style="fill:#F5F5F5;" width="2.809" height="2.809"/>
				<rect x="240.969" y="341.217" style="fill:#F5F5F5;" width="2.809" height="2.808"/>
				<rect x="240.969" y="350.634" style="fill:#F5F5F5;" width="2.809" height="2.809"/>
				<rect x="240.969" y="355.342" style="fill:#F5F5F5;" width="2.809" height="2.809"/>
				<rect x="240.969" y="360.051" style="fill:#F5F5F5;" width="2.809" height="2.809"/>
				<rect x="240.969" y="364.759" style="fill:#F5F5F5;" width="2.809" height="2.808"/>
				<rect x="240.969" y="369.467" style="fill:#F5F5F5;" width="2.809" height="2.809"/>
				<rect x="268.063" y="297.437" style="fill:#F5F5F5;" width="2.809" height="2.809"/>
				<rect x="268.063" y="302.146" style="fill:#F5F5F5;" width="2.809" height="2.809"/>
				<rect x="268.063" y="306.854" style="fill:#F5F5F5;" width="2.809" height="2.808"/>
				<rect x="268.063" y="311.562" style="fill:#F5F5F5;" width="2.809" height="2.809"/>
				<rect x="268.063" y="316.271" style="fill:#F5F5F5;" width="2.809" height="2.809"/>
				<rect x="268.063" y="320.979" style="fill:#F5F5F5;" width="2.809" height="2.809"/>
				<rect x="268.063" y="335.104" style="fill:#F5F5F5;" width="2.809" height="2.809"/>
				<rect x="268.063" y="339.813" style="fill:#F5F5F5;" width="2.809" height="2.809"/>
				<rect x="268.063" y="344.521" style="fill:#F5F5F5;" width="2.809" height="2.809"/>
				<rect x="268.063" y="349.23" style="fill:#F5F5F5;" width="2.809" height="2.809"/>
				<rect x="268.063" y="353.938" style="fill:#F5F5F5;" width="2.809" height="2.808"/>
				<rect x="268.063" y="358.646" style="fill:#F5F5F5;" width="2.809" height="2.809"/>
				<rect x="268.063" y="363.355" style="fill:#F5F5F5;" width="2.809" height="2.809"/>
				<rect x="263.602" y="297.437" style="fill:#F5F5F5;" width="2.809" height="2.809"/>
				<rect x="263.602" y="302.146" style="fill:#F5F5F5;" width="2.809" height="2.809"/>
				<rect x="263.602" y="306.854" style="fill:#F5F5F5;" width="2.809" height="2.808"/>
				<rect x="263.602" y="311.562" style="fill:#F5F5F5;" width="2.809" height="2.809"/>
				<rect x="263.602" y="316.271" style="fill:#F5F5F5;" width="2.809" height="2.809"/>
				<rect x="263.602" y="320.979" style="fill:#F5F5F5;" width="2.809" height="2.809"/>
				<rect x="263.602" y="335.104" style="fill:#F5F5F5;" width="2.809" height="2.809"/>
				<rect x="263.602" y="339.813" style="fill:#F5F5F5;" width="2.809" height="2.809"/>
				<rect x="263.602" y="344.521" style="fill:#F5F5F5;" width="2.809" height="2.809"/>
				<rect x="263.602" y="349.23" style="fill:#F5F5F5;" width="2.809" height="2.809"/>
				<rect x="263.602" y="353.938" style="fill:#F5F5F5;" width="2.809" height="2.808"/>
				<rect x="263.602" y="358.646" style="fill:#F5F5F5;" width="2.809" height="2.809"/>
				<rect x="263.602" y="368.063" style="fill:#F5F5F5;" width="2.809" height="2.809"/>
				<rect x="115.412" y="276.704" style="fill:#F5F5F5;" width="2.809" height="2.809"/>
				<rect x="115.412" y="281.412" style="fill:#F5F5F5;" width="2.809" height="2.809"/>
				<rect x="115.412" y="286.121" style="fill:#F5F5F5;" width="2.809" height="2.809"/>
				<rect x="115.412" y="290.829" style="fill:#F5F5F5;" width="2.809" height="2.809"/>
				<rect x="115.412" y="295.537" style="fill:#F5F5F5;" width="2.809" height="2.809"/>
				<rect x="115.412" y="300.246" style="fill:#F5F5F5;" width="2.809" height="2.809"/>
				<rect x="115.412" y="304.954" style="fill:#F5F5F5;" width="2.809" height="2.808"/>
				<rect x="115.412" y="309.663" style="fill:#F5F5F5;" width="2.809" height="2.809"/>
				<rect x="115.412" y="314.371" style="fill:#F5F5F5;" width="2.809" height="2.809"/>
				<rect x="115.412" y="319.079" style="fill:#F5F5F5;" width="2.809" height="2.809"/>
				<rect x="115.412" y="323.788" style="fill:#F5F5F5;" width="2.809" height="2.809"/>
				<rect x="115.412" y="333.204" style="fill:#F5F5F5;" width="2.809" height="2.809"/>
				<rect x="115.412" y="337.913" style="fill:#F5F5F5;" width="2.809" height="2.809"/>
				<rect x="115.412" y="342.621" style="fill:#F5F5F5;" width="2.809" height="2.809"/>
				<rect x="115.412" y="347.33" style="fill:#F5F5F5;" width="2.809" height="2.809"/>
				<rect x="115.412" y="352.038" style="fill:#F5F5F5;" width="2.809" height="2.808"/>
				<rect x="115.412" y="356.746" style="fill:#F5F5F5;" width="2.809" height="2.809"/>
				<rect x="115.412" y="361.455" style="fill:#F5F5F5;" width="2.809" height="2.809"/>
				<rect x="115.412" y="366.163" style="fill:#F5F5F5;" width="2.809" height="2.809"/>
				<rect x="110.951" y="276.704" style="fill:#F5F5F5;" width="2.809" height="2.809"/>
				<rect x="110.951" y="281.412" style="fill:#F5F5F5;" width="2.809" height="2.809"/>
				<rect x="110.951" y="286.121" style="fill:#F5F5F5;" width="2.809" height="2.809"/>
				<rect x="110.951" y="290.829" style="fill:#F5F5F5;" width="2.809" height="2.809"/>
				<rect x="110.951" y="295.537" style="fill:#F5F5F5;" width="2.809" height="2.809"/>
				<rect x="110.951" y="300.246" style="fill:#F5F5F5;" width="2.809" height="2.809"/>
				<rect x="110.951" y="304.954" style="fill:#F5F5F5;" width="2.809" height="2.808"/>
				<rect x="110.951" y="309.663" style="fill:#F5F5F5;" width="2.809" height="2.809"/>
				<rect x="110.951" y="314.371" style="fill:#F5F5F5;" width="2.809" height="2.809"/>
				<rect x="110.951" y="319.079" style="fill:#F5F5F5;" width="2.809" height="2.809"/>
				<rect x="110.951" y="323.788" style="fill:#F5F5F5;" width="2.809" height="2.809"/>
				<rect x="110.951" y="328.496" style="fill:#F5F5F5;" width="2.809" height="2.808"/>
				<rect x="110.951" y="333.204" style="fill:#F5F5F5;" width="2.809" height="2.809"/>
				<rect x="110.951" y="337.913" style="fill:#F5F5F5;" width="2.809" height="2.809"/>
				<rect x="110.951" y="342.621" style="fill:#F5F5F5;" width="2.809" height="2.809"/>
				<rect x="110.951" y="347.33" style="fill:#F5F5F5;" width="2.809" height="2.809"/>
				<rect x="110.951" y="352.038" style="fill:#F5F5F5;" width="2.809" height="2.808"/>
				<rect x="110.951" y="356.746" style="fill:#F5F5F5;" width="2.809" height="2.809"/>
				<rect x="110.951" y="361.455" style="fill:#F5F5F5;" width="2.809" height="2.809"/>
				<rect x="110.951" y="366.163" style="fill:#F5F5F5;" width="2.809" height="2.809"/>
				<rect x="137.384" y="295.042" style="fill:#F5F5F5;" width="2.809" height="2.809"/>
				<rect x="137.384" y="299.75" style="fill:#F5F5F5;" width="2.809" height="2.809"/>
				<rect x="137.384" y="304.458" style="fill:#F5F5F5;" width="2.809" height="2.809"/>
				<rect x="137.384" y="309.167" style="fill:#F5F5F5;" width="2.809" height="2.809"/>
				<rect x="137.384" y="313.875" style="fill:#F5F5F5;" width="2.809" height="2.808"/>
				<rect x="137.384" y="318.584" style="fill:#F5F5F5;" width="2.809" height="2.809"/>
				<rect x="137.384" y="323.292" style="fill:#F5F5F5;" width="2.809" height="2.809"/>
				<rect x="137.384" y="328" style="fill:#F5F5F5;" width="2.809" height="2.809"/>
				<rect x="137.384" y="332.709" style="fill:#F5F5F5;" width="2.809" height="2.809"/>
				<rect x="137.384" y="337.417" style="fill:#F5F5F5;" width="2.809" height="2.809"/>
				<rect x="132.924" y="295.042" style="fill:#F5F5F5;" width="2.809" height="2.809"/>
				<rect x="132.924" y="299.75" style="fill:#F5F5F5;" width="2.809" height="2.809"/>
				<rect x="132.924" y="304.458" style="fill:#F5F5F5;" width="2.809" height="2.809"/>
				<rect x="132.924" y="309.167" style="fill:#F5F5F5;" width="2.809" height="2.809"/>
				<rect x="132.924" y="313.875" style="fill:#F5F5F5;" width="2.809" height="2.808"/>
				<rect x="132.924" y="318.584" style="fill:#F5F5F5;" width="2.809" height="2.809"/>
				<rect x="132.924" y="323.292" style="fill:#F5F5F5;" width="2.809" height="2.809"/>
				<rect x="132.924" y="328" style="fill:#F5F5F5;" width="2.809" height="2.809"/>
				<rect x="132.924" y="332.709" style="fill:#F5F5F5;" width="2.809" height="2.809"/>
			</g>
		</g>
		<path style="fill:#F5F5F5;" d="M122.732,104.172c0-2.096-1.699-3.795-3.795-3.795c-0.379,0-0.744,0.057-1.09,0.161
			c0.055-0.381,0.085-0.769,0.085-1.165c0-4.439-3.598-8.037-8.037-8.037c-0.506,0-1,0.049-1.48,0.138
			c-1.235-2.022-3.456-3.376-5.998-3.376c-3.848,0-6.97,3.092-7.027,6.927c-0.039-0.001-0.077-0.006-0.117-0.006
			c-3.576,0-6.474,2.899-6.474,6.474c0,3.576,2.899,6.474,6.474,6.474l23.777,0l-0.005-0.005
			C121.09,107.905,122.732,106.232,122.732,104.172z"/>
		<path style="fill:#F5F5F5;" d="M351.668,106.174h19.175c-0.051-0.46-0.082-0.925-0.082-1.399c0-6.971,5.651-12.621,12.622-12.621
			c0.155,0,0.306,0.018,0.46,0.023c1.582-4.244,5.659-7.273,10.455-7.273c6.167,0,11.167,4.999,11.167,11.167
			c0,0.009-0.001,0.017-0.001,0.025c5.468,0.255,9.849,4.618,10.133,10.078h0.508c3.086,0,5.611,2.525,5.611,5.611
			c0,3.086-2.525,5.611-5.611,5.611h-64.435c-3.086,0-5.611-2.525-5.611-5.611C346.057,108.699,348.582,106.174,351.668,106.174z"/>
		<path style="fill:#F5F5F5;" d="M227.686,131.195c4.132-6.594,11.443-10.992,19.798-10.992c8.494,0,15.907,4.547,19.999,11.324
			c1.075-0.3,2.202-0.473,3.373-0.473c6.915,0,12.52,5.606,12.52,12.521c0,0.005-0.001,0.011-0.001,0.016h6.601
			c3.439,0,6.252,2.814,6.252,6.252c0,3.439-2.814,6.252-6.252,6.252h-22.78c-4.148,6.516-11.416,10.851-19.712,10.851
			c-6.542,0-12.448-2.695-16.69-7.026c-0.394,0.032-0.79,0.06-1.193,0.06c-7.988,0-14.463-6.475-14.463-14.463
			C215.138,138.179,220.605,132.133,227.686,131.195z"/>
	</g>
</g>
<g id="Background_Simple" style="display:none;">
	<g style="display:inline;">
		<path style="fill:#407BFF;" d="M248.802,91.252c-79.589,35.809-7.339,99.63-53.294,134.388
			c-45.954,34.758-170.9-5.424-123.27,84.834c55.949,106.021,300.954,91.299,353.78-38.743
			C478.845,141.689,328.392,55.443,248.802,91.252z"/>
		<path style="opacity:0.9;fill:#FFFFFF;" d="M248.802,91.252c-79.589,35.809-7.339,99.63-53.294,134.388
			c-45.954,34.758-170.9-5.424-123.27,84.834c55.949,106.021,300.954,91.299,353.78-38.743
			C478.845,141.689,328.392,55.443,248.802,91.252z"/>
	</g>
</g>
<g id="Shadow_1_">
	<ellipse id="_x3C_Path_x3E__359_" style="fill:#F5F5F5;" cx="250" cy="416.238" rx="193.889" ry="11.323"/>
</g>
<g id="Plant">
	<g>
		<path style="fill:#407BFF;" d="M86.718,392.039c0,0,4.75-10.364-0.677-20.581c-5.427-10.217-7.001-12.624-3.541-14.717
			s5.047,8.173,5.047,8.173s2.916-7.063,0.508-14.454c-2.408-7.392-3.918-19.431-0.63-20.722c3.289-1.291,0.628,15.019,3.481,20.578
			c0,0,2.397-6.189,2.791-12.126c0.394-5.937-0.222-15.417,2.375-17.849s4.261-0.749,1.708,12.353
			c-2.552,13.102-2.533,23.752-2.533,23.752s5.637-17.186,9.42-17.688c3.783-0.501,3.778,5.065,0.54,9.892
			c-3.238,4.827-9.483,13.476-10.507,17.926c0,0,6.187-12.934,11.753-8.97c5.566,3.964-4.844,11.776-9.484,14.599
			c-4.64,2.823-7.862,20.518-7.862,20.518L86.718,392.039z"/>
		<path style="opacity:0.2;enable-background:new    ;" d="M86.718,392.039c0,0,4.75-10.364-0.677-20.581
			c-5.427-10.217-7.001-12.624-3.541-14.717s5.047,8.173,5.047,8.173s2.916-7.063,0.508-14.454
			c-2.408-7.392-3.918-19.431-0.63-20.722c3.289-1.291,0.628,15.019,3.481,20.578c0,0,2.397-6.189,2.791-12.126
			c0.394-5.937-0.222-15.417,2.375-17.849s4.261-0.749,1.708,12.353c-2.552,13.102-2.533,23.752-2.533,23.752
			s5.637-17.186,9.42-17.688c3.783-0.501,3.778,5.065,0.54,9.892c-3.238,4.827-9.483,13.476-10.507,17.926
			c0,0,6.187-12.934,11.753-8.97c5.566,3.964-4.844,11.776-9.484,14.599c-4.64,2.823-7.862,20.518-7.862,20.518L86.718,392.039z"/>
		<path style="fill:#407BFF;" d="M90.468,396.29c0,0-4.625-10.434,0.924-20.569c5.549-10.135,7.151-12.518,3.717-14.663
			c-3.434-2.145-5.145,8.097-5.145,8.097s-2.831-7.106-0.335-14.461c2.497-7.355,4.151-19.371,0.878-20.711
			c-3.273-1.34-0.808,15.008-3.728,20.525c0,0-2.322-6.224-2.645-12.167c-0.323-5.942,0.407-15.412-2.161-17.883
			c-2.567-2.47-4.251-0.813-1.856,12.326s2.248,23.788,2.248,23.788s-5.43-17.269-9.207-17.827
			c-3.777-0.558-3.839,5.008-0.659,9.883c3.18,4.875,9.321,13.616,10.292,18.081c0,0-6.032-13.025-11.644-9.144
			c-5.613,3.881,4.703,11.847,9.308,14.739c4.606,2.892,7.615,20.633,7.615,20.633L90.468,396.29z"/>
		<g>
			<polygon style="fill:#263238;" points="69.134,388.852 107.345,388.852 104.252,416.196 72.227,416.196 			"/>
		</g>
	</g>
</g>
<g id="Speech_bubble_1">
	<g>
		<g>
			<path style="fill:#407BFF;" d="M167.934,119.911h-28.728c-4.885,0-8.846,3.96-8.846,8.846v25.002
				c0,4.885,3.961,8.846,8.846,8.846h8.388l-0.027,8.895l5.977-8.895h14.391c4.885,0,8.846-3.96,8.846-8.846v-25.002
				C176.78,123.871,172.82,119.911,167.934,119.911z"/>
			<path style="opacity:0.7;fill:#FFFFFF;" d="M167.934,119.911h-28.728c-4.885,0-8.846,3.96-8.846,8.846v25.002
				c0,4.885,3.961,8.846,8.846,8.846h8.388l-0.027,8.895l5.977-8.895h14.391c4.885,0,8.846-3.96,8.846-8.846v-25.002
				C176.78,123.871,172.82,119.911,167.934,119.911z"/>
		</g>
		<g>
			<path style="fill:#407BFF;" d="M147.869,153.994l0.988,0.818l1.749-1.749l-0.818-0.988c0.449-0.685,0.778-1.455,0.95-2.284
				l1.273-0.12v-2.473l-1.273-0.12c-0.172-0.829-0.501-1.6-0.95-2.284l0.818-0.988l-1.749-1.749l-0.988,0.818
				c-0.685-0.449-1.456-0.778-2.284-0.95l-0.12-1.273l-2.473,0l-0.12,1.273c-0.829,0.172-1.6,0.501-2.284,0.95l-0.988-0.818
				l-1.749,1.749l0.818,0.988c-0.449,0.684-0.778,1.455-0.95,2.284l-1.273,0.12v2.473l1.273,0.12c0.172,0.829,0.5,1.6,0.95,2.284
				l-0.818,0.988l1.749,1.749l0.988-0.818c0.685,0.449,1.455,0.778,2.284,0.95l0.12,1.273h2.473l0.12-1.273
				C146.413,154.772,147.184,154.443,147.869,153.994z M140.88,148.434c0-1.849,1.499-3.348,3.348-3.348
				c1.849,0,3.348,1.499,3.348,3.348c0,1.849-1.499,3.348-3.348,3.348C142.379,151.782,140.88,150.283,140.88,148.434z"/>
			<path style="fill:#407BFF;" d="M164.858,146.132l1.427,1.182l2.527-2.527l-1.182-1.427c0.649-0.989,1.124-2.103,1.372-3.3
				l1.84-0.173v-3.573l-1.84-0.173c-0.248-1.198-0.723-2.311-1.372-3.3l1.182-1.428l-2.527-2.527l-1.427,1.182
				c-0.989-0.649-2.103-1.124-3.3-1.372l-0.173-1.84l-3.573,0.001l-0.173,1.839c-1.198,0.248-2.312,0.723-3.3,1.372l-1.428-1.182
				l-2.527,2.527l1.182,1.428c-0.649,0.989-1.124,2.102-1.372,3.3l-1.839,0.173v3.573l1.839,0.173
				c0.249,1.198,0.723,2.311,1.372,3.3l-1.182,1.427l2.527,2.527l1.428-1.182c0.989,0.649,2.103,1.124,3.3,1.372l0.173,1.84h3.573
				l0.173-1.84C162.755,147.255,163.869,146.781,164.858,146.132z M154.761,138.099c0-2.671,2.165-4.837,4.837-4.837
				c2.671,0,4.837,2.165,4.837,4.837c0,2.671-2.166,4.837-4.837,4.837C156.926,142.936,154.761,140.771,154.761,138.099z"/>
		</g>
	</g>
</g>
<g id="Character_1">
	<g>
		<g>
			<path style="fill:#407BFF;" d="M147.123,215.507c8.41,1.886,25.553,21.117,25.553,21.117l30.972,3.107l0.329,7.32
				c0,0-30.318,0.606-34.238,0.243c-3.92-0.363-22.616-14.91-22.616-14.91V215.507z"/>
			<path style="opacity:0.7;fill:#FFFFFF;" d="M203.974,247.054c0,0-30.31,0.6-34.23,0.24c-1.97-0.18-7.65-3.93-12.83-7.63
				c-2.63-1.87-5.13-3.74-6.95-5.11c-1.73-1.31-2.84-2.17-2.84-2.17v-16.88c8.41,1.89,25.55,21.12,25.55,21.12l30.97,3.11
				L203.974,247.054z"/>
			<g>
				<path style="fill:#EBB376;" d="M203,246.751l9.211-0.7l-1.89-7.852c0,0-6.508-0.416-8.774,4.462L203,246.751z"/>
				<polygon style="fill:#EBB376;" points="217.766,242.533 214.956,237.018 210.321,238.199 212.211,246.051 				"/>
			</g>
			<path style="opacity:0.1;" d="M156.914,239.664c-2.63-1.87-5.13-3.74-6.95-5.11c-0.68-2.21-1-4.52-0.7-6.61
				C149.264,227.944,155.664,232.934,156.914,239.664z"/>
			<path style="fill:#263238;" d="M129.206,408.179l-8.405,0.133c-0.283,0.006-0.525,0.207-0.582,0.485l-1.267,6.183
				c-0.108,0.554,0.253,1.09,0.807,1.198c0.074,0.014,0.149,0.021,0.225,0.018c2.719-0.087,4.696-0.285,8.112-0.34
				c2.104-0.033,8.453,0.086,11.357,0.04c2.904-0.046,3.238-2.921,2.045-3.167c-5.352-1.077-9.391-2.625-11.123-4.129
				C130.054,408.315,129.636,408.164,129.206,408.179z"/>
			<path style="fill:#263238;" d="M200.079,408.179l-8.405,0.133c-0.283,0.006-0.525,0.207-0.582,0.485l-1.267,6.183
				c-0.108,0.554,0.253,1.09,0.807,1.198c0.074,0.014,0.149,0.021,0.225,0.018c2.719-0.087,4.697-0.285,8.112-0.34
				c2.104-0.033,8.453,0.086,11.357,0.04s3.237-2.921,2.045-3.167c-5.352-1.077-9.391-2.625-11.123-4.129
				C200.927,408.315,200.508,408.164,200.079,408.179z"/>
			<path style="fill:#263238;" d="M118.923,408.605h11.451c0,0,14.58-48.058,15.836-60.318c1.255-12.259,1.712-42.979,1.712-42.979
				s0,0.009,0.01,0.019c0.01,0.01,0.019,0.029,0.038,0.057c0.495,0.656,4.822,6.743,9.796,13.81
				c6.515,9.254,14.152,20.191,15.76,22.873c4.727,7.894,16.282,66.538,16.282,66.538h11.442c0,0-2.882-52.49-8.759-69.79
				c-5.868-17.3-31.3-55.077-32.403-57.112c-1.408-2.587-4.869-10.804-4.869-10.804l-34.306,4.765c0,0,0.439,5.811,0.477,10.89
				c0.162,19.06,6.759,44.824,7.339,51.748C129.811,351.474,118.923,408.605,118.923,408.605z"/>
			<path style="fill:#407BFF;" d="M147.121,215.51c0,0,10.264,18.315,8.091,55.383c-10.336,1.438-29.275,4.072-34.305,4.772
				c-0.969-5.233-1.233-31.382-9.764-55.488c0,0,5.716-1.998,11.282-3.048c4.354-0.821,10.681-1.844,14.583-2.028
				C142.153,214.859,147.121,215.51,147.121,215.51z"/>
			<path style="opacity:0.7;fill:#FFFFFF;" d="M155.214,270.894c-7.56,1.05-19.71,2.74-27.67,3.85c-2.92,0.4-5.28,0.73-6.63,0.92
				c-0.6-3.2-0.93-14.27-3.06-27.91c-0.04-0.29-0.09-0.59-0.14-0.89c-0.6-3.75-1.34-7.68-2.26-11.69c-1.14-4.94-2.55-10.01-4.31-15
				c0,0,5.72-1.99,11.28-3.04c4.36-0.83,10.68-1.85,14.59-2.04c5.14-0.23,10.11,0.41,10.11,0.41S157.383,233.824,155.214,270.894z"
				/>
			<path style="fill:#263238;" d="M125.783,220.177l8.235,3.914l1.851,2.244c0,0,2.945,15.321,2.633,27.321l3.117,2.769l2.374-4.615
				c0,0-4.9-21.588-6.482-26.044l0.416-2.835l1.451-5.948l-13.072,0.805L125.783,220.177z"/>
			<g>
				<path style="fill:#EBB376;" d="M121.649,201.438c1.712,4.514,4.084,12.914,1.348,16.588c4.799,1.139,8.246,1.871,12.623,4.634
					c0.86-3.098,1.891-7.108,1.891-7.108c-5.419-0.356-5.944-4.242-5.655-8.025L121.649,201.438z"/>
				<path style="opacity:0.2;" d="M125.81,203.922l6.04,3.6c-0.071,0.896-0.092,1.795-0.008,2.652
					c-2.038,0.052-5.144-1.666-5.71-3.713C125.85,205.441,125.723,204.435,125.81,203.922z"/>
			</g>
			<path style="opacity:0.5;fill:#FFFFFF;" d="M118.923,408.605h11.451c0,0,14.58-48.058,15.836-60.318
				c1.255-12.259,1.712-42.979,1.712-42.979s0,0.009,0.01,0.019c0.01,0.01,0.019,0.029,0.038,0.057
				c0.495,0.656,4.822,6.743,9.796,13.81c6.515,9.254,14.152,20.191,15.76,22.873c4.727,7.894,16.282,66.538,16.282,66.538h11.442
				c0,0-2.882-52.49-8.759-69.79c-5.868-17.3-31.3-55.077-32.403-57.112c-1.408-2.587-4.869-10.804-4.869-10.804l-34.306,4.765
				c0,0,0.439,5.811,0.477,10.89c0.162,19.06,6.759,44.824,7.339,51.748C129.811,351.474,118.923,408.605,118.923,408.605z"/>
			<polygon style="fill:#407BFF;" points="118.14,218.094 120.987,214.538 130.221,216.316 134.908,221.687 135.497,215.488 
				137.231,213.409 141.019,215.048 141.019,218.928 138.322,218.05 135.986,223.464 128.613,220.433 126.972,222.521 			"/>
			<polygon style="opacity:0.9;fill:#FFFFFF;" points="118.14,218.094 120.987,214.538 130.221,216.316 134.908,221.687 
				135.497,215.488 137.231,213.409 141.019,215.048 141.019,218.928 138.322,218.05 135.986,223.464 128.613,220.433 
				126.972,222.521 			"/>
			<polygon style="opacity:0.1;" points="135.986,223.464 136.88,216.984 141.019,218.928 138.322,218.05 			"/>
			<polygon style="opacity:0.1;" points="135.986,223.464 129.154,218.437 126.972,222.521 128.613,220.433 			"/>
			<path style="opacity:0.2;" d="M147.922,305.308c0,0,0,0.009,0.01,0.019c0.01,0.01,0.019,0.029,0.038,0.057
				c0.495,0.656,4.822,6.743,9.796,13.81c1.607-13.62-9.644-19.45-9.644-19.45L147.922,305.308z"/>
			<g>
				<path style="fill:#263238;" d="M133.683,185.479c1.958,1.713,2.296,4.737,2.664,6.648c0.369,1.912,1.08,4.366-1.787,2.09
					C131.693,191.942,127.505,181.445,133.683,185.479z"/>
				<path style="fill:#EBB376;" d="M119.633,196.707c1.802,6.291,1.115,7.511,5.06,10.044c5.934,3.811,14.077,3.024,13.802-3.692
					c-0.248-6.045-1.969-16.718-8.773-17.819C123.02,184.154,117.831,190.416,119.633,196.707z"/>
				<path style="fill:#263238;" d="M121.235,200.883c3.366-0.624,2.689-1.906,2.441-2.192c-1.085-1.249-0.422-3.434,0.225-6.229
					c0.647-2.796-5.105-5.044-8.777-3.322C111.744,190.726,115.614,201.925,121.235,200.883z"/>
				<path style="fill:#EBB376;" d="M117.659,201.609c0.964,1.394,2.379,2.225,3.621,2.468c1.869,0.365,2.447-1.512,1.629-3.338
					c-0.736-1.644-2.595-3.815-4.327-3.352C116.876,197.843,116.557,200.015,117.659,201.609z"/>
				<path style="fill:#D58745;" d="M133.157,194.587c0,0,1.431,2.228,2.712,3.181c-0.607,0.847-1.932,0.789-1.932,0.789
					L133.157,194.587z"/>
				<path style="fill:#263238;" d="M114.606,186.379c1.009-2.371,12.127-5.897,16.885-5.033c2.455,0.446,3.048,2.464,2.622,3.753
					c-1.509,4.568-5.442,2.797-5.442,2.797c-5.002-1.884-6.963,2.627-6.963,2.627l-6.879-0.593
					C114.829,189.93,113.724,188.45,114.606,186.379z"/>
				<path style="fill:#263238;" d="M128.598,195.015c0.111,0.537,0.485,0.91,0.835,0.834s0.545-0.572,0.434-1.109
					c-0.111-0.537-0.485-0.91-0.835-0.834C128.682,193.981,128.488,194.478,128.598,195.015z"/>
				<path style="fill:#263238;" d="M134.661,193.702c0.111,0.537,0.485,0.91,0.835,0.834c0.351-0.076,0.545-0.573,0.434-1.109
					c-0.111-0.537-0.485-0.91-0.835-0.834C134.745,192.668,134.551,193.165,134.661,193.702z"/>
				<path style="fill:#263238;" d="M125.303,193.615c0.112-0.009,0.216-0.076,0.268-0.186c0.617-1.304,1.789-1.488,1.801-1.49
					c0.176-0.025,0.3-0.189,0.276-0.365c-0.023-0.176-0.186-0.298-0.361-0.273c-0.062,0.009-1.532,0.238-2.296,1.856
					c-0.076,0.162-0.008,0.353,0.152,0.428C125.194,193.611,125.249,193.62,125.303,193.615z"/>
				<path style="fill:#263238;" d="M135.821,191.204c0.061-0.005,0.121-0.027,0.174-0.068c0.141-0.11,0.167-0.313,0.059-0.453
					c-1.087-1.406-2.563-1.281-2.629-1.284c-0.177,0.016-0.309,0.172-0.296,0.35c0.014,0.177,0.167,0.307,0.343,0.293
					c0.061-0.008,1.2-0.089,2.072,1.039C135.611,191.17,135.717,191.212,135.821,191.204z"/>
				<path style="fill:none;stroke:#263238;stroke-width:0.5;stroke-linecap:round;stroke-linejoin:round;stroke-miterlimit:10;" d="
					M134.908,201.508c0,0-2.421,0.443-4.417-0.671"/>
			</g>
			<path style="opacity:0.1;" d="M127.544,274.744c-2.92,0.4-5.28,0.73-6.63,0.92c-0.6-3.2-0.93-14.27-3.06-27.91
				c2.36-6.28,4.64-11.05,4.64-11.05s6.394,6.403,12.02,15.898C138.578,259.462,134.544,269.834,127.544,274.744z"/>
		</g>
		<g>
			<polygon style="fill:#407BFF;" points="396.638,110.408 342.189,112.537 347.256,119.915 351.466,125.531 263.897,191.192 
				221.62,185.148 98.487,277.476 103.553,284.854 121.551,308.856 234.742,223.982 277.019,230.026 374.828,156.687 
				384.403,169.456 401.704,117.786 			"/>
			<polygon style="opacity:0.2;" points="396.638,110.408 342.189,112.537 347.256,119.915 351.466,125.531 263.897,191.192 
				221.62,185.148 98.487,277.476 103.553,284.854 121.551,308.856 234.742,223.982 277.019,230.026 374.828,156.687 
				384.403,169.456 401.704,117.786 			"/>
			<polygon style="fill:#407BFF;" points="396.638,110.408 342.189,112.537 351.764,125.307 263.897,191.192 221.62,185.148 
				98.487,277.476 116.484,301.479 229.676,216.605 271.952,222.649 369.762,149.309 379.337,162.079 			"/>
			<polygon style="fill:#407BFF;" points="396.638,110.408 342.189,112.537 351.764,125.307 263.897,191.192 221.62,185.148 
				98.487,277.476 116.484,301.479 229.676,216.605 271.952,222.649 369.762,149.309 379.337,162.079 			"/>
		</g>
		<g>
			<g>
				<path style="fill:#EBB376;" d="M157.723,264.11l8.237,4.182l-4.759,6.525c0,0-6.169-2.114-6.39-7.488L157.723,264.11z"/>
				<polygon style="fill:#EBB376;" points="169.739,273.672 165.027,277.687 161.2,274.817 165.959,268.292 				"/>
			</g>
			<path style="fill:#407BFF;" d="M111.143,220.177c-9.017,5.596,6.026,34.839,8.856,39.209c2.83,4.37,34.811,11.513,34.811,11.513
				l3.952-6.788l-29.704-13.195L120,228.206C116.483,220.95,111.143,220.177,111.143,220.177z"/>
			<path style="opacity:0.7;fill:#FFFFFF;" d="M111.143,220.177c-9.017,5.596,6.026,34.839,8.856,39.209
				c2.83,4.37,34.811,11.513,34.811,11.513l3.952-6.788l-29.704-13.195L120,228.206C116.483,220.95,111.143,220.177,111.143,220.177
				z"/>
		</g>
	</g>
</g>
<g id="Speech_bubble_2">
	<g>
		<polygon style="fill:#407BFF;" points="391.891,202.01 381.77,205.15 391.891,208.291 		"/>
		<polygon style="opacity:0.7;fill:#FFFFFF;" points="391.891,202.01 381.77,205.15 391.891,208.291 		"/>
		<g>
			<path style="fill:#407BFF;" d="M428.23,183.803h-28.728c-4.886,0-8.846,3.961-8.846,8.846v25.002
				c0,4.885,3.961,8.846,8.846,8.846h11.362h6.004h11.363c4.885,0,8.846-3.96,8.846-8.846V192.65
				C437.076,187.764,433.116,183.803,428.23,183.803z"/>
			<path style="opacity:0.7;fill:#FFFFFF;" d="M428.23,183.803h-28.728c-4.886,0-8.846,3.961-8.846,8.846v25.002
				c0,4.885,3.961,8.846,8.846,8.846h28.729c4.885,0,8.846-3.96,8.846-8.846V192.65C437.076,187.764,433.116,183.803,428.23,183.803
				z"/>
		</g>
		<g>
			<g style="enable-background:new    ;">
				
					<ellipse transform="matrix(0.7071 -0.7071 0.7071 0.7071 -23.8133 352.8109)" style="fill:#407BFF;" cx="413.974" cy="205.151" rx="14.258" ry="14.258"/>
			</g>
			<g>
				<path style="fill:#FFFFFF;" d="M412.477,211.519c-0.385,0-0.75-0.169-0.999-0.462l-5.594-6.591
					c-0.468-0.552-0.4-1.378,0.151-1.847c0.551-0.467,1.378-0.401,1.847,0.151l4.595,5.414l7.588-8.94
					c0.469-0.553,1.296-0.619,1.847-0.151c0.552,0.468,0.62,1.295,0.151,1.847l-8.587,10.118
					C413.227,211.35,412.862,211.519,412.477,211.519z"/>
			</g>
		</g>
	</g>
</g>
<g id="Character_2">
	<g>
		<polygon style="fill:#B55B52;" points="380.293,414.632 386.467,412.074 382.297,397.052 376.123,399.609 		"/>
		<g>
			<path style="fill:#263238;" d="M386.518,401.998l-11.73,4.86c0,0-10.38-38.31-20.38-58.05c-5.49-10.82-14.84-27.99-22.96-42.68
				c-4.01-7.28-7.72-13.94-10.51-18.93c-3.06-5.49-5.01-8.95-5.01-8.95l19.86-13.37c0,0,26.85,53.67,34.88,72.36
				C379.448,357.708,386.518,401.998,386.518,401.998z"/>
		</g>
		<path style="fill:#263238;" d="M386.036,408.599h-8.147c-0.273,0-0.512,0.19-0.574,0.456l-1.379,5.94
			c-0.143,0.616,0.335,1.199,0.966,1.188c2.621-0.045,4.536-0.199,7.837-0.199c2.031,0,8.154,0.211,10.959,0.211
			c2.743,0,3.199-2.774,2.053-3.025c-5.137-1.126-9.002-2.68-10.635-4.161C386.822,408.743,386.435,408.599,386.036,408.599z"/>
		<path style="opacity:0.3;" d="M331.448,306.128c-4.01-7.28-7.72-13.94-10.51-18.93c1.04-0.25,2.44-0.02,4.29,0.84
			C325.228,288.038,330.898,295.718,331.448,306.128z"/>
		<g>
			<g>
				<path style="fill:#B55B52;" d="M362.525,176.472l4.998-7.769l-7.403-3.229c0,0-4.257,4.94-1.734,9.69L362.525,176.472z"/>
				<polygon style="fill:#B55B52;" points="368.068,162.151 361.974,161.065 360.12,165.475 367.523,168.704 				"/>
			</g>
			<path style="fill:#263238;" d="M347.912,233.712c13.582-11.167,20.678-18.56,23.401-22.998
				c2.723-4.438-7.279-36.234-7.279-36.234l-7.829,0.361l3.559,31.351l-12.032,9.868L347.912,233.712z"/>
			<path style="opacity:0.2;fill:#FFFFFF;" d="M371.318,210.718c-2.46,3.99-8.45,10.38-19.53,19.76c-1.23,1.04-2.52,2.12-3.88,3.23
				l-0.06-5.82l-0.12-11.83l12.04-9.87l-3.56-31.35l7.83-0.36C364.038,174.478,374.038,206.278,371.318,210.718z"/>
			<path style="opacity:0.2;" d="M351.788,230.478c-1.23,1.04-2.52,2.12-3.88,3.23l-0.06-5.82
				C348.788,228.328,350.148,229.118,351.788,230.478z"/>
		</g>
		<polygon style="fill:#B55B52;" points="280.778,413.887 287.318,415.262 292.358,400.509 285.819,399.133 		"/>
		<g>
			<path style="fill:#263238;" d="M329.117,265.428c0,0-8.143,59.457-12.077,79.414c-4.308,21.855-23.479,62.402-23.479,62.402
				l-12.426-2.613c0,0,13.065-37.475,15.955-59.417c3.232-24.537,8.083-79.963,8.083-79.963L329.117,265.428z"/>
		</g>
		<path style="fill:#263238;" d="M289.697,408.599h-8.147c-0.273,0-0.512,0.19-0.574,0.456l-1.38,5.94
			c-0.143,0.616,0.335,1.199,0.966,1.188c2.622-0.045,4.536-0.199,7.837-0.199c2.031,0,8.154,0.211,10.959,0.211
			c2.743,0,3.199-2.774,2.053-3.025c-5.137-1.126-9.002-2.68-10.635-4.161C290.483,408.743,290.097,408.599,289.697,408.599z"/>
		<g>
			<path style="fill:#407BFF;" d="M342.827,264.174c7.791-27.912,4.23-43.397,4.23-43.397s-3.773-1.346-8.261-2.26
				c-0.587-0.123-1.186-0.23-1.797-0.33c-3.926-0.647-10.413-0.972-14.852-1.081c-0.927-0.022-1.869-0.02-2.785-0.003
				c-4.636,0.091-8.78,1.695-8.78,1.695c0.233,7.273-0.251,13.534-1.053,20.403c-0.591,5.039-0.361,9.82-1.163,14.143
				c-0.754,4.073-0.531,7.729-1.216,10.832H342.827z"/>
			<path style="opacity:0.7;fill:#FFFFFF;" d="M342.827,264.174c7.791-27.912,4.23-43.397,4.23-43.397s-3.773-1.346-8.261-2.26
				c-0.587-0.123-1.186-0.23-1.797-0.33c-3.926-0.647-10.413-0.972-14.852-1.081c-0.927-0.022-1.869-0.02-2.785-0.003
				c-4.636,0.091-8.78,1.695-8.78,1.695c0.233,7.273-0.251,13.534-1.053,20.403c-0.591,5.039-0.361,9.82-1.163,14.143
				c-0.754,4.073-0.531,7.729-1.216,10.832H342.827z"/>
		</g>
		<path style="fill:#407BFF;" d="M333.912,226.618c0.435,2.707,1.815,9.663,1.754,16.518c-0.645,1.33-1.512,4.572-2.295,5.887
			c-0.573-1.501-1.567-4.59-2.248-6.104c0.606-6.515,1.761-13.047,1.405-16.466L333.912,226.618z"/>
		<path style="fill:#B55B52;" d="M332.418,225.458c-5.16-1.46-7.98-4.55-9.56-7.67c1.03-0.51,1.9-1.42,2.65-2.58
			c1.4-2.15,2.35-5.15,2.97-7.98c0.39-1.78,0.64-3.5,0.8-4.9l3.04,4.8l3.33,5.25c-0.51,0.83-0.97,1.66-1.31,2.48
			c-0.99,2.42-0.95,4.75,1.99,6.54C336.728,223.178,336.368,226.568,332.418,225.458z"/>
		<polygon style="fill:#407BFF;" points="333.499,228.679 335.208,225.634 333.039,224.258 331.122,225.056 		"/>
		<g>
			<path style="fill:#FFFFFF;" d="M333.039,224.258c0,0-1.835,1.729-3.932,3.397c-2.461-1.804-8.162-6.501-7.408-9.979
				c0.496-0.974,1.942-1.399,1.942-1.399S327.047,220.598,333.039,224.258z"/>
		</g>
		<g>
			<path style="fill:#FFFFFF;" d="M333.039,224.258c0,0,1.848,2.006,2.911,4.372c2.117-1.065,1.364-8.033,0.742-8.86
				c-1.739-2.066-2.933-2.482-2.933-2.482S334.716,220.828,333.039,224.258z"/>
		</g>
		<path style="fill:#263238;" d="M302.039,285.537l24.791,2.501l4.292-10.134l4.069,9.193l11.155-3.538l-5.843-11.723
			c11.192-27.192,7.229-55.774,7.229-55.774c-5.078,1.227-11.171,2.053-11.171,2.053c6.501,9.875-3.191,30.909-3.191,30.909
			c-5.826-16.247-12.798-31.937-12.798-31.937c-7.079,0.201-12.754,2.977-12.754,2.977s1.185,33.224-2.178,42.638
			C302.289,272.104,302.039,285.537,302.039,285.537z"/>
		<path style="opacity:0.2;fill:#FFFFFF;" d="M340.508,271.838l5.84,11.72l-11.16,3.54l-4.07-9.19l-4.29,10.13l-24.79-2.5
			c0,0,0.25-13.43,3.6-22.84c1.07-2.99,1.68-8.39,2.01-14.36c0.29-5.01,0.37-10.44,0.37-15.18c0-7.37-0.2-13.09-0.2-13.09
			s5.67-2.78,12.75-2.98c0,0,6.98,15.69,12.8,31.93c0,0,9.7-21.03,3.19-30.9c0,0,6.1-0.83,11.17-2.06
			C347.728,216.058,351.698,244.638,340.508,271.838z"/>
		<path style="fill:#263238;" d="M324.374,230.516l-5.441,6.854c0,0,12.713,9.103,16.451,24.215l-1.339-8.825l10.453-14.683
			l-4.809-6.008l5.719-4.241c0,0-4.916-8.279-8.846-9.714c6.501,9.875-3.191,30.909-3.191,30.909
			c-5.826-16.247-12.798-31.937-12.798-31.937s-4.605,3.267-7.079,10.11L324.374,230.516z"/>
		<path style="opacity:0.2;" d="M335.648,212.378c-0.51,0.83-0.97,1.66-1.31,2.48c-2.22,1.08-5.13,1.5-8.83,0.35
			c1.4-2.15,2.35-5.15,2.97-7.98c1.27-0.09,2.57-0.12,3.84-0.1L335.648,212.378z"/>
		<g>
			<path style="fill:#263238;" d="M323.327,192.954c-1.203,2.365-1.629,7.564,2.137,6.48
				C329.229,198.35,325.394,188.89,323.327,192.954z"/>
			<path style="fill:#B55B52;" d="M340.748,199.332c-0.688,6.479-0.761,10.309-4.196,13.467c-5.166,4.751-13.067,1.337-14.331-5.237
				c-1.138-5.917,0.179-15.518,6.663-17.759C335.272,187.596,341.436,192.853,340.748,199.332z"/>
			<path style="fill:#263238;" d="M345.755,193.496l-6.822-2.461l-1.413,3.915c0.154-0.034,0.324-0.06,0.47-0.098
				c0,0-1.357,5.936,1.337,8.945C344.876,201.765,347.922,196.579,345.755,193.496z"/>
			<path style="fill:#B55B52;" d="M343.014,204.859c-0.594,1.65-1.897,2.863-3.214,3.446c-1.982,0.877-3.302-0.828-3.027-2.867
				c0.247-1.835,1.577-4.502,3.698-4.519C342.562,200.904,343.694,202.973,343.014,204.859z"/>
			<path style="fill:#263238;" d="M330.797,200.612c-0.024,0.529-0.323,0.943-0.67,0.924c-0.346-0.019-0.608-0.463-0.585-0.992
				c0.023-0.529,0.323-0.943,0.67-0.924S330.82,200.083,330.797,200.612z"/>
			<path style="fill:#263238;" d="M324.808,200.287c-0.024,0.529-0.323,0.943-0.67,0.924c-0.346-0.019-0.608-0.463-0.585-0.993
				c0.024-0.529,0.323-0.943,0.67-0.924C324.57,199.313,324.831,199.758,324.808,200.287z"/>
			<path style="fill:#A02724;" d="M326.7,200.654c0,0-1.366,2.873-2.768,4.227c0.888,0.877,2.499,0.563,2.499,0.563L326.7,200.654z"
				/>
			<path style="fill:#263238;" d="M329.181,207.623c-0.219,0.018-0.449,0.021-0.692,0.008c-0.086-0.005-0.153-0.078-0.149-0.164
				c0.004-0.086,0.078-0.152,0.162-0.147c2.328,0.124,3.483-1.438,3.495-1.454c0.05-0.069,0.148-0.084,0.217-0.034
				c0.07,0.051,0.086,0.148,0.036,0.218C332.206,206.114,331.209,207.461,329.181,207.623z"/>
			<path style="fill:#263238;" d="M332.729,198.781c-0.108,0.009-0.218-0.04-0.285-0.137c-0.788-1.151-1.936-1.146-1.947-1.146
				c-0.172,0.003-0.315-0.134-0.319-0.306c-0.004-0.172,0.132-0.313,0.303-0.316c0.061-0.001,1.498-0.007,2.476,1.421
				c0.098,0.143,0.062,0.336-0.08,0.432C332.832,198.76,332.781,198.777,332.729,198.781z"/>
			<path style="fill:#263238;" d="M322.319,198.089c-0.059,0.005-0.12-0.007-0.176-0.038c-0.151-0.084-0.207-0.273-0.125-0.423
				c0.822-1.509,2.25-1.616,2.314-1.629c0.171-0.012,0.322,0.117,0.336,0.289c0.014,0.171-0.113,0.319-0.283,0.333
				c-0.06,0.002-1.159,0.099-1.819,1.309C322.513,198.024,322.419,198.081,322.319,198.089z"/>
			<path style="fill:#263238;" d="M339.667,197.003c0,0-0.195,0.092-0.51,0.163c-0.629,0.143-1.733,0.203-2.707-0.717
				c-1.461-1.381-0.486-6.439-6.151-5.466c0,0-1.52-1.024-3.259,0.129c-1.739,1.153-2.615,7.061-5.064,5.447
				c-2.449-1.613-1.723-2.298-1.723-2.298s0.605,0.71,1.17,0.471c0,0-1.047-1.608,0.138-3.036c0,0,0.414,0.974,0.899,0.957
				c0,0,0.077-3.131,2.838-6.538c2.761-3.407,12.042,0.42,12.042,0.42s1.828-1.638,5.706,1.102c3.878,2.74,4.238,8.546,2.852,10.601
				"/>
		</g>
		<path style="opacity:0.2;" d="M311.538,233.708c0,0-0.21,9.25-3.89,14.63c0.29-5.01,0.37-10.44,0.37-15.18
			C309.177,232.918,310.358,233.068,311.538,233.708z"/>
		<g>
			<g>
				<path style="fill:#B55B52;" d="M273.37,231.83l-9.157-1.215l2.328-7.733c0,0,6.521-0.05,8.51,4.947L273.37,231.83z"/>
				<polygon style="fill:#B55B52;" points="258.863,226.791 261.978,221.442 266.54,222.881 264.212,230.615 				"/>
			</g>
			<path style="fill:#263238;" d="M313.492,233.712c0,0-13.618,19.672-18.628,21.092c-5.009,1.421-24.906-22.817-24.906-22.817
				l4.467-6.438l18.211,15.913c0,0,9.485-17.205,15.182-21.399L313.492,233.712z"/>
			<path style="opacity:0.2;fill:#FFFFFF;" d="M313.492,233.712c0,0-13.618,19.672-18.628,21.092
				c-5.009,1.421-24.906-22.817-24.906-22.817l4.467-6.438l18.211,15.913c0,0,9.485-17.205,15.182-21.399L313.492,233.712z"/>
		</g>
	</g>
</g>
</svg>
