<svg version="1.1" id="Capa_1" xmlns="http://www.w3.org/2000/svg" xmlns:xlink="http://www.w3.org/1999/xlink" x="0px" y="0px" viewBox="0 0 512 512" style="enable-background:new 0 0 512 512;" xml:space="preserve" width="300" height="300" xmlns:svgjs="http://svgjs.dev/svgjs"><g width="100%" height="100%" transform="matrix(1,0,0,1,0,0)"><g>
	<g>
		<path d="M256.484,93.873h-0.357c-5.523,0-10,4.477-10,10s4.477,10,10,10h0.263c0.016,0,0.032,0,0.048,0&#10;&#9;&#9;&#9;c5.5,0,9.973-4.446,9.999-9.953C266.463,98.397,262.007,93.899,256.484,93.873z" fill="#009dc9" fill-opacity="1" data-original-color="#000000ff" stroke="none" stroke-opacity="1"/>
	</g>
</g><g>
	<g>
		<path d="M298.078,99.36c-5.336-1.427-10.817,1.742-12.244,7.078c-1.427,5.335,1.742,10.817,7.078,12.244&#10;&#9;&#9;&#9;c38.02,10.167,68.998,35.347,87.261,68.124c-0.427,0.084-0.851,0.19-1.27,0.331l-63.571,21.441&#10;&#9;&#9;&#9;c-1.46,0.492-2.786,1.315-3.875,2.405l-43.35,43.351l-0.682-0.682c3.675-21.279-3.182-43.329-18.578-58.725&#10;&#9;&#9;&#9;c-16.822-16.82-41.562-23.454-64.569-17.31c-3.453,0.922-6.151,3.617-7.078,7.069c-0.926,3.452,0.06,7.136,2.587,9.664&#10;&#9;&#9;&#9;l28.529,28.528l-5.506,20.549l-20.549,5.506l-28.528-28.529c-2.528-2.527-6.212-3.512-9.664-2.587&#10;&#9;&#9;&#9;c-3.452,0.927-6.147,3.625-7.069,7.078c-6.144,23.007,0.489,47.749,17.31,64.569c15.422,15.422,37.504,22.273,58.812,18.563&#10;&#9;&#9;&#9;l0.646,0.646l-52.643,52.643c-28.838-26.008-46.995-63.643-46.995-105.443c0-65.202,44.099-121.833,107.239-137.717&#10;&#9;&#9;&#9;c5.356-1.347,8.606-6.781,7.258-12.137c-1.348-5.356-6.779-8.605-12.137-7.258c-72.044,18.124-122.36,82.731-122.36,157.113&#10;&#9;&#9;&#9;c0,89.327,72.673,162,162,162s162-72.673,162-162C418.127,182.621,368.761,118.261,298.078,99.36z M366.174,212.536l-9.842,29.18&#10;&#9;&#9;&#9;l-19.338-19.338L366.174,212.536z M318.527,232.195l27.988,27.988l-36.28,36.279l-27.987-27.987L318.527,232.195z&#10;&#9;&#9;&#9; M205.223,388.431l21.353-21.354c3.905-3.905,3.905-10.237,0-14.142c-3.905-3.905-10.237-3.905-14.142,0l-26.396,26.396&#10;&#9;&#9;&#9;c-3.087-1.759-6.103-3.628-9.04-5.607l50.91-50.909l27.987,27.987l-40.968,40.968C211.64,390.772,208.405,389.657,205.223,388.431&#10;&#9;&#9;&#9;z M256.127,397.872c-6.06,0.001-12.032-0.382-17.894-1.123l31.805-31.805l26.932,26.932&#10;&#9;&#9;&#9;C284.029,395.77,270.32,397.872,256.127,397.872z M317.357,383.978l-93.96-93.96c-2.526-2.525-6.206-3.512-9.657-2.589&#10;&#9;&#9;&#9;c-16.146,4.321-33.5-0.317-45.29-12.108c-6.858-6.857-11.299-15.596-12.967-24.881l16.716,16.716&#10;&#9;&#9;&#9;c2.526,2.526,6.209,3.513,9.659,2.588l31.704-8.495c3.451-0.925,6.146-3.62,7.071-7.071l8.495-31.703&#10;&#9;&#9;&#9;c0.925-3.451-0.062-7.133-2.588-9.66L209.824,196.1c9.285,1.668,18.023,6.109,24.88,12.967&#10;&#9;&#9;&#9;c11.771,11.77,16.417,29.099,12.126,45.223c-0.917,3.446,0.071,7.121,2.593,9.643l99.413,99.413&#10;&#9;&#9;&#9;C339.351,371.539,328.775,378.499,317.357,383.978z M363.019,349.245l-38.641-38.641l43.351-43.35&#10;&#9;&#9;&#9;c1.089-1.089,1.913-2.416,2.405-3.875l19.156-56.795c5.733,15.461,8.839,32.095,8.839,49.29&#10;&#9;&#9;&#9;C398.127,291.589,384.867,324.264,363.019,349.245z" fill="#009dc9" fill-opacity="1" data-original-color="#000000ff" stroke="none" stroke-opacity="1"/>
	</g>
</g><g>
	<g>
		<path d="M502,202h-39.535c-4.917-18.909-12.387-36.953-22.279-53.818l27.947-27.946c3.905-3.905,3.905-10.237,0-14.143&#10;&#9;&#9;&#9;l-62.226-62.226c-3.905-3.905-10.237-3.905-14.143,0l-27.946,27.947C346.953,61.922,328.909,54.453,310,49.535V10&#10;&#9;&#9;&#9;c0-5.523-4.477-10-10-10h-88c-5.523,0-10,4.477-10,10v39.601c-18.879,4.934-36.892,12.413-53.725,22.307l-28.039-28.04&#10;&#9;&#9;&#9;c-3.905-3.905-10.237-3.905-14.143,0l-62.226,62.226c-3.905,3.905-3.905,10.237,0,14.143l28.108,28.108&#10;&#9;&#9;&#9;C62.128,165.166,54.69,183.153,49.789,202H10c-5.523,0-10,4.477-10,10v88c0,5.523,4.477,10,10,10h39.854&#10;&#9;&#9;&#9;c4.918,18.816,12.365,36.772,22.214,53.564l-28.201,28.2c-3.905,3.905-3.905,10.237,0,14.143l62.226,62.226&#10;&#9;&#9;&#9;c3.905,3.905,10.237,3.905,14.143,0l28.2-28.201c16.791,9.849,34.748,17.295,53.564,22.214V502c0,5.523,4.477,10,10,10h88&#10;&#9;&#9;&#9;c5.523,0,10-4.477,10-10v-39.789c18.847-4.901,36.834-12.339,53.656-22.187l28.108,28.108c3.905,3.905,10.237,3.905,14.143,0&#10;&#9;&#9;&#9;l62.226-62.226c3.905-3.905,3.905-10.237,0-14.143l-28.04-28.039c9.894-16.833,17.373-34.846,22.307-53.725H502&#10;&#9;&#9;&#9;c5.523,0,10-4.477,10-10v-88C512,206.477,507.523,202,502,202z M492,290h-37.473c-4.69,0-8.75,3.259-9.764,7.838&#10;&#9;&#9;&#9;c-4.888,22.074-13.549,42.932-25.742,61.995c-2.53,3.956-1.967,9.139,1.353,12.459l26.544,26.544l-48.083,48.083l-26.602-26.603&#10;&#9;&#9;&#9;c-3.316-3.316-8.489-3.883-12.444-1.363c-19.059,12.142-39.898,20.758-61.938,25.609c-4.585,1.009-7.851,5.071-7.851,9.766V492&#10;&#9;&#9;&#9;h-68v-37.727c0-4.69-3.259-8.75-7.838-9.764c-22.011-4.875-42.819-13.504-61.846-25.649c-3.955-2.524-9.134-1.959-12.452,1.358&#10;&#9;&#9;&#9;l-26.7,26.7l-48.083-48.083l26.7-26.7c3.318-3.318,3.883-8.497,1.358-12.452c-12.146-19.028-20.775-39.836-25.649-61.846&#10;&#9;&#9;&#9;c-1.014-4.579-5.074-7.838-9.764-7.838H20v-68h37.671c4.695,0,8.757-3.266,9.766-7.851c4.851-22.041,13.467-42.879,25.609-61.938&#10;&#9;&#9;&#9;c2.519-3.955,1.953-9.128-1.363-12.444L65.08,113.164l48.083-48.083l26.544,26.544c3.319,3.319,8.502,3.882,12.459,1.353&#10;&#9;&#9;&#9;c19.063-12.193,39.921-20.854,61.995-25.742c4.579-1.014,7.838-5.074,7.838-9.764V20h68v37.417c0,4.694,3.266,8.757,7.851,9.766&#10;&#9;&#9;&#9;c22.102,4.865,42.991,13.512,62.087,25.702c3.956,2.525,9.134,1.96,12.452-1.358l26.446-26.446l48.083,48.083l-26.446,26.446&#10;&#9;&#9;&#9;c-3.318,3.318-3.883,8.497-1.358,12.452c12.189,19.096,20.837,39.985,25.702,62.087c1.009,4.585,5.072,7.851,9.766,7.851H492V290z&#10;&#9;&#9;&#9;" fill="#009dc9" fill-opacity="1" data-original-color="#000000ff" stroke="none" stroke-opacity="1"/>
	</g>
</g><g>
</g><g>
</g><g>
</g><g>
</g><g>
</g><g>
</g><g>
</g><g>
</g><g>
</g><g>
</g><g>
</g><g>
</g><g>
</g><g>
</g><g>
</g></g></svg>